%TF.GenerationSoftware,KiCad,Pcbnew,(5.0.0)*%
%TF.CreationDate,2018-10-30T19:14:49+09:00*%
%TF.ProjectId,ATTiny85-mppt,415454696E7938352D6D7070742E6B69,rev?*%
%TF.SameCoordinates,Original*%
%TF.FileFunction,Copper,L2,Bot,Signal*%
%TF.FilePolarity,Positive*%
%FSLAX46Y46*%
G04 Gerber Fmt 4.6, Leading zero omitted, Abs format (unit mm)*
G04 Created by KiCad (PCBNEW (5.0.0)) date 10/30/18 19:14:49*
%MOMM*%
%LPD*%
G01*
G04 APERTURE LIST*
%ADD10R,2.400000X2.400000*%
%ADD11C,2.400000*%
%ADD12C,2.000000*%
%ADD13O,3.200000X3.200000*%
%ADD14R,3.200000X3.200000*%
%ADD15O,2.200000X2.200000*%
%ADD16R,2.200000X2.200000*%
%ADD17C,1.800000*%
%ADD18R,1.800000X1.800000*%
%ADD19C,4.064000*%
%ADD20C,3.600000*%
%ADD21O,1.501140X2.499360*%
%ADD22R,1.520000X1.520000*%
%ADD23C,1.520000*%
%ADD24C,1.600000*%
%ADD25O,1.600000X1.600000*%
%ADD26O,1.800000X1.800000*%
%ADD27R,1.600000X1.600000*%
%ADD28C,3.000000*%
%ADD29C,2.000000*%
%ADD30C,1.500000*%
%ADD31C,1.000000*%
%ADD32C,2.500000*%
%ADD33C,0.254000*%
G04 APERTURE END LIST*
D10*
X96611440Y-98790760D03*
D11*
X96611440Y-103790760D03*
X124303800Y-50932080D03*
D10*
X119303800Y-50932080D03*
X79603600Y-47218600D03*
D11*
X79603600Y-42218600D03*
D12*
X89898840Y-35112960D03*
X97398840Y-35112960D03*
D11*
X77092800Y-58628280D03*
D10*
X82092800Y-58628280D03*
X67818000Y-65938400D03*
D11*
X62818000Y-65938400D03*
X79603600Y-33585160D03*
D10*
X79603600Y-28585160D03*
D13*
X131612640Y-35077400D03*
D14*
X131612640Y-50317400D03*
X107579160Y-106131360D03*
D13*
X122819160Y-106131360D03*
D15*
X101848920Y-33782000D03*
D16*
X112008920Y-33782000D03*
D17*
X68996560Y-94996000D03*
D18*
X68996560Y-97536000D03*
D16*
X58252360Y-49809400D03*
D15*
X58252360Y-39649400D03*
D14*
X70337680Y-27584400D03*
D13*
X55097680Y-27584400D03*
X55097680Y-34117280D03*
D14*
X70337680Y-34117280D03*
D18*
X104876600Y-77830680D03*
D17*
X104876600Y-75290680D03*
X104876600Y-81569560D03*
D18*
X104876600Y-84109560D03*
D13*
X138831320Y-35077400D03*
D14*
X138831320Y-50317400D03*
X107579160Y-99674680D03*
D13*
X122819160Y-99674680D03*
D19*
X48549560Y-36332160D03*
X48508920Y-76621640D03*
X138775440Y-98384360D03*
X128366520Y-108788200D03*
D20*
X125105160Y-73385680D03*
X125105160Y-60685680D03*
X125105160Y-79314040D03*
X125105160Y-92014040D03*
D21*
X81955640Y-105196640D03*
X84495640Y-105196640D03*
X79415640Y-105196640D03*
X108036360Y-28549600D03*
X102956360Y-28549600D03*
X105496360Y-28549600D03*
D22*
X116057680Y-29413200D03*
D23*
X116057680Y-34493200D03*
X116057680Y-31953200D03*
X121137680Y-31953200D03*
X121137680Y-34493200D03*
D22*
X121137680Y-29413200D03*
D24*
X74757280Y-89387680D03*
D25*
X74757280Y-76687680D03*
X81782920Y-76672440D03*
D24*
X81782920Y-89372440D03*
X91475560Y-89372440D03*
D25*
X91475560Y-76672440D03*
X96352360Y-89372440D03*
D24*
X96352360Y-76672440D03*
D25*
X53075840Y-52339240D03*
D24*
X53075840Y-39639240D03*
X68966080Y-89387680D03*
D25*
X68966080Y-76687680D03*
D24*
X58176160Y-55956200D03*
D25*
X70876160Y-55956200D03*
X112994440Y-43820080D03*
D24*
X112994440Y-56520080D03*
D25*
X104846120Y-41168320D03*
D24*
X104846120Y-53868320D03*
X53045360Y-55956200D03*
D25*
X53045360Y-68656200D03*
D24*
X86258400Y-89372440D03*
D25*
X86258400Y-76672440D03*
X104896920Y-57434480D03*
D24*
X104896920Y-70134480D03*
D25*
X87431880Y-70078600D03*
D24*
X74731880Y-70078600D03*
X88717120Y-55940960D03*
D25*
X88717120Y-43240960D03*
D12*
X58547000Y-90878520D03*
X63047000Y-90878520D03*
X58547000Y-97378520D03*
X63047000Y-97378520D03*
D26*
X69819520Y-49819560D03*
X67279520Y-49819560D03*
D18*
X64739520Y-49819560D03*
D25*
X100020120Y-62539880D03*
X92400120Y-70159880D03*
X100020120Y-65079880D03*
X92400120Y-67619880D03*
X100020120Y-67619880D03*
X92400120Y-65079880D03*
X100020120Y-70159880D03*
D27*
X92400120Y-62539880D03*
X92395040Y-45730160D03*
D25*
X100015040Y-53350160D03*
X92395040Y-48270160D03*
X100015040Y-50810160D03*
X92395040Y-50810160D03*
X100015040Y-48270160D03*
X92395040Y-53350160D03*
X100015040Y-45730160D03*
D22*
X107868720Y-38465760D03*
D23*
X112948720Y-38465760D03*
X110408720Y-38465760D03*
D25*
X109093000Y-43820080D03*
D24*
X109093000Y-56520080D03*
X114945160Y-40436800D03*
D25*
X127645160Y-40436800D03*
D28*
X127650744Y-92014040D02*
X134787640Y-84877144D01*
X125105160Y-92014040D02*
X127650744Y-92014040D01*
X134787640Y-84877144D02*
X134787640Y-75768200D01*
X134787640Y-75768200D02*
X132166360Y-73146920D01*
X131927600Y-73385680D02*
X125105160Y-73385680D01*
X132166360Y-73146920D02*
X131927600Y-73385680D01*
X129531439Y-92014040D02*
X127650744Y-92014040D01*
X135901759Y-98384360D02*
X129531439Y-92014040D01*
X138775440Y-98384360D02*
X135901759Y-98384360D01*
X122819160Y-99674680D02*
X122819160Y-106131360D01*
X125709680Y-106131360D02*
X128366520Y-108788200D01*
X122819160Y-106131360D02*
X125709680Y-106131360D01*
X128366520Y-105222040D02*
X122819160Y-99674680D01*
X128366520Y-108788200D02*
X128366520Y-105222040D01*
X96611440Y-103790760D02*
X96611440Y-111777668D01*
X117172852Y-111777668D02*
X122819160Y-106131360D01*
X96611440Y-111777668D02*
X117172852Y-111777668D01*
X96611440Y-111777668D02*
X82025076Y-111777669D01*
X82025076Y-111777669D02*
X82025076Y-107606244D01*
D29*
X81955640Y-107536808D02*
X82025076Y-107606244D01*
X81955640Y-105196640D02*
X81955640Y-107536808D01*
D30*
X81955640Y-93634560D02*
X81955640Y-105196640D01*
X85417761Y-90172439D02*
X81955640Y-93634560D01*
X86258400Y-89372440D02*
X85458401Y-90172439D01*
X85458401Y-90172439D02*
X85417761Y-90172439D01*
D28*
X138831320Y-35077400D02*
X131612640Y-35077400D01*
D31*
X125503799Y-49732081D02*
X125503799Y-47968041D01*
X124303800Y-50932080D02*
X125503799Y-49732081D01*
X131612640Y-41859200D02*
X131612640Y-35077400D01*
X125503799Y-47968041D02*
X131612640Y-41859200D01*
D28*
X131612640Y-35077400D02*
X131612640Y-32814659D01*
X123606111Y-24808130D02*
X113611710Y-24808130D01*
X113611710Y-24808130D02*
X113403430Y-24808130D01*
X113403430Y-24808130D02*
X109728000Y-28483560D01*
D30*
X109661960Y-28549600D02*
X109728000Y-28483560D01*
X108036360Y-28549600D02*
X109661960Y-28549600D01*
X121137680Y-34493200D02*
X122504200Y-34493200D01*
X125496320Y-31501080D02*
X125496320Y-26698339D01*
X122504200Y-34493200D02*
X125496320Y-31501080D01*
D28*
X131612640Y-32814659D02*
X125496320Y-26698339D01*
X125496320Y-26698339D02*
X123606111Y-24808130D01*
D30*
X112720120Y-34493200D02*
X112008920Y-33782000D01*
X116057680Y-34493200D02*
X112720120Y-34493200D01*
X117589839Y-35253199D02*
X122773440Y-40436800D01*
X116817679Y-35253199D02*
X117589839Y-35253199D01*
X116057680Y-34493200D02*
X116817679Y-35253199D01*
X122773440Y-40436800D02*
X119303800Y-43906440D01*
X119303800Y-43906440D02*
X119303800Y-50932080D01*
X122773440Y-40436800D02*
X127645160Y-40436800D01*
X77002640Y-49819560D02*
X79603600Y-47218600D01*
X69819520Y-49819560D02*
X77002640Y-49819560D01*
X103230680Y-62539880D02*
X100020120Y-62539880D01*
X104896920Y-70134480D02*
X104896920Y-64206120D01*
X104896920Y-64206120D02*
X103230680Y-62539880D01*
D29*
X84739480Y-47218600D02*
X88717120Y-43240960D01*
X79603600Y-47218600D02*
X84739480Y-47218600D01*
X100015040Y-44598790D02*
X95898770Y-40482520D01*
X100015040Y-45730160D02*
X100015040Y-44598790D01*
X91475560Y-40482520D02*
X88717120Y-43240960D01*
X95898770Y-40482520D02*
X91475560Y-40482520D01*
X95898770Y-38027243D02*
X95898770Y-40482520D01*
X97398840Y-36527173D02*
X95898770Y-38027243D01*
X97398840Y-35112960D02*
X97398840Y-36527173D01*
D30*
X100517960Y-35112960D02*
X101848920Y-33782000D01*
X97398840Y-35112960D02*
X100517960Y-35112960D01*
D32*
X79603600Y-33585160D02*
X79603600Y-42218600D01*
X60100200Y-68656200D02*
X62818000Y-65938400D01*
X53045360Y-68656200D02*
X60100200Y-68656200D01*
X62818000Y-65938400D02*
X62818000Y-61799480D01*
X62818000Y-61799480D02*
X64028320Y-60589160D01*
X75131920Y-60589160D02*
X77092800Y-58628280D01*
D30*
X67279520Y-51092352D02*
X67279520Y-60589160D01*
X67279520Y-49819560D02*
X67279520Y-51092352D01*
D32*
X64028320Y-60589160D02*
X67279520Y-60589160D01*
X67279520Y-60589160D02*
X75131920Y-60589160D01*
D30*
X74757280Y-90519050D02*
X74757280Y-89387680D01*
X74757280Y-94175280D02*
X74757280Y-90519050D01*
X71396560Y-97536000D02*
X74757280Y-94175280D01*
X68996560Y-97536000D02*
X71396560Y-97536000D01*
X81767680Y-89387680D02*
X81782920Y-89372440D01*
X74757280Y-89387680D02*
X81767680Y-89387680D01*
X91475560Y-71084440D02*
X92400120Y-70159880D01*
X91475560Y-76672440D02*
X91475560Y-71084440D01*
X81782920Y-86365080D02*
X91475560Y-76672440D01*
X81782920Y-89372440D02*
X81782920Y-86365080D01*
X70521840Y-42218600D02*
X79603600Y-42218600D01*
X67279520Y-49819560D02*
X67279520Y-45460920D01*
X67279520Y-45460920D02*
X70521840Y-42218600D01*
D28*
X58547000Y-90878520D02*
X58547000Y-86659720D01*
X58547000Y-97378520D02*
X58547000Y-101234240D01*
X58547000Y-101234240D02*
X61635640Y-104322880D01*
X61635640Y-104322880D02*
X66502280Y-104322880D01*
X58547000Y-90878520D02*
X58547000Y-97378520D01*
D29*
X66502280Y-102930280D02*
X66502280Y-104322880D01*
X68996560Y-100436000D02*
X66502280Y-102930280D01*
X68996560Y-97536000D02*
X68996560Y-100436000D01*
D28*
X58547000Y-74157840D02*
X53045360Y-68656200D01*
X58547000Y-86659720D02*
X58547000Y-74157840D01*
X48508920Y-73192640D02*
X53045360Y-68656200D01*
X48508920Y-76621640D02*
X48508920Y-73192640D01*
X48508920Y-80840440D02*
X58547000Y-90878520D01*
X48508920Y-76621640D02*
X48508920Y-80840440D01*
D30*
X77092800Y-58628280D02*
X83168480Y-52552600D01*
X83168480Y-52552600D02*
X89540080Y-52552600D01*
X90337640Y-53350160D02*
X92395040Y-53350160D01*
X89540080Y-52552600D02*
X90337640Y-53350160D01*
D29*
X88371040Y-33585160D02*
X89898840Y-35112960D01*
X79603600Y-33585160D02*
X88371040Y-33585160D01*
D28*
X66502280Y-104322880D02*
X75646280Y-104322880D01*
X75646280Y-104322880D02*
X76438760Y-105115360D01*
X76438760Y-105115360D02*
X77952600Y-105115360D01*
D30*
X78033880Y-105196640D02*
X77952600Y-105115360D01*
X79415640Y-105196640D02*
X78033880Y-105196640D01*
X104846120Y-41168320D02*
X104846120Y-45674280D01*
X102250240Y-48270160D02*
X100015040Y-48270160D01*
X104846120Y-45674280D02*
X102250240Y-48270160D01*
X72007530Y-55956200D02*
X73236890Y-54726840D01*
X70876160Y-55956200D02*
X72007530Y-55956200D01*
X73236890Y-54726840D02*
X77429360Y-54726840D01*
X77429360Y-54726840D02*
X82087720Y-50068480D01*
X82087720Y-50068480D02*
X90007440Y-50068480D01*
X90749120Y-50810160D02*
X92395040Y-50810160D01*
X90007440Y-50068480D02*
X90749120Y-50810160D01*
D28*
X70337680Y-34117280D02*
X70337680Y-27584400D01*
X78602840Y-27584400D02*
X79603600Y-28585160D01*
X70337680Y-27584400D02*
X78602840Y-27584400D01*
X83803600Y-28585160D02*
X87580630Y-24808130D01*
X79603600Y-28585160D02*
X83803600Y-28585160D01*
X87580630Y-24808130D02*
X105547160Y-24808130D01*
X105547160Y-24808130D02*
X105547160Y-26339800D01*
D29*
X105496360Y-26390600D02*
X105547160Y-26339800D01*
X105496360Y-28549600D02*
X105496360Y-26390600D01*
D28*
X138831320Y-50317400D02*
X131612640Y-50317400D01*
X125105160Y-60685680D02*
X116022120Y-69768720D01*
X116022120Y-69768720D02*
X116022120Y-78389480D01*
X116946680Y-79314040D02*
X125105160Y-79314040D01*
X116022120Y-78389480D02*
X116946680Y-79314040D01*
X131612640Y-54178200D02*
X125105160Y-60685680D01*
X131612640Y-50317400D02*
X131612640Y-54178200D01*
X116022120Y-95831720D02*
X116022120Y-78389480D01*
X112179160Y-99674680D02*
X116022120Y-95831720D01*
X107579160Y-99674680D02*
X112179160Y-99674680D01*
X107579160Y-99674680D02*
X107579160Y-106131360D01*
D30*
X68966080Y-94965520D02*
X68996560Y-94996000D01*
X68966080Y-89387680D02*
X68966080Y-94965520D01*
X64729360Y-49809400D02*
X64739520Y-49819560D01*
X58252360Y-49809400D02*
X64729360Y-49809400D01*
D28*
X52882800Y-36332160D02*
X55097680Y-34117280D01*
X48549560Y-36332160D02*
X52882800Y-36332160D01*
X55097680Y-34117280D02*
X55097680Y-27584400D01*
X53075840Y-36139120D02*
X55097680Y-34117280D01*
X53075840Y-39639240D02*
X53075840Y-36139120D01*
X53086000Y-39649400D02*
X53075840Y-39639240D01*
X58252360Y-39649400D02*
X53086000Y-39649400D01*
D30*
X104876600Y-77830680D02*
X104876600Y-81569560D01*
X106149392Y-75290680D02*
X107828080Y-73611992D01*
X104876600Y-75290680D02*
X106149392Y-75290680D01*
X107828080Y-60365640D02*
X104896920Y-57434480D01*
X107828080Y-73611992D02*
X107828080Y-60365640D01*
X106149392Y-75290680D02*
X107716320Y-76857608D01*
X107716320Y-76857608D02*
X107716320Y-87944960D01*
X107716320Y-87944960D02*
X103403400Y-92257880D01*
X103403400Y-92257880D02*
X87203280Y-92257880D01*
X84495640Y-94965520D02*
X84495640Y-105196640D01*
X87203280Y-92257880D02*
X84495640Y-94965520D01*
X121137680Y-29413200D02*
X116057680Y-29413200D01*
X116057680Y-31953200D02*
X121137680Y-31953200D01*
X74757280Y-70104000D02*
X74731880Y-70078600D01*
X74757280Y-76687680D02*
X74757280Y-70104000D01*
X81782920Y-76672440D02*
X86258400Y-76672440D01*
X91475560Y-89372440D02*
X96352360Y-89372440D01*
X101151490Y-67619880D02*
X102544880Y-69013270D01*
X100020120Y-67619880D02*
X101151490Y-67619880D01*
X102544880Y-69013270D02*
X102544880Y-73116440D01*
X102544880Y-73116440D02*
X99877880Y-75783440D01*
X99877880Y-85846920D02*
X96352360Y-89372440D01*
X99877880Y-75783440D02*
X99877880Y-85846920D01*
X92400120Y-67619880D02*
X94269560Y-67619880D01*
X96809560Y-65079880D02*
X100020120Y-65079880D01*
X94269560Y-67619880D02*
X96809560Y-65079880D01*
X96809560Y-75083870D02*
X96809560Y-65079880D01*
X96352360Y-75541070D02*
X96809560Y-75083870D01*
X96352360Y-76672440D02*
X96352360Y-75541070D01*
D32*
X53075840Y-52339240D02*
X53075840Y-56098440D01*
X53218080Y-55956200D02*
X58176160Y-55956200D01*
X53075840Y-56098440D02*
X53218080Y-55956200D01*
D30*
X87431880Y-68947230D02*
X87487760Y-68891350D01*
X87431880Y-70078600D02*
X87431880Y-68947230D01*
X87487760Y-68891350D02*
X87487760Y-64104520D01*
X89052400Y-62539880D02*
X92400120Y-62539880D01*
X87487760Y-64104520D02*
X89052400Y-62539880D01*
X92400120Y-60239880D02*
X93168440Y-59471560D01*
X92400120Y-62539880D02*
X92400120Y-60239880D01*
X99242880Y-59471560D02*
X104846120Y-53868320D01*
X93168440Y-59471560D02*
X99242880Y-59471560D01*
X63047000Y-90878520D02*
X63047000Y-97378520D01*
X63047000Y-89464307D02*
X63017400Y-89434707D01*
X63047000Y-90878520D02*
X63047000Y-89464307D01*
X63017400Y-89434707D02*
X63017400Y-76667360D01*
X63017400Y-76667360D02*
X76393040Y-63291720D01*
X76393040Y-63291720D02*
X83931760Y-63291720D01*
X87917121Y-59306359D02*
X83931760Y-63291720D01*
X87917121Y-56740959D02*
X87917121Y-59306359D01*
X88717120Y-55940960D02*
X87917121Y-56740959D01*
D31*
X112974120Y-38465760D02*
X114945160Y-40436800D01*
X112948720Y-38465760D02*
X112974120Y-38465760D01*
X114945160Y-41869360D02*
X112994440Y-43820080D01*
X114945160Y-40436800D02*
X114945160Y-41869360D01*
X110408720Y-42504360D02*
X109093000Y-43820080D01*
X110408720Y-38465760D02*
X110408720Y-42504360D01*
D30*
X107116880Y-50810160D02*
X100015040Y-50810160D01*
X109093000Y-56520080D02*
X109093000Y-52786280D01*
X109093000Y-52786280D02*
X107116880Y-50810160D01*
D33*
G36*
X82919255Y-26450160D02*
X80487945Y-26450160D01*
X80261204Y-26223419D01*
X80142089Y-26045151D01*
X79435876Y-25573274D01*
X78813119Y-25449400D01*
X78813115Y-25449400D01*
X78602840Y-25407574D01*
X78392565Y-25449400D01*
X72279965Y-25449400D01*
X72185445Y-25386243D01*
X71937680Y-25336960D01*
X68737680Y-25336960D01*
X68489915Y-25386243D01*
X68279871Y-25526591D01*
X68139523Y-25736635D01*
X68090240Y-25984400D01*
X68090240Y-29184400D01*
X68139523Y-29432165D01*
X68202681Y-29526686D01*
X68202680Y-32174994D01*
X68139523Y-32269515D01*
X68090240Y-32517280D01*
X68090240Y-35717280D01*
X68139523Y-35965045D01*
X68279871Y-36175089D01*
X68489915Y-36315437D01*
X68737680Y-36364720D01*
X71937680Y-36364720D01*
X72185445Y-36315437D01*
X72395489Y-36175089D01*
X72535837Y-35965045D01*
X72585120Y-35717280D01*
X72585120Y-32517280D01*
X72535837Y-32269515D01*
X72472680Y-32174995D01*
X72472680Y-29719400D01*
X77718495Y-29719400D01*
X77756160Y-29757065D01*
X77756160Y-29785160D01*
X77805443Y-30032925D01*
X77945791Y-30242969D01*
X78155835Y-30383317D01*
X78403600Y-30432600D01*
X78525591Y-30432600D01*
X78770564Y-30596286D01*
X79393321Y-30720160D01*
X79393326Y-30720160D01*
X79603599Y-30761986D01*
X79813873Y-30720160D01*
X83593325Y-30720160D01*
X83803600Y-30761986D01*
X84013875Y-30720160D01*
X84013879Y-30720160D01*
X84636636Y-30596286D01*
X85342849Y-30124409D01*
X85461964Y-29946141D01*
X88464976Y-26943130D01*
X102119683Y-26943130D01*
X101957420Y-27051551D01*
X101651182Y-27509869D01*
X101570790Y-27914028D01*
X101570790Y-29185173D01*
X101651182Y-29589332D01*
X101957421Y-30047650D01*
X102415739Y-30353888D01*
X102956360Y-30461424D01*
X103496982Y-30353888D01*
X103955300Y-30047650D01*
X104226360Y-29641980D01*
X104497421Y-30047650D01*
X104955739Y-30353888D01*
X105496360Y-30461424D01*
X106036982Y-30353888D01*
X106495300Y-30047650D01*
X106766360Y-29641980D01*
X107037421Y-30047650D01*
X107495739Y-30353888D01*
X108036360Y-30461424D01*
X108576982Y-30353888D01*
X108630614Y-30318052D01*
X108894965Y-30494686D01*
X109728000Y-30660386D01*
X110561035Y-30494686D01*
X111088983Y-30141922D01*
X114287776Y-26943130D01*
X122721766Y-26943130D01*
X124111321Y-28332686D01*
X124111320Y-30927394D01*
X122337977Y-32700738D01*
X122393530Y-32566621D01*
X122442321Y-32493600D01*
X122459454Y-32407466D01*
X122532680Y-32230683D01*
X122532680Y-32039334D01*
X122549813Y-31953200D01*
X122532680Y-31867066D01*
X122532680Y-31675717D01*
X122459454Y-31498934D01*
X122442321Y-31412800D01*
X122393530Y-31339779D01*
X122320304Y-31162996D01*
X122185000Y-31027692D01*
X122136209Y-30954671D01*
X122063188Y-30905880D01*
X121964631Y-30807323D01*
X122145445Y-30771357D01*
X122355489Y-30631009D01*
X122495837Y-30420965D01*
X122545120Y-30173200D01*
X122545120Y-29436793D01*
X122549813Y-29413200D01*
X122545120Y-29389607D01*
X122545120Y-28653200D01*
X122495837Y-28405435D01*
X122355489Y-28195391D01*
X122145445Y-28055043D01*
X121897680Y-28005760D01*
X120377680Y-28005760D01*
X120264865Y-28028200D01*
X116930495Y-28028200D01*
X116817680Y-28005760D01*
X115297680Y-28005760D01*
X115049915Y-28055043D01*
X114839871Y-28195391D01*
X114699523Y-28405435D01*
X114650240Y-28653200D01*
X114650240Y-29389607D01*
X114645547Y-29413200D01*
X114650240Y-29436793D01*
X114650240Y-30173200D01*
X114699523Y-30420965D01*
X114839871Y-30631009D01*
X115049915Y-30771357D01*
X115230729Y-30807323D01*
X115132172Y-30905880D01*
X115059151Y-30954671D01*
X115010360Y-31027692D01*
X114875056Y-31162996D01*
X114801830Y-31339779D01*
X114753039Y-31412800D01*
X114735906Y-31498934D01*
X114662680Y-31675717D01*
X114662680Y-31867066D01*
X114645547Y-31953200D01*
X114662680Y-32039334D01*
X114662680Y-32230683D01*
X114735906Y-32407466D01*
X114753039Y-32493600D01*
X114801830Y-32566621D01*
X114875056Y-32743404D01*
X115010360Y-32878708D01*
X115059151Y-32951729D01*
X115132172Y-33000520D01*
X115239852Y-33108200D01*
X113756360Y-33108200D01*
X113756360Y-32682000D01*
X113707077Y-32434235D01*
X113566729Y-32224191D01*
X113356685Y-32083843D01*
X113108920Y-32034560D01*
X110908920Y-32034560D01*
X110661155Y-32083843D01*
X110451111Y-32224191D01*
X110310763Y-32434235D01*
X110261480Y-32682000D01*
X110261480Y-34882000D01*
X110310763Y-35129765D01*
X110451111Y-35339809D01*
X110661155Y-35480157D01*
X110908920Y-35529440D01*
X111778030Y-35529440D01*
X112173370Y-35793598D01*
X112179720Y-35797841D01*
X112720120Y-35905333D01*
X112856527Y-35878200D01*
X115483995Y-35878200D01*
X115741879Y-36136084D01*
X115819150Y-36251728D01*
X116189288Y-36499046D01*
X116277279Y-36557840D01*
X116817679Y-36665332D01*
X116954086Y-36638199D01*
X117016154Y-36638199D01*
X120814754Y-40436800D01*
X118420912Y-42830643D01*
X118305271Y-42907912D01*
X118082735Y-43240961D01*
X117999159Y-43366041D01*
X117891667Y-43906440D01*
X117918800Y-44042847D01*
X117918801Y-49121438D01*
X117856035Y-49133923D01*
X117645991Y-49274271D01*
X117505643Y-49484315D01*
X117456360Y-49732080D01*
X117456360Y-52132080D01*
X117505643Y-52379845D01*
X117645991Y-52589889D01*
X117856035Y-52730237D01*
X118103800Y-52779520D01*
X120503800Y-52779520D01*
X120751565Y-52730237D01*
X120961609Y-52589889D01*
X121101957Y-52379845D01*
X121151240Y-52132080D01*
X121151240Y-49732080D01*
X121101957Y-49484315D01*
X120961609Y-49274271D01*
X120751565Y-49133923D01*
X120688800Y-49121438D01*
X120688800Y-44480125D01*
X123347126Y-41821800D01*
X127252460Y-41821800D01*
X127503827Y-41871800D01*
X127786493Y-41871800D01*
X128205069Y-41788540D01*
X128679737Y-41471377D01*
X128996900Y-40996709D01*
X129108273Y-40436800D01*
X128996900Y-39876891D01*
X128679737Y-39402223D01*
X128205069Y-39085060D01*
X127786493Y-39001800D01*
X127503827Y-39001800D01*
X127252460Y-39051800D01*
X123347126Y-39051800D01*
X118665638Y-34370313D01*
X118588368Y-34254670D01*
X118130239Y-33948558D01*
X117726246Y-33868199D01*
X117589839Y-33841066D01*
X117453432Y-33868199D01*
X117391364Y-33868199D01*
X117250305Y-33727140D01*
X117240304Y-33702996D01*
X117105000Y-33567692D01*
X117056209Y-33494671D01*
X116983188Y-33445880D01*
X116875508Y-33338200D01*
X120319852Y-33338200D01*
X120212172Y-33445880D01*
X120139151Y-33494671D01*
X120090360Y-33567692D01*
X119955056Y-33702996D01*
X119881830Y-33879779D01*
X119833039Y-33952800D01*
X119815906Y-34038934D01*
X119742680Y-34215717D01*
X119742680Y-34407066D01*
X119725547Y-34493200D01*
X119742680Y-34579334D01*
X119742680Y-34770683D01*
X119815906Y-34947466D01*
X119833039Y-35033600D01*
X119881830Y-35106621D01*
X119955056Y-35283404D01*
X120090360Y-35418708D01*
X120139151Y-35491729D01*
X120212172Y-35540520D01*
X120347476Y-35675824D01*
X120524259Y-35749050D01*
X120597280Y-35797841D01*
X120683414Y-35814974D01*
X120860197Y-35888200D01*
X121415163Y-35888200D01*
X121439305Y-35878200D01*
X122367793Y-35878200D01*
X122504200Y-35905333D01*
X122640607Y-35878200D01*
X123044600Y-35797841D01*
X123502729Y-35491729D01*
X123579999Y-35376086D01*
X126379210Y-32576876D01*
X126494848Y-32499609D01*
X126572115Y-32383971D01*
X126572117Y-32383969D01*
X126800961Y-32041480D01*
X126908453Y-31501080D01*
X126881320Y-31364673D01*
X126881320Y-31102684D01*
X129477640Y-33699005D01*
X129477640Y-34354538D01*
X129333854Y-35077400D01*
X129507316Y-35949454D01*
X130001295Y-36688745D01*
X130477641Y-37007029D01*
X130477640Y-41389068D01*
X124780279Y-47086430D01*
X124685511Y-47149752D01*
X124526805Y-47387272D01*
X124434653Y-47525187D01*
X124346564Y-47968041D01*
X124368799Y-48079824D01*
X124368799Y-49097080D01*
X123938796Y-49097080D01*
X123264356Y-49376442D01*
X122748162Y-49892636D01*
X122468800Y-50567076D01*
X122468800Y-51297084D01*
X122748162Y-51971524D01*
X123264356Y-52487718D01*
X123938796Y-52767080D01*
X124668804Y-52767080D01*
X125343244Y-52487718D01*
X125859438Y-51971524D01*
X126138800Y-51297084D01*
X126138800Y-50702212D01*
X126227320Y-50613692D01*
X126322088Y-50550370D01*
X126572945Y-50174936D01*
X126638799Y-49843864D01*
X126638799Y-49843863D01*
X126661034Y-49732081D01*
X126638799Y-49620298D01*
X126638799Y-48438172D01*
X132336162Y-42740810D01*
X132430929Y-42677489D01*
X132681786Y-42302055D01*
X132718492Y-42117520D01*
X132769875Y-41859200D01*
X132747640Y-41747417D01*
X132747640Y-37212400D01*
X138108457Y-37212400D01*
X138611192Y-37312400D01*
X139051448Y-37312400D01*
X139703374Y-37182724D01*
X140442665Y-36688745D01*
X140936644Y-35949454D01*
X141110106Y-35077400D01*
X140936644Y-34205346D01*
X140442665Y-33466055D01*
X139703374Y-32972076D01*
X139051448Y-32842400D01*
X138611192Y-32842400D01*
X138108457Y-32942400D01*
X133764058Y-32942400D01*
X133789467Y-32814659D01*
X133725605Y-32493600D01*
X133623766Y-31981623D01*
X133151889Y-31275410D01*
X132973624Y-31156297D01*
X129121073Y-27303746D01*
X135573294Y-27303746D01*
X135580320Y-27729790D01*
X135580320Y-28155969D01*
X135587640Y-28173640D01*
X135587955Y-28192763D01*
X135899960Y-28946010D01*
X135909667Y-28951082D01*
X135920579Y-28977426D01*
X136549294Y-29606141D01*
X136575638Y-29617053D01*
X136580710Y-29626760D01*
X136977028Y-29783314D01*
X137370751Y-29946400D01*
X137389880Y-29946400D01*
X137407666Y-29953426D01*
X137833710Y-29946400D01*
X138259889Y-29946400D01*
X138277560Y-29939080D01*
X138296683Y-29938765D01*
X139049930Y-29626760D01*
X139055002Y-29617053D01*
X139081346Y-29606141D01*
X139710061Y-28977426D01*
X139720973Y-28951082D01*
X139730680Y-28946010D01*
X139887234Y-28549692D01*
X140050320Y-28155969D01*
X140050320Y-28136840D01*
X140057346Y-28119054D01*
X140050320Y-27693010D01*
X140050320Y-27266831D01*
X140043000Y-27249160D01*
X140042685Y-27230037D01*
X139730680Y-26476790D01*
X139720973Y-26471718D01*
X139710061Y-26445374D01*
X139081346Y-25816659D01*
X139055002Y-25805747D01*
X139049930Y-25796040D01*
X138653612Y-25639486D01*
X138259889Y-25476400D01*
X138240760Y-25476400D01*
X138222974Y-25469374D01*
X137796930Y-25476400D01*
X137370751Y-25476400D01*
X137353080Y-25483720D01*
X137333957Y-25484035D01*
X136580710Y-25796040D01*
X136575638Y-25805747D01*
X136549294Y-25816659D01*
X135920579Y-26445374D01*
X135909667Y-26471718D01*
X135899960Y-26476790D01*
X135743406Y-26873108D01*
X135580320Y-27266831D01*
X135580320Y-27285960D01*
X135573294Y-27303746D01*
X129121073Y-27303746D01*
X127154684Y-25337358D01*
X127154682Y-25337355D01*
X125560446Y-23743120D01*
X141534680Y-23743120D01*
X141534680Y-48502714D01*
X141436656Y-97839897D01*
X141036414Y-96873626D01*
X140286174Y-96123386D01*
X139305939Y-95717360D01*
X138244941Y-95717360D01*
X137264706Y-96123386D01*
X137138732Y-96249360D01*
X136786105Y-96249360D01*
X131610437Y-91073693D01*
X136148624Y-86535506D01*
X136326889Y-86416393D01*
X136798766Y-85710180D01*
X136922640Y-85087423D01*
X136922640Y-85087420D01*
X136964466Y-84877145D01*
X136922640Y-84666870D01*
X136922640Y-75978478D01*
X136964467Y-75768200D01*
X136860007Y-75243041D01*
X136798766Y-74935164D01*
X136326889Y-74228951D01*
X136148624Y-74109838D01*
X133824723Y-71785938D01*
X133705609Y-71607671D01*
X132999395Y-71135794D01*
X132166360Y-70970093D01*
X131347331Y-71133008D01*
X131333325Y-71135794D01*
X131161386Y-71250680D01*
X126313775Y-71250680D01*
X125589512Y-70950680D01*
X124620808Y-70950680D01*
X123725844Y-71321387D01*
X123040867Y-72006364D01*
X122670160Y-72901328D01*
X122670160Y-73870032D01*
X123040867Y-74764996D01*
X123725844Y-75449973D01*
X124620808Y-75820680D01*
X125589512Y-75820680D01*
X126313775Y-75520680D01*
X131520775Y-75520680D01*
X132652641Y-76652547D01*
X132652640Y-83992798D01*
X126766399Y-89879040D01*
X126313775Y-89879040D01*
X125589512Y-89579040D01*
X124620808Y-89579040D01*
X123725844Y-89949747D01*
X123040867Y-90634724D01*
X122670160Y-91529688D01*
X122670160Y-92498392D01*
X123040867Y-93393356D01*
X123725844Y-94078333D01*
X124620808Y-94449040D01*
X125589512Y-94449040D01*
X126313775Y-94149040D01*
X127440469Y-94149040D01*
X127650744Y-94190866D01*
X127861019Y-94149040D01*
X128647094Y-94149040D01*
X134243397Y-99745344D01*
X134362510Y-99923609D01*
X135068723Y-100395486D01*
X135691480Y-100519360D01*
X135691484Y-100519360D01*
X135901759Y-100561186D01*
X136112034Y-100519360D01*
X137138732Y-100519360D01*
X137264706Y-100645334D01*
X138244941Y-101051360D01*
X139305939Y-101051360D01*
X140286174Y-100645334D01*
X141036414Y-99895094D01*
X141434482Y-98934072D01*
X141407131Y-112700133D01*
X119211334Y-112758531D01*
X123703506Y-108266360D01*
X124825335Y-108266360D01*
X125699520Y-109140546D01*
X125699520Y-109318699D01*
X126105546Y-110298934D01*
X126855786Y-111049174D01*
X127836021Y-111455200D01*
X128897019Y-111455200D01*
X129877254Y-111049174D01*
X130627494Y-110298934D01*
X131033520Y-109318699D01*
X131033520Y-108522786D01*
X135492014Y-108522786D01*
X135499040Y-108948830D01*
X135499040Y-109375009D01*
X135506360Y-109392680D01*
X135506675Y-109411803D01*
X135818680Y-110165050D01*
X135828387Y-110170122D01*
X135839299Y-110196466D01*
X136468014Y-110825181D01*
X136494358Y-110836093D01*
X136499430Y-110845800D01*
X136895748Y-111002354D01*
X137289471Y-111165440D01*
X137308600Y-111165440D01*
X137326386Y-111172466D01*
X137752430Y-111165440D01*
X138178609Y-111165440D01*
X138196280Y-111158120D01*
X138215403Y-111157805D01*
X138968650Y-110845800D01*
X138973722Y-110836093D01*
X139000066Y-110825181D01*
X139628781Y-110196466D01*
X139639693Y-110170122D01*
X139649400Y-110165050D01*
X139805954Y-109768732D01*
X139969040Y-109375009D01*
X139969040Y-109355880D01*
X139976066Y-109338094D01*
X139969040Y-108912050D01*
X139969040Y-108485871D01*
X139961720Y-108468200D01*
X139961405Y-108449077D01*
X139649400Y-107695830D01*
X139639693Y-107690758D01*
X139628781Y-107664414D01*
X139000066Y-107035699D01*
X138973722Y-107024787D01*
X138968650Y-107015080D01*
X138572332Y-106858526D01*
X138178609Y-106695440D01*
X138159480Y-106695440D01*
X138141694Y-106688414D01*
X137715650Y-106695440D01*
X137289471Y-106695440D01*
X137271800Y-106702760D01*
X137252677Y-106703075D01*
X136499430Y-107015080D01*
X136494358Y-107024787D01*
X136468014Y-107035699D01*
X135839299Y-107664414D01*
X135828387Y-107690758D01*
X135818680Y-107695830D01*
X135662126Y-108092148D01*
X135499040Y-108485871D01*
X135499040Y-108505000D01*
X135492014Y-108522786D01*
X131033520Y-108522786D01*
X131033520Y-108257701D01*
X130627494Y-107277466D01*
X130501520Y-107151492D01*
X130501520Y-105432315D01*
X130543346Y-105222040D01*
X130501520Y-105011765D01*
X130501520Y-105011761D01*
X130377646Y-104389004D01*
X129905769Y-103682791D01*
X129727504Y-103563678D01*
X124839976Y-98676151D01*
X124430505Y-98063335D01*
X123691214Y-97569356D01*
X123039288Y-97439680D01*
X122599032Y-97439680D01*
X121947106Y-97569356D01*
X121207815Y-98063335D01*
X120713836Y-98802626D01*
X120540374Y-99674680D01*
X120684160Y-100397543D01*
X120684161Y-105247013D01*
X116288507Y-109642668D01*
X98746440Y-109642668D01*
X98746440Y-103580481D01*
X98622566Y-102957724D01*
X98150689Y-102251511D01*
X97444475Y-101779634D01*
X96611440Y-101613933D01*
X95778404Y-101779634D01*
X95072191Y-102251511D01*
X94600314Y-102957725D01*
X94476440Y-103580482D01*
X94476441Y-109642668D01*
X84160076Y-109642670D01*
X84160076Y-107395965D01*
X84086709Y-107027123D01*
X84495640Y-107108464D01*
X85036261Y-107000928D01*
X85494579Y-106694690D01*
X85800818Y-106236372D01*
X85881210Y-105832213D01*
X85881210Y-104561067D01*
X85880640Y-104558201D01*
X85880640Y-97590760D01*
X94764000Y-97590760D01*
X94764000Y-99990760D01*
X94813283Y-100238525D01*
X94953631Y-100448569D01*
X95163675Y-100588917D01*
X95411440Y-100638200D01*
X97811440Y-100638200D01*
X98059205Y-100588917D01*
X98269249Y-100448569D01*
X98409597Y-100238525D01*
X98458880Y-99990760D01*
X98458880Y-98074680D01*
X105331720Y-98074680D01*
X105331720Y-101274680D01*
X105381003Y-101522445D01*
X105444160Y-101616966D01*
X105444161Y-104189074D01*
X105381003Y-104283595D01*
X105331720Y-104531360D01*
X105331720Y-107731360D01*
X105381003Y-107979125D01*
X105521351Y-108189169D01*
X105731395Y-108329517D01*
X105979160Y-108378800D01*
X109179160Y-108378800D01*
X109426925Y-108329517D01*
X109636969Y-108189169D01*
X109777317Y-107979125D01*
X109826600Y-107731360D01*
X109826600Y-104531360D01*
X109777317Y-104283595D01*
X109714160Y-104189075D01*
X109714160Y-101809680D01*
X111968885Y-101809680D01*
X112179160Y-101851506D01*
X112389435Y-101809680D01*
X112389439Y-101809680D01*
X113012196Y-101685806D01*
X113718409Y-101213929D01*
X113837524Y-101035661D01*
X117383104Y-97490082D01*
X117561369Y-97370969D01*
X118033246Y-96664756D01*
X118157120Y-96041999D01*
X118157120Y-96041996D01*
X118198946Y-95831721D01*
X118157120Y-95621446D01*
X118157120Y-81449040D01*
X123896545Y-81449040D01*
X124620808Y-81749040D01*
X125589512Y-81749040D01*
X126484476Y-81378333D01*
X127169453Y-80693356D01*
X127540160Y-79798392D01*
X127540160Y-78829688D01*
X127169453Y-77934724D01*
X126484476Y-77249747D01*
X125589512Y-76879040D01*
X124620808Y-76879040D01*
X123896545Y-77179040D01*
X118157120Y-77179040D01*
X118157120Y-70653065D01*
X125760213Y-63049973D01*
X126484476Y-62749973D01*
X127169453Y-62064996D01*
X127469454Y-61340731D01*
X132973624Y-55836562D01*
X133151889Y-55717449D01*
X133623766Y-55011236D01*
X133747640Y-54388479D01*
X133747640Y-54388474D01*
X133789466Y-54178201D01*
X133747640Y-53967927D01*
X133747640Y-52452400D01*
X136889035Y-52452400D01*
X136983555Y-52515557D01*
X137231320Y-52564840D01*
X140431320Y-52564840D01*
X140679085Y-52515557D01*
X140889129Y-52375209D01*
X141029477Y-52165165D01*
X141078760Y-51917400D01*
X141078760Y-48717400D01*
X141029477Y-48469635D01*
X140889129Y-48259591D01*
X140679085Y-48119243D01*
X140431320Y-48069960D01*
X137231320Y-48069960D01*
X136983555Y-48119243D01*
X136889035Y-48182400D01*
X133554925Y-48182400D01*
X133460405Y-48119243D01*
X133212640Y-48069960D01*
X130012640Y-48069960D01*
X129764875Y-48119243D01*
X129554831Y-48259591D01*
X129414483Y-48469635D01*
X129365200Y-48717400D01*
X129365200Y-51917400D01*
X129414483Y-52165165D01*
X129477641Y-52259686D01*
X129477641Y-53293853D01*
X124450109Y-58321386D01*
X123725844Y-58621387D01*
X123040867Y-59306364D01*
X122740867Y-60030627D01*
X114661139Y-68110356D01*
X114482871Y-68229471D01*
X114010994Y-68935685D01*
X113887120Y-69558442D01*
X113887120Y-69558445D01*
X113845294Y-69768720D01*
X113887120Y-69978995D01*
X113887121Y-78179200D01*
X113845294Y-78389480D01*
X113887121Y-78599759D01*
X113887120Y-94947374D01*
X111294815Y-97539680D01*
X109521445Y-97539680D01*
X109426925Y-97476523D01*
X109179160Y-97427240D01*
X105979160Y-97427240D01*
X105731395Y-97476523D01*
X105521351Y-97616871D01*
X105381003Y-97826915D01*
X105331720Y-98074680D01*
X98458880Y-98074680D01*
X98458880Y-97590760D01*
X98409597Y-97342995D01*
X98269249Y-97132951D01*
X98059205Y-96992603D01*
X97811440Y-96943320D01*
X95411440Y-96943320D01*
X95163675Y-96992603D01*
X94953631Y-97132951D01*
X94813283Y-97342995D01*
X94764000Y-97590760D01*
X85880640Y-97590760D01*
X85880640Y-95539205D01*
X87776966Y-93642880D01*
X103266993Y-93642880D01*
X103403400Y-93670013D01*
X103539807Y-93642880D01*
X103943800Y-93562521D01*
X104401929Y-93256409D01*
X104479199Y-93140766D01*
X108599208Y-89020758D01*
X108714849Y-88943489D01*
X109020961Y-88485360D01*
X109101320Y-88081367D01*
X109128453Y-87944960D01*
X109101320Y-87808553D01*
X109101320Y-76994015D01*
X109128453Y-76857608D01*
X109020961Y-76317208D01*
X108792117Y-75974719D01*
X108792115Y-75974717D01*
X108714848Y-75859079D01*
X108599210Y-75781812D01*
X108108077Y-75290680D01*
X108710967Y-74687790D01*
X108826608Y-74610521D01*
X109132721Y-74152392D01*
X109213080Y-73748399D01*
X109213080Y-73748398D01*
X109240213Y-73611993D01*
X109213080Y-73475587D01*
X109213080Y-60502045D01*
X109240213Y-60365639D01*
X109207529Y-60201328D01*
X109132721Y-59825240D01*
X108826609Y-59367111D01*
X108710968Y-59289842D01*
X106153945Y-56732820D01*
X105931497Y-56399903D01*
X105456829Y-56082740D01*
X105038253Y-55999480D01*
X104755587Y-55999480D01*
X104653300Y-56019826D01*
X105538272Y-55134854D01*
X105658982Y-55084854D01*
X106062654Y-54681182D01*
X106281120Y-54153759D01*
X106281120Y-53582881D01*
X106062654Y-53055458D01*
X105658982Y-52651786D01*
X105131559Y-52433320D01*
X104560681Y-52433320D01*
X104033258Y-52651786D01*
X103629586Y-53055458D01*
X103579586Y-53176168D01*
X98669195Y-58086560D01*
X93304847Y-58086560D01*
X93168440Y-58059427D01*
X93032033Y-58086560D01*
X92628040Y-58166919D01*
X92169911Y-58473031D01*
X92092640Y-58588675D01*
X91517233Y-59164082D01*
X91401592Y-59241351D01*
X91324323Y-59356992D01*
X91095479Y-59699481D01*
X90987987Y-60239880D01*
X91015121Y-60376291D01*
X91015121Y-61154880D01*
X89188805Y-61154880D01*
X89052399Y-61127747D01*
X88915993Y-61154880D01*
X88512000Y-61235239D01*
X88053871Y-61541351D01*
X87976602Y-61656992D01*
X86604872Y-63028723D01*
X86489232Y-63105991D01*
X86411963Y-63221632D01*
X86183119Y-63564121D01*
X86075627Y-64104520D01*
X86102761Y-64240932D01*
X86102760Y-68529894D01*
X86063975Y-68724880D01*
X86019747Y-68947230D01*
X86046880Y-69083637D01*
X86046880Y-69685900D01*
X85968767Y-70078600D01*
X86080140Y-70638509D01*
X86397303Y-71113177D01*
X86871971Y-71430340D01*
X87290547Y-71513600D01*
X87573213Y-71513600D01*
X87991789Y-71430340D01*
X88466457Y-71113177D01*
X88783620Y-70638509D01*
X88894993Y-70078600D01*
X88816880Y-69685900D01*
X88816880Y-69308685D01*
X88872760Y-69027757D01*
X88872760Y-69027756D01*
X88899893Y-68891351D01*
X88872760Y-68754945D01*
X88872760Y-64678205D01*
X89626086Y-63924880D01*
X91332664Y-63924880D01*
X91352355Y-63938037D01*
X91486226Y-63964665D01*
X91365543Y-64045303D01*
X91048380Y-64519971D01*
X90937007Y-65079880D01*
X91048380Y-65639789D01*
X91365543Y-66114457D01*
X91717878Y-66349880D01*
X91365543Y-66585303D01*
X91048380Y-67059971D01*
X90937007Y-67619880D01*
X91048380Y-68179789D01*
X91365543Y-68654457D01*
X91717878Y-68889880D01*
X91365543Y-69125303D01*
X91143096Y-69458218D01*
X90592672Y-70008643D01*
X90477032Y-70085911D01*
X90399763Y-70201552D01*
X90170919Y-70544041D01*
X90063427Y-71084440D01*
X90090561Y-71220852D01*
X90090560Y-76098754D01*
X80900032Y-85289283D01*
X80784392Y-85366551D01*
X80707123Y-85482192D01*
X80478279Y-85824681D01*
X80370787Y-86365080D01*
X80397921Y-86501491D01*
X80397920Y-88002680D01*
X75163430Y-88002680D01*
X75042719Y-87952680D01*
X74471841Y-87952680D01*
X73944418Y-88171146D01*
X73540746Y-88574818D01*
X73322280Y-89102241D01*
X73322280Y-89673119D01*
X73372280Y-89793830D01*
X73372280Y-90655456D01*
X73372281Y-90655461D01*
X73372280Y-93601594D01*
X70822875Y-96151000D01*
X70313675Y-96151000D01*
X70144325Y-96037843D01*
X70128652Y-96034725D01*
X70297870Y-95865507D01*
X70531560Y-95301330D01*
X70531560Y-94690670D01*
X70351080Y-94254953D01*
X70351080Y-89793830D01*
X70401080Y-89673119D01*
X70401080Y-89102241D01*
X70182614Y-88574818D01*
X69778942Y-88171146D01*
X69251519Y-87952680D01*
X68680641Y-87952680D01*
X68153218Y-88171146D01*
X67749546Y-88574818D01*
X67531080Y-89102241D01*
X67531080Y-89673119D01*
X67581080Y-89793830D01*
X67581081Y-94402121D01*
X67461560Y-94690670D01*
X67461560Y-95301330D01*
X67695250Y-95865507D01*
X67864468Y-96034725D01*
X67848795Y-96037843D01*
X67638751Y-96178191D01*
X67498403Y-96388235D01*
X67449120Y-96636000D01*
X67449120Y-96934776D01*
X67361560Y-97374970D01*
X67361561Y-99758760D01*
X65460030Y-101660292D01*
X65323511Y-101751511D01*
X65031939Y-102187880D01*
X62519985Y-102187880D01*
X60682000Y-100349895D01*
X60682000Y-91088795D01*
X60723826Y-90878520D01*
X60682000Y-90668245D01*
X60682000Y-74368115D01*
X60723826Y-74157840D01*
X60682000Y-73947565D01*
X60682000Y-73947561D01*
X60558126Y-73324804D01*
X60086249Y-72618591D01*
X59907984Y-72499478D01*
X57949706Y-70541200D01*
X59914550Y-70541200D01*
X60100200Y-70578128D01*
X60285850Y-70541200D01*
X60285855Y-70541200D01*
X60835690Y-70431831D01*
X61459209Y-70015209D01*
X61564375Y-69857817D01*
X64019620Y-67402573D01*
X64177009Y-67297409D01*
X64283256Y-67138400D01*
X64455533Y-66880569D01*
X64593631Y-66673890D01*
X64703000Y-66124055D01*
X64703000Y-66124054D01*
X64739929Y-65938400D01*
X64703000Y-65752746D01*
X64703000Y-64738400D01*
X65970560Y-64738400D01*
X65970560Y-67138400D01*
X66019843Y-67386165D01*
X66160191Y-67596209D01*
X66370235Y-67736557D01*
X66618000Y-67785840D01*
X69018000Y-67785840D01*
X69265765Y-67736557D01*
X69475809Y-67596209D01*
X69616157Y-67386165D01*
X69665440Y-67138400D01*
X69665440Y-64738400D01*
X69616157Y-64490635D01*
X69475809Y-64280591D01*
X69265765Y-64140243D01*
X69018000Y-64090960D01*
X66618000Y-64090960D01*
X66370235Y-64140243D01*
X66160191Y-64280591D01*
X66019843Y-64490635D01*
X65970560Y-64738400D01*
X64703000Y-64738400D01*
X64703000Y-62580272D01*
X64809113Y-62474160D01*
X74946270Y-62474160D01*
X75131920Y-62511088D01*
X75235613Y-62490462D01*
X62134513Y-75591562D01*
X62018872Y-75668831D01*
X61941603Y-75784472D01*
X61712759Y-76126961D01*
X61605267Y-76667360D01*
X61632401Y-76803772D01*
X61632400Y-89298300D01*
X61605267Y-89434707D01*
X61632400Y-89571113D01*
X61662000Y-89719923D01*
X61662000Y-89951281D01*
X61660914Y-89952367D01*
X61412000Y-90553298D01*
X61412000Y-91203742D01*
X61660914Y-91804673D01*
X61662000Y-91805759D01*
X61662001Y-96451280D01*
X61660914Y-96452367D01*
X61412000Y-97053298D01*
X61412000Y-97703742D01*
X61660914Y-98304673D01*
X62120847Y-98764606D01*
X62721778Y-99013520D01*
X63372222Y-99013520D01*
X63973153Y-98764606D01*
X64433086Y-98304673D01*
X64682000Y-97703742D01*
X64682000Y-97053298D01*
X64433086Y-96452367D01*
X64432000Y-96451281D01*
X64432000Y-91805759D01*
X64433086Y-91804673D01*
X64682000Y-91203742D01*
X64682000Y-90553298D01*
X64433086Y-89952367D01*
X64432000Y-89951281D01*
X64432000Y-89600714D01*
X64459133Y-89464307D01*
X64402400Y-89179091D01*
X64402400Y-77241045D01*
X64955765Y-76687680D01*
X67502967Y-76687680D01*
X67614340Y-77247589D01*
X67931503Y-77722257D01*
X68406171Y-78039420D01*
X68824747Y-78122680D01*
X69107413Y-78122680D01*
X69525989Y-78039420D01*
X70000657Y-77722257D01*
X70317820Y-77247589D01*
X70429193Y-76687680D01*
X73294167Y-76687680D01*
X73405540Y-77247589D01*
X73722703Y-77722257D01*
X74197371Y-78039420D01*
X74615947Y-78122680D01*
X74898613Y-78122680D01*
X75317189Y-78039420D01*
X75791857Y-77722257D01*
X76109020Y-77247589D01*
X76220393Y-76687680D01*
X76217362Y-76672440D01*
X80319807Y-76672440D01*
X80431180Y-77232349D01*
X80748343Y-77707017D01*
X81223011Y-78024180D01*
X81641587Y-78107440D01*
X81924253Y-78107440D01*
X82175620Y-78057440D01*
X85865700Y-78057440D01*
X86117067Y-78107440D01*
X86399733Y-78107440D01*
X86818309Y-78024180D01*
X87292977Y-77707017D01*
X87610140Y-77232349D01*
X87721513Y-76672440D01*
X87610140Y-76112531D01*
X87292977Y-75637863D01*
X86818309Y-75320700D01*
X86399733Y-75237440D01*
X86117067Y-75237440D01*
X85865700Y-75287440D01*
X82175620Y-75287440D01*
X81924253Y-75237440D01*
X81641587Y-75237440D01*
X81223011Y-75320700D01*
X80748343Y-75637863D01*
X80431180Y-76112531D01*
X80319807Y-76672440D01*
X76217362Y-76672440D01*
X76142280Y-76294980D01*
X76142280Y-70423429D01*
X76166880Y-70364039D01*
X76166880Y-70116733D01*
X76169413Y-70103999D01*
X76166880Y-70091265D01*
X76166880Y-69793161D01*
X75948414Y-69265738D01*
X75544742Y-68862066D01*
X75017319Y-68643600D01*
X74446441Y-68643600D01*
X73919018Y-68862066D01*
X73515346Y-69265738D01*
X73296880Y-69793161D01*
X73296880Y-70364039D01*
X73372281Y-70546073D01*
X73372280Y-76294980D01*
X73294167Y-76687680D01*
X70429193Y-76687680D01*
X70317820Y-76127771D01*
X70000657Y-75653103D01*
X69525989Y-75335940D01*
X69107413Y-75252680D01*
X68824747Y-75252680D01*
X68406171Y-75335940D01*
X67931503Y-75653103D01*
X67614340Y-76127771D01*
X67502967Y-76687680D01*
X64955765Y-76687680D01*
X76966725Y-64676720D01*
X83795353Y-64676720D01*
X83931760Y-64703853D01*
X84068167Y-64676720D01*
X84472160Y-64596361D01*
X84930289Y-64290249D01*
X85007559Y-64174606D01*
X88800009Y-60382157D01*
X88915650Y-60304888D01*
X89221762Y-59846759D01*
X89302121Y-59442766D01*
X89329254Y-59306359D01*
X89302121Y-59169952D01*
X89302121Y-57314643D01*
X89409270Y-57207495D01*
X89529982Y-57157494D01*
X89933654Y-56753822D01*
X90152120Y-56226399D01*
X90152120Y-55655521D01*
X89933654Y-55128098D01*
X89529982Y-54724426D01*
X89002559Y-54505960D01*
X88431681Y-54505960D01*
X87904258Y-54724426D01*
X87500586Y-55128098D01*
X87450585Y-55248810D01*
X87034234Y-55665161D01*
X86918592Y-55742431D01*
X86775756Y-55956200D01*
X86612480Y-56200560D01*
X86504988Y-56740959D01*
X86532121Y-56877366D01*
X86532122Y-58732672D01*
X83358075Y-61906720D01*
X76529441Y-61906720D01*
X76519893Y-61904821D01*
X76596095Y-61790777D01*
X78556974Y-59829899D01*
X78868430Y-59363771D01*
X79005601Y-58674164D01*
X80245360Y-57434405D01*
X80245360Y-59828280D01*
X80294643Y-60076045D01*
X80434991Y-60286089D01*
X80645035Y-60426437D01*
X80892800Y-60475720D01*
X83292800Y-60475720D01*
X83540565Y-60426437D01*
X83750609Y-60286089D01*
X83890957Y-60076045D01*
X83940240Y-59828280D01*
X83940240Y-57428280D01*
X83890957Y-57180515D01*
X83750609Y-56970471D01*
X83540565Y-56830123D01*
X83292800Y-56780840D01*
X80898925Y-56780840D01*
X83742166Y-53937600D01*
X88966395Y-53937600D01*
X89261840Y-54233045D01*
X89339111Y-54348689D01*
X89797240Y-54654801D01*
X90201233Y-54735160D01*
X90337639Y-54762293D01*
X90474045Y-54735160D01*
X92002340Y-54735160D01*
X92253707Y-54785160D01*
X92536373Y-54785160D01*
X92954949Y-54701900D01*
X93429617Y-54384737D01*
X93746780Y-53910069D01*
X93858153Y-53350160D01*
X93746780Y-52790251D01*
X93429617Y-52315583D01*
X93077282Y-52080160D01*
X93429617Y-51844737D01*
X93746780Y-51370069D01*
X93858153Y-50810160D01*
X93746780Y-50250251D01*
X93429617Y-49775583D01*
X93077282Y-49540160D01*
X93429617Y-49304737D01*
X93746780Y-48830069D01*
X93858153Y-48270160D01*
X93746780Y-47710251D01*
X93429617Y-47235583D01*
X93308934Y-47154945D01*
X93442805Y-47128317D01*
X93652849Y-46987969D01*
X93793197Y-46777925D01*
X93842480Y-46530160D01*
X93842480Y-44930160D01*
X93793197Y-44682395D01*
X93652849Y-44472351D01*
X93442805Y-44332003D01*
X93195040Y-44282720D01*
X91595040Y-44282720D01*
X91347275Y-44332003D01*
X91137231Y-44472351D01*
X90996883Y-44682395D01*
X90947600Y-44930160D01*
X90947600Y-46530160D01*
X90996883Y-46777925D01*
X91137231Y-46987969D01*
X91347275Y-47128317D01*
X91481146Y-47154945D01*
X91360463Y-47235583D01*
X91043300Y-47710251D01*
X90931927Y-48270160D01*
X91043300Y-48830069D01*
X91360463Y-49304737D01*
X91540689Y-49425160D01*
X91322805Y-49425160D01*
X91083240Y-49185595D01*
X91005969Y-49069951D01*
X90547840Y-48763839D01*
X90143847Y-48683480D01*
X90007440Y-48656347D01*
X89871033Y-48683480D01*
X85490054Y-48683480D01*
X85918249Y-48397369D01*
X86009468Y-48260850D01*
X89987105Y-44283214D01*
X89987107Y-44283211D01*
X92152799Y-42117520D01*
X95221532Y-42117520D01*
X98380040Y-45276029D01*
X98380040Y-45891190D01*
X98474904Y-46368104D01*
X98836271Y-46908929D01*
X99152803Y-47120429D01*
X98980463Y-47235583D01*
X98663300Y-47710251D01*
X98551927Y-48270160D01*
X98663300Y-48830069D01*
X98980463Y-49304737D01*
X99332798Y-49540160D01*
X98980463Y-49775583D01*
X98663300Y-50250251D01*
X98551927Y-50810160D01*
X98663300Y-51370069D01*
X98980463Y-51844737D01*
X99332798Y-52080160D01*
X98980463Y-52315583D01*
X98663300Y-52790251D01*
X98551927Y-53350160D01*
X98663300Y-53910069D01*
X98980463Y-54384737D01*
X99455131Y-54701900D01*
X99873707Y-54785160D01*
X100156373Y-54785160D01*
X100574949Y-54701900D01*
X101049617Y-54384737D01*
X101366780Y-53910069D01*
X101478153Y-53350160D01*
X101366780Y-52790251D01*
X101049617Y-52315583D01*
X100869391Y-52195160D01*
X106543195Y-52195160D01*
X107708001Y-53359967D01*
X107708000Y-56113930D01*
X107658000Y-56234641D01*
X107658000Y-56805519D01*
X107876466Y-57332942D01*
X108280138Y-57736614D01*
X108807561Y-57955080D01*
X109378439Y-57955080D01*
X109905862Y-57736614D01*
X110309534Y-57332942D01*
X110528000Y-56805519D01*
X110528000Y-56234641D01*
X111559440Y-56234641D01*
X111559440Y-56805519D01*
X111777906Y-57332942D01*
X112181578Y-57736614D01*
X112709001Y-57955080D01*
X113279879Y-57955080D01*
X113807302Y-57736614D01*
X114210974Y-57332942D01*
X114429440Y-56805519D01*
X114429440Y-56234641D01*
X114210974Y-55707218D01*
X113807302Y-55303546D01*
X113279879Y-55085080D01*
X112709001Y-55085080D01*
X112181578Y-55303546D01*
X111777906Y-55707218D01*
X111559440Y-56234641D01*
X110528000Y-56234641D01*
X110478000Y-56113930D01*
X110478000Y-52922687D01*
X110505133Y-52786280D01*
X110397641Y-52245880D01*
X110234168Y-52001226D01*
X110091529Y-51787751D01*
X109975888Y-51710482D01*
X108192679Y-49927274D01*
X108115409Y-49811631D01*
X107657280Y-49505519D01*
X107253287Y-49425160D01*
X107116880Y-49398027D01*
X106980473Y-49425160D01*
X103014594Y-49425160D01*
X103248769Y-49268689D01*
X103326039Y-49153046D01*
X105729008Y-46750078D01*
X105844649Y-46672809D01*
X106150761Y-46214680D01*
X106231120Y-45810687D01*
X106258253Y-45674280D01*
X106231120Y-45537873D01*
X106231120Y-41561020D01*
X106309233Y-41168320D01*
X106197860Y-40608411D01*
X105880697Y-40133743D01*
X105406029Y-39816580D01*
X104987453Y-39733320D01*
X104704787Y-39733320D01*
X104286211Y-39816580D01*
X103811543Y-40133743D01*
X103494380Y-40608411D01*
X103383007Y-41168320D01*
X103461120Y-41561021D01*
X103461121Y-45100593D01*
X101676555Y-46885160D01*
X101209691Y-46885160D01*
X101555176Y-46368105D01*
X101650040Y-45891191D01*
X101650040Y-44759820D01*
X101682071Y-44598790D01*
X101638549Y-44379989D01*
X101555176Y-43960845D01*
X101193809Y-43420021D01*
X101057293Y-43328804D01*
X97533770Y-39805282D01*
X97533770Y-38704481D01*
X98441092Y-37797159D01*
X98577609Y-37705942D01*
X98577730Y-37705760D01*
X106461280Y-37705760D01*
X106461280Y-39225760D01*
X106510563Y-39473525D01*
X106650911Y-39683569D01*
X106860955Y-39823917D01*
X107108720Y-39873200D01*
X108628720Y-39873200D01*
X108876485Y-39823917D01*
X109086529Y-39683569D01*
X109226877Y-39473525D01*
X109262843Y-39292711D01*
X109273720Y-39303588D01*
X109273721Y-42034227D01*
X108915718Y-42392231D01*
X108533091Y-42468340D01*
X108058423Y-42785503D01*
X107741260Y-43260171D01*
X107629887Y-43820080D01*
X107741260Y-44379989D01*
X108058423Y-44854657D01*
X108533091Y-45171820D01*
X108951667Y-45255080D01*
X109234333Y-45255080D01*
X109652909Y-45171820D01*
X110127577Y-44854657D01*
X110444740Y-44379989D01*
X110520849Y-43997362D01*
X111132241Y-43385971D01*
X111227009Y-43322649D01*
X111477866Y-42947215D01*
X111543720Y-42616143D01*
X111565955Y-42504361D01*
X111543720Y-42392578D01*
X111543720Y-39303588D01*
X111591344Y-39255964D01*
X111678720Y-39045020D01*
X111766096Y-39255964D01*
X112158516Y-39648384D01*
X112671237Y-39860760D01*
X112763988Y-39860760D01*
X113510160Y-40606932D01*
X113510160Y-40722239D01*
X113728626Y-41249662D01*
X113810160Y-41331196D01*
X113810160Y-41399228D01*
X112817158Y-42392231D01*
X112434531Y-42468340D01*
X111959863Y-42785503D01*
X111642700Y-43260171D01*
X111531327Y-43820080D01*
X111642700Y-44379989D01*
X111959863Y-44854657D01*
X112434531Y-45171820D01*
X112853107Y-45255080D01*
X113135773Y-45255080D01*
X113554349Y-45171820D01*
X114029017Y-44854657D01*
X114346180Y-44379989D01*
X114422289Y-43997362D01*
X115668681Y-42750971D01*
X115763449Y-42687649D01*
X116014306Y-42312215D01*
X116080160Y-41981143D01*
X116102395Y-41869360D01*
X116080160Y-41757577D01*
X116080160Y-41331196D01*
X116161694Y-41249662D01*
X116380160Y-40722239D01*
X116380160Y-40151361D01*
X116161694Y-39623938D01*
X115758022Y-39220266D01*
X115230599Y-39001800D01*
X115115292Y-39001800D01*
X114343720Y-38230228D01*
X114343720Y-38188277D01*
X114131344Y-37675556D01*
X113738924Y-37283136D01*
X113226203Y-37070760D01*
X112671237Y-37070760D01*
X112158516Y-37283136D01*
X111766096Y-37675556D01*
X111678720Y-37886500D01*
X111591344Y-37675556D01*
X111198924Y-37283136D01*
X110686203Y-37070760D01*
X110131237Y-37070760D01*
X109618516Y-37283136D01*
X109262843Y-37638809D01*
X109226877Y-37457995D01*
X109086529Y-37247951D01*
X108876485Y-37107603D01*
X108628720Y-37058320D01*
X107108720Y-37058320D01*
X106860955Y-37107603D01*
X106650911Y-37247951D01*
X106510563Y-37457995D01*
X106461280Y-37705760D01*
X98577730Y-37705760D01*
X98938976Y-37165118D01*
X99033840Y-36688204D01*
X99033840Y-36688200D01*
X99065870Y-36527174D01*
X99060059Y-36497960D01*
X100381553Y-36497960D01*
X100517960Y-36525093D01*
X100654367Y-36497960D01*
X101058360Y-36417601D01*
X101516489Y-36111489D01*
X101593759Y-35995846D01*
X102085717Y-35503888D01*
X102525883Y-35416334D01*
X103099785Y-35032865D01*
X103483254Y-34458963D01*
X103617910Y-33782000D01*
X103483254Y-33105037D01*
X103099785Y-32531135D01*
X102525883Y-32147666D01*
X102019800Y-32047000D01*
X101678040Y-32047000D01*
X101171957Y-32147666D01*
X100598055Y-32531135D01*
X100214586Y-33105037D01*
X100127032Y-33545203D01*
X99944275Y-33727960D01*
X98326079Y-33727960D01*
X98324993Y-33726874D01*
X98173299Y-33664040D01*
X98036784Y-33572824D01*
X97875755Y-33540793D01*
X97724062Y-33477960D01*
X97559871Y-33477960D01*
X97398840Y-33445929D01*
X97237809Y-33477960D01*
X97073618Y-33477960D01*
X96921926Y-33540793D01*
X96760895Y-33572824D01*
X96624379Y-33664041D01*
X96472687Y-33726874D01*
X96356587Y-33842974D01*
X96220071Y-33934191D01*
X96128855Y-34070706D01*
X96012754Y-34186807D01*
X95949920Y-34338501D01*
X95858704Y-34475016D01*
X95826673Y-34636045D01*
X95763840Y-34787738D01*
X95763840Y-35849934D01*
X94856520Y-36757255D01*
X94720001Y-36848474D01*
X94358634Y-37389299D01*
X94263770Y-37866212D01*
X94231739Y-38027243D01*
X94263770Y-38188273D01*
X94263770Y-38847520D01*
X91636585Y-38847520D01*
X91475559Y-38815490D01*
X91314533Y-38847520D01*
X91314529Y-38847520D01*
X90837615Y-38942384D01*
X90296791Y-39303751D01*
X90205574Y-39440267D01*
X87674869Y-41970973D01*
X87674866Y-41970975D01*
X84062242Y-45583600D01*
X81276650Y-45583600D01*
X81261409Y-45560791D01*
X81051365Y-45420443D01*
X80803600Y-45371160D01*
X78403600Y-45371160D01*
X78155835Y-45420443D01*
X77945791Y-45560791D01*
X77805443Y-45770835D01*
X77756160Y-46018600D01*
X77756160Y-47107354D01*
X76428955Y-48434560D01*
X70509647Y-48434560D01*
X70418447Y-48373622D01*
X69970702Y-48284560D01*
X69668338Y-48284560D01*
X69220593Y-48373622D01*
X68712847Y-48712887D01*
X68664520Y-48785213D01*
X68664520Y-46034605D01*
X71095526Y-43603600D01*
X78283490Y-43603600D01*
X78868111Y-43994231D01*
X79603600Y-44140529D01*
X80339090Y-43994231D01*
X80962609Y-43577609D01*
X81379231Y-42954090D01*
X81488600Y-42404255D01*
X81488600Y-35220160D01*
X87693802Y-35220160D01*
X88512754Y-36039113D01*
X88972687Y-36499046D01*
X89124380Y-36561880D01*
X89260894Y-36653095D01*
X89421922Y-36685125D01*
X89573618Y-36747960D01*
X89737813Y-36747960D01*
X89898839Y-36779990D01*
X90059865Y-36747960D01*
X90224062Y-36747960D01*
X90375759Y-36685125D01*
X90536785Y-36653095D01*
X90673296Y-36561881D01*
X90824993Y-36499046D01*
X90941097Y-36382942D01*
X91077608Y-36291728D01*
X91168822Y-36155217D01*
X91284926Y-36039113D01*
X91347761Y-35887416D01*
X91438975Y-35750905D01*
X91471005Y-35589879D01*
X91533840Y-35438182D01*
X91533840Y-35273985D01*
X91565870Y-35112959D01*
X91533840Y-34951933D01*
X91533840Y-34787738D01*
X91471005Y-34636042D01*
X91438975Y-34475014D01*
X91347760Y-34338500D01*
X91284926Y-34186807D01*
X90824993Y-33726874D01*
X89641028Y-32542910D01*
X89549809Y-32406391D01*
X89008985Y-32045024D01*
X88532071Y-31950160D01*
X88532070Y-31950160D01*
X88371040Y-31918129D01*
X88210010Y-31950160D01*
X80549559Y-31950160D01*
X80339089Y-31809529D01*
X79603600Y-31663231D01*
X78868110Y-31809529D01*
X78244591Y-32226151D01*
X77827969Y-32849671D01*
X77718600Y-33399506D01*
X77718601Y-40833600D01*
X70658247Y-40833600D01*
X70521840Y-40806467D01*
X70385433Y-40833600D01*
X69981440Y-40913959D01*
X69523311Y-41220071D01*
X69446042Y-41335712D01*
X66396632Y-44385123D01*
X66280992Y-44462391D01*
X66203723Y-44578032D01*
X65974879Y-44920521D01*
X65867387Y-45460920D01*
X65894521Y-45597332D01*
X65894520Y-48326238D01*
X65887285Y-48321403D01*
X65639520Y-48272120D01*
X63839520Y-48272120D01*
X63591755Y-48321403D01*
X63437610Y-48424400D01*
X59925637Y-48424400D01*
X59810169Y-48251591D01*
X59600125Y-48111243D01*
X59352360Y-48061960D01*
X57152360Y-48061960D01*
X56904595Y-48111243D01*
X56694551Y-48251591D01*
X56554203Y-48461635D01*
X56504920Y-48709400D01*
X56504920Y-50909400D01*
X56554203Y-51157165D01*
X56694551Y-51367209D01*
X56904595Y-51507557D01*
X57152360Y-51556840D01*
X59352360Y-51556840D01*
X59600125Y-51507557D01*
X59810169Y-51367209D01*
X59925637Y-51194400D01*
X63407199Y-51194400D01*
X63591755Y-51317717D01*
X63839520Y-51367000D01*
X65639520Y-51367000D01*
X65887285Y-51317717D01*
X65894520Y-51312883D01*
X65894521Y-58704160D01*
X64213970Y-58704160D01*
X64028320Y-58667232D01*
X63842670Y-58704160D01*
X63842665Y-58704160D01*
X63292830Y-58813529D01*
X63116783Y-58931160D01*
X62826701Y-59124986D01*
X62826700Y-59124987D01*
X62669311Y-59230151D01*
X62564147Y-59387540D01*
X61616380Y-60335308D01*
X61458992Y-60440471D01*
X61353828Y-60597860D01*
X61353826Y-60597862D01*
X61147909Y-60906039D01*
X61042370Y-61063990D01*
X60990522Y-61324650D01*
X60896072Y-61799480D01*
X60933001Y-61985134D01*
X60933000Y-65157607D01*
X59319408Y-66771200D01*
X54067156Y-66771200D01*
X53878395Y-66645074D01*
X53045360Y-66479374D01*
X52212324Y-66645074D01*
X51714299Y-66977844D01*
X51506111Y-67116951D01*
X51386998Y-67295216D01*
X47147937Y-71534278D01*
X46969672Y-71653391D01*
X46850559Y-71831656D01*
X46850558Y-71831657D01*
X46497794Y-72359605D01*
X46459396Y-72552645D01*
X46373920Y-72982361D01*
X46373920Y-72982365D01*
X46332094Y-73192640D01*
X46373920Y-73402915D01*
X46373920Y-74984932D01*
X46247946Y-75110906D01*
X45841920Y-76091141D01*
X45841920Y-77152139D01*
X46247946Y-78132374D01*
X46373920Y-78258348D01*
X46373921Y-80630161D01*
X46332094Y-80840440D01*
X46497794Y-81673475D01*
X46850558Y-82201423D01*
X46969672Y-82379689D01*
X47147937Y-82498802D01*
X56412000Y-91762866D01*
X56412001Y-97168237D01*
X56412000Y-97168242D01*
X56412001Y-101023961D01*
X56370174Y-101234240D01*
X56535874Y-102067275D01*
X56686255Y-102292336D01*
X57007752Y-102773489D01*
X57186017Y-102892602D01*
X59977276Y-105683861D01*
X60096391Y-105862129D01*
X60594820Y-106195169D01*
X60802604Y-106334006D01*
X61635640Y-106499707D01*
X61845918Y-106457880D01*
X74761935Y-106457880D01*
X74780396Y-106476341D01*
X74899511Y-106654609D01*
X75605724Y-107126486D01*
X76228481Y-107250360D01*
X76228485Y-107250360D01*
X76438760Y-107292186D01*
X76649035Y-107250360D01*
X78162879Y-107250360D01*
X78785636Y-107126486D01*
X78950944Y-107016031D01*
X79415640Y-107108464D01*
X79956261Y-107000928D01*
X79970554Y-106991377D01*
X79890077Y-107395965D01*
X79890076Y-111567394D01*
X79848250Y-111777669D01*
X79890076Y-111987943D01*
X79890076Y-111987947D01*
X80013950Y-112610704D01*
X80181339Y-112861219D01*
X79338312Y-112863437D01*
X45338200Y-112833354D01*
X45338200Y-111070825D01*
X45345041Y-110850201D01*
X45338200Y-110809206D01*
X45338200Y-108350066D01*
X46470094Y-108350066D01*
X46477120Y-108776110D01*
X46477120Y-109202289D01*
X46484440Y-109219960D01*
X46484755Y-109239083D01*
X46796760Y-109992330D01*
X46806467Y-109997402D01*
X46817379Y-110023746D01*
X47446094Y-110652461D01*
X47472438Y-110663373D01*
X47477510Y-110673080D01*
X47873828Y-110829634D01*
X48267551Y-110992720D01*
X48286680Y-110992720D01*
X48304466Y-110999746D01*
X48730510Y-110992720D01*
X49156689Y-110992720D01*
X49174360Y-110985400D01*
X49193483Y-110985085D01*
X49946730Y-110673080D01*
X49951802Y-110663373D01*
X49978146Y-110652461D01*
X50606861Y-110023746D01*
X50617773Y-109997402D01*
X50627480Y-109992330D01*
X50784034Y-109596012D01*
X50947120Y-109202289D01*
X50947120Y-109183160D01*
X50954146Y-109165374D01*
X50947120Y-108739330D01*
X50947120Y-108313151D01*
X50939800Y-108295480D01*
X50939485Y-108276357D01*
X50627480Y-107523110D01*
X50617773Y-107518038D01*
X50606861Y-107491694D01*
X49978146Y-106862979D01*
X49951802Y-106852067D01*
X49946730Y-106842360D01*
X49550412Y-106685806D01*
X49156689Y-106522720D01*
X49137560Y-106522720D01*
X49119774Y-106515694D01*
X48693730Y-106522720D01*
X48267551Y-106522720D01*
X48249880Y-106530040D01*
X48230757Y-106530355D01*
X47477510Y-106842360D01*
X47472438Y-106852067D01*
X47446094Y-106862979D01*
X46817379Y-107491694D01*
X46806467Y-107518038D01*
X46796760Y-107523110D01*
X46640206Y-107919428D01*
X46477120Y-108313151D01*
X46477120Y-108332280D01*
X46470094Y-108350066D01*
X45338200Y-108350066D01*
X45338200Y-56098440D01*
X51153912Y-56098440D01*
X51190841Y-56284095D01*
X51213877Y-56399903D01*
X51300210Y-56833930D01*
X51716831Y-57457449D01*
X52127474Y-57731831D01*
X52340351Y-57874071D01*
X53075840Y-58020369D01*
X53811330Y-57874071D01*
X53860525Y-57841200D01*
X58361815Y-57841200D01*
X58911650Y-57731831D01*
X59535169Y-57315209D01*
X59951791Y-56691690D01*
X60098089Y-55956200D01*
X59951791Y-55220710D01*
X59535169Y-54597191D01*
X58911650Y-54180569D01*
X58361815Y-54071200D01*
X54960840Y-54071200D01*
X54960840Y-52153585D01*
X54851471Y-51603750D01*
X54434849Y-50980231D01*
X53811329Y-50563609D01*
X53075840Y-50417311D01*
X52340350Y-50563609D01*
X51716831Y-50980231D01*
X51300209Y-51603751D01*
X51190840Y-52153586D01*
X51190841Y-55912786D01*
X51153912Y-56098440D01*
X45338200Y-56098440D01*
X45338200Y-35801661D01*
X45882560Y-35801661D01*
X45882560Y-36862659D01*
X46288586Y-37842894D01*
X47038826Y-38593134D01*
X48019061Y-38999160D01*
X49080059Y-38999160D01*
X50060294Y-38593134D01*
X50186268Y-38467160D01*
X50940840Y-38467160D01*
X50940840Y-39428965D01*
X50899014Y-39639240D01*
X50940840Y-39849515D01*
X50940840Y-39849518D01*
X51064714Y-40472275D01*
X51536591Y-41178489D01*
X51542681Y-41182559D01*
X51546751Y-41188649D01*
X52252964Y-41660526D01*
X52875721Y-41784400D01*
X52875726Y-41784400D01*
X53085999Y-41826226D01*
X53296273Y-41784400D01*
X58462639Y-41784400D01*
X59085396Y-41660526D01*
X59791609Y-41188649D01*
X60263486Y-40482436D01*
X60429187Y-39649400D01*
X60263486Y-38816364D01*
X59791609Y-38110151D01*
X59085396Y-37638274D01*
X58462639Y-37514400D01*
X55210840Y-37514400D01*
X55210840Y-37023465D01*
X56096211Y-36138095D01*
X56709025Y-35728625D01*
X57203004Y-34989334D01*
X57376466Y-34117280D01*
X57232680Y-33394418D01*
X57232680Y-28307262D01*
X57376466Y-27584400D01*
X57203004Y-26712346D01*
X56709025Y-25973055D01*
X55969734Y-25479076D01*
X55317808Y-25349400D01*
X54877552Y-25349400D01*
X54225626Y-25479076D01*
X53486335Y-25973055D01*
X52992356Y-26712346D01*
X52818894Y-27584400D01*
X52962681Y-28307267D01*
X52962680Y-33232934D01*
X51998455Y-34197160D01*
X50186268Y-34197160D01*
X50060294Y-34071186D01*
X49080059Y-33665160D01*
X48019061Y-33665160D01*
X47038826Y-34071186D01*
X46288586Y-34821426D01*
X45882560Y-35801661D01*
X45338200Y-35801661D01*
X45338200Y-27318986D01*
X46470094Y-27318986D01*
X46477120Y-27745030D01*
X46477120Y-28171209D01*
X46484440Y-28188880D01*
X46484755Y-28208003D01*
X46796760Y-28961250D01*
X46806467Y-28966322D01*
X46817379Y-28992666D01*
X47446094Y-29621381D01*
X47472438Y-29632293D01*
X47477510Y-29642000D01*
X47873828Y-29798554D01*
X48267551Y-29961640D01*
X48286680Y-29961640D01*
X48304466Y-29968666D01*
X48730510Y-29961640D01*
X49156689Y-29961640D01*
X49174360Y-29954320D01*
X49193483Y-29954005D01*
X49946730Y-29642000D01*
X49951802Y-29632293D01*
X49978146Y-29621381D01*
X50606861Y-28992666D01*
X50617773Y-28966322D01*
X50627480Y-28961250D01*
X50784034Y-28564932D01*
X50947120Y-28171209D01*
X50947120Y-28152080D01*
X50954146Y-28134294D01*
X50947120Y-27708250D01*
X50947120Y-27282071D01*
X50939800Y-27264400D01*
X50939485Y-27245277D01*
X50627480Y-26492030D01*
X50617773Y-26486958D01*
X50606861Y-26460614D01*
X49978146Y-25831899D01*
X49951802Y-25820987D01*
X49946730Y-25811280D01*
X49550412Y-25654726D01*
X49156689Y-25491640D01*
X49137560Y-25491640D01*
X49119774Y-25484614D01*
X48693730Y-25491640D01*
X48267551Y-25491640D01*
X48249880Y-25498960D01*
X48230757Y-25499275D01*
X47477510Y-25811280D01*
X47472438Y-25820987D01*
X47446094Y-25831899D01*
X46817379Y-26460614D01*
X46806467Y-26486958D01*
X46796760Y-26492030D01*
X46640206Y-26888348D01*
X46477120Y-27282071D01*
X46477120Y-27301200D01*
X46470094Y-27318986D01*
X45338200Y-27318986D01*
X45338200Y-23743120D01*
X85626294Y-23743120D01*
X82919255Y-26450160D01*
X82919255Y-26450160D01*
G37*
X82919255Y-26450160D02*
X80487945Y-26450160D01*
X80261204Y-26223419D01*
X80142089Y-26045151D01*
X79435876Y-25573274D01*
X78813119Y-25449400D01*
X78813115Y-25449400D01*
X78602840Y-25407574D01*
X78392565Y-25449400D01*
X72279965Y-25449400D01*
X72185445Y-25386243D01*
X71937680Y-25336960D01*
X68737680Y-25336960D01*
X68489915Y-25386243D01*
X68279871Y-25526591D01*
X68139523Y-25736635D01*
X68090240Y-25984400D01*
X68090240Y-29184400D01*
X68139523Y-29432165D01*
X68202681Y-29526686D01*
X68202680Y-32174994D01*
X68139523Y-32269515D01*
X68090240Y-32517280D01*
X68090240Y-35717280D01*
X68139523Y-35965045D01*
X68279871Y-36175089D01*
X68489915Y-36315437D01*
X68737680Y-36364720D01*
X71937680Y-36364720D01*
X72185445Y-36315437D01*
X72395489Y-36175089D01*
X72535837Y-35965045D01*
X72585120Y-35717280D01*
X72585120Y-32517280D01*
X72535837Y-32269515D01*
X72472680Y-32174995D01*
X72472680Y-29719400D01*
X77718495Y-29719400D01*
X77756160Y-29757065D01*
X77756160Y-29785160D01*
X77805443Y-30032925D01*
X77945791Y-30242969D01*
X78155835Y-30383317D01*
X78403600Y-30432600D01*
X78525591Y-30432600D01*
X78770564Y-30596286D01*
X79393321Y-30720160D01*
X79393326Y-30720160D01*
X79603599Y-30761986D01*
X79813873Y-30720160D01*
X83593325Y-30720160D01*
X83803600Y-30761986D01*
X84013875Y-30720160D01*
X84013879Y-30720160D01*
X84636636Y-30596286D01*
X85342849Y-30124409D01*
X85461964Y-29946141D01*
X88464976Y-26943130D01*
X102119683Y-26943130D01*
X101957420Y-27051551D01*
X101651182Y-27509869D01*
X101570790Y-27914028D01*
X101570790Y-29185173D01*
X101651182Y-29589332D01*
X101957421Y-30047650D01*
X102415739Y-30353888D01*
X102956360Y-30461424D01*
X103496982Y-30353888D01*
X103955300Y-30047650D01*
X104226360Y-29641980D01*
X104497421Y-30047650D01*
X104955739Y-30353888D01*
X105496360Y-30461424D01*
X106036982Y-30353888D01*
X106495300Y-30047650D01*
X106766360Y-29641980D01*
X107037421Y-30047650D01*
X107495739Y-30353888D01*
X108036360Y-30461424D01*
X108576982Y-30353888D01*
X108630614Y-30318052D01*
X108894965Y-30494686D01*
X109728000Y-30660386D01*
X110561035Y-30494686D01*
X111088983Y-30141922D01*
X114287776Y-26943130D01*
X122721766Y-26943130D01*
X124111321Y-28332686D01*
X124111320Y-30927394D01*
X122337977Y-32700738D01*
X122393530Y-32566621D01*
X122442321Y-32493600D01*
X122459454Y-32407466D01*
X122532680Y-32230683D01*
X122532680Y-32039334D01*
X122549813Y-31953200D01*
X122532680Y-31867066D01*
X122532680Y-31675717D01*
X122459454Y-31498934D01*
X122442321Y-31412800D01*
X122393530Y-31339779D01*
X122320304Y-31162996D01*
X122185000Y-31027692D01*
X122136209Y-30954671D01*
X122063188Y-30905880D01*
X121964631Y-30807323D01*
X122145445Y-30771357D01*
X122355489Y-30631009D01*
X122495837Y-30420965D01*
X122545120Y-30173200D01*
X122545120Y-29436793D01*
X122549813Y-29413200D01*
X122545120Y-29389607D01*
X122545120Y-28653200D01*
X122495837Y-28405435D01*
X122355489Y-28195391D01*
X122145445Y-28055043D01*
X121897680Y-28005760D01*
X120377680Y-28005760D01*
X120264865Y-28028200D01*
X116930495Y-28028200D01*
X116817680Y-28005760D01*
X115297680Y-28005760D01*
X115049915Y-28055043D01*
X114839871Y-28195391D01*
X114699523Y-28405435D01*
X114650240Y-28653200D01*
X114650240Y-29389607D01*
X114645547Y-29413200D01*
X114650240Y-29436793D01*
X114650240Y-30173200D01*
X114699523Y-30420965D01*
X114839871Y-30631009D01*
X115049915Y-30771357D01*
X115230729Y-30807323D01*
X115132172Y-30905880D01*
X115059151Y-30954671D01*
X115010360Y-31027692D01*
X114875056Y-31162996D01*
X114801830Y-31339779D01*
X114753039Y-31412800D01*
X114735906Y-31498934D01*
X114662680Y-31675717D01*
X114662680Y-31867066D01*
X114645547Y-31953200D01*
X114662680Y-32039334D01*
X114662680Y-32230683D01*
X114735906Y-32407466D01*
X114753039Y-32493600D01*
X114801830Y-32566621D01*
X114875056Y-32743404D01*
X115010360Y-32878708D01*
X115059151Y-32951729D01*
X115132172Y-33000520D01*
X115239852Y-33108200D01*
X113756360Y-33108200D01*
X113756360Y-32682000D01*
X113707077Y-32434235D01*
X113566729Y-32224191D01*
X113356685Y-32083843D01*
X113108920Y-32034560D01*
X110908920Y-32034560D01*
X110661155Y-32083843D01*
X110451111Y-32224191D01*
X110310763Y-32434235D01*
X110261480Y-32682000D01*
X110261480Y-34882000D01*
X110310763Y-35129765D01*
X110451111Y-35339809D01*
X110661155Y-35480157D01*
X110908920Y-35529440D01*
X111778030Y-35529440D01*
X112173370Y-35793598D01*
X112179720Y-35797841D01*
X112720120Y-35905333D01*
X112856527Y-35878200D01*
X115483995Y-35878200D01*
X115741879Y-36136084D01*
X115819150Y-36251728D01*
X116189288Y-36499046D01*
X116277279Y-36557840D01*
X116817679Y-36665332D01*
X116954086Y-36638199D01*
X117016154Y-36638199D01*
X120814754Y-40436800D01*
X118420912Y-42830643D01*
X118305271Y-42907912D01*
X118082735Y-43240961D01*
X117999159Y-43366041D01*
X117891667Y-43906440D01*
X117918800Y-44042847D01*
X117918801Y-49121438D01*
X117856035Y-49133923D01*
X117645991Y-49274271D01*
X117505643Y-49484315D01*
X117456360Y-49732080D01*
X117456360Y-52132080D01*
X117505643Y-52379845D01*
X117645991Y-52589889D01*
X117856035Y-52730237D01*
X118103800Y-52779520D01*
X120503800Y-52779520D01*
X120751565Y-52730237D01*
X120961609Y-52589889D01*
X121101957Y-52379845D01*
X121151240Y-52132080D01*
X121151240Y-49732080D01*
X121101957Y-49484315D01*
X120961609Y-49274271D01*
X120751565Y-49133923D01*
X120688800Y-49121438D01*
X120688800Y-44480125D01*
X123347126Y-41821800D01*
X127252460Y-41821800D01*
X127503827Y-41871800D01*
X127786493Y-41871800D01*
X128205069Y-41788540D01*
X128679737Y-41471377D01*
X128996900Y-40996709D01*
X129108273Y-40436800D01*
X128996900Y-39876891D01*
X128679737Y-39402223D01*
X128205069Y-39085060D01*
X127786493Y-39001800D01*
X127503827Y-39001800D01*
X127252460Y-39051800D01*
X123347126Y-39051800D01*
X118665638Y-34370313D01*
X118588368Y-34254670D01*
X118130239Y-33948558D01*
X117726246Y-33868199D01*
X117589839Y-33841066D01*
X117453432Y-33868199D01*
X117391364Y-33868199D01*
X117250305Y-33727140D01*
X117240304Y-33702996D01*
X117105000Y-33567692D01*
X117056209Y-33494671D01*
X116983188Y-33445880D01*
X116875508Y-33338200D01*
X120319852Y-33338200D01*
X120212172Y-33445880D01*
X120139151Y-33494671D01*
X120090360Y-33567692D01*
X119955056Y-33702996D01*
X119881830Y-33879779D01*
X119833039Y-33952800D01*
X119815906Y-34038934D01*
X119742680Y-34215717D01*
X119742680Y-34407066D01*
X119725547Y-34493200D01*
X119742680Y-34579334D01*
X119742680Y-34770683D01*
X119815906Y-34947466D01*
X119833039Y-35033600D01*
X119881830Y-35106621D01*
X119955056Y-35283404D01*
X120090360Y-35418708D01*
X120139151Y-35491729D01*
X120212172Y-35540520D01*
X120347476Y-35675824D01*
X120524259Y-35749050D01*
X120597280Y-35797841D01*
X120683414Y-35814974D01*
X120860197Y-35888200D01*
X121415163Y-35888200D01*
X121439305Y-35878200D01*
X122367793Y-35878200D01*
X122504200Y-35905333D01*
X122640607Y-35878200D01*
X123044600Y-35797841D01*
X123502729Y-35491729D01*
X123579999Y-35376086D01*
X126379210Y-32576876D01*
X126494848Y-32499609D01*
X126572115Y-32383971D01*
X126572117Y-32383969D01*
X126800961Y-32041480D01*
X126908453Y-31501080D01*
X126881320Y-31364673D01*
X126881320Y-31102684D01*
X129477640Y-33699005D01*
X129477640Y-34354538D01*
X129333854Y-35077400D01*
X129507316Y-35949454D01*
X130001295Y-36688745D01*
X130477641Y-37007029D01*
X130477640Y-41389068D01*
X124780279Y-47086430D01*
X124685511Y-47149752D01*
X124526805Y-47387272D01*
X124434653Y-47525187D01*
X124346564Y-47968041D01*
X124368799Y-48079824D01*
X124368799Y-49097080D01*
X123938796Y-49097080D01*
X123264356Y-49376442D01*
X122748162Y-49892636D01*
X122468800Y-50567076D01*
X122468800Y-51297084D01*
X122748162Y-51971524D01*
X123264356Y-52487718D01*
X123938796Y-52767080D01*
X124668804Y-52767080D01*
X125343244Y-52487718D01*
X125859438Y-51971524D01*
X126138800Y-51297084D01*
X126138800Y-50702212D01*
X126227320Y-50613692D01*
X126322088Y-50550370D01*
X126572945Y-50174936D01*
X126638799Y-49843864D01*
X126638799Y-49843863D01*
X126661034Y-49732081D01*
X126638799Y-49620298D01*
X126638799Y-48438172D01*
X132336162Y-42740810D01*
X132430929Y-42677489D01*
X132681786Y-42302055D01*
X132718492Y-42117520D01*
X132769875Y-41859200D01*
X132747640Y-41747417D01*
X132747640Y-37212400D01*
X138108457Y-37212400D01*
X138611192Y-37312400D01*
X139051448Y-37312400D01*
X139703374Y-37182724D01*
X140442665Y-36688745D01*
X140936644Y-35949454D01*
X141110106Y-35077400D01*
X140936644Y-34205346D01*
X140442665Y-33466055D01*
X139703374Y-32972076D01*
X139051448Y-32842400D01*
X138611192Y-32842400D01*
X138108457Y-32942400D01*
X133764058Y-32942400D01*
X133789467Y-32814659D01*
X133725605Y-32493600D01*
X133623766Y-31981623D01*
X133151889Y-31275410D01*
X132973624Y-31156297D01*
X129121073Y-27303746D01*
X135573294Y-27303746D01*
X135580320Y-27729790D01*
X135580320Y-28155969D01*
X135587640Y-28173640D01*
X135587955Y-28192763D01*
X135899960Y-28946010D01*
X135909667Y-28951082D01*
X135920579Y-28977426D01*
X136549294Y-29606141D01*
X136575638Y-29617053D01*
X136580710Y-29626760D01*
X136977028Y-29783314D01*
X137370751Y-29946400D01*
X137389880Y-29946400D01*
X137407666Y-29953426D01*
X137833710Y-29946400D01*
X138259889Y-29946400D01*
X138277560Y-29939080D01*
X138296683Y-29938765D01*
X139049930Y-29626760D01*
X139055002Y-29617053D01*
X139081346Y-29606141D01*
X139710061Y-28977426D01*
X139720973Y-28951082D01*
X139730680Y-28946010D01*
X139887234Y-28549692D01*
X140050320Y-28155969D01*
X140050320Y-28136840D01*
X140057346Y-28119054D01*
X140050320Y-27693010D01*
X140050320Y-27266831D01*
X140043000Y-27249160D01*
X140042685Y-27230037D01*
X139730680Y-26476790D01*
X139720973Y-26471718D01*
X139710061Y-26445374D01*
X139081346Y-25816659D01*
X139055002Y-25805747D01*
X139049930Y-25796040D01*
X138653612Y-25639486D01*
X138259889Y-25476400D01*
X138240760Y-25476400D01*
X138222974Y-25469374D01*
X137796930Y-25476400D01*
X137370751Y-25476400D01*
X137353080Y-25483720D01*
X137333957Y-25484035D01*
X136580710Y-25796040D01*
X136575638Y-25805747D01*
X136549294Y-25816659D01*
X135920579Y-26445374D01*
X135909667Y-26471718D01*
X135899960Y-26476790D01*
X135743406Y-26873108D01*
X135580320Y-27266831D01*
X135580320Y-27285960D01*
X135573294Y-27303746D01*
X129121073Y-27303746D01*
X127154684Y-25337358D01*
X127154682Y-25337355D01*
X125560446Y-23743120D01*
X141534680Y-23743120D01*
X141534680Y-48502714D01*
X141436656Y-97839897D01*
X141036414Y-96873626D01*
X140286174Y-96123386D01*
X139305939Y-95717360D01*
X138244941Y-95717360D01*
X137264706Y-96123386D01*
X137138732Y-96249360D01*
X136786105Y-96249360D01*
X131610437Y-91073693D01*
X136148624Y-86535506D01*
X136326889Y-86416393D01*
X136798766Y-85710180D01*
X136922640Y-85087423D01*
X136922640Y-85087420D01*
X136964466Y-84877145D01*
X136922640Y-84666870D01*
X136922640Y-75978478D01*
X136964467Y-75768200D01*
X136860007Y-75243041D01*
X136798766Y-74935164D01*
X136326889Y-74228951D01*
X136148624Y-74109838D01*
X133824723Y-71785938D01*
X133705609Y-71607671D01*
X132999395Y-71135794D01*
X132166360Y-70970093D01*
X131347331Y-71133008D01*
X131333325Y-71135794D01*
X131161386Y-71250680D01*
X126313775Y-71250680D01*
X125589512Y-70950680D01*
X124620808Y-70950680D01*
X123725844Y-71321387D01*
X123040867Y-72006364D01*
X122670160Y-72901328D01*
X122670160Y-73870032D01*
X123040867Y-74764996D01*
X123725844Y-75449973D01*
X124620808Y-75820680D01*
X125589512Y-75820680D01*
X126313775Y-75520680D01*
X131520775Y-75520680D01*
X132652641Y-76652547D01*
X132652640Y-83992798D01*
X126766399Y-89879040D01*
X126313775Y-89879040D01*
X125589512Y-89579040D01*
X124620808Y-89579040D01*
X123725844Y-89949747D01*
X123040867Y-90634724D01*
X122670160Y-91529688D01*
X122670160Y-92498392D01*
X123040867Y-93393356D01*
X123725844Y-94078333D01*
X124620808Y-94449040D01*
X125589512Y-94449040D01*
X126313775Y-94149040D01*
X127440469Y-94149040D01*
X127650744Y-94190866D01*
X127861019Y-94149040D01*
X128647094Y-94149040D01*
X134243397Y-99745344D01*
X134362510Y-99923609D01*
X135068723Y-100395486D01*
X135691480Y-100519360D01*
X135691484Y-100519360D01*
X135901759Y-100561186D01*
X136112034Y-100519360D01*
X137138732Y-100519360D01*
X137264706Y-100645334D01*
X138244941Y-101051360D01*
X139305939Y-101051360D01*
X140286174Y-100645334D01*
X141036414Y-99895094D01*
X141434482Y-98934072D01*
X141407131Y-112700133D01*
X119211334Y-112758531D01*
X123703506Y-108266360D01*
X124825335Y-108266360D01*
X125699520Y-109140546D01*
X125699520Y-109318699D01*
X126105546Y-110298934D01*
X126855786Y-111049174D01*
X127836021Y-111455200D01*
X128897019Y-111455200D01*
X129877254Y-111049174D01*
X130627494Y-110298934D01*
X131033520Y-109318699D01*
X131033520Y-108522786D01*
X135492014Y-108522786D01*
X135499040Y-108948830D01*
X135499040Y-109375009D01*
X135506360Y-109392680D01*
X135506675Y-109411803D01*
X135818680Y-110165050D01*
X135828387Y-110170122D01*
X135839299Y-110196466D01*
X136468014Y-110825181D01*
X136494358Y-110836093D01*
X136499430Y-110845800D01*
X136895748Y-111002354D01*
X137289471Y-111165440D01*
X137308600Y-111165440D01*
X137326386Y-111172466D01*
X137752430Y-111165440D01*
X138178609Y-111165440D01*
X138196280Y-111158120D01*
X138215403Y-111157805D01*
X138968650Y-110845800D01*
X138973722Y-110836093D01*
X139000066Y-110825181D01*
X139628781Y-110196466D01*
X139639693Y-110170122D01*
X139649400Y-110165050D01*
X139805954Y-109768732D01*
X139969040Y-109375009D01*
X139969040Y-109355880D01*
X139976066Y-109338094D01*
X139969040Y-108912050D01*
X139969040Y-108485871D01*
X139961720Y-108468200D01*
X139961405Y-108449077D01*
X139649400Y-107695830D01*
X139639693Y-107690758D01*
X139628781Y-107664414D01*
X139000066Y-107035699D01*
X138973722Y-107024787D01*
X138968650Y-107015080D01*
X138572332Y-106858526D01*
X138178609Y-106695440D01*
X138159480Y-106695440D01*
X138141694Y-106688414D01*
X137715650Y-106695440D01*
X137289471Y-106695440D01*
X137271800Y-106702760D01*
X137252677Y-106703075D01*
X136499430Y-107015080D01*
X136494358Y-107024787D01*
X136468014Y-107035699D01*
X135839299Y-107664414D01*
X135828387Y-107690758D01*
X135818680Y-107695830D01*
X135662126Y-108092148D01*
X135499040Y-108485871D01*
X135499040Y-108505000D01*
X135492014Y-108522786D01*
X131033520Y-108522786D01*
X131033520Y-108257701D01*
X130627494Y-107277466D01*
X130501520Y-107151492D01*
X130501520Y-105432315D01*
X130543346Y-105222040D01*
X130501520Y-105011765D01*
X130501520Y-105011761D01*
X130377646Y-104389004D01*
X129905769Y-103682791D01*
X129727504Y-103563678D01*
X124839976Y-98676151D01*
X124430505Y-98063335D01*
X123691214Y-97569356D01*
X123039288Y-97439680D01*
X122599032Y-97439680D01*
X121947106Y-97569356D01*
X121207815Y-98063335D01*
X120713836Y-98802626D01*
X120540374Y-99674680D01*
X120684160Y-100397543D01*
X120684161Y-105247013D01*
X116288507Y-109642668D01*
X98746440Y-109642668D01*
X98746440Y-103580481D01*
X98622566Y-102957724D01*
X98150689Y-102251511D01*
X97444475Y-101779634D01*
X96611440Y-101613933D01*
X95778404Y-101779634D01*
X95072191Y-102251511D01*
X94600314Y-102957725D01*
X94476440Y-103580482D01*
X94476441Y-109642668D01*
X84160076Y-109642670D01*
X84160076Y-107395965D01*
X84086709Y-107027123D01*
X84495640Y-107108464D01*
X85036261Y-107000928D01*
X85494579Y-106694690D01*
X85800818Y-106236372D01*
X85881210Y-105832213D01*
X85881210Y-104561067D01*
X85880640Y-104558201D01*
X85880640Y-97590760D01*
X94764000Y-97590760D01*
X94764000Y-99990760D01*
X94813283Y-100238525D01*
X94953631Y-100448569D01*
X95163675Y-100588917D01*
X95411440Y-100638200D01*
X97811440Y-100638200D01*
X98059205Y-100588917D01*
X98269249Y-100448569D01*
X98409597Y-100238525D01*
X98458880Y-99990760D01*
X98458880Y-98074680D01*
X105331720Y-98074680D01*
X105331720Y-101274680D01*
X105381003Y-101522445D01*
X105444160Y-101616966D01*
X105444161Y-104189074D01*
X105381003Y-104283595D01*
X105331720Y-104531360D01*
X105331720Y-107731360D01*
X105381003Y-107979125D01*
X105521351Y-108189169D01*
X105731395Y-108329517D01*
X105979160Y-108378800D01*
X109179160Y-108378800D01*
X109426925Y-108329517D01*
X109636969Y-108189169D01*
X109777317Y-107979125D01*
X109826600Y-107731360D01*
X109826600Y-104531360D01*
X109777317Y-104283595D01*
X109714160Y-104189075D01*
X109714160Y-101809680D01*
X111968885Y-101809680D01*
X112179160Y-101851506D01*
X112389435Y-101809680D01*
X112389439Y-101809680D01*
X113012196Y-101685806D01*
X113718409Y-101213929D01*
X113837524Y-101035661D01*
X117383104Y-97490082D01*
X117561369Y-97370969D01*
X118033246Y-96664756D01*
X118157120Y-96041999D01*
X118157120Y-96041996D01*
X118198946Y-95831721D01*
X118157120Y-95621446D01*
X118157120Y-81449040D01*
X123896545Y-81449040D01*
X124620808Y-81749040D01*
X125589512Y-81749040D01*
X126484476Y-81378333D01*
X127169453Y-80693356D01*
X127540160Y-79798392D01*
X127540160Y-78829688D01*
X127169453Y-77934724D01*
X126484476Y-77249747D01*
X125589512Y-76879040D01*
X124620808Y-76879040D01*
X123896545Y-77179040D01*
X118157120Y-77179040D01*
X118157120Y-70653065D01*
X125760213Y-63049973D01*
X126484476Y-62749973D01*
X127169453Y-62064996D01*
X127469454Y-61340731D01*
X132973624Y-55836562D01*
X133151889Y-55717449D01*
X133623766Y-55011236D01*
X133747640Y-54388479D01*
X133747640Y-54388474D01*
X133789466Y-54178201D01*
X133747640Y-53967927D01*
X133747640Y-52452400D01*
X136889035Y-52452400D01*
X136983555Y-52515557D01*
X137231320Y-52564840D01*
X140431320Y-52564840D01*
X140679085Y-52515557D01*
X140889129Y-52375209D01*
X141029477Y-52165165D01*
X141078760Y-51917400D01*
X141078760Y-48717400D01*
X141029477Y-48469635D01*
X140889129Y-48259591D01*
X140679085Y-48119243D01*
X140431320Y-48069960D01*
X137231320Y-48069960D01*
X136983555Y-48119243D01*
X136889035Y-48182400D01*
X133554925Y-48182400D01*
X133460405Y-48119243D01*
X133212640Y-48069960D01*
X130012640Y-48069960D01*
X129764875Y-48119243D01*
X129554831Y-48259591D01*
X129414483Y-48469635D01*
X129365200Y-48717400D01*
X129365200Y-51917400D01*
X129414483Y-52165165D01*
X129477641Y-52259686D01*
X129477641Y-53293853D01*
X124450109Y-58321386D01*
X123725844Y-58621387D01*
X123040867Y-59306364D01*
X122740867Y-60030627D01*
X114661139Y-68110356D01*
X114482871Y-68229471D01*
X114010994Y-68935685D01*
X113887120Y-69558442D01*
X113887120Y-69558445D01*
X113845294Y-69768720D01*
X113887120Y-69978995D01*
X113887121Y-78179200D01*
X113845294Y-78389480D01*
X113887121Y-78599759D01*
X113887120Y-94947374D01*
X111294815Y-97539680D01*
X109521445Y-97539680D01*
X109426925Y-97476523D01*
X109179160Y-97427240D01*
X105979160Y-97427240D01*
X105731395Y-97476523D01*
X105521351Y-97616871D01*
X105381003Y-97826915D01*
X105331720Y-98074680D01*
X98458880Y-98074680D01*
X98458880Y-97590760D01*
X98409597Y-97342995D01*
X98269249Y-97132951D01*
X98059205Y-96992603D01*
X97811440Y-96943320D01*
X95411440Y-96943320D01*
X95163675Y-96992603D01*
X94953631Y-97132951D01*
X94813283Y-97342995D01*
X94764000Y-97590760D01*
X85880640Y-97590760D01*
X85880640Y-95539205D01*
X87776966Y-93642880D01*
X103266993Y-93642880D01*
X103403400Y-93670013D01*
X103539807Y-93642880D01*
X103943800Y-93562521D01*
X104401929Y-93256409D01*
X104479199Y-93140766D01*
X108599208Y-89020758D01*
X108714849Y-88943489D01*
X109020961Y-88485360D01*
X109101320Y-88081367D01*
X109128453Y-87944960D01*
X109101320Y-87808553D01*
X109101320Y-76994015D01*
X109128453Y-76857608D01*
X109020961Y-76317208D01*
X108792117Y-75974719D01*
X108792115Y-75974717D01*
X108714848Y-75859079D01*
X108599210Y-75781812D01*
X108108077Y-75290680D01*
X108710967Y-74687790D01*
X108826608Y-74610521D01*
X109132721Y-74152392D01*
X109213080Y-73748399D01*
X109213080Y-73748398D01*
X109240213Y-73611993D01*
X109213080Y-73475587D01*
X109213080Y-60502045D01*
X109240213Y-60365639D01*
X109207529Y-60201328D01*
X109132721Y-59825240D01*
X108826609Y-59367111D01*
X108710968Y-59289842D01*
X106153945Y-56732820D01*
X105931497Y-56399903D01*
X105456829Y-56082740D01*
X105038253Y-55999480D01*
X104755587Y-55999480D01*
X104653300Y-56019826D01*
X105538272Y-55134854D01*
X105658982Y-55084854D01*
X106062654Y-54681182D01*
X106281120Y-54153759D01*
X106281120Y-53582881D01*
X106062654Y-53055458D01*
X105658982Y-52651786D01*
X105131559Y-52433320D01*
X104560681Y-52433320D01*
X104033258Y-52651786D01*
X103629586Y-53055458D01*
X103579586Y-53176168D01*
X98669195Y-58086560D01*
X93304847Y-58086560D01*
X93168440Y-58059427D01*
X93032033Y-58086560D01*
X92628040Y-58166919D01*
X92169911Y-58473031D01*
X92092640Y-58588675D01*
X91517233Y-59164082D01*
X91401592Y-59241351D01*
X91324323Y-59356992D01*
X91095479Y-59699481D01*
X90987987Y-60239880D01*
X91015121Y-60376291D01*
X91015121Y-61154880D01*
X89188805Y-61154880D01*
X89052399Y-61127747D01*
X88915993Y-61154880D01*
X88512000Y-61235239D01*
X88053871Y-61541351D01*
X87976602Y-61656992D01*
X86604872Y-63028723D01*
X86489232Y-63105991D01*
X86411963Y-63221632D01*
X86183119Y-63564121D01*
X86075627Y-64104520D01*
X86102761Y-64240932D01*
X86102760Y-68529894D01*
X86063975Y-68724880D01*
X86019747Y-68947230D01*
X86046880Y-69083637D01*
X86046880Y-69685900D01*
X85968767Y-70078600D01*
X86080140Y-70638509D01*
X86397303Y-71113177D01*
X86871971Y-71430340D01*
X87290547Y-71513600D01*
X87573213Y-71513600D01*
X87991789Y-71430340D01*
X88466457Y-71113177D01*
X88783620Y-70638509D01*
X88894993Y-70078600D01*
X88816880Y-69685900D01*
X88816880Y-69308685D01*
X88872760Y-69027757D01*
X88872760Y-69027756D01*
X88899893Y-68891351D01*
X88872760Y-68754945D01*
X88872760Y-64678205D01*
X89626086Y-63924880D01*
X91332664Y-63924880D01*
X91352355Y-63938037D01*
X91486226Y-63964665D01*
X91365543Y-64045303D01*
X91048380Y-64519971D01*
X90937007Y-65079880D01*
X91048380Y-65639789D01*
X91365543Y-66114457D01*
X91717878Y-66349880D01*
X91365543Y-66585303D01*
X91048380Y-67059971D01*
X90937007Y-67619880D01*
X91048380Y-68179789D01*
X91365543Y-68654457D01*
X91717878Y-68889880D01*
X91365543Y-69125303D01*
X91143096Y-69458218D01*
X90592672Y-70008643D01*
X90477032Y-70085911D01*
X90399763Y-70201552D01*
X90170919Y-70544041D01*
X90063427Y-71084440D01*
X90090561Y-71220852D01*
X90090560Y-76098754D01*
X80900032Y-85289283D01*
X80784392Y-85366551D01*
X80707123Y-85482192D01*
X80478279Y-85824681D01*
X80370787Y-86365080D01*
X80397921Y-86501491D01*
X80397920Y-88002680D01*
X75163430Y-88002680D01*
X75042719Y-87952680D01*
X74471841Y-87952680D01*
X73944418Y-88171146D01*
X73540746Y-88574818D01*
X73322280Y-89102241D01*
X73322280Y-89673119D01*
X73372280Y-89793830D01*
X73372280Y-90655456D01*
X73372281Y-90655461D01*
X73372280Y-93601594D01*
X70822875Y-96151000D01*
X70313675Y-96151000D01*
X70144325Y-96037843D01*
X70128652Y-96034725D01*
X70297870Y-95865507D01*
X70531560Y-95301330D01*
X70531560Y-94690670D01*
X70351080Y-94254953D01*
X70351080Y-89793830D01*
X70401080Y-89673119D01*
X70401080Y-89102241D01*
X70182614Y-88574818D01*
X69778942Y-88171146D01*
X69251519Y-87952680D01*
X68680641Y-87952680D01*
X68153218Y-88171146D01*
X67749546Y-88574818D01*
X67531080Y-89102241D01*
X67531080Y-89673119D01*
X67581080Y-89793830D01*
X67581081Y-94402121D01*
X67461560Y-94690670D01*
X67461560Y-95301330D01*
X67695250Y-95865507D01*
X67864468Y-96034725D01*
X67848795Y-96037843D01*
X67638751Y-96178191D01*
X67498403Y-96388235D01*
X67449120Y-96636000D01*
X67449120Y-96934776D01*
X67361560Y-97374970D01*
X67361561Y-99758760D01*
X65460030Y-101660292D01*
X65323511Y-101751511D01*
X65031939Y-102187880D01*
X62519985Y-102187880D01*
X60682000Y-100349895D01*
X60682000Y-91088795D01*
X60723826Y-90878520D01*
X60682000Y-90668245D01*
X60682000Y-74368115D01*
X60723826Y-74157840D01*
X60682000Y-73947565D01*
X60682000Y-73947561D01*
X60558126Y-73324804D01*
X60086249Y-72618591D01*
X59907984Y-72499478D01*
X57949706Y-70541200D01*
X59914550Y-70541200D01*
X60100200Y-70578128D01*
X60285850Y-70541200D01*
X60285855Y-70541200D01*
X60835690Y-70431831D01*
X61459209Y-70015209D01*
X61564375Y-69857817D01*
X64019620Y-67402573D01*
X64177009Y-67297409D01*
X64283256Y-67138400D01*
X64455533Y-66880569D01*
X64593631Y-66673890D01*
X64703000Y-66124055D01*
X64703000Y-66124054D01*
X64739929Y-65938400D01*
X64703000Y-65752746D01*
X64703000Y-64738400D01*
X65970560Y-64738400D01*
X65970560Y-67138400D01*
X66019843Y-67386165D01*
X66160191Y-67596209D01*
X66370235Y-67736557D01*
X66618000Y-67785840D01*
X69018000Y-67785840D01*
X69265765Y-67736557D01*
X69475809Y-67596209D01*
X69616157Y-67386165D01*
X69665440Y-67138400D01*
X69665440Y-64738400D01*
X69616157Y-64490635D01*
X69475809Y-64280591D01*
X69265765Y-64140243D01*
X69018000Y-64090960D01*
X66618000Y-64090960D01*
X66370235Y-64140243D01*
X66160191Y-64280591D01*
X66019843Y-64490635D01*
X65970560Y-64738400D01*
X64703000Y-64738400D01*
X64703000Y-62580272D01*
X64809113Y-62474160D01*
X74946270Y-62474160D01*
X75131920Y-62511088D01*
X75235613Y-62490462D01*
X62134513Y-75591562D01*
X62018872Y-75668831D01*
X61941603Y-75784472D01*
X61712759Y-76126961D01*
X61605267Y-76667360D01*
X61632401Y-76803772D01*
X61632400Y-89298300D01*
X61605267Y-89434707D01*
X61632400Y-89571113D01*
X61662000Y-89719923D01*
X61662000Y-89951281D01*
X61660914Y-89952367D01*
X61412000Y-90553298D01*
X61412000Y-91203742D01*
X61660914Y-91804673D01*
X61662000Y-91805759D01*
X61662001Y-96451280D01*
X61660914Y-96452367D01*
X61412000Y-97053298D01*
X61412000Y-97703742D01*
X61660914Y-98304673D01*
X62120847Y-98764606D01*
X62721778Y-99013520D01*
X63372222Y-99013520D01*
X63973153Y-98764606D01*
X64433086Y-98304673D01*
X64682000Y-97703742D01*
X64682000Y-97053298D01*
X64433086Y-96452367D01*
X64432000Y-96451281D01*
X64432000Y-91805759D01*
X64433086Y-91804673D01*
X64682000Y-91203742D01*
X64682000Y-90553298D01*
X64433086Y-89952367D01*
X64432000Y-89951281D01*
X64432000Y-89600714D01*
X64459133Y-89464307D01*
X64402400Y-89179091D01*
X64402400Y-77241045D01*
X64955765Y-76687680D01*
X67502967Y-76687680D01*
X67614340Y-77247589D01*
X67931503Y-77722257D01*
X68406171Y-78039420D01*
X68824747Y-78122680D01*
X69107413Y-78122680D01*
X69525989Y-78039420D01*
X70000657Y-77722257D01*
X70317820Y-77247589D01*
X70429193Y-76687680D01*
X73294167Y-76687680D01*
X73405540Y-77247589D01*
X73722703Y-77722257D01*
X74197371Y-78039420D01*
X74615947Y-78122680D01*
X74898613Y-78122680D01*
X75317189Y-78039420D01*
X75791857Y-77722257D01*
X76109020Y-77247589D01*
X76220393Y-76687680D01*
X76217362Y-76672440D01*
X80319807Y-76672440D01*
X80431180Y-77232349D01*
X80748343Y-77707017D01*
X81223011Y-78024180D01*
X81641587Y-78107440D01*
X81924253Y-78107440D01*
X82175620Y-78057440D01*
X85865700Y-78057440D01*
X86117067Y-78107440D01*
X86399733Y-78107440D01*
X86818309Y-78024180D01*
X87292977Y-77707017D01*
X87610140Y-77232349D01*
X87721513Y-76672440D01*
X87610140Y-76112531D01*
X87292977Y-75637863D01*
X86818309Y-75320700D01*
X86399733Y-75237440D01*
X86117067Y-75237440D01*
X85865700Y-75287440D01*
X82175620Y-75287440D01*
X81924253Y-75237440D01*
X81641587Y-75237440D01*
X81223011Y-75320700D01*
X80748343Y-75637863D01*
X80431180Y-76112531D01*
X80319807Y-76672440D01*
X76217362Y-76672440D01*
X76142280Y-76294980D01*
X76142280Y-70423429D01*
X76166880Y-70364039D01*
X76166880Y-70116733D01*
X76169413Y-70103999D01*
X76166880Y-70091265D01*
X76166880Y-69793161D01*
X75948414Y-69265738D01*
X75544742Y-68862066D01*
X75017319Y-68643600D01*
X74446441Y-68643600D01*
X73919018Y-68862066D01*
X73515346Y-69265738D01*
X73296880Y-69793161D01*
X73296880Y-70364039D01*
X73372281Y-70546073D01*
X73372280Y-76294980D01*
X73294167Y-76687680D01*
X70429193Y-76687680D01*
X70317820Y-76127771D01*
X70000657Y-75653103D01*
X69525989Y-75335940D01*
X69107413Y-75252680D01*
X68824747Y-75252680D01*
X68406171Y-75335940D01*
X67931503Y-75653103D01*
X67614340Y-76127771D01*
X67502967Y-76687680D01*
X64955765Y-76687680D01*
X76966725Y-64676720D01*
X83795353Y-64676720D01*
X83931760Y-64703853D01*
X84068167Y-64676720D01*
X84472160Y-64596361D01*
X84930289Y-64290249D01*
X85007559Y-64174606D01*
X88800009Y-60382157D01*
X88915650Y-60304888D01*
X89221762Y-59846759D01*
X89302121Y-59442766D01*
X89329254Y-59306359D01*
X89302121Y-59169952D01*
X89302121Y-57314643D01*
X89409270Y-57207495D01*
X89529982Y-57157494D01*
X89933654Y-56753822D01*
X90152120Y-56226399D01*
X90152120Y-55655521D01*
X89933654Y-55128098D01*
X89529982Y-54724426D01*
X89002559Y-54505960D01*
X88431681Y-54505960D01*
X87904258Y-54724426D01*
X87500586Y-55128098D01*
X87450585Y-55248810D01*
X87034234Y-55665161D01*
X86918592Y-55742431D01*
X86775756Y-55956200D01*
X86612480Y-56200560D01*
X86504988Y-56740959D01*
X86532121Y-56877366D01*
X86532122Y-58732672D01*
X83358075Y-61906720D01*
X76529441Y-61906720D01*
X76519893Y-61904821D01*
X76596095Y-61790777D01*
X78556974Y-59829899D01*
X78868430Y-59363771D01*
X79005601Y-58674164D01*
X80245360Y-57434405D01*
X80245360Y-59828280D01*
X80294643Y-60076045D01*
X80434991Y-60286089D01*
X80645035Y-60426437D01*
X80892800Y-60475720D01*
X83292800Y-60475720D01*
X83540565Y-60426437D01*
X83750609Y-60286089D01*
X83890957Y-60076045D01*
X83940240Y-59828280D01*
X83940240Y-57428280D01*
X83890957Y-57180515D01*
X83750609Y-56970471D01*
X83540565Y-56830123D01*
X83292800Y-56780840D01*
X80898925Y-56780840D01*
X83742166Y-53937600D01*
X88966395Y-53937600D01*
X89261840Y-54233045D01*
X89339111Y-54348689D01*
X89797240Y-54654801D01*
X90201233Y-54735160D01*
X90337639Y-54762293D01*
X90474045Y-54735160D01*
X92002340Y-54735160D01*
X92253707Y-54785160D01*
X92536373Y-54785160D01*
X92954949Y-54701900D01*
X93429617Y-54384737D01*
X93746780Y-53910069D01*
X93858153Y-53350160D01*
X93746780Y-52790251D01*
X93429617Y-52315583D01*
X93077282Y-52080160D01*
X93429617Y-51844737D01*
X93746780Y-51370069D01*
X93858153Y-50810160D01*
X93746780Y-50250251D01*
X93429617Y-49775583D01*
X93077282Y-49540160D01*
X93429617Y-49304737D01*
X93746780Y-48830069D01*
X93858153Y-48270160D01*
X93746780Y-47710251D01*
X93429617Y-47235583D01*
X93308934Y-47154945D01*
X93442805Y-47128317D01*
X93652849Y-46987969D01*
X93793197Y-46777925D01*
X93842480Y-46530160D01*
X93842480Y-44930160D01*
X93793197Y-44682395D01*
X93652849Y-44472351D01*
X93442805Y-44332003D01*
X93195040Y-44282720D01*
X91595040Y-44282720D01*
X91347275Y-44332003D01*
X91137231Y-44472351D01*
X90996883Y-44682395D01*
X90947600Y-44930160D01*
X90947600Y-46530160D01*
X90996883Y-46777925D01*
X91137231Y-46987969D01*
X91347275Y-47128317D01*
X91481146Y-47154945D01*
X91360463Y-47235583D01*
X91043300Y-47710251D01*
X90931927Y-48270160D01*
X91043300Y-48830069D01*
X91360463Y-49304737D01*
X91540689Y-49425160D01*
X91322805Y-49425160D01*
X91083240Y-49185595D01*
X91005969Y-49069951D01*
X90547840Y-48763839D01*
X90143847Y-48683480D01*
X90007440Y-48656347D01*
X89871033Y-48683480D01*
X85490054Y-48683480D01*
X85918249Y-48397369D01*
X86009468Y-48260850D01*
X89987105Y-44283214D01*
X89987107Y-44283211D01*
X92152799Y-42117520D01*
X95221532Y-42117520D01*
X98380040Y-45276029D01*
X98380040Y-45891190D01*
X98474904Y-46368104D01*
X98836271Y-46908929D01*
X99152803Y-47120429D01*
X98980463Y-47235583D01*
X98663300Y-47710251D01*
X98551927Y-48270160D01*
X98663300Y-48830069D01*
X98980463Y-49304737D01*
X99332798Y-49540160D01*
X98980463Y-49775583D01*
X98663300Y-50250251D01*
X98551927Y-50810160D01*
X98663300Y-51370069D01*
X98980463Y-51844737D01*
X99332798Y-52080160D01*
X98980463Y-52315583D01*
X98663300Y-52790251D01*
X98551927Y-53350160D01*
X98663300Y-53910069D01*
X98980463Y-54384737D01*
X99455131Y-54701900D01*
X99873707Y-54785160D01*
X100156373Y-54785160D01*
X100574949Y-54701900D01*
X101049617Y-54384737D01*
X101366780Y-53910069D01*
X101478153Y-53350160D01*
X101366780Y-52790251D01*
X101049617Y-52315583D01*
X100869391Y-52195160D01*
X106543195Y-52195160D01*
X107708001Y-53359967D01*
X107708000Y-56113930D01*
X107658000Y-56234641D01*
X107658000Y-56805519D01*
X107876466Y-57332942D01*
X108280138Y-57736614D01*
X108807561Y-57955080D01*
X109378439Y-57955080D01*
X109905862Y-57736614D01*
X110309534Y-57332942D01*
X110528000Y-56805519D01*
X110528000Y-56234641D01*
X111559440Y-56234641D01*
X111559440Y-56805519D01*
X111777906Y-57332942D01*
X112181578Y-57736614D01*
X112709001Y-57955080D01*
X113279879Y-57955080D01*
X113807302Y-57736614D01*
X114210974Y-57332942D01*
X114429440Y-56805519D01*
X114429440Y-56234641D01*
X114210974Y-55707218D01*
X113807302Y-55303546D01*
X113279879Y-55085080D01*
X112709001Y-55085080D01*
X112181578Y-55303546D01*
X111777906Y-55707218D01*
X111559440Y-56234641D01*
X110528000Y-56234641D01*
X110478000Y-56113930D01*
X110478000Y-52922687D01*
X110505133Y-52786280D01*
X110397641Y-52245880D01*
X110234168Y-52001226D01*
X110091529Y-51787751D01*
X109975888Y-51710482D01*
X108192679Y-49927274D01*
X108115409Y-49811631D01*
X107657280Y-49505519D01*
X107253287Y-49425160D01*
X107116880Y-49398027D01*
X106980473Y-49425160D01*
X103014594Y-49425160D01*
X103248769Y-49268689D01*
X103326039Y-49153046D01*
X105729008Y-46750078D01*
X105844649Y-46672809D01*
X106150761Y-46214680D01*
X106231120Y-45810687D01*
X106258253Y-45674280D01*
X106231120Y-45537873D01*
X106231120Y-41561020D01*
X106309233Y-41168320D01*
X106197860Y-40608411D01*
X105880697Y-40133743D01*
X105406029Y-39816580D01*
X104987453Y-39733320D01*
X104704787Y-39733320D01*
X104286211Y-39816580D01*
X103811543Y-40133743D01*
X103494380Y-40608411D01*
X103383007Y-41168320D01*
X103461120Y-41561021D01*
X103461121Y-45100593D01*
X101676555Y-46885160D01*
X101209691Y-46885160D01*
X101555176Y-46368105D01*
X101650040Y-45891191D01*
X101650040Y-44759820D01*
X101682071Y-44598790D01*
X101638549Y-44379989D01*
X101555176Y-43960845D01*
X101193809Y-43420021D01*
X101057293Y-43328804D01*
X97533770Y-39805282D01*
X97533770Y-38704481D01*
X98441092Y-37797159D01*
X98577609Y-37705942D01*
X98577730Y-37705760D01*
X106461280Y-37705760D01*
X106461280Y-39225760D01*
X106510563Y-39473525D01*
X106650911Y-39683569D01*
X106860955Y-39823917D01*
X107108720Y-39873200D01*
X108628720Y-39873200D01*
X108876485Y-39823917D01*
X109086529Y-39683569D01*
X109226877Y-39473525D01*
X109262843Y-39292711D01*
X109273720Y-39303588D01*
X109273721Y-42034227D01*
X108915718Y-42392231D01*
X108533091Y-42468340D01*
X108058423Y-42785503D01*
X107741260Y-43260171D01*
X107629887Y-43820080D01*
X107741260Y-44379989D01*
X108058423Y-44854657D01*
X108533091Y-45171820D01*
X108951667Y-45255080D01*
X109234333Y-45255080D01*
X109652909Y-45171820D01*
X110127577Y-44854657D01*
X110444740Y-44379989D01*
X110520849Y-43997362D01*
X111132241Y-43385971D01*
X111227009Y-43322649D01*
X111477866Y-42947215D01*
X111543720Y-42616143D01*
X111565955Y-42504361D01*
X111543720Y-42392578D01*
X111543720Y-39303588D01*
X111591344Y-39255964D01*
X111678720Y-39045020D01*
X111766096Y-39255964D01*
X112158516Y-39648384D01*
X112671237Y-39860760D01*
X112763988Y-39860760D01*
X113510160Y-40606932D01*
X113510160Y-40722239D01*
X113728626Y-41249662D01*
X113810160Y-41331196D01*
X113810160Y-41399228D01*
X112817158Y-42392231D01*
X112434531Y-42468340D01*
X111959863Y-42785503D01*
X111642700Y-43260171D01*
X111531327Y-43820080D01*
X111642700Y-44379989D01*
X111959863Y-44854657D01*
X112434531Y-45171820D01*
X112853107Y-45255080D01*
X113135773Y-45255080D01*
X113554349Y-45171820D01*
X114029017Y-44854657D01*
X114346180Y-44379989D01*
X114422289Y-43997362D01*
X115668681Y-42750971D01*
X115763449Y-42687649D01*
X116014306Y-42312215D01*
X116080160Y-41981143D01*
X116102395Y-41869360D01*
X116080160Y-41757577D01*
X116080160Y-41331196D01*
X116161694Y-41249662D01*
X116380160Y-40722239D01*
X116380160Y-40151361D01*
X116161694Y-39623938D01*
X115758022Y-39220266D01*
X115230599Y-39001800D01*
X115115292Y-39001800D01*
X114343720Y-38230228D01*
X114343720Y-38188277D01*
X114131344Y-37675556D01*
X113738924Y-37283136D01*
X113226203Y-37070760D01*
X112671237Y-37070760D01*
X112158516Y-37283136D01*
X111766096Y-37675556D01*
X111678720Y-37886500D01*
X111591344Y-37675556D01*
X111198924Y-37283136D01*
X110686203Y-37070760D01*
X110131237Y-37070760D01*
X109618516Y-37283136D01*
X109262843Y-37638809D01*
X109226877Y-37457995D01*
X109086529Y-37247951D01*
X108876485Y-37107603D01*
X108628720Y-37058320D01*
X107108720Y-37058320D01*
X106860955Y-37107603D01*
X106650911Y-37247951D01*
X106510563Y-37457995D01*
X106461280Y-37705760D01*
X98577730Y-37705760D01*
X98938976Y-37165118D01*
X99033840Y-36688204D01*
X99033840Y-36688200D01*
X99065870Y-36527174D01*
X99060059Y-36497960D01*
X100381553Y-36497960D01*
X100517960Y-36525093D01*
X100654367Y-36497960D01*
X101058360Y-36417601D01*
X101516489Y-36111489D01*
X101593759Y-35995846D01*
X102085717Y-35503888D01*
X102525883Y-35416334D01*
X103099785Y-35032865D01*
X103483254Y-34458963D01*
X103617910Y-33782000D01*
X103483254Y-33105037D01*
X103099785Y-32531135D01*
X102525883Y-32147666D01*
X102019800Y-32047000D01*
X101678040Y-32047000D01*
X101171957Y-32147666D01*
X100598055Y-32531135D01*
X100214586Y-33105037D01*
X100127032Y-33545203D01*
X99944275Y-33727960D01*
X98326079Y-33727960D01*
X98324993Y-33726874D01*
X98173299Y-33664040D01*
X98036784Y-33572824D01*
X97875755Y-33540793D01*
X97724062Y-33477960D01*
X97559871Y-33477960D01*
X97398840Y-33445929D01*
X97237809Y-33477960D01*
X97073618Y-33477960D01*
X96921926Y-33540793D01*
X96760895Y-33572824D01*
X96624379Y-33664041D01*
X96472687Y-33726874D01*
X96356587Y-33842974D01*
X96220071Y-33934191D01*
X96128855Y-34070706D01*
X96012754Y-34186807D01*
X95949920Y-34338501D01*
X95858704Y-34475016D01*
X95826673Y-34636045D01*
X95763840Y-34787738D01*
X95763840Y-35849934D01*
X94856520Y-36757255D01*
X94720001Y-36848474D01*
X94358634Y-37389299D01*
X94263770Y-37866212D01*
X94231739Y-38027243D01*
X94263770Y-38188273D01*
X94263770Y-38847520D01*
X91636585Y-38847520D01*
X91475559Y-38815490D01*
X91314533Y-38847520D01*
X91314529Y-38847520D01*
X90837615Y-38942384D01*
X90296791Y-39303751D01*
X90205574Y-39440267D01*
X87674869Y-41970973D01*
X87674866Y-41970975D01*
X84062242Y-45583600D01*
X81276650Y-45583600D01*
X81261409Y-45560791D01*
X81051365Y-45420443D01*
X80803600Y-45371160D01*
X78403600Y-45371160D01*
X78155835Y-45420443D01*
X77945791Y-45560791D01*
X77805443Y-45770835D01*
X77756160Y-46018600D01*
X77756160Y-47107354D01*
X76428955Y-48434560D01*
X70509647Y-48434560D01*
X70418447Y-48373622D01*
X69970702Y-48284560D01*
X69668338Y-48284560D01*
X69220593Y-48373622D01*
X68712847Y-48712887D01*
X68664520Y-48785213D01*
X68664520Y-46034605D01*
X71095526Y-43603600D01*
X78283490Y-43603600D01*
X78868111Y-43994231D01*
X79603600Y-44140529D01*
X80339090Y-43994231D01*
X80962609Y-43577609D01*
X81379231Y-42954090D01*
X81488600Y-42404255D01*
X81488600Y-35220160D01*
X87693802Y-35220160D01*
X88512754Y-36039113D01*
X88972687Y-36499046D01*
X89124380Y-36561880D01*
X89260894Y-36653095D01*
X89421922Y-36685125D01*
X89573618Y-36747960D01*
X89737813Y-36747960D01*
X89898839Y-36779990D01*
X90059865Y-36747960D01*
X90224062Y-36747960D01*
X90375759Y-36685125D01*
X90536785Y-36653095D01*
X90673296Y-36561881D01*
X90824993Y-36499046D01*
X90941097Y-36382942D01*
X91077608Y-36291728D01*
X91168822Y-36155217D01*
X91284926Y-36039113D01*
X91347761Y-35887416D01*
X91438975Y-35750905D01*
X91471005Y-35589879D01*
X91533840Y-35438182D01*
X91533840Y-35273985D01*
X91565870Y-35112959D01*
X91533840Y-34951933D01*
X91533840Y-34787738D01*
X91471005Y-34636042D01*
X91438975Y-34475014D01*
X91347760Y-34338500D01*
X91284926Y-34186807D01*
X90824993Y-33726874D01*
X89641028Y-32542910D01*
X89549809Y-32406391D01*
X89008985Y-32045024D01*
X88532071Y-31950160D01*
X88532070Y-31950160D01*
X88371040Y-31918129D01*
X88210010Y-31950160D01*
X80549559Y-31950160D01*
X80339089Y-31809529D01*
X79603600Y-31663231D01*
X78868110Y-31809529D01*
X78244591Y-32226151D01*
X77827969Y-32849671D01*
X77718600Y-33399506D01*
X77718601Y-40833600D01*
X70658247Y-40833600D01*
X70521840Y-40806467D01*
X70385433Y-40833600D01*
X69981440Y-40913959D01*
X69523311Y-41220071D01*
X69446042Y-41335712D01*
X66396632Y-44385123D01*
X66280992Y-44462391D01*
X66203723Y-44578032D01*
X65974879Y-44920521D01*
X65867387Y-45460920D01*
X65894521Y-45597332D01*
X65894520Y-48326238D01*
X65887285Y-48321403D01*
X65639520Y-48272120D01*
X63839520Y-48272120D01*
X63591755Y-48321403D01*
X63437610Y-48424400D01*
X59925637Y-48424400D01*
X59810169Y-48251591D01*
X59600125Y-48111243D01*
X59352360Y-48061960D01*
X57152360Y-48061960D01*
X56904595Y-48111243D01*
X56694551Y-48251591D01*
X56554203Y-48461635D01*
X56504920Y-48709400D01*
X56504920Y-50909400D01*
X56554203Y-51157165D01*
X56694551Y-51367209D01*
X56904595Y-51507557D01*
X57152360Y-51556840D01*
X59352360Y-51556840D01*
X59600125Y-51507557D01*
X59810169Y-51367209D01*
X59925637Y-51194400D01*
X63407199Y-51194400D01*
X63591755Y-51317717D01*
X63839520Y-51367000D01*
X65639520Y-51367000D01*
X65887285Y-51317717D01*
X65894520Y-51312883D01*
X65894521Y-58704160D01*
X64213970Y-58704160D01*
X64028320Y-58667232D01*
X63842670Y-58704160D01*
X63842665Y-58704160D01*
X63292830Y-58813529D01*
X63116783Y-58931160D01*
X62826701Y-59124986D01*
X62826700Y-59124987D01*
X62669311Y-59230151D01*
X62564147Y-59387540D01*
X61616380Y-60335308D01*
X61458992Y-60440471D01*
X61353828Y-60597860D01*
X61353826Y-60597862D01*
X61147909Y-60906039D01*
X61042370Y-61063990D01*
X60990522Y-61324650D01*
X60896072Y-61799480D01*
X60933001Y-61985134D01*
X60933000Y-65157607D01*
X59319408Y-66771200D01*
X54067156Y-66771200D01*
X53878395Y-66645074D01*
X53045360Y-66479374D01*
X52212324Y-66645074D01*
X51714299Y-66977844D01*
X51506111Y-67116951D01*
X51386998Y-67295216D01*
X47147937Y-71534278D01*
X46969672Y-71653391D01*
X46850559Y-71831656D01*
X46850558Y-71831657D01*
X46497794Y-72359605D01*
X46459396Y-72552645D01*
X46373920Y-72982361D01*
X46373920Y-72982365D01*
X46332094Y-73192640D01*
X46373920Y-73402915D01*
X46373920Y-74984932D01*
X46247946Y-75110906D01*
X45841920Y-76091141D01*
X45841920Y-77152139D01*
X46247946Y-78132374D01*
X46373920Y-78258348D01*
X46373921Y-80630161D01*
X46332094Y-80840440D01*
X46497794Y-81673475D01*
X46850558Y-82201423D01*
X46969672Y-82379689D01*
X47147937Y-82498802D01*
X56412000Y-91762866D01*
X56412001Y-97168237D01*
X56412000Y-97168242D01*
X56412001Y-101023961D01*
X56370174Y-101234240D01*
X56535874Y-102067275D01*
X56686255Y-102292336D01*
X57007752Y-102773489D01*
X57186017Y-102892602D01*
X59977276Y-105683861D01*
X60096391Y-105862129D01*
X60594820Y-106195169D01*
X60802604Y-106334006D01*
X61635640Y-106499707D01*
X61845918Y-106457880D01*
X74761935Y-106457880D01*
X74780396Y-106476341D01*
X74899511Y-106654609D01*
X75605724Y-107126486D01*
X76228481Y-107250360D01*
X76228485Y-107250360D01*
X76438760Y-107292186D01*
X76649035Y-107250360D01*
X78162879Y-107250360D01*
X78785636Y-107126486D01*
X78950944Y-107016031D01*
X79415640Y-107108464D01*
X79956261Y-107000928D01*
X79970554Y-106991377D01*
X79890077Y-107395965D01*
X79890076Y-111567394D01*
X79848250Y-111777669D01*
X79890076Y-111987943D01*
X79890076Y-111987947D01*
X80013950Y-112610704D01*
X80181339Y-112861219D01*
X79338312Y-112863437D01*
X45338200Y-112833354D01*
X45338200Y-111070825D01*
X45345041Y-110850201D01*
X45338200Y-110809206D01*
X45338200Y-108350066D01*
X46470094Y-108350066D01*
X46477120Y-108776110D01*
X46477120Y-109202289D01*
X46484440Y-109219960D01*
X46484755Y-109239083D01*
X46796760Y-109992330D01*
X46806467Y-109997402D01*
X46817379Y-110023746D01*
X47446094Y-110652461D01*
X47472438Y-110663373D01*
X47477510Y-110673080D01*
X47873828Y-110829634D01*
X48267551Y-110992720D01*
X48286680Y-110992720D01*
X48304466Y-110999746D01*
X48730510Y-110992720D01*
X49156689Y-110992720D01*
X49174360Y-110985400D01*
X49193483Y-110985085D01*
X49946730Y-110673080D01*
X49951802Y-110663373D01*
X49978146Y-110652461D01*
X50606861Y-110023746D01*
X50617773Y-109997402D01*
X50627480Y-109992330D01*
X50784034Y-109596012D01*
X50947120Y-109202289D01*
X50947120Y-109183160D01*
X50954146Y-109165374D01*
X50947120Y-108739330D01*
X50947120Y-108313151D01*
X50939800Y-108295480D01*
X50939485Y-108276357D01*
X50627480Y-107523110D01*
X50617773Y-107518038D01*
X50606861Y-107491694D01*
X49978146Y-106862979D01*
X49951802Y-106852067D01*
X49946730Y-106842360D01*
X49550412Y-106685806D01*
X49156689Y-106522720D01*
X49137560Y-106522720D01*
X49119774Y-106515694D01*
X48693730Y-106522720D01*
X48267551Y-106522720D01*
X48249880Y-106530040D01*
X48230757Y-106530355D01*
X47477510Y-106842360D01*
X47472438Y-106852067D01*
X47446094Y-106862979D01*
X46817379Y-107491694D01*
X46806467Y-107518038D01*
X46796760Y-107523110D01*
X46640206Y-107919428D01*
X46477120Y-108313151D01*
X46477120Y-108332280D01*
X46470094Y-108350066D01*
X45338200Y-108350066D01*
X45338200Y-56098440D01*
X51153912Y-56098440D01*
X51190841Y-56284095D01*
X51213877Y-56399903D01*
X51300210Y-56833930D01*
X51716831Y-57457449D01*
X52127474Y-57731831D01*
X52340351Y-57874071D01*
X53075840Y-58020369D01*
X53811330Y-57874071D01*
X53860525Y-57841200D01*
X58361815Y-57841200D01*
X58911650Y-57731831D01*
X59535169Y-57315209D01*
X59951791Y-56691690D01*
X60098089Y-55956200D01*
X59951791Y-55220710D01*
X59535169Y-54597191D01*
X58911650Y-54180569D01*
X58361815Y-54071200D01*
X54960840Y-54071200D01*
X54960840Y-52153585D01*
X54851471Y-51603750D01*
X54434849Y-50980231D01*
X53811329Y-50563609D01*
X53075840Y-50417311D01*
X52340350Y-50563609D01*
X51716831Y-50980231D01*
X51300209Y-51603751D01*
X51190840Y-52153586D01*
X51190841Y-55912786D01*
X51153912Y-56098440D01*
X45338200Y-56098440D01*
X45338200Y-35801661D01*
X45882560Y-35801661D01*
X45882560Y-36862659D01*
X46288586Y-37842894D01*
X47038826Y-38593134D01*
X48019061Y-38999160D01*
X49080059Y-38999160D01*
X50060294Y-38593134D01*
X50186268Y-38467160D01*
X50940840Y-38467160D01*
X50940840Y-39428965D01*
X50899014Y-39639240D01*
X50940840Y-39849515D01*
X50940840Y-39849518D01*
X51064714Y-40472275D01*
X51536591Y-41178489D01*
X51542681Y-41182559D01*
X51546751Y-41188649D01*
X52252964Y-41660526D01*
X52875721Y-41784400D01*
X52875726Y-41784400D01*
X53085999Y-41826226D01*
X53296273Y-41784400D01*
X58462639Y-41784400D01*
X59085396Y-41660526D01*
X59791609Y-41188649D01*
X60263486Y-40482436D01*
X60429187Y-39649400D01*
X60263486Y-38816364D01*
X59791609Y-38110151D01*
X59085396Y-37638274D01*
X58462639Y-37514400D01*
X55210840Y-37514400D01*
X55210840Y-37023465D01*
X56096211Y-36138095D01*
X56709025Y-35728625D01*
X57203004Y-34989334D01*
X57376466Y-34117280D01*
X57232680Y-33394418D01*
X57232680Y-28307262D01*
X57376466Y-27584400D01*
X57203004Y-26712346D01*
X56709025Y-25973055D01*
X55969734Y-25479076D01*
X55317808Y-25349400D01*
X54877552Y-25349400D01*
X54225626Y-25479076D01*
X53486335Y-25973055D01*
X52992356Y-26712346D01*
X52818894Y-27584400D01*
X52962681Y-28307267D01*
X52962680Y-33232934D01*
X51998455Y-34197160D01*
X50186268Y-34197160D01*
X50060294Y-34071186D01*
X49080059Y-33665160D01*
X48019061Y-33665160D01*
X47038826Y-34071186D01*
X46288586Y-34821426D01*
X45882560Y-35801661D01*
X45338200Y-35801661D01*
X45338200Y-27318986D01*
X46470094Y-27318986D01*
X46477120Y-27745030D01*
X46477120Y-28171209D01*
X46484440Y-28188880D01*
X46484755Y-28208003D01*
X46796760Y-28961250D01*
X46806467Y-28966322D01*
X46817379Y-28992666D01*
X47446094Y-29621381D01*
X47472438Y-29632293D01*
X47477510Y-29642000D01*
X47873828Y-29798554D01*
X48267551Y-29961640D01*
X48286680Y-29961640D01*
X48304466Y-29968666D01*
X48730510Y-29961640D01*
X49156689Y-29961640D01*
X49174360Y-29954320D01*
X49193483Y-29954005D01*
X49946730Y-29642000D01*
X49951802Y-29632293D01*
X49978146Y-29621381D01*
X50606861Y-28992666D01*
X50617773Y-28966322D01*
X50627480Y-28961250D01*
X50784034Y-28564932D01*
X50947120Y-28171209D01*
X50947120Y-28152080D01*
X50954146Y-28134294D01*
X50947120Y-27708250D01*
X50947120Y-27282071D01*
X50939800Y-27264400D01*
X50939485Y-27245277D01*
X50627480Y-26492030D01*
X50617773Y-26486958D01*
X50606861Y-26460614D01*
X49978146Y-25831899D01*
X49951802Y-25820987D01*
X49946730Y-25811280D01*
X49550412Y-25654726D01*
X49156689Y-25491640D01*
X49137560Y-25491640D01*
X49119774Y-25484614D01*
X48693730Y-25491640D01*
X48267551Y-25491640D01*
X48249880Y-25498960D01*
X48230757Y-25499275D01*
X47477510Y-25811280D01*
X47472438Y-25820987D01*
X47446094Y-25831899D01*
X46817379Y-26460614D01*
X46806467Y-26486958D01*
X46796760Y-26492030D01*
X46640206Y-26888348D01*
X46477120Y-27282071D01*
X46477120Y-27301200D01*
X46470094Y-27318986D01*
X45338200Y-27318986D01*
X45338200Y-23743120D01*
X85626294Y-23743120D01*
X82919255Y-26450160D01*
G36*
X103433807Y-57434480D02*
X103545180Y-57994389D01*
X103862343Y-58469057D01*
X104195260Y-58691505D01*
X106443081Y-60939327D01*
X106443080Y-73038307D01*
X105575707Y-73905680D01*
X105544062Y-73905680D01*
X105181930Y-73755680D01*
X104571270Y-73755680D01*
X104007093Y-73989370D01*
X103575290Y-74421173D01*
X103341600Y-74985350D01*
X103341600Y-75596010D01*
X103575290Y-76160187D01*
X103744508Y-76329405D01*
X103728835Y-76332523D01*
X103518791Y-76472871D01*
X103378443Y-76682915D01*
X103329160Y-76930680D01*
X103329160Y-78730680D01*
X103378443Y-78978445D01*
X103491600Y-79147796D01*
X103491601Y-80902096D01*
X103341600Y-81264230D01*
X103341600Y-81874890D01*
X103575290Y-82439067D01*
X103744508Y-82608285D01*
X103728835Y-82611403D01*
X103518791Y-82751751D01*
X103378443Y-82961795D01*
X103329160Y-83209560D01*
X103329160Y-85009560D01*
X103378443Y-85257325D01*
X103518791Y-85467369D01*
X103728835Y-85607717D01*
X103976600Y-85657000D01*
X105776600Y-85657000D01*
X106024365Y-85607717D01*
X106234409Y-85467369D01*
X106331321Y-85322331D01*
X106331321Y-87371273D01*
X102829715Y-90872880D01*
X87339685Y-90872880D01*
X87203279Y-90845747D01*
X87066873Y-90872880D01*
X86662880Y-90953239D01*
X86582734Y-91006791D01*
X86950550Y-90638975D01*
X87071262Y-90588974D01*
X87474934Y-90185302D01*
X87693400Y-89657879D01*
X87693400Y-89087001D01*
X87474934Y-88559578D01*
X87071262Y-88155906D01*
X86543839Y-87937440D01*
X85972961Y-87937440D01*
X85445538Y-88155906D01*
X85041866Y-88559578D01*
X84991865Y-88680290D01*
X84657352Y-89014803D01*
X84419232Y-89173910D01*
X84341961Y-89289554D01*
X81072752Y-92558763D01*
X80957111Y-92636032D01*
X80848700Y-92798281D01*
X80650999Y-93094161D01*
X80543507Y-93634560D01*
X80570640Y-93770967D01*
X80570641Y-103932152D01*
X80414580Y-103698590D01*
X79956262Y-103392352D01*
X79415640Y-103284816D01*
X79138422Y-103339958D01*
X78785636Y-103104234D01*
X78162879Y-102980360D01*
X77323105Y-102980360D01*
X77304644Y-102961899D01*
X77185529Y-102783631D01*
X76479316Y-102311754D01*
X75856559Y-102187880D01*
X75856555Y-102187880D01*
X75646280Y-102146054D01*
X75436005Y-102187880D01*
X69556919Y-102187880D01*
X70038813Y-101705986D01*
X70175329Y-101614769D01*
X70410207Y-101263249D01*
X70536696Y-101073946D01*
X70663591Y-100436000D01*
X70631560Y-100274969D01*
X70631560Y-98921000D01*
X71260153Y-98921000D01*
X71396560Y-98948133D01*
X71532967Y-98921000D01*
X71936960Y-98840641D01*
X72395089Y-98534529D01*
X72472359Y-98418886D01*
X75640170Y-95251076D01*
X75755808Y-95173809D01*
X75833075Y-95058171D01*
X75833077Y-95058169D01*
X76061921Y-94715680D01*
X76169413Y-94175280D01*
X76142280Y-94038873D01*
X76142280Y-90772680D01*
X81413563Y-90772680D01*
X81497481Y-90807440D01*
X82068359Y-90807440D01*
X82595782Y-90588974D01*
X82999454Y-90185302D01*
X83217920Y-89657879D01*
X83217920Y-89087001D01*
X83167920Y-88966290D01*
X83167920Y-86938765D01*
X92177223Y-77929463D01*
X92510137Y-77707017D01*
X92827300Y-77232349D01*
X92938673Y-76672440D01*
X92860560Y-76279740D01*
X92860560Y-71658125D01*
X93101782Y-71416904D01*
X93434697Y-71194457D01*
X93751860Y-70719789D01*
X93863233Y-70159880D01*
X93751860Y-69599971D01*
X93434697Y-69125303D01*
X93254471Y-69004880D01*
X94133153Y-69004880D01*
X94269560Y-69032013D01*
X94405967Y-69004880D01*
X94809960Y-68924521D01*
X95268089Y-68618409D01*
X95345360Y-68502765D01*
X95424561Y-68423564D01*
X95424560Y-74495282D01*
X95353832Y-74542541D01*
X95047719Y-75000670D01*
X95047719Y-75000671D01*
X94940227Y-75541070D01*
X94967360Y-75677477D01*
X94967360Y-76266290D01*
X94917360Y-76387001D01*
X94917360Y-76957879D01*
X95135826Y-77485302D01*
X95539498Y-77888974D01*
X96066921Y-78107440D01*
X96637799Y-78107440D01*
X97165222Y-77888974D01*
X97568894Y-77485302D01*
X97787360Y-76957879D01*
X97787360Y-76387001D01*
X97737360Y-76266290D01*
X97737360Y-76129658D01*
X97808088Y-76082399D01*
X98114201Y-75624270D01*
X98194560Y-75220277D01*
X98194560Y-75220273D01*
X98221692Y-75083871D01*
X98194560Y-74947469D01*
X98194560Y-66464880D01*
X99165769Y-66464880D01*
X98985543Y-66585303D01*
X98668380Y-67059971D01*
X98557007Y-67619880D01*
X98668380Y-68179789D01*
X98985543Y-68654457D01*
X99337878Y-68889880D01*
X98985543Y-69125303D01*
X98668380Y-69599971D01*
X98557007Y-70159880D01*
X98668380Y-70719789D01*
X98985543Y-71194457D01*
X99460211Y-71511620D01*
X99878787Y-71594880D01*
X100161453Y-71594880D01*
X100580029Y-71511620D01*
X101054697Y-71194457D01*
X101159880Y-71037039D01*
X101159881Y-72542753D01*
X98994992Y-74707643D01*
X98879351Y-74784912D01*
X98719514Y-75024125D01*
X98573239Y-75243041D01*
X98465747Y-75783440D01*
X98492880Y-75919847D01*
X98492881Y-85273233D01*
X95778675Y-87987440D01*
X91881710Y-87987440D01*
X91760999Y-87937440D01*
X91190121Y-87937440D01*
X90662698Y-88155906D01*
X90259026Y-88559578D01*
X90040560Y-89087001D01*
X90040560Y-89657879D01*
X90259026Y-90185302D01*
X90662698Y-90588974D01*
X91190121Y-90807440D01*
X91760999Y-90807440D01*
X91881710Y-90757440D01*
X95959660Y-90757440D01*
X96211027Y-90807440D01*
X96493693Y-90807440D01*
X96912269Y-90724180D01*
X97386937Y-90407017D01*
X97609385Y-90074100D01*
X100760768Y-86922718D01*
X100876409Y-86845449D01*
X101182521Y-86387320D01*
X101262880Y-85983327D01*
X101290013Y-85846921D01*
X101262880Y-85710515D01*
X101262880Y-76357125D01*
X103427768Y-74192238D01*
X103543409Y-74114969D01*
X103849521Y-73656840D01*
X103929880Y-73252847D01*
X103957013Y-73116440D01*
X103929880Y-72980033D01*
X103929880Y-71196836D01*
X104084058Y-71351014D01*
X104611481Y-71569480D01*
X105182359Y-71569480D01*
X105709782Y-71351014D01*
X106113454Y-70947342D01*
X106331920Y-70419919D01*
X106331920Y-69849041D01*
X106281920Y-69728330D01*
X106281920Y-64342525D01*
X106309053Y-64206119D01*
X106281920Y-64069713D01*
X106201561Y-63665720D01*
X105895449Y-63207591D01*
X105779808Y-63130322D01*
X104306479Y-61656994D01*
X104229209Y-61541351D01*
X103771080Y-61235239D01*
X103367087Y-61154880D01*
X103230680Y-61127747D01*
X103094273Y-61154880D01*
X100412820Y-61154880D01*
X100161453Y-61104880D01*
X99878787Y-61104880D01*
X99460211Y-61188140D01*
X98985543Y-61505303D01*
X98668380Y-61979971D01*
X98557007Y-62539880D01*
X98668380Y-63099789D01*
X98985543Y-63574457D01*
X99165769Y-63694880D01*
X96945967Y-63694880D01*
X96809560Y-63667747D01*
X96673153Y-63694880D01*
X96269160Y-63775239D01*
X95811031Y-64081351D01*
X95733760Y-64196995D01*
X93695875Y-66234880D01*
X93254471Y-66234880D01*
X93434697Y-66114457D01*
X93751860Y-65639789D01*
X93863233Y-65079880D01*
X93751860Y-64519971D01*
X93434697Y-64045303D01*
X93314014Y-63964665D01*
X93447885Y-63938037D01*
X93657929Y-63797689D01*
X93798277Y-63587645D01*
X93847560Y-63339880D01*
X93847560Y-61739880D01*
X93798277Y-61492115D01*
X93785120Y-61472424D01*
X93785120Y-60856560D01*
X99106473Y-60856560D01*
X99242880Y-60883693D01*
X99379287Y-60856560D01*
X99783280Y-60776201D01*
X100241409Y-60470089D01*
X100318679Y-60354446D01*
X103482266Y-57190859D01*
X103433807Y-57434480D01*
X103433807Y-57434480D01*
G37*
X103433807Y-57434480D02*
X103545180Y-57994389D01*
X103862343Y-58469057D01*
X104195260Y-58691505D01*
X106443081Y-60939327D01*
X106443080Y-73038307D01*
X105575707Y-73905680D01*
X105544062Y-73905680D01*
X105181930Y-73755680D01*
X104571270Y-73755680D01*
X104007093Y-73989370D01*
X103575290Y-74421173D01*
X103341600Y-74985350D01*
X103341600Y-75596010D01*
X103575290Y-76160187D01*
X103744508Y-76329405D01*
X103728835Y-76332523D01*
X103518791Y-76472871D01*
X103378443Y-76682915D01*
X103329160Y-76930680D01*
X103329160Y-78730680D01*
X103378443Y-78978445D01*
X103491600Y-79147796D01*
X103491601Y-80902096D01*
X103341600Y-81264230D01*
X103341600Y-81874890D01*
X103575290Y-82439067D01*
X103744508Y-82608285D01*
X103728835Y-82611403D01*
X103518791Y-82751751D01*
X103378443Y-82961795D01*
X103329160Y-83209560D01*
X103329160Y-85009560D01*
X103378443Y-85257325D01*
X103518791Y-85467369D01*
X103728835Y-85607717D01*
X103976600Y-85657000D01*
X105776600Y-85657000D01*
X106024365Y-85607717D01*
X106234409Y-85467369D01*
X106331321Y-85322331D01*
X106331321Y-87371273D01*
X102829715Y-90872880D01*
X87339685Y-90872880D01*
X87203279Y-90845747D01*
X87066873Y-90872880D01*
X86662880Y-90953239D01*
X86582734Y-91006791D01*
X86950550Y-90638975D01*
X87071262Y-90588974D01*
X87474934Y-90185302D01*
X87693400Y-89657879D01*
X87693400Y-89087001D01*
X87474934Y-88559578D01*
X87071262Y-88155906D01*
X86543839Y-87937440D01*
X85972961Y-87937440D01*
X85445538Y-88155906D01*
X85041866Y-88559578D01*
X84991865Y-88680290D01*
X84657352Y-89014803D01*
X84419232Y-89173910D01*
X84341961Y-89289554D01*
X81072752Y-92558763D01*
X80957111Y-92636032D01*
X80848700Y-92798281D01*
X80650999Y-93094161D01*
X80543507Y-93634560D01*
X80570640Y-93770967D01*
X80570641Y-103932152D01*
X80414580Y-103698590D01*
X79956262Y-103392352D01*
X79415640Y-103284816D01*
X79138422Y-103339958D01*
X78785636Y-103104234D01*
X78162879Y-102980360D01*
X77323105Y-102980360D01*
X77304644Y-102961899D01*
X77185529Y-102783631D01*
X76479316Y-102311754D01*
X75856559Y-102187880D01*
X75856555Y-102187880D01*
X75646280Y-102146054D01*
X75436005Y-102187880D01*
X69556919Y-102187880D01*
X70038813Y-101705986D01*
X70175329Y-101614769D01*
X70410207Y-101263249D01*
X70536696Y-101073946D01*
X70663591Y-100436000D01*
X70631560Y-100274969D01*
X70631560Y-98921000D01*
X71260153Y-98921000D01*
X71396560Y-98948133D01*
X71532967Y-98921000D01*
X71936960Y-98840641D01*
X72395089Y-98534529D01*
X72472359Y-98418886D01*
X75640170Y-95251076D01*
X75755808Y-95173809D01*
X75833075Y-95058171D01*
X75833077Y-95058169D01*
X76061921Y-94715680D01*
X76169413Y-94175280D01*
X76142280Y-94038873D01*
X76142280Y-90772680D01*
X81413563Y-90772680D01*
X81497481Y-90807440D01*
X82068359Y-90807440D01*
X82595782Y-90588974D01*
X82999454Y-90185302D01*
X83217920Y-89657879D01*
X83217920Y-89087001D01*
X83167920Y-88966290D01*
X83167920Y-86938765D01*
X92177223Y-77929463D01*
X92510137Y-77707017D01*
X92827300Y-77232349D01*
X92938673Y-76672440D01*
X92860560Y-76279740D01*
X92860560Y-71658125D01*
X93101782Y-71416904D01*
X93434697Y-71194457D01*
X93751860Y-70719789D01*
X93863233Y-70159880D01*
X93751860Y-69599971D01*
X93434697Y-69125303D01*
X93254471Y-69004880D01*
X94133153Y-69004880D01*
X94269560Y-69032013D01*
X94405967Y-69004880D01*
X94809960Y-68924521D01*
X95268089Y-68618409D01*
X95345360Y-68502765D01*
X95424561Y-68423564D01*
X95424560Y-74495282D01*
X95353832Y-74542541D01*
X95047719Y-75000670D01*
X95047719Y-75000671D01*
X94940227Y-75541070D01*
X94967360Y-75677477D01*
X94967360Y-76266290D01*
X94917360Y-76387001D01*
X94917360Y-76957879D01*
X95135826Y-77485302D01*
X95539498Y-77888974D01*
X96066921Y-78107440D01*
X96637799Y-78107440D01*
X97165222Y-77888974D01*
X97568894Y-77485302D01*
X97787360Y-76957879D01*
X97787360Y-76387001D01*
X97737360Y-76266290D01*
X97737360Y-76129658D01*
X97808088Y-76082399D01*
X98114201Y-75624270D01*
X98194560Y-75220277D01*
X98194560Y-75220273D01*
X98221692Y-75083871D01*
X98194560Y-74947469D01*
X98194560Y-66464880D01*
X99165769Y-66464880D01*
X98985543Y-66585303D01*
X98668380Y-67059971D01*
X98557007Y-67619880D01*
X98668380Y-68179789D01*
X98985543Y-68654457D01*
X99337878Y-68889880D01*
X98985543Y-69125303D01*
X98668380Y-69599971D01*
X98557007Y-70159880D01*
X98668380Y-70719789D01*
X98985543Y-71194457D01*
X99460211Y-71511620D01*
X99878787Y-71594880D01*
X100161453Y-71594880D01*
X100580029Y-71511620D01*
X101054697Y-71194457D01*
X101159880Y-71037039D01*
X101159881Y-72542753D01*
X98994992Y-74707643D01*
X98879351Y-74784912D01*
X98719514Y-75024125D01*
X98573239Y-75243041D01*
X98465747Y-75783440D01*
X98492880Y-75919847D01*
X98492881Y-85273233D01*
X95778675Y-87987440D01*
X91881710Y-87987440D01*
X91760999Y-87937440D01*
X91190121Y-87937440D01*
X90662698Y-88155906D01*
X90259026Y-88559578D01*
X90040560Y-89087001D01*
X90040560Y-89657879D01*
X90259026Y-90185302D01*
X90662698Y-90588974D01*
X91190121Y-90807440D01*
X91760999Y-90807440D01*
X91881710Y-90757440D01*
X95959660Y-90757440D01*
X96211027Y-90807440D01*
X96493693Y-90807440D01*
X96912269Y-90724180D01*
X97386937Y-90407017D01*
X97609385Y-90074100D01*
X100760768Y-86922718D01*
X100876409Y-86845449D01*
X101182521Y-86387320D01*
X101262880Y-85983327D01*
X101290013Y-85846921D01*
X101262880Y-85710515D01*
X101262880Y-76357125D01*
X103427768Y-74192238D01*
X103543409Y-74114969D01*
X103849521Y-73656840D01*
X103929880Y-73252847D01*
X103957013Y-73116440D01*
X103929880Y-72980033D01*
X103929880Y-71196836D01*
X104084058Y-71351014D01*
X104611481Y-71569480D01*
X105182359Y-71569480D01*
X105709782Y-71351014D01*
X106113454Y-70947342D01*
X106331920Y-70419919D01*
X106331920Y-69849041D01*
X106281920Y-69728330D01*
X106281920Y-64342525D01*
X106309053Y-64206119D01*
X106281920Y-64069713D01*
X106201561Y-63665720D01*
X105895449Y-63207591D01*
X105779808Y-63130322D01*
X104306479Y-61656994D01*
X104229209Y-61541351D01*
X103771080Y-61235239D01*
X103367087Y-61154880D01*
X103230680Y-61127747D01*
X103094273Y-61154880D01*
X100412820Y-61154880D01*
X100161453Y-61104880D01*
X99878787Y-61104880D01*
X99460211Y-61188140D01*
X98985543Y-61505303D01*
X98668380Y-61979971D01*
X98557007Y-62539880D01*
X98668380Y-63099789D01*
X98985543Y-63574457D01*
X99165769Y-63694880D01*
X96945967Y-63694880D01*
X96809560Y-63667747D01*
X96673153Y-63694880D01*
X96269160Y-63775239D01*
X95811031Y-64081351D01*
X95733760Y-64196995D01*
X93695875Y-66234880D01*
X93254471Y-66234880D01*
X93434697Y-66114457D01*
X93751860Y-65639789D01*
X93863233Y-65079880D01*
X93751860Y-64519971D01*
X93434697Y-64045303D01*
X93314014Y-63964665D01*
X93447885Y-63938037D01*
X93657929Y-63797689D01*
X93798277Y-63587645D01*
X93847560Y-63339880D01*
X93847560Y-61739880D01*
X93798277Y-61492115D01*
X93785120Y-61472424D01*
X93785120Y-60856560D01*
X99106473Y-60856560D01*
X99242880Y-60883693D01*
X99379287Y-60856560D01*
X99783280Y-60776201D01*
X100241409Y-60470089D01*
X100318679Y-60354446D01*
X103482266Y-57190859D01*
X103433807Y-57434480D01*
G36*
X56412001Y-75042187D02*
X56412000Y-85724174D01*
X50643920Y-79956095D01*
X50643920Y-78258348D01*
X50769894Y-78132374D01*
X51175920Y-77152139D01*
X51175920Y-76091141D01*
X50769894Y-75110906D01*
X50643920Y-74984932D01*
X50643920Y-74076985D01*
X53045360Y-71675545D01*
X56412001Y-75042187D01*
X56412001Y-75042187D01*
G37*
X56412001Y-75042187D02*
X56412000Y-85724174D01*
X50643920Y-79956095D01*
X50643920Y-78258348D01*
X50769894Y-78132374D01*
X51175920Y-77152139D01*
X51175920Y-76091141D01*
X50769894Y-75110906D01*
X50643920Y-74984932D01*
X50643920Y-74076985D01*
X53045360Y-71675545D01*
X56412001Y-75042187D01*
G36*
X106331321Y-82896788D02*
X106234409Y-82751751D01*
X106024365Y-82611403D01*
X106008692Y-82608285D01*
X106177910Y-82439067D01*
X106331320Y-82068702D01*
X106331321Y-82896788D01*
X106331321Y-82896788D01*
G37*
X106331321Y-82896788D02*
X106234409Y-82751751D01*
X106024365Y-82611403D01*
X106008692Y-82608285D01*
X106177910Y-82439067D01*
X106331320Y-82068702D01*
X106331321Y-82896788D01*
G36*
X106331320Y-81070418D02*
X106261600Y-80902098D01*
X106261600Y-79147795D01*
X106331320Y-79043452D01*
X106331320Y-81070418D01*
X106331320Y-81070418D01*
G37*
X106331320Y-81070418D02*
X106261600Y-80902098D01*
X106261600Y-79147795D01*
X106331320Y-79043452D01*
X106331320Y-81070418D01*
G36*
X103511921Y-64779807D02*
X103511920Y-67993702D01*
X103427770Y-67937474D01*
X102227289Y-66736994D01*
X102150019Y-66621351D01*
X101691890Y-66315239D01*
X101287897Y-66234880D01*
X101151490Y-66207747D01*
X101015083Y-66234880D01*
X100874471Y-66234880D01*
X101054697Y-66114457D01*
X101371860Y-65639789D01*
X101483233Y-65079880D01*
X101371860Y-64519971D01*
X101054697Y-64045303D01*
X100874471Y-63924880D01*
X102656995Y-63924880D01*
X103511921Y-64779807D01*
X103511921Y-64779807D01*
G37*
X103511921Y-64779807D02*
X103511920Y-67993702D01*
X103427770Y-67937474D01*
X102227289Y-66736994D01*
X102150019Y-66621351D01*
X101691890Y-66315239D01*
X101287897Y-66234880D01*
X101151490Y-66207747D01*
X101015083Y-66234880D01*
X100874471Y-66234880D01*
X101054697Y-66114457D01*
X101371860Y-65639789D01*
X101483233Y-65079880D01*
X101371860Y-64519971D01*
X101054697Y-64045303D01*
X100874471Y-63924880D01*
X102656995Y-63924880D01*
X103511921Y-64779807D01*
G36*
X81089191Y-49069951D02*
X81011922Y-49185592D01*
X76855675Y-53341840D01*
X73373297Y-53341840D01*
X73236890Y-53314707D01*
X73100483Y-53341840D01*
X72696490Y-53422199D01*
X72238361Y-53728311D01*
X72161092Y-53843952D01*
X71433845Y-54571200D01*
X71268860Y-54571200D01*
X71017493Y-54521200D01*
X70734827Y-54521200D01*
X70316251Y-54604460D01*
X69841583Y-54921623D01*
X69524420Y-55396291D01*
X69413047Y-55956200D01*
X69524420Y-56516109D01*
X69841583Y-56990777D01*
X70316251Y-57307940D01*
X70734827Y-57391200D01*
X71017493Y-57391200D01*
X71268860Y-57341200D01*
X71871123Y-57341200D01*
X72007530Y-57368333D01*
X72143937Y-57341200D01*
X72547930Y-57260841D01*
X73006059Y-56954729D01*
X73083329Y-56839086D01*
X73810576Y-56111840D01*
X77292953Y-56111840D01*
X77429360Y-56138973D01*
X77565767Y-56111840D01*
X77671608Y-56090787D01*
X77046916Y-56715479D01*
X76357309Y-56852650D01*
X75891181Y-57164106D01*
X74351128Y-58704160D01*
X68664520Y-58704160D01*
X68664520Y-50853907D01*
X68712847Y-50926233D01*
X69220593Y-51265498D01*
X69668338Y-51354560D01*
X69970702Y-51354560D01*
X70418447Y-51265498D01*
X70509647Y-51204560D01*
X76866233Y-51204560D01*
X77002640Y-51231693D01*
X77139047Y-51204560D01*
X77543040Y-51124201D01*
X78001169Y-50818089D01*
X78078439Y-50702446D01*
X79714846Y-49066040D01*
X80803600Y-49066040D01*
X81051365Y-49016757D01*
X81261409Y-48876409D01*
X81276650Y-48853600D01*
X81412983Y-48853600D01*
X81089191Y-49069951D01*
X81089191Y-49069951D01*
G37*
X81089191Y-49069951D02*
X81011922Y-49185592D01*
X76855675Y-53341840D01*
X73373297Y-53341840D01*
X73236890Y-53314707D01*
X73100483Y-53341840D01*
X72696490Y-53422199D01*
X72238361Y-53728311D01*
X72161092Y-53843952D01*
X71433845Y-54571200D01*
X71268860Y-54571200D01*
X71017493Y-54521200D01*
X70734827Y-54521200D01*
X70316251Y-54604460D01*
X69841583Y-54921623D01*
X69524420Y-55396291D01*
X69413047Y-55956200D01*
X69524420Y-56516109D01*
X69841583Y-56990777D01*
X70316251Y-57307940D01*
X70734827Y-57391200D01*
X71017493Y-57391200D01*
X71268860Y-57341200D01*
X71871123Y-57341200D01*
X72007530Y-57368333D01*
X72143937Y-57341200D01*
X72547930Y-57260841D01*
X73006059Y-56954729D01*
X73083329Y-56839086D01*
X73810576Y-56111840D01*
X77292953Y-56111840D01*
X77429360Y-56138973D01*
X77565767Y-56111840D01*
X77671608Y-56090787D01*
X77046916Y-56715479D01*
X76357309Y-56852650D01*
X75891181Y-57164106D01*
X74351128Y-58704160D01*
X68664520Y-58704160D01*
X68664520Y-50853907D01*
X68712847Y-50926233D01*
X69220593Y-51265498D01*
X69668338Y-51354560D01*
X69970702Y-51354560D01*
X70418447Y-51265498D01*
X70509647Y-51204560D01*
X76866233Y-51204560D01*
X77002640Y-51231693D01*
X77139047Y-51204560D01*
X77543040Y-51124201D01*
X78001169Y-50818089D01*
X78078439Y-50702446D01*
X79714846Y-49066040D01*
X80803600Y-49066040D01*
X81051365Y-49016757D01*
X81261409Y-48876409D01*
X81276650Y-48853600D01*
X81412983Y-48853600D01*
X81089191Y-49069951D01*
G36*
X108468484Y-26723731D02*
X108036360Y-26637776D01*
X107649406Y-26714746D01*
X107682160Y-26550078D01*
X107682160Y-25018409D01*
X107723987Y-24808130D01*
X107558286Y-23975094D01*
X107403286Y-23743120D01*
X111449094Y-23743120D01*
X108468484Y-26723731D01*
X108468484Y-26723731D01*
G37*
X108468484Y-26723731D02*
X108036360Y-26637776D01*
X107649406Y-26714746D01*
X107682160Y-26550078D01*
X107682160Y-25018409D01*
X107723987Y-24808130D01*
X107558286Y-23975094D01*
X107403286Y-23743120D01*
X111449094Y-23743120D01*
X108468484Y-26723731D01*
M02*
