%TF.GenerationSoftware,KiCad,Pcbnew,(5.0.0)*%
%TF.CreationDate,2018-11-18T18:14:04+09:00*%
%TF.ProjectId,ATTiny85-mppt,415454696E7938352D6D7070742E6B69,rev?*%
%TF.SameCoordinates,Original*%
%TF.FileFunction,Copper,L2,Bot,Signal*%
%TF.FilePolarity,Positive*%
%FSLAX46Y46*%
G04 Gerber Fmt 4.6, Leading zero omitted, Abs format (unit mm)*
G04 Created by KiCad (PCBNEW (5.0.0)) date 11/18/18 18:14:04*
%MOMM*%
%LPD*%
G01*
G04 APERTURE LIST*
%ADD10C,1.600000*%
%ADD11O,1.600000X1.600000*%
%ADD12O,2.200000X2.200000*%
%ADD13R,2.200000X2.200000*%
%ADD14R,2.400000X2.400000*%
%ADD15C,2.400000*%
%ADD16C,2.000000*%
%ADD17O,3.200000X3.200000*%
%ADD18R,3.200000X3.200000*%
%ADD19C,1.800000*%
%ADD20R,1.800000X1.800000*%
%ADD21C,4.064000*%
%ADD22C,3.600000*%
%ADD23O,1.501140X2.499360*%
%ADD24R,1.520000X1.520000*%
%ADD25C,1.520000*%
%ADD26O,1.800000X1.800000*%
%ADD27R,1.600000X1.600000*%
%ADD28C,3.000000*%
%ADD29C,2.000000*%
%ADD30C,1.500000*%
%ADD31C,1.200000*%
%ADD32C,2.500000*%
%ADD33C,0.254000*%
G04 APERTURE END LIST*
D10*
X53035200Y-56784240D03*
D11*
X53035200Y-69484240D03*
D10*
X121859040Y-35473640D03*
D11*
X119319040Y-35473640D03*
D12*
X87848440Y-36642040D03*
D13*
X98008440Y-36642040D03*
D14*
X96611440Y-98790760D03*
D15*
X96611440Y-103790760D03*
X124131080Y-51912520D03*
D14*
X119131080Y-51912520D03*
X75839320Y-44729400D03*
D15*
X75839320Y-49729400D03*
D16*
X97873200Y-42291000D03*
X90373200Y-42291000D03*
D15*
X74583280Y-66725800D03*
D14*
X79583280Y-66725800D03*
X65704720Y-66725800D03*
D15*
X60704720Y-66725800D03*
X79603600Y-33585160D03*
D14*
X79603600Y-28585160D03*
D17*
X131612640Y-35077400D03*
D18*
X131612640Y-50317400D03*
X107579160Y-106131360D03*
D17*
X122819160Y-106131360D03*
D19*
X66812160Y-98734880D03*
D20*
X66812160Y-101274880D03*
D13*
X58252360Y-49809400D03*
D12*
X58252360Y-39649400D03*
D18*
X70337680Y-27584400D03*
D17*
X55097680Y-27584400D03*
X55097680Y-34117280D03*
D18*
X70337680Y-34117280D03*
D20*
X102768400Y-83058000D03*
D19*
X102768400Y-80518000D03*
X102768400Y-86207600D03*
D20*
X102768400Y-88747600D03*
D17*
X138831320Y-35077400D03*
D18*
X138831320Y-50317400D03*
X107579160Y-99674680D03*
D17*
X122819160Y-99674680D03*
D21*
X48539400Y-40101520D03*
X48508920Y-76621640D03*
X137154920Y-98333560D03*
X128366520Y-108788200D03*
D22*
X125105160Y-73385680D03*
X125105160Y-60685680D03*
X125105160Y-79314040D03*
X125105160Y-92014040D03*
D23*
X81955640Y-105196640D03*
X84495640Y-105196640D03*
X79415640Y-105196640D03*
X116951760Y-28056840D03*
X111871760Y-28056840D03*
X114411760Y-28056840D03*
D24*
X117043200Y-39024560D03*
D25*
X117043200Y-44104560D03*
X117043200Y-41564560D03*
X121859040Y-41564560D03*
X121859040Y-44104560D03*
D24*
X121859040Y-39024560D03*
D10*
X71531480Y-93888560D03*
D11*
X71531480Y-81188560D03*
X78673960Y-81254600D03*
D10*
X78673960Y-93954600D03*
X90297000Y-91897200D03*
D11*
X90297000Y-79197200D03*
X95138240Y-91881960D03*
D10*
X95138240Y-79181960D03*
D11*
X53075840Y-52339240D03*
D10*
X53075840Y-39639240D03*
X66812160Y-93888560D03*
D11*
X66812160Y-81188560D03*
D10*
X58226960Y-56708040D03*
D11*
X70926960Y-56708040D03*
X108071920Y-41610280D03*
D10*
X108071920Y-54310280D03*
D11*
X102829360Y-47508160D03*
D10*
X102829360Y-60208160D03*
X83520280Y-93954600D03*
D11*
X83520280Y-81254600D03*
X102768400Y-76992480D03*
D10*
X102768400Y-64292480D03*
D11*
X84231480Y-76895960D03*
D10*
X71531480Y-76895960D03*
X84891880Y-56758840D03*
D11*
X84891880Y-44058840D03*
D16*
X55793640Y-97314880D03*
X60293640Y-97314880D03*
X55793640Y-103814880D03*
X60293640Y-103814880D03*
D26*
X66868040Y-44739560D03*
X66868040Y-47279560D03*
D20*
X66868040Y-49819560D03*
D11*
X97917000Y-64292480D03*
X90297000Y-71912480D03*
X97917000Y-66832480D03*
X90297000Y-69372480D03*
X97917000Y-69372480D03*
X90297000Y-66832480D03*
X97917000Y-71912480D03*
D27*
X90297000Y-64292480D03*
X90352880Y-49245520D03*
D11*
X97972880Y-56865520D03*
X90352880Y-51785520D03*
X97972880Y-54325520D03*
X90352880Y-54325520D03*
X97972880Y-51785520D03*
X90352880Y-56865520D03*
X97972880Y-49245520D03*
D24*
X103799640Y-44109640D03*
D25*
X103799640Y-39029640D03*
X103799640Y-41569640D03*
D11*
X112537240Y-41610280D03*
D10*
X112537240Y-54310280D03*
D15*
X57906920Y-86198720D03*
D14*
X57906920Y-81198720D03*
D12*
X121818400Y-31760160D03*
D13*
X111658400Y-31760160D03*
D11*
X103799640Y-34335720D03*
D10*
X103799640Y-31795720D03*
D28*
X127650744Y-92014040D02*
X134787640Y-84877144D01*
X125105160Y-92014040D02*
X127650744Y-92014040D01*
X134787640Y-84877144D02*
X134787640Y-75768200D01*
X134787640Y-75768200D02*
X132166360Y-73146920D01*
X131927600Y-73385680D02*
X125105160Y-73385680D01*
X132166360Y-73146920D02*
X131927600Y-73385680D01*
X131424680Y-98333560D02*
X125105160Y-92014040D01*
X137154920Y-98333560D02*
X131424680Y-98333560D01*
X122819160Y-99674680D02*
X122819160Y-106131360D01*
X125709680Y-106131360D02*
X128366520Y-108788200D01*
X122819160Y-106131360D02*
X125709680Y-106131360D01*
X128366520Y-105222040D02*
X122819160Y-99674680D01*
X128366520Y-108788200D02*
X128366520Y-105222040D01*
X96611440Y-103790760D02*
X96611440Y-111777668D01*
X117172852Y-111777668D02*
X122819160Y-106131360D01*
X96611440Y-111777668D02*
X117172852Y-111777668D01*
X96611440Y-111777668D02*
X82025076Y-111777669D01*
X82025076Y-111777669D02*
X82025076Y-107606244D01*
D29*
X81955640Y-107536808D02*
X82025076Y-107606244D01*
X81955640Y-105196640D02*
X81955640Y-107536808D01*
D30*
X81955640Y-95519240D02*
X83520280Y-93954600D01*
X81955640Y-105196640D02*
X81955640Y-95519240D01*
D28*
X138831320Y-35077400D02*
X131612640Y-35077400D01*
D30*
X116951760Y-27557730D02*
X116951760Y-28056840D01*
X124131080Y-46376600D02*
X121859040Y-44104560D01*
X124131080Y-51912520D02*
X124131080Y-46376600D01*
X121859040Y-44104560D02*
X126512320Y-44104560D01*
X131612640Y-39004240D02*
X131612640Y-35077400D01*
X126512320Y-44104560D02*
X131612640Y-39004240D01*
D28*
X130012641Y-33477401D02*
X129438601Y-33477401D01*
X131612640Y-35077400D02*
X130012641Y-33477401D01*
X127721360Y-31760160D02*
X121818400Y-31760160D01*
X129438601Y-33477401D02*
X127721360Y-31760160D01*
X121818400Y-30204526D02*
X119624994Y-28011120D01*
X121818400Y-31760160D02*
X121818400Y-30204526D01*
X119624994Y-28011120D02*
X118059200Y-28011120D01*
D30*
X118013480Y-28056840D02*
X118059200Y-28011120D01*
X116951760Y-28056840D02*
X118013480Y-28056840D01*
X119131080Y-46192440D02*
X117043200Y-44104560D01*
X119131080Y-51912520D02*
X119131080Y-46192440D01*
X98008440Y-36642040D02*
X110942120Y-36642040D01*
X112537240Y-38237160D02*
X110942120Y-36642040D01*
X112537240Y-41610280D02*
X112537240Y-38237160D01*
X115031520Y-44104560D02*
X112537240Y-41610280D01*
X117043200Y-44104560D02*
X115031520Y-44104560D01*
D29*
X97917000Y-64292480D02*
X102768400Y-64292480D01*
D30*
X75829160Y-44739560D02*
X75839320Y-44729400D01*
X66868040Y-44739560D02*
X75829160Y-44739560D01*
X87848440Y-36642040D02*
X84830920Y-36642040D01*
X84830920Y-36642040D02*
X79720440Y-41752520D01*
X78539320Y-44729400D02*
X75839320Y-44729400D01*
X79720440Y-43548280D02*
X78539320Y-44729400D01*
X79720440Y-41752520D02*
X79720440Y-43548280D01*
D31*
X83089950Y-44729400D02*
X78539320Y-44729400D01*
D30*
X75839320Y-44729400D02*
X83089950Y-44729400D01*
X83089950Y-44729400D02*
X83760510Y-44058840D01*
X83760510Y-44058840D02*
X84891880Y-44058840D01*
X88605360Y-44058840D02*
X90373200Y-42291000D01*
X84891880Y-44058840D02*
X88605360Y-44058840D01*
X91018360Y-42291000D02*
X97972880Y-49245520D01*
X90373200Y-42291000D02*
X91018360Y-42291000D01*
D28*
X48508920Y-90030160D02*
X55793640Y-97314880D01*
X48508920Y-76621640D02*
X48508920Y-90030160D01*
X55793640Y-97314880D02*
X55793640Y-103814880D01*
X55793640Y-105229093D02*
X59367987Y-108803440D01*
X55793640Y-103814880D02*
X55793640Y-105229093D01*
X74193400Y-108803440D02*
X77825600Y-105171240D01*
D30*
X79390240Y-105171240D02*
X79415640Y-105196640D01*
X77825600Y-105171240D02*
X79390240Y-105171240D01*
X66812160Y-103674880D02*
X66812160Y-108803440D01*
X66812160Y-101274880D02*
X66812160Y-103674880D01*
D28*
X59367987Y-108803440D02*
X66812160Y-108803440D01*
X66812160Y-108803440D02*
X74193400Y-108803440D01*
D30*
X69212160Y-101274880D02*
X71653400Y-98833640D01*
X66812160Y-101274880D02*
X69212160Y-101274880D01*
X71531480Y-98711720D02*
X71531480Y-93888560D01*
X71653400Y-98833640D02*
X71531480Y-98711720D01*
X78607920Y-93888560D02*
X78673960Y-93954600D01*
X71531480Y-93888560D02*
X78607920Y-93888560D01*
X99691840Y-44109640D02*
X97873200Y-42291000D01*
X103799640Y-44109640D02*
X99691840Y-44109640D01*
X96873201Y-41291001D02*
X96873201Y-41242121D01*
X97873200Y-42291000D02*
X96873201Y-41291001D01*
X96873201Y-41242121D02*
X92618560Y-36987480D01*
X92618560Y-36987480D02*
X92618560Y-34884360D01*
D28*
X48508920Y-73853040D02*
X53106320Y-69255640D01*
X48508920Y-76621640D02*
X48508920Y-73853040D01*
D30*
X64333120Y-47279560D02*
X63042800Y-45989240D01*
X66868040Y-47279560D02*
X64333120Y-47279560D01*
X63042800Y-45989240D02*
X63042800Y-42265600D01*
X63042800Y-42265600D02*
X65628520Y-39679880D01*
X65628520Y-39679880D02*
X73508880Y-39679880D01*
X73508880Y-39679880D02*
X79603600Y-33585160D01*
X91319360Y-33585160D02*
X92618560Y-34884360D01*
X79603600Y-33585160D02*
X91319360Y-33585160D01*
X90297000Y-71912480D02*
X90297000Y-79197200D01*
X90297000Y-79197200D02*
X99847400Y-88747600D01*
X99847400Y-88747600D02*
X102768400Y-88747600D01*
D29*
X53143160Y-69292480D02*
X53106320Y-69255640D01*
X51140361Y-87398719D02*
X48508920Y-90030160D01*
X56706921Y-87398719D02*
X51140361Y-87398719D01*
X57906920Y-86198720D02*
X56706921Y-87398719D01*
D30*
X89552881Y-57665519D02*
X88658801Y-57665519D01*
X90352880Y-56865520D02*
X89552881Y-57665519D01*
X88658801Y-57665519D02*
X86674960Y-59649360D01*
X73389480Y-47279560D02*
X75839320Y-49729400D01*
X66868040Y-47279560D02*
X73389480Y-47279560D01*
X81259680Y-59649360D02*
X75839320Y-54229000D01*
X86674960Y-59649360D02*
X81259680Y-59649360D01*
X75839320Y-49729400D02*
X75839320Y-54229000D01*
X75839320Y-54229000D02*
X75839320Y-65469760D01*
X74583280Y-69447400D02*
X74583280Y-66725800D01*
X75285600Y-70149720D02*
X74583280Y-69447400D01*
X87402870Y-70149720D02*
X75285600Y-70149720D01*
X90297000Y-71912480D02*
X89165630Y-71912480D01*
X89165630Y-71912480D02*
X87402870Y-70149720D01*
D29*
X57946280Y-69484240D02*
X60704720Y-66725800D01*
X53035200Y-69484240D02*
X57946280Y-69484240D01*
X60704720Y-66725800D02*
X60704720Y-61337200D01*
X60704720Y-61337200D02*
X68437760Y-53604160D01*
X68437760Y-53604160D02*
X71964560Y-53604160D01*
X71964560Y-53604160D02*
X75839320Y-49729400D01*
X75839320Y-65469760D02*
X74583280Y-66725800D01*
X75839320Y-49729400D02*
X75839320Y-65469760D01*
D30*
X65704720Y-61930280D02*
X70926960Y-56708040D01*
X65704720Y-66725800D02*
X65704720Y-61930280D01*
D28*
X70337680Y-34117280D02*
X70337680Y-27584400D01*
D32*
X87404320Y-24558130D02*
X87487760Y-24558130D01*
X83377290Y-28585160D02*
X87404320Y-24558130D01*
X79603600Y-28585160D02*
X83377290Y-28585160D01*
X87404320Y-24558130D02*
X105693730Y-24558130D01*
D30*
X87487760Y-24558130D02*
X105693730Y-24558130D01*
D32*
X114411760Y-24558130D02*
X114411760Y-26045160D01*
D30*
X114411760Y-26045160D02*
X114411760Y-28056840D01*
X105693730Y-24823810D02*
X105693730Y-24558130D01*
D32*
X107050840Y-24558130D02*
X114411760Y-24558130D01*
X105693730Y-24558130D02*
X107050840Y-24558130D01*
X83460730Y-28585160D02*
X87487760Y-24558130D01*
X79603600Y-28585160D02*
X83460730Y-28585160D01*
X71338440Y-28585160D02*
X70337680Y-27584400D01*
X79603600Y-28585160D02*
X71338440Y-28585160D01*
D28*
X138831320Y-50317400D02*
X131612640Y-50317400D01*
X125105160Y-60685680D02*
X116022120Y-69768720D01*
X116022120Y-69768720D02*
X116022120Y-78389480D01*
X116946680Y-79314040D02*
X125105160Y-79314040D01*
X116022120Y-78389480D02*
X116946680Y-79314040D01*
X131612640Y-54178200D02*
X125105160Y-60685680D01*
X131612640Y-50317400D02*
X131612640Y-54178200D01*
X116022120Y-95831720D02*
X116022120Y-78389480D01*
X112179160Y-99674680D02*
X116022120Y-95831720D01*
X107579160Y-99674680D02*
X112179160Y-99674680D01*
X107579160Y-99674680D02*
X107579160Y-106131360D01*
D30*
X66812160Y-93888560D02*
X66812160Y-98734880D01*
D29*
X66857880Y-49809400D02*
X66868040Y-49819560D01*
X58252360Y-49809400D02*
X66857880Y-49809400D01*
D28*
X52882800Y-36332160D02*
X55097680Y-34117280D01*
X48549560Y-36332160D02*
X52882800Y-36332160D01*
X55097680Y-34117280D02*
X55097680Y-27584400D01*
X53075840Y-36139120D02*
X55097680Y-34117280D01*
X53075840Y-39639240D02*
X53075840Y-36139120D01*
X53086000Y-39649400D02*
X53075840Y-39639240D01*
X58252360Y-39649400D02*
X53086000Y-39649400D01*
X48539400Y-36342320D02*
X48549560Y-36332160D01*
X48539400Y-40101520D02*
X48539400Y-36342320D01*
D30*
X102768400Y-83058000D02*
X102768400Y-86207600D01*
X84495640Y-105196640D02*
X84495640Y-102446960D01*
X102768400Y-76992480D02*
X102768400Y-77718920D01*
X102768400Y-80518000D02*
X102768400Y-77718920D01*
X60606920Y-81198720D02*
X67840840Y-88432640D01*
X57906920Y-81198720D02*
X60606920Y-81198720D01*
X67840840Y-88432640D02*
X83007200Y-88432640D01*
X83007200Y-88432640D02*
X87223600Y-92649040D01*
X84495640Y-102446960D02*
X87223600Y-99719000D01*
X102768400Y-80518000D02*
X105191560Y-80518000D01*
X105191560Y-80518000D02*
X106522520Y-81848960D01*
X106522520Y-81848960D02*
X106522520Y-91526360D01*
X102936040Y-95112840D02*
X87223600Y-95112840D01*
X106522520Y-91526360D02*
X102936040Y-95112840D01*
X87223600Y-92649040D02*
X87223600Y-95112840D01*
X87223600Y-95112840D02*
X87223600Y-99719000D01*
D31*
X99104250Y-56865520D02*
X99114410Y-56855360D01*
X97972880Y-56865520D02*
X99104250Y-56865520D01*
X99114410Y-56855360D02*
X103906320Y-56855360D01*
X103906320Y-56855360D02*
X105902760Y-58851800D01*
X105902760Y-73858120D02*
X102768400Y-76992480D01*
X105902760Y-58851800D02*
X105902760Y-73858120D01*
D30*
X117043200Y-41564560D02*
X121859040Y-41564560D01*
X121859040Y-41564560D02*
X124475240Y-41564560D01*
X124475240Y-41564560D02*
X125608080Y-40431720D01*
X125608080Y-40431720D02*
X125608080Y-36449000D01*
X125608080Y-36449000D02*
X124587000Y-35427920D01*
X124541280Y-35473640D02*
X121859040Y-35473640D01*
X124587000Y-35427920D02*
X124541280Y-35473640D01*
X71531480Y-76895960D02*
X71531480Y-81188560D01*
X78673960Y-81254600D02*
X83748880Y-81254600D01*
X90312240Y-91881960D02*
X90297000Y-91897200D01*
X95138240Y-91881960D02*
X90312240Y-91881960D01*
X91428370Y-69372480D02*
X93968370Y-66832480D01*
X90297000Y-69372480D02*
X91428370Y-69372480D01*
X93968370Y-66832480D02*
X97917000Y-66832480D01*
X93968370Y-78012090D02*
X95138240Y-79181960D01*
X93968370Y-66832480D02*
X93968370Y-78012090D01*
D31*
X53075840Y-56743600D02*
X53035200Y-56784240D01*
X53075840Y-52339240D02*
X53075840Y-56743600D01*
X58150760Y-56784240D02*
X58226960Y-56708040D01*
X53035200Y-56784240D02*
X58150760Y-56784240D01*
X97972880Y-51785520D02*
X101610160Y-51785520D01*
X101610160Y-48727360D02*
X102829360Y-47508160D01*
X101610160Y-51785520D02*
X101610160Y-48727360D01*
D30*
X82283280Y-66725800D02*
X86779080Y-62230000D01*
X79583280Y-66725800D02*
X82283280Y-66725800D01*
X86779080Y-62230000D02*
X87995760Y-62230000D01*
X87995760Y-62230000D02*
X90043000Y-60182760D01*
X90043000Y-60182760D02*
X92537280Y-60182760D01*
X92537280Y-60182760D02*
X94386400Y-58333640D01*
X94386400Y-58333640D02*
X94386400Y-52324000D01*
X94924880Y-51785520D02*
X97972880Y-51785520D01*
X94386400Y-52324000D02*
X94924880Y-51785520D01*
D28*
X60293640Y-97314880D02*
X60293640Y-103814880D01*
D31*
X84891880Y-52706520D02*
X84891880Y-56758840D01*
X90352880Y-49245520D02*
X88352880Y-49245520D01*
X88352880Y-49245520D02*
X84891880Y-52706520D01*
D30*
X107950000Y-41569640D02*
X108219240Y-41300400D01*
X103799640Y-41569640D02*
X107950000Y-41569640D01*
X111658400Y-28270200D02*
X111871760Y-28056840D01*
X111658400Y-31760160D02*
X111658400Y-28270200D01*
D31*
X103835200Y-31760160D02*
X103799640Y-31795720D01*
X111658400Y-31760160D02*
X103835200Y-31760160D01*
X121859040Y-39024560D02*
X117043200Y-39024560D01*
X104931010Y-34335720D02*
X103799640Y-34335720D01*
X114314360Y-34335720D02*
X104931010Y-34335720D01*
X117043200Y-37064560D02*
X114314360Y-34335720D01*
X117043200Y-39024560D02*
X117043200Y-37064560D01*
X97988120Y-54310280D02*
X97972880Y-54325520D01*
X108071920Y-54310280D02*
X97988120Y-54310280D01*
D33*
G36*
X82596498Y-26700160D02*
X72585120Y-26700160D01*
X72585120Y-25984400D01*
X72535837Y-25736635D01*
X72395489Y-25526591D01*
X72185445Y-25386243D01*
X71937680Y-25336960D01*
X68737680Y-25336960D01*
X68489915Y-25386243D01*
X68279871Y-25526591D01*
X68139523Y-25736635D01*
X68090240Y-25984400D01*
X68090240Y-29184400D01*
X68139523Y-29432165D01*
X68202681Y-29526686D01*
X68202680Y-32174994D01*
X68139523Y-32269515D01*
X68090240Y-32517280D01*
X68090240Y-35717280D01*
X68139523Y-35965045D01*
X68279871Y-36175089D01*
X68489915Y-36315437D01*
X68737680Y-36364720D01*
X71937680Y-36364720D01*
X72185445Y-36315437D01*
X72395489Y-36175089D01*
X72535837Y-35965045D01*
X72585120Y-35717280D01*
X72585120Y-32517280D01*
X72535837Y-32269515D01*
X72472680Y-32174995D01*
X72472680Y-30470160D01*
X83191640Y-30470160D01*
X83377290Y-30507088D01*
X83419010Y-30498789D01*
X83460730Y-30507088D01*
X83646380Y-30470160D01*
X83646385Y-30470160D01*
X84196220Y-30360791D01*
X84819739Y-29944169D01*
X84924905Y-29786777D01*
X88268552Y-26443130D01*
X111045919Y-26443130D01*
X110872820Y-26558791D01*
X110566582Y-27017109D01*
X110486190Y-27421268D01*
X110486190Y-27531604D01*
X110353759Y-27729801D01*
X110246267Y-28270200D01*
X110273401Y-28406612D01*
X110273400Y-30086883D01*
X110100591Y-30202351D01*
X109960243Y-30412395D01*
X109937813Y-30525160D01*
X104482072Y-30525160D01*
X104085079Y-30360720D01*
X103514201Y-30360720D01*
X102986778Y-30579186D01*
X102583106Y-30982858D01*
X102364640Y-31510281D01*
X102364640Y-32081159D01*
X102583106Y-32608582D01*
X102986778Y-33012254D01*
X103116808Y-33066114D01*
X102765063Y-33301143D01*
X102447900Y-33775811D01*
X102336527Y-34335720D01*
X102447900Y-34895629D01*
X102689387Y-35257040D01*
X99681717Y-35257040D01*
X99566249Y-35084231D01*
X99356205Y-34943883D01*
X99108440Y-34894600D01*
X96908440Y-34894600D01*
X96660675Y-34943883D01*
X96450631Y-35084231D01*
X96310283Y-35294275D01*
X96261000Y-35542040D01*
X96261000Y-37742040D01*
X96310283Y-37989805D01*
X96450631Y-38199849D01*
X96660675Y-38340197D01*
X96908440Y-38389480D01*
X99108440Y-38389480D01*
X99356205Y-38340197D01*
X99566249Y-38199849D01*
X99681717Y-38027040D01*
X102829412Y-38027040D01*
X102617016Y-38239436D01*
X102404640Y-38752157D01*
X102404640Y-39307123D01*
X102617016Y-39819844D01*
X103009436Y-40212264D01*
X103212365Y-40296320D01*
X103186219Y-40313790D01*
X103009436Y-40387016D01*
X102874132Y-40522320D01*
X102801111Y-40571111D01*
X102752320Y-40644132D01*
X102617016Y-40779436D01*
X102543790Y-40956219D01*
X102494999Y-41029240D01*
X102477866Y-41115374D01*
X102404640Y-41292157D01*
X102404640Y-41483506D01*
X102387507Y-41569640D01*
X102404640Y-41655774D01*
X102404640Y-41847123D01*
X102477866Y-42023906D01*
X102494999Y-42110040D01*
X102543790Y-42183061D01*
X102617016Y-42359844D01*
X102752320Y-42495148D01*
X102801111Y-42568169D01*
X102874132Y-42616960D01*
X102972689Y-42715517D01*
X102926825Y-42724640D01*
X100265525Y-42724640D01*
X99508200Y-41967315D01*
X99508200Y-41965778D01*
X99259286Y-41364847D01*
X98799353Y-40904914D01*
X98198422Y-40656000D01*
X98196885Y-40656000D01*
X98047427Y-40506541D01*
X97948998Y-40359232D01*
X97948997Y-40359231D01*
X97871730Y-40243593D01*
X97756092Y-40166326D01*
X94003560Y-36413795D01*
X94003560Y-35020765D01*
X94030693Y-34884359D01*
X93979024Y-34624604D01*
X93923201Y-34343960D01*
X93617089Y-33885831D01*
X93501448Y-33808562D01*
X92395159Y-32702274D01*
X92317889Y-32586631D01*
X91859760Y-32280519D01*
X91455767Y-32200160D01*
X91319360Y-32173027D01*
X91182953Y-32200160D01*
X80813682Y-32200160D01*
X80643044Y-32029522D01*
X79968604Y-31750160D01*
X79238596Y-31750160D01*
X78564156Y-32029522D01*
X78047962Y-32545716D01*
X77768600Y-33220156D01*
X77768600Y-33461474D01*
X72935195Y-38294880D01*
X65764925Y-38294880D01*
X65628519Y-38267747D01*
X65492113Y-38294880D01*
X65088120Y-38375239D01*
X64629991Y-38681351D01*
X64552720Y-38796995D01*
X62159913Y-41189802D01*
X62044272Y-41267071D01*
X61967003Y-41382712D01*
X61738159Y-41725201D01*
X61630667Y-42265600D01*
X61657801Y-42402012D01*
X61657800Y-45852833D01*
X61630667Y-45989240D01*
X61657800Y-46125646D01*
X61738159Y-46529639D01*
X62044271Y-46987768D01*
X62159912Y-47065037D01*
X63257322Y-48162448D01*
X63265308Y-48174400D01*
X59694645Y-48174400D01*
X59600125Y-48111243D01*
X59352360Y-48061960D01*
X57152360Y-48061960D01*
X56904595Y-48111243D01*
X56694551Y-48251591D01*
X56554203Y-48461635D01*
X56504920Y-48709400D01*
X56504920Y-50909400D01*
X56554203Y-51157165D01*
X56694551Y-51367209D01*
X56904595Y-51507557D01*
X57152360Y-51556840D01*
X59352360Y-51556840D01*
X59600125Y-51507557D01*
X59694645Y-51444400D01*
X66655936Y-51444400D01*
X66868039Y-51486590D01*
X67469260Y-51367000D01*
X67768040Y-51367000D01*
X68015805Y-51317717D01*
X68225849Y-51177369D01*
X68366197Y-50967325D01*
X68415480Y-50719560D01*
X68415480Y-50420780D01*
X68535070Y-49819559D01*
X68415480Y-49218340D01*
X68415480Y-48919560D01*
X68366197Y-48671795D01*
X68361363Y-48664560D01*
X72815795Y-48664560D01*
X73703858Y-49552623D01*
X71287322Y-51969160D01*
X68598789Y-51969160D01*
X68437759Y-51937129D01*
X68276729Y-51969160D01*
X67799815Y-52064024D01*
X67258991Y-52425391D01*
X67167774Y-52561907D01*
X59662468Y-60067214D01*
X59525952Y-60158431D01*
X59213774Y-60625639D01*
X59164585Y-60699255D01*
X59037689Y-61337200D01*
X59069721Y-61498234D01*
X59069720Y-65877953D01*
X58949082Y-66169199D01*
X57269042Y-67849240D01*
X54734334Y-67849240D01*
X54645568Y-67716392D01*
X53939355Y-67244515D01*
X53106319Y-67078814D01*
X52273284Y-67244515D01*
X51745336Y-67597278D01*
X47147937Y-72194678D01*
X46969672Y-72313791D01*
X46850559Y-72492056D01*
X46850558Y-72492057D01*
X46497794Y-73020005D01*
X46449217Y-73264220D01*
X46373920Y-73642761D01*
X46373920Y-73642765D01*
X46332094Y-73853040D01*
X46373920Y-74063315D01*
X46373920Y-74984932D01*
X46247946Y-75110906D01*
X45841920Y-76091141D01*
X45841920Y-77152139D01*
X46247946Y-78132374D01*
X46373920Y-78258348D01*
X46373921Y-89819880D01*
X46332094Y-90030160D01*
X46497794Y-90863195D01*
X46850558Y-91391143D01*
X46969672Y-91569409D01*
X47147937Y-91688522D01*
X53658640Y-98199226D01*
X53658641Y-103604597D01*
X53658640Y-103604602D01*
X53658640Y-105018818D01*
X53616814Y-105229093D01*
X53658640Y-105439368D01*
X53658640Y-105439372D01*
X53712798Y-105711639D01*
X53782514Y-106062128D01*
X54117849Y-106563991D01*
X54254392Y-106768342D01*
X54432657Y-106887455D01*
X57709625Y-110164424D01*
X57828738Y-110342689D01*
X58534951Y-110814566D01*
X59157708Y-110938440D01*
X59157711Y-110938440D01*
X59367986Y-110980266D01*
X59578261Y-110938440D01*
X73983125Y-110938440D01*
X74193400Y-110980266D01*
X74403675Y-110938440D01*
X74403679Y-110938440D01*
X75026436Y-110814566D01*
X75732649Y-110342689D01*
X75851764Y-110164421D01*
X78991991Y-107024195D01*
X79415640Y-107108464D01*
X79956261Y-107000928D01*
X79970554Y-106991377D01*
X79890077Y-107395965D01*
X79890076Y-111567394D01*
X79848250Y-111777669D01*
X79890076Y-111987943D01*
X79890076Y-111987947D01*
X80013950Y-112610704D01*
X80181339Y-112861219D01*
X79338312Y-112863437D01*
X45338200Y-112833354D01*
X45338200Y-111070825D01*
X45345041Y-110850201D01*
X45338200Y-110809206D01*
X45338200Y-108350066D01*
X46470094Y-108350066D01*
X46477120Y-108776110D01*
X46477120Y-109202289D01*
X46484440Y-109219960D01*
X46484755Y-109239083D01*
X46796760Y-109992330D01*
X46806467Y-109997402D01*
X46817379Y-110023746D01*
X47446094Y-110652461D01*
X47472438Y-110663373D01*
X47477510Y-110673080D01*
X47873828Y-110829634D01*
X48267551Y-110992720D01*
X48286680Y-110992720D01*
X48304466Y-110999746D01*
X48730510Y-110992720D01*
X49156689Y-110992720D01*
X49174360Y-110985400D01*
X49193483Y-110985085D01*
X49946730Y-110673080D01*
X49951802Y-110663373D01*
X49978146Y-110652461D01*
X50606861Y-110023746D01*
X50617773Y-109997402D01*
X50627480Y-109992330D01*
X50784034Y-109596012D01*
X50947120Y-109202289D01*
X50947120Y-109183160D01*
X50954146Y-109165374D01*
X50947120Y-108739330D01*
X50947120Y-108313151D01*
X50939800Y-108295480D01*
X50939485Y-108276357D01*
X50627480Y-107523110D01*
X50617773Y-107518038D01*
X50606861Y-107491694D01*
X49978146Y-106862979D01*
X49951802Y-106852067D01*
X49946730Y-106842360D01*
X49550412Y-106685806D01*
X49156689Y-106522720D01*
X49137560Y-106522720D01*
X49119774Y-106515694D01*
X48693730Y-106522720D01*
X48267551Y-106522720D01*
X48249880Y-106530040D01*
X48230757Y-106530355D01*
X47477510Y-106842360D01*
X47472438Y-106852067D01*
X47446094Y-106862979D01*
X46817379Y-107491694D01*
X46806467Y-107518038D01*
X46796760Y-107523110D01*
X46640206Y-107919428D01*
X46477120Y-108313151D01*
X46477120Y-108332280D01*
X46470094Y-108350066D01*
X45338200Y-108350066D01*
X45338200Y-56498801D01*
X51600200Y-56498801D01*
X51600200Y-57069679D01*
X51818666Y-57597102D01*
X52222338Y-58000774D01*
X52749761Y-58219240D01*
X53320639Y-58219240D01*
X53803481Y-58019240D01*
X57642642Y-58019240D01*
X57941521Y-58143040D01*
X58512399Y-58143040D01*
X59039822Y-57924574D01*
X59443494Y-57520902D01*
X59661960Y-56993479D01*
X59661960Y-56422601D01*
X59443494Y-55895178D01*
X59039822Y-55491506D01*
X58512399Y-55273040D01*
X57941521Y-55273040D01*
X57414098Y-55491506D01*
X57356364Y-55549240D01*
X54310840Y-55549240D01*
X54310840Y-53073863D01*
X54427580Y-52899149D01*
X54538953Y-52339240D01*
X54427580Y-51779331D01*
X54110417Y-51304663D01*
X53635749Y-50987500D01*
X53217173Y-50904240D01*
X52934507Y-50904240D01*
X52515931Y-50987500D01*
X52041263Y-51304663D01*
X51724100Y-51779331D01*
X51612727Y-52339240D01*
X51724100Y-52899149D01*
X51840840Y-53073863D01*
X51840841Y-55949203D01*
X51818666Y-55971378D01*
X51600200Y-56498801D01*
X45338200Y-56498801D01*
X45338200Y-39571021D01*
X45872400Y-39571021D01*
X45872400Y-40632019D01*
X46278426Y-41612254D01*
X47028666Y-42362494D01*
X48008901Y-42768520D01*
X49069899Y-42768520D01*
X50050134Y-42362494D01*
X50800374Y-41612254D01*
X51193026Y-40664307D01*
X51536591Y-41178489D01*
X51542681Y-41182559D01*
X51546751Y-41188649D01*
X52252964Y-41660526D01*
X52875721Y-41784400D01*
X52875726Y-41784400D01*
X53085999Y-41826226D01*
X53296273Y-41784400D01*
X58462639Y-41784400D01*
X59085396Y-41660526D01*
X59791609Y-41188649D01*
X60263486Y-40482436D01*
X60429187Y-39649400D01*
X60263486Y-38816364D01*
X59791609Y-38110151D01*
X59085396Y-37638274D01*
X58462639Y-37514400D01*
X55210840Y-37514400D01*
X55210840Y-37023465D01*
X56096211Y-36138095D01*
X56709025Y-35728625D01*
X57203004Y-34989334D01*
X57376466Y-34117280D01*
X57232680Y-33394418D01*
X57232680Y-28307262D01*
X57376466Y-27584400D01*
X57203004Y-26712346D01*
X56709025Y-25973055D01*
X55969734Y-25479076D01*
X55317808Y-25349400D01*
X54877552Y-25349400D01*
X54225626Y-25479076D01*
X53486335Y-25973055D01*
X52992356Y-26712346D01*
X52818894Y-27584400D01*
X52962681Y-28307267D01*
X52962680Y-33232934D01*
X51998455Y-34197160D01*
X48759833Y-34197160D01*
X48549559Y-34155334D01*
X48339286Y-34197160D01*
X48339281Y-34197160D01*
X47716524Y-34321034D01*
X47010311Y-34792911D01*
X47006241Y-34799003D01*
X47000152Y-34803071D01*
X46881039Y-34981336D01*
X46881038Y-34981337D01*
X46528274Y-35509285D01*
X46362574Y-36342320D01*
X46404401Y-36552599D01*
X46404400Y-38464812D01*
X46278426Y-38590786D01*
X45872400Y-39571021D01*
X45338200Y-39571021D01*
X45338200Y-27318986D01*
X46470094Y-27318986D01*
X46477120Y-27745030D01*
X46477120Y-28171209D01*
X46484440Y-28188880D01*
X46484755Y-28208003D01*
X46796760Y-28961250D01*
X46806467Y-28966322D01*
X46817379Y-28992666D01*
X47446094Y-29621381D01*
X47472438Y-29632293D01*
X47477510Y-29642000D01*
X47873828Y-29798554D01*
X48267551Y-29961640D01*
X48286680Y-29961640D01*
X48304466Y-29968666D01*
X48730510Y-29961640D01*
X49156689Y-29961640D01*
X49174360Y-29954320D01*
X49193483Y-29954005D01*
X49946730Y-29642000D01*
X49951802Y-29632293D01*
X49978146Y-29621381D01*
X50606861Y-28992666D01*
X50617773Y-28966322D01*
X50627480Y-28961250D01*
X50784034Y-28564932D01*
X50947120Y-28171209D01*
X50947120Y-28152080D01*
X50954146Y-28134294D01*
X50947120Y-27708250D01*
X50947120Y-27282071D01*
X50939800Y-27264400D01*
X50939485Y-27245277D01*
X50627480Y-26492030D01*
X50617773Y-26486958D01*
X50606861Y-26460614D01*
X49978146Y-25831899D01*
X49951802Y-25820987D01*
X49946730Y-25811280D01*
X49550412Y-25654726D01*
X49156689Y-25491640D01*
X49137560Y-25491640D01*
X49119774Y-25484614D01*
X48693730Y-25491640D01*
X48267551Y-25491640D01*
X48249880Y-25498960D01*
X48230757Y-25499275D01*
X47477510Y-25811280D01*
X47472438Y-25820987D01*
X47446094Y-25831899D01*
X46817379Y-26460614D01*
X46806467Y-26486958D01*
X46796760Y-26492030D01*
X46640206Y-26888348D01*
X46477120Y-27282071D01*
X46477120Y-27301200D01*
X46470094Y-27318986D01*
X45338200Y-27318986D01*
X45338200Y-23743120D01*
X85553538Y-23743120D01*
X82596498Y-26700160D01*
X82596498Y-26700160D01*
G37*
X82596498Y-26700160D02*
X72585120Y-26700160D01*
X72585120Y-25984400D01*
X72535837Y-25736635D01*
X72395489Y-25526591D01*
X72185445Y-25386243D01*
X71937680Y-25336960D01*
X68737680Y-25336960D01*
X68489915Y-25386243D01*
X68279871Y-25526591D01*
X68139523Y-25736635D01*
X68090240Y-25984400D01*
X68090240Y-29184400D01*
X68139523Y-29432165D01*
X68202681Y-29526686D01*
X68202680Y-32174994D01*
X68139523Y-32269515D01*
X68090240Y-32517280D01*
X68090240Y-35717280D01*
X68139523Y-35965045D01*
X68279871Y-36175089D01*
X68489915Y-36315437D01*
X68737680Y-36364720D01*
X71937680Y-36364720D01*
X72185445Y-36315437D01*
X72395489Y-36175089D01*
X72535837Y-35965045D01*
X72585120Y-35717280D01*
X72585120Y-32517280D01*
X72535837Y-32269515D01*
X72472680Y-32174995D01*
X72472680Y-30470160D01*
X83191640Y-30470160D01*
X83377290Y-30507088D01*
X83419010Y-30498789D01*
X83460730Y-30507088D01*
X83646380Y-30470160D01*
X83646385Y-30470160D01*
X84196220Y-30360791D01*
X84819739Y-29944169D01*
X84924905Y-29786777D01*
X88268552Y-26443130D01*
X111045919Y-26443130D01*
X110872820Y-26558791D01*
X110566582Y-27017109D01*
X110486190Y-27421268D01*
X110486190Y-27531604D01*
X110353759Y-27729801D01*
X110246267Y-28270200D01*
X110273401Y-28406612D01*
X110273400Y-30086883D01*
X110100591Y-30202351D01*
X109960243Y-30412395D01*
X109937813Y-30525160D01*
X104482072Y-30525160D01*
X104085079Y-30360720D01*
X103514201Y-30360720D01*
X102986778Y-30579186D01*
X102583106Y-30982858D01*
X102364640Y-31510281D01*
X102364640Y-32081159D01*
X102583106Y-32608582D01*
X102986778Y-33012254D01*
X103116808Y-33066114D01*
X102765063Y-33301143D01*
X102447900Y-33775811D01*
X102336527Y-34335720D01*
X102447900Y-34895629D01*
X102689387Y-35257040D01*
X99681717Y-35257040D01*
X99566249Y-35084231D01*
X99356205Y-34943883D01*
X99108440Y-34894600D01*
X96908440Y-34894600D01*
X96660675Y-34943883D01*
X96450631Y-35084231D01*
X96310283Y-35294275D01*
X96261000Y-35542040D01*
X96261000Y-37742040D01*
X96310283Y-37989805D01*
X96450631Y-38199849D01*
X96660675Y-38340197D01*
X96908440Y-38389480D01*
X99108440Y-38389480D01*
X99356205Y-38340197D01*
X99566249Y-38199849D01*
X99681717Y-38027040D01*
X102829412Y-38027040D01*
X102617016Y-38239436D01*
X102404640Y-38752157D01*
X102404640Y-39307123D01*
X102617016Y-39819844D01*
X103009436Y-40212264D01*
X103212365Y-40296320D01*
X103186219Y-40313790D01*
X103009436Y-40387016D01*
X102874132Y-40522320D01*
X102801111Y-40571111D01*
X102752320Y-40644132D01*
X102617016Y-40779436D01*
X102543790Y-40956219D01*
X102494999Y-41029240D01*
X102477866Y-41115374D01*
X102404640Y-41292157D01*
X102404640Y-41483506D01*
X102387507Y-41569640D01*
X102404640Y-41655774D01*
X102404640Y-41847123D01*
X102477866Y-42023906D01*
X102494999Y-42110040D01*
X102543790Y-42183061D01*
X102617016Y-42359844D01*
X102752320Y-42495148D01*
X102801111Y-42568169D01*
X102874132Y-42616960D01*
X102972689Y-42715517D01*
X102926825Y-42724640D01*
X100265525Y-42724640D01*
X99508200Y-41967315D01*
X99508200Y-41965778D01*
X99259286Y-41364847D01*
X98799353Y-40904914D01*
X98198422Y-40656000D01*
X98196885Y-40656000D01*
X98047427Y-40506541D01*
X97948998Y-40359232D01*
X97948997Y-40359231D01*
X97871730Y-40243593D01*
X97756092Y-40166326D01*
X94003560Y-36413795D01*
X94003560Y-35020765D01*
X94030693Y-34884359D01*
X93979024Y-34624604D01*
X93923201Y-34343960D01*
X93617089Y-33885831D01*
X93501448Y-33808562D01*
X92395159Y-32702274D01*
X92317889Y-32586631D01*
X91859760Y-32280519D01*
X91455767Y-32200160D01*
X91319360Y-32173027D01*
X91182953Y-32200160D01*
X80813682Y-32200160D01*
X80643044Y-32029522D01*
X79968604Y-31750160D01*
X79238596Y-31750160D01*
X78564156Y-32029522D01*
X78047962Y-32545716D01*
X77768600Y-33220156D01*
X77768600Y-33461474D01*
X72935195Y-38294880D01*
X65764925Y-38294880D01*
X65628519Y-38267747D01*
X65492113Y-38294880D01*
X65088120Y-38375239D01*
X64629991Y-38681351D01*
X64552720Y-38796995D01*
X62159913Y-41189802D01*
X62044272Y-41267071D01*
X61967003Y-41382712D01*
X61738159Y-41725201D01*
X61630667Y-42265600D01*
X61657801Y-42402012D01*
X61657800Y-45852833D01*
X61630667Y-45989240D01*
X61657800Y-46125646D01*
X61738159Y-46529639D01*
X62044271Y-46987768D01*
X62159912Y-47065037D01*
X63257322Y-48162448D01*
X63265308Y-48174400D01*
X59694645Y-48174400D01*
X59600125Y-48111243D01*
X59352360Y-48061960D01*
X57152360Y-48061960D01*
X56904595Y-48111243D01*
X56694551Y-48251591D01*
X56554203Y-48461635D01*
X56504920Y-48709400D01*
X56504920Y-50909400D01*
X56554203Y-51157165D01*
X56694551Y-51367209D01*
X56904595Y-51507557D01*
X57152360Y-51556840D01*
X59352360Y-51556840D01*
X59600125Y-51507557D01*
X59694645Y-51444400D01*
X66655936Y-51444400D01*
X66868039Y-51486590D01*
X67469260Y-51367000D01*
X67768040Y-51367000D01*
X68015805Y-51317717D01*
X68225849Y-51177369D01*
X68366197Y-50967325D01*
X68415480Y-50719560D01*
X68415480Y-50420780D01*
X68535070Y-49819559D01*
X68415480Y-49218340D01*
X68415480Y-48919560D01*
X68366197Y-48671795D01*
X68361363Y-48664560D01*
X72815795Y-48664560D01*
X73703858Y-49552623D01*
X71287322Y-51969160D01*
X68598789Y-51969160D01*
X68437759Y-51937129D01*
X68276729Y-51969160D01*
X67799815Y-52064024D01*
X67258991Y-52425391D01*
X67167774Y-52561907D01*
X59662468Y-60067214D01*
X59525952Y-60158431D01*
X59213774Y-60625639D01*
X59164585Y-60699255D01*
X59037689Y-61337200D01*
X59069721Y-61498234D01*
X59069720Y-65877953D01*
X58949082Y-66169199D01*
X57269042Y-67849240D01*
X54734334Y-67849240D01*
X54645568Y-67716392D01*
X53939355Y-67244515D01*
X53106319Y-67078814D01*
X52273284Y-67244515D01*
X51745336Y-67597278D01*
X47147937Y-72194678D01*
X46969672Y-72313791D01*
X46850559Y-72492056D01*
X46850558Y-72492057D01*
X46497794Y-73020005D01*
X46449217Y-73264220D01*
X46373920Y-73642761D01*
X46373920Y-73642765D01*
X46332094Y-73853040D01*
X46373920Y-74063315D01*
X46373920Y-74984932D01*
X46247946Y-75110906D01*
X45841920Y-76091141D01*
X45841920Y-77152139D01*
X46247946Y-78132374D01*
X46373920Y-78258348D01*
X46373921Y-89819880D01*
X46332094Y-90030160D01*
X46497794Y-90863195D01*
X46850558Y-91391143D01*
X46969672Y-91569409D01*
X47147937Y-91688522D01*
X53658640Y-98199226D01*
X53658641Y-103604597D01*
X53658640Y-103604602D01*
X53658640Y-105018818D01*
X53616814Y-105229093D01*
X53658640Y-105439368D01*
X53658640Y-105439372D01*
X53712798Y-105711639D01*
X53782514Y-106062128D01*
X54117849Y-106563991D01*
X54254392Y-106768342D01*
X54432657Y-106887455D01*
X57709625Y-110164424D01*
X57828738Y-110342689D01*
X58534951Y-110814566D01*
X59157708Y-110938440D01*
X59157711Y-110938440D01*
X59367986Y-110980266D01*
X59578261Y-110938440D01*
X73983125Y-110938440D01*
X74193400Y-110980266D01*
X74403675Y-110938440D01*
X74403679Y-110938440D01*
X75026436Y-110814566D01*
X75732649Y-110342689D01*
X75851764Y-110164421D01*
X78991991Y-107024195D01*
X79415640Y-107108464D01*
X79956261Y-107000928D01*
X79970554Y-106991377D01*
X79890077Y-107395965D01*
X79890076Y-111567394D01*
X79848250Y-111777669D01*
X79890076Y-111987943D01*
X79890076Y-111987947D01*
X80013950Y-112610704D01*
X80181339Y-112861219D01*
X79338312Y-112863437D01*
X45338200Y-112833354D01*
X45338200Y-111070825D01*
X45345041Y-110850201D01*
X45338200Y-110809206D01*
X45338200Y-108350066D01*
X46470094Y-108350066D01*
X46477120Y-108776110D01*
X46477120Y-109202289D01*
X46484440Y-109219960D01*
X46484755Y-109239083D01*
X46796760Y-109992330D01*
X46806467Y-109997402D01*
X46817379Y-110023746D01*
X47446094Y-110652461D01*
X47472438Y-110663373D01*
X47477510Y-110673080D01*
X47873828Y-110829634D01*
X48267551Y-110992720D01*
X48286680Y-110992720D01*
X48304466Y-110999746D01*
X48730510Y-110992720D01*
X49156689Y-110992720D01*
X49174360Y-110985400D01*
X49193483Y-110985085D01*
X49946730Y-110673080D01*
X49951802Y-110663373D01*
X49978146Y-110652461D01*
X50606861Y-110023746D01*
X50617773Y-109997402D01*
X50627480Y-109992330D01*
X50784034Y-109596012D01*
X50947120Y-109202289D01*
X50947120Y-109183160D01*
X50954146Y-109165374D01*
X50947120Y-108739330D01*
X50947120Y-108313151D01*
X50939800Y-108295480D01*
X50939485Y-108276357D01*
X50627480Y-107523110D01*
X50617773Y-107518038D01*
X50606861Y-107491694D01*
X49978146Y-106862979D01*
X49951802Y-106852067D01*
X49946730Y-106842360D01*
X49550412Y-106685806D01*
X49156689Y-106522720D01*
X49137560Y-106522720D01*
X49119774Y-106515694D01*
X48693730Y-106522720D01*
X48267551Y-106522720D01*
X48249880Y-106530040D01*
X48230757Y-106530355D01*
X47477510Y-106842360D01*
X47472438Y-106852067D01*
X47446094Y-106862979D01*
X46817379Y-107491694D01*
X46806467Y-107518038D01*
X46796760Y-107523110D01*
X46640206Y-107919428D01*
X46477120Y-108313151D01*
X46477120Y-108332280D01*
X46470094Y-108350066D01*
X45338200Y-108350066D01*
X45338200Y-56498801D01*
X51600200Y-56498801D01*
X51600200Y-57069679D01*
X51818666Y-57597102D01*
X52222338Y-58000774D01*
X52749761Y-58219240D01*
X53320639Y-58219240D01*
X53803481Y-58019240D01*
X57642642Y-58019240D01*
X57941521Y-58143040D01*
X58512399Y-58143040D01*
X59039822Y-57924574D01*
X59443494Y-57520902D01*
X59661960Y-56993479D01*
X59661960Y-56422601D01*
X59443494Y-55895178D01*
X59039822Y-55491506D01*
X58512399Y-55273040D01*
X57941521Y-55273040D01*
X57414098Y-55491506D01*
X57356364Y-55549240D01*
X54310840Y-55549240D01*
X54310840Y-53073863D01*
X54427580Y-52899149D01*
X54538953Y-52339240D01*
X54427580Y-51779331D01*
X54110417Y-51304663D01*
X53635749Y-50987500D01*
X53217173Y-50904240D01*
X52934507Y-50904240D01*
X52515931Y-50987500D01*
X52041263Y-51304663D01*
X51724100Y-51779331D01*
X51612727Y-52339240D01*
X51724100Y-52899149D01*
X51840840Y-53073863D01*
X51840841Y-55949203D01*
X51818666Y-55971378D01*
X51600200Y-56498801D01*
X45338200Y-56498801D01*
X45338200Y-39571021D01*
X45872400Y-39571021D01*
X45872400Y-40632019D01*
X46278426Y-41612254D01*
X47028666Y-42362494D01*
X48008901Y-42768520D01*
X49069899Y-42768520D01*
X50050134Y-42362494D01*
X50800374Y-41612254D01*
X51193026Y-40664307D01*
X51536591Y-41178489D01*
X51542681Y-41182559D01*
X51546751Y-41188649D01*
X52252964Y-41660526D01*
X52875721Y-41784400D01*
X52875726Y-41784400D01*
X53085999Y-41826226D01*
X53296273Y-41784400D01*
X58462639Y-41784400D01*
X59085396Y-41660526D01*
X59791609Y-41188649D01*
X60263486Y-40482436D01*
X60429187Y-39649400D01*
X60263486Y-38816364D01*
X59791609Y-38110151D01*
X59085396Y-37638274D01*
X58462639Y-37514400D01*
X55210840Y-37514400D01*
X55210840Y-37023465D01*
X56096211Y-36138095D01*
X56709025Y-35728625D01*
X57203004Y-34989334D01*
X57376466Y-34117280D01*
X57232680Y-33394418D01*
X57232680Y-28307262D01*
X57376466Y-27584400D01*
X57203004Y-26712346D01*
X56709025Y-25973055D01*
X55969734Y-25479076D01*
X55317808Y-25349400D01*
X54877552Y-25349400D01*
X54225626Y-25479076D01*
X53486335Y-25973055D01*
X52992356Y-26712346D01*
X52818894Y-27584400D01*
X52962681Y-28307267D01*
X52962680Y-33232934D01*
X51998455Y-34197160D01*
X48759833Y-34197160D01*
X48549559Y-34155334D01*
X48339286Y-34197160D01*
X48339281Y-34197160D01*
X47716524Y-34321034D01*
X47010311Y-34792911D01*
X47006241Y-34799003D01*
X47000152Y-34803071D01*
X46881039Y-34981336D01*
X46881038Y-34981337D01*
X46528274Y-35509285D01*
X46362574Y-36342320D01*
X46404401Y-36552599D01*
X46404400Y-38464812D01*
X46278426Y-38590786D01*
X45872400Y-39571021D01*
X45338200Y-39571021D01*
X45338200Y-27318986D01*
X46470094Y-27318986D01*
X46477120Y-27745030D01*
X46477120Y-28171209D01*
X46484440Y-28188880D01*
X46484755Y-28208003D01*
X46796760Y-28961250D01*
X46806467Y-28966322D01*
X46817379Y-28992666D01*
X47446094Y-29621381D01*
X47472438Y-29632293D01*
X47477510Y-29642000D01*
X47873828Y-29798554D01*
X48267551Y-29961640D01*
X48286680Y-29961640D01*
X48304466Y-29968666D01*
X48730510Y-29961640D01*
X49156689Y-29961640D01*
X49174360Y-29954320D01*
X49193483Y-29954005D01*
X49946730Y-29642000D01*
X49951802Y-29632293D01*
X49978146Y-29621381D01*
X50606861Y-28992666D01*
X50617773Y-28966322D01*
X50627480Y-28961250D01*
X50784034Y-28564932D01*
X50947120Y-28171209D01*
X50947120Y-28152080D01*
X50954146Y-28134294D01*
X50947120Y-27708250D01*
X50947120Y-27282071D01*
X50939800Y-27264400D01*
X50939485Y-27245277D01*
X50627480Y-26492030D01*
X50617773Y-26486958D01*
X50606861Y-26460614D01*
X49978146Y-25831899D01*
X49951802Y-25820987D01*
X49946730Y-25811280D01*
X49550412Y-25654726D01*
X49156689Y-25491640D01*
X49137560Y-25491640D01*
X49119774Y-25484614D01*
X48693730Y-25491640D01*
X48267551Y-25491640D01*
X48249880Y-25498960D01*
X48230757Y-25499275D01*
X47477510Y-25811280D01*
X47472438Y-25820987D01*
X47446094Y-25831899D01*
X46817379Y-26460614D01*
X46806467Y-26486958D01*
X46796760Y-26492030D01*
X46640206Y-26888348D01*
X46477120Y-27282071D01*
X46477120Y-27301200D01*
X46470094Y-27318986D01*
X45338200Y-27318986D01*
X45338200Y-23743120D01*
X85553538Y-23743120D01*
X82596498Y-26700160D01*
G36*
X50940840Y-38929901D02*
X50800374Y-38590786D01*
X50676748Y-38467160D01*
X50940840Y-38467160D01*
X50940840Y-38929901D01*
X50940840Y-38929901D01*
G37*
X50940840Y-38929901D02*
X50800374Y-38590786D01*
X50676748Y-38467160D01*
X50940840Y-38467160D01*
X50940840Y-38929901D01*
G36*
X141534680Y-48502714D02*
X141407131Y-112700133D01*
X119211334Y-112758531D01*
X123703506Y-108266360D01*
X124825335Y-108266360D01*
X125699520Y-109140546D01*
X125699520Y-109318699D01*
X126105546Y-110298934D01*
X126855786Y-111049174D01*
X127836021Y-111455200D01*
X128897019Y-111455200D01*
X129877254Y-111049174D01*
X130627494Y-110298934D01*
X131033520Y-109318699D01*
X131033520Y-108522786D01*
X135492014Y-108522786D01*
X135499040Y-108948830D01*
X135499040Y-109375009D01*
X135506360Y-109392680D01*
X135506675Y-109411803D01*
X135818680Y-110165050D01*
X135828387Y-110170122D01*
X135839299Y-110196466D01*
X136468014Y-110825181D01*
X136494358Y-110836093D01*
X136499430Y-110845800D01*
X136895748Y-111002354D01*
X137289471Y-111165440D01*
X137308600Y-111165440D01*
X137326386Y-111172466D01*
X137752430Y-111165440D01*
X138178609Y-111165440D01*
X138196280Y-111158120D01*
X138215403Y-111157805D01*
X138968650Y-110845800D01*
X138973722Y-110836093D01*
X139000066Y-110825181D01*
X139628781Y-110196466D01*
X139639693Y-110170122D01*
X139649400Y-110165050D01*
X139805954Y-109768732D01*
X139969040Y-109375009D01*
X139969040Y-109355880D01*
X139976066Y-109338094D01*
X139969040Y-108912050D01*
X139969040Y-108485871D01*
X139961720Y-108468200D01*
X139961405Y-108449077D01*
X139649400Y-107695830D01*
X139639693Y-107690758D01*
X139628781Y-107664414D01*
X139000066Y-107035699D01*
X138973722Y-107024787D01*
X138968650Y-107015080D01*
X138572332Y-106858526D01*
X138178609Y-106695440D01*
X138159480Y-106695440D01*
X138141694Y-106688414D01*
X137715650Y-106695440D01*
X137289471Y-106695440D01*
X137271800Y-106702760D01*
X137252677Y-106703075D01*
X136499430Y-107015080D01*
X136494358Y-107024787D01*
X136468014Y-107035699D01*
X135839299Y-107664414D01*
X135828387Y-107690758D01*
X135818680Y-107695830D01*
X135662126Y-108092148D01*
X135499040Y-108485871D01*
X135499040Y-108505000D01*
X135492014Y-108522786D01*
X131033520Y-108522786D01*
X131033520Y-108257701D01*
X130627494Y-107277466D01*
X130501520Y-107151492D01*
X130501520Y-105432315D01*
X130543346Y-105222040D01*
X130501520Y-105011765D01*
X130501520Y-105011761D01*
X130377646Y-104389004D01*
X129905769Y-103682791D01*
X129727504Y-103563678D01*
X124839976Y-98676151D01*
X124430505Y-98063335D01*
X123691214Y-97569356D01*
X123039288Y-97439680D01*
X122599032Y-97439680D01*
X121947106Y-97569356D01*
X121207815Y-98063335D01*
X120713836Y-98802626D01*
X120540374Y-99674680D01*
X120684160Y-100397543D01*
X120684161Y-105247013D01*
X116288507Y-109642668D01*
X98746440Y-109642668D01*
X98746440Y-103580481D01*
X98622566Y-102957724D01*
X98150689Y-102251511D01*
X97444475Y-101779634D01*
X96611440Y-101613933D01*
X95778404Y-101779634D01*
X95072191Y-102251511D01*
X94600314Y-102957725D01*
X94476440Y-103580482D01*
X94476441Y-109642668D01*
X84160076Y-109642670D01*
X84160076Y-107395965D01*
X84086709Y-107027123D01*
X84495640Y-107108464D01*
X85036261Y-107000928D01*
X85494579Y-106694690D01*
X85800818Y-106236372D01*
X85881210Y-105832213D01*
X85881210Y-104561067D01*
X85880640Y-104558201D01*
X85880640Y-103020645D01*
X88106488Y-100794798D01*
X88222129Y-100717529D01*
X88528241Y-100259400D01*
X88608600Y-99855407D01*
X88635733Y-99719001D01*
X88608600Y-99582595D01*
X88608600Y-97590760D01*
X94764000Y-97590760D01*
X94764000Y-99990760D01*
X94813283Y-100238525D01*
X94953631Y-100448569D01*
X95163675Y-100588917D01*
X95411440Y-100638200D01*
X97811440Y-100638200D01*
X98059205Y-100588917D01*
X98269249Y-100448569D01*
X98409597Y-100238525D01*
X98458880Y-99990760D01*
X98458880Y-98074680D01*
X105331720Y-98074680D01*
X105331720Y-101274680D01*
X105381003Y-101522445D01*
X105444160Y-101616966D01*
X105444161Y-104189074D01*
X105381003Y-104283595D01*
X105331720Y-104531360D01*
X105331720Y-107731360D01*
X105381003Y-107979125D01*
X105521351Y-108189169D01*
X105731395Y-108329517D01*
X105979160Y-108378800D01*
X109179160Y-108378800D01*
X109426925Y-108329517D01*
X109636969Y-108189169D01*
X109777317Y-107979125D01*
X109826600Y-107731360D01*
X109826600Y-104531360D01*
X109777317Y-104283595D01*
X109714160Y-104189075D01*
X109714160Y-101809680D01*
X111968885Y-101809680D01*
X112179160Y-101851506D01*
X112389435Y-101809680D01*
X112389439Y-101809680D01*
X113012196Y-101685806D01*
X113718409Y-101213929D01*
X113837524Y-101035661D01*
X117383104Y-97490082D01*
X117561369Y-97370969D01*
X118033246Y-96664756D01*
X118157120Y-96041999D01*
X118157120Y-96041996D01*
X118198946Y-95831721D01*
X118157120Y-95621446D01*
X118157120Y-81449040D01*
X123896545Y-81449040D01*
X124620808Y-81749040D01*
X125589512Y-81749040D01*
X126484476Y-81378333D01*
X127169453Y-80693356D01*
X127540160Y-79798392D01*
X127540160Y-78829688D01*
X127169453Y-77934724D01*
X126484476Y-77249747D01*
X125589512Y-76879040D01*
X124620808Y-76879040D01*
X123896545Y-77179040D01*
X118157120Y-77179040D01*
X118157120Y-72901328D01*
X122670160Y-72901328D01*
X122670160Y-73870032D01*
X123040867Y-74764996D01*
X123725844Y-75449973D01*
X124620808Y-75820680D01*
X125589512Y-75820680D01*
X126313775Y-75520680D01*
X131520775Y-75520680D01*
X132652641Y-76652547D01*
X132652640Y-83992798D01*
X126766399Y-89879040D01*
X126313775Y-89879040D01*
X125589512Y-89579040D01*
X124620808Y-89579040D01*
X123725844Y-89949747D01*
X123040867Y-90634724D01*
X122670160Y-91529688D01*
X122670160Y-92498392D01*
X123040867Y-93393356D01*
X123725844Y-94078333D01*
X124450109Y-94378334D01*
X129766318Y-99694544D01*
X129885431Y-99872809D01*
X130591644Y-100344686D01*
X131214401Y-100468560D01*
X131214405Y-100468560D01*
X131424680Y-100510386D01*
X131634955Y-100468560D01*
X135518212Y-100468560D01*
X135644186Y-100594534D01*
X136624421Y-101000560D01*
X137685419Y-101000560D01*
X138665654Y-100594534D01*
X139415894Y-99844294D01*
X139821920Y-98864059D01*
X139821920Y-97803061D01*
X139415894Y-96822826D01*
X138665654Y-96072586D01*
X137685419Y-95666560D01*
X136624421Y-95666560D01*
X135644186Y-96072586D01*
X135518212Y-96198560D01*
X132309026Y-96198560D01*
X129397297Y-93286832D01*
X136148624Y-86535506D01*
X136326889Y-86416393D01*
X136798766Y-85710180D01*
X136922640Y-85087423D01*
X136922640Y-85087420D01*
X136964466Y-84877145D01*
X136922640Y-84666870D01*
X136922640Y-75978478D01*
X136964467Y-75768200D01*
X136798766Y-74935164D01*
X136446002Y-74407216D01*
X136326889Y-74228951D01*
X136148624Y-74109838D01*
X133824723Y-71785938D01*
X133705609Y-71607671D01*
X132999395Y-71135794D01*
X132166360Y-70970093D01*
X131416548Y-71119240D01*
X131333325Y-71135794D01*
X131161386Y-71250680D01*
X126313775Y-71250680D01*
X125589512Y-70950680D01*
X124620808Y-70950680D01*
X123725844Y-71321387D01*
X123040867Y-72006364D01*
X122670160Y-72901328D01*
X118157120Y-72901328D01*
X118157120Y-70653065D01*
X125760213Y-63049973D01*
X126484476Y-62749973D01*
X127169453Y-62064996D01*
X127469454Y-61340731D01*
X132973624Y-55836562D01*
X133151889Y-55717449D01*
X133623766Y-55011236D01*
X133747640Y-54388479D01*
X133747640Y-54388474D01*
X133789466Y-54178201D01*
X133747640Y-53967927D01*
X133747640Y-52452400D01*
X136889035Y-52452400D01*
X136983555Y-52515557D01*
X137231320Y-52564840D01*
X140431320Y-52564840D01*
X140679085Y-52515557D01*
X140889129Y-52375209D01*
X141029477Y-52165165D01*
X141078760Y-51917400D01*
X141078760Y-48717400D01*
X141029477Y-48469635D01*
X140889129Y-48259591D01*
X140679085Y-48119243D01*
X140431320Y-48069960D01*
X137231320Y-48069960D01*
X136983555Y-48119243D01*
X136889035Y-48182400D01*
X133554925Y-48182400D01*
X133460405Y-48119243D01*
X133212640Y-48069960D01*
X130012640Y-48069960D01*
X129764875Y-48119243D01*
X129554831Y-48259591D01*
X129414483Y-48469635D01*
X129365200Y-48717400D01*
X129365200Y-51917400D01*
X129414483Y-52165165D01*
X129477641Y-52259686D01*
X129477641Y-53293853D01*
X124450109Y-58321386D01*
X123725844Y-58621387D01*
X123040867Y-59306364D01*
X122740867Y-60030627D01*
X114661139Y-68110356D01*
X114482871Y-68229471D01*
X114010994Y-68935685D01*
X113887120Y-69558442D01*
X113887120Y-69558445D01*
X113845294Y-69768720D01*
X113887120Y-69978995D01*
X113887121Y-78179200D01*
X113845294Y-78389480D01*
X113887121Y-78599759D01*
X113887120Y-94947374D01*
X111294815Y-97539680D01*
X109521445Y-97539680D01*
X109426925Y-97476523D01*
X109179160Y-97427240D01*
X105979160Y-97427240D01*
X105731395Y-97476523D01*
X105521351Y-97616871D01*
X105381003Y-97826915D01*
X105331720Y-98074680D01*
X98458880Y-98074680D01*
X98458880Y-97590760D01*
X98409597Y-97342995D01*
X98269249Y-97132951D01*
X98059205Y-96992603D01*
X97811440Y-96943320D01*
X95411440Y-96943320D01*
X95163675Y-96992603D01*
X94953631Y-97132951D01*
X94813283Y-97342995D01*
X94764000Y-97590760D01*
X88608600Y-97590760D01*
X88608600Y-96497840D01*
X102799633Y-96497840D01*
X102936040Y-96524973D01*
X103072447Y-96497840D01*
X103476440Y-96417481D01*
X103934569Y-96111369D01*
X104011839Y-95995726D01*
X107405408Y-92602158D01*
X107521049Y-92524889D01*
X107827161Y-92066760D01*
X107837648Y-92014040D01*
X107934653Y-91526360D01*
X107907520Y-91389953D01*
X107907520Y-81985367D01*
X107934653Y-81848960D01*
X107827161Y-81308560D01*
X107598317Y-80966071D01*
X107598315Y-80966069D01*
X107521048Y-80850431D01*
X107405410Y-80773164D01*
X106267359Y-79635114D01*
X106190089Y-79519471D01*
X105731960Y-79213359D01*
X105327967Y-79133000D01*
X105191560Y-79105867D01*
X105055153Y-79133000D01*
X104153400Y-79133000D01*
X104153400Y-77385180D01*
X104161134Y-77346299D01*
X106690029Y-74817405D01*
X106793145Y-74748505D01*
X107066104Y-74339993D01*
X107137760Y-73979756D01*
X107137760Y-73979752D01*
X107161954Y-73858121D01*
X107137760Y-73736490D01*
X107137760Y-58973432D01*
X107161954Y-58851800D01*
X107137760Y-58730168D01*
X107137760Y-58730164D01*
X107066104Y-58369927D01*
X106793145Y-57961415D01*
X106690027Y-57892514D01*
X104865607Y-56068094D01*
X104796705Y-55964975D01*
X104388193Y-55692016D01*
X104027956Y-55620360D01*
X104027952Y-55620360D01*
X103906320Y-55596166D01*
X103784688Y-55620360D01*
X99236040Y-55620360D01*
X99114409Y-55596166D01*
X98992778Y-55620360D01*
X98992774Y-55620360D01*
X98941697Y-55630520D01*
X98707503Y-55630520D01*
X98655122Y-55595520D01*
X98730311Y-55545280D01*
X107303639Y-55545280D01*
X107786481Y-55745280D01*
X108357359Y-55745280D01*
X108884782Y-55526814D01*
X109288454Y-55123142D01*
X109506920Y-54595719D01*
X109506920Y-54024841D01*
X111102240Y-54024841D01*
X111102240Y-54595719D01*
X111320706Y-55123142D01*
X111724378Y-55526814D01*
X112251801Y-55745280D01*
X112822679Y-55745280D01*
X113350102Y-55526814D01*
X113753774Y-55123142D01*
X113972240Y-54595719D01*
X113972240Y-54024841D01*
X113753774Y-53497418D01*
X113350102Y-53093746D01*
X112822679Y-52875280D01*
X112251801Y-52875280D01*
X111724378Y-53093746D01*
X111320706Y-53497418D01*
X111102240Y-54024841D01*
X109506920Y-54024841D01*
X109288454Y-53497418D01*
X108884782Y-53093746D01*
X108357359Y-52875280D01*
X107786481Y-52875280D01*
X107303639Y-53075280D01*
X98684694Y-53075280D01*
X98655122Y-53055520D01*
X98707503Y-53020520D01*
X101488524Y-53020520D01*
X101610160Y-53044715D01*
X101731796Y-53020520D01*
X102092033Y-52948864D01*
X102500545Y-52675905D01*
X102773504Y-52267393D01*
X102869355Y-51785520D01*
X102845160Y-51663884D01*
X102845160Y-49238913D01*
X103183180Y-48900894D01*
X103389269Y-48859900D01*
X103863937Y-48542737D01*
X104181100Y-48068069D01*
X104292473Y-47508160D01*
X104181100Y-46948251D01*
X103863937Y-46473583D01*
X103389269Y-46156420D01*
X102970693Y-46073160D01*
X102688027Y-46073160D01*
X102269451Y-46156420D01*
X101794783Y-46473583D01*
X101477620Y-46948251D01*
X101436626Y-47154340D01*
X100822891Y-47768076D01*
X100719776Y-47836975D01*
X100650876Y-47940091D01*
X100650874Y-47940093D01*
X100446816Y-48245488D01*
X100350966Y-48727360D01*
X100375161Y-48848996D01*
X100375160Y-50550520D01*
X98707503Y-50550520D01*
X98655122Y-50515520D01*
X99007457Y-50280097D01*
X99324620Y-49805429D01*
X99435993Y-49245520D01*
X99324620Y-48685611D01*
X99007457Y-48210943D01*
X98674543Y-47988497D01*
X92094159Y-41408114D01*
X92016889Y-41292471D01*
X91558760Y-40986359D01*
X91336610Y-40942171D01*
X91299353Y-40904914D01*
X90698422Y-40656000D01*
X90047978Y-40656000D01*
X89447047Y-40904914D01*
X88987114Y-41364847D01*
X88738200Y-41965778D01*
X88738200Y-41967315D01*
X88031675Y-42673840D01*
X85284580Y-42673840D01*
X85033213Y-42623840D01*
X84750547Y-42623840D01*
X84499180Y-42673840D01*
X83896915Y-42673840D01*
X83760509Y-42646707D01*
X83624103Y-42673840D01*
X83220110Y-42754199D01*
X82761981Y-43060311D01*
X82684710Y-43175955D01*
X82516265Y-43344400D01*
X81105440Y-43344400D01*
X81105440Y-42326205D01*
X85404606Y-38027040D01*
X86798322Y-38027040D01*
X87171477Y-38276374D01*
X87677560Y-38377040D01*
X88019320Y-38377040D01*
X88525403Y-38276374D01*
X89099305Y-37892905D01*
X89482774Y-37319003D01*
X89617430Y-36642040D01*
X89482774Y-35965077D01*
X89099305Y-35391175D01*
X88525403Y-35007706D01*
X88336646Y-34970160D01*
X90745675Y-34970160D01*
X91233561Y-35458046D01*
X91233560Y-36851073D01*
X91206427Y-36987480D01*
X91251166Y-37212400D01*
X91313919Y-37527879D01*
X91620031Y-37986008D01*
X91735672Y-38063277D01*
X95698977Y-42026583D01*
X95874672Y-42289529D01*
X95990313Y-42366798D01*
X96238200Y-42614685D01*
X96238200Y-42616222D01*
X96487114Y-43217153D01*
X96947047Y-43677086D01*
X97547978Y-43926000D01*
X97549515Y-43926000D01*
X98616040Y-44992525D01*
X98693311Y-45108169D01*
X99151440Y-45414281D01*
X99555433Y-45494640D01*
X99691839Y-45521773D01*
X99828245Y-45494640D01*
X102926825Y-45494640D01*
X103039640Y-45517080D01*
X104559640Y-45517080D01*
X104807405Y-45467797D01*
X105017449Y-45327449D01*
X105157797Y-45117405D01*
X105207080Y-44869640D01*
X105207080Y-44133233D01*
X105211773Y-44109640D01*
X105207080Y-44086047D01*
X105207080Y-43349640D01*
X105157797Y-43101875D01*
X105059417Y-42954640D01*
X107500966Y-42954640D01*
X107512011Y-42962020D01*
X107930587Y-43045280D01*
X108213253Y-43045280D01*
X108631829Y-42962020D01*
X109106497Y-42644857D01*
X109423660Y-42170189D01*
X109474471Y-41914747D01*
X109523881Y-41840799D01*
X109631373Y-41300400D01*
X109523881Y-40760000D01*
X109217768Y-40301872D01*
X108759640Y-39995759D01*
X108219240Y-39888267D01*
X107678841Y-39995759D01*
X107396161Y-40184640D01*
X104617468Y-40184640D01*
X104982264Y-39819844D01*
X105194640Y-39307123D01*
X105194640Y-38752157D01*
X104982264Y-38239436D01*
X104769868Y-38027040D01*
X110368435Y-38027040D01*
X111152241Y-38810846D01*
X111152240Y-41217579D01*
X111074127Y-41610280D01*
X111185500Y-42170189D01*
X111502663Y-42644857D01*
X111835580Y-42867305D01*
X113955722Y-44987448D01*
X114032991Y-45103089D01*
X114385289Y-45338487D01*
X114491120Y-45409201D01*
X115031520Y-45516693D01*
X115167927Y-45489560D01*
X116469515Y-45489560D01*
X117746081Y-46766127D01*
X117746080Y-50101878D01*
X117683315Y-50114363D01*
X117473271Y-50254711D01*
X117332923Y-50464755D01*
X117283640Y-50712520D01*
X117283640Y-53112520D01*
X117332923Y-53360285D01*
X117473271Y-53570329D01*
X117683315Y-53710677D01*
X117931080Y-53759960D01*
X120331080Y-53759960D01*
X120578845Y-53710677D01*
X120788889Y-53570329D01*
X120929237Y-53360285D01*
X120978520Y-53112520D01*
X120978520Y-50712520D01*
X120929237Y-50464755D01*
X120788889Y-50254711D01*
X120578845Y-50114363D01*
X120516080Y-50101878D01*
X120516080Y-46328845D01*
X120543213Y-46192439D01*
X120513726Y-46044201D01*
X120435721Y-45652040D01*
X120129609Y-45193911D01*
X120013968Y-45116642D01*
X118235825Y-43338499D01*
X118225824Y-43314356D01*
X118090520Y-43179052D01*
X118041729Y-43106031D01*
X117968708Y-43057240D01*
X117861028Y-42949560D01*
X121041212Y-42949560D01*
X120933532Y-43057240D01*
X120860511Y-43106031D01*
X120811720Y-43179052D01*
X120676416Y-43314356D01*
X120603190Y-43491139D01*
X120554399Y-43564160D01*
X120537266Y-43650294D01*
X120464040Y-43827077D01*
X120464040Y-44018426D01*
X120446907Y-44104560D01*
X120464040Y-44190694D01*
X120464040Y-44382043D01*
X120537266Y-44558826D01*
X120554399Y-44644960D01*
X120603190Y-44717981D01*
X120676416Y-44894764D01*
X120811720Y-45030068D01*
X120860511Y-45103089D01*
X120933532Y-45151880D01*
X121068836Y-45287184D01*
X121092979Y-45297185D01*
X122746081Y-46950287D01*
X122746080Y-50702438D01*
X122575442Y-50873076D01*
X122296080Y-51547516D01*
X122296080Y-52277524D01*
X122575442Y-52951964D01*
X123091636Y-53468158D01*
X123766076Y-53747520D01*
X124496084Y-53747520D01*
X125170524Y-53468158D01*
X125686718Y-52951964D01*
X125966080Y-52277524D01*
X125966080Y-51547516D01*
X125686718Y-50873076D01*
X125516080Y-50702438D01*
X125516080Y-46513007D01*
X125543213Y-46376600D01*
X125435721Y-45836200D01*
X125312669Y-45652040D01*
X125204104Y-45489560D01*
X126375913Y-45489560D01*
X126512320Y-45516693D01*
X126648727Y-45489560D01*
X127052720Y-45409201D01*
X127510849Y-45103089D01*
X127588119Y-44987446D01*
X132495530Y-40080036D01*
X132611168Y-40002769D01*
X132688435Y-39887131D01*
X132688437Y-39887129D01*
X132917281Y-39544640D01*
X133024773Y-39004240D01*
X132997640Y-38867833D01*
X132997640Y-37212400D01*
X138108457Y-37212400D01*
X138611192Y-37312400D01*
X139051448Y-37312400D01*
X139703374Y-37182724D01*
X140442665Y-36688745D01*
X140936644Y-35949454D01*
X141110106Y-35077400D01*
X140936644Y-34205346D01*
X140442665Y-33466055D01*
X139703374Y-32972076D01*
X139051448Y-32842400D01*
X138611192Y-32842400D01*
X138108457Y-32942400D01*
X132496986Y-32942400D01*
X131671005Y-32116420D01*
X131551890Y-31938152D01*
X130845677Y-31466275D01*
X130347784Y-31367238D01*
X129379724Y-30399179D01*
X129260609Y-30220911D01*
X128554396Y-29749034D01*
X127931639Y-29625160D01*
X127931635Y-29625160D01*
X127721360Y-29583334D01*
X127511085Y-29625160D01*
X123879984Y-29625160D01*
X123829526Y-29371490D01*
X123476763Y-28843543D01*
X123476762Y-28843542D01*
X123357649Y-28665277D01*
X123179384Y-28546164D01*
X121936966Y-27303746D01*
X135573294Y-27303746D01*
X135580320Y-27729790D01*
X135580320Y-28155969D01*
X135587640Y-28173640D01*
X135587955Y-28192763D01*
X135899960Y-28946010D01*
X135909667Y-28951082D01*
X135920579Y-28977426D01*
X136549294Y-29606141D01*
X136575638Y-29617053D01*
X136580710Y-29626760D01*
X136977028Y-29783314D01*
X137370751Y-29946400D01*
X137389880Y-29946400D01*
X137407666Y-29953426D01*
X137833710Y-29946400D01*
X138259889Y-29946400D01*
X138277560Y-29939080D01*
X138296683Y-29938765D01*
X139049930Y-29626760D01*
X139055002Y-29617053D01*
X139081346Y-29606141D01*
X139710061Y-28977426D01*
X139720973Y-28951082D01*
X139730680Y-28946010D01*
X139887234Y-28549692D01*
X140050320Y-28155969D01*
X140050320Y-28136840D01*
X140057346Y-28119054D01*
X140050320Y-27693010D01*
X140050320Y-27266831D01*
X140043000Y-27249160D01*
X140042685Y-27230037D01*
X139730680Y-26476790D01*
X139720973Y-26471718D01*
X139710061Y-26445374D01*
X139081346Y-25816659D01*
X139055002Y-25805747D01*
X139049930Y-25796040D01*
X138653612Y-25639486D01*
X138259889Y-25476400D01*
X138240760Y-25476400D01*
X138222974Y-25469374D01*
X137796930Y-25476400D01*
X137370751Y-25476400D01*
X137353080Y-25483720D01*
X137333957Y-25484035D01*
X136580710Y-25796040D01*
X136575638Y-25805747D01*
X136549294Y-25816659D01*
X135920579Y-26445374D01*
X135909667Y-26471718D01*
X135899960Y-26476790D01*
X135743406Y-26873108D01*
X135580320Y-27266831D01*
X135580320Y-27285960D01*
X135573294Y-27303746D01*
X121936966Y-27303746D01*
X121283358Y-26650139D01*
X121164243Y-26471871D01*
X120458030Y-25999994D01*
X119835273Y-25876120D01*
X119835269Y-25876120D01*
X119624994Y-25834294D01*
X119414719Y-25876120D01*
X117848921Y-25876120D01*
X117226164Y-25999994D01*
X116995964Y-26153809D01*
X116951760Y-26145016D01*
X116411138Y-26252552D01*
X116274241Y-26344024D01*
X116296760Y-26230815D01*
X116296760Y-24743785D01*
X116333689Y-24558130D01*
X116187391Y-23822640D01*
X116134257Y-23743120D01*
X141534680Y-23743120D01*
X141534680Y-48502714D01*
X141534680Y-48502714D01*
G37*
X141534680Y-48502714D02*
X141407131Y-112700133D01*
X119211334Y-112758531D01*
X123703506Y-108266360D01*
X124825335Y-108266360D01*
X125699520Y-109140546D01*
X125699520Y-109318699D01*
X126105546Y-110298934D01*
X126855786Y-111049174D01*
X127836021Y-111455200D01*
X128897019Y-111455200D01*
X129877254Y-111049174D01*
X130627494Y-110298934D01*
X131033520Y-109318699D01*
X131033520Y-108522786D01*
X135492014Y-108522786D01*
X135499040Y-108948830D01*
X135499040Y-109375009D01*
X135506360Y-109392680D01*
X135506675Y-109411803D01*
X135818680Y-110165050D01*
X135828387Y-110170122D01*
X135839299Y-110196466D01*
X136468014Y-110825181D01*
X136494358Y-110836093D01*
X136499430Y-110845800D01*
X136895748Y-111002354D01*
X137289471Y-111165440D01*
X137308600Y-111165440D01*
X137326386Y-111172466D01*
X137752430Y-111165440D01*
X138178609Y-111165440D01*
X138196280Y-111158120D01*
X138215403Y-111157805D01*
X138968650Y-110845800D01*
X138973722Y-110836093D01*
X139000066Y-110825181D01*
X139628781Y-110196466D01*
X139639693Y-110170122D01*
X139649400Y-110165050D01*
X139805954Y-109768732D01*
X139969040Y-109375009D01*
X139969040Y-109355880D01*
X139976066Y-109338094D01*
X139969040Y-108912050D01*
X139969040Y-108485871D01*
X139961720Y-108468200D01*
X139961405Y-108449077D01*
X139649400Y-107695830D01*
X139639693Y-107690758D01*
X139628781Y-107664414D01*
X139000066Y-107035699D01*
X138973722Y-107024787D01*
X138968650Y-107015080D01*
X138572332Y-106858526D01*
X138178609Y-106695440D01*
X138159480Y-106695440D01*
X138141694Y-106688414D01*
X137715650Y-106695440D01*
X137289471Y-106695440D01*
X137271800Y-106702760D01*
X137252677Y-106703075D01*
X136499430Y-107015080D01*
X136494358Y-107024787D01*
X136468014Y-107035699D01*
X135839299Y-107664414D01*
X135828387Y-107690758D01*
X135818680Y-107695830D01*
X135662126Y-108092148D01*
X135499040Y-108485871D01*
X135499040Y-108505000D01*
X135492014Y-108522786D01*
X131033520Y-108522786D01*
X131033520Y-108257701D01*
X130627494Y-107277466D01*
X130501520Y-107151492D01*
X130501520Y-105432315D01*
X130543346Y-105222040D01*
X130501520Y-105011765D01*
X130501520Y-105011761D01*
X130377646Y-104389004D01*
X129905769Y-103682791D01*
X129727504Y-103563678D01*
X124839976Y-98676151D01*
X124430505Y-98063335D01*
X123691214Y-97569356D01*
X123039288Y-97439680D01*
X122599032Y-97439680D01*
X121947106Y-97569356D01*
X121207815Y-98063335D01*
X120713836Y-98802626D01*
X120540374Y-99674680D01*
X120684160Y-100397543D01*
X120684161Y-105247013D01*
X116288507Y-109642668D01*
X98746440Y-109642668D01*
X98746440Y-103580481D01*
X98622566Y-102957724D01*
X98150689Y-102251511D01*
X97444475Y-101779634D01*
X96611440Y-101613933D01*
X95778404Y-101779634D01*
X95072191Y-102251511D01*
X94600314Y-102957725D01*
X94476440Y-103580482D01*
X94476441Y-109642668D01*
X84160076Y-109642670D01*
X84160076Y-107395965D01*
X84086709Y-107027123D01*
X84495640Y-107108464D01*
X85036261Y-107000928D01*
X85494579Y-106694690D01*
X85800818Y-106236372D01*
X85881210Y-105832213D01*
X85881210Y-104561067D01*
X85880640Y-104558201D01*
X85880640Y-103020645D01*
X88106488Y-100794798D01*
X88222129Y-100717529D01*
X88528241Y-100259400D01*
X88608600Y-99855407D01*
X88635733Y-99719001D01*
X88608600Y-99582595D01*
X88608600Y-97590760D01*
X94764000Y-97590760D01*
X94764000Y-99990760D01*
X94813283Y-100238525D01*
X94953631Y-100448569D01*
X95163675Y-100588917D01*
X95411440Y-100638200D01*
X97811440Y-100638200D01*
X98059205Y-100588917D01*
X98269249Y-100448569D01*
X98409597Y-100238525D01*
X98458880Y-99990760D01*
X98458880Y-98074680D01*
X105331720Y-98074680D01*
X105331720Y-101274680D01*
X105381003Y-101522445D01*
X105444160Y-101616966D01*
X105444161Y-104189074D01*
X105381003Y-104283595D01*
X105331720Y-104531360D01*
X105331720Y-107731360D01*
X105381003Y-107979125D01*
X105521351Y-108189169D01*
X105731395Y-108329517D01*
X105979160Y-108378800D01*
X109179160Y-108378800D01*
X109426925Y-108329517D01*
X109636969Y-108189169D01*
X109777317Y-107979125D01*
X109826600Y-107731360D01*
X109826600Y-104531360D01*
X109777317Y-104283595D01*
X109714160Y-104189075D01*
X109714160Y-101809680D01*
X111968885Y-101809680D01*
X112179160Y-101851506D01*
X112389435Y-101809680D01*
X112389439Y-101809680D01*
X113012196Y-101685806D01*
X113718409Y-101213929D01*
X113837524Y-101035661D01*
X117383104Y-97490082D01*
X117561369Y-97370969D01*
X118033246Y-96664756D01*
X118157120Y-96041999D01*
X118157120Y-96041996D01*
X118198946Y-95831721D01*
X118157120Y-95621446D01*
X118157120Y-81449040D01*
X123896545Y-81449040D01*
X124620808Y-81749040D01*
X125589512Y-81749040D01*
X126484476Y-81378333D01*
X127169453Y-80693356D01*
X127540160Y-79798392D01*
X127540160Y-78829688D01*
X127169453Y-77934724D01*
X126484476Y-77249747D01*
X125589512Y-76879040D01*
X124620808Y-76879040D01*
X123896545Y-77179040D01*
X118157120Y-77179040D01*
X118157120Y-72901328D01*
X122670160Y-72901328D01*
X122670160Y-73870032D01*
X123040867Y-74764996D01*
X123725844Y-75449973D01*
X124620808Y-75820680D01*
X125589512Y-75820680D01*
X126313775Y-75520680D01*
X131520775Y-75520680D01*
X132652641Y-76652547D01*
X132652640Y-83992798D01*
X126766399Y-89879040D01*
X126313775Y-89879040D01*
X125589512Y-89579040D01*
X124620808Y-89579040D01*
X123725844Y-89949747D01*
X123040867Y-90634724D01*
X122670160Y-91529688D01*
X122670160Y-92498392D01*
X123040867Y-93393356D01*
X123725844Y-94078333D01*
X124450109Y-94378334D01*
X129766318Y-99694544D01*
X129885431Y-99872809D01*
X130591644Y-100344686D01*
X131214401Y-100468560D01*
X131214405Y-100468560D01*
X131424680Y-100510386D01*
X131634955Y-100468560D01*
X135518212Y-100468560D01*
X135644186Y-100594534D01*
X136624421Y-101000560D01*
X137685419Y-101000560D01*
X138665654Y-100594534D01*
X139415894Y-99844294D01*
X139821920Y-98864059D01*
X139821920Y-97803061D01*
X139415894Y-96822826D01*
X138665654Y-96072586D01*
X137685419Y-95666560D01*
X136624421Y-95666560D01*
X135644186Y-96072586D01*
X135518212Y-96198560D01*
X132309026Y-96198560D01*
X129397297Y-93286832D01*
X136148624Y-86535506D01*
X136326889Y-86416393D01*
X136798766Y-85710180D01*
X136922640Y-85087423D01*
X136922640Y-85087420D01*
X136964466Y-84877145D01*
X136922640Y-84666870D01*
X136922640Y-75978478D01*
X136964467Y-75768200D01*
X136798766Y-74935164D01*
X136446002Y-74407216D01*
X136326889Y-74228951D01*
X136148624Y-74109838D01*
X133824723Y-71785938D01*
X133705609Y-71607671D01*
X132999395Y-71135794D01*
X132166360Y-70970093D01*
X131416548Y-71119240D01*
X131333325Y-71135794D01*
X131161386Y-71250680D01*
X126313775Y-71250680D01*
X125589512Y-70950680D01*
X124620808Y-70950680D01*
X123725844Y-71321387D01*
X123040867Y-72006364D01*
X122670160Y-72901328D01*
X118157120Y-72901328D01*
X118157120Y-70653065D01*
X125760213Y-63049973D01*
X126484476Y-62749973D01*
X127169453Y-62064996D01*
X127469454Y-61340731D01*
X132973624Y-55836562D01*
X133151889Y-55717449D01*
X133623766Y-55011236D01*
X133747640Y-54388479D01*
X133747640Y-54388474D01*
X133789466Y-54178201D01*
X133747640Y-53967927D01*
X133747640Y-52452400D01*
X136889035Y-52452400D01*
X136983555Y-52515557D01*
X137231320Y-52564840D01*
X140431320Y-52564840D01*
X140679085Y-52515557D01*
X140889129Y-52375209D01*
X141029477Y-52165165D01*
X141078760Y-51917400D01*
X141078760Y-48717400D01*
X141029477Y-48469635D01*
X140889129Y-48259591D01*
X140679085Y-48119243D01*
X140431320Y-48069960D01*
X137231320Y-48069960D01*
X136983555Y-48119243D01*
X136889035Y-48182400D01*
X133554925Y-48182400D01*
X133460405Y-48119243D01*
X133212640Y-48069960D01*
X130012640Y-48069960D01*
X129764875Y-48119243D01*
X129554831Y-48259591D01*
X129414483Y-48469635D01*
X129365200Y-48717400D01*
X129365200Y-51917400D01*
X129414483Y-52165165D01*
X129477641Y-52259686D01*
X129477641Y-53293853D01*
X124450109Y-58321386D01*
X123725844Y-58621387D01*
X123040867Y-59306364D01*
X122740867Y-60030627D01*
X114661139Y-68110356D01*
X114482871Y-68229471D01*
X114010994Y-68935685D01*
X113887120Y-69558442D01*
X113887120Y-69558445D01*
X113845294Y-69768720D01*
X113887120Y-69978995D01*
X113887121Y-78179200D01*
X113845294Y-78389480D01*
X113887121Y-78599759D01*
X113887120Y-94947374D01*
X111294815Y-97539680D01*
X109521445Y-97539680D01*
X109426925Y-97476523D01*
X109179160Y-97427240D01*
X105979160Y-97427240D01*
X105731395Y-97476523D01*
X105521351Y-97616871D01*
X105381003Y-97826915D01*
X105331720Y-98074680D01*
X98458880Y-98074680D01*
X98458880Y-97590760D01*
X98409597Y-97342995D01*
X98269249Y-97132951D01*
X98059205Y-96992603D01*
X97811440Y-96943320D01*
X95411440Y-96943320D01*
X95163675Y-96992603D01*
X94953631Y-97132951D01*
X94813283Y-97342995D01*
X94764000Y-97590760D01*
X88608600Y-97590760D01*
X88608600Y-96497840D01*
X102799633Y-96497840D01*
X102936040Y-96524973D01*
X103072447Y-96497840D01*
X103476440Y-96417481D01*
X103934569Y-96111369D01*
X104011839Y-95995726D01*
X107405408Y-92602158D01*
X107521049Y-92524889D01*
X107827161Y-92066760D01*
X107837648Y-92014040D01*
X107934653Y-91526360D01*
X107907520Y-91389953D01*
X107907520Y-81985367D01*
X107934653Y-81848960D01*
X107827161Y-81308560D01*
X107598317Y-80966071D01*
X107598315Y-80966069D01*
X107521048Y-80850431D01*
X107405410Y-80773164D01*
X106267359Y-79635114D01*
X106190089Y-79519471D01*
X105731960Y-79213359D01*
X105327967Y-79133000D01*
X105191560Y-79105867D01*
X105055153Y-79133000D01*
X104153400Y-79133000D01*
X104153400Y-77385180D01*
X104161134Y-77346299D01*
X106690029Y-74817405D01*
X106793145Y-74748505D01*
X107066104Y-74339993D01*
X107137760Y-73979756D01*
X107137760Y-73979752D01*
X107161954Y-73858121D01*
X107137760Y-73736490D01*
X107137760Y-58973432D01*
X107161954Y-58851800D01*
X107137760Y-58730168D01*
X107137760Y-58730164D01*
X107066104Y-58369927D01*
X106793145Y-57961415D01*
X106690027Y-57892514D01*
X104865607Y-56068094D01*
X104796705Y-55964975D01*
X104388193Y-55692016D01*
X104027956Y-55620360D01*
X104027952Y-55620360D01*
X103906320Y-55596166D01*
X103784688Y-55620360D01*
X99236040Y-55620360D01*
X99114409Y-55596166D01*
X98992778Y-55620360D01*
X98992774Y-55620360D01*
X98941697Y-55630520D01*
X98707503Y-55630520D01*
X98655122Y-55595520D01*
X98730311Y-55545280D01*
X107303639Y-55545280D01*
X107786481Y-55745280D01*
X108357359Y-55745280D01*
X108884782Y-55526814D01*
X109288454Y-55123142D01*
X109506920Y-54595719D01*
X109506920Y-54024841D01*
X111102240Y-54024841D01*
X111102240Y-54595719D01*
X111320706Y-55123142D01*
X111724378Y-55526814D01*
X112251801Y-55745280D01*
X112822679Y-55745280D01*
X113350102Y-55526814D01*
X113753774Y-55123142D01*
X113972240Y-54595719D01*
X113972240Y-54024841D01*
X113753774Y-53497418D01*
X113350102Y-53093746D01*
X112822679Y-52875280D01*
X112251801Y-52875280D01*
X111724378Y-53093746D01*
X111320706Y-53497418D01*
X111102240Y-54024841D01*
X109506920Y-54024841D01*
X109288454Y-53497418D01*
X108884782Y-53093746D01*
X108357359Y-52875280D01*
X107786481Y-52875280D01*
X107303639Y-53075280D01*
X98684694Y-53075280D01*
X98655122Y-53055520D01*
X98707503Y-53020520D01*
X101488524Y-53020520D01*
X101610160Y-53044715D01*
X101731796Y-53020520D01*
X102092033Y-52948864D01*
X102500545Y-52675905D01*
X102773504Y-52267393D01*
X102869355Y-51785520D01*
X102845160Y-51663884D01*
X102845160Y-49238913D01*
X103183180Y-48900894D01*
X103389269Y-48859900D01*
X103863937Y-48542737D01*
X104181100Y-48068069D01*
X104292473Y-47508160D01*
X104181100Y-46948251D01*
X103863937Y-46473583D01*
X103389269Y-46156420D01*
X102970693Y-46073160D01*
X102688027Y-46073160D01*
X102269451Y-46156420D01*
X101794783Y-46473583D01*
X101477620Y-46948251D01*
X101436626Y-47154340D01*
X100822891Y-47768076D01*
X100719776Y-47836975D01*
X100650876Y-47940091D01*
X100650874Y-47940093D01*
X100446816Y-48245488D01*
X100350966Y-48727360D01*
X100375161Y-48848996D01*
X100375160Y-50550520D01*
X98707503Y-50550520D01*
X98655122Y-50515520D01*
X99007457Y-50280097D01*
X99324620Y-49805429D01*
X99435993Y-49245520D01*
X99324620Y-48685611D01*
X99007457Y-48210943D01*
X98674543Y-47988497D01*
X92094159Y-41408114D01*
X92016889Y-41292471D01*
X91558760Y-40986359D01*
X91336610Y-40942171D01*
X91299353Y-40904914D01*
X90698422Y-40656000D01*
X90047978Y-40656000D01*
X89447047Y-40904914D01*
X88987114Y-41364847D01*
X88738200Y-41965778D01*
X88738200Y-41967315D01*
X88031675Y-42673840D01*
X85284580Y-42673840D01*
X85033213Y-42623840D01*
X84750547Y-42623840D01*
X84499180Y-42673840D01*
X83896915Y-42673840D01*
X83760509Y-42646707D01*
X83624103Y-42673840D01*
X83220110Y-42754199D01*
X82761981Y-43060311D01*
X82684710Y-43175955D01*
X82516265Y-43344400D01*
X81105440Y-43344400D01*
X81105440Y-42326205D01*
X85404606Y-38027040D01*
X86798322Y-38027040D01*
X87171477Y-38276374D01*
X87677560Y-38377040D01*
X88019320Y-38377040D01*
X88525403Y-38276374D01*
X89099305Y-37892905D01*
X89482774Y-37319003D01*
X89617430Y-36642040D01*
X89482774Y-35965077D01*
X89099305Y-35391175D01*
X88525403Y-35007706D01*
X88336646Y-34970160D01*
X90745675Y-34970160D01*
X91233561Y-35458046D01*
X91233560Y-36851073D01*
X91206427Y-36987480D01*
X91251166Y-37212400D01*
X91313919Y-37527879D01*
X91620031Y-37986008D01*
X91735672Y-38063277D01*
X95698977Y-42026583D01*
X95874672Y-42289529D01*
X95990313Y-42366798D01*
X96238200Y-42614685D01*
X96238200Y-42616222D01*
X96487114Y-43217153D01*
X96947047Y-43677086D01*
X97547978Y-43926000D01*
X97549515Y-43926000D01*
X98616040Y-44992525D01*
X98693311Y-45108169D01*
X99151440Y-45414281D01*
X99555433Y-45494640D01*
X99691839Y-45521773D01*
X99828245Y-45494640D01*
X102926825Y-45494640D01*
X103039640Y-45517080D01*
X104559640Y-45517080D01*
X104807405Y-45467797D01*
X105017449Y-45327449D01*
X105157797Y-45117405D01*
X105207080Y-44869640D01*
X105207080Y-44133233D01*
X105211773Y-44109640D01*
X105207080Y-44086047D01*
X105207080Y-43349640D01*
X105157797Y-43101875D01*
X105059417Y-42954640D01*
X107500966Y-42954640D01*
X107512011Y-42962020D01*
X107930587Y-43045280D01*
X108213253Y-43045280D01*
X108631829Y-42962020D01*
X109106497Y-42644857D01*
X109423660Y-42170189D01*
X109474471Y-41914747D01*
X109523881Y-41840799D01*
X109631373Y-41300400D01*
X109523881Y-40760000D01*
X109217768Y-40301872D01*
X108759640Y-39995759D01*
X108219240Y-39888267D01*
X107678841Y-39995759D01*
X107396161Y-40184640D01*
X104617468Y-40184640D01*
X104982264Y-39819844D01*
X105194640Y-39307123D01*
X105194640Y-38752157D01*
X104982264Y-38239436D01*
X104769868Y-38027040D01*
X110368435Y-38027040D01*
X111152241Y-38810846D01*
X111152240Y-41217579D01*
X111074127Y-41610280D01*
X111185500Y-42170189D01*
X111502663Y-42644857D01*
X111835580Y-42867305D01*
X113955722Y-44987448D01*
X114032991Y-45103089D01*
X114385289Y-45338487D01*
X114491120Y-45409201D01*
X115031520Y-45516693D01*
X115167927Y-45489560D01*
X116469515Y-45489560D01*
X117746081Y-46766127D01*
X117746080Y-50101878D01*
X117683315Y-50114363D01*
X117473271Y-50254711D01*
X117332923Y-50464755D01*
X117283640Y-50712520D01*
X117283640Y-53112520D01*
X117332923Y-53360285D01*
X117473271Y-53570329D01*
X117683315Y-53710677D01*
X117931080Y-53759960D01*
X120331080Y-53759960D01*
X120578845Y-53710677D01*
X120788889Y-53570329D01*
X120929237Y-53360285D01*
X120978520Y-53112520D01*
X120978520Y-50712520D01*
X120929237Y-50464755D01*
X120788889Y-50254711D01*
X120578845Y-50114363D01*
X120516080Y-50101878D01*
X120516080Y-46328845D01*
X120543213Y-46192439D01*
X120513726Y-46044201D01*
X120435721Y-45652040D01*
X120129609Y-45193911D01*
X120013968Y-45116642D01*
X118235825Y-43338499D01*
X118225824Y-43314356D01*
X118090520Y-43179052D01*
X118041729Y-43106031D01*
X117968708Y-43057240D01*
X117861028Y-42949560D01*
X121041212Y-42949560D01*
X120933532Y-43057240D01*
X120860511Y-43106031D01*
X120811720Y-43179052D01*
X120676416Y-43314356D01*
X120603190Y-43491139D01*
X120554399Y-43564160D01*
X120537266Y-43650294D01*
X120464040Y-43827077D01*
X120464040Y-44018426D01*
X120446907Y-44104560D01*
X120464040Y-44190694D01*
X120464040Y-44382043D01*
X120537266Y-44558826D01*
X120554399Y-44644960D01*
X120603190Y-44717981D01*
X120676416Y-44894764D01*
X120811720Y-45030068D01*
X120860511Y-45103089D01*
X120933532Y-45151880D01*
X121068836Y-45287184D01*
X121092979Y-45297185D01*
X122746081Y-46950287D01*
X122746080Y-50702438D01*
X122575442Y-50873076D01*
X122296080Y-51547516D01*
X122296080Y-52277524D01*
X122575442Y-52951964D01*
X123091636Y-53468158D01*
X123766076Y-53747520D01*
X124496084Y-53747520D01*
X125170524Y-53468158D01*
X125686718Y-52951964D01*
X125966080Y-52277524D01*
X125966080Y-51547516D01*
X125686718Y-50873076D01*
X125516080Y-50702438D01*
X125516080Y-46513007D01*
X125543213Y-46376600D01*
X125435721Y-45836200D01*
X125312669Y-45652040D01*
X125204104Y-45489560D01*
X126375913Y-45489560D01*
X126512320Y-45516693D01*
X126648727Y-45489560D01*
X127052720Y-45409201D01*
X127510849Y-45103089D01*
X127588119Y-44987446D01*
X132495530Y-40080036D01*
X132611168Y-40002769D01*
X132688435Y-39887131D01*
X132688437Y-39887129D01*
X132917281Y-39544640D01*
X133024773Y-39004240D01*
X132997640Y-38867833D01*
X132997640Y-37212400D01*
X138108457Y-37212400D01*
X138611192Y-37312400D01*
X139051448Y-37312400D01*
X139703374Y-37182724D01*
X140442665Y-36688745D01*
X140936644Y-35949454D01*
X141110106Y-35077400D01*
X140936644Y-34205346D01*
X140442665Y-33466055D01*
X139703374Y-32972076D01*
X139051448Y-32842400D01*
X138611192Y-32842400D01*
X138108457Y-32942400D01*
X132496986Y-32942400D01*
X131671005Y-32116420D01*
X131551890Y-31938152D01*
X130845677Y-31466275D01*
X130347784Y-31367238D01*
X129379724Y-30399179D01*
X129260609Y-30220911D01*
X128554396Y-29749034D01*
X127931639Y-29625160D01*
X127931635Y-29625160D01*
X127721360Y-29583334D01*
X127511085Y-29625160D01*
X123879984Y-29625160D01*
X123829526Y-29371490D01*
X123476763Y-28843543D01*
X123476762Y-28843542D01*
X123357649Y-28665277D01*
X123179384Y-28546164D01*
X121936966Y-27303746D01*
X135573294Y-27303746D01*
X135580320Y-27729790D01*
X135580320Y-28155969D01*
X135587640Y-28173640D01*
X135587955Y-28192763D01*
X135899960Y-28946010D01*
X135909667Y-28951082D01*
X135920579Y-28977426D01*
X136549294Y-29606141D01*
X136575638Y-29617053D01*
X136580710Y-29626760D01*
X136977028Y-29783314D01*
X137370751Y-29946400D01*
X137389880Y-29946400D01*
X137407666Y-29953426D01*
X137833710Y-29946400D01*
X138259889Y-29946400D01*
X138277560Y-29939080D01*
X138296683Y-29938765D01*
X139049930Y-29626760D01*
X139055002Y-29617053D01*
X139081346Y-29606141D01*
X139710061Y-28977426D01*
X139720973Y-28951082D01*
X139730680Y-28946010D01*
X139887234Y-28549692D01*
X140050320Y-28155969D01*
X140050320Y-28136840D01*
X140057346Y-28119054D01*
X140050320Y-27693010D01*
X140050320Y-27266831D01*
X140043000Y-27249160D01*
X140042685Y-27230037D01*
X139730680Y-26476790D01*
X139720973Y-26471718D01*
X139710061Y-26445374D01*
X139081346Y-25816659D01*
X139055002Y-25805747D01*
X139049930Y-25796040D01*
X138653612Y-25639486D01*
X138259889Y-25476400D01*
X138240760Y-25476400D01*
X138222974Y-25469374D01*
X137796930Y-25476400D01*
X137370751Y-25476400D01*
X137353080Y-25483720D01*
X137333957Y-25484035D01*
X136580710Y-25796040D01*
X136575638Y-25805747D01*
X136549294Y-25816659D01*
X135920579Y-26445374D01*
X135909667Y-26471718D01*
X135899960Y-26476790D01*
X135743406Y-26873108D01*
X135580320Y-27266831D01*
X135580320Y-27285960D01*
X135573294Y-27303746D01*
X121936966Y-27303746D01*
X121283358Y-26650139D01*
X121164243Y-26471871D01*
X120458030Y-25999994D01*
X119835273Y-25876120D01*
X119835269Y-25876120D01*
X119624994Y-25834294D01*
X119414719Y-25876120D01*
X117848921Y-25876120D01*
X117226164Y-25999994D01*
X116995964Y-26153809D01*
X116951760Y-26145016D01*
X116411138Y-26252552D01*
X116274241Y-26344024D01*
X116296760Y-26230815D01*
X116296760Y-24743785D01*
X116333689Y-24558130D01*
X116187391Y-23822640D01*
X116134257Y-23743120D01*
X141534680Y-23743120D01*
X141534680Y-48502714D01*
G36*
X74204321Y-64792520D02*
X74026680Y-64970162D01*
X73543836Y-65170162D01*
X73027642Y-65686356D01*
X72748280Y-66360796D01*
X72748280Y-67090804D01*
X73027642Y-67765244D01*
X73198281Y-67935883D01*
X73198280Y-69310993D01*
X73171147Y-69447400D01*
X73263737Y-69912880D01*
X73278639Y-69987799D01*
X73584751Y-70445928D01*
X73700393Y-70523198D01*
X74209799Y-71032603D01*
X74287071Y-71148249D01*
X74745200Y-71454361D01*
X75149193Y-71534720D01*
X75149197Y-71534720D01*
X75285599Y-71561852D01*
X75422001Y-71534720D01*
X86829185Y-71534720D01*
X88089832Y-72795368D01*
X88167101Y-72911009D01*
X88625230Y-73217121D01*
X88912000Y-73274163D01*
X88912001Y-78804495D01*
X88833887Y-79197200D01*
X88945260Y-79757109D01*
X89262423Y-80231777D01*
X89595340Y-80454225D01*
X98771602Y-89630488D01*
X98848871Y-89746129D01*
X99307000Y-90052241D01*
X99710993Y-90132600D01*
X99847399Y-90159733D01*
X99983805Y-90132600D01*
X101451285Y-90132600D01*
X101620635Y-90245757D01*
X101868400Y-90295040D01*
X103668400Y-90295040D01*
X103916165Y-90245757D01*
X104126209Y-90105409D01*
X104266557Y-89895365D01*
X104315840Y-89647600D01*
X104315840Y-87847600D01*
X104266557Y-87599835D01*
X104126209Y-87389791D01*
X103916165Y-87249443D01*
X103900492Y-87246325D01*
X104069710Y-87077107D01*
X104303400Y-86512930D01*
X104303400Y-85902270D01*
X104153400Y-85540138D01*
X104153400Y-84375115D01*
X104266557Y-84205765D01*
X104315840Y-83958000D01*
X104315840Y-82158000D01*
X104266557Y-81910235D01*
X104261723Y-81903000D01*
X104617875Y-81903000D01*
X105137520Y-82422646D01*
X105137521Y-90952673D01*
X102362355Y-93727840D01*
X88608600Y-93727840D01*
X88608600Y-92785445D01*
X88635733Y-92649039D01*
X88593675Y-92437599D01*
X88528241Y-92108640D01*
X88376778Y-91881960D01*
X88299397Y-91766151D01*
X88299395Y-91766149D01*
X88222128Y-91650511D01*
X88164135Y-91611761D01*
X88862000Y-91611761D01*
X88862000Y-92182639D01*
X89080466Y-92710062D01*
X89484138Y-93113734D01*
X90011561Y-93332200D01*
X90582439Y-93332200D01*
X90739942Y-93266960D01*
X94745540Y-93266960D01*
X94996907Y-93316960D01*
X95279573Y-93316960D01*
X95698149Y-93233700D01*
X96172817Y-92916537D01*
X96489980Y-92441869D01*
X96601353Y-91881960D01*
X96489980Y-91322051D01*
X96172817Y-90847383D01*
X95698149Y-90530220D01*
X95279573Y-90446960D01*
X94996907Y-90446960D01*
X94745540Y-90496960D01*
X90666357Y-90496960D01*
X90582439Y-90462200D01*
X90011561Y-90462200D01*
X89484138Y-90680666D01*
X89080466Y-91084338D01*
X88862000Y-91611761D01*
X88164135Y-91611761D01*
X88106490Y-91573244D01*
X84082999Y-87549754D01*
X84005729Y-87434111D01*
X83547600Y-87127999D01*
X83143607Y-87047640D01*
X83007200Y-87020507D01*
X82870793Y-87047640D01*
X68414526Y-87047640D01*
X62555446Y-81188560D01*
X65349047Y-81188560D01*
X65460420Y-81748469D01*
X65777583Y-82223137D01*
X66252251Y-82540300D01*
X66670827Y-82623560D01*
X66953493Y-82623560D01*
X67372069Y-82540300D01*
X67846737Y-82223137D01*
X68163900Y-81748469D01*
X68275273Y-81188560D01*
X70068367Y-81188560D01*
X70179740Y-81748469D01*
X70496903Y-82223137D01*
X70971571Y-82540300D01*
X71390147Y-82623560D01*
X71672813Y-82623560D01*
X72091389Y-82540300D01*
X72566057Y-82223137D01*
X72883220Y-81748469D01*
X72981456Y-81254600D01*
X77210847Y-81254600D01*
X77322220Y-81814509D01*
X77639383Y-82289177D01*
X78114051Y-82606340D01*
X78532627Y-82689600D01*
X78815293Y-82689600D01*
X79066660Y-82639600D01*
X83127580Y-82639600D01*
X83378947Y-82689600D01*
X83661613Y-82689600D01*
X84080189Y-82606340D01*
X84091927Y-82598497D01*
X84289280Y-82559241D01*
X84747409Y-82253129D01*
X85053521Y-81795000D01*
X85161013Y-81254600D01*
X85053521Y-80714200D01*
X84747409Y-80256071D01*
X84289280Y-79949959D01*
X84091927Y-79910703D01*
X84080189Y-79902860D01*
X83661613Y-79819600D01*
X83378947Y-79819600D01*
X83127580Y-79869600D01*
X79066660Y-79869600D01*
X78815293Y-79819600D01*
X78532627Y-79819600D01*
X78114051Y-79902860D01*
X77639383Y-80220023D01*
X77322220Y-80694691D01*
X77210847Y-81254600D01*
X72981456Y-81254600D01*
X72994593Y-81188560D01*
X72916480Y-80795860D01*
X72916480Y-77302110D01*
X72966480Y-77181399D01*
X72966480Y-76895960D01*
X82768367Y-76895960D01*
X82879740Y-77455869D01*
X83196903Y-77930537D01*
X83671571Y-78247700D01*
X84090147Y-78330960D01*
X84372813Y-78330960D01*
X84791389Y-78247700D01*
X85266057Y-77930537D01*
X85583220Y-77455869D01*
X85694593Y-76895960D01*
X85583220Y-76336051D01*
X85266057Y-75861383D01*
X84791389Y-75544220D01*
X84372813Y-75460960D01*
X84090147Y-75460960D01*
X83671571Y-75544220D01*
X83196903Y-75861383D01*
X82879740Y-76336051D01*
X82768367Y-76895960D01*
X72966480Y-76895960D01*
X72966480Y-76610521D01*
X72748014Y-76083098D01*
X72344342Y-75679426D01*
X71816919Y-75460960D01*
X71246041Y-75460960D01*
X70718618Y-75679426D01*
X70314946Y-76083098D01*
X70096480Y-76610521D01*
X70096480Y-77181399D01*
X70146480Y-77302110D01*
X70146481Y-80795856D01*
X70068367Y-81188560D01*
X68275273Y-81188560D01*
X68163900Y-80628651D01*
X67846737Y-80153983D01*
X67372069Y-79836820D01*
X66953493Y-79753560D01*
X66670827Y-79753560D01*
X66252251Y-79836820D01*
X65777583Y-80153983D01*
X65460420Y-80628651D01*
X65349047Y-81188560D01*
X62555446Y-81188560D01*
X61682719Y-80315834D01*
X61605449Y-80200191D01*
X61147320Y-79894079D01*
X60743327Y-79813720D01*
X60606920Y-79786587D01*
X60470513Y-79813720D01*
X59717562Y-79813720D01*
X59705077Y-79750955D01*
X59564729Y-79540911D01*
X59354685Y-79400563D01*
X59106920Y-79351280D01*
X56706920Y-79351280D01*
X56459155Y-79400563D01*
X56249111Y-79540911D01*
X56108763Y-79750955D01*
X56059480Y-79998720D01*
X56059480Y-82398720D01*
X56108763Y-82646485D01*
X56249111Y-82856529D01*
X56459155Y-82996877D01*
X56706920Y-83046160D01*
X59106920Y-83046160D01*
X59354685Y-82996877D01*
X59564729Y-82856529D01*
X59705077Y-82646485D01*
X59717562Y-82583720D01*
X60033235Y-82583720D01*
X66765042Y-89315528D01*
X66842311Y-89431169D01*
X66957951Y-89508437D01*
X67300440Y-89737281D01*
X67840840Y-89844773D01*
X67977247Y-89817640D01*
X82433515Y-89817640D01*
X85838600Y-93222726D01*
X85838601Y-94976428D01*
X85811467Y-95112840D01*
X85838600Y-95249247D01*
X85838601Y-99145313D01*
X83612752Y-101371163D01*
X83497112Y-101448431D01*
X83419843Y-101564072D01*
X83340640Y-101682608D01*
X83340640Y-96092925D01*
X84212432Y-95221134D01*
X84333142Y-95171134D01*
X84736814Y-94767462D01*
X84955280Y-94240039D01*
X84955280Y-93669161D01*
X84736814Y-93141738D01*
X84333142Y-92738066D01*
X83805719Y-92519600D01*
X83234841Y-92519600D01*
X82707418Y-92738066D01*
X82303746Y-93141738D01*
X82253746Y-93262448D01*
X81072752Y-94443443D01*
X80957112Y-94520711D01*
X80879843Y-94636352D01*
X80650999Y-94978841D01*
X80543507Y-95519240D01*
X80570641Y-95655652D01*
X80570640Y-103932151D01*
X80414580Y-103698590D01*
X79956262Y-103392352D01*
X79415640Y-103284816D01*
X78976110Y-103372244D01*
X78658635Y-103160114D01*
X77825600Y-102994413D01*
X76992564Y-103160114D01*
X76464617Y-103512877D01*
X73309055Y-106668440D01*
X68197160Y-106668440D01*
X68197160Y-102659880D01*
X69075753Y-102659880D01*
X69212160Y-102687013D01*
X69348567Y-102659880D01*
X69752560Y-102579521D01*
X70210689Y-102273409D01*
X70287959Y-102157766D01*
X72536292Y-99909434D01*
X72651928Y-99832168D01*
X72729194Y-99716532D01*
X72729197Y-99716529D01*
X72958041Y-99374040D01*
X73065533Y-98833640D01*
X72958041Y-98293240D01*
X72916480Y-98231040D01*
X72916480Y-95273560D01*
X78108376Y-95273560D01*
X78388521Y-95389600D01*
X78959399Y-95389600D01*
X79486822Y-95171134D01*
X79890494Y-94767462D01*
X80108960Y-94240039D01*
X80108960Y-93669161D01*
X79890494Y-93141738D01*
X79486822Y-92738066D01*
X79203189Y-92620581D01*
X79148320Y-92583919D01*
X79083598Y-92571045D01*
X78959399Y-92519600D01*
X78824966Y-92519600D01*
X78744327Y-92503560D01*
X78607920Y-92476427D01*
X78471513Y-92503560D01*
X71937630Y-92503560D01*
X71816919Y-92453560D01*
X71246041Y-92453560D01*
X70718618Y-92672026D01*
X70314946Y-93075698D01*
X70096480Y-93603121D01*
X70096480Y-94173999D01*
X70146481Y-94294712D01*
X70146480Y-98381874D01*
X68638475Y-99889880D01*
X68129275Y-99889880D01*
X67959925Y-99776723D01*
X67944252Y-99773605D01*
X68113470Y-99604387D01*
X68347160Y-99040210D01*
X68347160Y-98429550D01*
X68197160Y-98067418D01*
X68197160Y-94294710D01*
X68247160Y-94173999D01*
X68247160Y-93603121D01*
X68028694Y-93075698D01*
X67625022Y-92672026D01*
X67097599Y-92453560D01*
X66526721Y-92453560D01*
X65999298Y-92672026D01*
X65595626Y-93075698D01*
X65377160Y-93603121D01*
X65377160Y-94173999D01*
X65427160Y-94294710D01*
X65427161Y-98067416D01*
X65277160Y-98429550D01*
X65277160Y-99040210D01*
X65510850Y-99604387D01*
X65680068Y-99773605D01*
X65664395Y-99776723D01*
X65454351Y-99917071D01*
X65314003Y-100127115D01*
X65264720Y-100374880D01*
X65264720Y-102174880D01*
X65314003Y-102422645D01*
X65427161Y-102591996D01*
X65427161Y-103538469D01*
X65427160Y-103538474D01*
X65427161Y-106668440D01*
X60252333Y-106668440D01*
X59307792Y-105723900D01*
X59460605Y-105826006D01*
X60293640Y-105991707D01*
X61126676Y-105826006D01*
X61832889Y-105354129D01*
X62304766Y-104647916D01*
X62428640Y-104025159D01*
X62428640Y-97104601D01*
X62304766Y-96481844D01*
X61832889Y-95775631D01*
X61126675Y-95303754D01*
X60293640Y-95138053D01*
X59460604Y-95303754D01*
X58754391Y-95775631D01*
X58282514Y-96481845D01*
X58158640Y-97104602D01*
X58158641Y-104025159D01*
X58282515Y-104647916D01*
X58384622Y-104800730D01*
X57928640Y-104344748D01*
X57928640Y-97525155D01*
X57970466Y-97314880D01*
X57928640Y-97104605D01*
X57928640Y-97104601D01*
X57804766Y-96481844D01*
X57332889Y-95775631D01*
X57154624Y-95656518D01*
X51174712Y-89676607D01*
X51817601Y-89033719D01*
X56545891Y-89033719D01*
X56706921Y-89065750D01*
X56867951Y-89033719D01*
X56867952Y-89033719D01*
X57344866Y-88938855D01*
X57885690Y-88577488D01*
X57976909Y-88440969D01*
X58463520Y-87954358D01*
X58946364Y-87754358D01*
X59462558Y-87238164D01*
X59741920Y-86563724D01*
X59741920Y-85833716D01*
X59462558Y-85159276D01*
X58946364Y-84643082D01*
X58271924Y-84363720D01*
X57541916Y-84363720D01*
X56867476Y-84643082D01*
X56351282Y-85159276D01*
X56151282Y-85642120D01*
X56029683Y-85763719D01*
X51301392Y-85763719D01*
X51140361Y-85731688D01*
X50643920Y-85830436D01*
X50643920Y-78258348D01*
X50769894Y-78132374D01*
X51175920Y-77152139D01*
X51175920Y-76091141D01*
X50769894Y-75110906D01*
X50643920Y-74984932D01*
X50643920Y-74737385D01*
X54262066Y-71119240D01*
X57785250Y-71119240D01*
X57946280Y-71151271D01*
X58107310Y-71119240D01*
X58107311Y-71119240D01*
X58584225Y-71024376D01*
X59125049Y-70663009D01*
X59216268Y-70526490D01*
X61261321Y-68481438D01*
X61744164Y-68281438D01*
X62260358Y-67765244D01*
X62539720Y-67090804D01*
X62539720Y-66360796D01*
X62339720Y-65877953D01*
X62339720Y-65525800D01*
X63857280Y-65525800D01*
X63857280Y-67925800D01*
X63906563Y-68173565D01*
X64046911Y-68383609D01*
X64256955Y-68523957D01*
X64504720Y-68573240D01*
X66904720Y-68573240D01*
X67152485Y-68523957D01*
X67362529Y-68383609D01*
X67502877Y-68173565D01*
X67552160Y-67925800D01*
X67552160Y-65525800D01*
X67502877Y-65278035D01*
X67362529Y-65067991D01*
X67152485Y-64927643D01*
X67089720Y-64915158D01*
X67089720Y-62503965D01*
X71628623Y-57965063D01*
X71961537Y-57742617D01*
X72278700Y-57267949D01*
X72390073Y-56708040D01*
X72278700Y-56148131D01*
X71961537Y-55673463D01*
X71486869Y-55356300D01*
X71068293Y-55273040D01*
X70785627Y-55273040D01*
X70367051Y-55356300D01*
X69892383Y-55673463D01*
X69669937Y-56006377D01*
X64821832Y-60854483D01*
X64706192Y-60931751D01*
X64628923Y-61047392D01*
X64400079Y-61389881D01*
X64292587Y-61930280D01*
X64319721Y-62066692D01*
X64319720Y-64915158D01*
X64256955Y-64927643D01*
X64046911Y-65067991D01*
X63906563Y-65278035D01*
X63857280Y-65525800D01*
X62339720Y-65525800D01*
X62339720Y-62014438D01*
X69114999Y-55239160D01*
X71803530Y-55239160D01*
X71964560Y-55271191D01*
X72125590Y-55239160D01*
X72125591Y-55239160D01*
X72602505Y-55144296D01*
X73143329Y-54782929D01*
X73234548Y-54646410D01*
X74204320Y-53676638D01*
X74204321Y-64792520D01*
X74204321Y-64792520D01*
G37*
X74204321Y-64792520D02*
X74026680Y-64970162D01*
X73543836Y-65170162D01*
X73027642Y-65686356D01*
X72748280Y-66360796D01*
X72748280Y-67090804D01*
X73027642Y-67765244D01*
X73198281Y-67935883D01*
X73198280Y-69310993D01*
X73171147Y-69447400D01*
X73263737Y-69912880D01*
X73278639Y-69987799D01*
X73584751Y-70445928D01*
X73700393Y-70523198D01*
X74209799Y-71032603D01*
X74287071Y-71148249D01*
X74745200Y-71454361D01*
X75149193Y-71534720D01*
X75149197Y-71534720D01*
X75285599Y-71561852D01*
X75422001Y-71534720D01*
X86829185Y-71534720D01*
X88089832Y-72795368D01*
X88167101Y-72911009D01*
X88625230Y-73217121D01*
X88912000Y-73274163D01*
X88912001Y-78804495D01*
X88833887Y-79197200D01*
X88945260Y-79757109D01*
X89262423Y-80231777D01*
X89595340Y-80454225D01*
X98771602Y-89630488D01*
X98848871Y-89746129D01*
X99307000Y-90052241D01*
X99710993Y-90132600D01*
X99847399Y-90159733D01*
X99983805Y-90132600D01*
X101451285Y-90132600D01*
X101620635Y-90245757D01*
X101868400Y-90295040D01*
X103668400Y-90295040D01*
X103916165Y-90245757D01*
X104126209Y-90105409D01*
X104266557Y-89895365D01*
X104315840Y-89647600D01*
X104315840Y-87847600D01*
X104266557Y-87599835D01*
X104126209Y-87389791D01*
X103916165Y-87249443D01*
X103900492Y-87246325D01*
X104069710Y-87077107D01*
X104303400Y-86512930D01*
X104303400Y-85902270D01*
X104153400Y-85540138D01*
X104153400Y-84375115D01*
X104266557Y-84205765D01*
X104315840Y-83958000D01*
X104315840Y-82158000D01*
X104266557Y-81910235D01*
X104261723Y-81903000D01*
X104617875Y-81903000D01*
X105137520Y-82422646D01*
X105137521Y-90952673D01*
X102362355Y-93727840D01*
X88608600Y-93727840D01*
X88608600Y-92785445D01*
X88635733Y-92649039D01*
X88593675Y-92437599D01*
X88528241Y-92108640D01*
X88376778Y-91881960D01*
X88299397Y-91766151D01*
X88299395Y-91766149D01*
X88222128Y-91650511D01*
X88164135Y-91611761D01*
X88862000Y-91611761D01*
X88862000Y-92182639D01*
X89080466Y-92710062D01*
X89484138Y-93113734D01*
X90011561Y-93332200D01*
X90582439Y-93332200D01*
X90739942Y-93266960D01*
X94745540Y-93266960D01*
X94996907Y-93316960D01*
X95279573Y-93316960D01*
X95698149Y-93233700D01*
X96172817Y-92916537D01*
X96489980Y-92441869D01*
X96601353Y-91881960D01*
X96489980Y-91322051D01*
X96172817Y-90847383D01*
X95698149Y-90530220D01*
X95279573Y-90446960D01*
X94996907Y-90446960D01*
X94745540Y-90496960D01*
X90666357Y-90496960D01*
X90582439Y-90462200D01*
X90011561Y-90462200D01*
X89484138Y-90680666D01*
X89080466Y-91084338D01*
X88862000Y-91611761D01*
X88164135Y-91611761D01*
X88106490Y-91573244D01*
X84082999Y-87549754D01*
X84005729Y-87434111D01*
X83547600Y-87127999D01*
X83143607Y-87047640D01*
X83007200Y-87020507D01*
X82870793Y-87047640D01*
X68414526Y-87047640D01*
X62555446Y-81188560D01*
X65349047Y-81188560D01*
X65460420Y-81748469D01*
X65777583Y-82223137D01*
X66252251Y-82540300D01*
X66670827Y-82623560D01*
X66953493Y-82623560D01*
X67372069Y-82540300D01*
X67846737Y-82223137D01*
X68163900Y-81748469D01*
X68275273Y-81188560D01*
X70068367Y-81188560D01*
X70179740Y-81748469D01*
X70496903Y-82223137D01*
X70971571Y-82540300D01*
X71390147Y-82623560D01*
X71672813Y-82623560D01*
X72091389Y-82540300D01*
X72566057Y-82223137D01*
X72883220Y-81748469D01*
X72981456Y-81254600D01*
X77210847Y-81254600D01*
X77322220Y-81814509D01*
X77639383Y-82289177D01*
X78114051Y-82606340D01*
X78532627Y-82689600D01*
X78815293Y-82689600D01*
X79066660Y-82639600D01*
X83127580Y-82639600D01*
X83378947Y-82689600D01*
X83661613Y-82689600D01*
X84080189Y-82606340D01*
X84091927Y-82598497D01*
X84289280Y-82559241D01*
X84747409Y-82253129D01*
X85053521Y-81795000D01*
X85161013Y-81254600D01*
X85053521Y-80714200D01*
X84747409Y-80256071D01*
X84289280Y-79949959D01*
X84091927Y-79910703D01*
X84080189Y-79902860D01*
X83661613Y-79819600D01*
X83378947Y-79819600D01*
X83127580Y-79869600D01*
X79066660Y-79869600D01*
X78815293Y-79819600D01*
X78532627Y-79819600D01*
X78114051Y-79902860D01*
X77639383Y-80220023D01*
X77322220Y-80694691D01*
X77210847Y-81254600D01*
X72981456Y-81254600D01*
X72994593Y-81188560D01*
X72916480Y-80795860D01*
X72916480Y-77302110D01*
X72966480Y-77181399D01*
X72966480Y-76895960D01*
X82768367Y-76895960D01*
X82879740Y-77455869D01*
X83196903Y-77930537D01*
X83671571Y-78247700D01*
X84090147Y-78330960D01*
X84372813Y-78330960D01*
X84791389Y-78247700D01*
X85266057Y-77930537D01*
X85583220Y-77455869D01*
X85694593Y-76895960D01*
X85583220Y-76336051D01*
X85266057Y-75861383D01*
X84791389Y-75544220D01*
X84372813Y-75460960D01*
X84090147Y-75460960D01*
X83671571Y-75544220D01*
X83196903Y-75861383D01*
X82879740Y-76336051D01*
X82768367Y-76895960D01*
X72966480Y-76895960D01*
X72966480Y-76610521D01*
X72748014Y-76083098D01*
X72344342Y-75679426D01*
X71816919Y-75460960D01*
X71246041Y-75460960D01*
X70718618Y-75679426D01*
X70314946Y-76083098D01*
X70096480Y-76610521D01*
X70096480Y-77181399D01*
X70146480Y-77302110D01*
X70146481Y-80795856D01*
X70068367Y-81188560D01*
X68275273Y-81188560D01*
X68163900Y-80628651D01*
X67846737Y-80153983D01*
X67372069Y-79836820D01*
X66953493Y-79753560D01*
X66670827Y-79753560D01*
X66252251Y-79836820D01*
X65777583Y-80153983D01*
X65460420Y-80628651D01*
X65349047Y-81188560D01*
X62555446Y-81188560D01*
X61682719Y-80315834D01*
X61605449Y-80200191D01*
X61147320Y-79894079D01*
X60743327Y-79813720D01*
X60606920Y-79786587D01*
X60470513Y-79813720D01*
X59717562Y-79813720D01*
X59705077Y-79750955D01*
X59564729Y-79540911D01*
X59354685Y-79400563D01*
X59106920Y-79351280D01*
X56706920Y-79351280D01*
X56459155Y-79400563D01*
X56249111Y-79540911D01*
X56108763Y-79750955D01*
X56059480Y-79998720D01*
X56059480Y-82398720D01*
X56108763Y-82646485D01*
X56249111Y-82856529D01*
X56459155Y-82996877D01*
X56706920Y-83046160D01*
X59106920Y-83046160D01*
X59354685Y-82996877D01*
X59564729Y-82856529D01*
X59705077Y-82646485D01*
X59717562Y-82583720D01*
X60033235Y-82583720D01*
X66765042Y-89315528D01*
X66842311Y-89431169D01*
X66957951Y-89508437D01*
X67300440Y-89737281D01*
X67840840Y-89844773D01*
X67977247Y-89817640D01*
X82433515Y-89817640D01*
X85838600Y-93222726D01*
X85838601Y-94976428D01*
X85811467Y-95112840D01*
X85838600Y-95249247D01*
X85838601Y-99145313D01*
X83612752Y-101371163D01*
X83497112Y-101448431D01*
X83419843Y-101564072D01*
X83340640Y-101682608D01*
X83340640Y-96092925D01*
X84212432Y-95221134D01*
X84333142Y-95171134D01*
X84736814Y-94767462D01*
X84955280Y-94240039D01*
X84955280Y-93669161D01*
X84736814Y-93141738D01*
X84333142Y-92738066D01*
X83805719Y-92519600D01*
X83234841Y-92519600D01*
X82707418Y-92738066D01*
X82303746Y-93141738D01*
X82253746Y-93262448D01*
X81072752Y-94443443D01*
X80957112Y-94520711D01*
X80879843Y-94636352D01*
X80650999Y-94978841D01*
X80543507Y-95519240D01*
X80570641Y-95655652D01*
X80570640Y-103932151D01*
X80414580Y-103698590D01*
X79956262Y-103392352D01*
X79415640Y-103284816D01*
X78976110Y-103372244D01*
X78658635Y-103160114D01*
X77825600Y-102994413D01*
X76992564Y-103160114D01*
X76464617Y-103512877D01*
X73309055Y-106668440D01*
X68197160Y-106668440D01*
X68197160Y-102659880D01*
X69075753Y-102659880D01*
X69212160Y-102687013D01*
X69348567Y-102659880D01*
X69752560Y-102579521D01*
X70210689Y-102273409D01*
X70287959Y-102157766D01*
X72536292Y-99909434D01*
X72651928Y-99832168D01*
X72729194Y-99716532D01*
X72729197Y-99716529D01*
X72958041Y-99374040D01*
X73065533Y-98833640D01*
X72958041Y-98293240D01*
X72916480Y-98231040D01*
X72916480Y-95273560D01*
X78108376Y-95273560D01*
X78388521Y-95389600D01*
X78959399Y-95389600D01*
X79486822Y-95171134D01*
X79890494Y-94767462D01*
X80108960Y-94240039D01*
X80108960Y-93669161D01*
X79890494Y-93141738D01*
X79486822Y-92738066D01*
X79203189Y-92620581D01*
X79148320Y-92583919D01*
X79083598Y-92571045D01*
X78959399Y-92519600D01*
X78824966Y-92519600D01*
X78744327Y-92503560D01*
X78607920Y-92476427D01*
X78471513Y-92503560D01*
X71937630Y-92503560D01*
X71816919Y-92453560D01*
X71246041Y-92453560D01*
X70718618Y-92672026D01*
X70314946Y-93075698D01*
X70096480Y-93603121D01*
X70096480Y-94173999D01*
X70146481Y-94294712D01*
X70146480Y-98381874D01*
X68638475Y-99889880D01*
X68129275Y-99889880D01*
X67959925Y-99776723D01*
X67944252Y-99773605D01*
X68113470Y-99604387D01*
X68347160Y-99040210D01*
X68347160Y-98429550D01*
X68197160Y-98067418D01*
X68197160Y-94294710D01*
X68247160Y-94173999D01*
X68247160Y-93603121D01*
X68028694Y-93075698D01*
X67625022Y-92672026D01*
X67097599Y-92453560D01*
X66526721Y-92453560D01*
X65999298Y-92672026D01*
X65595626Y-93075698D01*
X65377160Y-93603121D01*
X65377160Y-94173999D01*
X65427160Y-94294710D01*
X65427161Y-98067416D01*
X65277160Y-98429550D01*
X65277160Y-99040210D01*
X65510850Y-99604387D01*
X65680068Y-99773605D01*
X65664395Y-99776723D01*
X65454351Y-99917071D01*
X65314003Y-100127115D01*
X65264720Y-100374880D01*
X65264720Y-102174880D01*
X65314003Y-102422645D01*
X65427161Y-102591996D01*
X65427161Y-103538469D01*
X65427160Y-103538474D01*
X65427161Y-106668440D01*
X60252333Y-106668440D01*
X59307792Y-105723900D01*
X59460605Y-105826006D01*
X60293640Y-105991707D01*
X61126676Y-105826006D01*
X61832889Y-105354129D01*
X62304766Y-104647916D01*
X62428640Y-104025159D01*
X62428640Y-97104601D01*
X62304766Y-96481844D01*
X61832889Y-95775631D01*
X61126675Y-95303754D01*
X60293640Y-95138053D01*
X59460604Y-95303754D01*
X58754391Y-95775631D01*
X58282514Y-96481845D01*
X58158640Y-97104602D01*
X58158641Y-104025159D01*
X58282515Y-104647916D01*
X58384622Y-104800730D01*
X57928640Y-104344748D01*
X57928640Y-97525155D01*
X57970466Y-97314880D01*
X57928640Y-97104605D01*
X57928640Y-97104601D01*
X57804766Y-96481844D01*
X57332889Y-95775631D01*
X57154624Y-95656518D01*
X51174712Y-89676607D01*
X51817601Y-89033719D01*
X56545891Y-89033719D01*
X56706921Y-89065750D01*
X56867951Y-89033719D01*
X56867952Y-89033719D01*
X57344866Y-88938855D01*
X57885690Y-88577488D01*
X57976909Y-88440969D01*
X58463520Y-87954358D01*
X58946364Y-87754358D01*
X59462558Y-87238164D01*
X59741920Y-86563724D01*
X59741920Y-85833716D01*
X59462558Y-85159276D01*
X58946364Y-84643082D01*
X58271924Y-84363720D01*
X57541916Y-84363720D01*
X56867476Y-84643082D01*
X56351282Y-85159276D01*
X56151282Y-85642120D01*
X56029683Y-85763719D01*
X51301392Y-85763719D01*
X51140361Y-85731688D01*
X50643920Y-85830436D01*
X50643920Y-78258348D01*
X50769894Y-78132374D01*
X51175920Y-77152139D01*
X51175920Y-76091141D01*
X50769894Y-75110906D01*
X50643920Y-74984932D01*
X50643920Y-74737385D01*
X54262066Y-71119240D01*
X57785250Y-71119240D01*
X57946280Y-71151271D01*
X58107310Y-71119240D01*
X58107311Y-71119240D01*
X58584225Y-71024376D01*
X59125049Y-70663009D01*
X59216268Y-70526490D01*
X61261321Y-68481438D01*
X61744164Y-68281438D01*
X62260358Y-67765244D01*
X62539720Y-67090804D01*
X62539720Y-66360796D01*
X62339720Y-65877953D01*
X62339720Y-65525800D01*
X63857280Y-65525800D01*
X63857280Y-67925800D01*
X63906563Y-68173565D01*
X64046911Y-68383609D01*
X64256955Y-68523957D01*
X64504720Y-68573240D01*
X66904720Y-68573240D01*
X67152485Y-68523957D01*
X67362529Y-68383609D01*
X67502877Y-68173565D01*
X67552160Y-67925800D01*
X67552160Y-65525800D01*
X67502877Y-65278035D01*
X67362529Y-65067991D01*
X67152485Y-64927643D01*
X67089720Y-64915158D01*
X67089720Y-62503965D01*
X71628623Y-57965063D01*
X71961537Y-57742617D01*
X72278700Y-57267949D01*
X72390073Y-56708040D01*
X72278700Y-56148131D01*
X71961537Y-55673463D01*
X71486869Y-55356300D01*
X71068293Y-55273040D01*
X70785627Y-55273040D01*
X70367051Y-55356300D01*
X69892383Y-55673463D01*
X69669937Y-56006377D01*
X64821832Y-60854483D01*
X64706192Y-60931751D01*
X64628923Y-61047392D01*
X64400079Y-61389881D01*
X64292587Y-61930280D01*
X64319721Y-62066692D01*
X64319720Y-64915158D01*
X64256955Y-64927643D01*
X64046911Y-65067991D01*
X63906563Y-65278035D01*
X63857280Y-65525800D01*
X62339720Y-65525800D01*
X62339720Y-62014438D01*
X69114999Y-55239160D01*
X71803530Y-55239160D01*
X71964560Y-55271191D01*
X72125590Y-55239160D01*
X72125591Y-55239160D01*
X72602505Y-55144296D01*
X73143329Y-54782929D01*
X73234548Y-54646410D01*
X74204320Y-53676638D01*
X74204321Y-64792520D01*
G36*
X96938303Y-53290943D02*
X96621140Y-53765611D01*
X96509767Y-54325520D01*
X96621140Y-54885429D01*
X96938303Y-55360097D01*
X97290638Y-55595520D01*
X96938303Y-55830943D01*
X96621140Y-56305611D01*
X96509767Y-56865520D01*
X96621140Y-57425429D01*
X96938303Y-57900097D01*
X97412971Y-58217260D01*
X97831547Y-58300520D01*
X98114213Y-58300520D01*
X98532789Y-58217260D01*
X98707503Y-58100520D01*
X98982618Y-58100520D01*
X99104250Y-58124714D01*
X99225882Y-58100520D01*
X99225886Y-58100520D01*
X99276963Y-58090360D01*
X103394767Y-58090360D01*
X104667760Y-59363353D01*
X104667761Y-73346565D01*
X102414581Y-75599746D01*
X102208491Y-75640740D01*
X101733823Y-75957903D01*
X101416660Y-76432571D01*
X101305287Y-76992480D01*
X101383400Y-77385180D01*
X101383400Y-77855327D01*
X101383401Y-77855332D01*
X101383400Y-79850538D01*
X101233400Y-80212670D01*
X101233400Y-80823330D01*
X101467090Y-81387507D01*
X101636308Y-81556725D01*
X101620635Y-81559843D01*
X101410591Y-81700191D01*
X101270243Y-81910235D01*
X101220960Y-82158000D01*
X101220960Y-83958000D01*
X101270243Y-84205765D01*
X101383400Y-84375116D01*
X101383401Y-85540136D01*
X101233400Y-85902270D01*
X101233400Y-86512930D01*
X101467090Y-87077107D01*
X101636308Y-87246325D01*
X101620635Y-87249443D01*
X101451285Y-87362600D01*
X100421086Y-87362600D01*
X91682000Y-78623515D01*
X91682000Y-72305180D01*
X91760113Y-71912480D01*
X91648740Y-71352571D01*
X91331577Y-70877903D01*
X91151351Y-70757480D01*
X91291963Y-70757480D01*
X91428370Y-70784613D01*
X91564777Y-70757480D01*
X91968770Y-70677121D01*
X92426899Y-70371009D01*
X92504170Y-70255365D01*
X92583370Y-70176165D01*
X92583371Y-77875678D01*
X92556237Y-78012090D01*
X92663729Y-78552489D01*
X92848948Y-78829688D01*
X92969842Y-79010619D01*
X93085482Y-79087887D01*
X93871706Y-79874112D01*
X93921706Y-79994822D01*
X94325378Y-80398494D01*
X94852801Y-80616960D01*
X95423679Y-80616960D01*
X95951102Y-80398494D01*
X96354774Y-79994822D01*
X96573240Y-79467399D01*
X96573240Y-78896521D01*
X96354774Y-78369098D01*
X95951102Y-77965426D01*
X95830392Y-77915426D01*
X95353370Y-77438405D01*
X95353370Y-68217480D01*
X97062649Y-68217480D01*
X96882423Y-68337903D01*
X96565260Y-68812571D01*
X96453887Y-69372480D01*
X96565260Y-69932389D01*
X96882423Y-70407057D01*
X97234758Y-70642480D01*
X96882423Y-70877903D01*
X96565260Y-71352571D01*
X96453887Y-71912480D01*
X96565260Y-72472389D01*
X96882423Y-72947057D01*
X97357091Y-73264220D01*
X97775667Y-73347480D01*
X98058333Y-73347480D01*
X98476909Y-73264220D01*
X98951577Y-72947057D01*
X99268740Y-72472389D01*
X99380113Y-71912480D01*
X99268740Y-71352571D01*
X98951577Y-70877903D01*
X98599242Y-70642480D01*
X98951577Y-70407057D01*
X99268740Y-69932389D01*
X99380113Y-69372480D01*
X99268740Y-68812571D01*
X98951577Y-68337903D01*
X98599242Y-68102480D01*
X98951577Y-67867057D01*
X99268740Y-67392389D01*
X99380113Y-66832480D01*
X99268740Y-66272571D01*
X99038158Y-65927480D01*
X102929431Y-65927480D01*
X103406345Y-65832616D01*
X103947169Y-65471249D01*
X104308536Y-64930425D01*
X104435431Y-64292480D01*
X104308536Y-63654535D01*
X103947169Y-63113711D01*
X103406345Y-62752344D01*
X102929431Y-62657480D01*
X97755969Y-62657480D01*
X97279055Y-62752344D01*
X96738231Y-63113711D01*
X96376864Y-63654535D01*
X96249969Y-64292480D01*
X96376864Y-64930425D01*
X96722349Y-65447480D01*
X94104777Y-65447480D01*
X93968370Y-65420347D01*
X93831963Y-65447480D01*
X93427970Y-65527839D01*
X92969841Y-65833951D01*
X92892570Y-65949595D01*
X91698143Y-67144022D01*
X91760113Y-66832480D01*
X91648740Y-66272571D01*
X91331577Y-65797903D01*
X91210894Y-65717265D01*
X91344765Y-65690637D01*
X91554809Y-65550289D01*
X91695157Y-65340245D01*
X91744440Y-65092480D01*
X91744440Y-63492480D01*
X91695157Y-63244715D01*
X91554809Y-63034671D01*
X91344765Y-62894323D01*
X91097000Y-62845040D01*
X89497000Y-62845040D01*
X89300274Y-62884171D01*
X90616686Y-61567760D01*
X92400873Y-61567760D01*
X92537280Y-61594893D01*
X92673687Y-61567760D01*
X93077680Y-61487401D01*
X93535809Y-61181289D01*
X93613079Y-61065646D01*
X94756004Y-59922721D01*
X101394360Y-59922721D01*
X101394360Y-60493599D01*
X101612826Y-61021022D01*
X102016498Y-61424694D01*
X102543921Y-61643160D01*
X103114799Y-61643160D01*
X103642222Y-61424694D01*
X104045894Y-61021022D01*
X104264360Y-60493599D01*
X104264360Y-59922721D01*
X104045894Y-59395298D01*
X103642222Y-58991626D01*
X103114799Y-58773160D01*
X102543921Y-58773160D01*
X102016498Y-58991626D01*
X101612826Y-59395298D01*
X101394360Y-59922721D01*
X94756004Y-59922721D01*
X95269290Y-59409436D01*
X95384928Y-59332169D01*
X95462195Y-59216531D01*
X95462197Y-59216529D01*
X95691041Y-58874040D01*
X95798533Y-58333640D01*
X95771400Y-58197233D01*
X95771400Y-53170520D01*
X97118529Y-53170520D01*
X96938303Y-53290943D01*
X96938303Y-53290943D01*
G37*
X96938303Y-53290943D02*
X96621140Y-53765611D01*
X96509767Y-54325520D01*
X96621140Y-54885429D01*
X96938303Y-55360097D01*
X97290638Y-55595520D01*
X96938303Y-55830943D01*
X96621140Y-56305611D01*
X96509767Y-56865520D01*
X96621140Y-57425429D01*
X96938303Y-57900097D01*
X97412971Y-58217260D01*
X97831547Y-58300520D01*
X98114213Y-58300520D01*
X98532789Y-58217260D01*
X98707503Y-58100520D01*
X98982618Y-58100520D01*
X99104250Y-58124714D01*
X99225882Y-58100520D01*
X99225886Y-58100520D01*
X99276963Y-58090360D01*
X103394767Y-58090360D01*
X104667760Y-59363353D01*
X104667761Y-73346565D01*
X102414581Y-75599746D01*
X102208491Y-75640740D01*
X101733823Y-75957903D01*
X101416660Y-76432571D01*
X101305287Y-76992480D01*
X101383400Y-77385180D01*
X101383400Y-77855327D01*
X101383401Y-77855332D01*
X101383400Y-79850538D01*
X101233400Y-80212670D01*
X101233400Y-80823330D01*
X101467090Y-81387507D01*
X101636308Y-81556725D01*
X101620635Y-81559843D01*
X101410591Y-81700191D01*
X101270243Y-81910235D01*
X101220960Y-82158000D01*
X101220960Y-83958000D01*
X101270243Y-84205765D01*
X101383400Y-84375116D01*
X101383401Y-85540136D01*
X101233400Y-85902270D01*
X101233400Y-86512930D01*
X101467090Y-87077107D01*
X101636308Y-87246325D01*
X101620635Y-87249443D01*
X101451285Y-87362600D01*
X100421086Y-87362600D01*
X91682000Y-78623515D01*
X91682000Y-72305180D01*
X91760113Y-71912480D01*
X91648740Y-71352571D01*
X91331577Y-70877903D01*
X91151351Y-70757480D01*
X91291963Y-70757480D01*
X91428370Y-70784613D01*
X91564777Y-70757480D01*
X91968770Y-70677121D01*
X92426899Y-70371009D01*
X92504170Y-70255365D01*
X92583370Y-70176165D01*
X92583371Y-77875678D01*
X92556237Y-78012090D01*
X92663729Y-78552489D01*
X92848948Y-78829688D01*
X92969842Y-79010619D01*
X93085482Y-79087887D01*
X93871706Y-79874112D01*
X93921706Y-79994822D01*
X94325378Y-80398494D01*
X94852801Y-80616960D01*
X95423679Y-80616960D01*
X95951102Y-80398494D01*
X96354774Y-79994822D01*
X96573240Y-79467399D01*
X96573240Y-78896521D01*
X96354774Y-78369098D01*
X95951102Y-77965426D01*
X95830392Y-77915426D01*
X95353370Y-77438405D01*
X95353370Y-68217480D01*
X97062649Y-68217480D01*
X96882423Y-68337903D01*
X96565260Y-68812571D01*
X96453887Y-69372480D01*
X96565260Y-69932389D01*
X96882423Y-70407057D01*
X97234758Y-70642480D01*
X96882423Y-70877903D01*
X96565260Y-71352571D01*
X96453887Y-71912480D01*
X96565260Y-72472389D01*
X96882423Y-72947057D01*
X97357091Y-73264220D01*
X97775667Y-73347480D01*
X98058333Y-73347480D01*
X98476909Y-73264220D01*
X98951577Y-72947057D01*
X99268740Y-72472389D01*
X99380113Y-71912480D01*
X99268740Y-71352571D01*
X98951577Y-70877903D01*
X98599242Y-70642480D01*
X98951577Y-70407057D01*
X99268740Y-69932389D01*
X99380113Y-69372480D01*
X99268740Y-68812571D01*
X98951577Y-68337903D01*
X98599242Y-68102480D01*
X98951577Y-67867057D01*
X99268740Y-67392389D01*
X99380113Y-66832480D01*
X99268740Y-66272571D01*
X99038158Y-65927480D01*
X102929431Y-65927480D01*
X103406345Y-65832616D01*
X103947169Y-65471249D01*
X104308536Y-64930425D01*
X104435431Y-64292480D01*
X104308536Y-63654535D01*
X103947169Y-63113711D01*
X103406345Y-62752344D01*
X102929431Y-62657480D01*
X97755969Y-62657480D01*
X97279055Y-62752344D01*
X96738231Y-63113711D01*
X96376864Y-63654535D01*
X96249969Y-64292480D01*
X96376864Y-64930425D01*
X96722349Y-65447480D01*
X94104777Y-65447480D01*
X93968370Y-65420347D01*
X93831963Y-65447480D01*
X93427970Y-65527839D01*
X92969841Y-65833951D01*
X92892570Y-65949595D01*
X91698143Y-67144022D01*
X91760113Y-66832480D01*
X91648740Y-66272571D01*
X91331577Y-65797903D01*
X91210894Y-65717265D01*
X91344765Y-65690637D01*
X91554809Y-65550289D01*
X91695157Y-65340245D01*
X91744440Y-65092480D01*
X91744440Y-63492480D01*
X91695157Y-63244715D01*
X91554809Y-63034671D01*
X91344765Y-62894323D01*
X91097000Y-62845040D01*
X89497000Y-62845040D01*
X89300274Y-62884171D01*
X90616686Y-61567760D01*
X92400873Y-61567760D01*
X92537280Y-61594893D01*
X92673687Y-61567760D01*
X93077680Y-61487401D01*
X93535809Y-61181289D01*
X93613079Y-61065646D01*
X94756004Y-59922721D01*
X101394360Y-59922721D01*
X101394360Y-60493599D01*
X101612826Y-61021022D01*
X102016498Y-61424694D01*
X102543921Y-61643160D01*
X103114799Y-61643160D01*
X103642222Y-61424694D01*
X104045894Y-61021022D01*
X104264360Y-60493599D01*
X104264360Y-59922721D01*
X104045894Y-59395298D01*
X103642222Y-58991626D01*
X103114799Y-58773160D01*
X102543921Y-58773160D01*
X102016498Y-58991626D01*
X101612826Y-59395298D01*
X101394360Y-59922721D01*
X94756004Y-59922721D01*
X95269290Y-59409436D01*
X95384928Y-59332169D01*
X95462195Y-59216531D01*
X95462197Y-59216529D01*
X95691041Y-58874040D01*
X95798533Y-58333640D01*
X95771400Y-58197233D01*
X95771400Y-53170520D01*
X97118529Y-53170520D01*
X96938303Y-53290943D01*
G36*
X80183882Y-60532248D02*
X80261151Y-60647889D01*
X80676414Y-60925359D01*
X80719280Y-60954001D01*
X81259680Y-61061493D01*
X81396087Y-61034360D01*
X86075548Y-61034360D01*
X85780551Y-61231471D01*
X85703280Y-61347115D01*
X81709595Y-65340800D01*
X81393922Y-65340800D01*
X81381437Y-65278035D01*
X81241089Y-65067991D01*
X81031045Y-64927643D01*
X80783280Y-64878360D01*
X78383280Y-64878360D01*
X78135515Y-64927643D01*
X77925471Y-65067991D01*
X77785123Y-65278035D01*
X77735840Y-65525800D01*
X77735840Y-67925800D01*
X77785123Y-68173565D01*
X77925471Y-68383609D01*
X78135515Y-68523957D01*
X78383280Y-68573240D01*
X80783280Y-68573240D01*
X81031045Y-68523957D01*
X81241089Y-68383609D01*
X81381437Y-68173565D01*
X81393922Y-68110800D01*
X82146873Y-68110800D01*
X82283280Y-68137933D01*
X82419687Y-68110800D01*
X82823680Y-68030441D01*
X83281809Y-67724329D01*
X83359080Y-67608685D01*
X87352765Y-63615000D01*
X87859353Y-63615000D01*
X87995760Y-63642133D01*
X88132167Y-63615000D01*
X88536160Y-63534641D01*
X88887926Y-63299598D01*
X88849560Y-63492480D01*
X88849560Y-65092480D01*
X88898843Y-65340245D01*
X89039191Y-65550289D01*
X89249235Y-65690637D01*
X89383106Y-65717265D01*
X89262423Y-65797903D01*
X88945260Y-66272571D01*
X88833887Y-66832480D01*
X88945260Y-67392389D01*
X89262423Y-67867057D01*
X89614758Y-68102480D01*
X89262423Y-68337903D01*
X88945260Y-68812571D01*
X88833887Y-69372480D01*
X88895856Y-69684021D01*
X88478669Y-69266834D01*
X88401399Y-69151191D01*
X87943270Y-68845079D01*
X87539277Y-68764720D01*
X87402870Y-68737587D01*
X87266463Y-68764720D01*
X75968280Y-68764720D01*
X75968280Y-67935882D01*
X76138918Y-67765244D01*
X76338918Y-67282400D01*
X76881572Y-66739747D01*
X77018089Y-66648529D01*
X77379456Y-66107705D01*
X77474320Y-65630791D01*
X77474320Y-65630790D01*
X77506351Y-65469760D01*
X77474320Y-65308730D01*
X77474320Y-57822685D01*
X80183882Y-60532248D01*
X80183882Y-60532248D01*
G37*
X80183882Y-60532248D02*
X80261151Y-60647889D01*
X80676414Y-60925359D01*
X80719280Y-60954001D01*
X81259680Y-61061493D01*
X81396087Y-61034360D01*
X86075548Y-61034360D01*
X85780551Y-61231471D01*
X85703280Y-61347115D01*
X81709595Y-65340800D01*
X81393922Y-65340800D01*
X81381437Y-65278035D01*
X81241089Y-65067991D01*
X81031045Y-64927643D01*
X80783280Y-64878360D01*
X78383280Y-64878360D01*
X78135515Y-64927643D01*
X77925471Y-65067991D01*
X77785123Y-65278035D01*
X77735840Y-65525800D01*
X77735840Y-67925800D01*
X77785123Y-68173565D01*
X77925471Y-68383609D01*
X78135515Y-68523957D01*
X78383280Y-68573240D01*
X80783280Y-68573240D01*
X81031045Y-68523957D01*
X81241089Y-68383609D01*
X81381437Y-68173565D01*
X81393922Y-68110800D01*
X82146873Y-68110800D01*
X82283280Y-68137933D01*
X82419687Y-68110800D01*
X82823680Y-68030441D01*
X83281809Y-67724329D01*
X83359080Y-67608685D01*
X87352765Y-63615000D01*
X87859353Y-63615000D01*
X87995760Y-63642133D01*
X88132167Y-63615000D01*
X88536160Y-63534641D01*
X88887926Y-63299598D01*
X88849560Y-63492480D01*
X88849560Y-65092480D01*
X88898843Y-65340245D01*
X89039191Y-65550289D01*
X89249235Y-65690637D01*
X89383106Y-65717265D01*
X89262423Y-65797903D01*
X88945260Y-66272571D01*
X88833887Y-66832480D01*
X88945260Y-67392389D01*
X89262423Y-67867057D01*
X89614758Y-68102480D01*
X89262423Y-68337903D01*
X88945260Y-68812571D01*
X88833887Y-69372480D01*
X88895856Y-69684021D01*
X88478669Y-69266834D01*
X88401399Y-69151191D01*
X87943270Y-68845079D01*
X87539277Y-68764720D01*
X87402870Y-68737587D01*
X87266463Y-68764720D01*
X75968280Y-68764720D01*
X75968280Y-67935882D01*
X76138918Y-67765244D01*
X76338918Y-67282400D01*
X76881572Y-66739747D01*
X77018089Y-66648529D01*
X77379456Y-66107705D01*
X77474320Y-65630791D01*
X77474320Y-65630790D01*
X77506351Y-65469760D01*
X77474320Y-65308730D01*
X77474320Y-57822685D01*
X80183882Y-60532248D01*
G36*
X87422075Y-60845000D02*
X87378492Y-60845000D01*
X87509837Y-60757238D01*
X87422075Y-60845000D01*
X87422075Y-60845000D01*
G37*
X87422075Y-60845000D02*
X87378492Y-60845000D01*
X87509837Y-60757238D01*
X87422075Y-60845000D01*
G36*
X89208125Y-59074881D02*
X89232487Y-59050519D01*
X89244585Y-59050519D01*
X89208125Y-59074881D01*
X89208125Y-59074881D01*
G37*
X89208125Y-59074881D02*
X89232487Y-59050519D01*
X89244585Y-59050519D01*
X89208125Y-59074881D01*
G36*
X96715857Y-49947183D02*
X96938303Y-50280097D01*
X97118529Y-50400520D01*
X95061287Y-50400520D01*
X94924880Y-50373387D01*
X94788473Y-50400520D01*
X94384480Y-50480879D01*
X93926351Y-50786991D01*
X93849080Y-50902635D01*
X93503513Y-51248202D01*
X93387872Y-51325471D01*
X93310603Y-51441112D01*
X93081759Y-51783601D01*
X92974267Y-52324000D01*
X93001401Y-52460412D01*
X93001400Y-57759954D01*
X91963595Y-58797760D01*
X90351296Y-58797760D01*
X90551410Y-58664048D01*
X90628681Y-58548404D01*
X91054538Y-58122546D01*
X91387457Y-57900097D01*
X91704620Y-57425429D01*
X91815993Y-56865520D01*
X91704620Y-56305611D01*
X91387457Y-55830943D01*
X91035122Y-55595520D01*
X91387457Y-55360097D01*
X91704620Y-54885429D01*
X91815993Y-54325520D01*
X91704620Y-53765611D01*
X91387457Y-53290943D01*
X91035122Y-53055520D01*
X91387457Y-52820097D01*
X91704620Y-52345429D01*
X91815993Y-51785520D01*
X91704620Y-51225611D01*
X91387457Y-50750943D01*
X91266774Y-50670305D01*
X91400645Y-50643677D01*
X91610689Y-50503329D01*
X91751037Y-50293285D01*
X91800320Y-50045520D01*
X91800320Y-48445520D01*
X91751037Y-48197755D01*
X91610689Y-47987711D01*
X91400645Y-47847363D01*
X91152880Y-47798080D01*
X89552880Y-47798080D01*
X89305115Y-47847363D01*
X89095071Y-47987711D01*
X89079830Y-48010520D01*
X88474510Y-48010520D01*
X88352879Y-47986326D01*
X88231248Y-48010520D01*
X88231244Y-48010520D01*
X87871007Y-48082176D01*
X87710737Y-48189265D01*
X87565612Y-48286234D01*
X87565611Y-48286235D01*
X87462495Y-48355135D01*
X87393595Y-48458251D01*
X84104614Y-51747233D01*
X84001495Y-51816135D01*
X83728536Y-52224648D01*
X83656880Y-52584885D01*
X83656880Y-52584888D01*
X83632686Y-52706520D01*
X83656880Y-52828152D01*
X83656881Y-55990557D01*
X83456880Y-56473401D01*
X83456880Y-57044279D01*
X83675346Y-57571702D01*
X84079018Y-57975374D01*
X84606441Y-58193840D01*
X85177319Y-58193840D01*
X85704742Y-57975374D01*
X86108414Y-57571702D01*
X86326880Y-57044279D01*
X86326880Y-56473401D01*
X86126880Y-55990559D01*
X86126880Y-53218073D01*
X88864434Y-50480520D01*
X89079830Y-50480520D01*
X89095071Y-50503329D01*
X89305115Y-50643677D01*
X89438986Y-50670305D01*
X89318303Y-50750943D01*
X89001140Y-51225611D01*
X88889767Y-51785520D01*
X89001140Y-52345429D01*
X89318303Y-52820097D01*
X89670638Y-53055520D01*
X89318303Y-53290943D01*
X89001140Y-53765611D01*
X88889767Y-54325520D01*
X89001140Y-54885429D01*
X89318303Y-55360097D01*
X89670638Y-55595520D01*
X89318303Y-55830943D01*
X89095854Y-56163862D01*
X88979197Y-56280519D01*
X88795208Y-56280519D01*
X88658801Y-56253386D01*
X88522394Y-56280519D01*
X88118401Y-56360878D01*
X87660272Y-56666990D01*
X87583003Y-56782631D01*
X86101275Y-58264360D01*
X81833366Y-58264360D01*
X77474320Y-53905315D01*
X77474320Y-50577247D01*
X77674320Y-50094404D01*
X77674320Y-49364396D01*
X77394958Y-48689956D01*
X76878764Y-48173762D01*
X76204324Y-47894400D01*
X75963006Y-47894400D01*
X74645445Y-46576840D01*
X77039320Y-46576840D01*
X77287085Y-46527557D01*
X77497129Y-46387209D01*
X77637477Y-46177165D01*
X77649962Y-46114400D01*
X78402913Y-46114400D01*
X78539320Y-46141533D01*
X78675727Y-46114400D01*
X82953543Y-46114400D01*
X83089950Y-46141533D01*
X83226357Y-46114400D01*
X83630350Y-46034041D01*
X84088479Y-45727929D01*
X84165750Y-45612285D01*
X84334195Y-45443840D01*
X84499180Y-45443840D01*
X84750547Y-45493840D01*
X85033213Y-45493840D01*
X85284580Y-45443840D01*
X88468953Y-45443840D01*
X88605360Y-45470973D01*
X88741767Y-45443840D01*
X89145760Y-45363481D01*
X89603889Y-45057369D01*
X89681160Y-44941725D01*
X90695780Y-43927105D01*
X96715857Y-49947183D01*
X96715857Y-49947183D01*
G37*
X96715857Y-49947183D02*
X96938303Y-50280097D01*
X97118529Y-50400520D01*
X95061287Y-50400520D01*
X94924880Y-50373387D01*
X94788473Y-50400520D01*
X94384480Y-50480879D01*
X93926351Y-50786991D01*
X93849080Y-50902635D01*
X93503513Y-51248202D01*
X93387872Y-51325471D01*
X93310603Y-51441112D01*
X93081759Y-51783601D01*
X92974267Y-52324000D01*
X93001401Y-52460412D01*
X93001400Y-57759954D01*
X91963595Y-58797760D01*
X90351296Y-58797760D01*
X90551410Y-58664048D01*
X90628681Y-58548404D01*
X91054538Y-58122546D01*
X91387457Y-57900097D01*
X91704620Y-57425429D01*
X91815993Y-56865520D01*
X91704620Y-56305611D01*
X91387457Y-55830943D01*
X91035122Y-55595520D01*
X91387457Y-55360097D01*
X91704620Y-54885429D01*
X91815993Y-54325520D01*
X91704620Y-53765611D01*
X91387457Y-53290943D01*
X91035122Y-53055520D01*
X91387457Y-52820097D01*
X91704620Y-52345429D01*
X91815993Y-51785520D01*
X91704620Y-51225611D01*
X91387457Y-50750943D01*
X91266774Y-50670305D01*
X91400645Y-50643677D01*
X91610689Y-50503329D01*
X91751037Y-50293285D01*
X91800320Y-50045520D01*
X91800320Y-48445520D01*
X91751037Y-48197755D01*
X91610689Y-47987711D01*
X91400645Y-47847363D01*
X91152880Y-47798080D01*
X89552880Y-47798080D01*
X89305115Y-47847363D01*
X89095071Y-47987711D01*
X89079830Y-48010520D01*
X88474510Y-48010520D01*
X88352879Y-47986326D01*
X88231248Y-48010520D01*
X88231244Y-48010520D01*
X87871007Y-48082176D01*
X87710737Y-48189265D01*
X87565612Y-48286234D01*
X87565611Y-48286235D01*
X87462495Y-48355135D01*
X87393595Y-48458251D01*
X84104614Y-51747233D01*
X84001495Y-51816135D01*
X83728536Y-52224648D01*
X83656880Y-52584885D01*
X83656880Y-52584888D01*
X83632686Y-52706520D01*
X83656880Y-52828152D01*
X83656881Y-55990557D01*
X83456880Y-56473401D01*
X83456880Y-57044279D01*
X83675346Y-57571702D01*
X84079018Y-57975374D01*
X84606441Y-58193840D01*
X85177319Y-58193840D01*
X85704742Y-57975374D01*
X86108414Y-57571702D01*
X86326880Y-57044279D01*
X86326880Y-56473401D01*
X86126880Y-55990559D01*
X86126880Y-53218073D01*
X88864434Y-50480520D01*
X89079830Y-50480520D01*
X89095071Y-50503329D01*
X89305115Y-50643677D01*
X89438986Y-50670305D01*
X89318303Y-50750943D01*
X89001140Y-51225611D01*
X88889767Y-51785520D01*
X89001140Y-52345429D01*
X89318303Y-52820097D01*
X89670638Y-53055520D01*
X89318303Y-53290943D01*
X89001140Y-53765611D01*
X88889767Y-54325520D01*
X89001140Y-54885429D01*
X89318303Y-55360097D01*
X89670638Y-55595520D01*
X89318303Y-55830943D01*
X89095854Y-56163862D01*
X88979197Y-56280519D01*
X88795208Y-56280519D01*
X88658801Y-56253386D01*
X88522394Y-56280519D01*
X88118401Y-56360878D01*
X87660272Y-56666990D01*
X87583003Y-56782631D01*
X86101275Y-58264360D01*
X81833366Y-58264360D01*
X77474320Y-53905315D01*
X77474320Y-50577247D01*
X77674320Y-50094404D01*
X77674320Y-49364396D01*
X77394958Y-48689956D01*
X76878764Y-48173762D01*
X76204324Y-47894400D01*
X75963006Y-47894400D01*
X74645445Y-46576840D01*
X77039320Y-46576840D01*
X77287085Y-46527557D01*
X77497129Y-46387209D01*
X77637477Y-46177165D01*
X77649962Y-46114400D01*
X78402913Y-46114400D01*
X78539320Y-46141533D01*
X78675727Y-46114400D01*
X82953543Y-46114400D01*
X83089950Y-46141533D01*
X83226357Y-46114400D01*
X83630350Y-46034041D01*
X84088479Y-45727929D01*
X84165750Y-45612285D01*
X84334195Y-45443840D01*
X84499180Y-45443840D01*
X84750547Y-45493840D01*
X85033213Y-45493840D01*
X85284580Y-45443840D01*
X88468953Y-45443840D01*
X88605360Y-45470973D01*
X88741767Y-45443840D01*
X89145760Y-45363481D01*
X89603889Y-45057369D01*
X89681160Y-44941725D01*
X90695780Y-43927105D01*
X96715857Y-49947183D01*
G36*
X87171477Y-35007706D02*
X86798322Y-35257040D01*
X84967325Y-35257040D01*
X84830919Y-35229907D01*
X84694513Y-35257040D01*
X84290520Y-35337399D01*
X83832391Y-35643511D01*
X83755122Y-35759152D01*
X78837552Y-40676723D01*
X78721911Y-40753992D01*
X78415800Y-41212120D01*
X78415799Y-41212121D01*
X78308307Y-41752520D01*
X78335440Y-41888928D01*
X78335441Y-42974594D01*
X77965635Y-43344400D01*
X77649962Y-43344400D01*
X77637477Y-43281635D01*
X77497129Y-43071591D01*
X77287085Y-42931243D01*
X77039320Y-42881960D01*
X74639320Y-42881960D01*
X74391555Y-42931243D01*
X74181511Y-43071591D01*
X74041163Y-43281635D01*
X74026657Y-43354560D01*
X67558167Y-43354560D01*
X67466967Y-43293622D01*
X67019222Y-43204560D01*
X66716858Y-43204560D01*
X66269113Y-43293622D01*
X65761367Y-43632887D01*
X65422102Y-44140633D01*
X65302968Y-44739560D01*
X65422102Y-45338487D01*
X65761367Y-45846233D01*
X65833693Y-45894560D01*
X64906806Y-45894560D01*
X64427800Y-45415555D01*
X64427800Y-42839285D01*
X66202205Y-41064880D01*
X73372473Y-41064880D01*
X73508880Y-41092013D01*
X73645287Y-41064880D01*
X74049280Y-40984521D01*
X74507409Y-40678409D01*
X74584679Y-40562766D01*
X79727286Y-35420160D01*
X79968604Y-35420160D01*
X80643044Y-35140798D01*
X80813682Y-34970160D01*
X87360234Y-34970160D01*
X87171477Y-35007706D01*
X87171477Y-35007706D01*
G37*
X87171477Y-35007706D02*
X86798322Y-35257040D01*
X84967325Y-35257040D01*
X84830919Y-35229907D01*
X84694513Y-35257040D01*
X84290520Y-35337399D01*
X83832391Y-35643511D01*
X83755122Y-35759152D01*
X78837552Y-40676723D01*
X78721911Y-40753992D01*
X78415800Y-41212120D01*
X78415799Y-41212121D01*
X78308307Y-41752520D01*
X78335440Y-41888928D01*
X78335441Y-42974594D01*
X77965635Y-43344400D01*
X77649962Y-43344400D01*
X77637477Y-43281635D01*
X77497129Y-43071591D01*
X77287085Y-42931243D01*
X77039320Y-42881960D01*
X74639320Y-42881960D01*
X74391555Y-42931243D01*
X74181511Y-43071591D01*
X74041163Y-43281635D01*
X74026657Y-43354560D01*
X67558167Y-43354560D01*
X67466967Y-43293622D01*
X67019222Y-43204560D01*
X66716858Y-43204560D01*
X66269113Y-43293622D01*
X65761367Y-43632887D01*
X65422102Y-44140633D01*
X65302968Y-44739560D01*
X65422102Y-45338487D01*
X65761367Y-45846233D01*
X65833693Y-45894560D01*
X64906806Y-45894560D01*
X64427800Y-45415555D01*
X64427800Y-42839285D01*
X66202205Y-41064880D01*
X73372473Y-41064880D01*
X73508880Y-41092013D01*
X73645287Y-41064880D01*
X74049280Y-40984521D01*
X74507409Y-40678409D01*
X74584679Y-40562766D01*
X79727286Y-35420160D01*
X79968604Y-35420160D01*
X80643044Y-35140798D01*
X80813682Y-34970160D01*
X87360234Y-34970160D01*
X87171477Y-35007706D01*
G36*
X115808201Y-37576114D02*
X115808201Y-37832478D01*
X115685043Y-38016795D01*
X115635760Y-38264560D01*
X115635760Y-39784560D01*
X115685043Y-40032325D01*
X115825391Y-40242369D01*
X116035435Y-40382717D01*
X116216249Y-40418683D01*
X116117692Y-40517240D01*
X116044671Y-40566031D01*
X115995880Y-40639052D01*
X115860576Y-40774356D01*
X115787350Y-40951139D01*
X115738559Y-41024160D01*
X115721426Y-41110294D01*
X115648200Y-41287077D01*
X115648200Y-41478426D01*
X115631067Y-41564560D01*
X115648200Y-41650694D01*
X115648200Y-41842043D01*
X115721426Y-42018826D01*
X115738559Y-42104960D01*
X115787350Y-42177981D01*
X115860576Y-42354764D01*
X115995880Y-42490068D01*
X116044671Y-42563089D01*
X116117692Y-42611880D01*
X116225372Y-42719560D01*
X115605206Y-42719560D01*
X113922240Y-41036595D01*
X113922240Y-38373565D01*
X113949373Y-38237159D01*
X113922088Y-38099991D01*
X113841881Y-37696760D01*
X113535769Y-37238631D01*
X113420125Y-37161360D01*
X112017920Y-35759155D01*
X111940649Y-35643511D01*
X111831710Y-35570720D01*
X113802807Y-35570720D01*
X115808201Y-37576114D01*
X115808201Y-37576114D01*
G37*
X115808201Y-37576114D02*
X115808201Y-37832478D01*
X115685043Y-38016795D01*
X115635760Y-38264560D01*
X115635760Y-39784560D01*
X115685043Y-40032325D01*
X115825391Y-40242369D01*
X116035435Y-40382717D01*
X116216249Y-40418683D01*
X116117692Y-40517240D01*
X116044671Y-40566031D01*
X115995880Y-40639052D01*
X115860576Y-40774356D01*
X115787350Y-40951139D01*
X115738559Y-41024160D01*
X115721426Y-41110294D01*
X115648200Y-41287077D01*
X115648200Y-41478426D01*
X115631067Y-41564560D01*
X115648200Y-41650694D01*
X115648200Y-41842043D01*
X115721426Y-42018826D01*
X115738559Y-42104960D01*
X115787350Y-42177981D01*
X115860576Y-42354764D01*
X115995880Y-42490068D01*
X116044671Y-42563089D01*
X116117692Y-42611880D01*
X116225372Y-42719560D01*
X115605206Y-42719560D01*
X113922240Y-41036595D01*
X113922240Y-38373565D01*
X113949373Y-38237159D01*
X113922088Y-38099991D01*
X113841881Y-37696760D01*
X113535769Y-37238631D01*
X113420125Y-37161360D01*
X112017920Y-35759155D01*
X111940649Y-35643511D01*
X111831710Y-35570720D01*
X113802807Y-35570720D01*
X115808201Y-37576114D01*
G36*
X115952821Y-29554890D02*
X116411139Y-29861128D01*
X116951760Y-29968664D01*
X117101420Y-29938895D01*
X117226164Y-30022246D01*
X117848921Y-30146120D01*
X118740649Y-30146120D01*
X119683400Y-31088872D01*
X119683400Y-31549881D01*
X119641573Y-31760160D01*
X119807274Y-32593196D01*
X120279151Y-33299409D01*
X120985364Y-33771286D01*
X121400432Y-33853848D01*
X121818400Y-33936987D01*
X122028678Y-33895160D01*
X126837015Y-33895160D01*
X127780238Y-34838384D01*
X127899352Y-35016650D01*
X128077617Y-35135763D01*
X128077618Y-35135764D01*
X128514860Y-35427920D01*
X128605565Y-35488527D01*
X129018778Y-35570720D01*
X129103459Y-35587564D01*
X129591825Y-36075931D01*
X130001295Y-36688745D01*
X130227641Y-36839984D01*
X130227640Y-38430554D01*
X125938635Y-42719560D01*
X125239594Y-42719560D01*
X125473769Y-42563089D01*
X125551039Y-42447446D01*
X126490970Y-41507516D01*
X126606608Y-41430249D01*
X126683875Y-41314611D01*
X126683877Y-41314609D01*
X126912721Y-40972120D01*
X127020213Y-40431720D01*
X126993080Y-40295313D01*
X126993080Y-36585405D01*
X127020213Y-36448999D01*
X126992725Y-36310808D01*
X126912721Y-35908600D01*
X126606609Y-35450471D01*
X126490968Y-35373202D01*
X125662795Y-34545030D01*
X125585528Y-34429392D01*
X125469889Y-34352124D01*
X125469888Y-34352123D01*
X125327685Y-34257106D01*
X125127400Y-34123279D01*
X124587000Y-34015787D01*
X124220743Y-34088640D01*
X122265190Y-34088640D01*
X122144479Y-34038640D01*
X121573601Y-34038640D01*
X121046178Y-34257106D01*
X120642506Y-34660778D01*
X120588646Y-34790808D01*
X120353617Y-34439063D01*
X119878949Y-34121900D01*
X119460373Y-34038640D01*
X119177707Y-34038640D01*
X118759131Y-34121900D01*
X118284463Y-34439063D01*
X117967300Y-34913731D01*
X117855927Y-35473640D01*
X117967300Y-36033549D01*
X118284463Y-36508217D01*
X118759131Y-36825380D01*
X119177707Y-36908640D01*
X119460373Y-36908640D01*
X119878949Y-36825380D01*
X120353617Y-36508217D01*
X120588646Y-36156472D01*
X120642506Y-36286502D01*
X121046178Y-36690174D01*
X121573601Y-36908640D01*
X122144479Y-36908640D01*
X122265190Y-36858640D01*
X124059035Y-36858640D01*
X124223081Y-37022686D01*
X124223080Y-39858034D01*
X123901555Y-40179560D01*
X123118817Y-40179560D01*
X123217197Y-40032325D01*
X123266480Y-39784560D01*
X123266480Y-38264560D01*
X123217197Y-38016795D01*
X123076849Y-37806751D01*
X122866805Y-37666403D01*
X122619040Y-37617120D01*
X121099040Y-37617120D01*
X120851275Y-37666403D01*
X120666959Y-37789560D01*
X118278200Y-37789560D01*
X118278200Y-37186192D01*
X118302394Y-37064560D01*
X118278200Y-36942928D01*
X118278200Y-36942924D01*
X118206544Y-36582687D01*
X117933585Y-36174175D01*
X117830466Y-36105273D01*
X115273647Y-33548454D01*
X115204745Y-33445335D01*
X114796233Y-33172376D01*
X114435996Y-33100720D01*
X114435992Y-33100720D01*
X114314360Y-33076526D01*
X114192728Y-33100720D01*
X113357990Y-33100720D01*
X113405840Y-32860160D01*
X113405840Y-30660160D01*
X113356557Y-30412395D01*
X113216209Y-30202351D01*
X113043400Y-30086883D01*
X113043400Y-29296426D01*
X113141760Y-29149220D01*
X113412821Y-29554890D01*
X113871139Y-29861128D01*
X114411760Y-29968664D01*
X114952382Y-29861128D01*
X115410700Y-29554890D01*
X115681760Y-29149220D01*
X115952821Y-29554890D01*
X115952821Y-29554890D01*
G37*
X115952821Y-29554890D02*
X116411139Y-29861128D01*
X116951760Y-29968664D01*
X117101420Y-29938895D01*
X117226164Y-30022246D01*
X117848921Y-30146120D01*
X118740649Y-30146120D01*
X119683400Y-31088872D01*
X119683400Y-31549881D01*
X119641573Y-31760160D01*
X119807274Y-32593196D01*
X120279151Y-33299409D01*
X120985364Y-33771286D01*
X121400432Y-33853848D01*
X121818400Y-33936987D01*
X122028678Y-33895160D01*
X126837015Y-33895160D01*
X127780238Y-34838384D01*
X127899352Y-35016650D01*
X128077617Y-35135763D01*
X128077618Y-35135764D01*
X128514860Y-35427920D01*
X128605565Y-35488527D01*
X129018778Y-35570720D01*
X129103459Y-35587564D01*
X129591825Y-36075931D01*
X130001295Y-36688745D01*
X130227641Y-36839984D01*
X130227640Y-38430554D01*
X125938635Y-42719560D01*
X125239594Y-42719560D01*
X125473769Y-42563089D01*
X125551039Y-42447446D01*
X126490970Y-41507516D01*
X126606608Y-41430249D01*
X126683875Y-41314611D01*
X126683877Y-41314609D01*
X126912721Y-40972120D01*
X127020213Y-40431720D01*
X126993080Y-40295313D01*
X126993080Y-36585405D01*
X127020213Y-36448999D01*
X126992725Y-36310808D01*
X126912721Y-35908600D01*
X126606609Y-35450471D01*
X126490968Y-35373202D01*
X125662795Y-34545030D01*
X125585528Y-34429392D01*
X125469889Y-34352124D01*
X125469888Y-34352123D01*
X125327685Y-34257106D01*
X125127400Y-34123279D01*
X124587000Y-34015787D01*
X124220743Y-34088640D01*
X122265190Y-34088640D01*
X122144479Y-34038640D01*
X121573601Y-34038640D01*
X121046178Y-34257106D01*
X120642506Y-34660778D01*
X120588646Y-34790808D01*
X120353617Y-34439063D01*
X119878949Y-34121900D01*
X119460373Y-34038640D01*
X119177707Y-34038640D01*
X118759131Y-34121900D01*
X118284463Y-34439063D01*
X117967300Y-34913731D01*
X117855927Y-35473640D01*
X117967300Y-36033549D01*
X118284463Y-36508217D01*
X118759131Y-36825380D01*
X119177707Y-36908640D01*
X119460373Y-36908640D01*
X119878949Y-36825380D01*
X120353617Y-36508217D01*
X120588646Y-36156472D01*
X120642506Y-36286502D01*
X121046178Y-36690174D01*
X121573601Y-36908640D01*
X122144479Y-36908640D01*
X122265190Y-36858640D01*
X124059035Y-36858640D01*
X124223081Y-37022686D01*
X124223080Y-39858034D01*
X123901555Y-40179560D01*
X123118817Y-40179560D01*
X123217197Y-40032325D01*
X123266480Y-39784560D01*
X123266480Y-38264560D01*
X123217197Y-38016795D01*
X123076849Y-37806751D01*
X122866805Y-37666403D01*
X122619040Y-37617120D01*
X121099040Y-37617120D01*
X120851275Y-37666403D01*
X120666959Y-37789560D01*
X118278200Y-37789560D01*
X118278200Y-37186192D01*
X118302394Y-37064560D01*
X118278200Y-36942928D01*
X118278200Y-36942924D01*
X118206544Y-36582687D01*
X117933585Y-36174175D01*
X117830466Y-36105273D01*
X115273647Y-33548454D01*
X115204745Y-33445335D01*
X114796233Y-33172376D01*
X114435996Y-33100720D01*
X114435992Y-33100720D01*
X114314360Y-33076526D01*
X114192728Y-33100720D01*
X113357990Y-33100720D01*
X113405840Y-32860160D01*
X113405840Y-30660160D01*
X113356557Y-30412395D01*
X113216209Y-30202351D01*
X113043400Y-30086883D01*
X113043400Y-29296426D01*
X113141760Y-29149220D01*
X113412821Y-29554890D01*
X113871139Y-29861128D01*
X114411760Y-29968664D01*
X114952382Y-29861128D01*
X115410700Y-29554890D01*
X115681760Y-29149220D01*
X115952821Y-29554890D01*
G36*
X109958810Y-33100720D02*
X104534263Y-33100720D01*
X104482472Y-33066114D01*
X104612502Y-33012254D01*
X104629596Y-32995160D01*
X109937813Y-32995160D01*
X109958810Y-33100720D01*
X109958810Y-33100720D01*
G37*
X109958810Y-33100720D02*
X104534263Y-33100720D01*
X104482472Y-33066114D01*
X104612502Y-33012254D01*
X104629596Y-32995160D01*
X109937813Y-32995160D01*
X109958810Y-33100720D01*
M02*
