M48
; DRILL file {KiCad 9.0.6} date 2025-12-01T13:26:05+0900
; FORMAT={-:-/ absolute / metric / decimal}
; #@! TF.CreationDate,2025-12-01T13:26:05+09:00
; #@! TF.GenerationSoftware,Kicad,Pcbnew,9.0.6
; #@! TF.FileFunction,Plated,1,2,PTH
FMAT,2
METRIC
; #@! TA.AperFunction,Plated,PTH,ComponentDrill
T1C0.800
; #@! TA.AperFunction,Plated,PTH,ComponentDrill
T2C0.900
; #@! TA.AperFunction,Plated,PTH,ComponentDrill
T3C1.000
; #@! TA.AperFunction,Plated,PTH,ComponentDrill
T4C1.001
; #@! TA.AperFunction,Plated,PTH,ComponentDrill
T5C1.100
; #@! TA.AperFunction,Plated,PTH,ComponentDrill
T6C1.200
; #@! TA.AperFunction,Plated,PTH,ComponentDrill
T7C1.600
; #@! TA.AperFunction,Plated,PTH,ComponentDrill
T8C1.800
; #@! TA.AperFunction,Plated,PTH,ComponentDrill
T9C3.048
%
G90
G05
T1
X53.035Y-56.784
X53.035Y-69.484
X53.076Y-39.639
X53.076Y-52.339
X58.166Y-60.706
X58.166Y-63.246
X58.166Y-65.786
X58.227Y-56.708
X63.891Y-60.691
X63.891Y-63.231
X63.891Y-65.771
X66.812Y-81.189
X66.812Y-93.889
X70.927Y-56.708
X71.531Y-76.896
X71.531Y-81.189
X71.531Y-93.889
X78.674Y-81.255
X78.674Y-93.955
X83.52Y-81.255
X83.52Y-93.955
X84.231Y-76.896
X84.892Y-44.059
X84.892Y-56.759
X90.297Y-64.292
X90.297Y-66.832
X90.297Y-69.372
X90.297Y-71.912
X90.297Y-79.197
X90.297Y-91.897
X90.353Y-49.246
X90.353Y-51.786
X90.353Y-54.326
X90.353Y-56.866
X95.138Y-79.182
X95.138Y-91.882
X97.917Y-64.292
X97.917Y-66.832
X97.917Y-69.372
X97.917Y-71.912
X97.973Y-49.246
X97.973Y-51.786
X97.973Y-54.326
X97.973Y-56.866
X103.688Y-64.323
X103.688Y-77.023
X103.8Y-39.03
X103.8Y-41.57
X103.8Y-44.11
X107.909Y-41.59
X107.909Y-54.29
X107.95Y-57.44
X107.95Y-70.14
X112.537Y-41.61
X112.537Y-54.31
X117.043Y-39.025
X117.043Y-41.565
X117.043Y-44.105
X119.319Y-35.474
X121.859Y-35.474
X121.859Y-39.025
X121.859Y-41.565
X121.859Y-44.105
T2
X66.812Y-98.735
X66.812Y-101.275
X103.693Y-81.087
X103.693Y-83.627
X103.713Y-86.919
X103.713Y-89.459
T3
X66.868Y-44.74
X66.868Y-47.28
X66.868Y-49.82
X90.373Y-42.291
X97.873Y-42.291
T4
X79.416Y-105.197
X81.956Y-105.197
X84.496Y-105.197
X109.047Y-29.449
X111.587Y-29.449
X114.127Y-29.449
T5
X55.794Y-97.315
X55.794Y-103.815
X58.252Y-39.649
X58.252Y-49.809
X60.294Y-97.315
X60.294Y-103.815
X87.848Y-36.642
X98.008Y-36.642
X119.04Y-31.496
X124.12Y-31.496
T6
X57.907Y-81.199
X57.907Y-86.199
X74.583Y-66.726
X75.839Y-44.729
X75.839Y-49.729
X79.583Y-66.726
X79.604Y-28.585
X79.604Y-33.585
X96.611Y-98.791
X96.611Y-103.791
X119.131Y-51.913
X124.131Y-51.913
T7
X55.098Y-27.584
X55.098Y-34.117
X70.338Y-27.584
X70.338Y-34.117
X107.579Y-99.675
X107.579Y-106.131
X122.819Y-99.675
X122.819Y-106.131
X131.613Y-35.077
X131.613Y-50.317
X138.831Y-35.077
X138.831Y-50.317
T8
X125.105Y-60.686
X125.105Y-73.386
X125.105Y-79.314
X125.105Y-92.014
T9
X48.509Y-76.622
X48.539Y-40.102
X128.367Y-108.788
X137.155Y-98.334
M30
