M48
;DRILL file {KiCad (5.0.2)-1} date 2019-02-13 오후 1:24:34
;FORMAT={-:-/ absolute / inch / decimal}
FMAT,2
INCH,TZ
T1C0.0315
T2C0.0354
T3C0.0394
T4C0.0394
T5C0.0433
T6C0.0472
T7C0.0630
T8C0.0709
T9C0.1200
T10C0.1260
%
G90
G05
T1
X2.29Y-2.39
X2.29Y-2.49
X2.29Y-2.59
X3.3422Y-1.7346
X3.3422Y-2.2346
X3.555Y-2.5312
X3.555Y-2.6312
X3.555Y-2.7312
X3.555Y-2.8312
X3.855Y-2.5312
X3.855Y-2.6312
X3.855Y-2.7312
X3.855Y-2.8312
X3.555Y-3.118
X3.555Y-3.618
X2.8162Y-3.0274
X3.3162Y-3.0274
X2.6304Y-3.1964
X2.6304Y-3.6964
X2.8162Y-3.1964
X2.8162Y-3.6964
X2.2924Y-2.2326
X2.7924Y-2.2326
X2.5154Y-2.3894
X2.5154Y-2.4894
X2.5154Y-2.5894
X4.0866Y-1.5366
X4.0866Y-1.6366
X4.0866Y-1.7366
X2.088Y-2.2356
X2.088Y-2.7356
X4.7976Y-1.5364
X4.7976Y-1.6364
X4.7976Y-1.7364
X3.7456Y-3.1174
X3.7456Y-3.6174
X4.25Y-2.2614
X4.25Y-2.7614
X4.2484Y-1.6374
X4.2484Y-2.1374
X4.0822Y-2.5324
X4.0822Y-3.0324
X4.4306Y-1.6382
X4.4306Y-2.1382
X2.0896Y-1.5606
X2.0896Y-2.0606
X3.0974Y-3.199
X3.0974Y-3.699
X3.2882Y-3.199
X3.2882Y-3.699
X3.5572Y-1.9388
X3.5572Y-2.0388
X3.5572Y-2.1388
X3.5572Y-2.2388
X3.8572Y-1.9388
X3.8572Y-2.0388
X3.8572Y-2.1388
X3.8572Y-2.2388
X4.6976Y-1.3966
X4.7976Y-1.3966
X4.608Y-1.5364
X4.608Y-1.6364
X4.608Y-1.7364
T2
X4.0824Y-3.1924
X4.0824Y-3.2924
X2.6304Y-3.8872
X2.6304Y-3.9872
X4.0832Y-3.422
X4.0832Y-3.522
T3
X2.6326Y-1.7614
X2.6326Y-1.8614
X2.6326Y-1.9614
X3.558Y-1.665
X3.8533Y-1.665
T4
X4.2932Y-1.1594
X4.3932Y-1.1594
X4.4932Y-1.1594
X3.1266Y-4.1416
X3.2266Y-4.1416
X3.3266Y-4.1416
T5
X2.1966Y-3.8313
X2.1966Y-4.0872
X2.3738Y-3.8313
X2.3738Y-4.0872
X4.6866Y-1.24
X4.8866Y-1.24
X3.4586Y-1.4426
X3.8586Y-1.4426
X2.2934Y-1.561
X2.2934Y-1.961
T6
X3.8036Y-3.8894
X3.8036Y-4.0863
X4.6902Y-2.0438
X4.8871Y-2.0438
X2.9363Y-2.627
X3.1332Y-2.627
X2.9858Y-1.761
X2.9858Y-1.9579
X3.134Y-1.1254
X3.134Y-1.3223
X2.2798Y-3.1968
X2.2798Y-3.3937
T7
X2.1692Y-1.086
X2.7692Y-1.086
X5.1816Y-1.381
X5.1816Y-1.981
X5.4658Y-1.381
X5.4658Y-1.981
X2.1692Y-1.3432
X2.7692Y-1.3432
X4.2354Y-4.1784
X4.8354Y-4.1784
X4.2354Y-3.9242
X4.8354Y-3.9242
T8
X4.9254Y-2.3892
X4.9254Y-2.8892
X4.9254Y-3.1226
X4.9254Y-3.6226
T9
X1.911Y-1.5788
X5.0538Y-4.283
X5.3998Y-3.8714
X1.9098Y-3.0166
T10
X1.9178Y-1.0916
X5.4258Y-1.091
X1.9178Y-4.2818
X5.4226Y-4.2886
T0
M30
