%TF.GenerationSoftware,KiCad,Pcbnew,9.0.6*%
%TF.CreationDate,2025-12-01T13:26:05+09:00*%
%TF.ProjectId,ATTiny85-mppt,41545469-6e79-4383-952d-6d7070742e6b,1.9*%
%TF.SameCoordinates,Original*%
%TF.FileFunction,Drillmap*%
%TF.FilePolarity,Positive*%
%FSLAX45Y45*%
G04 Gerber Fmt 4.5, Leading zero omitted, Abs format (unit mm)*
G04 Created by KiCad (PCBNEW 9.0.6) date 2025-12-01 13:26:05*
%MOMM*%
%LPD*%
G01*
G04 APERTURE LIST*
%ADD10C,0.100000*%
%ADD11C,0.200000*%
%ADD12C,0.100076*%
%ADD13C,0.110000*%
%ADD14C,0.120000*%
%ADD15C,0.160000*%
%ADD16C,0.180000*%
%ADD17C,0.304800*%
G04 APERTURE END LIST*
D10*
X4457700Y-11351768D02*
X4465828Y-11089640D01*
X14217904Y-11360404D02*
X4457700Y-11351768D01*
X4465320Y-11338052D02*
X4465320Y-2279396D01*
X14221968Y-2305812D02*
X14221968Y-11362944D01*
X4478020Y-2305812D02*
X14221968Y-2305812D01*
D11*
D10*
X5263520Y-5638424D02*
X5343520Y-5718424D01*
X5343520Y-5638424D02*
X5263520Y-5718424D01*
X5263520Y-6908424D02*
X5343520Y-6988424D01*
X5343520Y-6908424D02*
X5263520Y-6988424D01*
X5267584Y-3923924D02*
X5347584Y-4003924D01*
X5347584Y-3923924D02*
X5267584Y-4003924D01*
X5267584Y-5193924D02*
X5347584Y-5273924D01*
X5347584Y-5193924D02*
X5267584Y-5273924D01*
X5776600Y-6030600D02*
X5856600Y-6110600D01*
X5856600Y-6030600D02*
X5776600Y-6110600D01*
X5776600Y-6284600D02*
X5856600Y-6364600D01*
X5856600Y-6284600D02*
X5776600Y-6364600D01*
X5776600Y-6538600D02*
X5856600Y-6618600D01*
X5856600Y-6538600D02*
X5776600Y-6618600D01*
X5782696Y-5630804D02*
X5862696Y-5710804D01*
X5862696Y-5630804D02*
X5782696Y-5710804D01*
X6349116Y-6029076D02*
X6429116Y-6109076D01*
X6429116Y-6029076D02*
X6349116Y-6109076D01*
X6349116Y-6283076D02*
X6429116Y-6363076D01*
X6429116Y-6283076D02*
X6349116Y-6363076D01*
X6349116Y-6537076D02*
X6429116Y-6617076D01*
X6429116Y-6537076D02*
X6349116Y-6617076D01*
X6641216Y-8078856D02*
X6721216Y-8158856D01*
X6721216Y-8078856D02*
X6641216Y-8158856D01*
X6641216Y-9348856D02*
X6721216Y-9428856D01*
X6721216Y-9348856D02*
X6641216Y-9428856D01*
X7052696Y-5630804D02*
X7132696Y-5710804D01*
X7132696Y-5630804D02*
X7052696Y-5710804D01*
X7113148Y-7649596D02*
X7193148Y-7729596D01*
X7193148Y-7649596D02*
X7113148Y-7729596D01*
X7113148Y-8078856D02*
X7193148Y-8158856D01*
X7193148Y-8078856D02*
X7113148Y-8158856D01*
X7113148Y-9348856D02*
X7193148Y-9428856D01*
X7193148Y-9348856D02*
X7113148Y-9428856D01*
X7827396Y-8085460D02*
X7907396Y-8165460D01*
X7907396Y-8085460D02*
X7827396Y-8165460D01*
X7827396Y-9355460D02*
X7907396Y-9435460D01*
X7907396Y-9355460D02*
X7827396Y-9435460D01*
X8312028Y-8085460D02*
X8392028Y-8165460D01*
X8392028Y-8085460D02*
X8312028Y-8165460D01*
X8312028Y-9355460D02*
X8392028Y-9435460D01*
X8392028Y-9355460D02*
X8312028Y-9435460D01*
X8383148Y-7649596D02*
X8463148Y-7729596D01*
X8463148Y-7649596D02*
X8383148Y-7729596D01*
X8449188Y-4365884D02*
X8529188Y-4445884D01*
X8529188Y-4365884D02*
X8449188Y-4445884D01*
X8449188Y-5635884D02*
X8529188Y-5715884D01*
X8529188Y-5635884D02*
X8449188Y-5715884D01*
X8989700Y-6389248D02*
X9069700Y-6469248D01*
X9069700Y-6389248D02*
X8989700Y-6469248D01*
X8989700Y-6643248D02*
X9069700Y-6723248D01*
X9069700Y-6643248D02*
X8989700Y-6723248D01*
X8989700Y-6897248D02*
X9069700Y-6977248D01*
X9069700Y-6897248D02*
X8989700Y-6977248D01*
X8989700Y-7151248D02*
X9069700Y-7231248D01*
X9069700Y-7151248D02*
X8989700Y-7231248D01*
X8989700Y-7879720D02*
X9069700Y-7959720D01*
X9069700Y-7879720D02*
X8989700Y-7959720D01*
X8989700Y-9149720D02*
X9069700Y-9229720D01*
X9069700Y-9149720D02*
X8989700Y-9229720D01*
X8995288Y-4884552D02*
X9075288Y-4964552D01*
X9075288Y-4884552D02*
X8995288Y-4964552D01*
X8995288Y-5138552D02*
X9075288Y-5218552D01*
X9075288Y-5138552D02*
X8995288Y-5218552D01*
X8995288Y-5392552D02*
X9075288Y-5472552D01*
X9075288Y-5392552D02*
X8995288Y-5472552D01*
X8995288Y-5646552D02*
X9075288Y-5726552D01*
X9075288Y-5646552D02*
X8995288Y-5726552D01*
X9473824Y-7878196D02*
X9553824Y-7958196D01*
X9553824Y-7878196D02*
X9473824Y-7958196D01*
X9473824Y-9148196D02*
X9553824Y-9228196D01*
X9553824Y-9148196D02*
X9473824Y-9228196D01*
X9751700Y-6389248D02*
X9831700Y-6469248D01*
X9831700Y-6389248D02*
X9751700Y-6469248D01*
X9751700Y-6643248D02*
X9831700Y-6723248D01*
X9831700Y-6643248D02*
X9751700Y-6723248D01*
X9751700Y-6897248D02*
X9831700Y-6977248D01*
X9831700Y-6897248D02*
X9751700Y-6977248D01*
X9751700Y-7151248D02*
X9831700Y-7231248D01*
X9831700Y-7151248D02*
X9751700Y-7231248D01*
X9757288Y-4884552D02*
X9837288Y-4964552D01*
X9837288Y-4884552D02*
X9757288Y-4964552D01*
X9757288Y-5138552D02*
X9837288Y-5218552D01*
X9837288Y-5138552D02*
X9757288Y-5218552D01*
X9757288Y-5392552D02*
X9837288Y-5472552D01*
X9837288Y-5392552D02*
X9757288Y-5472552D01*
X9757288Y-5646552D02*
X9837288Y-5726552D01*
X9837288Y-5646552D02*
X9757288Y-5726552D01*
X10328788Y-6392296D02*
X10408788Y-6472296D01*
X10408788Y-6392296D02*
X10328788Y-6472296D01*
X10328788Y-7662296D02*
X10408788Y-7742296D01*
X10408788Y-7662296D02*
X10328788Y-7742296D01*
X10339964Y-3862964D02*
X10419964Y-3942964D01*
X10419964Y-3862964D02*
X10339964Y-3942964D01*
X10339964Y-4116964D02*
X10419964Y-4196964D01*
X10419964Y-4116964D02*
X10339964Y-4196964D01*
X10339964Y-4370964D02*
X10419964Y-4450964D01*
X10419964Y-4370964D02*
X10339964Y-4450964D01*
X10750936Y-4118996D02*
X10830936Y-4198996D01*
X10830936Y-4118996D02*
X10750936Y-4198996D01*
X10750936Y-5388996D02*
X10830936Y-5468996D01*
X10830936Y-5388996D02*
X10750936Y-5468996D01*
X10755000Y-5703956D02*
X10835000Y-5783956D01*
X10835000Y-5703956D02*
X10755000Y-5783956D01*
X10755000Y-6973956D02*
X10835000Y-7053956D01*
X10835000Y-6973956D02*
X10755000Y-7053956D01*
X11213724Y-4121028D02*
X11293724Y-4201028D01*
X11293724Y-4121028D02*
X11213724Y-4201028D01*
X11213724Y-5391028D02*
X11293724Y-5471028D01*
X11293724Y-5391028D02*
X11213724Y-5471028D01*
X11664320Y-3862456D02*
X11744320Y-3942456D01*
X11744320Y-3862456D02*
X11664320Y-3942456D01*
X11664320Y-4116456D02*
X11744320Y-4196456D01*
X11744320Y-4116456D02*
X11664320Y-4196456D01*
X11664320Y-4370456D02*
X11744320Y-4450456D01*
X11744320Y-4370456D02*
X11664320Y-4450456D01*
X11891904Y-3507364D02*
X11971904Y-3587364D01*
X11971904Y-3507364D02*
X11891904Y-3587364D01*
X12145904Y-3507364D02*
X12225904Y-3587364D01*
X12225904Y-3507364D02*
X12145904Y-3587364D01*
X12145904Y-3862456D02*
X12225904Y-3942456D01*
X12225904Y-3862456D02*
X12145904Y-3942456D01*
X12145904Y-4116456D02*
X12225904Y-4196456D01*
X12225904Y-4116456D02*
X12145904Y-4196456D01*
X12145904Y-4370456D02*
X12225904Y-4450456D01*
X12225904Y-4370456D02*
X12145904Y-4450456D01*
X6726216Y-9873488D02*
G75*
G02*
X6636216Y-9873488I-45000J0D01*
G01*
X6636216Y-9873488D02*
G75*
G02*
X6726216Y-9873488I45000J0D01*
G01*
X6726216Y-10127488D02*
G75*
G02*
X6636216Y-10127488I-45000J0D01*
G01*
X6636216Y-10127488D02*
G75*
G02*
X6726216Y-10127488I45000J0D01*
G01*
X10414296Y-8108696D02*
G75*
G02*
X10324296Y-8108696I-45000J0D01*
G01*
X10324296Y-8108696D02*
G75*
G02*
X10414296Y-8108696I45000J0D01*
G01*
X10414296Y-8362696D02*
G75*
G02*
X10324296Y-8362696I-45000J0D01*
G01*
X10324296Y-8362696D02*
G75*
G02*
X10414296Y-8362696I45000J0D01*
G01*
X10416328Y-8691880D02*
G75*
G02*
X10326328Y-8691880I-45000J0D01*
G01*
X10326328Y-8691880D02*
G75*
G02*
X10416328Y-8691880I45000J0D01*
G01*
X10416328Y-8945880D02*
G75*
G02*
X10326328Y-8945880I-45000J0D01*
G01*
X10326328Y-8945880D02*
G75*
G02*
X10416328Y-8945880I45000J0D01*
G01*
X6686804Y-4423956D02*
X6686804Y-4523956D01*
X6636804Y-4473956D02*
X6736804Y-4473956D01*
X6686804Y-4677956D02*
X6686804Y-4777956D01*
X6636804Y-4727956D02*
X6736804Y-4727956D01*
X6686804Y-4931956D02*
X6686804Y-5031956D01*
X6636804Y-4981956D02*
X6736804Y-4981956D01*
X9037320Y-4179100D02*
X9037320Y-4279100D01*
X8987320Y-4229100D02*
X9087320Y-4229100D01*
X9787320Y-4179100D02*
X9787320Y-4279100D01*
X9737320Y-4229100D02*
X9837320Y-4229100D01*
D12*
X7976946Y-10555047D02*
X7976946Y-10484282D01*
X7906181Y-10484282D01*
X7906181Y-10555047D01*
X7976946Y-10555047D01*
X8230946Y-10555047D02*
X8230946Y-10484282D01*
X8160181Y-10484282D01*
X8160181Y-10555047D01*
X8230946Y-10555047D01*
X8484947Y-10555047D02*
X8484947Y-10484282D01*
X8414182Y-10484282D01*
X8414182Y-10555047D01*
X8484947Y-10555047D01*
X10940111Y-2980258D02*
X10940111Y-2909493D01*
X10869346Y-2909493D01*
X10869346Y-2980258D01*
X10940111Y-2980258D01*
X11194110Y-2980258D02*
X11194110Y-2909493D01*
X11123346Y-2909493D01*
X11123346Y-2980258D01*
X11194110Y-2980258D01*
X11448110Y-2980258D02*
X11448110Y-2909493D01*
X11377345Y-2909493D01*
X11377345Y-2980258D01*
X11448110Y-2980258D01*
D13*
X5579364Y-9786488D02*
X5634364Y-9731488D01*
X5579364Y-9676488D01*
X5524364Y-9731488D01*
X5579364Y-9786488D01*
X5579364Y-10436488D02*
X5634364Y-10381488D01*
X5579364Y-10326488D01*
X5524364Y-10381488D01*
X5579364Y-10436488D01*
X5825236Y-4019940D02*
X5880236Y-3964940D01*
X5825236Y-3909940D01*
X5770236Y-3964940D01*
X5825236Y-4019940D01*
X5825236Y-5035940D02*
X5880236Y-4980940D01*
X5825236Y-4925940D01*
X5770236Y-4980940D01*
X5825236Y-5035940D01*
X6029364Y-9786488D02*
X6084364Y-9731488D01*
X6029364Y-9676488D01*
X5974364Y-9731488D01*
X6029364Y-9786488D01*
X6029364Y-10436488D02*
X6084364Y-10381488D01*
X6029364Y-10326488D01*
X5974364Y-10381488D01*
X6029364Y-10436488D01*
X8784844Y-3719204D02*
X8839844Y-3664204D01*
X8784844Y-3609204D01*
X8729844Y-3664204D01*
X8784844Y-3719204D01*
X9800844Y-3719204D02*
X9855844Y-3664204D01*
X9800844Y-3609204D01*
X9745844Y-3664204D01*
X9800844Y-3719204D01*
X11903964Y-3204600D02*
X11958964Y-3149600D01*
X11903964Y-3094600D01*
X11848964Y-3149600D01*
X11903964Y-3204600D01*
X12411964Y-3204600D02*
X12466964Y-3149600D01*
X12411964Y-3094600D01*
X12356964Y-3149600D01*
X12411964Y-3204600D01*
D14*
X5730692Y-8059872D02*
X5850692Y-8179872D01*
X5850692Y-8059872D02*
X5730692Y-8179872D01*
X5850692Y-8119872D02*
G75*
G02*
X5730692Y-8119872I-60000J0D01*
G01*
X5730692Y-8119872D02*
G75*
G02*
X5850692Y-8119872I60000J0D01*
G01*
X5730692Y-8559872D02*
X5850692Y-8679872D01*
X5850692Y-8559872D02*
X5730692Y-8679872D01*
X5850692Y-8619872D02*
G75*
G02*
X5730692Y-8619872I-60000J0D01*
G01*
X5730692Y-8619872D02*
G75*
G02*
X5850692Y-8619872I60000J0D01*
G01*
X7398328Y-6612580D02*
X7518328Y-6732580D01*
X7518328Y-6612580D02*
X7398328Y-6732580D01*
X7518328Y-6672580D02*
G75*
G02*
X7398328Y-6672580I-60000J0D01*
G01*
X7398328Y-6672580D02*
G75*
G02*
X7518328Y-6672580I60000J0D01*
G01*
X7523932Y-4412940D02*
X7643932Y-4532940D01*
X7643932Y-4412940D02*
X7523932Y-4532940D01*
X7643932Y-4472940D02*
G75*
G02*
X7523932Y-4472940I-60000J0D01*
G01*
X7523932Y-4472940D02*
G75*
G02*
X7643932Y-4472940I60000J0D01*
G01*
X7523932Y-4912940D02*
X7643932Y-5032940D01*
X7643932Y-4912940D02*
X7523932Y-5032940D01*
X7643932Y-4972940D02*
G75*
G02*
X7523932Y-4972940I-60000J0D01*
G01*
X7523932Y-4972940D02*
G75*
G02*
X7643932Y-4972940I60000J0D01*
G01*
X7898328Y-6612580D02*
X8018328Y-6732580D01*
X8018328Y-6612580D02*
X7898328Y-6732580D01*
X8018328Y-6672580D02*
G75*
G02*
X7898328Y-6672580I-60000J0D01*
G01*
X7898328Y-6672580D02*
G75*
G02*
X8018328Y-6672580I60000J0D01*
G01*
X7900360Y-2798516D02*
X8020360Y-2918516D01*
X8020360Y-2798516D02*
X7900360Y-2918516D01*
X8020360Y-2858516D02*
G75*
G02*
X7900360Y-2858516I-60000J0D01*
G01*
X7900360Y-2858516D02*
G75*
G02*
X8020360Y-2858516I60000J0D01*
G01*
X7900360Y-3298516D02*
X8020360Y-3418516D01*
X8020360Y-3298516D02*
X7900360Y-3418516D01*
X8020360Y-3358516D02*
G75*
G02*
X7900360Y-3358516I-60000J0D01*
G01*
X7900360Y-3358516D02*
G75*
G02*
X8020360Y-3358516I60000J0D01*
G01*
X9601144Y-9819076D02*
X9721144Y-9939076D01*
X9721144Y-9819076D02*
X9601144Y-9939076D01*
X9721144Y-9879076D02*
G75*
G02*
X9601144Y-9879076I-60000J0D01*
G01*
X9601144Y-9879076D02*
G75*
G02*
X9721144Y-9879076I60000J0D01*
G01*
X9601144Y-10319076D02*
X9721144Y-10439076D01*
X9721144Y-10319076D02*
X9601144Y-10439076D01*
X9721144Y-10379076D02*
G75*
G02*
X9601144Y-10379076I-60000J0D01*
G01*
X9601144Y-10379076D02*
G75*
G02*
X9721144Y-10379076I60000J0D01*
G01*
X11853108Y-5131252D02*
X11973108Y-5251252D01*
X11973108Y-5131252D02*
X11853108Y-5251252D01*
X11973108Y-5191252D02*
G75*
G02*
X11853108Y-5191252I-60000J0D01*
G01*
X11853108Y-5191252D02*
G75*
G02*
X11973108Y-5191252I60000J0D01*
G01*
X12353108Y-5131252D02*
X12473108Y-5251252D01*
X12473108Y-5131252D02*
X12353108Y-5251252D01*
X12473108Y-5191252D02*
G75*
G02*
X12353108Y-5191252I-60000J0D01*
G01*
X12353108Y-5191252D02*
G75*
G02*
X12473108Y-5191252I60000J0D01*
G01*
D15*
X5429768Y-2678440D02*
X5589768Y-2838440D01*
X5589768Y-2678440D02*
X5429768Y-2838440D01*
X5509768Y-2678440D02*
X5509768Y-2838440D01*
X5429768Y-2758440D02*
X5589768Y-2758440D01*
X5429768Y-3331728D02*
X5589768Y-3491728D01*
X5589768Y-3331728D02*
X5429768Y-3491728D01*
X5509768Y-3331728D02*
X5509768Y-3491728D01*
X5429768Y-3411728D02*
X5589768Y-3411728D01*
X6953768Y-2678440D02*
X7113768Y-2838440D01*
X7113768Y-2678440D02*
X6953768Y-2838440D01*
X7033768Y-2678440D02*
X7033768Y-2838440D01*
X6953768Y-2758440D02*
X7113768Y-2758440D01*
X6953768Y-3331728D02*
X7113768Y-3491728D01*
X7113768Y-3331728D02*
X6953768Y-3491728D01*
X7033768Y-3331728D02*
X7033768Y-3491728D01*
X6953768Y-3411728D02*
X7113768Y-3411728D01*
X10677916Y-9887468D02*
X10837916Y-10047468D01*
X10837916Y-9887468D02*
X10677916Y-10047468D01*
X10757916Y-9887468D02*
X10757916Y-10047468D01*
X10677916Y-9967468D02*
X10837916Y-9967468D01*
X10677916Y-10533136D02*
X10837916Y-10693136D01*
X10837916Y-10533136D02*
X10677916Y-10693136D01*
X10757916Y-10533136D02*
X10757916Y-10693136D01*
X10677916Y-10613136D02*
X10837916Y-10613136D01*
X12201916Y-9887468D02*
X12361916Y-10047468D01*
X12361916Y-9887468D02*
X12201916Y-10047468D01*
X12281916Y-9887468D02*
X12281916Y-10047468D01*
X12201916Y-9967468D02*
X12361916Y-9967468D01*
X12201916Y-10533136D02*
X12361916Y-10693136D01*
X12361916Y-10533136D02*
X12201916Y-10693136D01*
X12281916Y-10533136D02*
X12281916Y-10693136D01*
X12201916Y-10613136D02*
X12361916Y-10613136D01*
X13081264Y-3427740D02*
X13241264Y-3587740D01*
X13241264Y-3427740D02*
X13081264Y-3587740D01*
X13161264Y-3427740D02*
X13161264Y-3587740D01*
X13081264Y-3507740D02*
X13241264Y-3507740D01*
X13081264Y-4951740D02*
X13241264Y-5111740D01*
X13241264Y-4951740D02*
X13081264Y-5111740D01*
X13161264Y-4951740D02*
X13161264Y-5111740D01*
X13081264Y-5031740D02*
X13241264Y-5031740D01*
X13803132Y-3427740D02*
X13963132Y-3587740D01*
X13963132Y-3427740D02*
X13803132Y-3587740D01*
X13883132Y-3427740D02*
X13883132Y-3587740D01*
X13803132Y-3507740D02*
X13963132Y-3507740D01*
X13803132Y-4951740D02*
X13963132Y-5111740D01*
X13963132Y-4951740D02*
X13803132Y-5111740D01*
X13883132Y-4951740D02*
X13883132Y-5111740D01*
X13803132Y-5031740D02*
X13963132Y-5031740D01*
D16*
X12420516Y-5978568D02*
X12600516Y-6158568D01*
X12600516Y-5978568D02*
X12420516Y-6158568D01*
X12574156Y-6132208D02*
X12574156Y-6004928D01*
X12446876Y-6004928D01*
X12446876Y-6132208D01*
X12574156Y-6132208D01*
X12420516Y-7248568D02*
X12600516Y-7428568D01*
X12600516Y-7248568D02*
X12420516Y-7428568D01*
X12574156Y-7402208D02*
X12574156Y-7274928D01*
X12446876Y-7274928D01*
X12446876Y-7402208D01*
X12574156Y-7402208D01*
X12420516Y-7841404D02*
X12600516Y-8021404D01*
X12600516Y-7841404D02*
X12420516Y-8021404D01*
X12574156Y-7995044D02*
X12574156Y-7867764D01*
X12446876Y-7867764D01*
X12446876Y-7995044D01*
X12574156Y-7995044D01*
X12420516Y-9111404D02*
X12600516Y-9291404D01*
X12600516Y-9111404D02*
X12420516Y-9291404D01*
X12574156Y-9265044D02*
X12574156Y-9137764D01*
X12446876Y-9137764D01*
X12446876Y-9265044D01*
X12574156Y-9265044D01*
D17*
X4698492Y-7509764D02*
X5003292Y-7814564D01*
X5003292Y-7509764D02*
X4698492Y-7814564D01*
X4850892Y-7814564D02*
X5003292Y-7662164D01*
X4850892Y-7509764D01*
X4698492Y-7662164D01*
X4850892Y-7814564D01*
X4701540Y-3857752D02*
X5006340Y-4162552D01*
X5006340Y-3857752D02*
X4701540Y-4162552D01*
X4853940Y-4162552D02*
X5006340Y-4010152D01*
X4853940Y-3857752D01*
X4701540Y-4010152D01*
X4853940Y-4162552D01*
X12684252Y-10726420D02*
X12989052Y-11031220D01*
X12989052Y-10726420D02*
X12684252Y-11031220D01*
X12836652Y-11031220D02*
X12989052Y-10878820D01*
X12836652Y-10726420D01*
X12684252Y-10878820D01*
X12836652Y-11031220D01*
X13563092Y-9680956D02*
X13867892Y-9985756D01*
X13867892Y-9680956D02*
X13563092Y-9985756D01*
X13715492Y-9985756D02*
X13867892Y-9833356D01*
X13715492Y-9680956D01*
X13563092Y-9833356D01*
X13715492Y-9985756D01*
D11*
X4713477Y-11679428D02*
X4713477Y-11479428D01*
X4713477Y-11479428D02*
X4761096Y-11479428D01*
X4761096Y-11479428D02*
X4789667Y-11488952D01*
X4789667Y-11488952D02*
X4808715Y-11507999D01*
X4808715Y-11507999D02*
X4818239Y-11527047D01*
X4818239Y-11527047D02*
X4827763Y-11565142D01*
X4827763Y-11565142D02*
X4827763Y-11593713D01*
X4827763Y-11593713D02*
X4818239Y-11631809D01*
X4818239Y-11631809D02*
X4808715Y-11650856D01*
X4808715Y-11650856D02*
X4789667Y-11669904D01*
X4789667Y-11669904D02*
X4761096Y-11679428D01*
X4761096Y-11679428D02*
X4713477Y-11679428D01*
X4913477Y-11679428D02*
X4913477Y-11546094D01*
X4913477Y-11584190D02*
X4923001Y-11565142D01*
X4923001Y-11565142D02*
X4932524Y-11555618D01*
X4932524Y-11555618D02*
X4951572Y-11546094D01*
X4951572Y-11546094D02*
X4970620Y-11546094D01*
X5037286Y-11679428D02*
X5037286Y-11546094D01*
X5037286Y-11479428D02*
X5027763Y-11488952D01*
X5027763Y-11488952D02*
X5037286Y-11498475D01*
X5037286Y-11498475D02*
X5046810Y-11488952D01*
X5046810Y-11488952D02*
X5037286Y-11479428D01*
X5037286Y-11479428D02*
X5037286Y-11498475D01*
X5161096Y-11679428D02*
X5142048Y-11669904D01*
X5142048Y-11669904D02*
X5132524Y-11650856D01*
X5132524Y-11650856D02*
X5132524Y-11479428D01*
X5265858Y-11679428D02*
X5246810Y-11669904D01*
X5246810Y-11669904D02*
X5237286Y-11650856D01*
X5237286Y-11650856D02*
X5237286Y-11479428D01*
X5494429Y-11679428D02*
X5494429Y-11479428D01*
X5494429Y-11479428D02*
X5561096Y-11622285D01*
X5561096Y-11622285D02*
X5627762Y-11479428D01*
X5627762Y-11479428D02*
X5627762Y-11679428D01*
X5808715Y-11679428D02*
X5808715Y-11574666D01*
X5808715Y-11574666D02*
X5799191Y-11555618D01*
X5799191Y-11555618D02*
X5780143Y-11546094D01*
X5780143Y-11546094D02*
X5742048Y-11546094D01*
X5742048Y-11546094D02*
X5723001Y-11555618D01*
X5808715Y-11669904D02*
X5789667Y-11679428D01*
X5789667Y-11679428D02*
X5742048Y-11679428D01*
X5742048Y-11679428D02*
X5723001Y-11669904D01*
X5723001Y-11669904D02*
X5713477Y-11650856D01*
X5713477Y-11650856D02*
X5713477Y-11631809D01*
X5713477Y-11631809D02*
X5723001Y-11612761D01*
X5723001Y-11612761D02*
X5742048Y-11603237D01*
X5742048Y-11603237D02*
X5789667Y-11603237D01*
X5789667Y-11603237D02*
X5808715Y-11593713D01*
X5903953Y-11546094D02*
X5903953Y-11746094D01*
X5903953Y-11555618D02*
X5923001Y-11546094D01*
X5923001Y-11546094D02*
X5961096Y-11546094D01*
X5961096Y-11546094D02*
X5980143Y-11555618D01*
X5980143Y-11555618D02*
X5989667Y-11565142D01*
X5989667Y-11565142D02*
X5999191Y-11584190D01*
X5999191Y-11584190D02*
X5999191Y-11641332D01*
X5999191Y-11641332D02*
X5989667Y-11660380D01*
X5989667Y-11660380D02*
X5980143Y-11669904D01*
X5980143Y-11669904D02*
X5961096Y-11679428D01*
X5961096Y-11679428D02*
X5923001Y-11679428D01*
X5923001Y-11679428D02*
X5903953Y-11669904D01*
X6084905Y-11660380D02*
X6094429Y-11669904D01*
X6094429Y-11669904D02*
X6084905Y-11679428D01*
X6084905Y-11679428D02*
X6075382Y-11669904D01*
X6075382Y-11669904D02*
X6084905Y-11660380D01*
X6084905Y-11660380D02*
X6084905Y-11679428D01*
X6084905Y-11555618D02*
X6094429Y-11565142D01*
X6094429Y-11565142D02*
X6084905Y-11574666D01*
X6084905Y-11574666D02*
X6075382Y-11565142D01*
X6075382Y-11565142D02*
X6084905Y-11555618D01*
X6084905Y-11555618D02*
X6084905Y-11574666D01*
D10*
X4372700Y-11967944D02*
X4452700Y-12047944D01*
X4452700Y-11967944D02*
X4372700Y-12047944D01*
D11*
X4751572Y-11899428D02*
X4770620Y-11899428D01*
X4770620Y-11899428D02*
X4789667Y-11908952D01*
X4789667Y-11908952D02*
X4799191Y-11918475D01*
X4799191Y-11918475D02*
X4808715Y-11937523D01*
X4808715Y-11937523D02*
X4818239Y-11975618D01*
X4818239Y-11975618D02*
X4818239Y-12023237D01*
X4818239Y-12023237D02*
X4808715Y-12061332D01*
X4808715Y-12061332D02*
X4799191Y-12080380D01*
X4799191Y-12080380D02*
X4789667Y-12089904D01*
X4789667Y-12089904D02*
X4770620Y-12099428D01*
X4770620Y-12099428D02*
X4751572Y-12099428D01*
X4751572Y-12099428D02*
X4732524Y-12089904D01*
X4732524Y-12089904D02*
X4723001Y-12080380D01*
X4723001Y-12080380D02*
X4713477Y-12061332D01*
X4713477Y-12061332D02*
X4703953Y-12023237D01*
X4703953Y-12023237D02*
X4703953Y-11975618D01*
X4703953Y-11975618D02*
X4713477Y-11937523D01*
X4713477Y-11937523D02*
X4723001Y-11918475D01*
X4723001Y-11918475D02*
X4732524Y-11908952D01*
X4732524Y-11908952D02*
X4751572Y-11899428D01*
X4903953Y-12080380D02*
X4913477Y-12089904D01*
X4913477Y-12089904D02*
X4903953Y-12099428D01*
X4903953Y-12099428D02*
X4894429Y-12089904D01*
X4894429Y-12089904D02*
X4903953Y-12080380D01*
X4903953Y-12080380D02*
X4903953Y-12099428D01*
X5027763Y-11985142D02*
X5008715Y-11975618D01*
X5008715Y-11975618D02*
X4999191Y-11966094D01*
X4999191Y-11966094D02*
X4989667Y-11947047D01*
X4989667Y-11947047D02*
X4989667Y-11937523D01*
X4989667Y-11937523D02*
X4999191Y-11918475D01*
X4999191Y-11918475D02*
X5008715Y-11908952D01*
X5008715Y-11908952D02*
X5027763Y-11899428D01*
X5027763Y-11899428D02*
X5065858Y-11899428D01*
X5065858Y-11899428D02*
X5084905Y-11908952D01*
X5084905Y-11908952D02*
X5094429Y-11918475D01*
X5094429Y-11918475D02*
X5103953Y-11937523D01*
X5103953Y-11937523D02*
X5103953Y-11947047D01*
X5103953Y-11947047D02*
X5094429Y-11966094D01*
X5094429Y-11966094D02*
X5084905Y-11975618D01*
X5084905Y-11975618D02*
X5065858Y-11985142D01*
X5065858Y-11985142D02*
X5027763Y-11985142D01*
X5027763Y-11985142D02*
X5008715Y-11994666D01*
X5008715Y-11994666D02*
X4999191Y-12004190D01*
X4999191Y-12004190D02*
X4989667Y-12023237D01*
X4989667Y-12023237D02*
X4989667Y-12061332D01*
X4989667Y-12061332D02*
X4999191Y-12080380D01*
X4999191Y-12080380D02*
X5008715Y-12089904D01*
X5008715Y-12089904D02*
X5027763Y-12099428D01*
X5027763Y-12099428D02*
X5065858Y-12099428D01*
X5065858Y-12099428D02*
X5084905Y-12089904D01*
X5084905Y-12089904D02*
X5094429Y-12080380D01*
X5094429Y-12080380D02*
X5103953Y-12061332D01*
X5103953Y-12061332D02*
X5103953Y-12023237D01*
X5103953Y-12023237D02*
X5094429Y-12004190D01*
X5094429Y-12004190D02*
X5084905Y-11994666D01*
X5084905Y-11994666D02*
X5065858Y-11985142D01*
X5227763Y-11899428D02*
X5246810Y-11899428D01*
X5246810Y-11899428D02*
X5265858Y-11908952D01*
X5265858Y-11908952D02*
X5275382Y-11918475D01*
X5275382Y-11918475D02*
X5284905Y-11937523D01*
X5284905Y-11937523D02*
X5294429Y-11975618D01*
X5294429Y-11975618D02*
X5294429Y-12023237D01*
X5294429Y-12023237D02*
X5284905Y-12061332D01*
X5284905Y-12061332D02*
X5275382Y-12080380D01*
X5275382Y-12080380D02*
X5265858Y-12089904D01*
X5265858Y-12089904D02*
X5246810Y-12099428D01*
X5246810Y-12099428D02*
X5227763Y-12099428D01*
X5227763Y-12099428D02*
X5208715Y-12089904D01*
X5208715Y-12089904D02*
X5199191Y-12080380D01*
X5199191Y-12080380D02*
X5189667Y-12061332D01*
X5189667Y-12061332D02*
X5180144Y-12023237D01*
X5180144Y-12023237D02*
X5180144Y-11975618D01*
X5180144Y-11975618D02*
X5189667Y-11937523D01*
X5189667Y-11937523D02*
X5199191Y-11918475D01*
X5199191Y-11918475D02*
X5208715Y-11908952D01*
X5208715Y-11908952D02*
X5227763Y-11899428D01*
X5418239Y-11899428D02*
X5437286Y-11899428D01*
X5437286Y-11899428D02*
X5456334Y-11908952D01*
X5456334Y-11908952D02*
X5465858Y-11918475D01*
X5465858Y-11918475D02*
X5475382Y-11937523D01*
X5475382Y-11937523D02*
X5484905Y-11975618D01*
X5484905Y-11975618D02*
X5484905Y-12023237D01*
X5484905Y-12023237D02*
X5475382Y-12061332D01*
X5475382Y-12061332D02*
X5465858Y-12080380D01*
X5465858Y-12080380D02*
X5456334Y-12089904D01*
X5456334Y-12089904D02*
X5437286Y-12099428D01*
X5437286Y-12099428D02*
X5418239Y-12099428D01*
X5418239Y-12099428D02*
X5399191Y-12089904D01*
X5399191Y-12089904D02*
X5389667Y-12080380D01*
X5389667Y-12080380D02*
X5380144Y-12061332D01*
X5380144Y-12061332D02*
X5370620Y-12023237D01*
X5370620Y-12023237D02*
X5370620Y-11975618D01*
X5370620Y-11975618D02*
X5380144Y-11937523D01*
X5380144Y-11937523D02*
X5389667Y-11918475D01*
X5389667Y-11918475D02*
X5399191Y-11908952D01*
X5399191Y-11908952D02*
X5418239Y-11899428D01*
X5570620Y-12099428D02*
X5570620Y-11966094D01*
X5570620Y-11985142D02*
X5580144Y-11975618D01*
X5580144Y-11975618D02*
X5599191Y-11966094D01*
X5599191Y-11966094D02*
X5627763Y-11966094D01*
X5627763Y-11966094D02*
X5646810Y-11975618D01*
X5646810Y-11975618D02*
X5656334Y-11994666D01*
X5656334Y-11994666D02*
X5656334Y-12099428D01*
X5656334Y-11994666D02*
X5665858Y-11975618D01*
X5665858Y-11975618D02*
X5684905Y-11966094D01*
X5684905Y-11966094D02*
X5713477Y-11966094D01*
X5713477Y-11966094D02*
X5732524Y-11975618D01*
X5732524Y-11975618D02*
X5742048Y-11994666D01*
X5742048Y-11994666D02*
X5742048Y-12099428D01*
X5837286Y-12099428D02*
X5837286Y-11966094D01*
X5837286Y-11985142D02*
X5846810Y-11975618D01*
X5846810Y-11975618D02*
X5865858Y-11966094D01*
X5865858Y-11966094D02*
X5894429Y-11966094D01*
X5894429Y-11966094D02*
X5913477Y-11975618D01*
X5913477Y-11975618D02*
X5923001Y-11994666D01*
X5923001Y-11994666D02*
X5923001Y-12099428D01*
X5923001Y-11994666D02*
X5932524Y-11975618D01*
X5932524Y-11975618D02*
X5951572Y-11966094D01*
X5951572Y-11966094D02*
X5980143Y-11966094D01*
X5980143Y-11966094D02*
X5999191Y-11975618D01*
X5999191Y-11975618D02*
X6008715Y-11994666D01*
X6008715Y-11994666D02*
X6008715Y-12099428D01*
X6399191Y-11889904D02*
X6227763Y-12147047D01*
X6656334Y-11899428D02*
X6675382Y-11899428D01*
X6675382Y-11899428D02*
X6694429Y-11908952D01*
X6694429Y-11908952D02*
X6703953Y-11918475D01*
X6703953Y-11918475D02*
X6713477Y-11937523D01*
X6713477Y-11937523D02*
X6723001Y-11975618D01*
X6723001Y-11975618D02*
X6723001Y-12023237D01*
X6723001Y-12023237D02*
X6713477Y-12061332D01*
X6713477Y-12061332D02*
X6703953Y-12080380D01*
X6703953Y-12080380D02*
X6694429Y-12089904D01*
X6694429Y-12089904D02*
X6675382Y-12099428D01*
X6675382Y-12099428D02*
X6656334Y-12099428D01*
X6656334Y-12099428D02*
X6637286Y-12089904D01*
X6637286Y-12089904D02*
X6627763Y-12080380D01*
X6627763Y-12080380D02*
X6618239Y-12061332D01*
X6618239Y-12061332D02*
X6608715Y-12023237D01*
X6608715Y-12023237D02*
X6608715Y-11975618D01*
X6608715Y-11975618D02*
X6618239Y-11937523D01*
X6618239Y-11937523D02*
X6627763Y-11918475D01*
X6627763Y-11918475D02*
X6637286Y-11908952D01*
X6637286Y-11908952D02*
X6656334Y-11899428D01*
X6808715Y-12080380D02*
X6818239Y-12089904D01*
X6818239Y-12089904D02*
X6808715Y-12099428D01*
X6808715Y-12099428D02*
X6799191Y-12089904D01*
X6799191Y-12089904D02*
X6808715Y-12080380D01*
X6808715Y-12080380D02*
X6808715Y-12099428D01*
X6942048Y-11899428D02*
X6961096Y-11899428D01*
X6961096Y-11899428D02*
X6980144Y-11908952D01*
X6980144Y-11908952D02*
X6989667Y-11918475D01*
X6989667Y-11918475D02*
X6999191Y-11937523D01*
X6999191Y-11937523D02*
X7008715Y-11975618D01*
X7008715Y-11975618D02*
X7008715Y-12023237D01*
X7008715Y-12023237D02*
X6999191Y-12061332D01*
X6999191Y-12061332D02*
X6989667Y-12080380D01*
X6989667Y-12080380D02*
X6980144Y-12089904D01*
X6980144Y-12089904D02*
X6961096Y-12099428D01*
X6961096Y-12099428D02*
X6942048Y-12099428D01*
X6942048Y-12099428D02*
X6923001Y-12089904D01*
X6923001Y-12089904D02*
X6913477Y-12080380D01*
X6913477Y-12080380D02*
X6903953Y-12061332D01*
X6903953Y-12061332D02*
X6894429Y-12023237D01*
X6894429Y-12023237D02*
X6894429Y-11975618D01*
X6894429Y-11975618D02*
X6903953Y-11937523D01*
X6903953Y-11937523D02*
X6913477Y-11918475D01*
X6913477Y-11918475D02*
X6923001Y-11908952D01*
X6923001Y-11908952D02*
X6942048Y-11899428D01*
X7075382Y-11899428D02*
X7199191Y-11899428D01*
X7199191Y-11899428D02*
X7132525Y-11975618D01*
X7132525Y-11975618D02*
X7161096Y-11975618D01*
X7161096Y-11975618D02*
X7180144Y-11985142D01*
X7180144Y-11985142D02*
X7189667Y-11994666D01*
X7189667Y-11994666D02*
X7199191Y-12013713D01*
X7199191Y-12013713D02*
X7199191Y-12061332D01*
X7199191Y-12061332D02*
X7189667Y-12080380D01*
X7189667Y-12080380D02*
X7180144Y-12089904D01*
X7180144Y-12089904D02*
X7161096Y-12099428D01*
X7161096Y-12099428D02*
X7103953Y-12099428D01*
X7103953Y-12099428D02*
X7084906Y-12089904D01*
X7084906Y-12089904D02*
X7075382Y-12080380D01*
X7389667Y-12099428D02*
X7275382Y-12099428D01*
X7332525Y-12099428D02*
X7332525Y-11899428D01*
X7332525Y-11899428D02*
X7313477Y-11927999D01*
X7313477Y-11927999D02*
X7294429Y-11947047D01*
X7294429Y-11947047D02*
X7275382Y-11956571D01*
X7570620Y-11899428D02*
X7475382Y-11899428D01*
X7475382Y-11899428D02*
X7465858Y-11994666D01*
X7465858Y-11994666D02*
X7475382Y-11985142D01*
X7475382Y-11985142D02*
X7494429Y-11975618D01*
X7494429Y-11975618D02*
X7542048Y-11975618D01*
X7542048Y-11975618D02*
X7561096Y-11985142D01*
X7561096Y-11985142D02*
X7570620Y-11994666D01*
X7570620Y-11994666D02*
X7580144Y-12013713D01*
X7580144Y-12013713D02*
X7580144Y-12061332D01*
X7580144Y-12061332D02*
X7570620Y-12080380D01*
X7570620Y-12080380D02*
X7561096Y-12089904D01*
X7561096Y-12089904D02*
X7542048Y-12099428D01*
X7542048Y-12099428D02*
X7494429Y-12099428D01*
X7494429Y-12099428D02*
X7475382Y-12089904D01*
X7475382Y-12089904D02*
X7465858Y-12080380D01*
X7656334Y-11899428D02*
X7656334Y-11937523D01*
X7732525Y-11899428D02*
X7732525Y-11937523D01*
X8027763Y-12175618D02*
X8018239Y-12166094D01*
X8018239Y-12166094D02*
X7999191Y-12137523D01*
X7999191Y-12137523D02*
X7989668Y-12118475D01*
X7989668Y-12118475D02*
X7980144Y-12089904D01*
X7980144Y-12089904D02*
X7970620Y-12042285D01*
X7970620Y-12042285D02*
X7970620Y-12004190D01*
X7970620Y-12004190D02*
X7980144Y-11956571D01*
X7980144Y-11956571D02*
X7989668Y-11927999D01*
X7989668Y-11927999D02*
X7999191Y-11908952D01*
X7999191Y-11908952D02*
X8018239Y-11880380D01*
X8018239Y-11880380D02*
X8027763Y-11870856D01*
X8189668Y-11899428D02*
X8151572Y-11899428D01*
X8151572Y-11899428D02*
X8132525Y-11908952D01*
X8132525Y-11908952D02*
X8123001Y-11918475D01*
X8123001Y-11918475D02*
X8103953Y-11947047D01*
X8103953Y-11947047D02*
X8094429Y-11985142D01*
X8094429Y-11985142D02*
X8094429Y-12061332D01*
X8094429Y-12061332D02*
X8103953Y-12080380D01*
X8103953Y-12080380D02*
X8113477Y-12089904D01*
X8113477Y-12089904D02*
X8132525Y-12099428D01*
X8132525Y-12099428D02*
X8170620Y-12099428D01*
X8170620Y-12099428D02*
X8189668Y-12089904D01*
X8189668Y-12089904D02*
X8199191Y-12080380D01*
X8199191Y-12080380D02*
X8208715Y-12061332D01*
X8208715Y-12061332D02*
X8208715Y-12013713D01*
X8208715Y-12013713D02*
X8199191Y-11994666D01*
X8199191Y-11994666D02*
X8189668Y-11985142D01*
X8189668Y-11985142D02*
X8170620Y-11975618D01*
X8170620Y-11975618D02*
X8132525Y-11975618D01*
X8132525Y-11975618D02*
X8113477Y-11985142D01*
X8113477Y-11985142D02*
X8103953Y-11994666D01*
X8103953Y-11994666D02*
X8094429Y-12013713D01*
X8275382Y-11899428D02*
X8399191Y-11899428D01*
X8399191Y-11899428D02*
X8332525Y-11975618D01*
X8332525Y-11975618D02*
X8361096Y-11975618D01*
X8361096Y-11975618D02*
X8380144Y-11985142D01*
X8380144Y-11985142D02*
X8389668Y-11994666D01*
X8389668Y-11994666D02*
X8399191Y-12013713D01*
X8399191Y-12013713D02*
X8399191Y-12061332D01*
X8399191Y-12061332D02*
X8389668Y-12080380D01*
X8389668Y-12080380D02*
X8380144Y-12089904D01*
X8380144Y-12089904D02*
X8361096Y-12099428D01*
X8361096Y-12099428D02*
X8303953Y-12099428D01*
X8303953Y-12099428D02*
X8284906Y-12089904D01*
X8284906Y-12089904D02*
X8275382Y-12080380D01*
X8637287Y-12099428D02*
X8637287Y-11899428D01*
X8723001Y-12099428D02*
X8723001Y-11994666D01*
X8723001Y-11994666D02*
X8713477Y-11975618D01*
X8713477Y-11975618D02*
X8694430Y-11966094D01*
X8694430Y-11966094D02*
X8665858Y-11966094D01*
X8665858Y-11966094D02*
X8646811Y-11975618D01*
X8646811Y-11975618D02*
X8637287Y-11985142D01*
X8846811Y-12099428D02*
X8827763Y-12089904D01*
X8827763Y-12089904D02*
X8818239Y-12080380D01*
X8818239Y-12080380D02*
X8808715Y-12061332D01*
X8808715Y-12061332D02*
X8808715Y-12004190D01*
X8808715Y-12004190D02*
X8818239Y-11985142D01*
X8818239Y-11985142D02*
X8827763Y-11975618D01*
X8827763Y-11975618D02*
X8846811Y-11966094D01*
X8846811Y-11966094D02*
X8875382Y-11966094D01*
X8875382Y-11966094D02*
X8894430Y-11975618D01*
X8894430Y-11975618D02*
X8903953Y-11985142D01*
X8903953Y-11985142D02*
X8913477Y-12004190D01*
X8913477Y-12004190D02*
X8913477Y-12061332D01*
X8913477Y-12061332D02*
X8903953Y-12080380D01*
X8903953Y-12080380D02*
X8894430Y-12089904D01*
X8894430Y-12089904D02*
X8875382Y-12099428D01*
X8875382Y-12099428D02*
X8846811Y-12099428D01*
X9027763Y-12099428D02*
X9008715Y-12089904D01*
X9008715Y-12089904D02*
X8999192Y-12070856D01*
X8999192Y-12070856D02*
X8999192Y-11899428D01*
X9180144Y-12089904D02*
X9161096Y-12099428D01*
X9161096Y-12099428D02*
X9123001Y-12099428D01*
X9123001Y-12099428D02*
X9103953Y-12089904D01*
X9103953Y-12089904D02*
X9094430Y-12070856D01*
X9094430Y-12070856D02*
X9094430Y-11994666D01*
X9094430Y-11994666D02*
X9103953Y-11975618D01*
X9103953Y-11975618D02*
X9123001Y-11966094D01*
X9123001Y-11966094D02*
X9161096Y-11966094D01*
X9161096Y-11966094D02*
X9180144Y-11975618D01*
X9180144Y-11975618D02*
X9189668Y-11994666D01*
X9189668Y-11994666D02*
X9189668Y-12013713D01*
X9189668Y-12013713D02*
X9094430Y-12032761D01*
X9265858Y-12089904D02*
X9284906Y-12099428D01*
X9284906Y-12099428D02*
X9323001Y-12099428D01*
X9323001Y-12099428D02*
X9342049Y-12089904D01*
X9342049Y-12089904D02*
X9351573Y-12070856D01*
X9351573Y-12070856D02*
X9351573Y-12061332D01*
X9351573Y-12061332D02*
X9342049Y-12042285D01*
X9342049Y-12042285D02*
X9323001Y-12032761D01*
X9323001Y-12032761D02*
X9294430Y-12032761D01*
X9294430Y-12032761D02*
X9275382Y-12023237D01*
X9275382Y-12023237D02*
X9265858Y-12004190D01*
X9265858Y-12004190D02*
X9265858Y-11994666D01*
X9265858Y-11994666D02*
X9275382Y-11975618D01*
X9275382Y-11975618D02*
X9294430Y-11966094D01*
X9294430Y-11966094D02*
X9323001Y-11966094D01*
X9323001Y-11966094D02*
X9342049Y-11975618D01*
X9418239Y-12175618D02*
X9427763Y-12166094D01*
X9427763Y-12166094D02*
X9446811Y-12137523D01*
X9446811Y-12137523D02*
X9456334Y-12118475D01*
X9456334Y-12118475D02*
X9465858Y-12089904D01*
X9465858Y-12089904D02*
X9475382Y-12042285D01*
X9475382Y-12042285D02*
X9475382Y-12004190D01*
X9475382Y-12004190D02*
X9465858Y-11956571D01*
X9465858Y-11956571D02*
X9456334Y-11927999D01*
X9456334Y-11927999D02*
X9446811Y-11908952D01*
X9446811Y-11908952D02*
X9427763Y-11880380D01*
X9427763Y-11880380D02*
X9418239Y-11870856D01*
D10*
X4452700Y-12271944D02*
G75*
G02*
X4362700Y-12271944I-45000J0D01*
G01*
X4362700Y-12271944D02*
G75*
G02*
X4452700Y-12271944I45000J0D01*
G01*
D11*
X4751572Y-12163428D02*
X4770620Y-12163428D01*
X4770620Y-12163428D02*
X4789667Y-12172952D01*
X4789667Y-12172952D02*
X4799191Y-12182475D01*
X4799191Y-12182475D02*
X4808715Y-12201523D01*
X4808715Y-12201523D02*
X4818239Y-12239618D01*
X4818239Y-12239618D02*
X4818239Y-12287237D01*
X4818239Y-12287237D02*
X4808715Y-12325332D01*
X4808715Y-12325332D02*
X4799191Y-12344380D01*
X4799191Y-12344380D02*
X4789667Y-12353904D01*
X4789667Y-12353904D02*
X4770620Y-12363428D01*
X4770620Y-12363428D02*
X4751572Y-12363428D01*
X4751572Y-12363428D02*
X4732524Y-12353904D01*
X4732524Y-12353904D02*
X4723001Y-12344380D01*
X4723001Y-12344380D02*
X4713477Y-12325332D01*
X4713477Y-12325332D02*
X4703953Y-12287237D01*
X4703953Y-12287237D02*
X4703953Y-12239618D01*
X4703953Y-12239618D02*
X4713477Y-12201523D01*
X4713477Y-12201523D02*
X4723001Y-12182475D01*
X4723001Y-12182475D02*
X4732524Y-12172952D01*
X4732524Y-12172952D02*
X4751572Y-12163428D01*
X4903953Y-12344380D02*
X4913477Y-12353904D01*
X4913477Y-12353904D02*
X4903953Y-12363428D01*
X4903953Y-12363428D02*
X4894429Y-12353904D01*
X4894429Y-12353904D02*
X4903953Y-12344380D01*
X4903953Y-12344380D02*
X4903953Y-12363428D01*
X5008715Y-12363428D02*
X5046810Y-12363428D01*
X5046810Y-12363428D02*
X5065858Y-12353904D01*
X5065858Y-12353904D02*
X5075382Y-12344380D01*
X5075382Y-12344380D02*
X5094429Y-12315809D01*
X5094429Y-12315809D02*
X5103953Y-12277713D01*
X5103953Y-12277713D02*
X5103953Y-12201523D01*
X5103953Y-12201523D02*
X5094429Y-12182475D01*
X5094429Y-12182475D02*
X5084905Y-12172952D01*
X5084905Y-12172952D02*
X5065858Y-12163428D01*
X5065858Y-12163428D02*
X5027763Y-12163428D01*
X5027763Y-12163428D02*
X5008715Y-12172952D01*
X5008715Y-12172952D02*
X4999191Y-12182475D01*
X4999191Y-12182475D02*
X4989667Y-12201523D01*
X4989667Y-12201523D02*
X4989667Y-12249142D01*
X4989667Y-12249142D02*
X4999191Y-12268190D01*
X4999191Y-12268190D02*
X5008715Y-12277713D01*
X5008715Y-12277713D02*
X5027763Y-12287237D01*
X5027763Y-12287237D02*
X5065858Y-12287237D01*
X5065858Y-12287237D02*
X5084905Y-12277713D01*
X5084905Y-12277713D02*
X5094429Y-12268190D01*
X5094429Y-12268190D02*
X5103953Y-12249142D01*
X5227763Y-12163428D02*
X5246810Y-12163428D01*
X5246810Y-12163428D02*
X5265858Y-12172952D01*
X5265858Y-12172952D02*
X5275382Y-12182475D01*
X5275382Y-12182475D02*
X5284905Y-12201523D01*
X5284905Y-12201523D02*
X5294429Y-12239618D01*
X5294429Y-12239618D02*
X5294429Y-12287237D01*
X5294429Y-12287237D02*
X5284905Y-12325332D01*
X5284905Y-12325332D02*
X5275382Y-12344380D01*
X5275382Y-12344380D02*
X5265858Y-12353904D01*
X5265858Y-12353904D02*
X5246810Y-12363428D01*
X5246810Y-12363428D02*
X5227763Y-12363428D01*
X5227763Y-12363428D02*
X5208715Y-12353904D01*
X5208715Y-12353904D02*
X5199191Y-12344380D01*
X5199191Y-12344380D02*
X5189667Y-12325332D01*
X5189667Y-12325332D02*
X5180144Y-12287237D01*
X5180144Y-12287237D02*
X5180144Y-12239618D01*
X5180144Y-12239618D02*
X5189667Y-12201523D01*
X5189667Y-12201523D02*
X5199191Y-12182475D01*
X5199191Y-12182475D02*
X5208715Y-12172952D01*
X5208715Y-12172952D02*
X5227763Y-12163428D01*
X5418239Y-12163428D02*
X5437286Y-12163428D01*
X5437286Y-12163428D02*
X5456334Y-12172952D01*
X5456334Y-12172952D02*
X5465858Y-12182475D01*
X5465858Y-12182475D02*
X5475382Y-12201523D01*
X5475382Y-12201523D02*
X5484905Y-12239618D01*
X5484905Y-12239618D02*
X5484905Y-12287237D01*
X5484905Y-12287237D02*
X5475382Y-12325332D01*
X5475382Y-12325332D02*
X5465858Y-12344380D01*
X5465858Y-12344380D02*
X5456334Y-12353904D01*
X5456334Y-12353904D02*
X5437286Y-12363428D01*
X5437286Y-12363428D02*
X5418239Y-12363428D01*
X5418239Y-12363428D02*
X5399191Y-12353904D01*
X5399191Y-12353904D02*
X5389667Y-12344380D01*
X5389667Y-12344380D02*
X5380144Y-12325332D01*
X5380144Y-12325332D02*
X5370620Y-12287237D01*
X5370620Y-12287237D02*
X5370620Y-12239618D01*
X5370620Y-12239618D02*
X5380144Y-12201523D01*
X5380144Y-12201523D02*
X5389667Y-12182475D01*
X5389667Y-12182475D02*
X5399191Y-12172952D01*
X5399191Y-12172952D02*
X5418239Y-12163428D01*
X5570620Y-12363428D02*
X5570620Y-12230094D01*
X5570620Y-12249142D02*
X5580144Y-12239618D01*
X5580144Y-12239618D02*
X5599191Y-12230094D01*
X5599191Y-12230094D02*
X5627763Y-12230094D01*
X5627763Y-12230094D02*
X5646810Y-12239618D01*
X5646810Y-12239618D02*
X5656334Y-12258666D01*
X5656334Y-12258666D02*
X5656334Y-12363428D01*
X5656334Y-12258666D02*
X5665858Y-12239618D01*
X5665858Y-12239618D02*
X5684905Y-12230094D01*
X5684905Y-12230094D02*
X5713477Y-12230094D01*
X5713477Y-12230094D02*
X5732524Y-12239618D01*
X5732524Y-12239618D02*
X5742048Y-12258666D01*
X5742048Y-12258666D02*
X5742048Y-12363428D01*
X5837286Y-12363428D02*
X5837286Y-12230094D01*
X5837286Y-12249142D02*
X5846810Y-12239618D01*
X5846810Y-12239618D02*
X5865858Y-12230094D01*
X5865858Y-12230094D02*
X5894429Y-12230094D01*
X5894429Y-12230094D02*
X5913477Y-12239618D01*
X5913477Y-12239618D02*
X5923001Y-12258666D01*
X5923001Y-12258666D02*
X5923001Y-12363428D01*
X5923001Y-12258666D02*
X5932524Y-12239618D01*
X5932524Y-12239618D02*
X5951572Y-12230094D01*
X5951572Y-12230094D02*
X5980143Y-12230094D01*
X5980143Y-12230094D02*
X5999191Y-12239618D01*
X5999191Y-12239618D02*
X6008715Y-12258666D01*
X6008715Y-12258666D02*
X6008715Y-12363428D01*
X6399191Y-12153904D02*
X6227763Y-12411047D01*
X6656334Y-12163428D02*
X6675382Y-12163428D01*
X6675382Y-12163428D02*
X6694429Y-12172952D01*
X6694429Y-12172952D02*
X6703953Y-12182475D01*
X6703953Y-12182475D02*
X6713477Y-12201523D01*
X6713477Y-12201523D02*
X6723001Y-12239618D01*
X6723001Y-12239618D02*
X6723001Y-12287237D01*
X6723001Y-12287237D02*
X6713477Y-12325332D01*
X6713477Y-12325332D02*
X6703953Y-12344380D01*
X6703953Y-12344380D02*
X6694429Y-12353904D01*
X6694429Y-12353904D02*
X6675382Y-12363428D01*
X6675382Y-12363428D02*
X6656334Y-12363428D01*
X6656334Y-12363428D02*
X6637286Y-12353904D01*
X6637286Y-12353904D02*
X6627763Y-12344380D01*
X6627763Y-12344380D02*
X6618239Y-12325332D01*
X6618239Y-12325332D02*
X6608715Y-12287237D01*
X6608715Y-12287237D02*
X6608715Y-12239618D01*
X6608715Y-12239618D02*
X6618239Y-12201523D01*
X6618239Y-12201523D02*
X6627763Y-12182475D01*
X6627763Y-12182475D02*
X6637286Y-12172952D01*
X6637286Y-12172952D02*
X6656334Y-12163428D01*
X6808715Y-12344380D02*
X6818239Y-12353904D01*
X6818239Y-12353904D02*
X6808715Y-12363428D01*
X6808715Y-12363428D02*
X6799191Y-12353904D01*
X6799191Y-12353904D02*
X6808715Y-12344380D01*
X6808715Y-12344380D02*
X6808715Y-12363428D01*
X6942048Y-12163428D02*
X6961096Y-12163428D01*
X6961096Y-12163428D02*
X6980144Y-12172952D01*
X6980144Y-12172952D02*
X6989667Y-12182475D01*
X6989667Y-12182475D02*
X6999191Y-12201523D01*
X6999191Y-12201523D02*
X7008715Y-12239618D01*
X7008715Y-12239618D02*
X7008715Y-12287237D01*
X7008715Y-12287237D02*
X6999191Y-12325332D01*
X6999191Y-12325332D02*
X6989667Y-12344380D01*
X6989667Y-12344380D02*
X6980144Y-12353904D01*
X6980144Y-12353904D02*
X6961096Y-12363428D01*
X6961096Y-12363428D02*
X6942048Y-12363428D01*
X6942048Y-12363428D02*
X6923001Y-12353904D01*
X6923001Y-12353904D02*
X6913477Y-12344380D01*
X6913477Y-12344380D02*
X6903953Y-12325332D01*
X6903953Y-12325332D02*
X6894429Y-12287237D01*
X6894429Y-12287237D02*
X6894429Y-12239618D01*
X6894429Y-12239618D02*
X6903953Y-12201523D01*
X6903953Y-12201523D02*
X6913477Y-12182475D01*
X6913477Y-12182475D02*
X6923001Y-12172952D01*
X6923001Y-12172952D02*
X6942048Y-12163428D01*
X7075382Y-12163428D02*
X7199191Y-12163428D01*
X7199191Y-12163428D02*
X7132525Y-12239618D01*
X7132525Y-12239618D02*
X7161096Y-12239618D01*
X7161096Y-12239618D02*
X7180144Y-12249142D01*
X7180144Y-12249142D02*
X7189667Y-12258666D01*
X7189667Y-12258666D02*
X7199191Y-12277713D01*
X7199191Y-12277713D02*
X7199191Y-12325332D01*
X7199191Y-12325332D02*
X7189667Y-12344380D01*
X7189667Y-12344380D02*
X7180144Y-12353904D01*
X7180144Y-12353904D02*
X7161096Y-12363428D01*
X7161096Y-12363428D02*
X7103953Y-12363428D01*
X7103953Y-12363428D02*
X7084906Y-12353904D01*
X7084906Y-12353904D02*
X7075382Y-12344380D01*
X7380144Y-12163428D02*
X7284906Y-12163428D01*
X7284906Y-12163428D02*
X7275382Y-12258666D01*
X7275382Y-12258666D02*
X7284906Y-12249142D01*
X7284906Y-12249142D02*
X7303953Y-12239618D01*
X7303953Y-12239618D02*
X7351572Y-12239618D01*
X7351572Y-12239618D02*
X7370620Y-12249142D01*
X7370620Y-12249142D02*
X7380144Y-12258666D01*
X7380144Y-12258666D02*
X7389667Y-12277713D01*
X7389667Y-12277713D02*
X7389667Y-12325332D01*
X7389667Y-12325332D02*
X7380144Y-12344380D01*
X7380144Y-12344380D02*
X7370620Y-12353904D01*
X7370620Y-12353904D02*
X7351572Y-12363428D01*
X7351572Y-12363428D02*
X7303953Y-12363428D01*
X7303953Y-12363428D02*
X7284906Y-12353904D01*
X7284906Y-12353904D02*
X7275382Y-12344380D01*
X7561096Y-12230094D02*
X7561096Y-12363428D01*
X7513477Y-12153904D02*
X7465858Y-12296761D01*
X7465858Y-12296761D02*
X7589667Y-12296761D01*
X7656334Y-12163428D02*
X7656334Y-12201523D01*
X7732525Y-12163428D02*
X7732525Y-12201523D01*
X8027763Y-12439618D02*
X8018239Y-12430094D01*
X8018239Y-12430094D02*
X7999191Y-12401523D01*
X7999191Y-12401523D02*
X7989668Y-12382475D01*
X7989668Y-12382475D02*
X7980144Y-12353904D01*
X7980144Y-12353904D02*
X7970620Y-12306285D01*
X7970620Y-12306285D02*
X7970620Y-12268190D01*
X7970620Y-12268190D02*
X7980144Y-12220571D01*
X7980144Y-12220571D02*
X7989668Y-12191999D01*
X7989668Y-12191999D02*
X7999191Y-12172952D01*
X7999191Y-12172952D02*
X8018239Y-12144380D01*
X8018239Y-12144380D02*
X8027763Y-12134856D01*
X8189668Y-12163428D02*
X8151572Y-12163428D01*
X8151572Y-12163428D02*
X8132525Y-12172952D01*
X8132525Y-12172952D02*
X8123001Y-12182475D01*
X8123001Y-12182475D02*
X8103953Y-12211047D01*
X8103953Y-12211047D02*
X8094429Y-12249142D01*
X8094429Y-12249142D02*
X8094429Y-12325332D01*
X8094429Y-12325332D02*
X8103953Y-12344380D01*
X8103953Y-12344380D02*
X8113477Y-12353904D01*
X8113477Y-12353904D02*
X8132525Y-12363428D01*
X8132525Y-12363428D02*
X8170620Y-12363428D01*
X8170620Y-12363428D02*
X8189668Y-12353904D01*
X8189668Y-12353904D02*
X8199191Y-12344380D01*
X8199191Y-12344380D02*
X8208715Y-12325332D01*
X8208715Y-12325332D02*
X8208715Y-12277713D01*
X8208715Y-12277713D02*
X8199191Y-12258666D01*
X8199191Y-12258666D02*
X8189668Y-12249142D01*
X8189668Y-12249142D02*
X8170620Y-12239618D01*
X8170620Y-12239618D02*
X8132525Y-12239618D01*
X8132525Y-12239618D02*
X8113477Y-12249142D01*
X8113477Y-12249142D02*
X8103953Y-12258666D01*
X8103953Y-12258666D02*
X8094429Y-12277713D01*
X8446811Y-12363428D02*
X8446811Y-12163428D01*
X8532525Y-12363428D02*
X8532525Y-12258666D01*
X8532525Y-12258666D02*
X8523001Y-12239618D01*
X8523001Y-12239618D02*
X8503953Y-12230094D01*
X8503953Y-12230094D02*
X8475382Y-12230094D01*
X8475382Y-12230094D02*
X8456334Y-12239618D01*
X8456334Y-12239618D02*
X8446811Y-12249142D01*
X8656334Y-12363428D02*
X8637287Y-12353904D01*
X8637287Y-12353904D02*
X8627763Y-12344380D01*
X8627763Y-12344380D02*
X8618239Y-12325332D01*
X8618239Y-12325332D02*
X8618239Y-12268190D01*
X8618239Y-12268190D02*
X8627763Y-12249142D01*
X8627763Y-12249142D02*
X8637287Y-12239618D01*
X8637287Y-12239618D02*
X8656334Y-12230094D01*
X8656334Y-12230094D02*
X8684906Y-12230094D01*
X8684906Y-12230094D02*
X8703953Y-12239618D01*
X8703953Y-12239618D02*
X8713477Y-12249142D01*
X8713477Y-12249142D02*
X8723001Y-12268190D01*
X8723001Y-12268190D02*
X8723001Y-12325332D01*
X8723001Y-12325332D02*
X8713477Y-12344380D01*
X8713477Y-12344380D02*
X8703953Y-12353904D01*
X8703953Y-12353904D02*
X8684906Y-12363428D01*
X8684906Y-12363428D02*
X8656334Y-12363428D01*
X8837287Y-12363428D02*
X8818239Y-12353904D01*
X8818239Y-12353904D02*
X8808715Y-12334856D01*
X8808715Y-12334856D02*
X8808715Y-12163428D01*
X8989668Y-12353904D02*
X8970620Y-12363428D01*
X8970620Y-12363428D02*
X8932525Y-12363428D01*
X8932525Y-12363428D02*
X8913477Y-12353904D01*
X8913477Y-12353904D02*
X8903953Y-12334856D01*
X8903953Y-12334856D02*
X8903953Y-12258666D01*
X8903953Y-12258666D02*
X8913477Y-12239618D01*
X8913477Y-12239618D02*
X8932525Y-12230094D01*
X8932525Y-12230094D02*
X8970620Y-12230094D01*
X8970620Y-12230094D02*
X8989668Y-12239618D01*
X8989668Y-12239618D02*
X8999192Y-12258666D01*
X8999192Y-12258666D02*
X8999192Y-12277713D01*
X8999192Y-12277713D02*
X8903953Y-12296761D01*
X9075382Y-12353904D02*
X9094430Y-12363428D01*
X9094430Y-12363428D02*
X9132525Y-12363428D01*
X9132525Y-12363428D02*
X9151573Y-12353904D01*
X9151573Y-12353904D02*
X9161096Y-12334856D01*
X9161096Y-12334856D02*
X9161096Y-12325332D01*
X9161096Y-12325332D02*
X9151573Y-12306285D01*
X9151573Y-12306285D02*
X9132525Y-12296761D01*
X9132525Y-12296761D02*
X9103953Y-12296761D01*
X9103953Y-12296761D02*
X9084906Y-12287237D01*
X9084906Y-12287237D02*
X9075382Y-12268190D01*
X9075382Y-12268190D02*
X9075382Y-12258666D01*
X9075382Y-12258666D02*
X9084906Y-12239618D01*
X9084906Y-12239618D02*
X9103953Y-12230094D01*
X9103953Y-12230094D02*
X9132525Y-12230094D01*
X9132525Y-12230094D02*
X9151573Y-12239618D01*
X9227763Y-12439618D02*
X9237287Y-12430094D01*
X9237287Y-12430094D02*
X9256334Y-12401523D01*
X9256334Y-12401523D02*
X9265858Y-12382475D01*
X9265858Y-12382475D02*
X9275382Y-12353904D01*
X9275382Y-12353904D02*
X9284906Y-12306285D01*
X9284906Y-12306285D02*
X9284906Y-12268190D01*
X9284906Y-12268190D02*
X9275382Y-12220571D01*
X9275382Y-12220571D02*
X9265858Y-12191999D01*
X9265858Y-12191999D02*
X9256334Y-12172952D01*
X9256334Y-12172952D02*
X9237287Y-12144380D01*
X9237287Y-12144380D02*
X9227763Y-12134856D01*
D10*
X4402700Y-12485944D02*
X4402700Y-12585944D01*
X4352700Y-12535944D02*
X4452700Y-12535944D01*
D11*
X4818239Y-12627428D02*
X4703953Y-12627428D01*
X4761096Y-12627428D02*
X4761096Y-12427428D01*
X4761096Y-12427428D02*
X4742048Y-12455999D01*
X4742048Y-12455999D02*
X4723001Y-12475047D01*
X4723001Y-12475047D02*
X4703953Y-12484571D01*
X4903953Y-12608380D02*
X4913477Y-12617904D01*
X4913477Y-12617904D02*
X4903953Y-12627428D01*
X4903953Y-12627428D02*
X4894429Y-12617904D01*
X4894429Y-12617904D02*
X4903953Y-12608380D01*
X4903953Y-12608380D02*
X4903953Y-12627428D01*
X5037286Y-12427428D02*
X5056334Y-12427428D01*
X5056334Y-12427428D02*
X5075382Y-12436952D01*
X5075382Y-12436952D02*
X5084905Y-12446475D01*
X5084905Y-12446475D02*
X5094429Y-12465523D01*
X5094429Y-12465523D02*
X5103953Y-12503618D01*
X5103953Y-12503618D02*
X5103953Y-12551237D01*
X5103953Y-12551237D02*
X5094429Y-12589332D01*
X5094429Y-12589332D02*
X5084905Y-12608380D01*
X5084905Y-12608380D02*
X5075382Y-12617904D01*
X5075382Y-12617904D02*
X5056334Y-12627428D01*
X5056334Y-12627428D02*
X5037286Y-12627428D01*
X5037286Y-12627428D02*
X5018239Y-12617904D01*
X5018239Y-12617904D02*
X5008715Y-12608380D01*
X5008715Y-12608380D02*
X4999191Y-12589332D01*
X4999191Y-12589332D02*
X4989667Y-12551237D01*
X4989667Y-12551237D02*
X4989667Y-12503618D01*
X4989667Y-12503618D02*
X4999191Y-12465523D01*
X4999191Y-12465523D02*
X5008715Y-12446475D01*
X5008715Y-12446475D02*
X5018239Y-12436952D01*
X5018239Y-12436952D02*
X5037286Y-12427428D01*
X5227763Y-12427428D02*
X5246810Y-12427428D01*
X5246810Y-12427428D02*
X5265858Y-12436952D01*
X5265858Y-12436952D02*
X5275382Y-12446475D01*
X5275382Y-12446475D02*
X5284905Y-12465523D01*
X5284905Y-12465523D02*
X5294429Y-12503618D01*
X5294429Y-12503618D02*
X5294429Y-12551237D01*
X5294429Y-12551237D02*
X5284905Y-12589332D01*
X5284905Y-12589332D02*
X5275382Y-12608380D01*
X5275382Y-12608380D02*
X5265858Y-12617904D01*
X5265858Y-12617904D02*
X5246810Y-12627428D01*
X5246810Y-12627428D02*
X5227763Y-12627428D01*
X5227763Y-12627428D02*
X5208715Y-12617904D01*
X5208715Y-12617904D02*
X5199191Y-12608380D01*
X5199191Y-12608380D02*
X5189667Y-12589332D01*
X5189667Y-12589332D02*
X5180144Y-12551237D01*
X5180144Y-12551237D02*
X5180144Y-12503618D01*
X5180144Y-12503618D02*
X5189667Y-12465523D01*
X5189667Y-12465523D02*
X5199191Y-12446475D01*
X5199191Y-12446475D02*
X5208715Y-12436952D01*
X5208715Y-12436952D02*
X5227763Y-12427428D01*
X5418239Y-12427428D02*
X5437286Y-12427428D01*
X5437286Y-12427428D02*
X5456334Y-12436952D01*
X5456334Y-12436952D02*
X5465858Y-12446475D01*
X5465858Y-12446475D02*
X5475382Y-12465523D01*
X5475382Y-12465523D02*
X5484905Y-12503618D01*
X5484905Y-12503618D02*
X5484905Y-12551237D01*
X5484905Y-12551237D02*
X5475382Y-12589332D01*
X5475382Y-12589332D02*
X5465858Y-12608380D01*
X5465858Y-12608380D02*
X5456334Y-12617904D01*
X5456334Y-12617904D02*
X5437286Y-12627428D01*
X5437286Y-12627428D02*
X5418239Y-12627428D01*
X5418239Y-12627428D02*
X5399191Y-12617904D01*
X5399191Y-12617904D02*
X5389667Y-12608380D01*
X5389667Y-12608380D02*
X5380144Y-12589332D01*
X5380144Y-12589332D02*
X5370620Y-12551237D01*
X5370620Y-12551237D02*
X5370620Y-12503618D01*
X5370620Y-12503618D02*
X5380144Y-12465523D01*
X5380144Y-12465523D02*
X5389667Y-12446475D01*
X5389667Y-12446475D02*
X5399191Y-12436952D01*
X5399191Y-12436952D02*
X5418239Y-12427428D01*
X5570620Y-12627428D02*
X5570620Y-12494094D01*
X5570620Y-12513142D02*
X5580144Y-12503618D01*
X5580144Y-12503618D02*
X5599191Y-12494094D01*
X5599191Y-12494094D02*
X5627763Y-12494094D01*
X5627763Y-12494094D02*
X5646810Y-12503618D01*
X5646810Y-12503618D02*
X5656334Y-12522666D01*
X5656334Y-12522666D02*
X5656334Y-12627428D01*
X5656334Y-12522666D02*
X5665858Y-12503618D01*
X5665858Y-12503618D02*
X5684905Y-12494094D01*
X5684905Y-12494094D02*
X5713477Y-12494094D01*
X5713477Y-12494094D02*
X5732524Y-12503618D01*
X5732524Y-12503618D02*
X5742048Y-12522666D01*
X5742048Y-12522666D02*
X5742048Y-12627428D01*
X5837286Y-12627428D02*
X5837286Y-12494094D01*
X5837286Y-12513142D02*
X5846810Y-12503618D01*
X5846810Y-12503618D02*
X5865858Y-12494094D01*
X5865858Y-12494094D02*
X5894429Y-12494094D01*
X5894429Y-12494094D02*
X5913477Y-12503618D01*
X5913477Y-12503618D02*
X5923001Y-12522666D01*
X5923001Y-12522666D02*
X5923001Y-12627428D01*
X5923001Y-12522666D02*
X5932524Y-12503618D01*
X5932524Y-12503618D02*
X5951572Y-12494094D01*
X5951572Y-12494094D02*
X5980143Y-12494094D01*
X5980143Y-12494094D02*
X5999191Y-12503618D01*
X5999191Y-12503618D02*
X6008715Y-12522666D01*
X6008715Y-12522666D02*
X6008715Y-12627428D01*
X6399191Y-12417904D02*
X6227763Y-12675047D01*
X6656334Y-12427428D02*
X6675382Y-12427428D01*
X6675382Y-12427428D02*
X6694429Y-12436952D01*
X6694429Y-12436952D02*
X6703953Y-12446475D01*
X6703953Y-12446475D02*
X6713477Y-12465523D01*
X6713477Y-12465523D02*
X6723001Y-12503618D01*
X6723001Y-12503618D02*
X6723001Y-12551237D01*
X6723001Y-12551237D02*
X6713477Y-12589332D01*
X6713477Y-12589332D02*
X6703953Y-12608380D01*
X6703953Y-12608380D02*
X6694429Y-12617904D01*
X6694429Y-12617904D02*
X6675382Y-12627428D01*
X6675382Y-12627428D02*
X6656334Y-12627428D01*
X6656334Y-12627428D02*
X6637286Y-12617904D01*
X6637286Y-12617904D02*
X6627763Y-12608380D01*
X6627763Y-12608380D02*
X6618239Y-12589332D01*
X6618239Y-12589332D02*
X6608715Y-12551237D01*
X6608715Y-12551237D02*
X6608715Y-12503618D01*
X6608715Y-12503618D02*
X6618239Y-12465523D01*
X6618239Y-12465523D02*
X6627763Y-12446475D01*
X6627763Y-12446475D02*
X6637286Y-12436952D01*
X6637286Y-12436952D02*
X6656334Y-12427428D01*
X6808715Y-12608380D02*
X6818239Y-12617904D01*
X6818239Y-12617904D02*
X6808715Y-12627428D01*
X6808715Y-12627428D02*
X6799191Y-12617904D01*
X6799191Y-12617904D02*
X6808715Y-12608380D01*
X6808715Y-12608380D02*
X6808715Y-12627428D01*
X6942048Y-12427428D02*
X6961096Y-12427428D01*
X6961096Y-12427428D02*
X6980144Y-12436952D01*
X6980144Y-12436952D02*
X6989667Y-12446475D01*
X6989667Y-12446475D02*
X6999191Y-12465523D01*
X6999191Y-12465523D02*
X7008715Y-12503618D01*
X7008715Y-12503618D02*
X7008715Y-12551237D01*
X7008715Y-12551237D02*
X6999191Y-12589332D01*
X6999191Y-12589332D02*
X6989667Y-12608380D01*
X6989667Y-12608380D02*
X6980144Y-12617904D01*
X6980144Y-12617904D02*
X6961096Y-12627428D01*
X6961096Y-12627428D02*
X6942048Y-12627428D01*
X6942048Y-12627428D02*
X6923001Y-12617904D01*
X6923001Y-12617904D02*
X6913477Y-12608380D01*
X6913477Y-12608380D02*
X6903953Y-12589332D01*
X6903953Y-12589332D02*
X6894429Y-12551237D01*
X6894429Y-12551237D02*
X6894429Y-12503618D01*
X6894429Y-12503618D02*
X6903953Y-12465523D01*
X6903953Y-12465523D02*
X6913477Y-12446475D01*
X6913477Y-12446475D02*
X6923001Y-12436952D01*
X6923001Y-12436952D02*
X6942048Y-12427428D01*
X7075382Y-12427428D02*
X7199191Y-12427428D01*
X7199191Y-12427428D02*
X7132525Y-12503618D01*
X7132525Y-12503618D02*
X7161096Y-12503618D01*
X7161096Y-12503618D02*
X7180144Y-12513142D01*
X7180144Y-12513142D02*
X7189667Y-12522666D01*
X7189667Y-12522666D02*
X7199191Y-12541713D01*
X7199191Y-12541713D02*
X7199191Y-12589332D01*
X7199191Y-12589332D02*
X7189667Y-12608380D01*
X7189667Y-12608380D02*
X7180144Y-12617904D01*
X7180144Y-12617904D02*
X7161096Y-12627428D01*
X7161096Y-12627428D02*
X7103953Y-12627428D01*
X7103953Y-12627428D02*
X7084906Y-12617904D01*
X7084906Y-12617904D02*
X7075382Y-12608380D01*
X7294429Y-12627428D02*
X7332525Y-12627428D01*
X7332525Y-12627428D02*
X7351572Y-12617904D01*
X7351572Y-12617904D02*
X7361096Y-12608380D01*
X7361096Y-12608380D02*
X7380144Y-12579809D01*
X7380144Y-12579809D02*
X7389667Y-12541713D01*
X7389667Y-12541713D02*
X7389667Y-12465523D01*
X7389667Y-12465523D02*
X7380144Y-12446475D01*
X7380144Y-12446475D02*
X7370620Y-12436952D01*
X7370620Y-12436952D02*
X7351572Y-12427428D01*
X7351572Y-12427428D02*
X7313477Y-12427428D01*
X7313477Y-12427428D02*
X7294429Y-12436952D01*
X7294429Y-12436952D02*
X7284906Y-12446475D01*
X7284906Y-12446475D02*
X7275382Y-12465523D01*
X7275382Y-12465523D02*
X7275382Y-12513142D01*
X7275382Y-12513142D02*
X7284906Y-12532190D01*
X7284906Y-12532190D02*
X7294429Y-12541713D01*
X7294429Y-12541713D02*
X7313477Y-12551237D01*
X7313477Y-12551237D02*
X7351572Y-12551237D01*
X7351572Y-12551237D02*
X7370620Y-12541713D01*
X7370620Y-12541713D02*
X7380144Y-12532190D01*
X7380144Y-12532190D02*
X7389667Y-12513142D01*
X7561096Y-12494094D02*
X7561096Y-12627428D01*
X7513477Y-12417904D02*
X7465858Y-12560761D01*
X7465858Y-12560761D02*
X7589667Y-12560761D01*
X7656334Y-12427428D02*
X7656334Y-12465523D01*
X7732525Y-12427428D02*
X7732525Y-12465523D01*
X8027763Y-12703618D02*
X8018239Y-12694094D01*
X8018239Y-12694094D02*
X7999191Y-12665523D01*
X7999191Y-12665523D02*
X7989668Y-12646475D01*
X7989668Y-12646475D02*
X7980144Y-12617904D01*
X7980144Y-12617904D02*
X7970620Y-12570285D01*
X7970620Y-12570285D02*
X7970620Y-12532190D01*
X7970620Y-12532190D02*
X7980144Y-12484571D01*
X7980144Y-12484571D02*
X7989668Y-12455999D01*
X7989668Y-12455999D02*
X7999191Y-12436952D01*
X7999191Y-12436952D02*
X8018239Y-12408380D01*
X8018239Y-12408380D02*
X8027763Y-12398856D01*
X8199191Y-12427428D02*
X8103953Y-12427428D01*
X8103953Y-12427428D02*
X8094429Y-12522666D01*
X8094429Y-12522666D02*
X8103953Y-12513142D01*
X8103953Y-12513142D02*
X8123001Y-12503618D01*
X8123001Y-12503618D02*
X8170620Y-12503618D01*
X8170620Y-12503618D02*
X8189668Y-12513142D01*
X8189668Y-12513142D02*
X8199191Y-12522666D01*
X8199191Y-12522666D02*
X8208715Y-12541713D01*
X8208715Y-12541713D02*
X8208715Y-12589332D01*
X8208715Y-12589332D02*
X8199191Y-12608380D01*
X8199191Y-12608380D02*
X8189668Y-12617904D01*
X8189668Y-12617904D02*
X8170620Y-12627428D01*
X8170620Y-12627428D02*
X8123001Y-12627428D01*
X8123001Y-12627428D02*
X8103953Y-12617904D01*
X8103953Y-12617904D02*
X8094429Y-12608380D01*
X8446811Y-12627428D02*
X8446811Y-12427428D01*
X8532525Y-12627428D02*
X8532525Y-12522666D01*
X8532525Y-12522666D02*
X8523001Y-12503618D01*
X8523001Y-12503618D02*
X8503953Y-12494094D01*
X8503953Y-12494094D02*
X8475382Y-12494094D01*
X8475382Y-12494094D02*
X8456334Y-12503618D01*
X8456334Y-12503618D02*
X8446811Y-12513142D01*
X8656334Y-12627428D02*
X8637287Y-12617904D01*
X8637287Y-12617904D02*
X8627763Y-12608380D01*
X8627763Y-12608380D02*
X8618239Y-12589332D01*
X8618239Y-12589332D02*
X8618239Y-12532190D01*
X8618239Y-12532190D02*
X8627763Y-12513142D01*
X8627763Y-12513142D02*
X8637287Y-12503618D01*
X8637287Y-12503618D02*
X8656334Y-12494094D01*
X8656334Y-12494094D02*
X8684906Y-12494094D01*
X8684906Y-12494094D02*
X8703953Y-12503618D01*
X8703953Y-12503618D02*
X8713477Y-12513142D01*
X8713477Y-12513142D02*
X8723001Y-12532190D01*
X8723001Y-12532190D02*
X8723001Y-12589332D01*
X8723001Y-12589332D02*
X8713477Y-12608380D01*
X8713477Y-12608380D02*
X8703953Y-12617904D01*
X8703953Y-12617904D02*
X8684906Y-12627428D01*
X8684906Y-12627428D02*
X8656334Y-12627428D01*
X8837287Y-12627428D02*
X8818239Y-12617904D01*
X8818239Y-12617904D02*
X8808715Y-12598856D01*
X8808715Y-12598856D02*
X8808715Y-12427428D01*
X8989668Y-12617904D02*
X8970620Y-12627428D01*
X8970620Y-12627428D02*
X8932525Y-12627428D01*
X8932525Y-12627428D02*
X8913477Y-12617904D01*
X8913477Y-12617904D02*
X8903953Y-12598856D01*
X8903953Y-12598856D02*
X8903953Y-12522666D01*
X8903953Y-12522666D02*
X8913477Y-12503618D01*
X8913477Y-12503618D02*
X8932525Y-12494094D01*
X8932525Y-12494094D02*
X8970620Y-12494094D01*
X8970620Y-12494094D02*
X8989668Y-12503618D01*
X8989668Y-12503618D02*
X8999192Y-12522666D01*
X8999192Y-12522666D02*
X8999192Y-12541713D01*
X8999192Y-12541713D02*
X8903953Y-12560761D01*
X9075382Y-12617904D02*
X9094430Y-12627428D01*
X9094430Y-12627428D02*
X9132525Y-12627428D01*
X9132525Y-12627428D02*
X9151573Y-12617904D01*
X9151573Y-12617904D02*
X9161096Y-12598856D01*
X9161096Y-12598856D02*
X9161096Y-12589332D01*
X9161096Y-12589332D02*
X9151573Y-12570285D01*
X9151573Y-12570285D02*
X9132525Y-12560761D01*
X9132525Y-12560761D02*
X9103953Y-12560761D01*
X9103953Y-12560761D02*
X9084906Y-12551237D01*
X9084906Y-12551237D02*
X9075382Y-12532190D01*
X9075382Y-12532190D02*
X9075382Y-12522666D01*
X9075382Y-12522666D02*
X9084906Y-12503618D01*
X9084906Y-12503618D02*
X9103953Y-12494094D01*
X9103953Y-12494094D02*
X9132525Y-12494094D01*
X9132525Y-12494094D02*
X9151573Y-12503618D01*
X9227763Y-12703618D02*
X9237287Y-12694094D01*
X9237287Y-12694094D02*
X9256334Y-12665523D01*
X9256334Y-12665523D02*
X9265858Y-12646475D01*
X9265858Y-12646475D02*
X9275382Y-12617904D01*
X9275382Y-12617904D02*
X9284906Y-12570285D01*
X9284906Y-12570285D02*
X9284906Y-12532190D01*
X9284906Y-12532190D02*
X9275382Y-12484571D01*
X9275382Y-12484571D02*
X9265858Y-12455999D01*
X9265858Y-12455999D02*
X9256334Y-12436952D01*
X9256334Y-12436952D02*
X9237287Y-12408380D01*
X9237287Y-12408380D02*
X9227763Y-12398856D01*
D12*
X4438045Y-12835326D02*
X4438045Y-12764561D01*
X4367280Y-12764561D01*
X4367280Y-12835326D01*
X4438045Y-12835326D01*
D11*
X4818239Y-12891428D02*
X4703953Y-12891428D01*
X4761096Y-12891428D02*
X4761096Y-12691428D01*
X4761096Y-12691428D02*
X4742048Y-12719999D01*
X4742048Y-12719999D02*
X4723001Y-12739047D01*
X4723001Y-12739047D02*
X4703953Y-12748571D01*
X4903953Y-12872380D02*
X4913477Y-12881904D01*
X4913477Y-12881904D02*
X4903953Y-12891428D01*
X4903953Y-12891428D02*
X4894429Y-12881904D01*
X4894429Y-12881904D02*
X4903953Y-12872380D01*
X4903953Y-12872380D02*
X4903953Y-12891428D01*
X5037286Y-12691428D02*
X5056334Y-12691428D01*
X5056334Y-12691428D02*
X5075382Y-12700952D01*
X5075382Y-12700952D02*
X5084905Y-12710475D01*
X5084905Y-12710475D02*
X5094429Y-12729523D01*
X5094429Y-12729523D02*
X5103953Y-12767618D01*
X5103953Y-12767618D02*
X5103953Y-12815237D01*
X5103953Y-12815237D02*
X5094429Y-12853332D01*
X5094429Y-12853332D02*
X5084905Y-12872380D01*
X5084905Y-12872380D02*
X5075382Y-12881904D01*
X5075382Y-12881904D02*
X5056334Y-12891428D01*
X5056334Y-12891428D02*
X5037286Y-12891428D01*
X5037286Y-12891428D02*
X5018239Y-12881904D01*
X5018239Y-12881904D02*
X5008715Y-12872380D01*
X5008715Y-12872380D02*
X4999191Y-12853332D01*
X4999191Y-12853332D02*
X4989667Y-12815237D01*
X4989667Y-12815237D02*
X4989667Y-12767618D01*
X4989667Y-12767618D02*
X4999191Y-12729523D01*
X4999191Y-12729523D02*
X5008715Y-12710475D01*
X5008715Y-12710475D02*
X5018239Y-12700952D01*
X5018239Y-12700952D02*
X5037286Y-12691428D01*
X5227763Y-12691428D02*
X5246810Y-12691428D01*
X5246810Y-12691428D02*
X5265858Y-12700952D01*
X5265858Y-12700952D02*
X5275382Y-12710475D01*
X5275382Y-12710475D02*
X5284905Y-12729523D01*
X5284905Y-12729523D02*
X5294429Y-12767618D01*
X5294429Y-12767618D02*
X5294429Y-12815237D01*
X5294429Y-12815237D02*
X5284905Y-12853332D01*
X5284905Y-12853332D02*
X5275382Y-12872380D01*
X5275382Y-12872380D02*
X5265858Y-12881904D01*
X5265858Y-12881904D02*
X5246810Y-12891428D01*
X5246810Y-12891428D02*
X5227763Y-12891428D01*
X5227763Y-12891428D02*
X5208715Y-12881904D01*
X5208715Y-12881904D02*
X5199191Y-12872380D01*
X5199191Y-12872380D02*
X5189667Y-12853332D01*
X5189667Y-12853332D02*
X5180144Y-12815237D01*
X5180144Y-12815237D02*
X5180144Y-12767618D01*
X5180144Y-12767618D02*
X5189667Y-12729523D01*
X5189667Y-12729523D02*
X5199191Y-12710475D01*
X5199191Y-12710475D02*
X5208715Y-12700952D01*
X5208715Y-12700952D02*
X5227763Y-12691428D01*
X5484905Y-12891428D02*
X5370620Y-12891428D01*
X5427763Y-12891428D02*
X5427763Y-12691428D01*
X5427763Y-12691428D02*
X5408715Y-12719999D01*
X5408715Y-12719999D02*
X5389667Y-12739047D01*
X5389667Y-12739047D02*
X5370620Y-12748571D01*
X5570620Y-12891428D02*
X5570620Y-12758094D01*
X5570620Y-12777142D02*
X5580144Y-12767618D01*
X5580144Y-12767618D02*
X5599191Y-12758094D01*
X5599191Y-12758094D02*
X5627763Y-12758094D01*
X5627763Y-12758094D02*
X5646810Y-12767618D01*
X5646810Y-12767618D02*
X5656334Y-12786666D01*
X5656334Y-12786666D02*
X5656334Y-12891428D01*
X5656334Y-12786666D02*
X5665858Y-12767618D01*
X5665858Y-12767618D02*
X5684905Y-12758094D01*
X5684905Y-12758094D02*
X5713477Y-12758094D01*
X5713477Y-12758094D02*
X5732524Y-12767618D01*
X5732524Y-12767618D02*
X5742048Y-12786666D01*
X5742048Y-12786666D02*
X5742048Y-12891428D01*
X5837286Y-12891428D02*
X5837286Y-12758094D01*
X5837286Y-12777142D02*
X5846810Y-12767618D01*
X5846810Y-12767618D02*
X5865858Y-12758094D01*
X5865858Y-12758094D02*
X5894429Y-12758094D01*
X5894429Y-12758094D02*
X5913477Y-12767618D01*
X5913477Y-12767618D02*
X5923001Y-12786666D01*
X5923001Y-12786666D02*
X5923001Y-12891428D01*
X5923001Y-12786666D02*
X5932524Y-12767618D01*
X5932524Y-12767618D02*
X5951572Y-12758094D01*
X5951572Y-12758094D02*
X5980143Y-12758094D01*
X5980143Y-12758094D02*
X5999191Y-12767618D01*
X5999191Y-12767618D02*
X6008715Y-12786666D01*
X6008715Y-12786666D02*
X6008715Y-12891428D01*
X6399191Y-12681904D02*
X6227763Y-12939047D01*
X6656334Y-12691428D02*
X6675382Y-12691428D01*
X6675382Y-12691428D02*
X6694429Y-12700952D01*
X6694429Y-12700952D02*
X6703953Y-12710475D01*
X6703953Y-12710475D02*
X6713477Y-12729523D01*
X6713477Y-12729523D02*
X6723001Y-12767618D01*
X6723001Y-12767618D02*
X6723001Y-12815237D01*
X6723001Y-12815237D02*
X6713477Y-12853332D01*
X6713477Y-12853332D02*
X6703953Y-12872380D01*
X6703953Y-12872380D02*
X6694429Y-12881904D01*
X6694429Y-12881904D02*
X6675382Y-12891428D01*
X6675382Y-12891428D02*
X6656334Y-12891428D01*
X6656334Y-12891428D02*
X6637286Y-12881904D01*
X6637286Y-12881904D02*
X6627763Y-12872380D01*
X6627763Y-12872380D02*
X6618239Y-12853332D01*
X6618239Y-12853332D02*
X6608715Y-12815237D01*
X6608715Y-12815237D02*
X6608715Y-12767618D01*
X6608715Y-12767618D02*
X6618239Y-12729523D01*
X6618239Y-12729523D02*
X6627763Y-12710475D01*
X6627763Y-12710475D02*
X6637286Y-12700952D01*
X6637286Y-12700952D02*
X6656334Y-12691428D01*
X6808715Y-12872380D02*
X6818239Y-12881904D01*
X6818239Y-12881904D02*
X6808715Y-12891428D01*
X6808715Y-12891428D02*
X6799191Y-12881904D01*
X6799191Y-12881904D02*
X6808715Y-12872380D01*
X6808715Y-12872380D02*
X6808715Y-12891428D01*
X6942048Y-12691428D02*
X6961096Y-12691428D01*
X6961096Y-12691428D02*
X6980144Y-12700952D01*
X6980144Y-12700952D02*
X6989667Y-12710475D01*
X6989667Y-12710475D02*
X6999191Y-12729523D01*
X6999191Y-12729523D02*
X7008715Y-12767618D01*
X7008715Y-12767618D02*
X7008715Y-12815237D01*
X7008715Y-12815237D02*
X6999191Y-12853332D01*
X6999191Y-12853332D02*
X6989667Y-12872380D01*
X6989667Y-12872380D02*
X6980144Y-12881904D01*
X6980144Y-12881904D02*
X6961096Y-12891428D01*
X6961096Y-12891428D02*
X6942048Y-12891428D01*
X6942048Y-12891428D02*
X6923001Y-12881904D01*
X6923001Y-12881904D02*
X6913477Y-12872380D01*
X6913477Y-12872380D02*
X6903953Y-12853332D01*
X6903953Y-12853332D02*
X6894429Y-12815237D01*
X6894429Y-12815237D02*
X6894429Y-12767618D01*
X6894429Y-12767618D02*
X6903953Y-12729523D01*
X6903953Y-12729523D02*
X6913477Y-12710475D01*
X6913477Y-12710475D02*
X6923001Y-12700952D01*
X6923001Y-12700952D02*
X6942048Y-12691428D01*
X7075382Y-12691428D02*
X7199191Y-12691428D01*
X7199191Y-12691428D02*
X7132525Y-12767618D01*
X7132525Y-12767618D02*
X7161096Y-12767618D01*
X7161096Y-12767618D02*
X7180144Y-12777142D01*
X7180144Y-12777142D02*
X7189667Y-12786666D01*
X7189667Y-12786666D02*
X7199191Y-12805713D01*
X7199191Y-12805713D02*
X7199191Y-12853332D01*
X7199191Y-12853332D02*
X7189667Y-12872380D01*
X7189667Y-12872380D02*
X7180144Y-12881904D01*
X7180144Y-12881904D02*
X7161096Y-12891428D01*
X7161096Y-12891428D02*
X7103953Y-12891428D01*
X7103953Y-12891428D02*
X7084906Y-12881904D01*
X7084906Y-12881904D02*
X7075382Y-12872380D01*
X7294429Y-12891428D02*
X7332525Y-12891428D01*
X7332525Y-12891428D02*
X7351572Y-12881904D01*
X7351572Y-12881904D02*
X7361096Y-12872380D01*
X7361096Y-12872380D02*
X7380144Y-12843809D01*
X7380144Y-12843809D02*
X7389667Y-12805713D01*
X7389667Y-12805713D02*
X7389667Y-12729523D01*
X7389667Y-12729523D02*
X7380144Y-12710475D01*
X7380144Y-12710475D02*
X7370620Y-12700952D01*
X7370620Y-12700952D02*
X7351572Y-12691428D01*
X7351572Y-12691428D02*
X7313477Y-12691428D01*
X7313477Y-12691428D02*
X7294429Y-12700952D01*
X7294429Y-12700952D02*
X7284906Y-12710475D01*
X7284906Y-12710475D02*
X7275382Y-12729523D01*
X7275382Y-12729523D02*
X7275382Y-12777142D01*
X7275382Y-12777142D02*
X7284906Y-12796190D01*
X7284906Y-12796190D02*
X7294429Y-12805713D01*
X7294429Y-12805713D02*
X7313477Y-12815237D01*
X7313477Y-12815237D02*
X7351572Y-12815237D01*
X7351572Y-12815237D02*
X7370620Y-12805713D01*
X7370620Y-12805713D02*
X7380144Y-12796190D01*
X7380144Y-12796190D02*
X7389667Y-12777142D01*
X7561096Y-12758094D02*
X7561096Y-12891428D01*
X7513477Y-12681904D02*
X7465858Y-12824761D01*
X7465858Y-12824761D02*
X7589667Y-12824761D01*
X7656334Y-12691428D02*
X7656334Y-12729523D01*
X7732525Y-12691428D02*
X7732525Y-12729523D01*
X8027763Y-12967618D02*
X8018239Y-12958094D01*
X8018239Y-12958094D02*
X7999191Y-12929523D01*
X7999191Y-12929523D02*
X7989668Y-12910475D01*
X7989668Y-12910475D02*
X7980144Y-12881904D01*
X7980144Y-12881904D02*
X7970620Y-12834285D01*
X7970620Y-12834285D02*
X7970620Y-12796190D01*
X7970620Y-12796190D02*
X7980144Y-12748571D01*
X7980144Y-12748571D02*
X7989668Y-12719999D01*
X7989668Y-12719999D02*
X7999191Y-12700952D01*
X7999191Y-12700952D02*
X8018239Y-12672380D01*
X8018239Y-12672380D02*
X8027763Y-12662856D01*
X8189668Y-12691428D02*
X8151572Y-12691428D01*
X8151572Y-12691428D02*
X8132525Y-12700952D01*
X8132525Y-12700952D02*
X8123001Y-12710475D01*
X8123001Y-12710475D02*
X8103953Y-12739047D01*
X8103953Y-12739047D02*
X8094429Y-12777142D01*
X8094429Y-12777142D02*
X8094429Y-12853332D01*
X8094429Y-12853332D02*
X8103953Y-12872380D01*
X8103953Y-12872380D02*
X8113477Y-12881904D01*
X8113477Y-12881904D02*
X8132525Y-12891428D01*
X8132525Y-12891428D02*
X8170620Y-12891428D01*
X8170620Y-12891428D02*
X8189668Y-12881904D01*
X8189668Y-12881904D02*
X8199191Y-12872380D01*
X8199191Y-12872380D02*
X8208715Y-12853332D01*
X8208715Y-12853332D02*
X8208715Y-12805713D01*
X8208715Y-12805713D02*
X8199191Y-12786666D01*
X8199191Y-12786666D02*
X8189668Y-12777142D01*
X8189668Y-12777142D02*
X8170620Y-12767618D01*
X8170620Y-12767618D02*
X8132525Y-12767618D01*
X8132525Y-12767618D02*
X8113477Y-12777142D01*
X8113477Y-12777142D02*
X8103953Y-12786666D01*
X8103953Y-12786666D02*
X8094429Y-12805713D01*
X8446811Y-12891428D02*
X8446811Y-12691428D01*
X8532525Y-12891428D02*
X8532525Y-12786666D01*
X8532525Y-12786666D02*
X8523001Y-12767618D01*
X8523001Y-12767618D02*
X8503953Y-12758094D01*
X8503953Y-12758094D02*
X8475382Y-12758094D01*
X8475382Y-12758094D02*
X8456334Y-12767618D01*
X8456334Y-12767618D02*
X8446811Y-12777142D01*
X8656334Y-12891428D02*
X8637287Y-12881904D01*
X8637287Y-12881904D02*
X8627763Y-12872380D01*
X8627763Y-12872380D02*
X8618239Y-12853332D01*
X8618239Y-12853332D02*
X8618239Y-12796190D01*
X8618239Y-12796190D02*
X8627763Y-12777142D01*
X8627763Y-12777142D02*
X8637287Y-12767618D01*
X8637287Y-12767618D02*
X8656334Y-12758094D01*
X8656334Y-12758094D02*
X8684906Y-12758094D01*
X8684906Y-12758094D02*
X8703953Y-12767618D01*
X8703953Y-12767618D02*
X8713477Y-12777142D01*
X8713477Y-12777142D02*
X8723001Y-12796190D01*
X8723001Y-12796190D02*
X8723001Y-12853332D01*
X8723001Y-12853332D02*
X8713477Y-12872380D01*
X8713477Y-12872380D02*
X8703953Y-12881904D01*
X8703953Y-12881904D02*
X8684906Y-12891428D01*
X8684906Y-12891428D02*
X8656334Y-12891428D01*
X8837287Y-12891428D02*
X8818239Y-12881904D01*
X8818239Y-12881904D02*
X8808715Y-12862856D01*
X8808715Y-12862856D02*
X8808715Y-12691428D01*
X8989668Y-12881904D02*
X8970620Y-12891428D01*
X8970620Y-12891428D02*
X8932525Y-12891428D01*
X8932525Y-12891428D02*
X8913477Y-12881904D01*
X8913477Y-12881904D02*
X8903953Y-12862856D01*
X8903953Y-12862856D02*
X8903953Y-12786666D01*
X8903953Y-12786666D02*
X8913477Y-12767618D01*
X8913477Y-12767618D02*
X8932525Y-12758094D01*
X8932525Y-12758094D02*
X8970620Y-12758094D01*
X8970620Y-12758094D02*
X8989668Y-12767618D01*
X8989668Y-12767618D02*
X8999192Y-12786666D01*
X8999192Y-12786666D02*
X8999192Y-12805713D01*
X8999192Y-12805713D02*
X8903953Y-12824761D01*
X9075382Y-12881904D02*
X9094430Y-12891428D01*
X9094430Y-12891428D02*
X9132525Y-12891428D01*
X9132525Y-12891428D02*
X9151573Y-12881904D01*
X9151573Y-12881904D02*
X9161096Y-12862856D01*
X9161096Y-12862856D02*
X9161096Y-12853332D01*
X9161096Y-12853332D02*
X9151573Y-12834285D01*
X9151573Y-12834285D02*
X9132525Y-12824761D01*
X9132525Y-12824761D02*
X9103953Y-12824761D01*
X9103953Y-12824761D02*
X9084906Y-12815237D01*
X9084906Y-12815237D02*
X9075382Y-12796190D01*
X9075382Y-12796190D02*
X9075382Y-12786666D01*
X9075382Y-12786666D02*
X9084906Y-12767618D01*
X9084906Y-12767618D02*
X9103953Y-12758094D01*
X9103953Y-12758094D02*
X9132525Y-12758094D01*
X9132525Y-12758094D02*
X9151573Y-12767618D01*
X9227763Y-12967618D02*
X9237287Y-12958094D01*
X9237287Y-12958094D02*
X9256334Y-12929523D01*
X9256334Y-12929523D02*
X9265858Y-12910475D01*
X9265858Y-12910475D02*
X9275382Y-12881904D01*
X9275382Y-12881904D02*
X9284906Y-12834285D01*
X9284906Y-12834285D02*
X9284906Y-12796190D01*
X9284906Y-12796190D02*
X9275382Y-12748571D01*
X9275382Y-12748571D02*
X9265858Y-12719999D01*
X9265858Y-12719999D02*
X9256334Y-12700952D01*
X9256334Y-12700952D02*
X9237287Y-12672380D01*
X9237287Y-12672380D02*
X9227763Y-12662856D01*
D13*
X4397700Y-13118944D02*
X4452700Y-13063944D01*
X4397700Y-13008944D01*
X4342700Y-13063944D01*
X4397700Y-13118944D01*
D11*
X4818239Y-13155428D02*
X4703953Y-13155428D01*
X4761096Y-13155428D02*
X4761096Y-12955428D01*
X4761096Y-12955428D02*
X4742048Y-12983999D01*
X4742048Y-12983999D02*
X4723001Y-13003047D01*
X4723001Y-13003047D02*
X4703953Y-13012571D01*
X4903953Y-13136380D02*
X4913477Y-13145904D01*
X4913477Y-13145904D02*
X4903953Y-13155428D01*
X4903953Y-13155428D02*
X4894429Y-13145904D01*
X4894429Y-13145904D02*
X4903953Y-13136380D01*
X4903953Y-13136380D02*
X4903953Y-13155428D01*
X5103953Y-13155428D02*
X4989667Y-13155428D01*
X5046810Y-13155428D02*
X5046810Y-12955428D01*
X5046810Y-12955428D02*
X5027763Y-12983999D01*
X5027763Y-12983999D02*
X5008715Y-13003047D01*
X5008715Y-13003047D02*
X4989667Y-13012571D01*
X5227763Y-12955428D02*
X5246810Y-12955428D01*
X5246810Y-12955428D02*
X5265858Y-12964952D01*
X5265858Y-12964952D02*
X5275382Y-12974475D01*
X5275382Y-12974475D02*
X5284905Y-12993523D01*
X5284905Y-12993523D02*
X5294429Y-13031618D01*
X5294429Y-13031618D02*
X5294429Y-13079237D01*
X5294429Y-13079237D02*
X5284905Y-13117332D01*
X5284905Y-13117332D02*
X5275382Y-13136380D01*
X5275382Y-13136380D02*
X5265858Y-13145904D01*
X5265858Y-13145904D02*
X5246810Y-13155428D01*
X5246810Y-13155428D02*
X5227763Y-13155428D01*
X5227763Y-13155428D02*
X5208715Y-13145904D01*
X5208715Y-13145904D02*
X5199191Y-13136380D01*
X5199191Y-13136380D02*
X5189667Y-13117332D01*
X5189667Y-13117332D02*
X5180144Y-13079237D01*
X5180144Y-13079237D02*
X5180144Y-13031618D01*
X5180144Y-13031618D02*
X5189667Y-12993523D01*
X5189667Y-12993523D02*
X5199191Y-12974475D01*
X5199191Y-12974475D02*
X5208715Y-12964952D01*
X5208715Y-12964952D02*
X5227763Y-12955428D01*
X5418239Y-12955428D02*
X5437286Y-12955428D01*
X5437286Y-12955428D02*
X5456334Y-12964952D01*
X5456334Y-12964952D02*
X5465858Y-12974475D01*
X5465858Y-12974475D02*
X5475382Y-12993523D01*
X5475382Y-12993523D02*
X5484905Y-13031618D01*
X5484905Y-13031618D02*
X5484905Y-13079237D01*
X5484905Y-13079237D02*
X5475382Y-13117332D01*
X5475382Y-13117332D02*
X5465858Y-13136380D01*
X5465858Y-13136380D02*
X5456334Y-13145904D01*
X5456334Y-13145904D02*
X5437286Y-13155428D01*
X5437286Y-13155428D02*
X5418239Y-13155428D01*
X5418239Y-13155428D02*
X5399191Y-13145904D01*
X5399191Y-13145904D02*
X5389667Y-13136380D01*
X5389667Y-13136380D02*
X5380144Y-13117332D01*
X5380144Y-13117332D02*
X5370620Y-13079237D01*
X5370620Y-13079237D02*
X5370620Y-13031618D01*
X5370620Y-13031618D02*
X5380144Y-12993523D01*
X5380144Y-12993523D02*
X5389667Y-12974475D01*
X5389667Y-12974475D02*
X5399191Y-12964952D01*
X5399191Y-12964952D02*
X5418239Y-12955428D01*
X5570620Y-13155428D02*
X5570620Y-13022094D01*
X5570620Y-13041142D02*
X5580144Y-13031618D01*
X5580144Y-13031618D02*
X5599191Y-13022094D01*
X5599191Y-13022094D02*
X5627763Y-13022094D01*
X5627763Y-13022094D02*
X5646810Y-13031618D01*
X5646810Y-13031618D02*
X5656334Y-13050666D01*
X5656334Y-13050666D02*
X5656334Y-13155428D01*
X5656334Y-13050666D02*
X5665858Y-13031618D01*
X5665858Y-13031618D02*
X5684905Y-13022094D01*
X5684905Y-13022094D02*
X5713477Y-13022094D01*
X5713477Y-13022094D02*
X5732524Y-13031618D01*
X5732524Y-13031618D02*
X5742048Y-13050666D01*
X5742048Y-13050666D02*
X5742048Y-13155428D01*
X5837286Y-13155428D02*
X5837286Y-13022094D01*
X5837286Y-13041142D02*
X5846810Y-13031618D01*
X5846810Y-13031618D02*
X5865858Y-13022094D01*
X5865858Y-13022094D02*
X5894429Y-13022094D01*
X5894429Y-13022094D02*
X5913477Y-13031618D01*
X5913477Y-13031618D02*
X5923001Y-13050666D01*
X5923001Y-13050666D02*
X5923001Y-13155428D01*
X5923001Y-13050666D02*
X5932524Y-13031618D01*
X5932524Y-13031618D02*
X5951572Y-13022094D01*
X5951572Y-13022094D02*
X5980143Y-13022094D01*
X5980143Y-13022094D02*
X5999191Y-13031618D01*
X5999191Y-13031618D02*
X6008715Y-13050666D01*
X6008715Y-13050666D02*
X6008715Y-13155428D01*
X6399191Y-12945904D02*
X6227763Y-13203047D01*
X6656334Y-12955428D02*
X6675382Y-12955428D01*
X6675382Y-12955428D02*
X6694429Y-12964952D01*
X6694429Y-12964952D02*
X6703953Y-12974475D01*
X6703953Y-12974475D02*
X6713477Y-12993523D01*
X6713477Y-12993523D02*
X6723001Y-13031618D01*
X6723001Y-13031618D02*
X6723001Y-13079237D01*
X6723001Y-13079237D02*
X6713477Y-13117332D01*
X6713477Y-13117332D02*
X6703953Y-13136380D01*
X6703953Y-13136380D02*
X6694429Y-13145904D01*
X6694429Y-13145904D02*
X6675382Y-13155428D01*
X6675382Y-13155428D02*
X6656334Y-13155428D01*
X6656334Y-13155428D02*
X6637286Y-13145904D01*
X6637286Y-13145904D02*
X6627763Y-13136380D01*
X6627763Y-13136380D02*
X6618239Y-13117332D01*
X6618239Y-13117332D02*
X6608715Y-13079237D01*
X6608715Y-13079237D02*
X6608715Y-13031618D01*
X6608715Y-13031618D02*
X6618239Y-12993523D01*
X6618239Y-12993523D02*
X6627763Y-12974475D01*
X6627763Y-12974475D02*
X6637286Y-12964952D01*
X6637286Y-12964952D02*
X6656334Y-12955428D01*
X6808715Y-13136380D02*
X6818239Y-13145904D01*
X6818239Y-13145904D02*
X6808715Y-13155428D01*
X6808715Y-13155428D02*
X6799191Y-13145904D01*
X6799191Y-13145904D02*
X6808715Y-13136380D01*
X6808715Y-13136380D02*
X6808715Y-13155428D01*
X6942048Y-12955428D02*
X6961096Y-12955428D01*
X6961096Y-12955428D02*
X6980144Y-12964952D01*
X6980144Y-12964952D02*
X6989667Y-12974475D01*
X6989667Y-12974475D02*
X6999191Y-12993523D01*
X6999191Y-12993523D02*
X7008715Y-13031618D01*
X7008715Y-13031618D02*
X7008715Y-13079237D01*
X7008715Y-13079237D02*
X6999191Y-13117332D01*
X6999191Y-13117332D02*
X6989667Y-13136380D01*
X6989667Y-13136380D02*
X6980144Y-13145904D01*
X6980144Y-13145904D02*
X6961096Y-13155428D01*
X6961096Y-13155428D02*
X6942048Y-13155428D01*
X6942048Y-13155428D02*
X6923001Y-13145904D01*
X6923001Y-13145904D02*
X6913477Y-13136380D01*
X6913477Y-13136380D02*
X6903953Y-13117332D01*
X6903953Y-13117332D02*
X6894429Y-13079237D01*
X6894429Y-13079237D02*
X6894429Y-13031618D01*
X6894429Y-13031618D02*
X6903953Y-12993523D01*
X6903953Y-12993523D02*
X6913477Y-12974475D01*
X6913477Y-12974475D02*
X6923001Y-12964952D01*
X6923001Y-12964952D02*
X6942048Y-12955428D01*
X7180144Y-13022094D02*
X7180144Y-13155428D01*
X7132525Y-12945904D02*
X7084906Y-13088761D01*
X7084906Y-13088761D02*
X7208715Y-13088761D01*
X7265858Y-12955428D02*
X7389667Y-12955428D01*
X7389667Y-12955428D02*
X7323001Y-13031618D01*
X7323001Y-13031618D02*
X7351572Y-13031618D01*
X7351572Y-13031618D02*
X7370620Y-13041142D01*
X7370620Y-13041142D02*
X7380144Y-13050666D01*
X7380144Y-13050666D02*
X7389667Y-13069713D01*
X7389667Y-13069713D02*
X7389667Y-13117332D01*
X7389667Y-13117332D02*
X7380144Y-13136380D01*
X7380144Y-13136380D02*
X7370620Y-13145904D01*
X7370620Y-13145904D02*
X7351572Y-13155428D01*
X7351572Y-13155428D02*
X7294429Y-13155428D01*
X7294429Y-13155428D02*
X7275382Y-13145904D01*
X7275382Y-13145904D02*
X7265858Y-13136380D01*
X7456334Y-12955428D02*
X7580144Y-12955428D01*
X7580144Y-12955428D02*
X7513477Y-13031618D01*
X7513477Y-13031618D02*
X7542048Y-13031618D01*
X7542048Y-13031618D02*
X7561096Y-13041142D01*
X7561096Y-13041142D02*
X7570620Y-13050666D01*
X7570620Y-13050666D02*
X7580144Y-13069713D01*
X7580144Y-13069713D02*
X7580144Y-13117332D01*
X7580144Y-13117332D02*
X7570620Y-13136380D01*
X7570620Y-13136380D02*
X7561096Y-13145904D01*
X7561096Y-13145904D02*
X7542048Y-13155428D01*
X7542048Y-13155428D02*
X7484906Y-13155428D01*
X7484906Y-13155428D02*
X7465858Y-13145904D01*
X7465858Y-13145904D02*
X7456334Y-13136380D01*
X7656334Y-12955428D02*
X7656334Y-12993523D01*
X7732525Y-12955428D02*
X7732525Y-12993523D01*
X8027763Y-13231618D02*
X8018239Y-13222094D01*
X8018239Y-13222094D02*
X7999191Y-13193523D01*
X7999191Y-13193523D02*
X7989668Y-13174475D01*
X7989668Y-13174475D02*
X7980144Y-13145904D01*
X7980144Y-13145904D02*
X7970620Y-13098285D01*
X7970620Y-13098285D02*
X7970620Y-13060190D01*
X7970620Y-13060190D02*
X7980144Y-13012571D01*
X7980144Y-13012571D02*
X7989668Y-12983999D01*
X7989668Y-12983999D02*
X7999191Y-12964952D01*
X7999191Y-12964952D02*
X8018239Y-12936380D01*
X8018239Y-12936380D02*
X8027763Y-12926856D01*
X8208715Y-13155428D02*
X8094429Y-13155428D01*
X8151572Y-13155428D02*
X8151572Y-12955428D01*
X8151572Y-12955428D02*
X8132525Y-12983999D01*
X8132525Y-12983999D02*
X8113477Y-13003047D01*
X8113477Y-13003047D02*
X8094429Y-13012571D01*
X8332525Y-12955428D02*
X8351572Y-12955428D01*
X8351572Y-12955428D02*
X8370620Y-12964952D01*
X8370620Y-12964952D02*
X8380144Y-12974475D01*
X8380144Y-12974475D02*
X8389668Y-12993523D01*
X8389668Y-12993523D02*
X8399191Y-13031618D01*
X8399191Y-13031618D02*
X8399191Y-13079237D01*
X8399191Y-13079237D02*
X8389668Y-13117332D01*
X8389668Y-13117332D02*
X8380144Y-13136380D01*
X8380144Y-13136380D02*
X8370620Y-13145904D01*
X8370620Y-13145904D02*
X8351572Y-13155428D01*
X8351572Y-13155428D02*
X8332525Y-13155428D01*
X8332525Y-13155428D02*
X8313477Y-13145904D01*
X8313477Y-13145904D02*
X8303953Y-13136380D01*
X8303953Y-13136380D02*
X8294429Y-13117332D01*
X8294429Y-13117332D02*
X8284906Y-13079237D01*
X8284906Y-13079237D02*
X8284906Y-13031618D01*
X8284906Y-13031618D02*
X8294429Y-12993523D01*
X8294429Y-12993523D02*
X8303953Y-12974475D01*
X8303953Y-12974475D02*
X8313477Y-12964952D01*
X8313477Y-12964952D02*
X8332525Y-12955428D01*
X8637287Y-13155428D02*
X8637287Y-12955428D01*
X8723001Y-13155428D02*
X8723001Y-13050666D01*
X8723001Y-13050666D02*
X8713477Y-13031618D01*
X8713477Y-13031618D02*
X8694430Y-13022094D01*
X8694430Y-13022094D02*
X8665858Y-13022094D01*
X8665858Y-13022094D02*
X8646811Y-13031618D01*
X8646811Y-13031618D02*
X8637287Y-13041142D01*
X8846811Y-13155428D02*
X8827763Y-13145904D01*
X8827763Y-13145904D02*
X8818239Y-13136380D01*
X8818239Y-13136380D02*
X8808715Y-13117332D01*
X8808715Y-13117332D02*
X8808715Y-13060190D01*
X8808715Y-13060190D02*
X8818239Y-13041142D01*
X8818239Y-13041142D02*
X8827763Y-13031618D01*
X8827763Y-13031618D02*
X8846811Y-13022094D01*
X8846811Y-13022094D02*
X8875382Y-13022094D01*
X8875382Y-13022094D02*
X8894430Y-13031618D01*
X8894430Y-13031618D02*
X8903953Y-13041142D01*
X8903953Y-13041142D02*
X8913477Y-13060190D01*
X8913477Y-13060190D02*
X8913477Y-13117332D01*
X8913477Y-13117332D02*
X8903953Y-13136380D01*
X8903953Y-13136380D02*
X8894430Y-13145904D01*
X8894430Y-13145904D02*
X8875382Y-13155428D01*
X8875382Y-13155428D02*
X8846811Y-13155428D01*
X9027763Y-13155428D02*
X9008715Y-13145904D01*
X9008715Y-13145904D02*
X8999192Y-13126856D01*
X8999192Y-13126856D02*
X8999192Y-12955428D01*
X9180144Y-13145904D02*
X9161096Y-13155428D01*
X9161096Y-13155428D02*
X9123001Y-13155428D01*
X9123001Y-13155428D02*
X9103953Y-13145904D01*
X9103953Y-13145904D02*
X9094430Y-13126856D01*
X9094430Y-13126856D02*
X9094430Y-13050666D01*
X9094430Y-13050666D02*
X9103953Y-13031618D01*
X9103953Y-13031618D02*
X9123001Y-13022094D01*
X9123001Y-13022094D02*
X9161096Y-13022094D01*
X9161096Y-13022094D02*
X9180144Y-13031618D01*
X9180144Y-13031618D02*
X9189668Y-13050666D01*
X9189668Y-13050666D02*
X9189668Y-13069713D01*
X9189668Y-13069713D02*
X9094430Y-13088761D01*
X9265858Y-13145904D02*
X9284906Y-13155428D01*
X9284906Y-13155428D02*
X9323001Y-13155428D01*
X9323001Y-13155428D02*
X9342049Y-13145904D01*
X9342049Y-13145904D02*
X9351573Y-13126856D01*
X9351573Y-13126856D02*
X9351573Y-13117332D01*
X9351573Y-13117332D02*
X9342049Y-13098285D01*
X9342049Y-13098285D02*
X9323001Y-13088761D01*
X9323001Y-13088761D02*
X9294430Y-13088761D01*
X9294430Y-13088761D02*
X9275382Y-13079237D01*
X9275382Y-13079237D02*
X9265858Y-13060190D01*
X9265858Y-13060190D02*
X9265858Y-13050666D01*
X9265858Y-13050666D02*
X9275382Y-13031618D01*
X9275382Y-13031618D02*
X9294430Y-13022094D01*
X9294430Y-13022094D02*
X9323001Y-13022094D01*
X9323001Y-13022094D02*
X9342049Y-13031618D01*
X9418239Y-13231618D02*
X9427763Y-13222094D01*
X9427763Y-13222094D02*
X9446811Y-13193523D01*
X9446811Y-13193523D02*
X9456334Y-13174475D01*
X9456334Y-13174475D02*
X9465858Y-13145904D01*
X9465858Y-13145904D02*
X9475382Y-13098285D01*
X9475382Y-13098285D02*
X9475382Y-13060190D01*
X9475382Y-13060190D02*
X9465858Y-13012571D01*
X9465858Y-13012571D02*
X9456334Y-12983999D01*
X9456334Y-12983999D02*
X9446811Y-12964952D01*
X9446811Y-12964952D02*
X9427763Y-12936380D01*
X9427763Y-12936380D02*
X9418239Y-12926856D01*
D14*
X4332700Y-13267944D02*
X4452700Y-13387944D01*
X4452700Y-13267944D02*
X4332700Y-13387944D01*
X4452700Y-13327944D02*
G75*
G02*
X4332700Y-13327944I-60000J0D01*
G01*
X4332700Y-13327944D02*
G75*
G02*
X4452700Y-13327944I60000J0D01*
G01*
D11*
X4818239Y-13419428D02*
X4703953Y-13419428D01*
X4761096Y-13419428D02*
X4761096Y-13219428D01*
X4761096Y-13219428D02*
X4742048Y-13247999D01*
X4742048Y-13247999D02*
X4723001Y-13267047D01*
X4723001Y-13267047D02*
X4703953Y-13276571D01*
X4903953Y-13400380D02*
X4913477Y-13409904D01*
X4913477Y-13409904D02*
X4903953Y-13419428D01*
X4903953Y-13419428D02*
X4894429Y-13409904D01*
X4894429Y-13409904D02*
X4903953Y-13400380D01*
X4903953Y-13400380D02*
X4903953Y-13419428D01*
X4989667Y-13238475D02*
X4999191Y-13228952D01*
X4999191Y-13228952D02*
X5018239Y-13219428D01*
X5018239Y-13219428D02*
X5065858Y-13219428D01*
X5065858Y-13219428D02*
X5084905Y-13228952D01*
X5084905Y-13228952D02*
X5094429Y-13238475D01*
X5094429Y-13238475D02*
X5103953Y-13257523D01*
X5103953Y-13257523D02*
X5103953Y-13276571D01*
X5103953Y-13276571D02*
X5094429Y-13305142D01*
X5094429Y-13305142D02*
X4980144Y-13419428D01*
X4980144Y-13419428D02*
X5103953Y-13419428D01*
X5227763Y-13219428D02*
X5246810Y-13219428D01*
X5246810Y-13219428D02*
X5265858Y-13228952D01*
X5265858Y-13228952D02*
X5275382Y-13238475D01*
X5275382Y-13238475D02*
X5284905Y-13257523D01*
X5284905Y-13257523D02*
X5294429Y-13295618D01*
X5294429Y-13295618D02*
X5294429Y-13343237D01*
X5294429Y-13343237D02*
X5284905Y-13381332D01*
X5284905Y-13381332D02*
X5275382Y-13400380D01*
X5275382Y-13400380D02*
X5265858Y-13409904D01*
X5265858Y-13409904D02*
X5246810Y-13419428D01*
X5246810Y-13419428D02*
X5227763Y-13419428D01*
X5227763Y-13419428D02*
X5208715Y-13409904D01*
X5208715Y-13409904D02*
X5199191Y-13400380D01*
X5199191Y-13400380D02*
X5189667Y-13381332D01*
X5189667Y-13381332D02*
X5180144Y-13343237D01*
X5180144Y-13343237D02*
X5180144Y-13295618D01*
X5180144Y-13295618D02*
X5189667Y-13257523D01*
X5189667Y-13257523D02*
X5199191Y-13238475D01*
X5199191Y-13238475D02*
X5208715Y-13228952D01*
X5208715Y-13228952D02*
X5227763Y-13219428D01*
X5418239Y-13219428D02*
X5437286Y-13219428D01*
X5437286Y-13219428D02*
X5456334Y-13228952D01*
X5456334Y-13228952D02*
X5465858Y-13238475D01*
X5465858Y-13238475D02*
X5475382Y-13257523D01*
X5475382Y-13257523D02*
X5484905Y-13295618D01*
X5484905Y-13295618D02*
X5484905Y-13343237D01*
X5484905Y-13343237D02*
X5475382Y-13381332D01*
X5475382Y-13381332D02*
X5465858Y-13400380D01*
X5465858Y-13400380D02*
X5456334Y-13409904D01*
X5456334Y-13409904D02*
X5437286Y-13419428D01*
X5437286Y-13419428D02*
X5418239Y-13419428D01*
X5418239Y-13419428D02*
X5399191Y-13409904D01*
X5399191Y-13409904D02*
X5389667Y-13400380D01*
X5389667Y-13400380D02*
X5380144Y-13381332D01*
X5380144Y-13381332D02*
X5370620Y-13343237D01*
X5370620Y-13343237D02*
X5370620Y-13295618D01*
X5370620Y-13295618D02*
X5380144Y-13257523D01*
X5380144Y-13257523D02*
X5389667Y-13238475D01*
X5389667Y-13238475D02*
X5399191Y-13228952D01*
X5399191Y-13228952D02*
X5418239Y-13219428D01*
X5570620Y-13419428D02*
X5570620Y-13286094D01*
X5570620Y-13305142D02*
X5580144Y-13295618D01*
X5580144Y-13295618D02*
X5599191Y-13286094D01*
X5599191Y-13286094D02*
X5627763Y-13286094D01*
X5627763Y-13286094D02*
X5646810Y-13295618D01*
X5646810Y-13295618D02*
X5656334Y-13314666D01*
X5656334Y-13314666D02*
X5656334Y-13419428D01*
X5656334Y-13314666D02*
X5665858Y-13295618D01*
X5665858Y-13295618D02*
X5684905Y-13286094D01*
X5684905Y-13286094D02*
X5713477Y-13286094D01*
X5713477Y-13286094D02*
X5732524Y-13295618D01*
X5732524Y-13295618D02*
X5742048Y-13314666D01*
X5742048Y-13314666D02*
X5742048Y-13419428D01*
X5837286Y-13419428D02*
X5837286Y-13286094D01*
X5837286Y-13305142D02*
X5846810Y-13295618D01*
X5846810Y-13295618D02*
X5865858Y-13286094D01*
X5865858Y-13286094D02*
X5894429Y-13286094D01*
X5894429Y-13286094D02*
X5913477Y-13295618D01*
X5913477Y-13295618D02*
X5923001Y-13314666D01*
X5923001Y-13314666D02*
X5923001Y-13419428D01*
X5923001Y-13314666D02*
X5932524Y-13295618D01*
X5932524Y-13295618D02*
X5951572Y-13286094D01*
X5951572Y-13286094D02*
X5980143Y-13286094D01*
X5980143Y-13286094D02*
X5999191Y-13295618D01*
X5999191Y-13295618D02*
X6008715Y-13314666D01*
X6008715Y-13314666D02*
X6008715Y-13419428D01*
X6399191Y-13209904D02*
X6227763Y-13467047D01*
X6656334Y-13219428D02*
X6675382Y-13219428D01*
X6675382Y-13219428D02*
X6694429Y-13228952D01*
X6694429Y-13228952D02*
X6703953Y-13238475D01*
X6703953Y-13238475D02*
X6713477Y-13257523D01*
X6713477Y-13257523D02*
X6723001Y-13295618D01*
X6723001Y-13295618D02*
X6723001Y-13343237D01*
X6723001Y-13343237D02*
X6713477Y-13381332D01*
X6713477Y-13381332D02*
X6703953Y-13400380D01*
X6703953Y-13400380D02*
X6694429Y-13409904D01*
X6694429Y-13409904D02*
X6675382Y-13419428D01*
X6675382Y-13419428D02*
X6656334Y-13419428D01*
X6656334Y-13419428D02*
X6637286Y-13409904D01*
X6637286Y-13409904D02*
X6627763Y-13400380D01*
X6627763Y-13400380D02*
X6618239Y-13381332D01*
X6618239Y-13381332D02*
X6608715Y-13343237D01*
X6608715Y-13343237D02*
X6608715Y-13295618D01*
X6608715Y-13295618D02*
X6618239Y-13257523D01*
X6618239Y-13257523D02*
X6627763Y-13238475D01*
X6627763Y-13238475D02*
X6637286Y-13228952D01*
X6637286Y-13228952D02*
X6656334Y-13219428D01*
X6808715Y-13400380D02*
X6818239Y-13409904D01*
X6818239Y-13409904D02*
X6808715Y-13419428D01*
X6808715Y-13419428D02*
X6799191Y-13409904D01*
X6799191Y-13409904D02*
X6808715Y-13400380D01*
X6808715Y-13400380D02*
X6808715Y-13419428D01*
X6942048Y-13219428D02*
X6961096Y-13219428D01*
X6961096Y-13219428D02*
X6980144Y-13228952D01*
X6980144Y-13228952D02*
X6989667Y-13238475D01*
X6989667Y-13238475D02*
X6999191Y-13257523D01*
X6999191Y-13257523D02*
X7008715Y-13295618D01*
X7008715Y-13295618D02*
X7008715Y-13343237D01*
X7008715Y-13343237D02*
X6999191Y-13381332D01*
X6999191Y-13381332D02*
X6989667Y-13400380D01*
X6989667Y-13400380D02*
X6980144Y-13409904D01*
X6980144Y-13409904D02*
X6961096Y-13419428D01*
X6961096Y-13419428D02*
X6942048Y-13419428D01*
X6942048Y-13419428D02*
X6923001Y-13409904D01*
X6923001Y-13409904D02*
X6913477Y-13400380D01*
X6913477Y-13400380D02*
X6903953Y-13381332D01*
X6903953Y-13381332D02*
X6894429Y-13343237D01*
X6894429Y-13343237D02*
X6894429Y-13295618D01*
X6894429Y-13295618D02*
X6903953Y-13257523D01*
X6903953Y-13257523D02*
X6913477Y-13238475D01*
X6913477Y-13238475D02*
X6923001Y-13228952D01*
X6923001Y-13228952D02*
X6942048Y-13219428D01*
X7180144Y-13286094D02*
X7180144Y-13419428D01*
X7132525Y-13209904D02*
X7084906Y-13352761D01*
X7084906Y-13352761D02*
X7208715Y-13352761D01*
X7265858Y-13219428D02*
X7399191Y-13219428D01*
X7399191Y-13219428D02*
X7313477Y-13419428D01*
X7465858Y-13238475D02*
X7475382Y-13228952D01*
X7475382Y-13228952D02*
X7494429Y-13219428D01*
X7494429Y-13219428D02*
X7542048Y-13219428D01*
X7542048Y-13219428D02*
X7561096Y-13228952D01*
X7561096Y-13228952D02*
X7570620Y-13238475D01*
X7570620Y-13238475D02*
X7580144Y-13257523D01*
X7580144Y-13257523D02*
X7580144Y-13276571D01*
X7580144Y-13276571D02*
X7570620Y-13305142D01*
X7570620Y-13305142D02*
X7456334Y-13419428D01*
X7456334Y-13419428D02*
X7580144Y-13419428D01*
X7656334Y-13219428D02*
X7656334Y-13257523D01*
X7732525Y-13219428D02*
X7732525Y-13257523D01*
X8027763Y-13495618D02*
X8018239Y-13486094D01*
X8018239Y-13486094D02*
X7999191Y-13457523D01*
X7999191Y-13457523D02*
X7989668Y-13438475D01*
X7989668Y-13438475D02*
X7980144Y-13409904D01*
X7980144Y-13409904D02*
X7970620Y-13362285D01*
X7970620Y-13362285D02*
X7970620Y-13324190D01*
X7970620Y-13324190D02*
X7980144Y-13276571D01*
X7980144Y-13276571D02*
X7989668Y-13247999D01*
X7989668Y-13247999D02*
X7999191Y-13228952D01*
X7999191Y-13228952D02*
X8018239Y-13200380D01*
X8018239Y-13200380D02*
X8027763Y-13190856D01*
X8208715Y-13419428D02*
X8094429Y-13419428D01*
X8151572Y-13419428D02*
X8151572Y-13219428D01*
X8151572Y-13219428D02*
X8132525Y-13247999D01*
X8132525Y-13247999D02*
X8113477Y-13267047D01*
X8113477Y-13267047D02*
X8094429Y-13276571D01*
X8284906Y-13238475D02*
X8294429Y-13228952D01*
X8294429Y-13228952D02*
X8313477Y-13219428D01*
X8313477Y-13219428D02*
X8361096Y-13219428D01*
X8361096Y-13219428D02*
X8380144Y-13228952D01*
X8380144Y-13228952D02*
X8389668Y-13238475D01*
X8389668Y-13238475D02*
X8399191Y-13257523D01*
X8399191Y-13257523D02*
X8399191Y-13276571D01*
X8399191Y-13276571D02*
X8389668Y-13305142D01*
X8389668Y-13305142D02*
X8275382Y-13419428D01*
X8275382Y-13419428D02*
X8399191Y-13419428D01*
X8637287Y-13419428D02*
X8637287Y-13219428D01*
X8723001Y-13419428D02*
X8723001Y-13314666D01*
X8723001Y-13314666D02*
X8713477Y-13295618D01*
X8713477Y-13295618D02*
X8694430Y-13286094D01*
X8694430Y-13286094D02*
X8665858Y-13286094D01*
X8665858Y-13286094D02*
X8646811Y-13295618D01*
X8646811Y-13295618D02*
X8637287Y-13305142D01*
X8846811Y-13419428D02*
X8827763Y-13409904D01*
X8827763Y-13409904D02*
X8818239Y-13400380D01*
X8818239Y-13400380D02*
X8808715Y-13381332D01*
X8808715Y-13381332D02*
X8808715Y-13324190D01*
X8808715Y-13324190D02*
X8818239Y-13305142D01*
X8818239Y-13305142D02*
X8827763Y-13295618D01*
X8827763Y-13295618D02*
X8846811Y-13286094D01*
X8846811Y-13286094D02*
X8875382Y-13286094D01*
X8875382Y-13286094D02*
X8894430Y-13295618D01*
X8894430Y-13295618D02*
X8903953Y-13305142D01*
X8903953Y-13305142D02*
X8913477Y-13324190D01*
X8913477Y-13324190D02*
X8913477Y-13381332D01*
X8913477Y-13381332D02*
X8903953Y-13400380D01*
X8903953Y-13400380D02*
X8894430Y-13409904D01*
X8894430Y-13409904D02*
X8875382Y-13419428D01*
X8875382Y-13419428D02*
X8846811Y-13419428D01*
X9027763Y-13419428D02*
X9008715Y-13409904D01*
X9008715Y-13409904D02*
X8999192Y-13390856D01*
X8999192Y-13390856D02*
X8999192Y-13219428D01*
X9180144Y-13409904D02*
X9161096Y-13419428D01*
X9161096Y-13419428D02*
X9123001Y-13419428D01*
X9123001Y-13419428D02*
X9103953Y-13409904D01*
X9103953Y-13409904D02*
X9094430Y-13390856D01*
X9094430Y-13390856D02*
X9094430Y-13314666D01*
X9094430Y-13314666D02*
X9103953Y-13295618D01*
X9103953Y-13295618D02*
X9123001Y-13286094D01*
X9123001Y-13286094D02*
X9161096Y-13286094D01*
X9161096Y-13286094D02*
X9180144Y-13295618D01*
X9180144Y-13295618D02*
X9189668Y-13314666D01*
X9189668Y-13314666D02*
X9189668Y-13333713D01*
X9189668Y-13333713D02*
X9094430Y-13352761D01*
X9265858Y-13409904D02*
X9284906Y-13419428D01*
X9284906Y-13419428D02*
X9323001Y-13419428D01*
X9323001Y-13419428D02*
X9342049Y-13409904D01*
X9342049Y-13409904D02*
X9351573Y-13390856D01*
X9351573Y-13390856D02*
X9351573Y-13381332D01*
X9351573Y-13381332D02*
X9342049Y-13362285D01*
X9342049Y-13362285D02*
X9323001Y-13352761D01*
X9323001Y-13352761D02*
X9294430Y-13352761D01*
X9294430Y-13352761D02*
X9275382Y-13343237D01*
X9275382Y-13343237D02*
X9265858Y-13324190D01*
X9265858Y-13324190D02*
X9265858Y-13314666D01*
X9265858Y-13314666D02*
X9275382Y-13295618D01*
X9275382Y-13295618D02*
X9294430Y-13286094D01*
X9294430Y-13286094D02*
X9323001Y-13286094D01*
X9323001Y-13286094D02*
X9342049Y-13295618D01*
X9418239Y-13495618D02*
X9427763Y-13486094D01*
X9427763Y-13486094D02*
X9446811Y-13457523D01*
X9446811Y-13457523D02*
X9456334Y-13438475D01*
X9456334Y-13438475D02*
X9465858Y-13409904D01*
X9465858Y-13409904D02*
X9475382Y-13362285D01*
X9475382Y-13362285D02*
X9475382Y-13324190D01*
X9475382Y-13324190D02*
X9465858Y-13276571D01*
X9465858Y-13276571D02*
X9456334Y-13247999D01*
X9456334Y-13247999D02*
X9446811Y-13228952D01*
X9446811Y-13228952D02*
X9427763Y-13200380D01*
X9427763Y-13200380D02*
X9418239Y-13190856D01*
D15*
X4292700Y-13511944D02*
X4452700Y-13671944D01*
X4452700Y-13511944D02*
X4292700Y-13671944D01*
X4372700Y-13511944D02*
X4372700Y-13671944D01*
X4292700Y-13591944D02*
X4452700Y-13591944D01*
D11*
X4818239Y-13683428D02*
X4703953Y-13683428D01*
X4761096Y-13683428D02*
X4761096Y-13483428D01*
X4761096Y-13483428D02*
X4742048Y-13511999D01*
X4742048Y-13511999D02*
X4723001Y-13531047D01*
X4723001Y-13531047D02*
X4703953Y-13540571D01*
X4903953Y-13664380D02*
X4913477Y-13673904D01*
X4913477Y-13673904D02*
X4903953Y-13683428D01*
X4903953Y-13683428D02*
X4894429Y-13673904D01*
X4894429Y-13673904D02*
X4903953Y-13664380D01*
X4903953Y-13664380D02*
X4903953Y-13683428D01*
X5084905Y-13483428D02*
X5046810Y-13483428D01*
X5046810Y-13483428D02*
X5027763Y-13492952D01*
X5027763Y-13492952D02*
X5018239Y-13502475D01*
X5018239Y-13502475D02*
X4999191Y-13531047D01*
X4999191Y-13531047D02*
X4989667Y-13569142D01*
X4989667Y-13569142D02*
X4989667Y-13645332D01*
X4989667Y-13645332D02*
X4999191Y-13664380D01*
X4999191Y-13664380D02*
X5008715Y-13673904D01*
X5008715Y-13673904D02*
X5027763Y-13683428D01*
X5027763Y-13683428D02*
X5065858Y-13683428D01*
X5065858Y-13683428D02*
X5084905Y-13673904D01*
X5084905Y-13673904D02*
X5094429Y-13664380D01*
X5094429Y-13664380D02*
X5103953Y-13645332D01*
X5103953Y-13645332D02*
X5103953Y-13597713D01*
X5103953Y-13597713D02*
X5094429Y-13578666D01*
X5094429Y-13578666D02*
X5084905Y-13569142D01*
X5084905Y-13569142D02*
X5065858Y-13559618D01*
X5065858Y-13559618D02*
X5027763Y-13559618D01*
X5027763Y-13559618D02*
X5008715Y-13569142D01*
X5008715Y-13569142D02*
X4999191Y-13578666D01*
X4999191Y-13578666D02*
X4989667Y-13597713D01*
X5227763Y-13483428D02*
X5246810Y-13483428D01*
X5246810Y-13483428D02*
X5265858Y-13492952D01*
X5265858Y-13492952D02*
X5275382Y-13502475D01*
X5275382Y-13502475D02*
X5284905Y-13521523D01*
X5284905Y-13521523D02*
X5294429Y-13559618D01*
X5294429Y-13559618D02*
X5294429Y-13607237D01*
X5294429Y-13607237D02*
X5284905Y-13645332D01*
X5284905Y-13645332D02*
X5275382Y-13664380D01*
X5275382Y-13664380D02*
X5265858Y-13673904D01*
X5265858Y-13673904D02*
X5246810Y-13683428D01*
X5246810Y-13683428D02*
X5227763Y-13683428D01*
X5227763Y-13683428D02*
X5208715Y-13673904D01*
X5208715Y-13673904D02*
X5199191Y-13664380D01*
X5199191Y-13664380D02*
X5189667Y-13645332D01*
X5189667Y-13645332D02*
X5180144Y-13607237D01*
X5180144Y-13607237D02*
X5180144Y-13559618D01*
X5180144Y-13559618D02*
X5189667Y-13521523D01*
X5189667Y-13521523D02*
X5199191Y-13502475D01*
X5199191Y-13502475D02*
X5208715Y-13492952D01*
X5208715Y-13492952D02*
X5227763Y-13483428D01*
X5418239Y-13483428D02*
X5437286Y-13483428D01*
X5437286Y-13483428D02*
X5456334Y-13492952D01*
X5456334Y-13492952D02*
X5465858Y-13502475D01*
X5465858Y-13502475D02*
X5475382Y-13521523D01*
X5475382Y-13521523D02*
X5484905Y-13559618D01*
X5484905Y-13559618D02*
X5484905Y-13607237D01*
X5484905Y-13607237D02*
X5475382Y-13645332D01*
X5475382Y-13645332D02*
X5465858Y-13664380D01*
X5465858Y-13664380D02*
X5456334Y-13673904D01*
X5456334Y-13673904D02*
X5437286Y-13683428D01*
X5437286Y-13683428D02*
X5418239Y-13683428D01*
X5418239Y-13683428D02*
X5399191Y-13673904D01*
X5399191Y-13673904D02*
X5389667Y-13664380D01*
X5389667Y-13664380D02*
X5380144Y-13645332D01*
X5380144Y-13645332D02*
X5370620Y-13607237D01*
X5370620Y-13607237D02*
X5370620Y-13559618D01*
X5370620Y-13559618D02*
X5380144Y-13521523D01*
X5380144Y-13521523D02*
X5389667Y-13502475D01*
X5389667Y-13502475D02*
X5399191Y-13492952D01*
X5399191Y-13492952D02*
X5418239Y-13483428D01*
X5570620Y-13683428D02*
X5570620Y-13550094D01*
X5570620Y-13569142D02*
X5580144Y-13559618D01*
X5580144Y-13559618D02*
X5599191Y-13550094D01*
X5599191Y-13550094D02*
X5627763Y-13550094D01*
X5627763Y-13550094D02*
X5646810Y-13559618D01*
X5646810Y-13559618D02*
X5656334Y-13578666D01*
X5656334Y-13578666D02*
X5656334Y-13683428D01*
X5656334Y-13578666D02*
X5665858Y-13559618D01*
X5665858Y-13559618D02*
X5684905Y-13550094D01*
X5684905Y-13550094D02*
X5713477Y-13550094D01*
X5713477Y-13550094D02*
X5732524Y-13559618D01*
X5732524Y-13559618D02*
X5742048Y-13578666D01*
X5742048Y-13578666D02*
X5742048Y-13683428D01*
X5837286Y-13683428D02*
X5837286Y-13550094D01*
X5837286Y-13569142D02*
X5846810Y-13559618D01*
X5846810Y-13559618D02*
X5865858Y-13550094D01*
X5865858Y-13550094D02*
X5894429Y-13550094D01*
X5894429Y-13550094D02*
X5913477Y-13559618D01*
X5913477Y-13559618D02*
X5923001Y-13578666D01*
X5923001Y-13578666D02*
X5923001Y-13683428D01*
X5923001Y-13578666D02*
X5932524Y-13559618D01*
X5932524Y-13559618D02*
X5951572Y-13550094D01*
X5951572Y-13550094D02*
X5980143Y-13550094D01*
X5980143Y-13550094D02*
X5999191Y-13559618D01*
X5999191Y-13559618D02*
X6008715Y-13578666D01*
X6008715Y-13578666D02*
X6008715Y-13683428D01*
X6399191Y-13473904D02*
X6227763Y-13731047D01*
X6656334Y-13483428D02*
X6675382Y-13483428D01*
X6675382Y-13483428D02*
X6694429Y-13492952D01*
X6694429Y-13492952D02*
X6703953Y-13502475D01*
X6703953Y-13502475D02*
X6713477Y-13521523D01*
X6713477Y-13521523D02*
X6723001Y-13559618D01*
X6723001Y-13559618D02*
X6723001Y-13607237D01*
X6723001Y-13607237D02*
X6713477Y-13645332D01*
X6713477Y-13645332D02*
X6703953Y-13664380D01*
X6703953Y-13664380D02*
X6694429Y-13673904D01*
X6694429Y-13673904D02*
X6675382Y-13683428D01*
X6675382Y-13683428D02*
X6656334Y-13683428D01*
X6656334Y-13683428D02*
X6637286Y-13673904D01*
X6637286Y-13673904D02*
X6627763Y-13664380D01*
X6627763Y-13664380D02*
X6618239Y-13645332D01*
X6618239Y-13645332D02*
X6608715Y-13607237D01*
X6608715Y-13607237D02*
X6608715Y-13559618D01*
X6608715Y-13559618D02*
X6618239Y-13521523D01*
X6618239Y-13521523D02*
X6627763Y-13502475D01*
X6627763Y-13502475D02*
X6637286Y-13492952D01*
X6637286Y-13492952D02*
X6656334Y-13483428D01*
X6808715Y-13664380D02*
X6818239Y-13673904D01*
X6818239Y-13673904D02*
X6808715Y-13683428D01*
X6808715Y-13683428D02*
X6799191Y-13673904D01*
X6799191Y-13673904D02*
X6808715Y-13664380D01*
X6808715Y-13664380D02*
X6808715Y-13683428D01*
X6942048Y-13483428D02*
X6961096Y-13483428D01*
X6961096Y-13483428D02*
X6980144Y-13492952D01*
X6980144Y-13492952D02*
X6989667Y-13502475D01*
X6989667Y-13502475D02*
X6999191Y-13521523D01*
X6999191Y-13521523D02*
X7008715Y-13559618D01*
X7008715Y-13559618D02*
X7008715Y-13607237D01*
X7008715Y-13607237D02*
X6999191Y-13645332D01*
X6999191Y-13645332D02*
X6989667Y-13664380D01*
X6989667Y-13664380D02*
X6980144Y-13673904D01*
X6980144Y-13673904D02*
X6961096Y-13683428D01*
X6961096Y-13683428D02*
X6942048Y-13683428D01*
X6942048Y-13683428D02*
X6923001Y-13673904D01*
X6923001Y-13673904D02*
X6913477Y-13664380D01*
X6913477Y-13664380D02*
X6903953Y-13645332D01*
X6903953Y-13645332D02*
X6894429Y-13607237D01*
X6894429Y-13607237D02*
X6894429Y-13559618D01*
X6894429Y-13559618D02*
X6903953Y-13521523D01*
X6903953Y-13521523D02*
X6913477Y-13502475D01*
X6913477Y-13502475D02*
X6923001Y-13492952D01*
X6923001Y-13492952D02*
X6942048Y-13483428D01*
X7180144Y-13483428D02*
X7142048Y-13483428D01*
X7142048Y-13483428D02*
X7123001Y-13492952D01*
X7123001Y-13492952D02*
X7113477Y-13502475D01*
X7113477Y-13502475D02*
X7094429Y-13531047D01*
X7094429Y-13531047D02*
X7084906Y-13569142D01*
X7084906Y-13569142D02*
X7084906Y-13645332D01*
X7084906Y-13645332D02*
X7094429Y-13664380D01*
X7094429Y-13664380D02*
X7103953Y-13673904D01*
X7103953Y-13673904D02*
X7123001Y-13683428D01*
X7123001Y-13683428D02*
X7161096Y-13683428D01*
X7161096Y-13683428D02*
X7180144Y-13673904D01*
X7180144Y-13673904D02*
X7189667Y-13664380D01*
X7189667Y-13664380D02*
X7199191Y-13645332D01*
X7199191Y-13645332D02*
X7199191Y-13597713D01*
X7199191Y-13597713D02*
X7189667Y-13578666D01*
X7189667Y-13578666D02*
X7180144Y-13569142D01*
X7180144Y-13569142D02*
X7161096Y-13559618D01*
X7161096Y-13559618D02*
X7123001Y-13559618D01*
X7123001Y-13559618D02*
X7103953Y-13569142D01*
X7103953Y-13569142D02*
X7094429Y-13578666D01*
X7094429Y-13578666D02*
X7084906Y-13597713D01*
X7265858Y-13483428D02*
X7389667Y-13483428D01*
X7389667Y-13483428D02*
X7323001Y-13559618D01*
X7323001Y-13559618D02*
X7351572Y-13559618D01*
X7351572Y-13559618D02*
X7370620Y-13569142D01*
X7370620Y-13569142D02*
X7380144Y-13578666D01*
X7380144Y-13578666D02*
X7389667Y-13597713D01*
X7389667Y-13597713D02*
X7389667Y-13645332D01*
X7389667Y-13645332D02*
X7380144Y-13664380D01*
X7380144Y-13664380D02*
X7370620Y-13673904D01*
X7370620Y-13673904D02*
X7351572Y-13683428D01*
X7351572Y-13683428D02*
X7294429Y-13683428D01*
X7294429Y-13683428D02*
X7275382Y-13673904D01*
X7275382Y-13673904D02*
X7265858Y-13664380D01*
X7513477Y-13483428D02*
X7532525Y-13483428D01*
X7532525Y-13483428D02*
X7551572Y-13492952D01*
X7551572Y-13492952D02*
X7561096Y-13502475D01*
X7561096Y-13502475D02*
X7570620Y-13521523D01*
X7570620Y-13521523D02*
X7580144Y-13559618D01*
X7580144Y-13559618D02*
X7580144Y-13607237D01*
X7580144Y-13607237D02*
X7570620Y-13645332D01*
X7570620Y-13645332D02*
X7561096Y-13664380D01*
X7561096Y-13664380D02*
X7551572Y-13673904D01*
X7551572Y-13673904D02*
X7532525Y-13683428D01*
X7532525Y-13683428D02*
X7513477Y-13683428D01*
X7513477Y-13683428D02*
X7494429Y-13673904D01*
X7494429Y-13673904D02*
X7484906Y-13664380D01*
X7484906Y-13664380D02*
X7475382Y-13645332D01*
X7475382Y-13645332D02*
X7465858Y-13607237D01*
X7465858Y-13607237D02*
X7465858Y-13559618D01*
X7465858Y-13559618D02*
X7475382Y-13521523D01*
X7475382Y-13521523D02*
X7484906Y-13502475D01*
X7484906Y-13502475D02*
X7494429Y-13492952D01*
X7494429Y-13492952D02*
X7513477Y-13483428D01*
X7656334Y-13483428D02*
X7656334Y-13521523D01*
X7732525Y-13483428D02*
X7732525Y-13521523D01*
X8027763Y-13759618D02*
X8018239Y-13750094D01*
X8018239Y-13750094D02*
X7999191Y-13721523D01*
X7999191Y-13721523D02*
X7989668Y-13702475D01*
X7989668Y-13702475D02*
X7980144Y-13673904D01*
X7980144Y-13673904D02*
X7970620Y-13626285D01*
X7970620Y-13626285D02*
X7970620Y-13588190D01*
X7970620Y-13588190D02*
X7980144Y-13540571D01*
X7980144Y-13540571D02*
X7989668Y-13511999D01*
X7989668Y-13511999D02*
X7999191Y-13492952D01*
X7999191Y-13492952D02*
X8018239Y-13464380D01*
X8018239Y-13464380D02*
X8027763Y-13454856D01*
X8208715Y-13683428D02*
X8094429Y-13683428D01*
X8151572Y-13683428D02*
X8151572Y-13483428D01*
X8151572Y-13483428D02*
X8132525Y-13511999D01*
X8132525Y-13511999D02*
X8113477Y-13531047D01*
X8113477Y-13531047D02*
X8094429Y-13540571D01*
X8284906Y-13502475D02*
X8294429Y-13492952D01*
X8294429Y-13492952D02*
X8313477Y-13483428D01*
X8313477Y-13483428D02*
X8361096Y-13483428D01*
X8361096Y-13483428D02*
X8380144Y-13492952D01*
X8380144Y-13492952D02*
X8389668Y-13502475D01*
X8389668Y-13502475D02*
X8399191Y-13521523D01*
X8399191Y-13521523D02*
X8399191Y-13540571D01*
X8399191Y-13540571D02*
X8389668Y-13569142D01*
X8389668Y-13569142D02*
X8275382Y-13683428D01*
X8275382Y-13683428D02*
X8399191Y-13683428D01*
X8637287Y-13683428D02*
X8637287Y-13483428D01*
X8723001Y-13683428D02*
X8723001Y-13578666D01*
X8723001Y-13578666D02*
X8713477Y-13559618D01*
X8713477Y-13559618D02*
X8694430Y-13550094D01*
X8694430Y-13550094D02*
X8665858Y-13550094D01*
X8665858Y-13550094D02*
X8646811Y-13559618D01*
X8646811Y-13559618D02*
X8637287Y-13569142D01*
X8846811Y-13683428D02*
X8827763Y-13673904D01*
X8827763Y-13673904D02*
X8818239Y-13664380D01*
X8818239Y-13664380D02*
X8808715Y-13645332D01*
X8808715Y-13645332D02*
X8808715Y-13588190D01*
X8808715Y-13588190D02*
X8818239Y-13569142D01*
X8818239Y-13569142D02*
X8827763Y-13559618D01*
X8827763Y-13559618D02*
X8846811Y-13550094D01*
X8846811Y-13550094D02*
X8875382Y-13550094D01*
X8875382Y-13550094D02*
X8894430Y-13559618D01*
X8894430Y-13559618D02*
X8903953Y-13569142D01*
X8903953Y-13569142D02*
X8913477Y-13588190D01*
X8913477Y-13588190D02*
X8913477Y-13645332D01*
X8913477Y-13645332D02*
X8903953Y-13664380D01*
X8903953Y-13664380D02*
X8894430Y-13673904D01*
X8894430Y-13673904D02*
X8875382Y-13683428D01*
X8875382Y-13683428D02*
X8846811Y-13683428D01*
X9027763Y-13683428D02*
X9008715Y-13673904D01*
X9008715Y-13673904D02*
X8999192Y-13654856D01*
X8999192Y-13654856D02*
X8999192Y-13483428D01*
X9180144Y-13673904D02*
X9161096Y-13683428D01*
X9161096Y-13683428D02*
X9123001Y-13683428D01*
X9123001Y-13683428D02*
X9103953Y-13673904D01*
X9103953Y-13673904D02*
X9094430Y-13654856D01*
X9094430Y-13654856D02*
X9094430Y-13578666D01*
X9094430Y-13578666D02*
X9103953Y-13559618D01*
X9103953Y-13559618D02*
X9123001Y-13550094D01*
X9123001Y-13550094D02*
X9161096Y-13550094D01*
X9161096Y-13550094D02*
X9180144Y-13559618D01*
X9180144Y-13559618D02*
X9189668Y-13578666D01*
X9189668Y-13578666D02*
X9189668Y-13597713D01*
X9189668Y-13597713D02*
X9094430Y-13616761D01*
X9265858Y-13673904D02*
X9284906Y-13683428D01*
X9284906Y-13683428D02*
X9323001Y-13683428D01*
X9323001Y-13683428D02*
X9342049Y-13673904D01*
X9342049Y-13673904D02*
X9351573Y-13654856D01*
X9351573Y-13654856D02*
X9351573Y-13645332D01*
X9351573Y-13645332D02*
X9342049Y-13626285D01*
X9342049Y-13626285D02*
X9323001Y-13616761D01*
X9323001Y-13616761D02*
X9294430Y-13616761D01*
X9294430Y-13616761D02*
X9275382Y-13607237D01*
X9275382Y-13607237D02*
X9265858Y-13588190D01*
X9265858Y-13588190D02*
X9265858Y-13578666D01*
X9265858Y-13578666D02*
X9275382Y-13559618D01*
X9275382Y-13559618D02*
X9294430Y-13550094D01*
X9294430Y-13550094D02*
X9323001Y-13550094D01*
X9323001Y-13550094D02*
X9342049Y-13559618D01*
X9418239Y-13759618D02*
X9427763Y-13750094D01*
X9427763Y-13750094D02*
X9446811Y-13721523D01*
X9446811Y-13721523D02*
X9456334Y-13702475D01*
X9456334Y-13702475D02*
X9465858Y-13673904D01*
X9465858Y-13673904D02*
X9475382Y-13626285D01*
X9475382Y-13626285D02*
X9475382Y-13588190D01*
X9475382Y-13588190D02*
X9465858Y-13540571D01*
X9465858Y-13540571D02*
X9456334Y-13511999D01*
X9456334Y-13511999D02*
X9446811Y-13492952D01*
X9446811Y-13492952D02*
X9427763Y-13464380D01*
X9427763Y-13464380D02*
X9418239Y-13454856D01*
D16*
X4272700Y-13781944D02*
X4452700Y-13961944D01*
X4452700Y-13781944D02*
X4272700Y-13961944D01*
X4426340Y-13935584D02*
X4426340Y-13808304D01*
X4299060Y-13808304D01*
X4299060Y-13935584D01*
X4426340Y-13935584D01*
D11*
X4818239Y-13963428D02*
X4703953Y-13963428D01*
X4761096Y-13963428D02*
X4761096Y-13763428D01*
X4761096Y-13763428D02*
X4742048Y-13791999D01*
X4742048Y-13791999D02*
X4723001Y-13811047D01*
X4723001Y-13811047D02*
X4703953Y-13820571D01*
X4903953Y-13944380D02*
X4913477Y-13953904D01*
X4913477Y-13953904D02*
X4903953Y-13963428D01*
X4903953Y-13963428D02*
X4894429Y-13953904D01*
X4894429Y-13953904D02*
X4903953Y-13944380D01*
X4903953Y-13944380D02*
X4903953Y-13963428D01*
X5027763Y-13849142D02*
X5008715Y-13839618D01*
X5008715Y-13839618D02*
X4999191Y-13830094D01*
X4999191Y-13830094D02*
X4989667Y-13811047D01*
X4989667Y-13811047D02*
X4989667Y-13801523D01*
X4989667Y-13801523D02*
X4999191Y-13782475D01*
X4999191Y-13782475D02*
X5008715Y-13772952D01*
X5008715Y-13772952D02*
X5027763Y-13763428D01*
X5027763Y-13763428D02*
X5065858Y-13763428D01*
X5065858Y-13763428D02*
X5084905Y-13772952D01*
X5084905Y-13772952D02*
X5094429Y-13782475D01*
X5094429Y-13782475D02*
X5103953Y-13801523D01*
X5103953Y-13801523D02*
X5103953Y-13811047D01*
X5103953Y-13811047D02*
X5094429Y-13830094D01*
X5094429Y-13830094D02*
X5084905Y-13839618D01*
X5084905Y-13839618D02*
X5065858Y-13849142D01*
X5065858Y-13849142D02*
X5027763Y-13849142D01*
X5027763Y-13849142D02*
X5008715Y-13858666D01*
X5008715Y-13858666D02*
X4999191Y-13868190D01*
X4999191Y-13868190D02*
X4989667Y-13887237D01*
X4989667Y-13887237D02*
X4989667Y-13925332D01*
X4989667Y-13925332D02*
X4999191Y-13944380D01*
X4999191Y-13944380D02*
X5008715Y-13953904D01*
X5008715Y-13953904D02*
X5027763Y-13963428D01*
X5027763Y-13963428D02*
X5065858Y-13963428D01*
X5065858Y-13963428D02*
X5084905Y-13953904D01*
X5084905Y-13953904D02*
X5094429Y-13944380D01*
X5094429Y-13944380D02*
X5103953Y-13925332D01*
X5103953Y-13925332D02*
X5103953Y-13887237D01*
X5103953Y-13887237D02*
X5094429Y-13868190D01*
X5094429Y-13868190D02*
X5084905Y-13858666D01*
X5084905Y-13858666D02*
X5065858Y-13849142D01*
X5227763Y-13763428D02*
X5246810Y-13763428D01*
X5246810Y-13763428D02*
X5265858Y-13772952D01*
X5265858Y-13772952D02*
X5275382Y-13782475D01*
X5275382Y-13782475D02*
X5284905Y-13801523D01*
X5284905Y-13801523D02*
X5294429Y-13839618D01*
X5294429Y-13839618D02*
X5294429Y-13887237D01*
X5294429Y-13887237D02*
X5284905Y-13925332D01*
X5284905Y-13925332D02*
X5275382Y-13944380D01*
X5275382Y-13944380D02*
X5265858Y-13953904D01*
X5265858Y-13953904D02*
X5246810Y-13963428D01*
X5246810Y-13963428D02*
X5227763Y-13963428D01*
X5227763Y-13963428D02*
X5208715Y-13953904D01*
X5208715Y-13953904D02*
X5199191Y-13944380D01*
X5199191Y-13944380D02*
X5189667Y-13925332D01*
X5189667Y-13925332D02*
X5180144Y-13887237D01*
X5180144Y-13887237D02*
X5180144Y-13839618D01*
X5180144Y-13839618D02*
X5189667Y-13801523D01*
X5189667Y-13801523D02*
X5199191Y-13782475D01*
X5199191Y-13782475D02*
X5208715Y-13772952D01*
X5208715Y-13772952D02*
X5227763Y-13763428D01*
X5418239Y-13763428D02*
X5437286Y-13763428D01*
X5437286Y-13763428D02*
X5456334Y-13772952D01*
X5456334Y-13772952D02*
X5465858Y-13782475D01*
X5465858Y-13782475D02*
X5475382Y-13801523D01*
X5475382Y-13801523D02*
X5484905Y-13839618D01*
X5484905Y-13839618D02*
X5484905Y-13887237D01*
X5484905Y-13887237D02*
X5475382Y-13925332D01*
X5475382Y-13925332D02*
X5465858Y-13944380D01*
X5465858Y-13944380D02*
X5456334Y-13953904D01*
X5456334Y-13953904D02*
X5437286Y-13963428D01*
X5437286Y-13963428D02*
X5418239Y-13963428D01*
X5418239Y-13963428D02*
X5399191Y-13953904D01*
X5399191Y-13953904D02*
X5389667Y-13944380D01*
X5389667Y-13944380D02*
X5380144Y-13925332D01*
X5380144Y-13925332D02*
X5370620Y-13887237D01*
X5370620Y-13887237D02*
X5370620Y-13839618D01*
X5370620Y-13839618D02*
X5380144Y-13801523D01*
X5380144Y-13801523D02*
X5389667Y-13782475D01*
X5389667Y-13782475D02*
X5399191Y-13772952D01*
X5399191Y-13772952D02*
X5418239Y-13763428D01*
X5570620Y-13963428D02*
X5570620Y-13830094D01*
X5570620Y-13849142D02*
X5580144Y-13839618D01*
X5580144Y-13839618D02*
X5599191Y-13830094D01*
X5599191Y-13830094D02*
X5627763Y-13830094D01*
X5627763Y-13830094D02*
X5646810Y-13839618D01*
X5646810Y-13839618D02*
X5656334Y-13858666D01*
X5656334Y-13858666D02*
X5656334Y-13963428D01*
X5656334Y-13858666D02*
X5665858Y-13839618D01*
X5665858Y-13839618D02*
X5684905Y-13830094D01*
X5684905Y-13830094D02*
X5713477Y-13830094D01*
X5713477Y-13830094D02*
X5732524Y-13839618D01*
X5732524Y-13839618D02*
X5742048Y-13858666D01*
X5742048Y-13858666D02*
X5742048Y-13963428D01*
X5837286Y-13963428D02*
X5837286Y-13830094D01*
X5837286Y-13849142D02*
X5846810Y-13839618D01*
X5846810Y-13839618D02*
X5865858Y-13830094D01*
X5865858Y-13830094D02*
X5894429Y-13830094D01*
X5894429Y-13830094D02*
X5913477Y-13839618D01*
X5913477Y-13839618D02*
X5923001Y-13858666D01*
X5923001Y-13858666D02*
X5923001Y-13963428D01*
X5923001Y-13858666D02*
X5932524Y-13839618D01*
X5932524Y-13839618D02*
X5951572Y-13830094D01*
X5951572Y-13830094D02*
X5980143Y-13830094D01*
X5980143Y-13830094D02*
X5999191Y-13839618D01*
X5999191Y-13839618D02*
X6008715Y-13858666D01*
X6008715Y-13858666D02*
X6008715Y-13963428D01*
X6399191Y-13753904D02*
X6227763Y-14011047D01*
X6656334Y-13763428D02*
X6675382Y-13763428D01*
X6675382Y-13763428D02*
X6694429Y-13772952D01*
X6694429Y-13772952D02*
X6703953Y-13782475D01*
X6703953Y-13782475D02*
X6713477Y-13801523D01*
X6713477Y-13801523D02*
X6723001Y-13839618D01*
X6723001Y-13839618D02*
X6723001Y-13887237D01*
X6723001Y-13887237D02*
X6713477Y-13925332D01*
X6713477Y-13925332D02*
X6703953Y-13944380D01*
X6703953Y-13944380D02*
X6694429Y-13953904D01*
X6694429Y-13953904D02*
X6675382Y-13963428D01*
X6675382Y-13963428D02*
X6656334Y-13963428D01*
X6656334Y-13963428D02*
X6637286Y-13953904D01*
X6637286Y-13953904D02*
X6627763Y-13944380D01*
X6627763Y-13944380D02*
X6618239Y-13925332D01*
X6618239Y-13925332D02*
X6608715Y-13887237D01*
X6608715Y-13887237D02*
X6608715Y-13839618D01*
X6608715Y-13839618D02*
X6618239Y-13801523D01*
X6618239Y-13801523D02*
X6627763Y-13782475D01*
X6627763Y-13782475D02*
X6637286Y-13772952D01*
X6637286Y-13772952D02*
X6656334Y-13763428D01*
X6808715Y-13944380D02*
X6818239Y-13953904D01*
X6818239Y-13953904D02*
X6808715Y-13963428D01*
X6808715Y-13963428D02*
X6799191Y-13953904D01*
X6799191Y-13953904D02*
X6808715Y-13944380D01*
X6808715Y-13944380D02*
X6808715Y-13963428D01*
X6942048Y-13763428D02*
X6961096Y-13763428D01*
X6961096Y-13763428D02*
X6980144Y-13772952D01*
X6980144Y-13772952D02*
X6989667Y-13782475D01*
X6989667Y-13782475D02*
X6999191Y-13801523D01*
X6999191Y-13801523D02*
X7008715Y-13839618D01*
X7008715Y-13839618D02*
X7008715Y-13887237D01*
X7008715Y-13887237D02*
X6999191Y-13925332D01*
X6999191Y-13925332D02*
X6989667Y-13944380D01*
X6989667Y-13944380D02*
X6980144Y-13953904D01*
X6980144Y-13953904D02*
X6961096Y-13963428D01*
X6961096Y-13963428D02*
X6942048Y-13963428D01*
X6942048Y-13963428D02*
X6923001Y-13953904D01*
X6923001Y-13953904D02*
X6913477Y-13944380D01*
X6913477Y-13944380D02*
X6903953Y-13925332D01*
X6903953Y-13925332D02*
X6894429Y-13887237D01*
X6894429Y-13887237D02*
X6894429Y-13839618D01*
X6894429Y-13839618D02*
X6903953Y-13801523D01*
X6903953Y-13801523D02*
X6913477Y-13782475D01*
X6913477Y-13782475D02*
X6923001Y-13772952D01*
X6923001Y-13772952D02*
X6942048Y-13763428D01*
X7075382Y-13763428D02*
X7208715Y-13763428D01*
X7208715Y-13763428D02*
X7123001Y-13963428D01*
X7323001Y-13763428D02*
X7342048Y-13763428D01*
X7342048Y-13763428D02*
X7361096Y-13772952D01*
X7361096Y-13772952D02*
X7370620Y-13782475D01*
X7370620Y-13782475D02*
X7380144Y-13801523D01*
X7380144Y-13801523D02*
X7389667Y-13839618D01*
X7389667Y-13839618D02*
X7389667Y-13887237D01*
X7389667Y-13887237D02*
X7380144Y-13925332D01*
X7380144Y-13925332D02*
X7370620Y-13944380D01*
X7370620Y-13944380D02*
X7361096Y-13953904D01*
X7361096Y-13953904D02*
X7342048Y-13963428D01*
X7342048Y-13963428D02*
X7323001Y-13963428D01*
X7323001Y-13963428D02*
X7303953Y-13953904D01*
X7303953Y-13953904D02*
X7294429Y-13944380D01*
X7294429Y-13944380D02*
X7284906Y-13925332D01*
X7284906Y-13925332D02*
X7275382Y-13887237D01*
X7275382Y-13887237D02*
X7275382Y-13839618D01*
X7275382Y-13839618D02*
X7284906Y-13801523D01*
X7284906Y-13801523D02*
X7294429Y-13782475D01*
X7294429Y-13782475D02*
X7303953Y-13772952D01*
X7303953Y-13772952D02*
X7323001Y-13763428D01*
X7484906Y-13963428D02*
X7523001Y-13963428D01*
X7523001Y-13963428D02*
X7542048Y-13953904D01*
X7542048Y-13953904D02*
X7551572Y-13944380D01*
X7551572Y-13944380D02*
X7570620Y-13915809D01*
X7570620Y-13915809D02*
X7580144Y-13877713D01*
X7580144Y-13877713D02*
X7580144Y-13801523D01*
X7580144Y-13801523D02*
X7570620Y-13782475D01*
X7570620Y-13782475D02*
X7561096Y-13772952D01*
X7561096Y-13772952D02*
X7542048Y-13763428D01*
X7542048Y-13763428D02*
X7503953Y-13763428D01*
X7503953Y-13763428D02*
X7484906Y-13772952D01*
X7484906Y-13772952D02*
X7475382Y-13782475D01*
X7475382Y-13782475D02*
X7465858Y-13801523D01*
X7465858Y-13801523D02*
X7465858Y-13849142D01*
X7465858Y-13849142D02*
X7475382Y-13868190D01*
X7475382Y-13868190D02*
X7484906Y-13877713D01*
X7484906Y-13877713D02*
X7503953Y-13887237D01*
X7503953Y-13887237D02*
X7542048Y-13887237D01*
X7542048Y-13887237D02*
X7561096Y-13877713D01*
X7561096Y-13877713D02*
X7570620Y-13868190D01*
X7570620Y-13868190D02*
X7580144Y-13849142D01*
X7656334Y-13763428D02*
X7656334Y-13801523D01*
X7732525Y-13763428D02*
X7732525Y-13801523D01*
X8027763Y-14039618D02*
X8018239Y-14030094D01*
X8018239Y-14030094D02*
X7999191Y-14001523D01*
X7999191Y-14001523D02*
X7989668Y-13982475D01*
X7989668Y-13982475D02*
X7980144Y-13953904D01*
X7980144Y-13953904D02*
X7970620Y-13906285D01*
X7970620Y-13906285D02*
X7970620Y-13868190D01*
X7970620Y-13868190D02*
X7980144Y-13820571D01*
X7980144Y-13820571D02*
X7989668Y-13791999D01*
X7989668Y-13791999D02*
X7999191Y-13772952D01*
X7999191Y-13772952D02*
X8018239Y-13744380D01*
X8018239Y-13744380D02*
X8027763Y-13734856D01*
X8189668Y-13830094D02*
X8189668Y-13963428D01*
X8142048Y-13753904D02*
X8094429Y-13896761D01*
X8094429Y-13896761D02*
X8218239Y-13896761D01*
X8446811Y-13963428D02*
X8446811Y-13763428D01*
X8532525Y-13963428D02*
X8532525Y-13858666D01*
X8532525Y-13858666D02*
X8523001Y-13839618D01*
X8523001Y-13839618D02*
X8503953Y-13830094D01*
X8503953Y-13830094D02*
X8475382Y-13830094D01*
X8475382Y-13830094D02*
X8456334Y-13839618D01*
X8456334Y-13839618D02*
X8446811Y-13849142D01*
X8656334Y-13963428D02*
X8637287Y-13953904D01*
X8637287Y-13953904D02*
X8627763Y-13944380D01*
X8627763Y-13944380D02*
X8618239Y-13925332D01*
X8618239Y-13925332D02*
X8618239Y-13868190D01*
X8618239Y-13868190D02*
X8627763Y-13849142D01*
X8627763Y-13849142D02*
X8637287Y-13839618D01*
X8637287Y-13839618D02*
X8656334Y-13830094D01*
X8656334Y-13830094D02*
X8684906Y-13830094D01*
X8684906Y-13830094D02*
X8703953Y-13839618D01*
X8703953Y-13839618D02*
X8713477Y-13849142D01*
X8713477Y-13849142D02*
X8723001Y-13868190D01*
X8723001Y-13868190D02*
X8723001Y-13925332D01*
X8723001Y-13925332D02*
X8713477Y-13944380D01*
X8713477Y-13944380D02*
X8703953Y-13953904D01*
X8703953Y-13953904D02*
X8684906Y-13963428D01*
X8684906Y-13963428D02*
X8656334Y-13963428D01*
X8837287Y-13963428D02*
X8818239Y-13953904D01*
X8818239Y-13953904D02*
X8808715Y-13934856D01*
X8808715Y-13934856D02*
X8808715Y-13763428D01*
X8989668Y-13953904D02*
X8970620Y-13963428D01*
X8970620Y-13963428D02*
X8932525Y-13963428D01*
X8932525Y-13963428D02*
X8913477Y-13953904D01*
X8913477Y-13953904D02*
X8903953Y-13934856D01*
X8903953Y-13934856D02*
X8903953Y-13858666D01*
X8903953Y-13858666D02*
X8913477Y-13839618D01*
X8913477Y-13839618D02*
X8932525Y-13830094D01*
X8932525Y-13830094D02*
X8970620Y-13830094D01*
X8970620Y-13830094D02*
X8989668Y-13839618D01*
X8989668Y-13839618D02*
X8999192Y-13858666D01*
X8999192Y-13858666D02*
X8999192Y-13877713D01*
X8999192Y-13877713D02*
X8903953Y-13896761D01*
X9075382Y-13953904D02*
X9094430Y-13963428D01*
X9094430Y-13963428D02*
X9132525Y-13963428D01*
X9132525Y-13963428D02*
X9151573Y-13953904D01*
X9151573Y-13953904D02*
X9161096Y-13934856D01*
X9161096Y-13934856D02*
X9161096Y-13925332D01*
X9161096Y-13925332D02*
X9151573Y-13906285D01*
X9151573Y-13906285D02*
X9132525Y-13896761D01*
X9132525Y-13896761D02*
X9103953Y-13896761D01*
X9103953Y-13896761D02*
X9084906Y-13887237D01*
X9084906Y-13887237D02*
X9075382Y-13868190D01*
X9075382Y-13868190D02*
X9075382Y-13858666D01*
X9075382Y-13858666D02*
X9084906Y-13839618D01*
X9084906Y-13839618D02*
X9103953Y-13830094D01*
X9103953Y-13830094D02*
X9132525Y-13830094D01*
X9132525Y-13830094D02*
X9151573Y-13839618D01*
X9227763Y-14039618D02*
X9237287Y-14030094D01*
X9237287Y-14030094D02*
X9256334Y-14001523D01*
X9256334Y-14001523D02*
X9265858Y-13982475D01*
X9265858Y-13982475D02*
X9275382Y-13953904D01*
X9275382Y-13953904D02*
X9284906Y-13906285D01*
X9284906Y-13906285D02*
X9284906Y-13868190D01*
X9284906Y-13868190D02*
X9275382Y-13820571D01*
X9275382Y-13820571D02*
X9265858Y-13791999D01*
X9265858Y-13791999D02*
X9256334Y-13772952D01*
X9256334Y-13772952D02*
X9237287Y-13744380D01*
X9237287Y-13744380D02*
X9227763Y-13734856D01*
X4252700Y-14071944D02*
X4452700Y-14271944D01*
X4452700Y-14071944D02*
X4252700Y-14271944D01*
X4352700Y-14271944D02*
X4452700Y-14171944D01*
X4352700Y-14071944D01*
X4252700Y-14171944D01*
X4352700Y-14271944D01*
X4694429Y-14063428D02*
X4818239Y-14063428D01*
X4818239Y-14063428D02*
X4751572Y-14139618D01*
X4751572Y-14139618D02*
X4780144Y-14139618D01*
X4780144Y-14139618D02*
X4799191Y-14149142D01*
X4799191Y-14149142D02*
X4808715Y-14158666D01*
X4808715Y-14158666D02*
X4818239Y-14177713D01*
X4818239Y-14177713D02*
X4818239Y-14225332D01*
X4818239Y-14225332D02*
X4808715Y-14244380D01*
X4808715Y-14244380D02*
X4799191Y-14253904D01*
X4799191Y-14253904D02*
X4780144Y-14263428D01*
X4780144Y-14263428D02*
X4723001Y-14263428D01*
X4723001Y-14263428D02*
X4703953Y-14253904D01*
X4703953Y-14253904D02*
X4694429Y-14244380D01*
X4903953Y-14244380D02*
X4913477Y-14253904D01*
X4913477Y-14253904D02*
X4903953Y-14263428D01*
X4903953Y-14263428D02*
X4894429Y-14253904D01*
X4894429Y-14253904D02*
X4903953Y-14244380D01*
X4903953Y-14244380D02*
X4903953Y-14263428D01*
X5037286Y-14063428D02*
X5056334Y-14063428D01*
X5056334Y-14063428D02*
X5075382Y-14072952D01*
X5075382Y-14072952D02*
X5084905Y-14082475D01*
X5084905Y-14082475D02*
X5094429Y-14101523D01*
X5094429Y-14101523D02*
X5103953Y-14139618D01*
X5103953Y-14139618D02*
X5103953Y-14187237D01*
X5103953Y-14187237D02*
X5094429Y-14225332D01*
X5094429Y-14225332D02*
X5084905Y-14244380D01*
X5084905Y-14244380D02*
X5075382Y-14253904D01*
X5075382Y-14253904D02*
X5056334Y-14263428D01*
X5056334Y-14263428D02*
X5037286Y-14263428D01*
X5037286Y-14263428D02*
X5018239Y-14253904D01*
X5018239Y-14253904D02*
X5008715Y-14244380D01*
X5008715Y-14244380D02*
X4999191Y-14225332D01*
X4999191Y-14225332D02*
X4989667Y-14187237D01*
X4989667Y-14187237D02*
X4989667Y-14139618D01*
X4989667Y-14139618D02*
X4999191Y-14101523D01*
X4999191Y-14101523D02*
X5008715Y-14082475D01*
X5008715Y-14082475D02*
X5018239Y-14072952D01*
X5018239Y-14072952D02*
X5037286Y-14063428D01*
X5275382Y-14130094D02*
X5275382Y-14263428D01*
X5227763Y-14053904D02*
X5180144Y-14196761D01*
X5180144Y-14196761D02*
X5303953Y-14196761D01*
X5408715Y-14149142D02*
X5389667Y-14139618D01*
X5389667Y-14139618D02*
X5380144Y-14130094D01*
X5380144Y-14130094D02*
X5370620Y-14111047D01*
X5370620Y-14111047D02*
X5370620Y-14101523D01*
X5370620Y-14101523D02*
X5380144Y-14082475D01*
X5380144Y-14082475D02*
X5389667Y-14072952D01*
X5389667Y-14072952D02*
X5408715Y-14063428D01*
X5408715Y-14063428D02*
X5446810Y-14063428D01*
X5446810Y-14063428D02*
X5465858Y-14072952D01*
X5465858Y-14072952D02*
X5475382Y-14082475D01*
X5475382Y-14082475D02*
X5484905Y-14101523D01*
X5484905Y-14101523D02*
X5484905Y-14111047D01*
X5484905Y-14111047D02*
X5475382Y-14130094D01*
X5475382Y-14130094D02*
X5465858Y-14139618D01*
X5465858Y-14139618D02*
X5446810Y-14149142D01*
X5446810Y-14149142D02*
X5408715Y-14149142D01*
X5408715Y-14149142D02*
X5389667Y-14158666D01*
X5389667Y-14158666D02*
X5380144Y-14168190D01*
X5380144Y-14168190D02*
X5370620Y-14187237D01*
X5370620Y-14187237D02*
X5370620Y-14225332D01*
X5370620Y-14225332D02*
X5380144Y-14244380D01*
X5380144Y-14244380D02*
X5389667Y-14253904D01*
X5389667Y-14253904D02*
X5408715Y-14263428D01*
X5408715Y-14263428D02*
X5446810Y-14263428D01*
X5446810Y-14263428D02*
X5465858Y-14253904D01*
X5465858Y-14253904D02*
X5475382Y-14244380D01*
X5475382Y-14244380D02*
X5484905Y-14225332D01*
X5484905Y-14225332D02*
X5484905Y-14187237D01*
X5484905Y-14187237D02*
X5475382Y-14168190D01*
X5475382Y-14168190D02*
X5465858Y-14158666D01*
X5465858Y-14158666D02*
X5446810Y-14149142D01*
X5570620Y-14263428D02*
X5570620Y-14130094D01*
X5570620Y-14149142D02*
X5580144Y-14139618D01*
X5580144Y-14139618D02*
X5599191Y-14130094D01*
X5599191Y-14130094D02*
X5627763Y-14130094D01*
X5627763Y-14130094D02*
X5646810Y-14139618D01*
X5646810Y-14139618D02*
X5656334Y-14158666D01*
X5656334Y-14158666D02*
X5656334Y-14263428D01*
X5656334Y-14158666D02*
X5665858Y-14139618D01*
X5665858Y-14139618D02*
X5684905Y-14130094D01*
X5684905Y-14130094D02*
X5713477Y-14130094D01*
X5713477Y-14130094D02*
X5732524Y-14139618D01*
X5732524Y-14139618D02*
X5742048Y-14158666D01*
X5742048Y-14158666D02*
X5742048Y-14263428D01*
X5837286Y-14263428D02*
X5837286Y-14130094D01*
X5837286Y-14149142D02*
X5846810Y-14139618D01*
X5846810Y-14139618D02*
X5865858Y-14130094D01*
X5865858Y-14130094D02*
X5894429Y-14130094D01*
X5894429Y-14130094D02*
X5913477Y-14139618D01*
X5913477Y-14139618D02*
X5923001Y-14158666D01*
X5923001Y-14158666D02*
X5923001Y-14263428D01*
X5923001Y-14158666D02*
X5932524Y-14139618D01*
X5932524Y-14139618D02*
X5951572Y-14130094D01*
X5951572Y-14130094D02*
X5980143Y-14130094D01*
X5980143Y-14130094D02*
X5999191Y-14139618D01*
X5999191Y-14139618D02*
X6008715Y-14158666D01*
X6008715Y-14158666D02*
X6008715Y-14263428D01*
X6399191Y-14053904D02*
X6227763Y-14311047D01*
X6656334Y-14063428D02*
X6675382Y-14063428D01*
X6675382Y-14063428D02*
X6694429Y-14072952D01*
X6694429Y-14072952D02*
X6703953Y-14082475D01*
X6703953Y-14082475D02*
X6713477Y-14101523D01*
X6713477Y-14101523D02*
X6723001Y-14139618D01*
X6723001Y-14139618D02*
X6723001Y-14187237D01*
X6723001Y-14187237D02*
X6713477Y-14225332D01*
X6713477Y-14225332D02*
X6703953Y-14244380D01*
X6703953Y-14244380D02*
X6694429Y-14253904D01*
X6694429Y-14253904D02*
X6675382Y-14263428D01*
X6675382Y-14263428D02*
X6656334Y-14263428D01*
X6656334Y-14263428D02*
X6637286Y-14253904D01*
X6637286Y-14253904D02*
X6627763Y-14244380D01*
X6627763Y-14244380D02*
X6618239Y-14225332D01*
X6618239Y-14225332D02*
X6608715Y-14187237D01*
X6608715Y-14187237D02*
X6608715Y-14139618D01*
X6608715Y-14139618D02*
X6618239Y-14101523D01*
X6618239Y-14101523D02*
X6627763Y-14082475D01*
X6627763Y-14082475D02*
X6637286Y-14072952D01*
X6637286Y-14072952D02*
X6656334Y-14063428D01*
X6808715Y-14244380D02*
X6818239Y-14253904D01*
X6818239Y-14253904D02*
X6808715Y-14263428D01*
X6808715Y-14263428D02*
X6799191Y-14253904D01*
X6799191Y-14253904D02*
X6808715Y-14244380D01*
X6808715Y-14244380D02*
X6808715Y-14263428D01*
X7008715Y-14263428D02*
X6894429Y-14263428D01*
X6951572Y-14263428D02*
X6951572Y-14063428D01*
X6951572Y-14063428D02*
X6932525Y-14091999D01*
X6932525Y-14091999D02*
X6913477Y-14111047D01*
X6913477Y-14111047D02*
X6894429Y-14120571D01*
X7084906Y-14082475D02*
X7094429Y-14072952D01*
X7094429Y-14072952D02*
X7113477Y-14063428D01*
X7113477Y-14063428D02*
X7161096Y-14063428D01*
X7161096Y-14063428D02*
X7180144Y-14072952D01*
X7180144Y-14072952D02*
X7189667Y-14082475D01*
X7189667Y-14082475D02*
X7199191Y-14101523D01*
X7199191Y-14101523D02*
X7199191Y-14120571D01*
X7199191Y-14120571D02*
X7189667Y-14149142D01*
X7189667Y-14149142D02*
X7075382Y-14263428D01*
X7075382Y-14263428D02*
X7199191Y-14263428D01*
X7323001Y-14063428D02*
X7342048Y-14063428D01*
X7342048Y-14063428D02*
X7361096Y-14072952D01*
X7361096Y-14072952D02*
X7370620Y-14082475D01*
X7370620Y-14082475D02*
X7380144Y-14101523D01*
X7380144Y-14101523D02*
X7389667Y-14139618D01*
X7389667Y-14139618D02*
X7389667Y-14187237D01*
X7389667Y-14187237D02*
X7380144Y-14225332D01*
X7380144Y-14225332D02*
X7370620Y-14244380D01*
X7370620Y-14244380D02*
X7361096Y-14253904D01*
X7361096Y-14253904D02*
X7342048Y-14263428D01*
X7342048Y-14263428D02*
X7323001Y-14263428D01*
X7323001Y-14263428D02*
X7303953Y-14253904D01*
X7303953Y-14253904D02*
X7294429Y-14244380D01*
X7294429Y-14244380D02*
X7284906Y-14225332D01*
X7284906Y-14225332D02*
X7275382Y-14187237D01*
X7275382Y-14187237D02*
X7275382Y-14139618D01*
X7275382Y-14139618D02*
X7284906Y-14101523D01*
X7284906Y-14101523D02*
X7294429Y-14082475D01*
X7294429Y-14082475D02*
X7303953Y-14072952D01*
X7303953Y-14072952D02*
X7323001Y-14063428D01*
X7513477Y-14063428D02*
X7532525Y-14063428D01*
X7532525Y-14063428D02*
X7551572Y-14072952D01*
X7551572Y-14072952D02*
X7561096Y-14082475D01*
X7561096Y-14082475D02*
X7570620Y-14101523D01*
X7570620Y-14101523D02*
X7580144Y-14139618D01*
X7580144Y-14139618D02*
X7580144Y-14187237D01*
X7580144Y-14187237D02*
X7570620Y-14225332D01*
X7570620Y-14225332D02*
X7561096Y-14244380D01*
X7561096Y-14244380D02*
X7551572Y-14253904D01*
X7551572Y-14253904D02*
X7532525Y-14263428D01*
X7532525Y-14263428D02*
X7513477Y-14263428D01*
X7513477Y-14263428D02*
X7494429Y-14253904D01*
X7494429Y-14253904D02*
X7484906Y-14244380D01*
X7484906Y-14244380D02*
X7475382Y-14225332D01*
X7475382Y-14225332D02*
X7465858Y-14187237D01*
X7465858Y-14187237D02*
X7465858Y-14139618D01*
X7465858Y-14139618D02*
X7475382Y-14101523D01*
X7475382Y-14101523D02*
X7484906Y-14082475D01*
X7484906Y-14082475D02*
X7494429Y-14072952D01*
X7494429Y-14072952D02*
X7513477Y-14063428D01*
X7656334Y-14063428D02*
X7656334Y-14101523D01*
X7732525Y-14063428D02*
X7732525Y-14101523D01*
X8027763Y-14339618D02*
X8018239Y-14330094D01*
X8018239Y-14330094D02*
X7999191Y-14301523D01*
X7999191Y-14301523D02*
X7989668Y-14282475D01*
X7989668Y-14282475D02*
X7980144Y-14253904D01*
X7980144Y-14253904D02*
X7970620Y-14206285D01*
X7970620Y-14206285D02*
X7970620Y-14168190D01*
X7970620Y-14168190D02*
X7980144Y-14120571D01*
X7980144Y-14120571D02*
X7989668Y-14091999D01*
X7989668Y-14091999D02*
X7999191Y-14072952D01*
X7999191Y-14072952D02*
X8018239Y-14044380D01*
X8018239Y-14044380D02*
X8027763Y-14034856D01*
X8189668Y-14130094D02*
X8189668Y-14263428D01*
X8142048Y-14053904D02*
X8094429Y-14196761D01*
X8094429Y-14196761D02*
X8218239Y-14196761D01*
X8446811Y-14263428D02*
X8446811Y-14063428D01*
X8532525Y-14263428D02*
X8532525Y-14158666D01*
X8532525Y-14158666D02*
X8523001Y-14139618D01*
X8523001Y-14139618D02*
X8503953Y-14130094D01*
X8503953Y-14130094D02*
X8475382Y-14130094D01*
X8475382Y-14130094D02*
X8456334Y-14139618D01*
X8456334Y-14139618D02*
X8446811Y-14149142D01*
X8656334Y-14263428D02*
X8637287Y-14253904D01*
X8637287Y-14253904D02*
X8627763Y-14244380D01*
X8627763Y-14244380D02*
X8618239Y-14225332D01*
X8618239Y-14225332D02*
X8618239Y-14168190D01*
X8618239Y-14168190D02*
X8627763Y-14149142D01*
X8627763Y-14149142D02*
X8637287Y-14139618D01*
X8637287Y-14139618D02*
X8656334Y-14130094D01*
X8656334Y-14130094D02*
X8684906Y-14130094D01*
X8684906Y-14130094D02*
X8703953Y-14139618D01*
X8703953Y-14139618D02*
X8713477Y-14149142D01*
X8713477Y-14149142D02*
X8723001Y-14168190D01*
X8723001Y-14168190D02*
X8723001Y-14225332D01*
X8723001Y-14225332D02*
X8713477Y-14244380D01*
X8713477Y-14244380D02*
X8703953Y-14253904D01*
X8703953Y-14253904D02*
X8684906Y-14263428D01*
X8684906Y-14263428D02*
X8656334Y-14263428D01*
X8837287Y-14263428D02*
X8818239Y-14253904D01*
X8818239Y-14253904D02*
X8808715Y-14234856D01*
X8808715Y-14234856D02*
X8808715Y-14063428D01*
X8989668Y-14253904D02*
X8970620Y-14263428D01*
X8970620Y-14263428D02*
X8932525Y-14263428D01*
X8932525Y-14263428D02*
X8913477Y-14253904D01*
X8913477Y-14253904D02*
X8903953Y-14234856D01*
X8903953Y-14234856D02*
X8903953Y-14158666D01*
X8903953Y-14158666D02*
X8913477Y-14139618D01*
X8913477Y-14139618D02*
X8932525Y-14130094D01*
X8932525Y-14130094D02*
X8970620Y-14130094D01*
X8970620Y-14130094D02*
X8989668Y-14139618D01*
X8989668Y-14139618D02*
X8999192Y-14158666D01*
X8999192Y-14158666D02*
X8999192Y-14177713D01*
X8999192Y-14177713D02*
X8903953Y-14196761D01*
X9075382Y-14253904D02*
X9094430Y-14263428D01*
X9094430Y-14263428D02*
X9132525Y-14263428D01*
X9132525Y-14263428D02*
X9151573Y-14253904D01*
X9151573Y-14253904D02*
X9161096Y-14234856D01*
X9161096Y-14234856D02*
X9161096Y-14225332D01*
X9161096Y-14225332D02*
X9151573Y-14206285D01*
X9151573Y-14206285D02*
X9132525Y-14196761D01*
X9132525Y-14196761D02*
X9103953Y-14196761D01*
X9103953Y-14196761D02*
X9084906Y-14187237D01*
X9084906Y-14187237D02*
X9075382Y-14168190D01*
X9075382Y-14168190D02*
X9075382Y-14158666D01*
X9075382Y-14158666D02*
X9084906Y-14139618D01*
X9084906Y-14139618D02*
X9103953Y-14130094D01*
X9103953Y-14130094D02*
X9132525Y-14130094D01*
X9132525Y-14130094D02*
X9151573Y-14139618D01*
X9227763Y-14339618D02*
X9237287Y-14330094D01*
X9237287Y-14330094D02*
X9256334Y-14301523D01*
X9256334Y-14301523D02*
X9265858Y-14282475D01*
X9265858Y-14282475D02*
X9275382Y-14253904D01*
X9275382Y-14253904D02*
X9284906Y-14206285D01*
X9284906Y-14206285D02*
X9284906Y-14168190D01*
X9284906Y-14168190D02*
X9275382Y-14120571D01*
X9275382Y-14120571D02*
X9265858Y-14091999D01*
X9265858Y-14091999D02*
X9256334Y-14072952D01*
X9256334Y-14072952D02*
X9237287Y-14044380D01*
X9237287Y-14044380D02*
X9227763Y-14034856D01*
M02*
