%TF.GenerationSoftware,KiCad,Pcbnew,(5.0.0)*%
%TF.CreationDate,2018-10-30T19:14:49+09:00*%
%TF.ProjectId,ATTiny85-mppt,415454696E7938352D6D7070742E6B69,rev?*%
%TF.SameCoordinates,Original*%
%TF.FileFunction,Legend,Top*%
%TF.FilePolarity,Positive*%
%FSLAX46Y46*%
G04 Gerber Fmt 4.6, Leading zero omitted, Abs format (unit mm)*
G04 Created by KiCad (PCBNEW (5.0.0)) date 10/30/18 19:14:49*
%MOMM*%
%LPD*%
G01*
G04 APERTURE LIST*
%ADD10C,0.300000*%
%ADD11C,0.120000*%
%ADD12C,0.150000*%
G04 APERTURE END LIST*
D10*
X48003851Y-62396165D02*
X46503851Y-62396165D01*
X47575280Y-61896165D01*
X46503851Y-61396165D01*
X48003851Y-61396165D01*
X48003851Y-60039022D02*
X47218137Y-60039022D01*
X47075280Y-60110451D01*
X47003851Y-60253308D01*
X47003851Y-60539022D01*
X47075280Y-60681880D01*
X47932422Y-60039022D02*
X48003851Y-60181880D01*
X48003851Y-60539022D01*
X47932422Y-60681880D01*
X47789565Y-60753308D01*
X47646708Y-60753308D01*
X47503851Y-60681880D01*
X47432422Y-60539022D01*
X47432422Y-60181880D01*
X47360994Y-60039022D01*
X48003851Y-59467594D02*
X47003851Y-58681880D01*
X47003851Y-59467594D02*
X48003851Y-58681880D01*
X46646708Y-57039022D02*
X46575280Y-56967594D01*
X46503851Y-56824737D01*
X46503851Y-56467594D01*
X46575280Y-56324737D01*
X46646708Y-56253308D01*
X46789565Y-56181880D01*
X46932422Y-56181880D01*
X47146708Y-56253308D01*
X48003851Y-57110451D01*
X48003851Y-56181880D01*
X46503851Y-54824737D02*
X46503851Y-55539022D01*
X47218137Y-55610451D01*
X47146708Y-55539022D01*
X47075280Y-55396165D01*
X47075280Y-55039022D01*
X47146708Y-54896165D01*
X47218137Y-54824737D01*
X47360994Y-54753308D01*
X47718137Y-54753308D01*
X47860994Y-54824737D01*
X47932422Y-54896165D01*
X48003851Y-55039022D01*
X48003851Y-55396165D01*
X47932422Y-55539022D01*
X47860994Y-55610451D01*
X46503851Y-54324737D02*
X48003851Y-53824737D01*
X46503851Y-53324737D01*
X47932422Y-52753308D02*
X48003851Y-52753308D01*
X48146708Y-52824737D01*
X48218137Y-52896165D01*
X46503851Y-50324737D02*
X46503851Y-50610451D01*
X46575280Y-50753308D01*
X46646708Y-50824737D01*
X46860994Y-50967594D01*
X47146708Y-51039022D01*
X47718137Y-51039022D01*
X47860994Y-50967594D01*
X47932422Y-50896165D01*
X48003851Y-50753308D01*
X48003851Y-50467594D01*
X47932422Y-50324737D01*
X47860994Y-50253308D01*
X47718137Y-50181880D01*
X47360994Y-50181880D01*
X47218137Y-50253308D01*
X47146708Y-50324737D01*
X47075280Y-50467594D01*
X47075280Y-50753308D01*
X47146708Y-50896165D01*
X47218137Y-50967594D01*
X47360994Y-51039022D01*
X47575280Y-49610451D02*
X47575280Y-48896165D01*
X48003851Y-49753308D02*
X46503851Y-49253308D01*
X48003851Y-48753308D01*
X54187388Y-108379651D02*
X54187388Y-106879651D01*
X54687388Y-107951080D01*
X55187388Y-106879651D01*
X55187388Y-108379651D01*
X55901674Y-108379651D02*
X55901674Y-106879651D01*
X56473102Y-106879651D01*
X56615960Y-106951080D01*
X56687388Y-107022508D01*
X56758817Y-107165365D01*
X56758817Y-107379651D01*
X56687388Y-107522508D01*
X56615960Y-107593937D01*
X56473102Y-107665365D01*
X55901674Y-107665365D01*
X57401674Y-108379651D02*
X57401674Y-106879651D01*
X57973102Y-106879651D01*
X58115960Y-106951080D01*
X58187388Y-107022508D01*
X58258817Y-107165365D01*
X58258817Y-107379651D01*
X58187388Y-107522508D01*
X58115960Y-107593937D01*
X57973102Y-107665365D01*
X57401674Y-107665365D01*
X58687388Y-106879651D02*
X59544531Y-106879651D01*
X59115960Y-108379651D02*
X59115960Y-106879651D01*
X61973102Y-108379651D02*
X61115960Y-108379651D01*
X61544531Y-108379651D02*
X61544531Y-106879651D01*
X61401674Y-107093937D01*
X61258817Y-107236794D01*
X61115960Y-107308222D01*
X62615960Y-108236794D02*
X62687388Y-108308222D01*
X62615960Y-108379651D01*
X62544531Y-108308222D01*
X62615960Y-108236794D01*
X62615960Y-108379651D01*
X63615960Y-106879651D02*
X63758817Y-106879651D01*
X63901674Y-106951080D01*
X63973102Y-107022508D01*
X64044531Y-107165365D01*
X64115960Y-107451080D01*
X64115960Y-107808222D01*
X64044531Y-108093937D01*
X63973102Y-108236794D01*
X63901674Y-108308222D01*
X63758817Y-108379651D01*
X63615960Y-108379651D01*
X63473102Y-108308222D01*
X63401674Y-108236794D01*
X63330245Y-108093937D01*
X63258817Y-107808222D01*
X63258817Y-107451080D01*
X63330245Y-107165365D01*
X63401674Y-107022508D01*
X63473102Y-106951080D01*
X63615960Y-106879651D01*
D11*
X102951440Y-101290760D02*
G75*
G03X102951440Y-101290760I-6340000J0D01*
G01*
X102911440Y-101290760D02*
X90311440Y-101290760D01*
X102911440Y-101330760D02*
X90311440Y-101330760D01*
X102911440Y-101370760D02*
X90311440Y-101370760D01*
X102910440Y-101410760D02*
X90312440Y-101410760D01*
X102909440Y-101450760D02*
X90313440Y-101450760D01*
X102908440Y-101490760D02*
X90314440Y-101490760D01*
X102907440Y-101530760D02*
X90315440Y-101530760D01*
X102905440Y-101570760D02*
X90317440Y-101570760D01*
X102903440Y-101610760D02*
X90319440Y-101610760D01*
X102901440Y-101650760D02*
X90321440Y-101650760D01*
X102899440Y-101690760D02*
X90323440Y-101690760D01*
X102896440Y-101730760D02*
X90326440Y-101730760D01*
X102893440Y-101770760D02*
X90329440Y-101770760D01*
X102890440Y-101810760D02*
X90332440Y-101810760D01*
X102887440Y-101850760D02*
X90335440Y-101850760D01*
X102883440Y-101890760D02*
X90339440Y-101890760D01*
X102879440Y-101930760D02*
X90343440Y-101930760D01*
X102875440Y-101970760D02*
X90347440Y-101970760D01*
X102870440Y-102011760D02*
X90352440Y-102011760D01*
X102866440Y-102051760D02*
X90356440Y-102051760D01*
X102861440Y-102091760D02*
X90361440Y-102091760D01*
X102856440Y-102131760D02*
X90366440Y-102131760D01*
X102850440Y-102171760D02*
X90372440Y-102171760D01*
X102844440Y-102211760D02*
X90378440Y-102211760D01*
X102838440Y-102251760D02*
X90384440Y-102251760D01*
X102832440Y-102291760D02*
X90390440Y-102291760D01*
X102826440Y-102331760D02*
X90396440Y-102331760D01*
X102819440Y-102371760D02*
X90403440Y-102371760D01*
X102812440Y-102411760D02*
X97991440Y-102411760D01*
X95231440Y-102411760D02*
X90410440Y-102411760D01*
X102804440Y-102451760D02*
X97991440Y-102451760D01*
X95231440Y-102451760D02*
X90418440Y-102451760D01*
X102797440Y-102491760D02*
X97991440Y-102491760D01*
X95231440Y-102491760D02*
X90425440Y-102491760D01*
X102789440Y-102531760D02*
X97991440Y-102531760D01*
X95231440Y-102531760D02*
X90433440Y-102531760D01*
X102781440Y-102571760D02*
X97991440Y-102571760D01*
X95231440Y-102571760D02*
X90441440Y-102571760D01*
X102773440Y-102611760D02*
X97991440Y-102611760D01*
X95231440Y-102611760D02*
X90449440Y-102611760D01*
X102764440Y-102651760D02*
X97991440Y-102651760D01*
X95231440Y-102651760D02*
X90458440Y-102651760D01*
X102755440Y-102691760D02*
X97991440Y-102691760D01*
X95231440Y-102691760D02*
X90467440Y-102691760D01*
X102746440Y-102731760D02*
X97991440Y-102731760D01*
X95231440Y-102731760D02*
X90476440Y-102731760D01*
X102736440Y-102771760D02*
X97991440Y-102771760D01*
X95231440Y-102771760D02*
X90486440Y-102771760D01*
X102727440Y-102811760D02*
X97991440Y-102811760D01*
X95231440Y-102811760D02*
X90495440Y-102811760D01*
X102717440Y-102851760D02*
X97991440Y-102851760D01*
X95231440Y-102851760D02*
X90505440Y-102851760D01*
X102706440Y-102891760D02*
X97991440Y-102891760D01*
X95231440Y-102891760D02*
X90516440Y-102891760D01*
X102696440Y-102931760D02*
X97991440Y-102931760D01*
X95231440Y-102931760D02*
X90526440Y-102931760D01*
X102685440Y-102971760D02*
X97991440Y-102971760D01*
X95231440Y-102971760D02*
X90537440Y-102971760D01*
X102674440Y-103011760D02*
X97991440Y-103011760D01*
X95231440Y-103011760D02*
X90548440Y-103011760D01*
X102662440Y-103051760D02*
X97991440Y-103051760D01*
X95231440Y-103051760D02*
X90560440Y-103051760D01*
X102651440Y-103091760D02*
X97991440Y-103091760D01*
X95231440Y-103091760D02*
X90571440Y-103091760D01*
X102639440Y-103131760D02*
X97991440Y-103131760D01*
X95231440Y-103131760D02*
X90583440Y-103131760D01*
X102626440Y-103171760D02*
X97991440Y-103171760D01*
X95231440Y-103171760D02*
X90596440Y-103171760D01*
X102614440Y-103211760D02*
X97991440Y-103211760D01*
X95231440Y-103211760D02*
X90608440Y-103211760D01*
X102601440Y-103251760D02*
X97991440Y-103251760D01*
X95231440Y-103251760D02*
X90621440Y-103251760D01*
X102588440Y-103291760D02*
X97991440Y-103291760D01*
X95231440Y-103291760D02*
X90634440Y-103291760D01*
X102574440Y-103331760D02*
X97991440Y-103331760D01*
X95231440Y-103331760D02*
X90648440Y-103331760D01*
X102561440Y-103371760D02*
X97991440Y-103371760D01*
X95231440Y-103371760D02*
X90661440Y-103371760D01*
X102547440Y-103411760D02*
X97991440Y-103411760D01*
X95231440Y-103411760D02*
X90675440Y-103411760D01*
X102532440Y-103451760D02*
X97991440Y-103451760D01*
X95231440Y-103451760D02*
X90690440Y-103451760D01*
X102518440Y-103491760D02*
X97991440Y-103491760D01*
X95231440Y-103491760D02*
X90704440Y-103491760D01*
X102503440Y-103531760D02*
X97991440Y-103531760D01*
X95231440Y-103531760D02*
X90719440Y-103531760D01*
X102487440Y-103571760D02*
X97991440Y-103571760D01*
X95231440Y-103571760D02*
X90735440Y-103571760D01*
X102472440Y-103611760D02*
X97991440Y-103611760D01*
X95231440Y-103611760D02*
X90750440Y-103611760D01*
X102456440Y-103651760D02*
X97991440Y-103651760D01*
X95231440Y-103651760D02*
X90766440Y-103651760D01*
X102440440Y-103691760D02*
X97991440Y-103691760D01*
X95231440Y-103691760D02*
X90782440Y-103691760D01*
X102423440Y-103731760D02*
X97991440Y-103731760D01*
X95231440Y-103731760D02*
X90799440Y-103731760D01*
X102406440Y-103771760D02*
X97991440Y-103771760D01*
X95231440Y-103771760D02*
X90816440Y-103771760D01*
X102389440Y-103811760D02*
X97991440Y-103811760D01*
X95231440Y-103811760D02*
X90833440Y-103811760D01*
X102372440Y-103851760D02*
X97991440Y-103851760D01*
X95231440Y-103851760D02*
X90850440Y-103851760D01*
X102354440Y-103891760D02*
X97991440Y-103891760D01*
X95231440Y-103891760D02*
X90868440Y-103891760D01*
X102336440Y-103931760D02*
X97991440Y-103931760D01*
X95231440Y-103931760D02*
X90886440Y-103931760D01*
X102317440Y-103971760D02*
X97991440Y-103971760D01*
X95231440Y-103971760D02*
X90905440Y-103971760D01*
X102298440Y-104011760D02*
X97991440Y-104011760D01*
X95231440Y-104011760D02*
X90924440Y-104011760D01*
X102279440Y-104051760D02*
X97991440Y-104051760D01*
X95231440Y-104051760D02*
X90943440Y-104051760D01*
X102260440Y-104091760D02*
X97991440Y-104091760D01*
X95231440Y-104091760D02*
X90962440Y-104091760D01*
X102240440Y-104131760D02*
X97991440Y-104131760D01*
X95231440Y-104131760D02*
X90982440Y-104131760D01*
X102220440Y-104171760D02*
X97991440Y-104171760D01*
X95231440Y-104171760D02*
X91002440Y-104171760D01*
X102199440Y-104211760D02*
X97991440Y-104211760D01*
X95231440Y-104211760D02*
X91023440Y-104211760D01*
X102178440Y-104251760D02*
X97991440Y-104251760D01*
X95231440Y-104251760D02*
X91044440Y-104251760D01*
X102157440Y-104291760D02*
X97991440Y-104291760D01*
X95231440Y-104291760D02*
X91065440Y-104291760D01*
X102135440Y-104331760D02*
X97991440Y-104331760D01*
X95231440Y-104331760D02*
X91087440Y-104331760D01*
X102113440Y-104371760D02*
X97991440Y-104371760D01*
X95231440Y-104371760D02*
X91109440Y-104371760D01*
X102091440Y-104411760D02*
X97991440Y-104411760D01*
X95231440Y-104411760D02*
X91131440Y-104411760D01*
X102068440Y-104451760D02*
X97991440Y-104451760D01*
X95231440Y-104451760D02*
X91154440Y-104451760D01*
X102045440Y-104491760D02*
X97991440Y-104491760D01*
X95231440Y-104491760D02*
X91177440Y-104491760D01*
X102021440Y-104531760D02*
X97991440Y-104531760D01*
X95231440Y-104531760D02*
X91201440Y-104531760D01*
X101997440Y-104571760D02*
X97991440Y-104571760D01*
X95231440Y-104571760D02*
X91225440Y-104571760D01*
X101973440Y-104611760D02*
X97991440Y-104611760D01*
X95231440Y-104611760D02*
X91249440Y-104611760D01*
X101948440Y-104651760D02*
X97991440Y-104651760D01*
X95231440Y-104651760D02*
X91274440Y-104651760D01*
X101923440Y-104691760D02*
X97991440Y-104691760D01*
X95231440Y-104691760D02*
X91299440Y-104691760D01*
X101897440Y-104731760D02*
X97991440Y-104731760D01*
X95231440Y-104731760D02*
X91325440Y-104731760D01*
X101871440Y-104771760D02*
X97991440Y-104771760D01*
X95231440Y-104771760D02*
X91351440Y-104771760D01*
X101845440Y-104811760D02*
X97991440Y-104811760D01*
X95231440Y-104811760D02*
X91377440Y-104811760D01*
X101818440Y-104851760D02*
X97991440Y-104851760D01*
X95231440Y-104851760D02*
X91404440Y-104851760D01*
X101790440Y-104891760D02*
X97991440Y-104891760D01*
X95231440Y-104891760D02*
X91432440Y-104891760D01*
X101762440Y-104931760D02*
X97991440Y-104931760D01*
X95231440Y-104931760D02*
X91460440Y-104931760D01*
X101734440Y-104971760D02*
X97991440Y-104971760D01*
X95231440Y-104971760D02*
X91488440Y-104971760D01*
X101705440Y-105011760D02*
X97991440Y-105011760D01*
X95231440Y-105011760D02*
X91517440Y-105011760D01*
X101676440Y-105051760D02*
X97991440Y-105051760D01*
X95231440Y-105051760D02*
X91546440Y-105051760D01*
X101646440Y-105091760D02*
X97991440Y-105091760D01*
X95231440Y-105091760D02*
X91576440Y-105091760D01*
X101616440Y-105131760D02*
X97991440Y-105131760D01*
X95231440Y-105131760D02*
X91606440Y-105131760D01*
X101586440Y-105171760D02*
X91636440Y-105171760D01*
X101554440Y-105211760D02*
X91668440Y-105211760D01*
X101523440Y-105251760D02*
X91699440Y-105251760D01*
X101490440Y-105291760D02*
X91732440Y-105291760D01*
X101458440Y-105331760D02*
X91764440Y-105331760D01*
X101424440Y-105371760D02*
X91798440Y-105371760D01*
X101390440Y-105411760D02*
X91832440Y-105411760D01*
X101356440Y-105451760D02*
X91866440Y-105451760D01*
X101321440Y-105491760D02*
X91901440Y-105491760D01*
X101285440Y-105531760D02*
X91937440Y-105531760D01*
X101249440Y-105571760D02*
X91973440Y-105571760D01*
X101212440Y-105611760D02*
X92010440Y-105611760D01*
X101174440Y-105651760D02*
X92048440Y-105651760D01*
X101136440Y-105691760D02*
X92086440Y-105691760D01*
X101097440Y-105731760D02*
X92125440Y-105731760D01*
X101058440Y-105771760D02*
X92164440Y-105771760D01*
X101017440Y-105811760D02*
X92205440Y-105811760D01*
X100976440Y-105851760D02*
X92246440Y-105851760D01*
X100934440Y-105891760D02*
X92288440Y-105891760D01*
X100892440Y-105931760D02*
X92330440Y-105931760D01*
X100849440Y-105971760D02*
X92373440Y-105971760D01*
X100804440Y-106011760D02*
X92418440Y-106011760D01*
X100759440Y-106051760D02*
X92463440Y-106051760D01*
X100713440Y-106091760D02*
X92509440Y-106091760D01*
X100667440Y-106131760D02*
X92555440Y-106131760D01*
X100619440Y-106171760D02*
X92603440Y-106171760D01*
X100570440Y-106211760D02*
X92652440Y-106211760D01*
X100520440Y-106251760D02*
X92702440Y-106251760D01*
X100470440Y-106291760D02*
X92752440Y-106291760D01*
X100418440Y-106331760D02*
X92804440Y-106331760D01*
X100365440Y-106371760D02*
X92857440Y-106371760D01*
X100311440Y-106411760D02*
X92911440Y-106411760D01*
X100255440Y-106451760D02*
X92967440Y-106451760D01*
X100199440Y-106491760D02*
X93023440Y-106491760D01*
X100141440Y-106531760D02*
X93081440Y-106531760D01*
X100081440Y-106571760D02*
X93141440Y-106571760D01*
X100020440Y-106611760D02*
X93202440Y-106611760D01*
X99958440Y-106651760D02*
X93264440Y-106651760D01*
X99893440Y-106691760D02*
X93329440Y-106691760D01*
X99828440Y-106731760D02*
X93394440Y-106731760D01*
X99760440Y-106771760D02*
X93462440Y-106771760D01*
X99690440Y-106811760D02*
X93532440Y-106811760D01*
X99618440Y-106851760D02*
X93604440Y-106851760D01*
X99544440Y-106891760D02*
X93678440Y-106891760D01*
X99467440Y-106931760D02*
X93755440Y-106931760D01*
X99388440Y-106971760D02*
X93834440Y-106971760D01*
X99306440Y-107011760D02*
X93916440Y-107011760D01*
X99221440Y-107051760D02*
X94001440Y-107051760D01*
X99132440Y-107091760D02*
X94090440Y-107091760D01*
X99039440Y-107131760D02*
X94183440Y-107131760D01*
X98942440Y-107171760D02*
X94280440Y-107171760D01*
X98841440Y-107211760D02*
X94381440Y-107211760D01*
X98733440Y-107251760D02*
X94489440Y-107251760D01*
X98620440Y-107291760D02*
X94602440Y-107291760D01*
X98499440Y-107331760D02*
X94723440Y-107331760D01*
X98368440Y-107371760D02*
X94854440Y-107371760D01*
X98227440Y-107411760D02*
X94995440Y-107411760D01*
X98071440Y-107451760D02*
X95151440Y-107451760D01*
X97896440Y-107491760D02*
X95326440Y-107491760D01*
X97693440Y-107531760D02*
X95529440Y-107531760D01*
X97442440Y-107571760D02*
X95780440Y-107571760D01*
X97075440Y-107611760D02*
X96147440Y-107611760D01*
X96611440Y-95590760D02*
X96611440Y-97390760D01*
X97511440Y-96490760D02*
X95711440Y-96490760D01*
X117003800Y-50032080D02*
X117003800Y-51832080D01*
X116103800Y-50932080D02*
X117903800Y-50932080D01*
X128124800Y-50468080D02*
X128124800Y-51396080D01*
X128084800Y-50101080D02*
X128084800Y-51763080D01*
X128044800Y-49850080D02*
X128044800Y-52014080D01*
X128004800Y-49647080D02*
X128004800Y-52217080D01*
X127964800Y-49472080D02*
X127964800Y-52392080D01*
X127924800Y-49316080D02*
X127924800Y-52548080D01*
X127884800Y-49175080D02*
X127884800Y-52689080D01*
X127844800Y-49044080D02*
X127844800Y-52820080D01*
X127804800Y-48923080D02*
X127804800Y-52941080D01*
X127764800Y-48810080D02*
X127764800Y-53054080D01*
X127724800Y-48702080D02*
X127724800Y-53162080D01*
X127684800Y-48601080D02*
X127684800Y-53263080D01*
X127644800Y-48504080D02*
X127644800Y-53360080D01*
X127604800Y-48411080D02*
X127604800Y-53453080D01*
X127564800Y-48322080D02*
X127564800Y-53542080D01*
X127524800Y-48237080D02*
X127524800Y-53627080D01*
X127484800Y-48155080D02*
X127484800Y-53709080D01*
X127444800Y-48076080D02*
X127444800Y-53788080D01*
X127404800Y-47999080D02*
X127404800Y-53865080D01*
X127364800Y-47925080D02*
X127364800Y-53939080D01*
X127324800Y-47853080D02*
X127324800Y-54011080D01*
X127284800Y-47783080D02*
X127284800Y-54081080D01*
X127244800Y-47715080D02*
X127244800Y-54149080D01*
X127204800Y-47650080D02*
X127204800Y-54214080D01*
X127164800Y-47585080D02*
X127164800Y-54279080D01*
X127124800Y-47523080D02*
X127124800Y-54341080D01*
X127084800Y-47462080D02*
X127084800Y-54402080D01*
X127044800Y-47402080D02*
X127044800Y-54462080D01*
X127004800Y-47344080D02*
X127004800Y-54520080D01*
X126964800Y-47288080D02*
X126964800Y-54576080D01*
X126924800Y-47232080D02*
X126924800Y-54632080D01*
X126884800Y-47178080D02*
X126884800Y-54686080D01*
X126844800Y-47125080D02*
X126844800Y-54739080D01*
X126804800Y-47073080D02*
X126804800Y-54791080D01*
X126764800Y-47023080D02*
X126764800Y-54841080D01*
X126724800Y-46973080D02*
X126724800Y-54891080D01*
X126684800Y-46924080D02*
X126684800Y-54940080D01*
X126644800Y-46876080D02*
X126644800Y-54988080D01*
X126604800Y-46830080D02*
X126604800Y-55034080D01*
X126564800Y-46784080D02*
X126564800Y-55080080D01*
X126524800Y-46739080D02*
X126524800Y-55125080D01*
X126484800Y-46694080D02*
X126484800Y-55170080D01*
X126444800Y-46651080D02*
X126444800Y-55213080D01*
X126404800Y-46609080D02*
X126404800Y-55255080D01*
X126364800Y-46567080D02*
X126364800Y-55297080D01*
X126324800Y-46526080D02*
X126324800Y-55338080D01*
X126284800Y-46485080D02*
X126284800Y-55379080D01*
X126244800Y-46446080D02*
X126244800Y-55418080D01*
X126204800Y-46407080D02*
X126204800Y-55457080D01*
X126164800Y-46369080D02*
X126164800Y-55495080D01*
X126124800Y-46331080D02*
X126124800Y-55533080D01*
X126084800Y-46294080D02*
X126084800Y-55570080D01*
X126044800Y-46258080D02*
X126044800Y-55606080D01*
X126004800Y-46222080D02*
X126004800Y-55642080D01*
X125964800Y-46187080D02*
X125964800Y-55677080D01*
X125924800Y-46153080D02*
X125924800Y-55711080D01*
X125884800Y-46119080D02*
X125884800Y-55745080D01*
X125844800Y-46085080D02*
X125844800Y-55779080D01*
X125804800Y-46053080D02*
X125804800Y-55811080D01*
X125764800Y-46020080D02*
X125764800Y-55844080D01*
X125724800Y-45989080D02*
X125724800Y-55875080D01*
X125684800Y-45957080D02*
X125684800Y-55907080D01*
X125644800Y-52312080D02*
X125644800Y-55937080D01*
X125644800Y-45927080D02*
X125644800Y-49552080D01*
X125604800Y-52312080D02*
X125604800Y-55967080D01*
X125604800Y-45897080D02*
X125604800Y-49552080D01*
X125564800Y-52312080D02*
X125564800Y-55997080D01*
X125564800Y-45867080D02*
X125564800Y-49552080D01*
X125524800Y-52312080D02*
X125524800Y-56026080D01*
X125524800Y-45838080D02*
X125524800Y-49552080D01*
X125484800Y-52312080D02*
X125484800Y-56055080D01*
X125484800Y-45809080D02*
X125484800Y-49552080D01*
X125444800Y-52312080D02*
X125444800Y-56083080D01*
X125444800Y-45781080D02*
X125444800Y-49552080D01*
X125404800Y-52312080D02*
X125404800Y-56111080D01*
X125404800Y-45753080D02*
X125404800Y-49552080D01*
X125364800Y-52312080D02*
X125364800Y-56139080D01*
X125364800Y-45725080D02*
X125364800Y-49552080D01*
X125324800Y-52312080D02*
X125324800Y-56166080D01*
X125324800Y-45698080D02*
X125324800Y-49552080D01*
X125284800Y-52312080D02*
X125284800Y-56192080D01*
X125284800Y-45672080D02*
X125284800Y-49552080D01*
X125244800Y-52312080D02*
X125244800Y-56218080D01*
X125244800Y-45646080D02*
X125244800Y-49552080D01*
X125204800Y-52312080D02*
X125204800Y-56244080D01*
X125204800Y-45620080D02*
X125204800Y-49552080D01*
X125164800Y-52312080D02*
X125164800Y-56269080D01*
X125164800Y-45595080D02*
X125164800Y-49552080D01*
X125124800Y-52312080D02*
X125124800Y-56294080D01*
X125124800Y-45570080D02*
X125124800Y-49552080D01*
X125084800Y-52312080D02*
X125084800Y-56318080D01*
X125084800Y-45546080D02*
X125084800Y-49552080D01*
X125044800Y-52312080D02*
X125044800Y-56342080D01*
X125044800Y-45522080D02*
X125044800Y-49552080D01*
X125004800Y-52312080D02*
X125004800Y-56366080D01*
X125004800Y-45498080D02*
X125004800Y-49552080D01*
X124964800Y-52312080D02*
X124964800Y-56389080D01*
X124964800Y-45475080D02*
X124964800Y-49552080D01*
X124924800Y-52312080D02*
X124924800Y-56412080D01*
X124924800Y-45452080D02*
X124924800Y-49552080D01*
X124884800Y-52312080D02*
X124884800Y-56434080D01*
X124884800Y-45430080D02*
X124884800Y-49552080D01*
X124844800Y-52312080D02*
X124844800Y-56456080D01*
X124844800Y-45408080D02*
X124844800Y-49552080D01*
X124804800Y-52312080D02*
X124804800Y-56478080D01*
X124804800Y-45386080D02*
X124804800Y-49552080D01*
X124764800Y-52312080D02*
X124764800Y-56499080D01*
X124764800Y-45365080D02*
X124764800Y-49552080D01*
X124724800Y-52312080D02*
X124724800Y-56520080D01*
X124724800Y-45344080D02*
X124724800Y-49552080D01*
X124684800Y-52312080D02*
X124684800Y-56541080D01*
X124684800Y-45323080D02*
X124684800Y-49552080D01*
X124644800Y-52312080D02*
X124644800Y-56561080D01*
X124644800Y-45303080D02*
X124644800Y-49552080D01*
X124604800Y-52312080D02*
X124604800Y-56581080D01*
X124604800Y-45283080D02*
X124604800Y-49552080D01*
X124564800Y-52312080D02*
X124564800Y-56600080D01*
X124564800Y-45264080D02*
X124564800Y-49552080D01*
X124524800Y-52312080D02*
X124524800Y-56619080D01*
X124524800Y-45245080D02*
X124524800Y-49552080D01*
X124484800Y-52312080D02*
X124484800Y-56638080D01*
X124484800Y-45226080D02*
X124484800Y-49552080D01*
X124444800Y-52312080D02*
X124444800Y-56657080D01*
X124444800Y-45207080D02*
X124444800Y-49552080D01*
X124404800Y-52312080D02*
X124404800Y-56675080D01*
X124404800Y-45189080D02*
X124404800Y-49552080D01*
X124364800Y-52312080D02*
X124364800Y-56693080D01*
X124364800Y-45171080D02*
X124364800Y-49552080D01*
X124324800Y-52312080D02*
X124324800Y-56710080D01*
X124324800Y-45154080D02*
X124324800Y-49552080D01*
X124284800Y-52312080D02*
X124284800Y-56727080D01*
X124284800Y-45137080D02*
X124284800Y-49552080D01*
X124244800Y-52312080D02*
X124244800Y-56744080D01*
X124244800Y-45120080D02*
X124244800Y-49552080D01*
X124204800Y-52312080D02*
X124204800Y-56761080D01*
X124204800Y-45103080D02*
X124204800Y-49552080D01*
X124164800Y-52312080D02*
X124164800Y-56777080D01*
X124164800Y-45087080D02*
X124164800Y-49552080D01*
X124124800Y-52312080D02*
X124124800Y-56793080D01*
X124124800Y-45071080D02*
X124124800Y-49552080D01*
X124084800Y-52312080D02*
X124084800Y-56808080D01*
X124084800Y-45056080D02*
X124084800Y-49552080D01*
X124044800Y-52312080D02*
X124044800Y-56824080D01*
X124044800Y-45040080D02*
X124044800Y-49552080D01*
X124004800Y-52312080D02*
X124004800Y-56839080D01*
X124004800Y-45025080D02*
X124004800Y-49552080D01*
X123964800Y-52312080D02*
X123964800Y-56853080D01*
X123964800Y-45011080D02*
X123964800Y-49552080D01*
X123924800Y-52312080D02*
X123924800Y-56868080D01*
X123924800Y-44996080D02*
X123924800Y-49552080D01*
X123884800Y-52312080D02*
X123884800Y-56882080D01*
X123884800Y-44982080D02*
X123884800Y-49552080D01*
X123844800Y-52312080D02*
X123844800Y-56895080D01*
X123844800Y-44969080D02*
X123844800Y-49552080D01*
X123804800Y-52312080D02*
X123804800Y-56909080D01*
X123804800Y-44955080D02*
X123804800Y-49552080D01*
X123764800Y-52312080D02*
X123764800Y-56922080D01*
X123764800Y-44942080D02*
X123764800Y-49552080D01*
X123724800Y-52312080D02*
X123724800Y-56935080D01*
X123724800Y-44929080D02*
X123724800Y-49552080D01*
X123684800Y-52312080D02*
X123684800Y-56947080D01*
X123684800Y-44917080D02*
X123684800Y-49552080D01*
X123644800Y-52312080D02*
X123644800Y-56960080D01*
X123644800Y-44904080D02*
X123644800Y-49552080D01*
X123604800Y-52312080D02*
X123604800Y-56972080D01*
X123604800Y-44892080D02*
X123604800Y-49552080D01*
X123564800Y-52312080D02*
X123564800Y-56983080D01*
X123564800Y-44881080D02*
X123564800Y-49552080D01*
X123524800Y-52312080D02*
X123524800Y-56995080D01*
X123524800Y-44869080D02*
X123524800Y-49552080D01*
X123484800Y-52312080D02*
X123484800Y-57006080D01*
X123484800Y-44858080D02*
X123484800Y-49552080D01*
X123444800Y-52312080D02*
X123444800Y-57017080D01*
X123444800Y-44847080D02*
X123444800Y-49552080D01*
X123404800Y-52312080D02*
X123404800Y-57027080D01*
X123404800Y-44837080D02*
X123404800Y-49552080D01*
X123364800Y-52312080D02*
X123364800Y-57038080D01*
X123364800Y-44826080D02*
X123364800Y-49552080D01*
X123324800Y-52312080D02*
X123324800Y-57048080D01*
X123324800Y-44816080D02*
X123324800Y-49552080D01*
X123284800Y-52312080D02*
X123284800Y-57057080D01*
X123284800Y-44807080D02*
X123284800Y-49552080D01*
X123244800Y-52312080D02*
X123244800Y-57067080D01*
X123244800Y-44797080D02*
X123244800Y-49552080D01*
X123204800Y-52312080D02*
X123204800Y-57076080D01*
X123204800Y-44788080D02*
X123204800Y-49552080D01*
X123164800Y-52312080D02*
X123164800Y-57085080D01*
X123164800Y-44779080D02*
X123164800Y-49552080D01*
X123124800Y-52312080D02*
X123124800Y-57094080D01*
X123124800Y-44770080D02*
X123124800Y-49552080D01*
X123084800Y-52312080D02*
X123084800Y-57102080D01*
X123084800Y-44762080D02*
X123084800Y-49552080D01*
X123044800Y-52312080D02*
X123044800Y-57110080D01*
X123044800Y-44754080D02*
X123044800Y-49552080D01*
X123004800Y-52312080D02*
X123004800Y-57118080D01*
X123004800Y-44746080D02*
X123004800Y-49552080D01*
X122964800Y-52312080D02*
X122964800Y-57125080D01*
X122964800Y-44739080D02*
X122964800Y-49552080D01*
X122924800Y-52312080D02*
X122924800Y-57133080D01*
X122924800Y-44731080D02*
X122924800Y-49552080D01*
X122884800Y-44724080D02*
X122884800Y-57140080D01*
X122844800Y-44717080D02*
X122844800Y-57147080D01*
X122804800Y-44711080D02*
X122804800Y-57153080D01*
X122764800Y-44705080D02*
X122764800Y-57159080D01*
X122724800Y-44699080D02*
X122724800Y-57165080D01*
X122684800Y-44693080D02*
X122684800Y-57171080D01*
X122644800Y-44687080D02*
X122644800Y-57177080D01*
X122604800Y-44682080D02*
X122604800Y-57182080D01*
X122564800Y-44677080D02*
X122564800Y-57187080D01*
X122524800Y-44673080D02*
X122524800Y-57191080D01*
X122483800Y-44668080D02*
X122483800Y-57196080D01*
X122443800Y-44664080D02*
X122443800Y-57200080D01*
X122403800Y-44660080D02*
X122403800Y-57204080D01*
X122363800Y-44656080D02*
X122363800Y-57208080D01*
X122323800Y-44653080D02*
X122323800Y-57211080D01*
X122283800Y-44650080D02*
X122283800Y-57214080D01*
X122243800Y-44647080D02*
X122243800Y-57217080D01*
X122203800Y-44644080D02*
X122203800Y-57220080D01*
X122163800Y-44642080D02*
X122163800Y-57222080D01*
X122123800Y-44640080D02*
X122123800Y-57224080D01*
X122083800Y-44638080D02*
X122083800Y-57226080D01*
X122043800Y-44636080D02*
X122043800Y-57228080D01*
X122003800Y-44635080D02*
X122003800Y-57229080D01*
X121963800Y-44634080D02*
X121963800Y-57230080D01*
X121923800Y-44633080D02*
X121923800Y-57231080D01*
X121883800Y-44632080D02*
X121883800Y-57232080D01*
X121843800Y-44632080D02*
X121843800Y-57232080D01*
X121803800Y-44632080D02*
X121803800Y-57232080D01*
X128143800Y-50932080D02*
G75*
G03X128143800Y-50932080I-6340000J0D01*
G01*
X85943600Y-44718600D02*
G75*
G03X85943600Y-44718600I-6340000J0D01*
G01*
X73303600Y-44718600D02*
X85903600Y-44718600D01*
X73303600Y-44678600D02*
X85903600Y-44678600D01*
X73303600Y-44638600D02*
X85903600Y-44638600D01*
X73304600Y-44598600D02*
X85902600Y-44598600D01*
X73305600Y-44558600D02*
X85901600Y-44558600D01*
X73306600Y-44518600D02*
X85900600Y-44518600D01*
X73307600Y-44478600D02*
X85899600Y-44478600D01*
X73309600Y-44438600D02*
X85897600Y-44438600D01*
X73311600Y-44398600D02*
X85895600Y-44398600D01*
X73313600Y-44358600D02*
X85893600Y-44358600D01*
X73315600Y-44318600D02*
X85891600Y-44318600D01*
X73318600Y-44278600D02*
X85888600Y-44278600D01*
X73321600Y-44238600D02*
X85885600Y-44238600D01*
X73324600Y-44198600D02*
X85882600Y-44198600D01*
X73327600Y-44158600D02*
X85879600Y-44158600D01*
X73331600Y-44118600D02*
X85875600Y-44118600D01*
X73335600Y-44078600D02*
X85871600Y-44078600D01*
X73339600Y-44038600D02*
X85867600Y-44038600D01*
X73344600Y-43997600D02*
X85862600Y-43997600D01*
X73348600Y-43957600D02*
X85858600Y-43957600D01*
X73353600Y-43917600D02*
X85853600Y-43917600D01*
X73358600Y-43877600D02*
X85848600Y-43877600D01*
X73364600Y-43837600D02*
X85842600Y-43837600D01*
X73370600Y-43797600D02*
X85836600Y-43797600D01*
X73376600Y-43757600D02*
X85830600Y-43757600D01*
X73382600Y-43717600D02*
X85824600Y-43717600D01*
X73388600Y-43677600D02*
X85818600Y-43677600D01*
X73395600Y-43637600D02*
X85811600Y-43637600D01*
X73402600Y-43597600D02*
X78223600Y-43597600D01*
X80983600Y-43597600D02*
X85804600Y-43597600D01*
X73410600Y-43557600D02*
X78223600Y-43557600D01*
X80983600Y-43557600D02*
X85796600Y-43557600D01*
X73417600Y-43517600D02*
X78223600Y-43517600D01*
X80983600Y-43517600D02*
X85789600Y-43517600D01*
X73425600Y-43477600D02*
X78223600Y-43477600D01*
X80983600Y-43477600D02*
X85781600Y-43477600D01*
X73433600Y-43437600D02*
X78223600Y-43437600D01*
X80983600Y-43437600D02*
X85773600Y-43437600D01*
X73441600Y-43397600D02*
X78223600Y-43397600D01*
X80983600Y-43397600D02*
X85765600Y-43397600D01*
X73450600Y-43357600D02*
X78223600Y-43357600D01*
X80983600Y-43357600D02*
X85756600Y-43357600D01*
X73459600Y-43317600D02*
X78223600Y-43317600D01*
X80983600Y-43317600D02*
X85747600Y-43317600D01*
X73468600Y-43277600D02*
X78223600Y-43277600D01*
X80983600Y-43277600D02*
X85738600Y-43277600D01*
X73478600Y-43237600D02*
X78223600Y-43237600D01*
X80983600Y-43237600D02*
X85728600Y-43237600D01*
X73487600Y-43197600D02*
X78223600Y-43197600D01*
X80983600Y-43197600D02*
X85719600Y-43197600D01*
X73497600Y-43157600D02*
X78223600Y-43157600D01*
X80983600Y-43157600D02*
X85709600Y-43157600D01*
X73508600Y-43117600D02*
X78223600Y-43117600D01*
X80983600Y-43117600D02*
X85698600Y-43117600D01*
X73518600Y-43077600D02*
X78223600Y-43077600D01*
X80983600Y-43077600D02*
X85688600Y-43077600D01*
X73529600Y-43037600D02*
X78223600Y-43037600D01*
X80983600Y-43037600D02*
X85677600Y-43037600D01*
X73540600Y-42997600D02*
X78223600Y-42997600D01*
X80983600Y-42997600D02*
X85666600Y-42997600D01*
X73552600Y-42957600D02*
X78223600Y-42957600D01*
X80983600Y-42957600D02*
X85654600Y-42957600D01*
X73563600Y-42917600D02*
X78223600Y-42917600D01*
X80983600Y-42917600D02*
X85643600Y-42917600D01*
X73575600Y-42877600D02*
X78223600Y-42877600D01*
X80983600Y-42877600D02*
X85631600Y-42877600D01*
X73588600Y-42837600D02*
X78223600Y-42837600D01*
X80983600Y-42837600D02*
X85618600Y-42837600D01*
X73600600Y-42797600D02*
X78223600Y-42797600D01*
X80983600Y-42797600D02*
X85606600Y-42797600D01*
X73613600Y-42757600D02*
X78223600Y-42757600D01*
X80983600Y-42757600D02*
X85593600Y-42757600D01*
X73626600Y-42717600D02*
X78223600Y-42717600D01*
X80983600Y-42717600D02*
X85580600Y-42717600D01*
X73640600Y-42677600D02*
X78223600Y-42677600D01*
X80983600Y-42677600D02*
X85566600Y-42677600D01*
X73653600Y-42637600D02*
X78223600Y-42637600D01*
X80983600Y-42637600D02*
X85553600Y-42637600D01*
X73667600Y-42597600D02*
X78223600Y-42597600D01*
X80983600Y-42597600D02*
X85539600Y-42597600D01*
X73682600Y-42557600D02*
X78223600Y-42557600D01*
X80983600Y-42557600D02*
X85524600Y-42557600D01*
X73696600Y-42517600D02*
X78223600Y-42517600D01*
X80983600Y-42517600D02*
X85510600Y-42517600D01*
X73711600Y-42477600D02*
X78223600Y-42477600D01*
X80983600Y-42477600D02*
X85495600Y-42477600D01*
X73727600Y-42437600D02*
X78223600Y-42437600D01*
X80983600Y-42437600D02*
X85479600Y-42437600D01*
X73742600Y-42397600D02*
X78223600Y-42397600D01*
X80983600Y-42397600D02*
X85464600Y-42397600D01*
X73758600Y-42357600D02*
X78223600Y-42357600D01*
X80983600Y-42357600D02*
X85448600Y-42357600D01*
X73774600Y-42317600D02*
X78223600Y-42317600D01*
X80983600Y-42317600D02*
X85432600Y-42317600D01*
X73791600Y-42277600D02*
X78223600Y-42277600D01*
X80983600Y-42277600D02*
X85415600Y-42277600D01*
X73808600Y-42237600D02*
X78223600Y-42237600D01*
X80983600Y-42237600D02*
X85398600Y-42237600D01*
X73825600Y-42197600D02*
X78223600Y-42197600D01*
X80983600Y-42197600D02*
X85381600Y-42197600D01*
X73842600Y-42157600D02*
X78223600Y-42157600D01*
X80983600Y-42157600D02*
X85364600Y-42157600D01*
X73860600Y-42117600D02*
X78223600Y-42117600D01*
X80983600Y-42117600D02*
X85346600Y-42117600D01*
X73878600Y-42077600D02*
X78223600Y-42077600D01*
X80983600Y-42077600D02*
X85328600Y-42077600D01*
X73897600Y-42037600D02*
X78223600Y-42037600D01*
X80983600Y-42037600D02*
X85309600Y-42037600D01*
X73916600Y-41997600D02*
X78223600Y-41997600D01*
X80983600Y-41997600D02*
X85290600Y-41997600D01*
X73935600Y-41957600D02*
X78223600Y-41957600D01*
X80983600Y-41957600D02*
X85271600Y-41957600D01*
X73954600Y-41917600D02*
X78223600Y-41917600D01*
X80983600Y-41917600D02*
X85252600Y-41917600D01*
X73974600Y-41877600D02*
X78223600Y-41877600D01*
X80983600Y-41877600D02*
X85232600Y-41877600D01*
X73994600Y-41837600D02*
X78223600Y-41837600D01*
X80983600Y-41837600D02*
X85212600Y-41837600D01*
X74015600Y-41797600D02*
X78223600Y-41797600D01*
X80983600Y-41797600D02*
X85191600Y-41797600D01*
X74036600Y-41757600D02*
X78223600Y-41757600D01*
X80983600Y-41757600D02*
X85170600Y-41757600D01*
X74057600Y-41717600D02*
X78223600Y-41717600D01*
X80983600Y-41717600D02*
X85149600Y-41717600D01*
X74079600Y-41677600D02*
X78223600Y-41677600D01*
X80983600Y-41677600D02*
X85127600Y-41677600D01*
X74101600Y-41637600D02*
X78223600Y-41637600D01*
X80983600Y-41637600D02*
X85105600Y-41637600D01*
X74123600Y-41597600D02*
X78223600Y-41597600D01*
X80983600Y-41597600D02*
X85083600Y-41597600D01*
X74146600Y-41557600D02*
X78223600Y-41557600D01*
X80983600Y-41557600D02*
X85060600Y-41557600D01*
X74169600Y-41517600D02*
X78223600Y-41517600D01*
X80983600Y-41517600D02*
X85037600Y-41517600D01*
X74193600Y-41477600D02*
X78223600Y-41477600D01*
X80983600Y-41477600D02*
X85013600Y-41477600D01*
X74217600Y-41437600D02*
X78223600Y-41437600D01*
X80983600Y-41437600D02*
X84989600Y-41437600D01*
X74241600Y-41397600D02*
X78223600Y-41397600D01*
X80983600Y-41397600D02*
X84965600Y-41397600D01*
X74266600Y-41357600D02*
X78223600Y-41357600D01*
X80983600Y-41357600D02*
X84940600Y-41357600D01*
X74291600Y-41317600D02*
X78223600Y-41317600D01*
X80983600Y-41317600D02*
X84915600Y-41317600D01*
X74317600Y-41277600D02*
X78223600Y-41277600D01*
X80983600Y-41277600D02*
X84889600Y-41277600D01*
X74343600Y-41237600D02*
X78223600Y-41237600D01*
X80983600Y-41237600D02*
X84863600Y-41237600D01*
X74369600Y-41197600D02*
X78223600Y-41197600D01*
X80983600Y-41197600D02*
X84837600Y-41197600D01*
X74396600Y-41157600D02*
X78223600Y-41157600D01*
X80983600Y-41157600D02*
X84810600Y-41157600D01*
X74424600Y-41117600D02*
X78223600Y-41117600D01*
X80983600Y-41117600D02*
X84782600Y-41117600D01*
X74452600Y-41077600D02*
X78223600Y-41077600D01*
X80983600Y-41077600D02*
X84754600Y-41077600D01*
X74480600Y-41037600D02*
X78223600Y-41037600D01*
X80983600Y-41037600D02*
X84726600Y-41037600D01*
X74509600Y-40997600D02*
X78223600Y-40997600D01*
X80983600Y-40997600D02*
X84697600Y-40997600D01*
X74538600Y-40957600D02*
X78223600Y-40957600D01*
X80983600Y-40957600D02*
X84668600Y-40957600D01*
X74568600Y-40917600D02*
X78223600Y-40917600D01*
X80983600Y-40917600D02*
X84638600Y-40917600D01*
X74598600Y-40877600D02*
X78223600Y-40877600D01*
X80983600Y-40877600D02*
X84608600Y-40877600D01*
X74628600Y-40837600D02*
X84578600Y-40837600D01*
X74660600Y-40797600D02*
X84546600Y-40797600D01*
X74691600Y-40757600D02*
X84515600Y-40757600D01*
X74724600Y-40717600D02*
X84482600Y-40717600D01*
X74756600Y-40677600D02*
X84450600Y-40677600D01*
X74790600Y-40637600D02*
X84416600Y-40637600D01*
X74824600Y-40597600D02*
X84382600Y-40597600D01*
X74858600Y-40557600D02*
X84348600Y-40557600D01*
X74893600Y-40517600D02*
X84313600Y-40517600D01*
X74929600Y-40477600D02*
X84277600Y-40477600D01*
X74965600Y-40437600D02*
X84241600Y-40437600D01*
X75002600Y-40397600D02*
X84204600Y-40397600D01*
X75040600Y-40357600D02*
X84166600Y-40357600D01*
X75078600Y-40317600D02*
X84128600Y-40317600D01*
X75117600Y-40277600D02*
X84089600Y-40277600D01*
X75156600Y-40237600D02*
X84050600Y-40237600D01*
X75197600Y-40197600D02*
X84009600Y-40197600D01*
X75238600Y-40157600D02*
X83968600Y-40157600D01*
X75280600Y-40117600D02*
X83926600Y-40117600D01*
X75322600Y-40077600D02*
X83884600Y-40077600D01*
X75365600Y-40037600D02*
X83841600Y-40037600D01*
X75410600Y-39997600D02*
X83796600Y-39997600D01*
X75455600Y-39957600D02*
X83751600Y-39957600D01*
X75501600Y-39917600D02*
X83705600Y-39917600D01*
X75547600Y-39877600D02*
X83659600Y-39877600D01*
X75595600Y-39837600D02*
X83611600Y-39837600D01*
X75644600Y-39797600D02*
X83562600Y-39797600D01*
X75694600Y-39757600D02*
X83512600Y-39757600D01*
X75744600Y-39717600D02*
X83462600Y-39717600D01*
X75796600Y-39677600D02*
X83410600Y-39677600D01*
X75849600Y-39637600D02*
X83357600Y-39637600D01*
X75903600Y-39597600D02*
X83303600Y-39597600D01*
X75959600Y-39557600D02*
X83247600Y-39557600D01*
X76015600Y-39517600D02*
X83191600Y-39517600D01*
X76073600Y-39477600D02*
X83133600Y-39477600D01*
X76133600Y-39437600D02*
X83073600Y-39437600D01*
X76194600Y-39397600D02*
X83012600Y-39397600D01*
X76256600Y-39357600D02*
X82950600Y-39357600D01*
X76321600Y-39317600D02*
X82885600Y-39317600D01*
X76386600Y-39277600D02*
X82820600Y-39277600D01*
X76454600Y-39237600D02*
X82752600Y-39237600D01*
X76524600Y-39197600D02*
X82682600Y-39197600D01*
X76596600Y-39157600D02*
X82610600Y-39157600D01*
X76670600Y-39117600D02*
X82536600Y-39117600D01*
X76747600Y-39077600D02*
X82459600Y-39077600D01*
X76826600Y-39037600D02*
X82380600Y-39037600D01*
X76908600Y-38997600D02*
X82298600Y-38997600D01*
X76993600Y-38957600D02*
X82213600Y-38957600D01*
X77082600Y-38917600D02*
X82124600Y-38917600D01*
X77175600Y-38877600D02*
X82031600Y-38877600D01*
X77272600Y-38837600D02*
X81934600Y-38837600D01*
X77373600Y-38797600D02*
X81833600Y-38797600D01*
X77481600Y-38757600D02*
X81725600Y-38757600D01*
X77594600Y-38717600D02*
X81612600Y-38717600D01*
X77715600Y-38677600D02*
X81491600Y-38677600D01*
X77846600Y-38637600D02*
X81360600Y-38637600D01*
X77987600Y-38597600D02*
X81219600Y-38597600D01*
X78143600Y-38557600D02*
X81063600Y-38557600D01*
X78318600Y-38517600D02*
X80888600Y-38517600D01*
X78521600Y-38477600D02*
X80685600Y-38477600D01*
X78772600Y-38437600D02*
X80434600Y-38437600D01*
X79139600Y-38397600D02*
X80067600Y-38397600D01*
X79603600Y-50418600D02*
X79603600Y-48618600D01*
X78703600Y-49518600D02*
X80503600Y-49518600D01*
X87338840Y-37672960D02*
X87338840Y-32552960D01*
X99958840Y-37672960D02*
X99958840Y-32552960D01*
X99958840Y-32552960D02*
X87338840Y-32552960D01*
X99958840Y-37672960D02*
X87338840Y-37672960D01*
X84392800Y-59528280D02*
X84392800Y-57728280D01*
X85292800Y-58628280D02*
X83492800Y-58628280D01*
X73271800Y-59092280D02*
X73271800Y-58164280D01*
X73311800Y-59459280D02*
X73311800Y-57797280D01*
X73351800Y-59710280D02*
X73351800Y-57546280D01*
X73391800Y-59913280D02*
X73391800Y-57343280D01*
X73431800Y-60088280D02*
X73431800Y-57168280D01*
X73471800Y-60244280D02*
X73471800Y-57012280D01*
X73511800Y-60385280D02*
X73511800Y-56871280D01*
X73551800Y-60516280D02*
X73551800Y-56740280D01*
X73591800Y-60637280D02*
X73591800Y-56619280D01*
X73631800Y-60750280D02*
X73631800Y-56506280D01*
X73671800Y-60858280D02*
X73671800Y-56398280D01*
X73711800Y-60959280D02*
X73711800Y-56297280D01*
X73751800Y-61056280D02*
X73751800Y-56200280D01*
X73791800Y-61149280D02*
X73791800Y-56107280D01*
X73831800Y-61238280D02*
X73831800Y-56018280D01*
X73871800Y-61323280D02*
X73871800Y-55933280D01*
X73911800Y-61405280D02*
X73911800Y-55851280D01*
X73951800Y-61484280D02*
X73951800Y-55772280D01*
X73991800Y-61561280D02*
X73991800Y-55695280D01*
X74031800Y-61635280D02*
X74031800Y-55621280D01*
X74071800Y-61707280D02*
X74071800Y-55549280D01*
X74111800Y-61777280D02*
X74111800Y-55479280D01*
X74151800Y-61845280D02*
X74151800Y-55411280D01*
X74191800Y-61910280D02*
X74191800Y-55346280D01*
X74231800Y-61975280D02*
X74231800Y-55281280D01*
X74271800Y-62037280D02*
X74271800Y-55219280D01*
X74311800Y-62098280D02*
X74311800Y-55158280D01*
X74351800Y-62158280D02*
X74351800Y-55098280D01*
X74391800Y-62216280D02*
X74391800Y-55040280D01*
X74431800Y-62272280D02*
X74431800Y-54984280D01*
X74471800Y-62328280D02*
X74471800Y-54928280D01*
X74511800Y-62382280D02*
X74511800Y-54874280D01*
X74551800Y-62435280D02*
X74551800Y-54821280D01*
X74591800Y-62487280D02*
X74591800Y-54769280D01*
X74631800Y-62537280D02*
X74631800Y-54719280D01*
X74671800Y-62587280D02*
X74671800Y-54669280D01*
X74711800Y-62636280D02*
X74711800Y-54620280D01*
X74751800Y-62684280D02*
X74751800Y-54572280D01*
X74791800Y-62730280D02*
X74791800Y-54526280D01*
X74831800Y-62776280D02*
X74831800Y-54480280D01*
X74871800Y-62821280D02*
X74871800Y-54435280D01*
X74911800Y-62866280D02*
X74911800Y-54390280D01*
X74951800Y-62909280D02*
X74951800Y-54347280D01*
X74991800Y-62951280D02*
X74991800Y-54305280D01*
X75031800Y-62993280D02*
X75031800Y-54263280D01*
X75071800Y-63034280D02*
X75071800Y-54222280D01*
X75111800Y-63075280D02*
X75111800Y-54181280D01*
X75151800Y-63114280D02*
X75151800Y-54142280D01*
X75191800Y-63153280D02*
X75191800Y-54103280D01*
X75231800Y-63191280D02*
X75231800Y-54065280D01*
X75271800Y-63229280D02*
X75271800Y-54027280D01*
X75311800Y-63266280D02*
X75311800Y-53990280D01*
X75351800Y-63302280D02*
X75351800Y-53954280D01*
X75391800Y-63338280D02*
X75391800Y-53918280D01*
X75431800Y-63373280D02*
X75431800Y-53883280D01*
X75471800Y-63407280D02*
X75471800Y-53849280D01*
X75511800Y-63441280D02*
X75511800Y-53815280D01*
X75551800Y-63475280D02*
X75551800Y-53781280D01*
X75591800Y-63507280D02*
X75591800Y-53749280D01*
X75631800Y-63540280D02*
X75631800Y-53716280D01*
X75671800Y-63571280D02*
X75671800Y-53685280D01*
X75711800Y-63603280D02*
X75711800Y-53653280D01*
X75751800Y-57248280D02*
X75751800Y-53623280D01*
X75751800Y-63633280D02*
X75751800Y-60008280D01*
X75791800Y-57248280D02*
X75791800Y-53593280D01*
X75791800Y-63663280D02*
X75791800Y-60008280D01*
X75831800Y-57248280D02*
X75831800Y-53563280D01*
X75831800Y-63693280D02*
X75831800Y-60008280D01*
X75871800Y-57248280D02*
X75871800Y-53534280D01*
X75871800Y-63722280D02*
X75871800Y-60008280D01*
X75911800Y-57248280D02*
X75911800Y-53505280D01*
X75911800Y-63751280D02*
X75911800Y-60008280D01*
X75951800Y-57248280D02*
X75951800Y-53477280D01*
X75951800Y-63779280D02*
X75951800Y-60008280D01*
X75991800Y-57248280D02*
X75991800Y-53449280D01*
X75991800Y-63807280D02*
X75991800Y-60008280D01*
X76031800Y-57248280D02*
X76031800Y-53421280D01*
X76031800Y-63835280D02*
X76031800Y-60008280D01*
X76071800Y-57248280D02*
X76071800Y-53394280D01*
X76071800Y-63862280D02*
X76071800Y-60008280D01*
X76111800Y-57248280D02*
X76111800Y-53368280D01*
X76111800Y-63888280D02*
X76111800Y-60008280D01*
X76151800Y-57248280D02*
X76151800Y-53342280D01*
X76151800Y-63914280D02*
X76151800Y-60008280D01*
X76191800Y-57248280D02*
X76191800Y-53316280D01*
X76191800Y-63940280D02*
X76191800Y-60008280D01*
X76231800Y-57248280D02*
X76231800Y-53291280D01*
X76231800Y-63965280D02*
X76231800Y-60008280D01*
X76271800Y-57248280D02*
X76271800Y-53266280D01*
X76271800Y-63990280D02*
X76271800Y-60008280D01*
X76311800Y-57248280D02*
X76311800Y-53242280D01*
X76311800Y-64014280D02*
X76311800Y-60008280D01*
X76351800Y-57248280D02*
X76351800Y-53218280D01*
X76351800Y-64038280D02*
X76351800Y-60008280D01*
X76391800Y-57248280D02*
X76391800Y-53194280D01*
X76391800Y-64062280D02*
X76391800Y-60008280D01*
X76431800Y-57248280D02*
X76431800Y-53171280D01*
X76431800Y-64085280D02*
X76431800Y-60008280D01*
X76471800Y-57248280D02*
X76471800Y-53148280D01*
X76471800Y-64108280D02*
X76471800Y-60008280D01*
X76511800Y-57248280D02*
X76511800Y-53126280D01*
X76511800Y-64130280D02*
X76511800Y-60008280D01*
X76551800Y-57248280D02*
X76551800Y-53104280D01*
X76551800Y-64152280D02*
X76551800Y-60008280D01*
X76591800Y-57248280D02*
X76591800Y-53082280D01*
X76591800Y-64174280D02*
X76591800Y-60008280D01*
X76631800Y-57248280D02*
X76631800Y-53061280D01*
X76631800Y-64195280D02*
X76631800Y-60008280D01*
X76671800Y-57248280D02*
X76671800Y-53040280D01*
X76671800Y-64216280D02*
X76671800Y-60008280D01*
X76711800Y-57248280D02*
X76711800Y-53019280D01*
X76711800Y-64237280D02*
X76711800Y-60008280D01*
X76751800Y-57248280D02*
X76751800Y-52999280D01*
X76751800Y-64257280D02*
X76751800Y-60008280D01*
X76791800Y-57248280D02*
X76791800Y-52979280D01*
X76791800Y-64277280D02*
X76791800Y-60008280D01*
X76831800Y-57248280D02*
X76831800Y-52960280D01*
X76831800Y-64296280D02*
X76831800Y-60008280D01*
X76871800Y-57248280D02*
X76871800Y-52941280D01*
X76871800Y-64315280D02*
X76871800Y-60008280D01*
X76911800Y-57248280D02*
X76911800Y-52922280D01*
X76911800Y-64334280D02*
X76911800Y-60008280D01*
X76951800Y-57248280D02*
X76951800Y-52903280D01*
X76951800Y-64353280D02*
X76951800Y-60008280D01*
X76991800Y-57248280D02*
X76991800Y-52885280D01*
X76991800Y-64371280D02*
X76991800Y-60008280D01*
X77031800Y-57248280D02*
X77031800Y-52867280D01*
X77031800Y-64389280D02*
X77031800Y-60008280D01*
X77071800Y-57248280D02*
X77071800Y-52850280D01*
X77071800Y-64406280D02*
X77071800Y-60008280D01*
X77111800Y-57248280D02*
X77111800Y-52833280D01*
X77111800Y-64423280D02*
X77111800Y-60008280D01*
X77151800Y-57248280D02*
X77151800Y-52816280D01*
X77151800Y-64440280D02*
X77151800Y-60008280D01*
X77191800Y-57248280D02*
X77191800Y-52799280D01*
X77191800Y-64457280D02*
X77191800Y-60008280D01*
X77231800Y-57248280D02*
X77231800Y-52783280D01*
X77231800Y-64473280D02*
X77231800Y-60008280D01*
X77271800Y-57248280D02*
X77271800Y-52767280D01*
X77271800Y-64489280D02*
X77271800Y-60008280D01*
X77311800Y-57248280D02*
X77311800Y-52752280D01*
X77311800Y-64504280D02*
X77311800Y-60008280D01*
X77351800Y-57248280D02*
X77351800Y-52736280D01*
X77351800Y-64520280D02*
X77351800Y-60008280D01*
X77391800Y-57248280D02*
X77391800Y-52721280D01*
X77391800Y-64535280D02*
X77391800Y-60008280D01*
X77431800Y-57248280D02*
X77431800Y-52707280D01*
X77431800Y-64549280D02*
X77431800Y-60008280D01*
X77471800Y-57248280D02*
X77471800Y-52692280D01*
X77471800Y-64564280D02*
X77471800Y-60008280D01*
X77511800Y-57248280D02*
X77511800Y-52678280D01*
X77511800Y-64578280D02*
X77511800Y-60008280D01*
X77551800Y-57248280D02*
X77551800Y-52665280D01*
X77551800Y-64591280D02*
X77551800Y-60008280D01*
X77591800Y-57248280D02*
X77591800Y-52651280D01*
X77591800Y-64605280D02*
X77591800Y-60008280D01*
X77631800Y-57248280D02*
X77631800Y-52638280D01*
X77631800Y-64618280D02*
X77631800Y-60008280D01*
X77671800Y-57248280D02*
X77671800Y-52625280D01*
X77671800Y-64631280D02*
X77671800Y-60008280D01*
X77711800Y-57248280D02*
X77711800Y-52613280D01*
X77711800Y-64643280D02*
X77711800Y-60008280D01*
X77751800Y-57248280D02*
X77751800Y-52600280D01*
X77751800Y-64656280D02*
X77751800Y-60008280D01*
X77791800Y-57248280D02*
X77791800Y-52588280D01*
X77791800Y-64668280D02*
X77791800Y-60008280D01*
X77831800Y-57248280D02*
X77831800Y-52577280D01*
X77831800Y-64679280D02*
X77831800Y-60008280D01*
X77871800Y-57248280D02*
X77871800Y-52565280D01*
X77871800Y-64691280D02*
X77871800Y-60008280D01*
X77911800Y-57248280D02*
X77911800Y-52554280D01*
X77911800Y-64702280D02*
X77911800Y-60008280D01*
X77951800Y-57248280D02*
X77951800Y-52543280D01*
X77951800Y-64713280D02*
X77951800Y-60008280D01*
X77991800Y-57248280D02*
X77991800Y-52533280D01*
X77991800Y-64723280D02*
X77991800Y-60008280D01*
X78031800Y-57248280D02*
X78031800Y-52522280D01*
X78031800Y-64734280D02*
X78031800Y-60008280D01*
X78071800Y-57248280D02*
X78071800Y-52512280D01*
X78071800Y-64744280D02*
X78071800Y-60008280D01*
X78111800Y-57248280D02*
X78111800Y-52503280D01*
X78111800Y-64753280D02*
X78111800Y-60008280D01*
X78151800Y-57248280D02*
X78151800Y-52493280D01*
X78151800Y-64763280D02*
X78151800Y-60008280D01*
X78191800Y-57248280D02*
X78191800Y-52484280D01*
X78191800Y-64772280D02*
X78191800Y-60008280D01*
X78231800Y-57248280D02*
X78231800Y-52475280D01*
X78231800Y-64781280D02*
X78231800Y-60008280D01*
X78271800Y-57248280D02*
X78271800Y-52466280D01*
X78271800Y-64790280D02*
X78271800Y-60008280D01*
X78311800Y-57248280D02*
X78311800Y-52458280D01*
X78311800Y-64798280D02*
X78311800Y-60008280D01*
X78351800Y-57248280D02*
X78351800Y-52450280D01*
X78351800Y-64806280D02*
X78351800Y-60008280D01*
X78391800Y-57248280D02*
X78391800Y-52442280D01*
X78391800Y-64814280D02*
X78391800Y-60008280D01*
X78431800Y-57248280D02*
X78431800Y-52435280D01*
X78431800Y-64821280D02*
X78431800Y-60008280D01*
X78471800Y-57248280D02*
X78471800Y-52427280D01*
X78471800Y-64829280D02*
X78471800Y-60008280D01*
X78511800Y-64836280D02*
X78511800Y-52420280D01*
X78551800Y-64843280D02*
X78551800Y-52413280D01*
X78591800Y-64849280D02*
X78591800Y-52407280D01*
X78631800Y-64855280D02*
X78631800Y-52401280D01*
X78671800Y-64861280D02*
X78671800Y-52395280D01*
X78711800Y-64867280D02*
X78711800Y-52389280D01*
X78751800Y-64873280D02*
X78751800Y-52383280D01*
X78791800Y-64878280D02*
X78791800Y-52378280D01*
X78831800Y-64883280D02*
X78831800Y-52373280D01*
X78871800Y-64887280D02*
X78871800Y-52369280D01*
X78912800Y-64892280D02*
X78912800Y-52364280D01*
X78952800Y-64896280D02*
X78952800Y-52360280D01*
X78992800Y-64900280D02*
X78992800Y-52356280D01*
X79032800Y-64904280D02*
X79032800Y-52352280D01*
X79072800Y-64907280D02*
X79072800Y-52349280D01*
X79112800Y-64910280D02*
X79112800Y-52346280D01*
X79152800Y-64913280D02*
X79152800Y-52343280D01*
X79192800Y-64916280D02*
X79192800Y-52340280D01*
X79232800Y-64918280D02*
X79232800Y-52338280D01*
X79272800Y-64920280D02*
X79272800Y-52336280D01*
X79312800Y-64922280D02*
X79312800Y-52334280D01*
X79352800Y-64924280D02*
X79352800Y-52332280D01*
X79392800Y-64925280D02*
X79392800Y-52331280D01*
X79432800Y-64926280D02*
X79432800Y-52330280D01*
X79472800Y-64927280D02*
X79472800Y-52329280D01*
X79512800Y-64928280D02*
X79512800Y-52328280D01*
X79552800Y-64928280D02*
X79552800Y-52328280D01*
X79592800Y-64928280D02*
X79592800Y-52328280D01*
X85932800Y-58628280D02*
G75*
G03X85932800Y-58628280I-6340000J0D01*
G01*
X71658000Y-65938400D02*
G75*
G03X71658000Y-65938400I-6340000J0D01*
G01*
X65318000Y-72238400D02*
X65318000Y-59638400D01*
X65278000Y-72238400D02*
X65278000Y-59638400D01*
X65238000Y-72238400D02*
X65238000Y-59638400D01*
X65198000Y-72237400D02*
X65198000Y-59639400D01*
X65158000Y-72236400D02*
X65158000Y-59640400D01*
X65118000Y-72235400D02*
X65118000Y-59641400D01*
X65078000Y-72234400D02*
X65078000Y-59642400D01*
X65038000Y-72232400D02*
X65038000Y-59644400D01*
X64998000Y-72230400D02*
X64998000Y-59646400D01*
X64958000Y-72228400D02*
X64958000Y-59648400D01*
X64918000Y-72226400D02*
X64918000Y-59650400D01*
X64878000Y-72223400D02*
X64878000Y-59653400D01*
X64838000Y-72220400D02*
X64838000Y-59656400D01*
X64798000Y-72217400D02*
X64798000Y-59659400D01*
X64758000Y-72214400D02*
X64758000Y-59662400D01*
X64718000Y-72210400D02*
X64718000Y-59666400D01*
X64678000Y-72206400D02*
X64678000Y-59670400D01*
X64638000Y-72202400D02*
X64638000Y-59674400D01*
X64597000Y-72197400D02*
X64597000Y-59679400D01*
X64557000Y-72193400D02*
X64557000Y-59683400D01*
X64517000Y-72188400D02*
X64517000Y-59688400D01*
X64477000Y-72183400D02*
X64477000Y-59693400D01*
X64437000Y-72177400D02*
X64437000Y-59699400D01*
X64397000Y-72171400D02*
X64397000Y-59705400D01*
X64357000Y-72165400D02*
X64357000Y-59711400D01*
X64317000Y-72159400D02*
X64317000Y-59717400D01*
X64277000Y-72153400D02*
X64277000Y-59723400D01*
X64237000Y-72146400D02*
X64237000Y-59730400D01*
X64197000Y-72139400D02*
X64197000Y-67318400D01*
X64197000Y-64558400D02*
X64197000Y-59737400D01*
X64157000Y-72131400D02*
X64157000Y-67318400D01*
X64157000Y-64558400D02*
X64157000Y-59745400D01*
X64117000Y-72124400D02*
X64117000Y-67318400D01*
X64117000Y-64558400D02*
X64117000Y-59752400D01*
X64077000Y-72116400D02*
X64077000Y-67318400D01*
X64077000Y-64558400D02*
X64077000Y-59760400D01*
X64037000Y-72108400D02*
X64037000Y-67318400D01*
X64037000Y-64558400D02*
X64037000Y-59768400D01*
X63997000Y-72100400D02*
X63997000Y-67318400D01*
X63997000Y-64558400D02*
X63997000Y-59776400D01*
X63957000Y-72091400D02*
X63957000Y-67318400D01*
X63957000Y-64558400D02*
X63957000Y-59785400D01*
X63917000Y-72082400D02*
X63917000Y-67318400D01*
X63917000Y-64558400D02*
X63917000Y-59794400D01*
X63877000Y-72073400D02*
X63877000Y-67318400D01*
X63877000Y-64558400D02*
X63877000Y-59803400D01*
X63837000Y-72063400D02*
X63837000Y-67318400D01*
X63837000Y-64558400D02*
X63837000Y-59813400D01*
X63797000Y-72054400D02*
X63797000Y-67318400D01*
X63797000Y-64558400D02*
X63797000Y-59822400D01*
X63757000Y-72044400D02*
X63757000Y-67318400D01*
X63757000Y-64558400D02*
X63757000Y-59832400D01*
X63717000Y-72033400D02*
X63717000Y-67318400D01*
X63717000Y-64558400D02*
X63717000Y-59843400D01*
X63677000Y-72023400D02*
X63677000Y-67318400D01*
X63677000Y-64558400D02*
X63677000Y-59853400D01*
X63637000Y-72012400D02*
X63637000Y-67318400D01*
X63637000Y-64558400D02*
X63637000Y-59864400D01*
X63597000Y-72001400D02*
X63597000Y-67318400D01*
X63597000Y-64558400D02*
X63597000Y-59875400D01*
X63557000Y-71989400D02*
X63557000Y-67318400D01*
X63557000Y-64558400D02*
X63557000Y-59887400D01*
X63517000Y-71978400D02*
X63517000Y-67318400D01*
X63517000Y-64558400D02*
X63517000Y-59898400D01*
X63477000Y-71966400D02*
X63477000Y-67318400D01*
X63477000Y-64558400D02*
X63477000Y-59910400D01*
X63437000Y-71953400D02*
X63437000Y-67318400D01*
X63437000Y-64558400D02*
X63437000Y-59923400D01*
X63397000Y-71941400D02*
X63397000Y-67318400D01*
X63397000Y-64558400D02*
X63397000Y-59935400D01*
X63357000Y-71928400D02*
X63357000Y-67318400D01*
X63357000Y-64558400D02*
X63357000Y-59948400D01*
X63317000Y-71915400D02*
X63317000Y-67318400D01*
X63317000Y-64558400D02*
X63317000Y-59961400D01*
X63277000Y-71901400D02*
X63277000Y-67318400D01*
X63277000Y-64558400D02*
X63277000Y-59975400D01*
X63237000Y-71888400D02*
X63237000Y-67318400D01*
X63237000Y-64558400D02*
X63237000Y-59988400D01*
X63197000Y-71874400D02*
X63197000Y-67318400D01*
X63197000Y-64558400D02*
X63197000Y-60002400D01*
X63157000Y-71859400D02*
X63157000Y-67318400D01*
X63157000Y-64558400D02*
X63157000Y-60017400D01*
X63117000Y-71845400D02*
X63117000Y-67318400D01*
X63117000Y-64558400D02*
X63117000Y-60031400D01*
X63077000Y-71830400D02*
X63077000Y-67318400D01*
X63077000Y-64558400D02*
X63077000Y-60046400D01*
X63037000Y-71814400D02*
X63037000Y-67318400D01*
X63037000Y-64558400D02*
X63037000Y-60062400D01*
X62997000Y-71799400D02*
X62997000Y-67318400D01*
X62997000Y-64558400D02*
X62997000Y-60077400D01*
X62957000Y-71783400D02*
X62957000Y-67318400D01*
X62957000Y-64558400D02*
X62957000Y-60093400D01*
X62917000Y-71767400D02*
X62917000Y-67318400D01*
X62917000Y-64558400D02*
X62917000Y-60109400D01*
X62877000Y-71750400D02*
X62877000Y-67318400D01*
X62877000Y-64558400D02*
X62877000Y-60126400D01*
X62837000Y-71733400D02*
X62837000Y-67318400D01*
X62837000Y-64558400D02*
X62837000Y-60143400D01*
X62797000Y-71716400D02*
X62797000Y-67318400D01*
X62797000Y-64558400D02*
X62797000Y-60160400D01*
X62757000Y-71699400D02*
X62757000Y-67318400D01*
X62757000Y-64558400D02*
X62757000Y-60177400D01*
X62717000Y-71681400D02*
X62717000Y-67318400D01*
X62717000Y-64558400D02*
X62717000Y-60195400D01*
X62677000Y-71663400D02*
X62677000Y-67318400D01*
X62677000Y-64558400D02*
X62677000Y-60213400D01*
X62637000Y-71644400D02*
X62637000Y-67318400D01*
X62637000Y-64558400D02*
X62637000Y-60232400D01*
X62597000Y-71625400D02*
X62597000Y-67318400D01*
X62597000Y-64558400D02*
X62597000Y-60251400D01*
X62557000Y-71606400D02*
X62557000Y-67318400D01*
X62557000Y-64558400D02*
X62557000Y-60270400D01*
X62517000Y-71587400D02*
X62517000Y-67318400D01*
X62517000Y-64558400D02*
X62517000Y-60289400D01*
X62477000Y-71567400D02*
X62477000Y-67318400D01*
X62477000Y-64558400D02*
X62477000Y-60309400D01*
X62437000Y-71547400D02*
X62437000Y-67318400D01*
X62437000Y-64558400D02*
X62437000Y-60329400D01*
X62397000Y-71526400D02*
X62397000Y-67318400D01*
X62397000Y-64558400D02*
X62397000Y-60350400D01*
X62357000Y-71505400D02*
X62357000Y-67318400D01*
X62357000Y-64558400D02*
X62357000Y-60371400D01*
X62317000Y-71484400D02*
X62317000Y-67318400D01*
X62317000Y-64558400D02*
X62317000Y-60392400D01*
X62277000Y-71462400D02*
X62277000Y-67318400D01*
X62277000Y-64558400D02*
X62277000Y-60414400D01*
X62237000Y-71440400D02*
X62237000Y-67318400D01*
X62237000Y-64558400D02*
X62237000Y-60436400D01*
X62197000Y-71418400D02*
X62197000Y-67318400D01*
X62197000Y-64558400D02*
X62197000Y-60458400D01*
X62157000Y-71395400D02*
X62157000Y-67318400D01*
X62157000Y-64558400D02*
X62157000Y-60481400D01*
X62117000Y-71372400D02*
X62117000Y-67318400D01*
X62117000Y-64558400D02*
X62117000Y-60504400D01*
X62077000Y-71348400D02*
X62077000Y-67318400D01*
X62077000Y-64558400D02*
X62077000Y-60528400D01*
X62037000Y-71324400D02*
X62037000Y-67318400D01*
X62037000Y-64558400D02*
X62037000Y-60552400D01*
X61997000Y-71300400D02*
X61997000Y-67318400D01*
X61997000Y-64558400D02*
X61997000Y-60576400D01*
X61957000Y-71275400D02*
X61957000Y-67318400D01*
X61957000Y-64558400D02*
X61957000Y-60601400D01*
X61917000Y-71250400D02*
X61917000Y-67318400D01*
X61917000Y-64558400D02*
X61917000Y-60626400D01*
X61877000Y-71224400D02*
X61877000Y-67318400D01*
X61877000Y-64558400D02*
X61877000Y-60652400D01*
X61837000Y-71198400D02*
X61837000Y-67318400D01*
X61837000Y-64558400D02*
X61837000Y-60678400D01*
X61797000Y-71172400D02*
X61797000Y-67318400D01*
X61797000Y-64558400D02*
X61797000Y-60704400D01*
X61757000Y-71145400D02*
X61757000Y-67318400D01*
X61757000Y-64558400D02*
X61757000Y-60731400D01*
X61717000Y-71117400D02*
X61717000Y-67318400D01*
X61717000Y-64558400D02*
X61717000Y-60759400D01*
X61677000Y-71089400D02*
X61677000Y-67318400D01*
X61677000Y-64558400D02*
X61677000Y-60787400D01*
X61637000Y-71061400D02*
X61637000Y-67318400D01*
X61637000Y-64558400D02*
X61637000Y-60815400D01*
X61597000Y-71032400D02*
X61597000Y-67318400D01*
X61597000Y-64558400D02*
X61597000Y-60844400D01*
X61557000Y-71003400D02*
X61557000Y-67318400D01*
X61557000Y-64558400D02*
X61557000Y-60873400D01*
X61517000Y-70973400D02*
X61517000Y-67318400D01*
X61517000Y-64558400D02*
X61517000Y-60903400D01*
X61477000Y-70943400D02*
X61477000Y-67318400D01*
X61477000Y-64558400D02*
X61477000Y-60933400D01*
X61437000Y-70913400D02*
X61437000Y-60963400D01*
X61397000Y-70881400D02*
X61397000Y-60995400D01*
X61357000Y-70850400D02*
X61357000Y-61026400D01*
X61317000Y-70817400D02*
X61317000Y-61059400D01*
X61277000Y-70785400D02*
X61277000Y-61091400D01*
X61237000Y-70751400D02*
X61237000Y-61125400D01*
X61197000Y-70717400D02*
X61197000Y-61159400D01*
X61157000Y-70683400D02*
X61157000Y-61193400D01*
X61117000Y-70648400D02*
X61117000Y-61228400D01*
X61077000Y-70612400D02*
X61077000Y-61264400D01*
X61037000Y-70576400D02*
X61037000Y-61300400D01*
X60997000Y-70539400D02*
X60997000Y-61337400D01*
X60957000Y-70501400D02*
X60957000Y-61375400D01*
X60917000Y-70463400D02*
X60917000Y-61413400D01*
X60877000Y-70424400D02*
X60877000Y-61452400D01*
X60837000Y-70385400D02*
X60837000Y-61491400D01*
X60797000Y-70344400D02*
X60797000Y-61532400D01*
X60757000Y-70303400D02*
X60757000Y-61573400D01*
X60717000Y-70261400D02*
X60717000Y-61615400D01*
X60677000Y-70219400D02*
X60677000Y-61657400D01*
X60637000Y-70176400D02*
X60637000Y-61700400D01*
X60597000Y-70131400D02*
X60597000Y-61745400D01*
X60557000Y-70086400D02*
X60557000Y-61790400D01*
X60517000Y-70040400D02*
X60517000Y-61836400D01*
X60477000Y-69994400D02*
X60477000Y-61882400D01*
X60437000Y-69946400D02*
X60437000Y-61930400D01*
X60397000Y-69897400D02*
X60397000Y-61979400D01*
X60357000Y-69847400D02*
X60357000Y-62029400D01*
X60317000Y-69797400D02*
X60317000Y-62079400D01*
X60277000Y-69745400D02*
X60277000Y-62131400D01*
X60237000Y-69692400D02*
X60237000Y-62184400D01*
X60197000Y-69638400D02*
X60197000Y-62238400D01*
X60157000Y-69582400D02*
X60157000Y-62294400D01*
X60117000Y-69526400D02*
X60117000Y-62350400D01*
X60077000Y-69468400D02*
X60077000Y-62408400D01*
X60037000Y-69408400D02*
X60037000Y-62468400D01*
X59997000Y-69347400D02*
X59997000Y-62529400D01*
X59957000Y-69285400D02*
X59957000Y-62591400D01*
X59917000Y-69220400D02*
X59917000Y-62656400D01*
X59877000Y-69155400D02*
X59877000Y-62721400D01*
X59837000Y-69087400D02*
X59837000Y-62789400D01*
X59797000Y-69017400D02*
X59797000Y-62859400D01*
X59757000Y-68945400D02*
X59757000Y-62931400D01*
X59717000Y-68871400D02*
X59717000Y-63005400D01*
X59677000Y-68794400D02*
X59677000Y-63082400D01*
X59637000Y-68715400D02*
X59637000Y-63161400D01*
X59597000Y-68633400D02*
X59597000Y-63243400D01*
X59557000Y-68548400D02*
X59557000Y-63328400D01*
X59517000Y-68459400D02*
X59517000Y-63417400D01*
X59477000Y-68366400D02*
X59477000Y-63510400D01*
X59437000Y-68269400D02*
X59437000Y-63607400D01*
X59397000Y-68168400D02*
X59397000Y-63708400D01*
X59357000Y-68060400D02*
X59357000Y-63816400D01*
X59317000Y-67947400D02*
X59317000Y-63929400D01*
X59277000Y-67826400D02*
X59277000Y-64050400D01*
X59237000Y-67695400D02*
X59237000Y-64181400D01*
X59197000Y-67554400D02*
X59197000Y-64322400D01*
X59157000Y-67398400D02*
X59157000Y-64478400D01*
X59117000Y-67223400D02*
X59117000Y-64653400D01*
X59077000Y-67020400D02*
X59077000Y-64856400D01*
X59037000Y-66769400D02*
X59037000Y-65107400D01*
X58997000Y-66402400D02*
X58997000Y-65474400D01*
X71018000Y-65938400D02*
X69218000Y-65938400D01*
X70118000Y-66838400D02*
X70118000Y-65038400D01*
X80503600Y-26285160D02*
X78703600Y-26285160D01*
X79603600Y-25385160D02*
X79603600Y-27185160D01*
X80067600Y-37406160D02*
X79139600Y-37406160D01*
X80434600Y-37366160D02*
X78772600Y-37366160D01*
X80685600Y-37326160D02*
X78521600Y-37326160D01*
X80888600Y-37286160D02*
X78318600Y-37286160D01*
X81063600Y-37246160D02*
X78143600Y-37246160D01*
X81219600Y-37206160D02*
X77987600Y-37206160D01*
X81360600Y-37166160D02*
X77846600Y-37166160D01*
X81491600Y-37126160D02*
X77715600Y-37126160D01*
X81612600Y-37086160D02*
X77594600Y-37086160D01*
X81725600Y-37046160D02*
X77481600Y-37046160D01*
X81833600Y-37006160D02*
X77373600Y-37006160D01*
X81934600Y-36966160D02*
X77272600Y-36966160D01*
X82031600Y-36926160D02*
X77175600Y-36926160D01*
X82124600Y-36886160D02*
X77082600Y-36886160D01*
X82213600Y-36846160D02*
X76993600Y-36846160D01*
X82298600Y-36806160D02*
X76908600Y-36806160D01*
X82380600Y-36766160D02*
X76826600Y-36766160D01*
X82459600Y-36726160D02*
X76747600Y-36726160D01*
X82536600Y-36686160D02*
X76670600Y-36686160D01*
X82610600Y-36646160D02*
X76596600Y-36646160D01*
X82682600Y-36606160D02*
X76524600Y-36606160D01*
X82752600Y-36566160D02*
X76454600Y-36566160D01*
X82820600Y-36526160D02*
X76386600Y-36526160D01*
X82885600Y-36486160D02*
X76321600Y-36486160D01*
X82950600Y-36446160D02*
X76256600Y-36446160D01*
X83012600Y-36406160D02*
X76194600Y-36406160D01*
X83073600Y-36366160D02*
X76133600Y-36366160D01*
X83133600Y-36326160D02*
X76073600Y-36326160D01*
X83191600Y-36286160D02*
X76015600Y-36286160D01*
X83247600Y-36246160D02*
X75959600Y-36246160D01*
X83303600Y-36206160D02*
X75903600Y-36206160D01*
X83357600Y-36166160D02*
X75849600Y-36166160D01*
X83410600Y-36126160D02*
X75796600Y-36126160D01*
X83462600Y-36086160D02*
X75744600Y-36086160D01*
X83512600Y-36046160D02*
X75694600Y-36046160D01*
X83562600Y-36006160D02*
X75644600Y-36006160D01*
X83611600Y-35966160D02*
X75595600Y-35966160D01*
X83659600Y-35926160D02*
X75547600Y-35926160D01*
X83705600Y-35886160D02*
X75501600Y-35886160D01*
X83751600Y-35846160D02*
X75455600Y-35846160D01*
X83796600Y-35806160D02*
X75410600Y-35806160D01*
X83841600Y-35766160D02*
X75365600Y-35766160D01*
X83884600Y-35726160D02*
X75322600Y-35726160D01*
X83926600Y-35686160D02*
X75280600Y-35686160D01*
X83968600Y-35646160D02*
X75238600Y-35646160D01*
X84009600Y-35606160D02*
X75197600Y-35606160D01*
X84050600Y-35566160D02*
X75156600Y-35566160D01*
X84089600Y-35526160D02*
X75117600Y-35526160D01*
X84128600Y-35486160D02*
X75078600Y-35486160D01*
X84166600Y-35446160D02*
X75040600Y-35446160D01*
X84204600Y-35406160D02*
X75002600Y-35406160D01*
X84241600Y-35366160D02*
X74965600Y-35366160D01*
X84277600Y-35326160D02*
X74929600Y-35326160D01*
X84313600Y-35286160D02*
X74893600Y-35286160D01*
X84348600Y-35246160D02*
X74858600Y-35246160D01*
X84382600Y-35206160D02*
X74824600Y-35206160D01*
X84416600Y-35166160D02*
X74790600Y-35166160D01*
X84450600Y-35126160D02*
X74756600Y-35126160D01*
X84482600Y-35086160D02*
X74724600Y-35086160D01*
X84515600Y-35046160D02*
X74691600Y-35046160D01*
X84546600Y-35006160D02*
X74660600Y-35006160D01*
X84578600Y-34966160D02*
X74628600Y-34966160D01*
X78223600Y-34926160D02*
X74598600Y-34926160D01*
X84608600Y-34926160D02*
X80983600Y-34926160D01*
X78223600Y-34886160D02*
X74568600Y-34886160D01*
X84638600Y-34886160D02*
X80983600Y-34886160D01*
X78223600Y-34846160D02*
X74538600Y-34846160D01*
X84668600Y-34846160D02*
X80983600Y-34846160D01*
X78223600Y-34806160D02*
X74509600Y-34806160D01*
X84697600Y-34806160D02*
X80983600Y-34806160D01*
X78223600Y-34766160D02*
X74480600Y-34766160D01*
X84726600Y-34766160D02*
X80983600Y-34766160D01*
X78223600Y-34726160D02*
X74452600Y-34726160D01*
X84754600Y-34726160D02*
X80983600Y-34726160D01*
X78223600Y-34686160D02*
X74424600Y-34686160D01*
X84782600Y-34686160D02*
X80983600Y-34686160D01*
X78223600Y-34646160D02*
X74396600Y-34646160D01*
X84810600Y-34646160D02*
X80983600Y-34646160D01*
X78223600Y-34606160D02*
X74369600Y-34606160D01*
X84837600Y-34606160D02*
X80983600Y-34606160D01*
X78223600Y-34566160D02*
X74343600Y-34566160D01*
X84863600Y-34566160D02*
X80983600Y-34566160D01*
X78223600Y-34526160D02*
X74317600Y-34526160D01*
X84889600Y-34526160D02*
X80983600Y-34526160D01*
X78223600Y-34486160D02*
X74291600Y-34486160D01*
X84915600Y-34486160D02*
X80983600Y-34486160D01*
X78223600Y-34446160D02*
X74266600Y-34446160D01*
X84940600Y-34446160D02*
X80983600Y-34446160D01*
X78223600Y-34406160D02*
X74241600Y-34406160D01*
X84965600Y-34406160D02*
X80983600Y-34406160D01*
X78223600Y-34366160D02*
X74217600Y-34366160D01*
X84989600Y-34366160D02*
X80983600Y-34366160D01*
X78223600Y-34326160D02*
X74193600Y-34326160D01*
X85013600Y-34326160D02*
X80983600Y-34326160D01*
X78223600Y-34286160D02*
X74169600Y-34286160D01*
X85037600Y-34286160D02*
X80983600Y-34286160D01*
X78223600Y-34246160D02*
X74146600Y-34246160D01*
X85060600Y-34246160D02*
X80983600Y-34246160D01*
X78223600Y-34206160D02*
X74123600Y-34206160D01*
X85083600Y-34206160D02*
X80983600Y-34206160D01*
X78223600Y-34166160D02*
X74101600Y-34166160D01*
X85105600Y-34166160D02*
X80983600Y-34166160D01*
X78223600Y-34126160D02*
X74079600Y-34126160D01*
X85127600Y-34126160D02*
X80983600Y-34126160D01*
X78223600Y-34086160D02*
X74057600Y-34086160D01*
X85149600Y-34086160D02*
X80983600Y-34086160D01*
X78223600Y-34046160D02*
X74036600Y-34046160D01*
X85170600Y-34046160D02*
X80983600Y-34046160D01*
X78223600Y-34006160D02*
X74015600Y-34006160D01*
X85191600Y-34006160D02*
X80983600Y-34006160D01*
X78223600Y-33966160D02*
X73994600Y-33966160D01*
X85212600Y-33966160D02*
X80983600Y-33966160D01*
X78223600Y-33926160D02*
X73974600Y-33926160D01*
X85232600Y-33926160D02*
X80983600Y-33926160D01*
X78223600Y-33886160D02*
X73954600Y-33886160D01*
X85252600Y-33886160D02*
X80983600Y-33886160D01*
X78223600Y-33846160D02*
X73935600Y-33846160D01*
X85271600Y-33846160D02*
X80983600Y-33846160D01*
X78223600Y-33806160D02*
X73916600Y-33806160D01*
X85290600Y-33806160D02*
X80983600Y-33806160D01*
X78223600Y-33766160D02*
X73897600Y-33766160D01*
X85309600Y-33766160D02*
X80983600Y-33766160D01*
X78223600Y-33726160D02*
X73878600Y-33726160D01*
X85328600Y-33726160D02*
X80983600Y-33726160D01*
X78223600Y-33686160D02*
X73860600Y-33686160D01*
X85346600Y-33686160D02*
X80983600Y-33686160D01*
X78223600Y-33646160D02*
X73842600Y-33646160D01*
X85364600Y-33646160D02*
X80983600Y-33646160D01*
X78223600Y-33606160D02*
X73825600Y-33606160D01*
X85381600Y-33606160D02*
X80983600Y-33606160D01*
X78223600Y-33566160D02*
X73808600Y-33566160D01*
X85398600Y-33566160D02*
X80983600Y-33566160D01*
X78223600Y-33526160D02*
X73791600Y-33526160D01*
X85415600Y-33526160D02*
X80983600Y-33526160D01*
X78223600Y-33486160D02*
X73774600Y-33486160D01*
X85432600Y-33486160D02*
X80983600Y-33486160D01*
X78223600Y-33446160D02*
X73758600Y-33446160D01*
X85448600Y-33446160D02*
X80983600Y-33446160D01*
X78223600Y-33406160D02*
X73742600Y-33406160D01*
X85464600Y-33406160D02*
X80983600Y-33406160D01*
X78223600Y-33366160D02*
X73727600Y-33366160D01*
X85479600Y-33366160D02*
X80983600Y-33366160D01*
X78223600Y-33326160D02*
X73711600Y-33326160D01*
X85495600Y-33326160D02*
X80983600Y-33326160D01*
X78223600Y-33286160D02*
X73696600Y-33286160D01*
X85510600Y-33286160D02*
X80983600Y-33286160D01*
X78223600Y-33246160D02*
X73682600Y-33246160D01*
X85524600Y-33246160D02*
X80983600Y-33246160D01*
X78223600Y-33206160D02*
X73667600Y-33206160D01*
X85539600Y-33206160D02*
X80983600Y-33206160D01*
X78223600Y-33166160D02*
X73653600Y-33166160D01*
X85553600Y-33166160D02*
X80983600Y-33166160D01*
X78223600Y-33126160D02*
X73640600Y-33126160D01*
X85566600Y-33126160D02*
X80983600Y-33126160D01*
X78223600Y-33086160D02*
X73626600Y-33086160D01*
X85580600Y-33086160D02*
X80983600Y-33086160D01*
X78223600Y-33046160D02*
X73613600Y-33046160D01*
X85593600Y-33046160D02*
X80983600Y-33046160D01*
X78223600Y-33006160D02*
X73600600Y-33006160D01*
X85606600Y-33006160D02*
X80983600Y-33006160D01*
X78223600Y-32966160D02*
X73588600Y-32966160D01*
X85618600Y-32966160D02*
X80983600Y-32966160D01*
X78223600Y-32926160D02*
X73575600Y-32926160D01*
X85631600Y-32926160D02*
X80983600Y-32926160D01*
X78223600Y-32886160D02*
X73563600Y-32886160D01*
X85643600Y-32886160D02*
X80983600Y-32886160D01*
X78223600Y-32846160D02*
X73552600Y-32846160D01*
X85654600Y-32846160D02*
X80983600Y-32846160D01*
X78223600Y-32806160D02*
X73540600Y-32806160D01*
X85666600Y-32806160D02*
X80983600Y-32806160D01*
X78223600Y-32766160D02*
X73529600Y-32766160D01*
X85677600Y-32766160D02*
X80983600Y-32766160D01*
X78223600Y-32726160D02*
X73518600Y-32726160D01*
X85688600Y-32726160D02*
X80983600Y-32726160D01*
X78223600Y-32686160D02*
X73508600Y-32686160D01*
X85698600Y-32686160D02*
X80983600Y-32686160D01*
X78223600Y-32646160D02*
X73497600Y-32646160D01*
X85709600Y-32646160D02*
X80983600Y-32646160D01*
X78223600Y-32606160D02*
X73487600Y-32606160D01*
X85719600Y-32606160D02*
X80983600Y-32606160D01*
X78223600Y-32566160D02*
X73478600Y-32566160D01*
X85728600Y-32566160D02*
X80983600Y-32566160D01*
X78223600Y-32526160D02*
X73468600Y-32526160D01*
X85738600Y-32526160D02*
X80983600Y-32526160D01*
X78223600Y-32486160D02*
X73459600Y-32486160D01*
X85747600Y-32486160D02*
X80983600Y-32486160D01*
X78223600Y-32446160D02*
X73450600Y-32446160D01*
X85756600Y-32446160D02*
X80983600Y-32446160D01*
X78223600Y-32406160D02*
X73441600Y-32406160D01*
X85765600Y-32406160D02*
X80983600Y-32406160D01*
X78223600Y-32366160D02*
X73433600Y-32366160D01*
X85773600Y-32366160D02*
X80983600Y-32366160D01*
X78223600Y-32326160D02*
X73425600Y-32326160D01*
X85781600Y-32326160D02*
X80983600Y-32326160D01*
X78223600Y-32286160D02*
X73417600Y-32286160D01*
X85789600Y-32286160D02*
X80983600Y-32286160D01*
X78223600Y-32246160D02*
X73410600Y-32246160D01*
X85796600Y-32246160D02*
X80983600Y-32246160D01*
X78223600Y-32206160D02*
X73402600Y-32206160D01*
X85804600Y-32206160D02*
X80983600Y-32206160D01*
X85811600Y-32166160D02*
X73395600Y-32166160D01*
X85818600Y-32126160D02*
X73388600Y-32126160D01*
X85824600Y-32086160D02*
X73382600Y-32086160D01*
X85830600Y-32046160D02*
X73376600Y-32046160D01*
X85836600Y-32006160D02*
X73370600Y-32006160D01*
X85842600Y-31966160D02*
X73364600Y-31966160D01*
X85848600Y-31926160D02*
X73358600Y-31926160D01*
X85853600Y-31886160D02*
X73353600Y-31886160D01*
X85858600Y-31846160D02*
X73348600Y-31846160D01*
X85862600Y-31806160D02*
X73344600Y-31806160D01*
X85867600Y-31765160D02*
X73339600Y-31765160D01*
X85871600Y-31725160D02*
X73335600Y-31725160D01*
X85875600Y-31685160D02*
X73331600Y-31685160D01*
X85879600Y-31645160D02*
X73327600Y-31645160D01*
X85882600Y-31605160D02*
X73324600Y-31605160D01*
X85885600Y-31565160D02*
X73321600Y-31565160D01*
X85888600Y-31525160D02*
X73318600Y-31525160D01*
X85891600Y-31485160D02*
X73315600Y-31485160D01*
X85893600Y-31445160D02*
X73313600Y-31445160D01*
X85895600Y-31405160D02*
X73311600Y-31405160D01*
X85897600Y-31365160D02*
X73309600Y-31365160D01*
X85899600Y-31325160D02*
X73307600Y-31325160D01*
X85900600Y-31285160D02*
X73306600Y-31285160D01*
X85901600Y-31245160D02*
X73305600Y-31245160D01*
X85902600Y-31205160D02*
X73304600Y-31205160D01*
X85903600Y-31165160D02*
X73303600Y-31165160D01*
X85903600Y-31125160D02*
X73303600Y-31125160D01*
X85903600Y-31085160D02*
X73303600Y-31085160D01*
X85943600Y-31085160D02*
G75*
G03X85943600Y-31085160I-6340000J0D01*
G01*
X128952640Y-46022400D02*
X134272640Y-46022400D01*
X131612640Y-36857400D02*
X131612640Y-37887400D01*
X131612640Y-48537400D02*
X131612640Y-47507400D01*
X128952640Y-37887400D02*
X128952640Y-47507400D01*
X134272640Y-37887400D02*
X128952640Y-37887400D01*
X134272640Y-47507400D02*
X134272640Y-37887400D01*
X128952640Y-47507400D02*
X134272640Y-47507400D01*
X110389160Y-103471360D02*
X110389160Y-108791360D01*
X110389160Y-108791360D02*
X120009160Y-108791360D01*
X120009160Y-108791360D02*
X120009160Y-103471360D01*
X120009160Y-103471360D02*
X110389160Y-103471360D01*
X109359160Y-106131360D02*
X110389160Y-106131360D01*
X121039160Y-106131360D02*
X120009160Y-106131360D01*
X111874160Y-103471360D02*
X111874160Y-108791360D01*
X108748920Y-35192000D02*
X108748920Y-32372000D01*
X103128920Y-33782000D02*
X104268920Y-33782000D01*
X110728920Y-33782000D02*
X109588920Y-33782000D01*
X104268920Y-35192000D02*
X109588920Y-35192000D01*
X104268920Y-32372000D02*
X104268920Y-35192000D01*
X109588920Y-32372000D02*
X104268920Y-32372000D01*
X109588920Y-35192000D02*
X109588920Y-32372000D01*
X70076560Y-98326000D02*
X70395560Y-98326000D01*
X67597560Y-98326000D02*
X67916560Y-98326000D01*
X70077521Y-94583287D02*
G75*
G02X70076560Y-97949330I-1080961J-1682713D01*
G01*
X67915599Y-94583287D02*
G75*
G03X67916560Y-97949330I1080961J-1682713D01*
G01*
X70077284Y-94022758D02*
G75*
G02X70395309Y-98326000I-1080724J-2243242D01*
G01*
X67915836Y-94022758D02*
G75*
G03X67597811Y-98326000I1080724J-2243242D01*
G01*
X56842360Y-47389400D02*
X59662360Y-47389400D01*
X59662360Y-47389400D02*
X59662360Y-42069400D01*
X59662360Y-42069400D02*
X56842360Y-42069400D01*
X56842360Y-42069400D02*
X56842360Y-47389400D01*
X58252360Y-48529400D02*
X58252360Y-47389400D01*
X58252360Y-40929400D02*
X58252360Y-42069400D01*
X56842360Y-46549400D02*
X59662360Y-46549400D01*
X67527680Y-30244400D02*
X67527680Y-24924400D01*
X67527680Y-24924400D02*
X57907680Y-24924400D01*
X57907680Y-24924400D02*
X57907680Y-30244400D01*
X57907680Y-30244400D02*
X67527680Y-30244400D01*
X68557680Y-27584400D02*
X67527680Y-27584400D01*
X56877680Y-27584400D02*
X57907680Y-27584400D01*
X66042680Y-30244400D02*
X66042680Y-24924400D01*
X66042680Y-36777280D02*
X66042680Y-31457280D01*
X56877680Y-34117280D02*
X57907680Y-34117280D01*
X68557680Y-34117280D02*
X67527680Y-34117280D01*
X57907680Y-36777280D02*
X67527680Y-36777280D01*
X57907680Y-31457280D02*
X57907680Y-36777280D01*
X67527680Y-31457280D02*
X57907680Y-31457280D01*
X67527680Y-36777280D02*
X67527680Y-31457280D01*
X103795876Y-74317438D02*
G75*
G03X103477851Y-78620680I1080724J-2243242D01*
G01*
X105957324Y-74317438D02*
G75*
G02X106275349Y-78620680I-1080724J-2243242D01*
G01*
X103795639Y-74877967D02*
G75*
G03X103796600Y-78244010I1080961J-1682713D01*
G01*
X105957561Y-74877967D02*
G75*
G02X105956600Y-78244010I-1080961J-1682713D01*
G01*
X103477600Y-78620680D02*
X103796600Y-78620680D01*
X105956600Y-78620680D02*
X106275600Y-78620680D01*
X105956600Y-84899560D02*
X106275600Y-84899560D01*
X103477600Y-84899560D02*
X103796600Y-84899560D01*
X105957561Y-81156847D02*
G75*
G02X105956600Y-84522890I-1080961J-1682713D01*
G01*
X103795639Y-81156847D02*
G75*
G03X103796600Y-84522890I1080961J-1682713D01*
G01*
X105957324Y-80596318D02*
G75*
G02X106275349Y-84899560I-1080724J-2243242D01*
G01*
X103795876Y-80596318D02*
G75*
G03X103477851Y-84899560I1080724J-2243242D01*
G01*
X136171320Y-46022400D02*
X141491320Y-46022400D01*
X138831320Y-36857400D02*
X138831320Y-37887400D01*
X138831320Y-48537400D02*
X138831320Y-47507400D01*
X136171320Y-37887400D02*
X136171320Y-47507400D01*
X141491320Y-37887400D02*
X136171320Y-37887400D01*
X141491320Y-47507400D02*
X141491320Y-37887400D01*
X136171320Y-47507400D02*
X141491320Y-47507400D01*
X110389160Y-97014680D02*
X110389160Y-102334680D01*
X110389160Y-102334680D02*
X120009160Y-102334680D01*
X120009160Y-102334680D02*
X120009160Y-97014680D01*
X120009160Y-97014680D02*
X110389160Y-97014680D01*
X109359160Y-99674680D02*
X110389160Y-99674680D01*
X121039160Y-99674680D02*
X120009160Y-99674680D01*
X111874160Y-97014680D02*
X111874160Y-102334680D01*
X50835560Y-36332160D02*
G75*
G03X50835560Y-36332160I-2286000J0D01*
G01*
X50794920Y-76621640D02*
G75*
G03X50794920Y-76621640I-2286000J0D01*
G01*
X141061440Y-98384360D02*
G75*
G03X141061440Y-98384360I-2286000J0D01*
G01*
X130652520Y-108788200D02*
G75*
G03X130652520Y-108788200I-2286000J0D01*
G01*
X141675160Y-58085680D02*
X141675160Y-75985680D01*
X108535160Y-58085680D02*
X108535160Y-75985680D01*
X108535160Y-75985680D02*
X141675160Y-75985680D01*
X108535160Y-58085680D02*
X141675160Y-58085680D01*
X108535160Y-76714040D02*
X141675160Y-76714040D01*
X108535160Y-94614040D02*
X141675160Y-94614040D01*
X108535160Y-76714040D02*
X108535160Y-94614040D01*
X141675160Y-76714040D02*
X141675160Y-94614040D01*
D12*
X83479640Y-108244640D02*
X83479640Y-107101640D01*
X80431640Y-108244640D02*
X80431640Y-107101640D01*
X76621640Y-107101640D02*
X76621640Y-103418640D01*
X76621640Y-103418640D02*
X87289640Y-103418640D01*
X87289640Y-103418640D02*
X87289640Y-107101640D01*
X76621640Y-108244640D02*
X76621640Y-107101640D01*
X76621640Y-107101640D02*
X87289640Y-107101640D01*
X87289640Y-107101640D02*
X87289640Y-108244640D01*
X81955640Y-108244640D02*
X87289640Y-108244640D01*
X81955640Y-108244640D02*
X76621640Y-108244640D01*
X105496360Y-25501600D02*
X110830360Y-25501600D01*
X105496360Y-25501600D02*
X100162360Y-25501600D01*
X100162360Y-26644600D02*
X100162360Y-25501600D01*
X110830360Y-26644600D02*
X100162360Y-26644600D01*
X110830360Y-25501600D02*
X110830360Y-26644600D01*
X100162360Y-30327600D02*
X100162360Y-26644600D01*
X110830360Y-30327600D02*
X100162360Y-30327600D01*
X110830360Y-26644600D02*
X110830360Y-30327600D01*
X107020360Y-25501600D02*
X107020360Y-26644600D01*
X103972360Y-25501600D02*
X103972360Y-26644600D01*
D11*
X114934885Y-34277384D02*
G75*
G02X114207680Y-33753200I1122795J2324184D01*
G01*
X117156487Y-34309600D02*
G75*
G03X118657680Y-31953200I-1098807J2356400D01*
G01*
X117156487Y-29596800D02*
G75*
G02X118657680Y-31953200I-1098807J-2356400D01*
G01*
X114934885Y-29629016D02*
G75*
G03X114207680Y-30153200I1122795J-2324184D01*
G01*
X114207680Y-30153200D02*
X114207680Y-33753200D01*
X119287680Y-30153200D02*
X119287680Y-33753200D01*
X120014885Y-29629016D02*
G75*
G03X119287680Y-30153200I1122795J-2324184D01*
G01*
X122236487Y-29596800D02*
G75*
G02X123737680Y-31953200I-1098807J-2356400D01*
G01*
X122236487Y-34309600D02*
G75*
G03X123737680Y-31953200I-1098807J2356400D01*
G01*
X120014885Y-34277384D02*
G75*
G02X119287680Y-33753200I1122795J2324184D01*
G01*
X73097280Y-87597680D02*
X76417280Y-87597680D01*
X76417280Y-87597680D02*
X76417280Y-78477680D01*
X76417280Y-78477680D02*
X73097280Y-78477680D01*
X73097280Y-78477680D02*
X73097280Y-87597680D01*
X74757280Y-88407680D02*
X74757280Y-87597680D01*
X74757280Y-77667680D02*
X74757280Y-78477680D01*
X81782920Y-77652440D02*
X81782920Y-78462440D01*
X81782920Y-88392440D02*
X81782920Y-87582440D01*
X80122920Y-78462440D02*
X80122920Y-87582440D01*
X83442920Y-78462440D02*
X80122920Y-78462440D01*
X83442920Y-87582440D02*
X83442920Y-78462440D01*
X80122920Y-87582440D02*
X83442920Y-87582440D01*
X89815560Y-87582440D02*
X93135560Y-87582440D01*
X93135560Y-87582440D02*
X93135560Y-78462440D01*
X93135560Y-78462440D02*
X89815560Y-78462440D01*
X89815560Y-78462440D02*
X89815560Y-87582440D01*
X91475560Y-88392440D02*
X91475560Y-87582440D01*
X91475560Y-77652440D02*
X91475560Y-78462440D01*
X96352360Y-88392440D02*
X96352360Y-87582440D01*
X96352360Y-77652440D02*
X96352360Y-78462440D01*
X98012360Y-87582440D02*
X98012360Y-78462440D01*
X94692360Y-87582440D02*
X98012360Y-87582440D01*
X94692360Y-78462440D02*
X94692360Y-87582440D01*
X98012360Y-78462440D02*
X94692360Y-78462440D01*
X53075840Y-51359240D02*
X53075840Y-50549240D01*
X53075840Y-40619240D02*
X53075840Y-41429240D01*
X54735840Y-50549240D02*
X54735840Y-41429240D01*
X51415840Y-50549240D02*
X54735840Y-50549240D01*
X51415840Y-41429240D02*
X51415840Y-50549240D01*
X54735840Y-41429240D02*
X51415840Y-41429240D01*
X67306080Y-87597680D02*
X70626080Y-87597680D01*
X70626080Y-87597680D02*
X70626080Y-78477680D01*
X70626080Y-78477680D02*
X67306080Y-78477680D01*
X67306080Y-78477680D02*
X67306080Y-87597680D01*
X68966080Y-88407680D02*
X68966080Y-87597680D01*
X68966080Y-77667680D02*
X68966080Y-78477680D01*
X59966160Y-54296200D02*
X59966160Y-57616200D01*
X59966160Y-57616200D02*
X69086160Y-57616200D01*
X69086160Y-57616200D02*
X69086160Y-54296200D01*
X69086160Y-54296200D02*
X59966160Y-54296200D01*
X59156160Y-55956200D02*
X59966160Y-55956200D01*
X69896160Y-55956200D02*
X69086160Y-55956200D01*
X112994440Y-44800080D02*
X112994440Y-45610080D01*
X112994440Y-55540080D02*
X112994440Y-54730080D01*
X111334440Y-45610080D02*
X111334440Y-54730080D01*
X114654440Y-45610080D02*
X111334440Y-45610080D01*
X114654440Y-54730080D02*
X114654440Y-45610080D01*
X111334440Y-54730080D02*
X114654440Y-54730080D01*
X104846120Y-42148320D02*
X104846120Y-42958320D01*
X104846120Y-52888320D02*
X104846120Y-52078320D01*
X103186120Y-42958320D02*
X103186120Y-52078320D01*
X106506120Y-42958320D02*
X103186120Y-42958320D01*
X106506120Y-52078320D02*
X106506120Y-42958320D01*
X103186120Y-52078320D02*
X106506120Y-52078320D01*
X54705360Y-57746200D02*
X51385360Y-57746200D01*
X51385360Y-57746200D02*
X51385360Y-66866200D01*
X51385360Y-66866200D02*
X54705360Y-66866200D01*
X54705360Y-66866200D02*
X54705360Y-57746200D01*
X53045360Y-56936200D02*
X53045360Y-57746200D01*
X53045360Y-67676200D02*
X53045360Y-66866200D01*
X84598400Y-87582440D02*
X87918400Y-87582440D01*
X87918400Y-87582440D02*
X87918400Y-78462440D01*
X87918400Y-78462440D02*
X84598400Y-78462440D01*
X84598400Y-78462440D02*
X84598400Y-87582440D01*
X86258400Y-88392440D02*
X86258400Y-87582440D01*
X86258400Y-77652440D02*
X86258400Y-78462440D01*
X104896920Y-58414480D02*
X104896920Y-59224480D01*
X104896920Y-69154480D02*
X104896920Y-68344480D01*
X103236920Y-59224480D02*
X103236920Y-68344480D01*
X106556920Y-59224480D02*
X103236920Y-59224480D01*
X106556920Y-68344480D02*
X106556920Y-59224480D01*
X103236920Y-68344480D02*
X106556920Y-68344480D01*
X86451880Y-70078600D02*
X85641880Y-70078600D01*
X75711880Y-70078600D02*
X76521880Y-70078600D01*
X85641880Y-68418600D02*
X76521880Y-68418600D01*
X85641880Y-71738600D02*
X85641880Y-68418600D01*
X76521880Y-71738600D02*
X85641880Y-71738600D01*
X76521880Y-68418600D02*
X76521880Y-71738600D01*
X87057120Y-54150960D02*
X90377120Y-54150960D01*
X90377120Y-54150960D02*
X90377120Y-45030960D01*
X90377120Y-45030960D02*
X87057120Y-45030960D01*
X87057120Y-45030960D02*
X87057120Y-54150960D01*
X88717120Y-54960960D02*
X88717120Y-54150960D01*
X88717120Y-44220960D02*
X88717120Y-45030960D01*
X61547000Y-90628520D02*
X60047000Y-90628520D01*
X57547000Y-91878520D02*
X57547000Y-96378520D01*
X60047000Y-97628520D02*
X61547000Y-97628520D01*
X64047000Y-96378520D02*
X64047000Y-91878520D01*
X69130520Y-47199560D02*
X69130520Y-48709560D01*
X65429520Y-47199560D02*
X65429520Y-48709560D01*
X62159520Y-48709560D02*
X72399520Y-48709560D01*
X72399520Y-47199560D02*
X72399520Y-51840560D01*
X62159520Y-47199560D02*
X62159520Y-51840560D01*
X62159520Y-51840560D02*
X72399520Y-51840560D01*
X62159520Y-47199560D02*
X72399520Y-47199560D01*
X98860120Y-61209880D02*
X97210120Y-61209880D01*
X98860120Y-71489880D02*
X98860120Y-61209880D01*
X93560120Y-71489880D02*
X98860120Y-71489880D01*
X93560120Y-61209880D02*
X93560120Y-71489880D01*
X95210120Y-61209880D02*
X93560120Y-61209880D01*
X97210120Y-61209880D02*
G75*
G02X95210120Y-61209880I-1000000J0D01*
G01*
X97205040Y-44400160D02*
G75*
G02X95205040Y-44400160I-1000000J0D01*
G01*
X95205040Y-44400160D02*
X93555040Y-44400160D01*
X93555040Y-44400160D02*
X93555040Y-54680160D01*
X93555040Y-54680160D02*
X98855040Y-54680160D01*
X98855040Y-54680160D02*
X98855040Y-44400160D01*
X98855040Y-44400160D02*
X97205040Y-44400160D01*
X112732904Y-39588555D02*
G75*
G02X112208720Y-40315760I-2324184J1122795D01*
G01*
X112765120Y-37366953D02*
G75*
G03X110408720Y-35865760I-2356400J-1098807D01*
G01*
X108052320Y-37366953D02*
G75*
G02X110408720Y-35865760I2356400J-1098807D01*
G01*
X108084536Y-39588555D02*
G75*
G03X108608720Y-40315760I2324184J1122795D01*
G01*
X108608720Y-40315760D02*
X112208720Y-40315760D01*
X109093000Y-44800080D02*
X109093000Y-45610080D01*
X109093000Y-55540080D02*
X109093000Y-54730080D01*
X107433000Y-45610080D02*
X107433000Y-54730080D01*
X110753000Y-45610080D02*
X107433000Y-45610080D01*
X110753000Y-54730080D02*
X110753000Y-45610080D01*
X107433000Y-54730080D02*
X110753000Y-54730080D01*
X116735160Y-38776800D02*
X116735160Y-42096800D01*
X116735160Y-42096800D02*
X125855160Y-42096800D01*
X125855160Y-42096800D02*
X125855160Y-38776800D01*
X125855160Y-38776800D02*
X116735160Y-38776800D01*
X115925160Y-40436800D02*
X116735160Y-40436800D01*
X126665160Y-40436800D02*
X125855160Y-40436800D01*
D12*
X93691982Y-99622906D02*
X93739601Y-99670525D01*
X93787220Y-99813382D01*
X93787220Y-99908620D01*
X93739601Y-100051478D01*
X93644363Y-100146716D01*
X93549125Y-100194335D01*
X93358649Y-100241954D01*
X93215792Y-100241954D01*
X93025316Y-100194335D01*
X92930078Y-100146716D01*
X92834840Y-100051478D01*
X92787220Y-99908620D01*
X92787220Y-99813382D01*
X92834840Y-99670525D01*
X92882459Y-99622906D01*
X93787220Y-98670525D02*
X93787220Y-99241954D01*
X93787220Y-98956240D02*
X92787220Y-98956240D01*
X92930078Y-99051478D01*
X93025316Y-99146716D01*
X93072935Y-99241954D01*
X119467333Y-54154342D02*
X119419714Y-54201961D01*
X119276857Y-54249580D01*
X119181619Y-54249580D01*
X119038761Y-54201961D01*
X118943523Y-54106723D01*
X118895904Y-54011485D01*
X118848285Y-53821009D01*
X118848285Y-53678152D01*
X118895904Y-53487676D01*
X118943523Y-53392438D01*
X119038761Y-53297200D01*
X119181619Y-53249580D01*
X119276857Y-53249580D01*
X119419714Y-53297200D01*
X119467333Y-53344819D01*
X119848285Y-53344819D02*
X119895904Y-53297200D01*
X119991142Y-53249580D01*
X120229238Y-53249580D01*
X120324476Y-53297200D01*
X120372095Y-53344819D01*
X120419714Y-53440057D01*
X120419714Y-53535295D01*
X120372095Y-53678152D01*
X119800666Y-54249580D01*
X120419714Y-54249580D01*
X76120262Y-46465786D02*
X76167881Y-46513405D01*
X76215500Y-46656262D01*
X76215500Y-46751500D01*
X76167881Y-46894358D01*
X76072643Y-46989596D01*
X75977405Y-47037215D01*
X75786929Y-47084834D01*
X75644072Y-47084834D01*
X75453596Y-47037215D01*
X75358358Y-46989596D01*
X75263120Y-46894358D01*
X75215500Y-46751500D01*
X75215500Y-46656262D01*
X75263120Y-46513405D01*
X75310739Y-46465786D01*
X75215500Y-46132453D02*
X75215500Y-45513405D01*
X75596453Y-45846739D01*
X75596453Y-45703881D01*
X75644072Y-45608643D01*
X75691691Y-45561024D01*
X75786929Y-45513405D01*
X76025024Y-45513405D01*
X76120262Y-45561024D01*
X76167881Y-45608643D01*
X76215500Y-45703881D01*
X76215500Y-45989596D01*
X76167881Y-46084834D01*
X76120262Y-46132453D01*
X93493293Y-35500582D02*
X93445674Y-35548201D01*
X93302817Y-35595820D01*
X93207579Y-35595820D01*
X93064721Y-35548201D01*
X92969483Y-35452963D01*
X92921864Y-35357725D01*
X92874245Y-35167249D01*
X92874245Y-35024392D01*
X92921864Y-34833916D01*
X92969483Y-34738678D01*
X93064721Y-34643440D01*
X93207579Y-34595820D01*
X93302817Y-34595820D01*
X93445674Y-34643440D01*
X93493293Y-34691059D01*
X94350436Y-34929154D02*
X94350436Y-35595820D01*
X94112340Y-34548201D02*
X93874245Y-35262487D01*
X94493293Y-35262487D01*
X81032053Y-56074582D02*
X80984434Y-56122201D01*
X80841577Y-56169820D01*
X80746339Y-56169820D01*
X80603481Y-56122201D01*
X80508243Y-56026963D01*
X80460624Y-55931725D01*
X80413005Y-55741249D01*
X80413005Y-55598392D01*
X80460624Y-55407916D01*
X80508243Y-55312678D01*
X80603481Y-55217440D01*
X80746339Y-55169820D01*
X80841577Y-55169820D01*
X80984434Y-55217440D01*
X81032053Y-55265059D01*
X81936815Y-55169820D02*
X81460624Y-55169820D01*
X81413005Y-55646011D01*
X81460624Y-55598392D01*
X81555862Y-55550773D01*
X81793958Y-55550773D01*
X81889196Y-55598392D01*
X81936815Y-55646011D01*
X81984434Y-55741249D01*
X81984434Y-55979344D01*
X81936815Y-56074582D01*
X81889196Y-56122201D01*
X81793958Y-56169820D01*
X81555862Y-56169820D01*
X81460624Y-56122201D01*
X81413005Y-56074582D01*
X66960453Y-63237382D02*
X66912834Y-63285001D01*
X66769977Y-63332620D01*
X66674739Y-63332620D01*
X66531881Y-63285001D01*
X66436643Y-63189763D01*
X66389024Y-63094525D01*
X66341405Y-62904049D01*
X66341405Y-62761192D01*
X66389024Y-62570716D01*
X66436643Y-62475478D01*
X66531881Y-62380240D01*
X66674739Y-62332620D01*
X66769977Y-62332620D01*
X66912834Y-62380240D01*
X66960453Y-62427859D01*
X67817596Y-62332620D02*
X67627120Y-62332620D01*
X67531881Y-62380240D01*
X67484262Y-62427859D01*
X67389024Y-62570716D01*
X67341405Y-62761192D01*
X67341405Y-63142144D01*
X67389024Y-63237382D01*
X67436643Y-63285001D01*
X67531881Y-63332620D01*
X67722358Y-63332620D01*
X67817596Y-63285001D01*
X67865215Y-63237382D01*
X67912834Y-63142144D01*
X67912834Y-62904049D01*
X67865215Y-62808811D01*
X67817596Y-62761192D01*
X67722358Y-62713573D01*
X67531881Y-62713573D01*
X67436643Y-62761192D01*
X67389024Y-62808811D01*
X67341405Y-62904049D01*
X76318382Y-29732266D02*
X76366001Y-29779885D01*
X76413620Y-29922742D01*
X76413620Y-30017980D01*
X76366001Y-30160838D01*
X76270763Y-30256076D01*
X76175525Y-30303695D01*
X75985049Y-30351314D01*
X75842192Y-30351314D01*
X75651716Y-30303695D01*
X75556478Y-30256076D01*
X75461240Y-30160838D01*
X75413620Y-30017980D01*
X75413620Y-29922742D01*
X75461240Y-29779885D01*
X75508859Y-29732266D01*
X75413620Y-29398933D02*
X75413620Y-28732266D01*
X76413620Y-29160838D01*
X132090420Y-43410095D02*
X131090420Y-43410095D01*
X131090420Y-43172000D01*
X131138040Y-43029142D01*
X131233278Y-42933904D01*
X131328516Y-42886285D01*
X131518992Y-42838666D01*
X131661849Y-42838666D01*
X131852325Y-42886285D01*
X131947563Y-42933904D01*
X132042801Y-43029142D01*
X132090420Y-43172000D01*
X132090420Y-43410095D01*
X132090420Y-41886285D02*
X132090420Y-42457714D01*
X132090420Y-42172000D02*
X131090420Y-42172000D01*
X131233278Y-42267238D01*
X131328516Y-42362476D01*
X131376135Y-42457714D01*
X114501704Y-106614220D02*
X114501704Y-105614220D01*
X114739800Y-105614220D01*
X114882657Y-105661840D01*
X114977895Y-105757078D01*
X115025514Y-105852316D01*
X115073133Y-106042792D01*
X115073133Y-106185649D01*
X115025514Y-106376125D01*
X114977895Y-106471363D01*
X114882657Y-106566601D01*
X114739800Y-106614220D01*
X114501704Y-106614220D01*
X115454085Y-105709459D02*
X115501704Y-105661840D01*
X115596942Y-105614220D01*
X115835038Y-105614220D01*
X115930276Y-105661840D01*
X115977895Y-105709459D01*
X116025514Y-105804697D01*
X116025514Y-105899935D01*
X115977895Y-106042792D01*
X115406466Y-106614220D01*
X116025514Y-106614220D01*
X106155264Y-34234380D02*
X106155264Y-33234380D01*
X106393360Y-33234380D01*
X106536217Y-33282000D01*
X106631455Y-33377238D01*
X106679074Y-33472476D01*
X106726693Y-33662952D01*
X106726693Y-33805809D01*
X106679074Y-33996285D01*
X106631455Y-34091523D01*
X106536217Y-34186761D01*
X106393360Y-34234380D01*
X106155264Y-34234380D01*
X107060026Y-33234380D02*
X107679074Y-33234380D01*
X107345740Y-33615333D01*
X107488598Y-33615333D01*
X107583836Y-33662952D01*
X107631455Y-33710571D01*
X107679074Y-33805809D01*
X107679074Y-34043904D01*
X107631455Y-34139142D01*
X107583836Y-34186761D01*
X107488598Y-34234380D01*
X107202883Y-34234380D01*
X107107645Y-34186761D01*
X107060026Y-34139142D01*
X67386460Y-93204255D02*
X66386460Y-93204255D01*
X66386460Y-92966160D01*
X66434080Y-92823302D01*
X66529318Y-92728064D01*
X66624556Y-92680445D01*
X66815032Y-92632826D01*
X66957889Y-92632826D01*
X67148365Y-92680445D01*
X67243603Y-92728064D01*
X67338841Y-92823302D01*
X67386460Y-92966160D01*
X67386460Y-93204255D01*
X66719794Y-91775683D02*
X67386460Y-91775683D01*
X66338841Y-92013779D02*
X67053127Y-92251874D01*
X67053127Y-91632826D01*
X58704740Y-45421775D02*
X57704740Y-45421775D01*
X57704740Y-45183680D01*
X57752360Y-45040822D01*
X57847598Y-44945584D01*
X57942836Y-44897965D01*
X58133312Y-44850346D01*
X58276169Y-44850346D01*
X58466645Y-44897965D01*
X58561883Y-44945584D01*
X58657121Y-45040822D01*
X58704740Y-45183680D01*
X58704740Y-45421775D01*
X57704740Y-43945584D02*
X57704740Y-44421775D01*
X58180931Y-44469394D01*
X58133312Y-44421775D01*
X58085693Y-44326537D01*
X58085693Y-44088441D01*
X58133312Y-43993203D01*
X58180931Y-43945584D01*
X58276169Y-43897965D01*
X58514264Y-43897965D01*
X58609502Y-43945584D01*
X58657121Y-43993203D01*
X58704740Y-44088441D01*
X58704740Y-44326537D01*
X58657121Y-44421775D01*
X58609502Y-44469394D01*
X62004984Y-28102820D02*
X62004984Y-27102820D01*
X62243080Y-27102820D01*
X62385937Y-27150440D01*
X62481175Y-27245678D01*
X62528794Y-27340916D01*
X62576413Y-27531392D01*
X62576413Y-27674249D01*
X62528794Y-27864725D01*
X62481175Y-27959963D01*
X62385937Y-28055201D01*
X62243080Y-28102820D01*
X62004984Y-28102820D01*
X63433556Y-27102820D02*
X63243080Y-27102820D01*
X63147841Y-27150440D01*
X63100222Y-27198059D01*
X63004984Y-27340916D01*
X62957365Y-27531392D01*
X62957365Y-27912344D01*
X63004984Y-28007582D01*
X63052603Y-28055201D01*
X63147841Y-28102820D01*
X63338318Y-28102820D01*
X63433556Y-28055201D01*
X63481175Y-28007582D01*
X63528794Y-27912344D01*
X63528794Y-27674249D01*
X63481175Y-27579011D01*
X63433556Y-27531392D01*
X63338318Y-27483773D01*
X63147841Y-27483773D01*
X63052603Y-27531392D01*
X63004984Y-27579011D01*
X62957365Y-27674249D01*
X62045624Y-34584900D02*
X62045624Y-33584900D01*
X62283720Y-33584900D01*
X62426577Y-33632520D01*
X62521815Y-33727758D01*
X62569434Y-33822996D01*
X62617053Y-34013472D01*
X62617053Y-34156329D01*
X62569434Y-34346805D01*
X62521815Y-34442043D01*
X62426577Y-34537281D01*
X62283720Y-34584900D01*
X62045624Y-34584900D01*
X62950386Y-33584900D02*
X63617053Y-33584900D01*
X63188481Y-34584900D01*
X101925380Y-77481655D02*
X100925380Y-77481655D01*
X100925380Y-77243560D01*
X100973000Y-77100702D01*
X101068238Y-77005464D01*
X101163476Y-76957845D01*
X101353952Y-76910226D01*
X101496809Y-76910226D01*
X101687285Y-76957845D01*
X101782523Y-77005464D01*
X101877761Y-77100702D01*
X101925380Y-77243560D01*
X101925380Y-77481655D01*
X101353952Y-76338798D02*
X101306333Y-76434036D01*
X101258714Y-76481655D01*
X101163476Y-76529274D01*
X101115857Y-76529274D01*
X101020619Y-76481655D01*
X100973000Y-76434036D01*
X100925380Y-76338798D01*
X100925380Y-76148321D01*
X100973000Y-76053083D01*
X101020619Y-76005464D01*
X101115857Y-75957845D01*
X101163476Y-75957845D01*
X101258714Y-76005464D01*
X101306333Y-76053083D01*
X101353952Y-76148321D01*
X101353952Y-76338798D01*
X101401571Y-76434036D01*
X101449190Y-76481655D01*
X101544428Y-76529274D01*
X101734904Y-76529274D01*
X101830142Y-76481655D01*
X101877761Y-76434036D01*
X101925380Y-76338798D01*
X101925380Y-76148321D01*
X101877761Y-76053083D01*
X101830142Y-76005464D01*
X101734904Y-75957845D01*
X101544428Y-75957845D01*
X101449190Y-76005464D01*
X101401571Y-76053083D01*
X101353952Y-76148321D01*
X101971100Y-83120455D02*
X100971100Y-83120455D01*
X100971100Y-82882360D01*
X101018720Y-82739502D01*
X101113958Y-82644264D01*
X101209196Y-82596645D01*
X101399672Y-82549026D01*
X101542529Y-82549026D01*
X101733005Y-82596645D01*
X101828243Y-82644264D01*
X101923481Y-82739502D01*
X101971100Y-82882360D01*
X101971100Y-83120455D01*
X101971100Y-82072836D02*
X101971100Y-81882360D01*
X101923481Y-81787121D01*
X101875862Y-81739502D01*
X101733005Y-81644264D01*
X101542529Y-81596645D01*
X101161577Y-81596645D01*
X101066339Y-81644264D01*
X101018720Y-81691883D01*
X100971100Y-81787121D01*
X100971100Y-81977598D01*
X101018720Y-82072836D01*
X101066339Y-82120455D01*
X101161577Y-82168074D01*
X101399672Y-82168074D01*
X101494910Y-82120455D01*
X101542529Y-82072836D01*
X101590148Y-81977598D01*
X101590148Y-81787121D01*
X101542529Y-81691883D01*
X101494910Y-81644264D01*
X101399672Y-81596645D01*
X139243060Y-43845645D02*
X138243060Y-43845645D01*
X138243060Y-43607550D01*
X138290680Y-43464693D01*
X138385918Y-43369455D01*
X138481156Y-43321836D01*
X138671632Y-43274217D01*
X138814489Y-43274217D01*
X139004965Y-43321836D01*
X139100203Y-43369455D01*
X139195441Y-43464693D01*
X139243060Y-43607550D01*
X139243060Y-43845645D01*
X139243060Y-42321836D02*
X139243060Y-42893264D01*
X139243060Y-42607550D02*
X138243060Y-42607550D01*
X138385918Y-42702788D01*
X138481156Y-42798026D01*
X138528775Y-42893264D01*
X138243060Y-41702788D02*
X138243060Y-41607550D01*
X138290680Y-41512312D01*
X138338299Y-41464693D01*
X138433537Y-41417074D01*
X138624013Y-41369455D01*
X138862108Y-41369455D01*
X139052584Y-41417074D01*
X139147822Y-41464693D01*
X139195441Y-41512312D01*
X139243060Y-41607550D01*
X139243060Y-41702788D01*
X139195441Y-41798026D01*
X139147822Y-41845645D01*
X139052584Y-41893264D01*
X138862108Y-41940883D01*
X138624013Y-41940883D01*
X138433537Y-41893264D01*
X138338299Y-41845645D01*
X138290680Y-41798026D01*
X138243060Y-41702788D01*
X114005194Y-100111820D02*
X114005194Y-99111820D01*
X114243289Y-99111820D01*
X114386146Y-99159440D01*
X114481384Y-99254678D01*
X114529003Y-99349916D01*
X114576622Y-99540392D01*
X114576622Y-99683249D01*
X114529003Y-99873725D01*
X114481384Y-99968963D01*
X114386146Y-100064201D01*
X114243289Y-100111820D01*
X114005194Y-100111820D01*
X115529003Y-100111820D02*
X114957575Y-100111820D01*
X115243289Y-100111820D02*
X115243289Y-99111820D01*
X115148051Y-99254678D01*
X115052813Y-99349916D01*
X114957575Y-99397535D01*
X116481384Y-100111820D02*
X115909956Y-100111820D01*
X116195670Y-100111820D02*
X116195670Y-99111820D01*
X116100432Y-99254678D01*
X116005194Y-99349916D01*
X115909956Y-99397535D01*
X47639718Y-32860881D02*
X47782575Y-32908500D01*
X48020670Y-32908500D01*
X48115908Y-32860881D01*
X48163527Y-32813262D01*
X48211146Y-32718024D01*
X48211146Y-32622786D01*
X48163527Y-32527548D01*
X48115908Y-32479929D01*
X48020670Y-32432310D01*
X47830194Y-32384691D01*
X47734956Y-32337072D01*
X47687337Y-32289453D01*
X47639718Y-32194215D01*
X47639718Y-32098977D01*
X47687337Y-32003739D01*
X47734956Y-31956120D01*
X47830194Y-31908500D01*
X48068289Y-31908500D01*
X48211146Y-31956120D01*
X48639718Y-32527548D02*
X49401622Y-32527548D01*
X49020670Y-32908500D02*
X49020670Y-32146596D01*
X46151278Y-73251961D02*
X46294135Y-73299580D01*
X46532230Y-73299580D01*
X46627468Y-73251961D01*
X46675087Y-73204342D01*
X46722706Y-73109104D01*
X46722706Y-73013866D01*
X46675087Y-72918628D01*
X46627468Y-72871009D01*
X46532230Y-72823390D01*
X46341754Y-72775771D01*
X46246516Y-72728152D01*
X46198897Y-72680533D01*
X46151278Y-72585295D01*
X46151278Y-72490057D01*
X46198897Y-72394819D01*
X46246516Y-72347200D01*
X46341754Y-72299580D01*
X46579849Y-72299580D01*
X46722706Y-72347200D01*
X47151278Y-72918628D02*
X47913182Y-72918628D01*
X135084274Y-95408500D02*
X135274750Y-95408500D01*
X135369988Y-95456120D01*
X135465226Y-95551358D01*
X135512845Y-95741834D01*
X135512845Y-96075167D01*
X135465226Y-96265643D01*
X135369988Y-96360881D01*
X135274750Y-96408500D01*
X135084274Y-96408500D01*
X134989036Y-96360881D01*
X134893798Y-96265643D01*
X134846179Y-96075167D01*
X134846179Y-95741834D01*
X134893798Y-95551358D01*
X134989036Y-95456120D01*
X135084274Y-95408500D01*
X135941417Y-96027548D02*
X136703321Y-96027548D01*
X136322369Y-96408500D02*
X136322369Y-95646596D01*
X127560794Y-111979460D02*
X127751270Y-111979460D01*
X127846508Y-112027080D01*
X127941746Y-112122318D01*
X127989365Y-112312794D01*
X127989365Y-112646127D01*
X127941746Y-112836603D01*
X127846508Y-112931841D01*
X127751270Y-112979460D01*
X127560794Y-112979460D01*
X127465556Y-112931841D01*
X127370318Y-112836603D01*
X127322699Y-112646127D01*
X127322699Y-112312794D01*
X127370318Y-112122318D01*
X127465556Y-112027080D01*
X127560794Y-111979460D01*
X128417937Y-112598508D02*
X129179841Y-112598508D01*
X125121373Y-67660780D02*
X124645182Y-67660780D01*
X124645182Y-66660780D01*
X125978516Y-67660780D02*
X125407087Y-67660780D01*
X125692801Y-67660780D02*
X125692801Y-66660780D01*
X125597563Y-66803638D01*
X125502325Y-66898876D01*
X125407087Y-66946495D01*
X124826733Y-85806540D02*
X124350542Y-85806540D01*
X124350542Y-84806540D01*
X125112447Y-84901779D02*
X125160066Y-84854160D01*
X125255304Y-84806540D01*
X125493400Y-84806540D01*
X125588638Y-84854160D01*
X125636257Y-84901779D01*
X125683876Y-84997017D01*
X125683876Y-85092255D01*
X125636257Y-85235112D01*
X125064828Y-85806540D01*
X125683876Y-85806540D01*
X81382881Y-100156259D02*
X81287643Y-100108640D01*
X81192405Y-100013401D01*
X81049548Y-99870544D01*
X80954310Y-99822925D01*
X80859072Y-99822925D01*
X80906691Y-100061020D02*
X80811453Y-100013401D01*
X80716215Y-99918163D01*
X80668596Y-99727687D01*
X80668596Y-99394354D01*
X80716215Y-99203878D01*
X80811453Y-99108640D01*
X80906691Y-99061020D01*
X81097167Y-99061020D01*
X81192405Y-99108640D01*
X81287643Y-99203878D01*
X81335262Y-99394354D01*
X81335262Y-99727687D01*
X81287643Y-99918163D01*
X81192405Y-100013401D01*
X81097167Y-100061020D01*
X80906691Y-100061020D01*
X82287643Y-100061020D02*
X81716215Y-100061020D01*
X82001929Y-100061020D02*
X82001929Y-99061020D01*
X81906691Y-99203878D01*
X81811453Y-99299116D01*
X81716215Y-99346735D01*
X105401121Y-24017219D02*
X105305883Y-23969600D01*
X105210645Y-23874361D01*
X105067788Y-23731504D01*
X104972550Y-23683885D01*
X104877312Y-23683885D01*
X104924931Y-23921980D02*
X104829693Y-23874361D01*
X104734455Y-23779123D01*
X104686836Y-23588647D01*
X104686836Y-23255314D01*
X104734455Y-23064838D01*
X104829693Y-22969600D01*
X104924931Y-22921980D01*
X105115407Y-22921980D01*
X105210645Y-22969600D01*
X105305883Y-23064838D01*
X105353502Y-23255314D01*
X105353502Y-23588647D01*
X105305883Y-23779123D01*
X105210645Y-23874361D01*
X105115407Y-23921980D01*
X104924931Y-23921980D01*
X105734455Y-23017219D02*
X105782074Y-22969600D01*
X105877312Y-22921980D01*
X106115407Y-22921980D01*
X106210645Y-22969600D01*
X106258264Y-23017219D01*
X106305883Y-23112457D01*
X106305883Y-23207695D01*
X106258264Y-23350552D01*
X105686836Y-23921980D01*
X106305883Y-23921980D01*
X116605299Y-27313878D02*
X116557680Y-27409116D01*
X116462441Y-27504354D01*
X116319584Y-27647211D01*
X116271965Y-27742449D01*
X116271965Y-27837687D01*
X116510060Y-27790068D02*
X116462441Y-27885306D01*
X116367203Y-27980544D01*
X116176727Y-28028163D01*
X115843394Y-28028163D01*
X115652918Y-27980544D01*
X115557680Y-27885306D01*
X115510060Y-27790068D01*
X115510060Y-27599592D01*
X115557680Y-27504354D01*
X115652918Y-27409116D01*
X115843394Y-27361497D01*
X116176727Y-27361497D01*
X116367203Y-27409116D01*
X116462441Y-27504354D01*
X116510060Y-27599592D01*
X116510060Y-27790068D01*
X115843394Y-26504354D02*
X116510060Y-26504354D01*
X115462441Y-26742449D02*
X116176727Y-26980544D01*
X116176727Y-26361497D01*
X121685299Y-27308798D02*
X121637680Y-27404036D01*
X121542441Y-27499274D01*
X121399584Y-27642131D01*
X121351965Y-27737369D01*
X121351965Y-27832607D01*
X121590060Y-27784988D02*
X121542441Y-27880226D01*
X121447203Y-27975464D01*
X121256727Y-28023083D01*
X120923394Y-28023083D01*
X120732918Y-27975464D01*
X120637680Y-27880226D01*
X120590060Y-27784988D01*
X120590060Y-27594512D01*
X120637680Y-27499274D01*
X120732918Y-27404036D01*
X120923394Y-27356417D01*
X121256727Y-27356417D01*
X121447203Y-27404036D01*
X121542441Y-27499274D01*
X121590060Y-27594512D01*
X121590060Y-27784988D01*
X120590060Y-26451655D02*
X120590060Y-26927845D01*
X121066251Y-26975464D01*
X121018632Y-26927845D01*
X120971013Y-26832607D01*
X120971013Y-26594512D01*
X121018632Y-26499274D01*
X121066251Y-26451655D01*
X121161489Y-26404036D01*
X121399584Y-26404036D01*
X121494822Y-26451655D01*
X121542441Y-26499274D01*
X121590060Y-26594512D01*
X121590060Y-26832607D01*
X121542441Y-26927845D01*
X121494822Y-26975464D01*
X75275700Y-82726826D02*
X74799510Y-83060160D01*
X75275700Y-83298255D02*
X74275700Y-83298255D01*
X74275700Y-82917302D01*
X74323320Y-82822064D01*
X74370939Y-82774445D01*
X74466177Y-82726826D01*
X74609034Y-82726826D01*
X74704272Y-82774445D01*
X74751891Y-82822064D01*
X74799510Y-82917302D01*
X74799510Y-83298255D01*
X75275700Y-81774445D02*
X75275700Y-82345874D01*
X75275700Y-82060160D02*
X74275700Y-82060160D01*
X74418558Y-82155398D01*
X74513796Y-82250636D01*
X74561415Y-82345874D01*
X82281020Y-82980826D02*
X81804830Y-83314160D01*
X82281020Y-83552255D02*
X81281020Y-83552255D01*
X81281020Y-83171302D01*
X81328640Y-83076064D01*
X81376259Y-83028445D01*
X81471497Y-82980826D01*
X81614354Y-82980826D01*
X81709592Y-83028445D01*
X81757211Y-83076064D01*
X81804830Y-83171302D01*
X81804830Y-83552255D01*
X81376259Y-82599874D02*
X81328640Y-82552255D01*
X81281020Y-82457017D01*
X81281020Y-82218921D01*
X81328640Y-82123683D01*
X81376259Y-82076064D01*
X81471497Y-82028445D01*
X81566735Y-82028445D01*
X81709592Y-82076064D01*
X82281020Y-82647493D01*
X82281020Y-82028445D01*
X92019380Y-82980826D02*
X91543190Y-83314160D01*
X92019380Y-83552255D02*
X91019380Y-83552255D01*
X91019380Y-83171302D01*
X91067000Y-83076064D01*
X91114619Y-83028445D01*
X91209857Y-82980826D01*
X91352714Y-82980826D01*
X91447952Y-83028445D01*
X91495571Y-83076064D01*
X91543190Y-83171302D01*
X91543190Y-83552255D01*
X91019380Y-82647493D02*
X91019380Y-82028445D01*
X91400333Y-82361779D01*
X91400333Y-82218921D01*
X91447952Y-82123683D01*
X91495571Y-82076064D01*
X91590809Y-82028445D01*
X91828904Y-82028445D01*
X91924142Y-82076064D01*
X91971761Y-82123683D01*
X92019380Y-82218921D01*
X92019380Y-82504636D01*
X91971761Y-82599874D01*
X91924142Y-82647493D01*
X96875860Y-83133226D02*
X96399670Y-83466560D01*
X96875860Y-83704655D02*
X95875860Y-83704655D01*
X95875860Y-83323702D01*
X95923480Y-83228464D01*
X95971099Y-83180845D01*
X96066337Y-83133226D01*
X96209194Y-83133226D01*
X96304432Y-83180845D01*
X96352051Y-83228464D01*
X96399670Y-83323702D01*
X96399670Y-83704655D01*
X96209194Y-82276083D02*
X96875860Y-82276083D01*
X95828241Y-82514179D02*
X96542527Y-82752274D01*
X96542527Y-82133226D01*
X53487580Y-46110186D02*
X53011390Y-46443520D01*
X53487580Y-46681615D02*
X52487580Y-46681615D01*
X52487580Y-46300662D01*
X52535200Y-46205424D01*
X52582819Y-46157805D01*
X52678057Y-46110186D01*
X52820914Y-46110186D01*
X52916152Y-46157805D01*
X52963771Y-46205424D01*
X53011390Y-46300662D01*
X53011390Y-46681615D01*
X52487580Y-45205424D02*
X52487580Y-45681615D01*
X52963771Y-45729234D01*
X52916152Y-45681615D01*
X52868533Y-45586377D01*
X52868533Y-45348281D01*
X52916152Y-45253043D01*
X52963771Y-45205424D01*
X53059009Y-45157805D01*
X53297104Y-45157805D01*
X53392342Y-45205424D01*
X53439961Y-45253043D01*
X53487580Y-45348281D01*
X53487580Y-45586377D01*
X53439961Y-45681615D01*
X53392342Y-45729234D01*
X69352420Y-82899546D02*
X68876230Y-83232880D01*
X69352420Y-83470975D02*
X68352420Y-83470975D01*
X68352420Y-83090022D01*
X68400040Y-82994784D01*
X68447659Y-82947165D01*
X68542897Y-82899546D01*
X68685754Y-82899546D01*
X68780992Y-82947165D01*
X68828611Y-82994784D01*
X68876230Y-83090022D01*
X68876230Y-83470975D01*
X68352420Y-82042403D02*
X68352420Y-82232880D01*
X68400040Y-82328118D01*
X68447659Y-82375737D01*
X68590516Y-82470975D01*
X68780992Y-82518594D01*
X69161944Y-82518594D01*
X69257182Y-82470975D01*
X69304801Y-82423356D01*
X69352420Y-82328118D01*
X69352420Y-82137641D01*
X69304801Y-82042403D01*
X69257182Y-81994784D01*
X69161944Y-81947165D01*
X68923849Y-81947165D01*
X68828611Y-81994784D01*
X68780992Y-82042403D01*
X68733373Y-82137641D01*
X68733373Y-82328118D01*
X68780992Y-82423356D01*
X68828611Y-82470975D01*
X68923849Y-82518594D01*
X64339173Y-56393340D02*
X64005840Y-55917150D01*
X63767744Y-56393340D02*
X63767744Y-55393340D01*
X64148697Y-55393340D01*
X64243935Y-55440960D01*
X64291554Y-55488579D01*
X64339173Y-55583817D01*
X64339173Y-55726674D01*
X64291554Y-55821912D01*
X64243935Y-55869531D01*
X64148697Y-55917150D01*
X63767744Y-55917150D01*
X64910601Y-55821912D02*
X64815363Y-55774293D01*
X64767744Y-55726674D01*
X64720125Y-55631436D01*
X64720125Y-55583817D01*
X64767744Y-55488579D01*
X64815363Y-55440960D01*
X64910601Y-55393340D01*
X65101078Y-55393340D01*
X65196316Y-55440960D01*
X65243935Y-55488579D01*
X65291554Y-55583817D01*
X65291554Y-55631436D01*
X65243935Y-55726674D01*
X65196316Y-55774293D01*
X65101078Y-55821912D01*
X64910601Y-55821912D01*
X64815363Y-55869531D01*
X64767744Y-55917150D01*
X64720125Y-56012388D01*
X64720125Y-56202864D01*
X64767744Y-56298102D01*
X64815363Y-56345721D01*
X64910601Y-56393340D01*
X65101078Y-56393340D01*
X65196316Y-56345721D01*
X65243935Y-56298102D01*
X65291554Y-56202864D01*
X65291554Y-56012388D01*
X65243935Y-55917150D01*
X65196316Y-55869531D01*
X65101078Y-55821912D01*
X113421420Y-50447177D02*
X112945230Y-50780510D01*
X113421420Y-51018605D02*
X112421420Y-51018605D01*
X112421420Y-50637653D01*
X112469040Y-50542415D01*
X112516659Y-50494796D01*
X112611897Y-50447177D01*
X112754754Y-50447177D01*
X112849992Y-50494796D01*
X112897611Y-50542415D01*
X112945230Y-50637653D01*
X112945230Y-51018605D01*
X113421420Y-49494796D02*
X113421420Y-50066224D01*
X113421420Y-49780510D02*
X112421420Y-49780510D01*
X112564278Y-49875748D01*
X112659516Y-49970986D01*
X112707135Y-50066224D01*
X112421420Y-48875748D02*
X112421420Y-48780510D01*
X112469040Y-48685272D01*
X112516659Y-48637653D01*
X112611897Y-48590034D01*
X112802373Y-48542415D01*
X113040468Y-48542415D01*
X113230944Y-48590034D01*
X113326182Y-48637653D01*
X113373801Y-48685272D01*
X113421420Y-48780510D01*
X113421420Y-48875748D01*
X113373801Y-48970986D01*
X113326182Y-49018605D01*
X113230944Y-49066224D01*
X113040468Y-49113843D01*
X112802373Y-49113843D01*
X112611897Y-49066224D01*
X112516659Y-49018605D01*
X112469040Y-48970986D01*
X112421420Y-48875748D01*
X105298500Y-47983377D02*
X104822310Y-48316710D01*
X105298500Y-48554805D02*
X104298500Y-48554805D01*
X104298500Y-48173853D01*
X104346120Y-48078615D01*
X104393739Y-48030996D01*
X104488977Y-47983377D01*
X104631834Y-47983377D01*
X104727072Y-48030996D01*
X104774691Y-48078615D01*
X104822310Y-48173853D01*
X104822310Y-48554805D01*
X105298500Y-47030996D02*
X105298500Y-47602424D01*
X105298500Y-47316710D02*
X104298500Y-47316710D01*
X104441358Y-47411948D01*
X104536596Y-47507186D01*
X104584215Y-47602424D01*
X105298500Y-46078615D02*
X105298500Y-46650043D01*
X105298500Y-46364329D02*
X104298500Y-46364329D01*
X104441358Y-46459567D01*
X104536596Y-46554805D01*
X104584215Y-46650043D01*
X53533300Y-63025257D02*
X53057110Y-63358590D01*
X53533300Y-63596685D02*
X52533300Y-63596685D01*
X52533300Y-63215733D01*
X52580920Y-63120495D01*
X52628539Y-63072876D01*
X52723777Y-63025257D01*
X52866634Y-63025257D01*
X52961872Y-63072876D01*
X53009491Y-63120495D01*
X53057110Y-63215733D01*
X53057110Y-63596685D01*
X53533300Y-62072876D02*
X53533300Y-62644304D01*
X53533300Y-62358590D02*
X52533300Y-62358590D01*
X52676158Y-62453828D01*
X52771396Y-62549066D01*
X52819015Y-62644304D01*
X52628539Y-61691923D02*
X52580920Y-61644304D01*
X52533300Y-61549066D01*
X52533300Y-61310971D01*
X52580920Y-61215733D01*
X52628539Y-61168114D01*
X52723777Y-61120495D01*
X52819015Y-61120495D01*
X52961872Y-61168114D01*
X53533300Y-61739542D01*
X53533300Y-61120495D01*
X86639660Y-83609417D02*
X86163470Y-83942750D01*
X86639660Y-84180845D02*
X85639660Y-84180845D01*
X85639660Y-83799893D01*
X85687280Y-83704655D01*
X85734899Y-83657036D01*
X85830137Y-83609417D01*
X85972994Y-83609417D01*
X86068232Y-83657036D01*
X86115851Y-83704655D01*
X86163470Y-83799893D01*
X86163470Y-84180845D01*
X86639660Y-82657036D02*
X86639660Y-83228464D01*
X86639660Y-82942750D02*
X85639660Y-82942750D01*
X85782518Y-83037988D01*
X85877756Y-83133226D01*
X85925375Y-83228464D01*
X85639660Y-82323702D02*
X85639660Y-81704655D01*
X86020613Y-82037988D01*
X86020613Y-81895131D01*
X86068232Y-81799893D01*
X86115851Y-81752274D01*
X86211089Y-81704655D01*
X86449184Y-81704655D01*
X86544422Y-81752274D01*
X86592041Y-81799893D01*
X86639660Y-81895131D01*
X86639660Y-82180845D01*
X86592041Y-82276083D01*
X86544422Y-82323702D01*
X105415340Y-64274937D02*
X104939150Y-64608270D01*
X105415340Y-64846365D02*
X104415340Y-64846365D01*
X104415340Y-64465413D01*
X104462960Y-64370175D01*
X104510579Y-64322556D01*
X104605817Y-64274937D01*
X104748674Y-64274937D01*
X104843912Y-64322556D01*
X104891531Y-64370175D01*
X104939150Y-64465413D01*
X104939150Y-64846365D01*
X105415340Y-63322556D02*
X105415340Y-63893984D01*
X105415340Y-63608270D02*
X104415340Y-63608270D01*
X104558198Y-63703508D01*
X104653436Y-63798746D01*
X104701055Y-63893984D01*
X104748674Y-62465413D02*
X105415340Y-62465413D01*
X104367721Y-62703508D02*
X105082007Y-62941603D01*
X105082007Y-62322556D01*
X80154542Y-70353180D02*
X79821209Y-69876990D01*
X79583114Y-70353180D02*
X79583114Y-69353180D01*
X79964066Y-69353180D01*
X80059304Y-69400800D01*
X80106923Y-69448419D01*
X80154542Y-69543657D01*
X80154542Y-69686514D01*
X80106923Y-69781752D01*
X80059304Y-69829371D01*
X79964066Y-69876990D01*
X79583114Y-69876990D01*
X81106923Y-70353180D02*
X80535495Y-70353180D01*
X80821209Y-70353180D02*
X80821209Y-69353180D01*
X80725971Y-69496038D01*
X80630733Y-69591276D01*
X80535495Y-69638895D01*
X82011685Y-69353180D02*
X81535495Y-69353180D01*
X81487876Y-69829371D01*
X81535495Y-69781752D01*
X81630733Y-69734133D01*
X81868828Y-69734133D01*
X81964066Y-69781752D01*
X82011685Y-69829371D01*
X82059304Y-69924609D01*
X82059304Y-70162704D01*
X82011685Y-70257942D01*
X81964066Y-70305561D01*
X81868828Y-70353180D01*
X81630733Y-70353180D01*
X81535495Y-70305561D01*
X81487876Y-70257942D01*
X89240620Y-49878217D02*
X88764430Y-50211550D01*
X89240620Y-50449645D02*
X88240620Y-50449645D01*
X88240620Y-50068693D01*
X88288240Y-49973455D01*
X88335859Y-49925836D01*
X88431097Y-49878217D01*
X88573954Y-49878217D01*
X88669192Y-49925836D01*
X88716811Y-49973455D01*
X88764430Y-50068693D01*
X88764430Y-50449645D01*
X89240620Y-48925836D02*
X89240620Y-49497264D01*
X89240620Y-49211550D02*
X88240620Y-49211550D01*
X88383478Y-49306788D01*
X88478716Y-49402026D01*
X88526335Y-49497264D01*
X88240620Y-48068693D02*
X88240620Y-48259169D01*
X88288240Y-48354407D01*
X88335859Y-48402026D01*
X88478716Y-48497264D01*
X88669192Y-48544883D01*
X89050144Y-48544883D01*
X89145382Y-48497264D01*
X89193001Y-48449645D01*
X89240620Y-48354407D01*
X89240620Y-48163931D01*
X89193001Y-48068693D01*
X89145382Y-48021074D01*
X89050144Y-47973455D01*
X88812049Y-47973455D01*
X88716811Y-48021074D01*
X88669192Y-48068693D01*
X88621573Y-48163931D01*
X88621573Y-48354407D01*
X88669192Y-48449645D01*
X88716811Y-48497264D01*
X88812049Y-48544883D01*
X55485302Y-100059428D02*
X55532921Y-100107047D01*
X55580540Y-100249904D01*
X55580540Y-100345142D01*
X55532921Y-100488000D01*
X55437683Y-100583238D01*
X55342445Y-100630857D01*
X55151969Y-100678476D01*
X55009112Y-100678476D01*
X54818636Y-100630857D01*
X54723398Y-100583238D01*
X54628160Y-100488000D01*
X54580540Y-100345142D01*
X54580540Y-100249904D01*
X54628160Y-100107047D01*
X54675779Y-100059428D01*
X55294826Y-99678476D02*
X55294826Y-99202285D01*
X55580540Y-99773714D02*
X54580540Y-99440380D01*
X55580540Y-99107047D01*
X55580540Y-98297523D02*
X55580540Y-98773714D01*
X54580540Y-98773714D01*
X55104350Y-96583238D02*
X55056731Y-96630857D01*
X55009112Y-96726095D01*
X55009112Y-96821333D01*
X55056731Y-96916571D01*
X55104350Y-96964190D01*
X55199588Y-97011809D01*
X55294826Y-97011809D01*
X55390064Y-96964190D01*
X55437683Y-96916571D01*
X55485302Y-96821333D01*
X55485302Y-96726095D01*
X55437683Y-96630857D01*
X55390064Y-96583238D01*
X55009112Y-96583238D02*
X55390064Y-96583238D01*
X55437683Y-96535619D01*
X55437683Y-96488000D01*
X55390064Y-96392761D01*
X55294826Y-96345142D01*
X55056731Y-96345142D01*
X54913874Y-96440380D01*
X54818636Y-96583238D01*
X54771017Y-96773714D01*
X54818636Y-96964190D01*
X54913874Y-97107047D01*
X55056731Y-97202285D01*
X55247207Y-97249904D01*
X55437683Y-97202285D01*
X55580540Y-97107047D01*
X55675779Y-96964190D01*
X55723398Y-96773714D01*
X55675779Y-96583238D01*
X55580540Y-96440380D01*
X55580540Y-95154666D02*
X54580540Y-95154666D01*
X54580540Y-94773714D01*
X54628160Y-94678476D01*
X54675779Y-94630857D01*
X54771017Y-94583238D01*
X54913874Y-94583238D01*
X55009112Y-94630857D01*
X55056731Y-94678476D01*
X55104350Y-94773714D01*
X55104350Y-95154666D01*
X55580540Y-94011809D02*
X55532921Y-94107047D01*
X55485302Y-94154666D01*
X55390064Y-94202285D01*
X55104350Y-94202285D01*
X55009112Y-94154666D01*
X54961493Y-94107047D01*
X54913874Y-94011809D01*
X54913874Y-93868952D01*
X54961493Y-93773714D01*
X55009112Y-93726095D01*
X55104350Y-93678476D01*
X55390064Y-93678476D01*
X55485302Y-93726095D01*
X55532921Y-93773714D01*
X55580540Y-93868952D01*
X55580540Y-94011809D01*
X54913874Y-93345142D02*
X55580540Y-93154666D01*
X55104350Y-92964190D01*
X55580540Y-92773714D01*
X54913874Y-92583238D01*
X55532921Y-91821333D02*
X55580540Y-91916571D01*
X55580540Y-92107047D01*
X55532921Y-92202285D01*
X55437683Y-92249904D01*
X55056731Y-92249904D01*
X54961493Y-92202285D01*
X54913874Y-92107047D01*
X54913874Y-91916571D01*
X54961493Y-91821333D01*
X55056731Y-91773714D01*
X55151969Y-91773714D01*
X55247207Y-92249904D01*
X55580540Y-91345142D02*
X54913874Y-91345142D01*
X55104350Y-91345142D02*
X55009112Y-91297523D01*
X54961493Y-91249904D01*
X54913874Y-91154666D01*
X54913874Y-91059428D01*
X54580540Y-89773714D02*
X54580540Y-89583238D01*
X54628160Y-89488000D01*
X54723398Y-89392761D01*
X54913874Y-89345142D01*
X55247207Y-89345142D01*
X55437683Y-89392761D01*
X55532921Y-89488000D01*
X55580540Y-89583238D01*
X55580540Y-89773714D01*
X55532921Y-89868952D01*
X55437683Y-89964190D01*
X55247207Y-90011809D01*
X54913874Y-90011809D01*
X54723398Y-89964190D01*
X54628160Y-89868952D01*
X54580540Y-89773714D01*
X55580540Y-88916571D02*
X54580540Y-88916571D01*
X55580540Y-88345142D01*
X54580540Y-88345142D01*
X66517615Y-45651940D02*
X66517615Y-46461464D01*
X66565234Y-46556702D01*
X66612853Y-46604321D01*
X66708091Y-46651940D01*
X66898567Y-46651940D01*
X66993805Y-46604321D01*
X67041424Y-46556702D01*
X67089043Y-46461464D01*
X67089043Y-45651940D01*
X68089043Y-46651940D02*
X67517615Y-46651940D01*
X67803329Y-46651940D02*
X67803329Y-45651940D01*
X67708091Y-45794798D01*
X67612853Y-45890036D01*
X67517615Y-45937655D01*
X95448215Y-59662260D02*
X95448215Y-60471784D01*
X95495834Y-60567022D01*
X95543453Y-60614641D01*
X95638691Y-60662260D01*
X95829167Y-60662260D01*
X95924405Y-60614641D01*
X95972024Y-60567022D01*
X96019643Y-60471784D01*
X96019643Y-59662260D01*
X96448215Y-59757499D02*
X96495834Y-59709880D01*
X96591072Y-59662260D01*
X96829167Y-59662260D01*
X96924405Y-59709880D01*
X96972024Y-59757499D01*
X97019643Y-59852737D01*
X97019643Y-59947975D01*
X96972024Y-60090832D01*
X96400596Y-60662260D01*
X97019643Y-60662260D01*
X95443135Y-42852540D02*
X95443135Y-43662064D01*
X95490754Y-43757302D01*
X95538373Y-43804921D01*
X95633611Y-43852540D01*
X95824087Y-43852540D01*
X95919325Y-43804921D01*
X95966944Y-43757302D01*
X96014563Y-43662064D01*
X96014563Y-42852540D01*
X96395516Y-42852540D02*
X97014563Y-42852540D01*
X96681230Y-43233493D01*
X96824087Y-43233493D01*
X96919325Y-43281112D01*
X96966944Y-43328731D01*
X97014563Y-43423969D01*
X97014563Y-43662064D01*
X96966944Y-43757302D01*
X96919325Y-43804921D01*
X96824087Y-43852540D01*
X96538373Y-43852540D01*
X96443135Y-43804921D01*
X96395516Y-43757302D01*
X114377481Y-37306499D02*
X114282243Y-37258880D01*
X114187005Y-37163641D01*
X114044148Y-37020784D01*
X113948910Y-36973165D01*
X113853672Y-36973165D01*
X113901291Y-37211260D02*
X113806053Y-37163641D01*
X113710815Y-37068403D01*
X113663196Y-36877927D01*
X113663196Y-36544594D01*
X113710815Y-36354118D01*
X113806053Y-36258880D01*
X113901291Y-36211260D01*
X114091767Y-36211260D01*
X114187005Y-36258880D01*
X114282243Y-36354118D01*
X114329862Y-36544594D01*
X114329862Y-36877927D01*
X114282243Y-37068403D01*
X114187005Y-37163641D01*
X114091767Y-37211260D01*
X113901291Y-37211260D01*
X114663196Y-36211260D02*
X115282243Y-36211260D01*
X114948910Y-36592213D01*
X115091767Y-36592213D01*
X115187005Y-36639832D01*
X115234624Y-36687451D01*
X115282243Y-36782689D01*
X115282243Y-37020784D01*
X115234624Y-37116022D01*
X115187005Y-37163641D01*
X115091767Y-37211260D01*
X114806053Y-37211260D01*
X114710815Y-37163641D01*
X114663196Y-37116022D01*
X109586020Y-50407866D02*
X109109830Y-50741200D01*
X109586020Y-50979295D02*
X108586020Y-50979295D01*
X108586020Y-50598342D01*
X108633640Y-50503104D01*
X108681259Y-50455485D01*
X108776497Y-50407866D01*
X108919354Y-50407866D01*
X109014592Y-50455485D01*
X109062211Y-50503104D01*
X109109830Y-50598342D01*
X109109830Y-50979295D01*
X108586020Y-50074533D02*
X108586020Y-49407866D01*
X109586020Y-49836438D01*
X120173453Y-40904420D02*
X119840120Y-40428230D01*
X119602024Y-40904420D02*
X119602024Y-39904420D01*
X119982977Y-39904420D01*
X120078215Y-39952040D01*
X120125834Y-39999659D01*
X120173453Y-40094897D01*
X120173453Y-40237754D01*
X120125834Y-40332992D01*
X120078215Y-40380611D01*
X119982977Y-40428230D01*
X119602024Y-40428230D01*
X120649643Y-40904420D02*
X120840120Y-40904420D01*
X120935358Y-40856801D01*
X120982977Y-40809182D01*
X121078215Y-40666325D01*
X121125834Y-40475849D01*
X121125834Y-40094897D01*
X121078215Y-39999659D01*
X121030596Y-39952040D01*
X120935358Y-39904420D01*
X120744881Y-39904420D01*
X120649643Y-39952040D01*
X120602024Y-39999659D01*
X120554405Y-40094897D01*
X120554405Y-40332992D01*
X120602024Y-40428230D01*
X120649643Y-40475849D01*
X120744881Y-40523468D01*
X120935358Y-40523468D01*
X121030596Y-40475849D01*
X121078215Y-40428230D01*
X121125834Y-40332992D01*
M02*
