%TF.GenerationSoftware,KiCad,Pcbnew,(5.0.2)-1*%
%TF.CreationDate,2019-02-06T15:14:37+09:00*%
%TF.ProjectId,ATTiny85-mppt,41545469-6e79-4383-952d-6d7070742e6b,1.9*%
%TF.SameCoordinates,Original*%
%TF.FileFunction,Legend,Top*%
%TF.FilePolarity,Positive*%
%FSLAX46Y46*%
G04 Gerber Fmt 4.6, Leading zero omitted, Abs format (unit mm)*
G04 Created by KiCad (PCBNEW (5.0.2)-1) date 2019-02-06 오후 3:14:37*
%MOMM*%
%LPD*%
G01*
G04 APERTURE LIST*
%ADD10C,0.300000*%
%ADD11C,0.120000*%
%ADD12C,0.150000*%
G04 APERTURE END LIST*
D10*
X48003851Y-62396165D02*
X46503851Y-62396165D01*
X47575280Y-61896165D01*
X46503851Y-61396165D01*
X48003851Y-61396165D01*
X48003851Y-60039022D02*
X47218137Y-60039022D01*
X47075280Y-60110451D01*
X47003851Y-60253308D01*
X47003851Y-60539022D01*
X47075280Y-60681880D01*
X47932422Y-60039022D02*
X48003851Y-60181880D01*
X48003851Y-60539022D01*
X47932422Y-60681880D01*
X47789565Y-60753308D01*
X47646708Y-60753308D01*
X47503851Y-60681880D01*
X47432422Y-60539022D01*
X47432422Y-60181880D01*
X47360994Y-60039022D01*
X48003851Y-59467594D02*
X47003851Y-58681880D01*
X47003851Y-59467594D02*
X48003851Y-58681880D01*
X46646708Y-57039022D02*
X46575280Y-56967594D01*
X46503851Y-56824737D01*
X46503851Y-56467594D01*
X46575280Y-56324737D01*
X46646708Y-56253308D01*
X46789565Y-56181880D01*
X46932422Y-56181880D01*
X47146708Y-56253308D01*
X48003851Y-57110451D01*
X48003851Y-56181880D01*
X46503851Y-54824737D02*
X46503851Y-55539022D01*
X47218137Y-55610451D01*
X47146708Y-55539022D01*
X47075280Y-55396165D01*
X47075280Y-55039022D01*
X47146708Y-54896165D01*
X47218137Y-54824737D01*
X47360994Y-54753308D01*
X47718137Y-54753308D01*
X47860994Y-54824737D01*
X47932422Y-54896165D01*
X48003851Y-55039022D01*
X48003851Y-55396165D01*
X47932422Y-55539022D01*
X47860994Y-55610451D01*
X46503851Y-54324737D02*
X48003851Y-53824737D01*
X46503851Y-53324737D01*
X47932422Y-52753308D02*
X48003851Y-52753308D01*
X48146708Y-52824737D01*
X48218137Y-52896165D01*
X46503851Y-50324737D02*
X46503851Y-50610451D01*
X46575280Y-50753308D01*
X46646708Y-50824737D01*
X46860994Y-50967594D01*
X47146708Y-51039022D01*
X47718137Y-51039022D01*
X47860994Y-50967594D01*
X47932422Y-50896165D01*
X48003851Y-50753308D01*
X48003851Y-50467594D01*
X47932422Y-50324737D01*
X47860994Y-50253308D01*
X47718137Y-50181880D01*
X47360994Y-50181880D01*
X47218137Y-50253308D01*
X47146708Y-50324737D01*
X47075280Y-50467594D01*
X47075280Y-50753308D01*
X47146708Y-50896165D01*
X47218137Y-50967594D01*
X47360994Y-51039022D01*
X47575280Y-49610451D02*
X47575280Y-48896165D01*
X48003851Y-49753308D02*
X46503851Y-49253308D01*
X48003851Y-48753308D01*
X88914268Y-30416891D02*
X88914268Y-28916891D01*
X89414268Y-29988320D01*
X89914268Y-28916891D01*
X89914268Y-30416891D01*
X90628554Y-30416891D02*
X90628554Y-28916891D01*
X91199982Y-28916891D01*
X91342840Y-28988320D01*
X91414268Y-29059748D01*
X91485697Y-29202605D01*
X91485697Y-29416891D01*
X91414268Y-29559748D01*
X91342840Y-29631177D01*
X91199982Y-29702605D01*
X90628554Y-29702605D01*
X92128554Y-30416891D02*
X92128554Y-28916891D01*
X92699982Y-28916891D01*
X92842840Y-28988320D01*
X92914268Y-29059748D01*
X92985697Y-29202605D01*
X92985697Y-29416891D01*
X92914268Y-29559748D01*
X92842840Y-29631177D01*
X92699982Y-29702605D01*
X92128554Y-29702605D01*
X93414268Y-28916891D02*
X94271411Y-28916891D01*
X93842840Y-30416891D02*
X93842840Y-28916891D01*
X95842840Y-29059748D02*
X95914268Y-28988320D01*
X96057125Y-28916891D01*
X96414268Y-28916891D01*
X96557125Y-28988320D01*
X96628554Y-29059748D01*
X96699982Y-29202605D01*
X96699982Y-29345462D01*
X96628554Y-29559748D01*
X95771411Y-30416891D01*
X96699982Y-30416891D01*
X97342840Y-30274034D02*
X97414268Y-30345462D01*
X97342840Y-30416891D01*
X97271411Y-30345462D01*
X97342840Y-30274034D01*
X97342840Y-30416891D01*
X98342840Y-28916891D02*
X98485697Y-28916891D01*
X98628554Y-28988320D01*
X98699982Y-29059748D01*
X98771411Y-29202605D01*
X98842840Y-29488320D01*
X98842840Y-29845462D01*
X98771411Y-30131177D01*
X98699982Y-30274034D01*
X98628554Y-30345462D01*
X98485697Y-30416891D01*
X98342840Y-30416891D01*
X98199982Y-30345462D01*
X98128554Y-30274034D01*
X98057125Y-30131177D01*
X97985697Y-29845462D01*
X97985697Y-29488320D01*
X98057125Y-29202605D01*
X98128554Y-29059748D01*
X98199982Y-28988320D01*
X98342840Y-28916891D01*
D11*
X120730275Y-31496000D02*
X122719640Y-31496000D01*
X120986973Y-30607000D02*
X120986973Y-32385000D01*
X120986973Y-31496000D02*
X122172307Y-30607000D01*
X122172307Y-30607000D02*
X122172307Y-32385000D01*
X122172307Y-32385000D02*
X120986973Y-31496000D01*
X120730275Y-31496000D02*
G75*
G03X120730275Y-31496000I-1690635J0D01*
G01*
X54695200Y-58574240D02*
X51375200Y-58574240D01*
X51375200Y-58574240D02*
X51375200Y-67694240D01*
X51375200Y-67694240D02*
X54695200Y-67694240D01*
X54695200Y-67694240D02*
X54695200Y-58574240D01*
X53035200Y-57764240D02*
X53035200Y-58574240D01*
X53035200Y-68504240D02*
X53035200Y-67694240D01*
X120404212Y-34674218D02*
G75*
G02X120404530Y-36273640I1454828J-799422D01*
G01*
X94748440Y-38052040D02*
X94748440Y-35232040D01*
X89128440Y-36642040D02*
X90268440Y-36642040D01*
X96728440Y-36642040D02*
X95588440Y-36642040D01*
X90268440Y-38052040D02*
X95588440Y-38052040D01*
X90268440Y-35232040D02*
X90268440Y-38052040D01*
X95588440Y-35232040D02*
X90268440Y-35232040D01*
X95588440Y-38052040D02*
X95588440Y-35232040D01*
X102707600Y-102962080D02*
G75*
G03X102707600Y-102962080I-6340000J0D01*
G01*
X102667600Y-102962080D02*
X90067600Y-102962080D01*
X102667600Y-103002080D02*
X90067600Y-103002080D01*
X102667600Y-103042080D02*
X90067600Y-103042080D01*
X102666600Y-103082080D02*
X90068600Y-103082080D01*
X102665600Y-103122080D02*
X90069600Y-103122080D01*
X102664600Y-103162080D02*
X90070600Y-103162080D01*
X102663600Y-103202080D02*
X90071600Y-103202080D01*
X102661600Y-103242080D02*
X90073600Y-103242080D01*
X102659600Y-103282080D02*
X90075600Y-103282080D01*
X102657600Y-103322080D02*
X90077600Y-103322080D01*
X102655600Y-103362080D02*
X90079600Y-103362080D01*
X102652600Y-103402080D02*
X90082600Y-103402080D01*
X102649600Y-103442080D02*
X90085600Y-103442080D01*
X102646600Y-103482080D02*
X90088600Y-103482080D01*
X102643600Y-103522080D02*
X90091600Y-103522080D01*
X102639600Y-103562080D02*
X90095600Y-103562080D01*
X102635600Y-103602080D02*
X90099600Y-103602080D01*
X102631600Y-103642080D02*
X90103600Y-103642080D01*
X102626600Y-103683080D02*
X90108600Y-103683080D01*
X102622600Y-103723080D02*
X90112600Y-103723080D01*
X102617600Y-103763080D02*
X90117600Y-103763080D01*
X102612600Y-103803080D02*
X90122600Y-103803080D01*
X102606600Y-103843080D02*
X90128600Y-103843080D01*
X102600600Y-103883080D02*
X90134600Y-103883080D01*
X102594600Y-103923080D02*
X90140600Y-103923080D01*
X102588600Y-103963080D02*
X90146600Y-103963080D01*
X102582600Y-104003080D02*
X90152600Y-104003080D01*
X102575600Y-104043080D02*
X90159600Y-104043080D01*
X102568600Y-104083080D02*
X97747600Y-104083080D01*
X94987600Y-104083080D02*
X90166600Y-104083080D01*
X102560600Y-104123080D02*
X97747600Y-104123080D01*
X94987600Y-104123080D02*
X90174600Y-104123080D01*
X102553600Y-104163080D02*
X97747600Y-104163080D01*
X94987600Y-104163080D02*
X90181600Y-104163080D01*
X102545600Y-104203080D02*
X97747600Y-104203080D01*
X94987600Y-104203080D02*
X90189600Y-104203080D01*
X102537600Y-104243080D02*
X97747600Y-104243080D01*
X94987600Y-104243080D02*
X90197600Y-104243080D01*
X102529600Y-104283080D02*
X97747600Y-104283080D01*
X94987600Y-104283080D02*
X90205600Y-104283080D01*
X102520600Y-104323080D02*
X97747600Y-104323080D01*
X94987600Y-104323080D02*
X90214600Y-104323080D01*
X102511600Y-104363080D02*
X97747600Y-104363080D01*
X94987600Y-104363080D02*
X90223600Y-104363080D01*
X102502600Y-104403080D02*
X97747600Y-104403080D01*
X94987600Y-104403080D02*
X90232600Y-104403080D01*
X102492600Y-104443080D02*
X97747600Y-104443080D01*
X94987600Y-104443080D02*
X90242600Y-104443080D01*
X102483600Y-104483080D02*
X97747600Y-104483080D01*
X94987600Y-104483080D02*
X90251600Y-104483080D01*
X102473600Y-104523080D02*
X97747600Y-104523080D01*
X94987600Y-104523080D02*
X90261600Y-104523080D01*
X102462600Y-104563080D02*
X97747600Y-104563080D01*
X94987600Y-104563080D02*
X90272600Y-104563080D01*
X102452600Y-104603080D02*
X97747600Y-104603080D01*
X94987600Y-104603080D02*
X90282600Y-104603080D01*
X102441600Y-104643080D02*
X97747600Y-104643080D01*
X94987600Y-104643080D02*
X90293600Y-104643080D01*
X102430600Y-104683080D02*
X97747600Y-104683080D01*
X94987600Y-104683080D02*
X90304600Y-104683080D01*
X102418600Y-104723080D02*
X97747600Y-104723080D01*
X94987600Y-104723080D02*
X90316600Y-104723080D01*
X102407600Y-104763080D02*
X97747600Y-104763080D01*
X94987600Y-104763080D02*
X90327600Y-104763080D01*
X102395600Y-104803080D02*
X97747600Y-104803080D01*
X94987600Y-104803080D02*
X90339600Y-104803080D01*
X102382600Y-104843080D02*
X97747600Y-104843080D01*
X94987600Y-104843080D02*
X90352600Y-104843080D01*
X102370600Y-104883080D02*
X97747600Y-104883080D01*
X94987600Y-104883080D02*
X90364600Y-104883080D01*
X102357600Y-104923080D02*
X97747600Y-104923080D01*
X94987600Y-104923080D02*
X90377600Y-104923080D01*
X102344600Y-104963080D02*
X97747600Y-104963080D01*
X94987600Y-104963080D02*
X90390600Y-104963080D01*
X102330600Y-105003080D02*
X97747600Y-105003080D01*
X94987600Y-105003080D02*
X90404600Y-105003080D01*
X102317600Y-105043080D02*
X97747600Y-105043080D01*
X94987600Y-105043080D02*
X90417600Y-105043080D01*
X102303600Y-105083080D02*
X97747600Y-105083080D01*
X94987600Y-105083080D02*
X90431600Y-105083080D01*
X102288600Y-105123080D02*
X97747600Y-105123080D01*
X94987600Y-105123080D02*
X90446600Y-105123080D01*
X102274600Y-105163080D02*
X97747600Y-105163080D01*
X94987600Y-105163080D02*
X90460600Y-105163080D01*
X102259600Y-105203080D02*
X97747600Y-105203080D01*
X94987600Y-105203080D02*
X90475600Y-105203080D01*
X102243600Y-105243080D02*
X97747600Y-105243080D01*
X94987600Y-105243080D02*
X90491600Y-105243080D01*
X102228600Y-105283080D02*
X97747600Y-105283080D01*
X94987600Y-105283080D02*
X90506600Y-105283080D01*
X102212600Y-105323080D02*
X97747600Y-105323080D01*
X94987600Y-105323080D02*
X90522600Y-105323080D01*
X102196600Y-105363080D02*
X97747600Y-105363080D01*
X94987600Y-105363080D02*
X90538600Y-105363080D01*
X102179600Y-105403080D02*
X97747600Y-105403080D01*
X94987600Y-105403080D02*
X90555600Y-105403080D01*
X102162600Y-105443080D02*
X97747600Y-105443080D01*
X94987600Y-105443080D02*
X90572600Y-105443080D01*
X102145600Y-105483080D02*
X97747600Y-105483080D01*
X94987600Y-105483080D02*
X90589600Y-105483080D01*
X102128600Y-105523080D02*
X97747600Y-105523080D01*
X94987600Y-105523080D02*
X90606600Y-105523080D01*
X102110600Y-105563080D02*
X97747600Y-105563080D01*
X94987600Y-105563080D02*
X90624600Y-105563080D01*
X102092600Y-105603080D02*
X97747600Y-105603080D01*
X94987600Y-105603080D02*
X90642600Y-105603080D01*
X102073600Y-105643080D02*
X97747600Y-105643080D01*
X94987600Y-105643080D02*
X90661600Y-105643080D01*
X102054600Y-105683080D02*
X97747600Y-105683080D01*
X94987600Y-105683080D02*
X90680600Y-105683080D01*
X102035600Y-105723080D02*
X97747600Y-105723080D01*
X94987600Y-105723080D02*
X90699600Y-105723080D01*
X102016600Y-105763080D02*
X97747600Y-105763080D01*
X94987600Y-105763080D02*
X90718600Y-105763080D01*
X101996600Y-105803080D02*
X97747600Y-105803080D01*
X94987600Y-105803080D02*
X90738600Y-105803080D01*
X101976600Y-105843080D02*
X97747600Y-105843080D01*
X94987600Y-105843080D02*
X90758600Y-105843080D01*
X101955600Y-105883080D02*
X97747600Y-105883080D01*
X94987600Y-105883080D02*
X90779600Y-105883080D01*
X101934600Y-105923080D02*
X97747600Y-105923080D01*
X94987600Y-105923080D02*
X90800600Y-105923080D01*
X101913600Y-105963080D02*
X97747600Y-105963080D01*
X94987600Y-105963080D02*
X90821600Y-105963080D01*
X101891600Y-106003080D02*
X97747600Y-106003080D01*
X94987600Y-106003080D02*
X90843600Y-106003080D01*
X101869600Y-106043080D02*
X97747600Y-106043080D01*
X94987600Y-106043080D02*
X90865600Y-106043080D01*
X101847600Y-106083080D02*
X97747600Y-106083080D01*
X94987600Y-106083080D02*
X90887600Y-106083080D01*
X101824600Y-106123080D02*
X97747600Y-106123080D01*
X94987600Y-106123080D02*
X90910600Y-106123080D01*
X101801600Y-106163080D02*
X97747600Y-106163080D01*
X94987600Y-106163080D02*
X90933600Y-106163080D01*
X101777600Y-106203080D02*
X97747600Y-106203080D01*
X94987600Y-106203080D02*
X90957600Y-106203080D01*
X101753600Y-106243080D02*
X97747600Y-106243080D01*
X94987600Y-106243080D02*
X90981600Y-106243080D01*
X101729600Y-106283080D02*
X97747600Y-106283080D01*
X94987600Y-106283080D02*
X91005600Y-106283080D01*
X101704600Y-106323080D02*
X97747600Y-106323080D01*
X94987600Y-106323080D02*
X91030600Y-106323080D01*
X101679600Y-106363080D02*
X97747600Y-106363080D01*
X94987600Y-106363080D02*
X91055600Y-106363080D01*
X101653600Y-106403080D02*
X97747600Y-106403080D01*
X94987600Y-106403080D02*
X91081600Y-106403080D01*
X101627600Y-106443080D02*
X97747600Y-106443080D01*
X94987600Y-106443080D02*
X91107600Y-106443080D01*
X101601600Y-106483080D02*
X97747600Y-106483080D01*
X94987600Y-106483080D02*
X91133600Y-106483080D01*
X101574600Y-106523080D02*
X97747600Y-106523080D01*
X94987600Y-106523080D02*
X91160600Y-106523080D01*
X101546600Y-106563080D02*
X97747600Y-106563080D01*
X94987600Y-106563080D02*
X91188600Y-106563080D01*
X101518600Y-106603080D02*
X97747600Y-106603080D01*
X94987600Y-106603080D02*
X91216600Y-106603080D01*
X101490600Y-106643080D02*
X97747600Y-106643080D01*
X94987600Y-106643080D02*
X91244600Y-106643080D01*
X101461600Y-106683080D02*
X97747600Y-106683080D01*
X94987600Y-106683080D02*
X91273600Y-106683080D01*
X101432600Y-106723080D02*
X97747600Y-106723080D01*
X94987600Y-106723080D02*
X91302600Y-106723080D01*
X101402600Y-106763080D02*
X97747600Y-106763080D01*
X94987600Y-106763080D02*
X91332600Y-106763080D01*
X101372600Y-106803080D02*
X97747600Y-106803080D01*
X94987600Y-106803080D02*
X91362600Y-106803080D01*
X101342600Y-106843080D02*
X91392600Y-106843080D01*
X101310600Y-106883080D02*
X91424600Y-106883080D01*
X101279600Y-106923080D02*
X91455600Y-106923080D01*
X101246600Y-106963080D02*
X91488600Y-106963080D01*
X101214600Y-107003080D02*
X91520600Y-107003080D01*
X101180600Y-107043080D02*
X91554600Y-107043080D01*
X101146600Y-107083080D02*
X91588600Y-107083080D01*
X101112600Y-107123080D02*
X91622600Y-107123080D01*
X101077600Y-107163080D02*
X91657600Y-107163080D01*
X101041600Y-107203080D02*
X91693600Y-107203080D01*
X101005600Y-107243080D02*
X91729600Y-107243080D01*
X100968600Y-107283080D02*
X91766600Y-107283080D01*
X100930600Y-107323080D02*
X91804600Y-107323080D01*
X100892600Y-107363080D02*
X91842600Y-107363080D01*
X100853600Y-107403080D02*
X91881600Y-107403080D01*
X100814600Y-107443080D02*
X91920600Y-107443080D01*
X100773600Y-107483080D02*
X91961600Y-107483080D01*
X100732600Y-107523080D02*
X92002600Y-107523080D01*
X100690600Y-107563080D02*
X92044600Y-107563080D01*
X100648600Y-107603080D02*
X92086600Y-107603080D01*
X100605600Y-107643080D02*
X92129600Y-107643080D01*
X100560600Y-107683080D02*
X92174600Y-107683080D01*
X100515600Y-107723080D02*
X92219600Y-107723080D01*
X100469600Y-107763080D02*
X92265600Y-107763080D01*
X100423600Y-107803080D02*
X92311600Y-107803080D01*
X100375600Y-107843080D02*
X92359600Y-107843080D01*
X100326600Y-107883080D02*
X92408600Y-107883080D01*
X100276600Y-107923080D02*
X92458600Y-107923080D01*
X100226600Y-107963080D02*
X92508600Y-107963080D01*
X100174600Y-108003080D02*
X92560600Y-108003080D01*
X100121600Y-108043080D02*
X92613600Y-108043080D01*
X100067600Y-108083080D02*
X92667600Y-108083080D01*
X100011600Y-108123080D02*
X92723600Y-108123080D01*
X99955600Y-108163080D02*
X92779600Y-108163080D01*
X99897600Y-108203080D02*
X92837600Y-108203080D01*
X99837600Y-108243080D02*
X92897600Y-108243080D01*
X99776600Y-108283080D02*
X92958600Y-108283080D01*
X99714600Y-108323080D02*
X93020600Y-108323080D01*
X99649600Y-108363080D02*
X93085600Y-108363080D01*
X99584600Y-108403080D02*
X93150600Y-108403080D01*
X99516600Y-108443080D02*
X93218600Y-108443080D01*
X99446600Y-108483080D02*
X93288600Y-108483080D01*
X99374600Y-108523080D02*
X93360600Y-108523080D01*
X99300600Y-108563080D02*
X93434600Y-108563080D01*
X99223600Y-108603080D02*
X93511600Y-108603080D01*
X99144600Y-108643080D02*
X93590600Y-108643080D01*
X99062600Y-108683080D02*
X93672600Y-108683080D01*
X98977600Y-108723080D02*
X93757600Y-108723080D01*
X98888600Y-108763080D02*
X93846600Y-108763080D01*
X98795600Y-108803080D02*
X93939600Y-108803080D01*
X98698600Y-108843080D02*
X94036600Y-108843080D01*
X98597600Y-108883080D02*
X94137600Y-108883080D01*
X98489600Y-108923080D02*
X94245600Y-108923080D01*
X98376600Y-108963080D02*
X94358600Y-108963080D01*
X98255600Y-109003080D02*
X94479600Y-109003080D01*
X98124600Y-109043080D02*
X94610600Y-109043080D01*
X97983600Y-109083080D02*
X94751600Y-109083080D01*
X97827600Y-109123080D02*
X94907600Y-109123080D01*
X97652600Y-109163080D02*
X95082600Y-109163080D01*
X97449600Y-109203080D02*
X95285600Y-109203080D01*
X97198600Y-109243080D02*
X95536600Y-109243080D01*
X96831600Y-109283080D02*
X95903600Y-109283080D01*
X96367600Y-97262080D02*
X96367600Y-99062080D01*
X97267600Y-98162080D02*
X95467600Y-98162080D01*
X116831080Y-51012520D02*
X116831080Y-52812520D01*
X115931080Y-51912520D02*
X117731080Y-51912520D01*
X127952080Y-51448520D02*
X127952080Y-52376520D01*
X127912080Y-51081520D02*
X127912080Y-52743520D01*
X127872080Y-50830520D02*
X127872080Y-52994520D01*
X127832080Y-50627520D02*
X127832080Y-53197520D01*
X127792080Y-50452520D02*
X127792080Y-53372520D01*
X127752080Y-50296520D02*
X127752080Y-53528520D01*
X127712080Y-50155520D02*
X127712080Y-53669520D01*
X127672080Y-50024520D02*
X127672080Y-53800520D01*
X127632080Y-49903520D02*
X127632080Y-53921520D01*
X127592080Y-49790520D02*
X127592080Y-54034520D01*
X127552080Y-49682520D02*
X127552080Y-54142520D01*
X127512080Y-49581520D02*
X127512080Y-54243520D01*
X127472080Y-49484520D02*
X127472080Y-54340520D01*
X127432080Y-49391520D02*
X127432080Y-54433520D01*
X127392080Y-49302520D02*
X127392080Y-54522520D01*
X127352080Y-49217520D02*
X127352080Y-54607520D01*
X127312080Y-49135520D02*
X127312080Y-54689520D01*
X127272080Y-49056520D02*
X127272080Y-54768520D01*
X127232080Y-48979520D02*
X127232080Y-54845520D01*
X127192080Y-48905520D02*
X127192080Y-54919520D01*
X127152080Y-48833520D02*
X127152080Y-54991520D01*
X127112080Y-48763520D02*
X127112080Y-55061520D01*
X127072080Y-48695520D02*
X127072080Y-55129520D01*
X127032080Y-48630520D02*
X127032080Y-55194520D01*
X126992080Y-48565520D02*
X126992080Y-55259520D01*
X126952080Y-48503520D02*
X126952080Y-55321520D01*
X126912080Y-48442520D02*
X126912080Y-55382520D01*
X126872080Y-48382520D02*
X126872080Y-55442520D01*
X126832080Y-48324520D02*
X126832080Y-55500520D01*
X126792080Y-48268520D02*
X126792080Y-55556520D01*
X126752080Y-48212520D02*
X126752080Y-55612520D01*
X126712080Y-48158520D02*
X126712080Y-55666520D01*
X126672080Y-48105520D02*
X126672080Y-55719520D01*
X126632080Y-48053520D02*
X126632080Y-55771520D01*
X126592080Y-48003520D02*
X126592080Y-55821520D01*
X126552080Y-47953520D02*
X126552080Y-55871520D01*
X126512080Y-47904520D02*
X126512080Y-55920520D01*
X126472080Y-47856520D02*
X126472080Y-55968520D01*
X126432080Y-47810520D02*
X126432080Y-56014520D01*
X126392080Y-47764520D02*
X126392080Y-56060520D01*
X126352080Y-47719520D02*
X126352080Y-56105520D01*
X126312080Y-47674520D02*
X126312080Y-56150520D01*
X126272080Y-47631520D02*
X126272080Y-56193520D01*
X126232080Y-47589520D02*
X126232080Y-56235520D01*
X126192080Y-47547520D02*
X126192080Y-56277520D01*
X126152080Y-47506520D02*
X126152080Y-56318520D01*
X126112080Y-47465520D02*
X126112080Y-56359520D01*
X126072080Y-47426520D02*
X126072080Y-56398520D01*
X126032080Y-47387520D02*
X126032080Y-56437520D01*
X125992080Y-47349520D02*
X125992080Y-56475520D01*
X125952080Y-47311520D02*
X125952080Y-56513520D01*
X125912080Y-47274520D02*
X125912080Y-56550520D01*
X125872080Y-47238520D02*
X125872080Y-56586520D01*
X125832080Y-47202520D02*
X125832080Y-56622520D01*
X125792080Y-47167520D02*
X125792080Y-56657520D01*
X125752080Y-47133520D02*
X125752080Y-56691520D01*
X125712080Y-47099520D02*
X125712080Y-56725520D01*
X125672080Y-47065520D02*
X125672080Y-56759520D01*
X125632080Y-47033520D02*
X125632080Y-56791520D01*
X125592080Y-47000520D02*
X125592080Y-56824520D01*
X125552080Y-46969520D02*
X125552080Y-56855520D01*
X125512080Y-46937520D02*
X125512080Y-56887520D01*
X125472080Y-53292520D02*
X125472080Y-56917520D01*
X125472080Y-46907520D02*
X125472080Y-50532520D01*
X125432080Y-53292520D02*
X125432080Y-56947520D01*
X125432080Y-46877520D02*
X125432080Y-50532520D01*
X125392080Y-53292520D02*
X125392080Y-56977520D01*
X125392080Y-46847520D02*
X125392080Y-50532520D01*
X125352080Y-53292520D02*
X125352080Y-57006520D01*
X125352080Y-46818520D02*
X125352080Y-50532520D01*
X125312080Y-53292520D02*
X125312080Y-57035520D01*
X125312080Y-46789520D02*
X125312080Y-50532520D01*
X125272080Y-53292520D02*
X125272080Y-57063520D01*
X125272080Y-46761520D02*
X125272080Y-50532520D01*
X125232080Y-53292520D02*
X125232080Y-57091520D01*
X125232080Y-46733520D02*
X125232080Y-50532520D01*
X125192080Y-53292520D02*
X125192080Y-57119520D01*
X125192080Y-46705520D02*
X125192080Y-50532520D01*
X125152080Y-53292520D02*
X125152080Y-57146520D01*
X125152080Y-46678520D02*
X125152080Y-50532520D01*
X125112080Y-53292520D02*
X125112080Y-57172520D01*
X125112080Y-46652520D02*
X125112080Y-50532520D01*
X125072080Y-53292520D02*
X125072080Y-57198520D01*
X125072080Y-46626520D02*
X125072080Y-50532520D01*
X125032080Y-53292520D02*
X125032080Y-57224520D01*
X125032080Y-46600520D02*
X125032080Y-50532520D01*
X124992080Y-53292520D02*
X124992080Y-57249520D01*
X124992080Y-46575520D02*
X124992080Y-50532520D01*
X124952080Y-53292520D02*
X124952080Y-57274520D01*
X124952080Y-46550520D02*
X124952080Y-50532520D01*
X124912080Y-53292520D02*
X124912080Y-57298520D01*
X124912080Y-46526520D02*
X124912080Y-50532520D01*
X124872080Y-53292520D02*
X124872080Y-57322520D01*
X124872080Y-46502520D02*
X124872080Y-50532520D01*
X124832080Y-53292520D02*
X124832080Y-57346520D01*
X124832080Y-46478520D02*
X124832080Y-50532520D01*
X124792080Y-53292520D02*
X124792080Y-57369520D01*
X124792080Y-46455520D02*
X124792080Y-50532520D01*
X124752080Y-53292520D02*
X124752080Y-57392520D01*
X124752080Y-46432520D02*
X124752080Y-50532520D01*
X124712080Y-53292520D02*
X124712080Y-57414520D01*
X124712080Y-46410520D02*
X124712080Y-50532520D01*
X124672080Y-53292520D02*
X124672080Y-57436520D01*
X124672080Y-46388520D02*
X124672080Y-50532520D01*
X124632080Y-53292520D02*
X124632080Y-57458520D01*
X124632080Y-46366520D02*
X124632080Y-50532520D01*
X124592080Y-53292520D02*
X124592080Y-57479520D01*
X124592080Y-46345520D02*
X124592080Y-50532520D01*
X124552080Y-53292520D02*
X124552080Y-57500520D01*
X124552080Y-46324520D02*
X124552080Y-50532520D01*
X124512080Y-53292520D02*
X124512080Y-57521520D01*
X124512080Y-46303520D02*
X124512080Y-50532520D01*
X124472080Y-53292520D02*
X124472080Y-57541520D01*
X124472080Y-46283520D02*
X124472080Y-50532520D01*
X124432080Y-53292520D02*
X124432080Y-57561520D01*
X124432080Y-46263520D02*
X124432080Y-50532520D01*
X124392080Y-53292520D02*
X124392080Y-57580520D01*
X124392080Y-46244520D02*
X124392080Y-50532520D01*
X124352080Y-53292520D02*
X124352080Y-57599520D01*
X124352080Y-46225520D02*
X124352080Y-50532520D01*
X124312080Y-53292520D02*
X124312080Y-57618520D01*
X124312080Y-46206520D02*
X124312080Y-50532520D01*
X124272080Y-53292520D02*
X124272080Y-57637520D01*
X124272080Y-46187520D02*
X124272080Y-50532520D01*
X124232080Y-53292520D02*
X124232080Y-57655520D01*
X124232080Y-46169520D02*
X124232080Y-50532520D01*
X124192080Y-53292520D02*
X124192080Y-57673520D01*
X124192080Y-46151520D02*
X124192080Y-50532520D01*
X124152080Y-53292520D02*
X124152080Y-57690520D01*
X124152080Y-46134520D02*
X124152080Y-50532520D01*
X124112080Y-53292520D02*
X124112080Y-57707520D01*
X124112080Y-46117520D02*
X124112080Y-50532520D01*
X124072080Y-53292520D02*
X124072080Y-57724520D01*
X124072080Y-46100520D02*
X124072080Y-50532520D01*
X124032080Y-53292520D02*
X124032080Y-57741520D01*
X124032080Y-46083520D02*
X124032080Y-50532520D01*
X123992080Y-53292520D02*
X123992080Y-57757520D01*
X123992080Y-46067520D02*
X123992080Y-50532520D01*
X123952080Y-53292520D02*
X123952080Y-57773520D01*
X123952080Y-46051520D02*
X123952080Y-50532520D01*
X123912080Y-53292520D02*
X123912080Y-57788520D01*
X123912080Y-46036520D02*
X123912080Y-50532520D01*
X123872080Y-53292520D02*
X123872080Y-57804520D01*
X123872080Y-46020520D02*
X123872080Y-50532520D01*
X123832080Y-53292520D02*
X123832080Y-57819520D01*
X123832080Y-46005520D02*
X123832080Y-50532520D01*
X123792080Y-53292520D02*
X123792080Y-57833520D01*
X123792080Y-45991520D02*
X123792080Y-50532520D01*
X123752080Y-53292520D02*
X123752080Y-57848520D01*
X123752080Y-45976520D02*
X123752080Y-50532520D01*
X123712080Y-53292520D02*
X123712080Y-57862520D01*
X123712080Y-45962520D02*
X123712080Y-50532520D01*
X123672080Y-53292520D02*
X123672080Y-57875520D01*
X123672080Y-45949520D02*
X123672080Y-50532520D01*
X123632080Y-53292520D02*
X123632080Y-57889520D01*
X123632080Y-45935520D02*
X123632080Y-50532520D01*
X123592080Y-53292520D02*
X123592080Y-57902520D01*
X123592080Y-45922520D02*
X123592080Y-50532520D01*
X123552080Y-53292520D02*
X123552080Y-57915520D01*
X123552080Y-45909520D02*
X123552080Y-50532520D01*
X123512080Y-53292520D02*
X123512080Y-57927520D01*
X123512080Y-45897520D02*
X123512080Y-50532520D01*
X123472080Y-53292520D02*
X123472080Y-57940520D01*
X123472080Y-45884520D02*
X123472080Y-50532520D01*
X123432080Y-53292520D02*
X123432080Y-57952520D01*
X123432080Y-45872520D02*
X123432080Y-50532520D01*
X123392080Y-53292520D02*
X123392080Y-57963520D01*
X123392080Y-45861520D02*
X123392080Y-50532520D01*
X123352080Y-53292520D02*
X123352080Y-57975520D01*
X123352080Y-45849520D02*
X123352080Y-50532520D01*
X123312080Y-53292520D02*
X123312080Y-57986520D01*
X123312080Y-45838520D02*
X123312080Y-50532520D01*
X123272080Y-53292520D02*
X123272080Y-57997520D01*
X123272080Y-45827520D02*
X123272080Y-50532520D01*
X123232080Y-53292520D02*
X123232080Y-58007520D01*
X123232080Y-45817520D02*
X123232080Y-50532520D01*
X123192080Y-53292520D02*
X123192080Y-58018520D01*
X123192080Y-45806520D02*
X123192080Y-50532520D01*
X123152080Y-53292520D02*
X123152080Y-58028520D01*
X123152080Y-45796520D02*
X123152080Y-50532520D01*
X123112080Y-53292520D02*
X123112080Y-58037520D01*
X123112080Y-45787520D02*
X123112080Y-50532520D01*
X123072080Y-53292520D02*
X123072080Y-58047520D01*
X123072080Y-45777520D02*
X123072080Y-50532520D01*
X123032080Y-53292520D02*
X123032080Y-58056520D01*
X123032080Y-45768520D02*
X123032080Y-50532520D01*
X122992080Y-53292520D02*
X122992080Y-58065520D01*
X122992080Y-45759520D02*
X122992080Y-50532520D01*
X122952080Y-53292520D02*
X122952080Y-58074520D01*
X122952080Y-45750520D02*
X122952080Y-50532520D01*
X122912080Y-53292520D02*
X122912080Y-58082520D01*
X122912080Y-45742520D02*
X122912080Y-50532520D01*
X122872080Y-53292520D02*
X122872080Y-58090520D01*
X122872080Y-45734520D02*
X122872080Y-50532520D01*
X122832080Y-53292520D02*
X122832080Y-58098520D01*
X122832080Y-45726520D02*
X122832080Y-50532520D01*
X122792080Y-53292520D02*
X122792080Y-58105520D01*
X122792080Y-45719520D02*
X122792080Y-50532520D01*
X122752080Y-53292520D02*
X122752080Y-58113520D01*
X122752080Y-45711520D02*
X122752080Y-50532520D01*
X122712080Y-45704520D02*
X122712080Y-58120520D01*
X122672080Y-45697520D02*
X122672080Y-58127520D01*
X122632080Y-45691520D02*
X122632080Y-58133520D01*
X122592080Y-45685520D02*
X122592080Y-58139520D01*
X122552080Y-45679520D02*
X122552080Y-58145520D01*
X122512080Y-45673520D02*
X122512080Y-58151520D01*
X122472080Y-45667520D02*
X122472080Y-58157520D01*
X122432080Y-45662520D02*
X122432080Y-58162520D01*
X122392080Y-45657520D02*
X122392080Y-58167520D01*
X122352080Y-45653520D02*
X122352080Y-58171520D01*
X122311080Y-45648520D02*
X122311080Y-58176520D01*
X122271080Y-45644520D02*
X122271080Y-58180520D01*
X122231080Y-45640520D02*
X122231080Y-58184520D01*
X122191080Y-45636520D02*
X122191080Y-58188520D01*
X122151080Y-45633520D02*
X122151080Y-58191520D01*
X122111080Y-45630520D02*
X122111080Y-58194520D01*
X122071080Y-45627520D02*
X122071080Y-58197520D01*
X122031080Y-45624520D02*
X122031080Y-58200520D01*
X121991080Y-45622520D02*
X121991080Y-58202520D01*
X121951080Y-45620520D02*
X121951080Y-58204520D01*
X121911080Y-45618520D02*
X121911080Y-58206520D01*
X121871080Y-45616520D02*
X121871080Y-58208520D01*
X121831080Y-45615520D02*
X121831080Y-58209520D01*
X121791080Y-45614520D02*
X121791080Y-58210520D01*
X121751080Y-45613520D02*
X121751080Y-58211520D01*
X121711080Y-45612520D02*
X121711080Y-58212520D01*
X121671080Y-45612520D02*
X121671080Y-58212520D01*
X121631080Y-45612520D02*
X121631080Y-58212520D01*
X127971080Y-51912520D02*
G75*
G03X127971080Y-51912520I-6340000J0D01*
G01*
X82179320Y-47229400D02*
G75*
G03X82179320Y-47229400I-6340000J0D01*
G01*
X82139320Y-47229400D02*
X69539320Y-47229400D01*
X82139320Y-47269400D02*
X69539320Y-47269400D01*
X82139320Y-47309400D02*
X69539320Y-47309400D01*
X82138320Y-47349400D02*
X69540320Y-47349400D01*
X82137320Y-47389400D02*
X69541320Y-47389400D01*
X82136320Y-47429400D02*
X69542320Y-47429400D01*
X82135320Y-47469400D02*
X69543320Y-47469400D01*
X82133320Y-47509400D02*
X69545320Y-47509400D01*
X82131320Y-47549400D02*
X69547320Y-47549400D01*
X82129320Y-47589400D02*
X69549320Y-47589400D01*
X82127320Y-47629400D02*
X69551320Y-47629400D01*
X82124320Y-47669400D02*
X69554320Y-47669400D01*
X82121320Y-47709400D02*
X69557320Y-47709400D01*
X82118320Y-47749400D02*
X69560320Y-47749400D01*
X82115320Y-47789400D02*
X69563320Y-47789400D01*
X82111320Y-47829400D02*
X69567320Y-47829400D01*
X82107320Y-47869400D02*
X69571320Y-47869400D01*
X82103320Y-47909400D02*
X69575320Y-47909400D01*
X82098320Y-47950400D02*
X69580320Y-47950400D01*
X82094320Y-47990400D02*
X69584320Y-47990400D01*
X82089320Y-48030400D02*
X69589320Y-48030400D01*
X82084320Y-48070400D02*
X69594320Y-48070400D01*
X82078320Y-48110400D02*
X69600320Y-48110400D01*
X82072320Y-48150400D02*
X69606320Y-48150400D01*
X82066320Y-48190400D02*
X69612320Y-48190400D01*
X82060320Y-48230400D02*
X69618320Y-48230400D01*
X82054320Y-48270400D02*
X69624320Y-48270400D01*
X82047320Y-48310400D02*
X69631320Y-48310400D01*
X82040320Y-48350400D02*
X77219320Y-48350400D01*
X74459320Y-48350400D02*
X69638320Y-48350400D01*
X82032320Y-48390400D02*
X77219320Y-48390400D01*
X74459320Y-48390400D02*
X69646320Y-48390400D01*
X82025320Y-48430400D02*
X77219320Y-48430400D01*
X74459320Y-48430400D02*
X69653320Y-48430400D01*
X82017320Y-48470400D02*
X77219320Y-48470400D01*
X74459320Y-48470400D02*
X69661320Y-48470400D01*
X82009320Y-48510400D02*
X77219320Y-48510400D01*
X74459320Y-48510400D02*
X69669320Y-48510400D01*
X82001320Y-48550400D02*
X77219320Y-48550400D01*
X74459320Y-48550400D02*
X69677320Y-48550400D01*
X81992320Y-48590400D02*
X77219320Y-48590400D01*
X74459320Y-48590400D02*
X69686320Y-48590400D01*
X81983320Y-48630400D02*
X77219320Y-48630400D01*
X74459320Y-48630400D02*
X69695320Y-48630400D01*
X81974320Y-48670400D02*
X77219320Y-48670400D01*
X74459320Y-48670400D02*
X69704320Y-48670400D01*
X81964320Y-48710400D02*
X77219320Y-48710400D01*
X74459320Y-48710400D02*
X69714320Y-48710400D01*
X81955320Y-48750400D02*
X77219320Y-48750400D01*
X74459320Y-48750400D02*
X69723320Y-48750400D01*
X81945320Y-48790400D02*
X77219320Y-48790400D01*
X74459320Y-48790400D02*
X69733320Y-48790400D01*
X81934320Y-48830400D02*
X77219320Y-48830400D01*
X74459320Y-48830400D02*
X69744320Y-48830400D01*
X81924320Y-48870400D02*
X77219320Y-48870400D01*
X74459320Y-48870400D02*
X69754320Y-48870400D01*
X81913320Y-48910400D02*
X77219320Y-48910400D01*
X74459320Y-48910400D02*
X69765320Y-48910400D01*
X81902320Y-48950400D02*
X77219320Y-48950400D01*
X74459320Y-48950400D02*
X69776320Y-48950400D01*
X81890320Y-48990400D02*
X77219320Y-48990400D01*
X74459320Y-48990400D02*
X69788320Y-48990400D01*
X81879320Y-49030400D02*
X77219320Y-49030400D01*
X74459320Y-49030400D02*
X69799320Y-49030400D01*
X81867320Y-49070400D02*
X77219320Y-49070400D01*
X74459320Y-49070400D02*
X69811320Y-49070400D01*
X81854320Y-49110400D02*
X77219320Y-49110400D01*
X74459320Y-49110400D02*
X69824320Y-49110400D01*
X81842320Y-49150400D02*
X77219320Y-49150400D01*
X74459320Y-49150400D02*
X69836320Y-49150400D01*
X81829320Y-49190400D02*
X77219320Y-49190400D01*
X74459320Y-49190400D02*
X69849320Y-49190400D01*
X81816320Y-49230400D02*
X77219320Y-49230400D01*
X74459320Y-49230400D02*
X69862320Y-49230400D01*
X81802320Y-49270400D02*
X77219320Y-49270400D01*
X74459320Y-49270400D02*
X69876320Y-49270400D01*
X81789320Y-49310400D02*
X77219320Y-49310400D01*
X74459320Y-49310400D02*
X69889320Y-49310400D01*
X81775320Y-49350400D02*
X77219320Y-49350400D01*
X74459320Y-49350400D02*
X69903320Y-49350400D01*
X81760320Y-49390400D02*
X77219320Y-49390400D01*
X74459320Y-49390400D02*
X69918320Y-49390400D01*
X81746320Y-49430400D02*
X77219320Y-49430400D01*
X74459320Y-49430400D02*
X69932320Y-49430400D01*
X81731320Y-49470400D02*
X77219320Y-49470400D01*
X74459320Y-49470400D02*
X69947320Y-49470400D01*
X81715320Y-49510400D02*
X77219320Y-49510400D01*
X74459320Y-49510400D02*
X69963320Y-49510400D01*
X81700320Y-49550400D02*
X77219320Y-49550400D01*
X74459320Y-49550400D02*
X69978320Y-49550400D01*
X81684320Y-49590400D02*
X77219320Y-49590400D01*
X74459320Y-49590400D02*
X69994320Y-49590400D01*
X81668320Y-49630400D02*
X77219320Y-49630400D01*
X74459320Y-49630400D02*
X70010320Y-49630400D01*
X81651320Y-49670400D02*
X77219320Y-49670400D01*
X74459320Y-49670400D02*
X70027320Y-49670400D01*
X81634320Y-49710400D02*
X77219320Y-49710400D01*
X74459320Y-49710400D02*
X70044320Y-49710400D01*
X81617320Y-49750400D02*
X77219320Y-49750400D01*
X74459320Y-49750400D02*
X70061320Y-49750400D01*
X81600320Y-49790400D02*
X77219320Y-49790400D01*
X74459320Y-49790400D02*
X70078320Y-49790400D01*
X81582320Y-49830400D02*
X77219320Y-49830400D01*
X74459320Y-49830400D02*
X70096320Y-49830400D01*
X81564320Y-49870400D02*
X77219320Y-49870400D01*
X74459320Y-49870400D02*
X70114320Y-49870400D01*
X81545320Y-49910400D02*
X77219320Y-49910400D01*
X74459320Y-49910400D02*
X70133320Y-49910400D01*
X81526320Y-49950400D02*
X77219320Y-49950400D01*
X74459320Y-49950400D02*
X70152320Y-49950400D01*
X81507320Y-49990400D02*
X77219320Y-49990400D01*
X74459320Y-49990400D02*
X70171320Y-49990400D01*
X81488320Y-50030400D02*
X77219320Y-50030400D01*
X74459320Y-50030400D02*
X70190320Y-50030400D01*
X81468320Y-50070400D02*
X77219320Y-50070400D01*
X74459320Y-50070400D02*
X70210320Y-50070400D01*
X81448320Y-50110400D02*
X77219320Y-50110400D01*
X74459320Y-50110400D02*
X70230320Y-50110400D01*
X81427320Y-50150400D02*
X77219320Y-50150400D01*
X74459320Y-50150400D02*
X70251320Y-50150400D01*
X81406320Y-50190400D02*
X77219320Y-50190400D01*
X74459320Y-50190400D02*
X70272320Y-50190400D01*
X81385320Y-50230400D02*
X77219320Y-50230400D01*
X74459320Y-50230400D02*
X70293320Y-50230400D01*
X81363320Y-50270400D02*
X77219320Y-50270400D01*
X74459320Y-50270400D02*
X70315320Y-50270400D01*
X81341320Y-50310400D02*
X77219320Y-50310400D01*
X74459320Y-50310400D02*
X70337320Y-50310400D01*
X81319320Y-50350400D02*
X77219320Y-50350400D01*
X74459320Y-50350400D02*
X70359320Y-50350400D01*
X81296320Y-50390400D02*
X77219320Y-50390400D01*
X74459320Y-50390400D02*
X70382320Y-50390400D01*
X81273320Y-50430400D02*
X77219320Y-50430400D01*
X74459320Y-50430400D02*
X70405320Y-50430400D01*
X81249320Y-50470400D02*
X77219320Y-50470400D01*
X74459320Y-50470400D02*
X70429320Y-50470400D01*
X81225320Y-50510400D02*
X77219320Y-50510400D01*
X74459320Y-50510400D02*
X70453320Y-50510400D01*
X81201320Y-50550400D02*
X77219320Y-50550400D01*
X74459320Y-50550400D02*
X70477320Y-50550400D01*
X81176320Y-50590400D02*
X77219320Y-50590400D01*
X74459320Y-50590400D02*
X70502320Y-50590400D01*
X81151320Y-50630400D02*
X77219320Y-50630400D01*
X74459320Y-50630400D02*
X70527320Y-50630400D01*
X81125320Y-50670400D02*
X77219320Y-50670400D01*
X74459320Y-50670400D02*
X70553320Y-50670400D01*
X81099320Y-50710400D02*
X77219320Y-50710400D01*
X74459320Y-50710400D02*
X70579320Y-50710400D01*
X81073320Y-50750400D02*
X77219320Y-50750400D01*
X74459320Y-50750400D02*
X70605320Y-50750400D01*
X81046320Y-50790400D02*
X77219320Y-50790400D01*
X74459320Y-50790400D02*
X70632320Y-50790400D01*
X81018320Y-50830400D02*
X77219320Y-50830400D01*
X74459320Y-50830400D02*
X70660320Y-50830400D01*
X80990320Y-50870400D02*
X77219320Y-50870400D01*
X74459320Y-50870400D02*
X70688320Y-50870400D01*
X80962320Y-50910400D02*
X77219320Y-50910400D01*
X74459320Y-50910400D02*
X70716320Y-50910400D01*
X80933320Y-50950400D02*
X77219320Y-50950400D01*
X74459320Y-50950400D02*
X70745320Y-50950400D01*
X80904320Y-50990400D02*
X77219320Y-50990400D01*
X74459320Y-50990400D02*
X70774320Y-50990400D01*
X80874320Y-51030400D02*
X77219320Y-51030400D01*
X74459320Y-51030400D02*
X70804320Y-51030400D01*
X80844320Y-51070400D02*
X77219320Y-51070400D01*
X74459320Y-51070400D02*
X70834320Y-51070400D01*
X80814320Y-51110400D02*
X70864320Y-51110400D01*
X80782320Y-51150400D02*
X70896320Y-51150400D01*
X80751320Y-51190400D02*
X70927320Y-51190400D01*
X80718320Y-51230400D02*
X70960320Y-51230400D01*
X80686320Y-51270400D02*
X70992320Y-51270400D01*
X80652320Y-51310400D02*
X71026320Y-51310400D01*
X80618320Y-51350400D02*
X71060320Y-51350400D01*
X80584320Y-51390400D02*
X71094320Y-51390400D01*
X80549320Y-51430400D02*
X71129320Y-51430400D01*
X80513320Y-51470400D02*
X71165320Y-51470400D01*
X80477320Y-51510400D02*
X71201320Y-51510400D01*
X80440320Y-51550400D02*
X71238320Y-51550400D01*
X80402320Y-51590400D02*
X71276320Y-51590400D01*
X80364320Y-51630400D02*
X71314320Y-51630400D01*
X80325320Y-51670400D02*
X71353320Y-51670400D01*
X80286320Y-51710400D02*
X71392320Y-51710400D01*
X80245320Y-51750400D02*
X71433320Y-51750400D01*
X80204320Y-51790400D02*
X71474320Y-51790400D01*
X80162320Y-51830400D02*
X71516320Y-51830400D01*
X80120320Y-51870400D02*
X71558320Y-51870400D01*
X80077320Y-51910400D02*
X71601320Y-51910400D01*
X80032320Y-51950400D02*
X71646320Y-51950400D01*
X79987320Y-51990400D02*
X71691320Y-51990400D01*
X79941320Y-52030400D02*
X71737320Y-52030400D01*
X79895320Y-52070400D02*
X71783320Y-52070400D01*
X79847320Y-52110400D02*
X71831320Y-52110400D01*
X79798320Y-52150400D02*
X71880320Y-52150400D01*
X79748320Y-52190400D02*
X71930320Y-52190400D01*
X79698320Y-52230400D02*
X71980320Y-52230400D01*
X79646320Y-52270400D02*
X72032320Y-52270400D01*
X79593320Y-52310400D02*
X72085320Y-52310400D01*
X79539320Y-52350400D02*
X72139320Y-52350400D01*
X79483320Y-52390400D02*
X72195320Y-52390400D01*
X79427320Y-52430400D02*
X72251320Y-52430400D01*
X79369320Y-52470400D02*
X72309320Y-52470400D01*
X79309320Y-52510400D02*
X72369320Y-52510400D01*
X79248320Y-52550400D02*
X72430320Y-52550400D01*
X79186320Y-52590400D02*
X72492320Y-52590400D01*
X79121320Y-52630400D02*
X72557320Y-52630400D01*
X79056320Y-52670400D02*
X72622320Y-52670400D01*
X78988320Y-52710400D02*
X72690320Y-52710400D01*
X78918320Y-52750400D02*
X72760320Y-52750400D01*
X78846320Y-52790400D02*
X72832320Y-52790400D01*
X78772320Y-52830400D02*
X72906320Y-52830400D01*
X78695320Y-52870400D02*
X72983320Y-52870400D01*
X78616320Y-52910400D02*
X73062320Y-52910400D01*
X78534320Y-52950400D02*
X73144320Y-52950400D01*
X78449320Y-52990400D02*
X73229320Y-52990400D01*
X78360320Y-53030400D02*
X73318320Y-53030400D01*
X78267320Y-53070400D02*
X73411320Y-53070400D01*
X78170320Y-53110400D02*
X73508320Y-53110400D01*
X78069320Y-53150400D02*
X73609320Y-53150400D01*
X77961320Y-53190400D02*
X73717320Y-53190400D01*
X77848320Y-53230400D02*
X73830320Y-53230400D01*
X77727320Y-53270400D02*
X73951320Y-53270400D01*
X77596320Y-53310400D02*
X74082320Y-53310400D01*
X77455320Y-53350400D02*
X74223320Y-53350400D01*
X77299320Y-53390400D02*
X74379320Y-53390400D01*
X77124320Y-53430400D02*
X74554320Y-53430400D01*
X76921320Y-53470400D02*
X74757320Y-53470400D01*
X76670320Y-53510400D02*
X75008320Y-53510400D01*
X76303320Y-53550400D02*
X75375320Y-53550400D01*
X75839320Y-41529400D02*
X75839320Y-43329400D01*
X76739320Y-42429400D02*
X74939320Y-42429400D01*
X100433200Y-39731000D02*
X100433200Y-44851000D01*
X87813200Y-39731000D02*
X87813200Y-44851000D01*
X87813200Y-44851000D02*
X100433200Y-44851000D01*
X87813200Y-39731000D02*
X100433200Y-39731000D01*
X81883280Y-67625800D02*
X81883280Y-65825800D01*
X82783280Y-66725800D02*
X80983280Y-66725800D01*
X70762280Y-67189800D02*
X70762280Y-66261800D01*
X70802280Y-67556800D02*
X70802280Y-65894800D01*
X70842280Y-67807800D02*
X70842280Y-65643800D01*
X70882280Y-68010800D02*
X70882280Y-65440800D01*
X70922280Y-68185800D02*
X70922280Y-65265800D01*
X70962280Y-68341800D02*
X70962280Y-65109800D01*
X71002280Y-68482800D02*
X71002280Y-64968800D01*
X71042280Y-68613800D02*
X71042280Y-64837800D01*
X71082280Y-68734800D02*
X71082280Y-64716800D01*
X71122280Y-68847800D02*
X71122280Y-64603800D01*
X71162280Y-68955800D02*
X71162280Y-64495800D01*
X71202280Y-69056800D02*
X71202280Y-64394800D01*
X71242280Y-69153800D02*
X71242280Y-64297800D01*
X71282280Y-69246800D02*
X71282280Y-64204800D01*
X71322280Y-69335800D02*
X71322280Y-64115800D01*
X71362280Y-69420800D02*
X71362280Y-64030800D01*
X71402280Y-69502800D02*
X71402280Y-63948800D01*
X71442280Y-69581800D02*
X71442280Y-63869800D01*
X71482280Y-69658800D02*
X71482280Y-63792800D01*
X71522280Y-69732800D02*
X71522280Y-63718800D01*
X71562280Y-69804800D02*
X71562280Y-63646800D01*
X71602280Y-69874800D02*
X71602280Y-63576800D01*
X71642280Y-69942800D02*
X71642280Y-63508800D01*
X71682280Y-70007800D02*
X71682280Y-63443800D01*
X71722280Y-70072800D02*
X71722280Y-63378800D01*
X71762280Y-70134800D02*
X71762280Y-63316800D01*
X71802280Y-70195800D02*
X71802280Y-63255800D01*
X71842280Y-70255800D02*
X71842280Y-63195800D01*
X71882280Y-70313800D02*
X71882280Y-63137800D01*
X71922280Y-70369800D02*
X71922280Y-63081800D01*
X71962280Y-70425800D02*
X71962280Y-63025800D01*
X72002280Y-70479800D02*
X72002280Y-62971800D01*
X72042280Y-70532800D02*
X72042280Y-62918800D01*
X72082280Y-70584800D02*
X72082280Y-62866800D01*
X72122280Y-70634800D02*
X72122280Y-62816800D01*
X72162280Y-70684800D02*
X72162280Y-62766800D01*
X72202280Y-70733800D02*
X72202280Y-62717800D01*
X72242280Y-70781800D02*
X72242280Y-62669800D01*
X72282280Y-70827800D02*
X72282280Y-62623800D01*
X72322280Y-70873800D02*
X72322280Y-62577800D01*
X72362280Y-70918800D02*
X72362280Y-62532800D01*
X72402280Y-70963800D02*
X72402280Y-62487800D01*
X72442280Y-71006800D02*
X72442280Y-62444800D01*
X72482280Y-71048800D02*
X72482280Y-62402800D01*
X72522280Y-71090800D02*
X72522280Y-62360800D01*
X72562280Y-71131800D02*
X72562280Y-62319800D01*
X72602280Y-71172800D02*
X72602280Y-62278800D01*
X72642280Y-71211800D02*
X72642280Y-62239800D01*
X72682280Y-71250800D02*
X72682280Y-62200800D01*
X72722280Y-71288800D02*
X72722280Y-62162800D01*
X72762280Y-71326800D02*
X72762280Y-62124800D01*
X72802280Y-71363800D02*
X72802280Y-62087800D01*
X72842280Y-71399800D02*
X72842280Y-62051800D01*
X72882280Y-71435800D02*
X72882280Y-62015800D01*
X72922280Y-71470800D02*
X72922280Y-61980800D01*
X72962280Y-71504800D02*
X72962280Y-61946800D01*
X73002280Y-71538800D02*
X73002280Y-61912800D01*
X73042280Y-71572800D02*
X73042280Y-61878800D01*
X73082280Y-71604800D02*
X73082280Y-61846800D01*
X73122280Y-71637800D02*
X73122280Y-61813800D01*
X73162280Y-71668800D02*
X73162280Y-61782800D01*
X73202280Y-71700800D02*
X73202280Y-61750800D01*
X73242280Y-65345800D02*
X73242280Y-61720800D01*
X73242280Y-71730800D02*
X73242280Y-68105800D01*
X73282280Y-65345800D02*
X73282280Y-61690800D01*
X73282280Y-71760800D02*
X73282280Y-68105800D01*
X73322280Y-65345800D02*
X73322280Y-61660800D01*
X73322280Y-71790800D02*
X73322280Y-68105800D01*
X73362280Y-65345800D02*
X73362280Y-61631800D01*
X73362280Y-71819800D02*
X73362280Y-68105800D01*
X73402280Y-65345800D02*
X73402280Y-61602800D01*
X73402280Y-71848800D02*
X73402280Y-68105800D01*
X73442280Y-65345800D02*
X73442280Y-61574800D01*
X73442280Y-71876800D02*
X73442280Y-68105800D01*
X73482280Y-65345800D02*
X73482280Y-61546800D01*
X73482280Y-71904800D02*
X73482280Y-68105800D01*
X73522280Y-65345800D02*
X73522280Y-61518800D01*
X73522280Y-71932800D02*
X73522280Y-68105800D01*
X73562280Y-65345800D02*
X73562280Y-61491800D01*
X73562280Y-71959800D02*
X73562280Y-68105800D01*
X73602280Y-65345800D02*
X73602280Y-61465800D01*
X73602280Y-71985800D02*
X73602280Y-68105800D01*
X73642280Y-65345800D02*
X73642280Y-61439800D01*
X73642280Y-72011800D02*
X73642280Y-68105800D01*
X73682280Y-65345800D02*
X73682280Y-61413800D01*
X73682280Y-72037800D02*
X73682280Y-68105800D01*
X73722280Y-65345800D02*
X73722280Y-61388800D01*
X73722280Y-72062800D02*
X73722280Y-68105800D01*
X73762280Y-65345800D02*
X73762280Y-61363800D01*
X73762280Y-72087800D02*
X73762280Y-68105800D01*
X73802280Y-65345800D02*
X73802280Y-61339800D01*
X73802280Y-72111800D02*
X73802280Y-68105800D01*
X73842280Y-65345800D02*
X73842280Y-61315800D01*
X73842280Y-72135800D02*
X73842280Y-68105800D01*
X73882280Y-65345800D02*
X73882280Y-61291800D01*
X73882280Y-72159800D02*
X73882280Y-68105800D01*
X73922280Y-65345800D02*
X73922280Y-61268800D01*
X73922280Y-72182800D02*
X73922280Y-68105800D01*
X73962280Y-65345800D02*
X73962280Y-61245800D01*
X73962280Y-72205800D02*
X73962280Y-68105800D01*
X74002280Y-65345800D02*
X74002280Y-61223800D01*
X74002280Y-72227800D02*
X74002280Y-68105800D01*
X74042280Y-65345800D02*
X74042280Y-61201800D01*
X74042280Y-72249800D02*
X74042280Y-68105800D01*
X74082280Y-65345800D02*
X74082280Y-61179800D01*
X74082280Y-72271800D02*
X74082280Y-68105800D01*
X74122280Y-65345800D02*
X74122280Y-61158800D01*
X74122280Y-72292800D02*
X74122280Y-68105800D01*
X74162280Y-65345800D02*
X74162280Y-61137800D01*
X74162280Y-72313800D02*
X74162280Y-68105800D01*
X74202280Y-65345800D02*
X74202280Y-61116800D01*
X74202280Y-72334800D02*
X74202280Y-68105800D01*
X74242280Y-65345800D02*
X74242280Y-61096800D01*
X74242280Y-72354800D02*
X74242280Y-68105800D01*
X74282280Y-65345800D02*
X74282280Y-61076800D01*
X74282280Y-72374800D02*
X74282280Y-68105800D01*
X74322280Y-65345800D02*
X74322280Y-61057800D01*
X74322280Y-72393800D02*
X74322280Y-68105800D01*
X74362280Y-65345800D02*
X74362280Y-61038800D01*
X74362280Y-72412800D02*
X74362280Y-68105800D01*
X74402280Y-65345800D02*
X74402280Y-61019800D01*
X74402280Y-72431800D02*
X74402280Y-68105800D01*
X74442280Y-65345800D02*
X74442280Y-61000800D01*
X74442280Y-72450800D02*
X74442280Y-68105800D01*
X74482280Y-65345800D02*
X74482280Y-60982800D01*
X74482280Y-72468800D02*
X74482280Y-68105800D01*
X74522280Y-65345800D02*
X74522280Y-60964800D01*
X74522280Y-72486800D02*
X74522280Y-68105800D01*
X74562280Y-65345800D02*
X74562280Y-60947800D01*
X74562280Y-72503800D02*
X74562280Y-68105800D01*
X74602280Y-65345800D02*
X74602280Y-60930800D01*
X74602280Y-72520800D02*
X74602280Y-68105800D01*
X74642280Y-65345800D02*
X74642280Y-60913800D01*
X74642280Y-72537800D02*
X74642280Y-68105800D01*
X74682280Y-65345800D02*
X74682280Y-60896800D01*
X74682280Y-72554800D02*
X74682280Y-68105800D01*
X74722280Y-65345800D02*
X74722280Y-60880800D01*
X74722280Y-72570800D02*
X74722280Y-68105800D01*
X74762280Y-65345800D02*
X74762280Y-60864800D01*
X74762280Y-72586800D02*
X74762280Y-68105800D01*
X74802280Y-65345800D02*
X74802280Y-60849800D01*
X74802280Y-72601800D02*
X74802280Y-68105800D01*
X74842280Y-65345800D02*
X74842280Y-60833800D01*
X74842280Y-72617800D02*
X74842280Y-68105800D01*
X74882280Y-65345800D02*
X74882280Y-60818800D01*
X74882280Y-72632800D02*
X74882280Y-68105800D01*
X74922280Y-65345800D02*
X74922280Y-60804800D01*
X74922280Y-72646800D02*
X74922280Y-68105800D01*
X74962280Y-65345800D02*
X74962280Y-60789800D01*
X74962280Y-72661800D02*
X74962280Y-68105800D01*
X75002280Y-65345800D02*
X75002280Y-60775800D01*
X75002280Y-72675800D02*
X75002280Y-68105800D01*
X75042280Y-65345800D02*
X75042280Y-60762800D01*
X75042280Y-72688800D02*
X75042280Y-68105800D01*
X75082280Y-65345800D02*
X75082280Y-60748800D01*
X75082280Y-72702800D02*
X75082280Y-68105800D01*
X75122280Y-65345800D02*
X75122280Y-60735800D01*
X75122280Y-72715800D02*
X75122280Y-68105800D01*
X75162280Y-65345800D02*
X75162280Y-60722800D01*
X75162280Y-72728800D02*
X75162280Y-68105800D01*
X75202280Y-65345800D02*
X75202280Y-60710800D01*
X75202280Y-72740800D02*
X75202280Y-68105800D01*
X75242280Y-65345800D02*
X75242280Y-60697800D01*
X75242280Y-72753800D02*
X75242280Y-68105800D01*
X75282280Y-65345800D02*
X75282280Y-60685800D01*
X75282280Y-72765800D02*
X75282280Y-68105800D01*
X75322280Y-65345800D02*
X75322280Y-60674800D01*
X75322280Y-72776800D02*
X75322280Y-68105800D01*
X75362280Y-65345800D02*
X75362280Y-60662800D01*
X75362280Y-72788800D02*
X75362280Y-68105800D01*
X75402280Y-65345800D02*
X75402280Y-60651800D01*
X75402280Y-72799800D02*
X75402280Y-68105800D01*
X75442280Y-65345800D02*
X75442280Y-60640800D01*
X75442280Y-72810800D02*
X75442280Y-68105800D01*
X75482280Y-65345800D02*
X75482280Y-60630800D01*
X75482280Y-72820800D02*
X75482280Y-68105800D01*
X75522280Y-65345800D02*
X75522280Y-60619800D01*
X75522280Y-72831800D02*
X75522280Y-68105800D01*
X75562280Y-65345800D02*
X75562280Y-60609800D01*
X75562280Y-72841800D02*
X75562280Y-68105800D01*
X75602280Y-65345800D02*
X75602280Y-60600800D01*
X75602280Y-72850800D02*
X75602280Y-68105800D01*
X75642280Y-65345800D02*
X75642280Y-60590800D01*
X75642280Y-72860800D02*
X75642280Y-68105800D01*
X75682280Y-65345800D02*
X75682280Y-60581800D01*
X75682280Y-72869800D02*
X75682280Y-68105800D01*
X75722280Y-65345800D02*
X75722280Y-60572800D01*
X75722280Y-72878800D02*
X75722280Y-68105800D01*
X75762280Y-65345800D02*
X75762280Y-60563800D01*
X75762280Y-72887800D02*
X75762280Y-68105800D01*
X75802280Y-65345800D02*
X75802280Y-60555800D01*
X75802280Y-72895800D02*
X75802280Y-68105800D01*
X75842280Y-65345800D02*
X75842280Y-60547800D01*
X75842280Y-72903800D02*
X75842280Y-68105800D01*
X75882280Y-65345800D02*
X75882280Y-60539800D01*
X75882280Y-72911800D02*
X75882280Y-68105800D01*
X75922280Y-65345800D02*
X75922280Y-60532800D01*
X75922280Y-72918800D02*
X75922280Y-68105800D01*
X75962280Y-65345800D02*
X75962280Y-60524800D01*
X75962280Y-72926800D02*
X75962280Y-68105800D01*
X76002280Y-72933800D02*
X76002280Y-60517800D01*
X76042280Y-72940800D02*
X76042280Y-60510800D01*
X76082280Y-72946800D02*
X76082280Y-60504800D01*
X76122280Y-72952800D02*
X76122280Y-60498800D01*
X76162280Y-72958800D02*
X76162280Y-60492800D01*
X76202280Y-72964800D02*
X76202280Y-60486800D01*
X76242280Y-72970800D02*
X76242280Y-60480800D01*
X76282280Y-72975800D02*
X76282280Y-60475800D01*
X76322280Y-72980800D02*
X76322280Y-60470800D01*
X76362280Y-72984800D02*
X76362280Y-60466800D01*
X76403280Y-72989800D02*
X76403280Y-60461800D01*
X76443280Y-72993800D02*
X76443280Y-60457800D01*
X76483280Y-72997800D02*
X76483280Y-60453800D01*
X76523280Y-73001800D02*
X76523280Y-60449800D01*
X76563280Y-73004800D02*
X76563280Y-60446800D01*
X76603280Y-73007800D02*
X76603280Y-60443800D01*
X76643280Y-73010800D02*
X76643280Y-60440800D01*
X76683280Y-73013800D02*
X76683280Y-60437800D01*
X76723280Y-73015800D02*
X76723280Y-60435800D01*
X76763280Y-73017800D02*
X76763280Y-60433800D01*
X76803280Y-73019800D02*
X76803280Y-60431800D01*
X76843280Y-73021800D02*
X76843280Y-60429800D01*
X76883280Y-73022800D02*
X76883280Y-60428800D01*
X76923280Y-73023800D02*
X76923280Y-60427800D01*
X76963280Y-73024800D02*
X76963280Y-60426800D01*
X77003280Y-73025800D02*
X77003280Y-60425800D01*
X77043280Y-73025800D02*
X77043280Y-60425800D01*
X77083280Y-73025800D02*
X77083280Y-60425800D01*
X83423280Y-66725800D02*
G75*
G03X83423280Y-66725800I-6340000J0D01*
G01*
X80503600Y-26285160D02*
X78703600Y-26285160D01*
X79603600Y-25385160D02*
X79603600Y-27185160D01*
X80067600Y-37406160D02*
X79139600Y-37406160D01*
X80434600Y-37366160D02*
X78772600Y-37366160D01*
X80685600Y-37326160D02*
X78521600Y-37326160D01*
X80888600Y-37286160D02*
X78318600Y-37286160D01*
X81063600Y-37246160D02*
X78143600Y-37246160D01*
X81219600Y-37206160D02*
X77987600Y-37206160D01*
X81360600Y-37166160D02*
X77846600Y-37166160D01*
X81491600Y-37126160D02*
X77715600Y-37126160D01*
X81612600Y-37086160D02*
X77594600Y-37086160D01*
X81725600Y-37046160D02*
X77481600Y-37046160D01*
X81833600Y-37006160D02*
X77373600Y-37006160D01*
X81934600Y-36966160D02*
X77272600Y-36966160D01*
X82031600Y-36926160D02*
X77175600Y-36926160D01*
X82124600Y-36886160D02*
X77082600Y-36886160D01*
X82213600Y-36846160D02*
X76993600Y-36846160D01*
X82298600Y-36806160D02*
X76908600Y-36806160D01*
X82380600Y-36766160D02*
X76826600Y-36766160D01*
X82459600Y-36726160D02*
X76747600Y-36726160D01*
X82536600Y-36686160D02*
X76670600Y-36686160D01*
X82610600Y-36646160D02*
X76596600Y-36646160D01*
X82682600Y-36606160D02*
X76524600Y-36606160D01*
X82752600Y-36566160D02*
X76454600Y-36566160D01*
X82820600Y-36526160D02*
X76386600Y-36526160D01*
X82885600Y-36486160D02*
X76321600Y-36486160D01*
X82950600Y-36446160D02*
X76256600Y-36446160D01*
X83012600Y-36406160D02*
X76194600Y-36406160D01*
X83073600Y-36366160D02*
X76133600Y-36366160D01*
X83133600Y-36326160D02*
X76073600Y-36326160D01*
X83191600Y-36286160D02*
X76015600Y-36286160D01*
X83247600Y-36246160D02*
X75959600Y-36246160D01*
X83303600Y-36206160D02*
X75903600Y-36206160D01*
X83357600Y-36166160D02*
X75849600Y-36166160D01*
X83410600Y-36126160D02*
X75796600Y-36126160D01*
X83462600Y-36086160D02*
X75744600Y-36086160D01*
X83512600Y-36046160D02*
X75694600Y-36046160D01*
X83562600Y-36006160D02*
X75644600Y-36006160D01*
X83611600Y-35966160D02*
X75595600Y-35966160D01*
X83659600Y-35926160D02*
X75547600Y-35926160D01*
X83705600Y-35886160D02*
X75501600Y-35886160D01*
X83751600Y-35846160D02*
X75455600Y-35846160D01*
X83796600Y-35806160D02*
X75410600Y-35806160D01*
X83841600Y-35766160D02*
X75365600Y-35766160D01*
X83884600Y-35726160D02*
X75322600Y-35726160D01*
X83926600Y-35686160D02*
X75280600Y-35686160D01*
X83968600Y-35646160D02*
X75238600Y-35646160D01*
X84009600Y-35606160D02*
X75197600Y-35606160D01*
X84050600Y-35566160D02*
X75156600Y-35566160D01*
X84089600Y-35526160D02*
X75117600Y-35526160D01*
X84128600Y-35486160D02*
X75078600Y-35486160D01*
X84166600Y-35446160D02*
X75040600Y-35446160D01*
X84204600Y-35406160D02*
X75002600Y-35406160D01*
X84241600Y-35366160D02*
X74965600Y-35366160D01*
X84277600Y-35326160D02*
X74929600Y-35326160D01*
X84313600Y-35286160D02*
X74893600Y-35286160D01*
X84348600Y-35246160D02*
X74858600Y-35246160D01*
X84382600Y-35206160D02*
X74824600Y-35206160D01*
X84416600Y-35166160D02*
X74790600Y-35166160D01*
X84450600Y-35126160D02*
X74756600Y-35126160D01*
X84482600Y-35086160D02*
X74724600Y-35086160D01*
X84515600Y-35046160D02*
X74691600Y-35046160D01*
X84546600Y-35006160D02*
X74660600Y-35006160D01*
X84578600Y-34966160D02*
X74628600Y-34966160D01*
X78223600Y-34926160D02*
X74598600Y-34926160D01*
X84608600Y-34926160D02*
X80983600Y-34926160D01*
X78223600Y-34886160D02*
X74568600Y-34886160D01*
X84638600Y-34886160D02*
X80983600Y-34886160D01*
X78223600Y-34846160D02*
X74538600Y-34846160D01*
X84668600Y-34846160D02*
X80983600Y-34846160D01*
X78223600Y-34806160D02*
X74509600Y-34806160D01*
X84697600Y-34806160D02*
X80983600Y-34806160D01*
X78223600Y-34766160D02*
X74480600Y-34766160D01*
X84726600Y-34766160D02*
X80983600Y-34766160D01*
X78223600Y-34726160D02*
X74452600Y-34726160D01*
X84754600Y-34726160D02*
X80983600Y-34726160D01*
X78223600Y-34686160D02*
X74424600Y-34686160D01*
X84782600Y-34686160D02*
X80983600Y-34686160D01*
X78223600Y-34646160D02*
X74396600Y-34646160D01*
X84810600Y-34646160D02*
X80983600Y-34646160D01*
X78223600Y-34606160D02*
X74369600Y-34606160D01*
X84837600Y-34606160D02*
X80983600Y-34606160D01*
X78223600Y-34566160D02*
X74343600Y-34566160D01*
X84863600Y-34566160D02*
X80983600Y-34566160D01*
X78223600Y-34526160D02*
X74317600Y-34526160D01*
X84889600Y-34526160D02*
X80983600Y-34526160D01*
X78223600Y-34486160D02*
X74291600Y-34486160D01*
X84915600Y-34486160D02*
X80983600Y-34486160D01*
X78223600Y-34446160D02*
X74266600Y-34446160D01*
X84940600Y-34446160D02*
X80983600Y-34446160D01*
X78223600Y-34406160D02*
X74241600Y-34406160D01*
X84965600Y-34406160D02*
X80983600Y-34406160D01*
X78223600Y-34366160D02*
X74217600Y-34366160D01*
X84989600Y-34366160D02*
X80983600Y-34366160D01*
X78223600Y-34326160D02*
X74193600Y-34326160D01*
X85013600Y-34326160D02*
X80983600Y-34326160D01*
X78223600Y-34286160D02*
X74169600Y-34286160D01*
X85037600Y-34286160D02*
X80983600Y-34286160D01*
X78223600Y-34246160D02*
X74146600Y-34246160D01*
X85060600Y-34246160D02*
X80983600Y-34246160D01*
X78223600Y-34206160D02*
X74123600Y-34206160D01*
X85083600Y-34206160D02*
X80983600Y-34206160D01*
X78223600Y-34166160D02*
X74101600Y-34166160D01*
X85105600Y-34166160D02*
X80983600Y-34166160D01*
X78223600Y-34126160D02*
X74079600Y-34126160D01*
X85127600Y-34126160D02*
X80983600Y-34126160D01*
X78223600Y-34086160D02*
X74057600Y-34086160D01*
X85149600Y-34086160D02*
X80983600Y-34086160D01*
X78223600Y-34046160D02*
X74036600Y-34046160D01*
X85170600Y-34046160D02*
X80983600Y-34046160D01*
X78223600Y-34006160D02*
X74015600Y-34006160D01*
X85191600Y-34006160D02*
X80983600Y-34006160D01*
X78223600Y-33966160D02*
X73994600Y-33966160D01*
X85212600Y-33966160D02*
X80983600Y-33966160D01*
X78223600Y-33926160D02*
X73974600Y-33926160D01*
X85232600Y-33926160D02*
X80983600Y-33926160D01*
X78223600Y-33886160D02*
X73954600Y-33886160D01*
X85252600Y-33886160D02*
X80983600Y-33886160D01*
X78223600Y-33846160D02*
X73935600Y-33846160D01*
X85271600Y-33846160D02*
X80983600Y-33846160D01*
X78223600Y-33806160D02*
X73916600Y-33806160D01*
X85290600Y-33806160D02*
X80983600Y-33806160D01*
X78223600Y-33766160D02*
X73897600Y-33766160D01*
X85309600Y-33766160D02*
X80983600Y-33766160D01*
X78223600Y-33726160D02*
X73878600Y-33726160D01*
X85328600Y-33726160D02*
X80983600Y-33726160D01*
X78223600Y-33686160D02*
X73860600Y-33686160D01*
X85346600Y-33686160D02*
X80983600Y-33686160D01*
X78223600Y-33646160D02*
X73842600Y-33646160D01*
X85364600Y-33646160D02*
X80983600Y-33646160D01*
X78223600Y-33606160D02*
X73825600Y-33606160D01*
X85381600Y-33606160D02*
X80983600Y-33606160D01*
X78223600Y-33566160D02*
X73808600Y-33566160D01*
X85398600Y-33566160D02*
X80983600Y-33566160D01*
X78223600Y-33526160D02*
X73791600Y-33526160D01*
X85415600Y-33526160D02*
X80983600Y-33526160D01*
X78223600Y-33486160D02*
X73774600Y-33486160D01*
X85432600Y-33486160D02*
X80983600Y-33486160D01*
X78223600Y-33446160D02*
X73758600Y-33446160D01*
X85448600Y-33446160D02*
X80983600Y-33446160D01*
X78223600Y-33406160D02*
X73742600Y-33406160D01*
X85464600Y-33406160D02*
X80983600Y-33406160D01*
X78223600Y-33366160D02*
X73727600Y-33366160D01*
X85479600Y-33366160D02*
X80983600Y-33366160D01*
X78223600Y-33326160D02*
X73711600Y-33326160D01*
X85495600Y-33326160D02*
X80983600Y-33326160D01*
X78223600Y-33286160D02*
X73696600Y-33286160D01*
X85510600Y-33286160D02*
X80983600Y-33286160D01*
X78223600Y-33246160D02*
X73682600Y-33246160D01*
X85524600Y-33246160D02*
X80983600Y-33246160D01*
X78223600Y-33206160D02*
X73667600Y-33206160D01*
X85539600Y-33206160D02*
X80983600Y-33206160D01*
X78223600Y-33166160D02*
X73653600Y-33166160D01*
X85553600Y-33166160D02*
X80983600Y-33166160D01*
X78223600Y-33126160D02*
X73640600Y-33126160D01*
X85566600Y-33126160D02*
X80983600Y-33126160D01*
X78223600Y-33086160D02*
X73626600Y-33086160D01*
X85580600Y-33086160D02*
X80983600Y-33086160D01*
X78223600Y-33046160D02*
X73613600Y-33046160D01*
X85593600Y-33046160D02*
X80983600Y-33046160D01*
X78223600Y-33006160D02*
X73600600Y-33006160D01*
X85606600Y-33006160D02*
X80983600Y-33006160D01*
X78223600Y-32966160D02*
X73588600Y-32966160D01*
X85618600Y-32966160D02*
X80983600Y-32966160D01*
X78223600Y-32926160D02*
X73575600Y-32926160D01*
X85631600Y-32926160D02*
X80983600Y-32926160D01*
X78223600Y-32886160D02*
X73563600Y-32886160D01*
X85643600Y-32886160D02*
X80983600Y-32886160D01*
X78223600Y-32846160D02*
X73552600Y-32846160D01*
X85654600Y-32846160D02*
X80983600Y-32846160D01*
X78223600Y-32806160D02*
X73540600Y-32806160D01*
X85666600Y-32806160D02*
X80983600Y-32806160D01*
X78223600Y-32766160D02*
X73529600Y-32766160D01*
X85677600Y-32766160D02*
X80983600Y-32766160D01*
X78223600Y-32726160D02*
X73518600Y-32726160D01*
X85688600Y-32726160D02*
X80983600Y-32726160D01*
X78223600Y-32686160D02*
X73508600Y-32686160D01*
X85698600Y-32686160D02*
X80983600Y-32686160D01*
X78223600Y-32646160D02*
X73497600Y-32646160D01*
X85709600Y-32646160D02*
X80983600Y-32646160D01*
X78223600Y-32606160D02*
X73487600Y-32606160D01*
X85719600Y-32606160D02*
X80983600Y-32606160D01*
X78223600Y-32566160D02*
X73478600Y-32566160D01*
X85728600Y-32566160D02*
X80983600Y-32566160D01*
X78223600Y-32526160D02*
X73468600Y-32526160D01*
X85738600Y-32526160D02*
X80983600Y-32526160D01*
X78223600Y-32486160D02*
X73459600Y-32486160D01*
X85747600Y-32486160D02*
X80983600Y-32486160D01*
X78223600Y-32446160D02*
X73450600Y-32446160D01*
X85756600Y-32446160D02*
X80983600Y-32446160D01*
X78223600Y-32406160D02*
X73441600Y-32406160D01*
X85765600Y-32406160D02*
X80983600Y-32406160D01*
X78223600Y-32366160D02*
X73433600Y-32366160D01*
X85773600Y-32366160D02*
X80983600Y-32366160D01*
X78223600Y-32326160D02*
X73425600Y-32326160D01*
X85781600Y-32326160D02*
X80983600Y-32326160D01*
X78223600Y-32286160D02*
X73417600Y-32286160D01*
X85789600Y-32286160D02*
X80983600Y-32286160D01*
X78223600Y-32246160D02*
X73410600Y-32246160D01*
X85796600Y-32246160D02*
X80983600Y-32246160D01*
X78223600Y-32206160D02*
X73402600Y-32206160D01*
X85804600Y-32206160D02*
X80983600Y-32206160D01*
X85811600Y-32166160D02*
X73395600Y-32166160D01*
X85818600Y-32126160D02*
X73388600Y-32126160D01*
X85824600Y-32086160D02*
X73382600Y-32086160D01*
X85830600Y-32046160D02*
X73376600Y-32046160D01*
X85836600Y-32006160D02*
X73370600Y-32006160D01*
X85842600Y-31966160D02*
X73364600Y-31966160D01*
X85848600Y-31926160D02*
X73358600Y-31926160D01*
X85853600Y-31886160D02*
X73353600Y-31886160D01*
X85858600Y-31846160D02*
X73348600Y-31846160D01*
X85862600Y-31806160D02*
X73344600Y-31806160D01*
X85867600Y-31765160D02*
X73339600Y-31765160D01*
X85871600Y-31725160D02*
X73335600Y-31725160D01*
X85875600Y-31685160D02*
X73331600Y-31685160D01*
X85879600Y-31645160D02*
X73327600Y-31645160D01*
X85882600Y-31605160D02*
X73324600Y-31605160D01*
X85885600Y-31565160D02*
X73321600Y-31565160D01*
X85888600Y-31525160D02*
X73318600Y-31525160D01*
X85891600Y-31485160D02*
X73315600Y-31485160D01*
X85893600Y-31445160D02*
X73313600Y-31445160D01*
X85895600Y-31405160D02*
X73311600Y-31405160D01*
X85897600Y-31365160D02*
X73309600Y-31365160D01*
X85899600Y-31325160D02*
X73307600Y-31325160D01*
X85900600Y-31285160D02*
X73306600Y-31285160D01*
X85901600Y-31245160D02*
X73305600Y-31245160D01*
X85902600Y-31205160D02*
X73304600Y-31205160D01*
X85903600Y-31165160D02*
X73303600Y-31165160D01*
X85903600Y-31125160D02*
X73303600Y-31125160D01*
X85903600Y-31085160D02*
X73303600Y-31085160D01*
X85943600Y-31085160D02*
G75*
G03X85943600Y-31085160I-6340000J0D01*
G01*
X128952640Y-46022400D02*
X134272640Y-46022400D01*
X131612640Y-36857400D02*
X131612640Y-37887400D01*
X131612640Y-48537400D02*
X131612640Y-47507400D01*
X128952640Y-37887400D02*
X128952640Y-47507400D01*
X134272640Y-37887400D02*
X128952640Y-37887400D01*
X134272640Y-47507400D02*
X134272640Y-37887400D01*
X128952640Y-47507400D02*
X134272640Y-47507400D01*
X110389160Y-103471360D02*
X110389160Y-108791360D01*
X110389160Y-108791360D02*
X120009160Y-108791360D01*
X120009160Y-108791360D02*
X120009160Y-103471360D01*
X120009160Y-103471360D02*
X110389160Y-103471360D01*
X109359160Y-106131360D02*
X110389160Y-106131360D01*
X121039160Y-106131360D02*
X120009160Y-106131360D01*
X111874160Y-103471360D02*
X111874160Y-108791360D01*
X67892160Y-102064880D02*
X68211160Y-102064880D01*
X65413160Y-102064880D02*
X65732160Y-102064880D01*
X67893121Y-98322167D02*
G75*
G02X67892160Y-101688210I-1080961J-1682713D01*
G01*
X65731199Y-98322167D02*
G75*
G03X65732160Y-101688210I1080961J-1682713D01*
G01*
X67892884Y-97761638D02*
G75*
G02X68210909Y-102064880I-1080724J-2243242D01*
G01*
X65731436Y-97761638D02*
G75*
G03X65413411Y-102064880I1080724J-2243242D01*
G01*
X56842360Y-47389400D02*
X59662360Y-47389400D01*
X59662360Y-47389400D02*
X59662360Y-42069400D01*
X59662360Y-42069400D02*
X56842360Y-42069400D01*
X56842360Y-42069400D02*
X56842360Y-47389400D01*
X58252360Y-48529400D02*
X58252360Y-47389400D01*
X58252360Y-40929400D02*
X58252360Y-42069400D01*
X56842360Y-46549400D02*
X59662360Y-46549400D01*
X67527680Y-30244400D02*
X67527680Y-24924400D01*
X67527680Y-24924400D02*
X57907680Y-24924400D01*
X57907680Y-24924400D02*
X57907680Y-30244400D01*
X57907680Y-30244400D02*
X67527680Y-30244400D01*
X68557680Y-27584400D02*
X67527680Y-27584400D01*
X56877680Y-27584400D02*
X57907680Y-27584400D01*
X66042680Y-30244400D02*
X66042680Y-24924400D01*
X66042680Y-36777280D02*
X66042680Y-31457280D01*
X56877680Y-34117280D02*
X57907680Y-34117280D01*
X68557680Y-34117280D02*
X67527680Y-34117280D01*
X57907680Y-36777280D02*
X67527680Y-36777280D01*
X57907680Y-31457280D02*
X57907680Y-36777280D01*
X67527680Y-31457280D02*
X57907680Y-31457280D01*
X67527680Y-36777280D02*
X67527680Y-31457280D01*
X102795918Y-80115364D02*
G75*
G03X107099160Y-80433389I2243242J1080724D01*
G01*
X102795918Y-77953916D02*
G75*
G02X107099160Y-77635891I2243242J-1080724D01*
G01*
X103356447Y-80115601D02*
G75*
G03X106722490Y-80114640I1682713J1080961D01*
G01*
X103356447Y-77953679D02*
G75*
G02X106722490Y-77954640I1682713J-1080961D01*
G01*
X107099160Y-80433640D02*
X107099160Y-80114640D01*
X107099160Y-77954640D02*
X107099160Y-77635640D01*
X103019800Y-85885520D02*
X103019800Y-86204520D01*
X103019800Y-83406520D02*
X103019800Y-83725520D01*
X106762513Y-85886481D02*
G75*
G02X103396470Y-85885520I-1682713J1080961D01*
G01*
X106762513Y-83724559D02*
G75*
G03X103396470Y-83725520I-1682713J-1080961D01*
G01*
X107323042Y-85886244D02*
G75*
G02X103019800Y-86204269I-2243242J1080724D01*
G01*
X107323042Y-83724796D02*
G75*
G03X103019800Y-83406771I-2243242J-1080724D01*
G01*
X136171320Y-46022400D02*
X141491320Y-46022400D01*
X138831320Y-36857400D02*
X138831320Y-37887400D01*
X138831320Y-48537400D02*
X138831320Y-47507400D01*
X136171320Y-37887400D02*
X136171320Y-47507400D01*
X141491320Y-37887400D02*
X136171320Y-37887400D01*
X141491320Y-47507400D02*
X141491320Y-37887400D01*
X136171320Y-47507400D02*
X141491320Y-47507400D01*
X110389160Y-97014680D02*
X110389160Y-102334680D01*
X110389160Y-102334680D02*
X120009160Y-102334680D01*
X120009160Y-102334680D02*
X120009160Y-97014680D01*
X120009160Y-97014680D02*
X110389160Y-97014680D01*
X109359160Y-99674680D02*
X110389160Y-99674680D01*
X121039160Y-99674680D02*
X120009160Y-99674680D01*
X111874160Y-97014680D02*
X111874160Y-102334680D01*
X50825400Y-40101520D02*
G75*
G03X50825400Y-40101520I-2286000J0D01*
G01*
X50794920Y-76621640D02*
G75*
G03X50794920Y-76621640I-2286000J0D01*
G01*
X139440920Y-98333560D02*
G75*
G03X139440920Y-98333560I-2286000J0D01*
G01*
X130652520Y-108788200D02*
G75*
G03X130652520Y-108788200I-2286000J0D01*
G01*
X141675160Y-58085680D02*
X141675160Y-75985680D01*
X108535160Y-58085680D02*
X108535160Y-75985680D01*
X108535160Y-75985680D02*
X141675160Y-75985680D01*
X108535160Y-58085680D02*
X141675160Y-58085680D01*
X108535160Y-76714040D02*
X141675160Y-76714040D01*
X108535160Y-94614040D02*
X141675160Y-94614040D01*
X108535160Y-76714040D02*
X108535160Y-94614040D01*
X141675160Y-76714040D02*
X141675160Y-94614040D01*
D12*
X83479640Y-108244640D02*
X83479640Y-107101640D01*
X80431640Y-108244640D02*
X80431640Y-107101640D01*
X76621640Y-107101640D02*
X76621640Y-103418640D01*
X76621640Y-103418640D02*
X87289640Y-103418640D01*
X87289640Y-103418640D02*
X87289640Y-107101640D01*
X76621640Y-108244640D02*
X76621640Y-107101640D01*
X76621640Y-107101640D02*
X87289640Y-107101640D01*
X87289640Y-107101640D02*
X87289640Y-108244640D01*
X81955640Y-108244640D02*
X87289640Y-108244640D01*
X81955640Y-108244640D02*
X76621640Y-108244640D01*
X111587280Y-26400760D02*
X116921280Y-26400760D01*
X111587280Y-26400760D02*
X106253280Y-26400760D01*
X106253280Y-27543760D02*
X106253280Y-26400760D01*
X116921280Y-27543760D02*
X106253280Y-27543760D01*
X116921280Y-26400760D02*
X116921280Y-27543760D01*
X106253280Y-31226760D02*
X106253280Y-27543760D01*
X116921280Y-31226760D02*
X106253280Y-31226760D01*
X116921280Y-27543760D02*
X116921280Y-31226760D01*
X113111280Y-26400760D02*
X113111280Y-27543760D01*
X110063280Y-26400760D02*
X110063280Y-27543760D01*
D11*
X115920405Y-43888744D02*
G75*
G02X115193200Y-43364560I1122795J2324184D01*
G01*
X118142007Y-43920960D02*
G75*
G03X119643200Y-41564560I-1098807J2356400D01*
G01*
X118142007Y-39208160D02*
G75*
G02X119643200Y-41564560I-1098807J-2356400D01*
G01*
X115920405Y-39240376D02*
G75*
G03X115193200Y-39764560I1122795J-2324184D01*
G01*
X115193200Y-39764560D02*
X115193200Y-43364560D01*
X120009040Y-39764560D02*
X120009040Y-43364560D01*
X120736245Y-39240376D02*
G75*
G03X120009040Y-39764560I1122795J-2324184D01*
G01*
X122957847Y-39208160D02*
G75*
G02X124459040Y-41564560I-1098807J-2356400D01*
G01*
X122957847Y-43920960D02*
G75*
G03X124459040Y-41564560I-1098807J2356400D01*
G01*
X120736245Y-43888744D02*
G75*
G02X120009040Y-43364560I1122795J2324184D01*
G01*
X93307600Y-94298880D02*
X93307600Y-90978880D01*
X93307600Y-90978880D02*
X84187600Y-90978880D01*
X84187600Y-90978880D02*
X84187600Y-94298880D01*
X84187600Y-94298880D02*
X93307600Y-94298880D01*
X94117600Y-92638880D02*
X93307600Y-92638880D01*
X83377600Y-92638880D02*
X84187600Y-92638880D01*
X99882960Y-79460920D02*
X99882960Y-80270920D01*
X99882960Y-90200920D02*
X99882960Y-89390920D01*
X98222960Y-80270920D02*
X98222960Y-89390920D01*
X101542960Y-80270920D02*
X98222960Y-80270920D01*
X101542960Y-89390920D02*
X101542960Y-80270920D01*
X98222960Y-89390920D02*
X101542960Y-89390920D01*
X78977600Y-82892200D02*
X75657600Y-82892200D01*
X75657600Y-82892200D02*
X75657600Y-92012200D01*
X75657600Y-92012200D02*
X78977600Y-92012200D01*
X78977600Y-92012200D02*
X78977600Y-82892200D01*
X77317600Y-82082200D02*
X77317600Y-82892200D01*
X77317600Y-92822200D02*
X77317600Y-92012200D01*
X83377600Y-84195920D02*
X84187600Y-84195920D01*
X94117600Y-84195920D02*
X93307600Y-84195920D01*
X84187600Y-85855920D02*
X93307600Y-85855920D01*
X84187600Y-82535920D02*
X84187600Y-85855920D01*
X93307600Y-82535920D02*
X84187600Y-82535920D01*
X93307600Y-85855920D02*
X93307600Y-82535920D01*
X53075840Y-51359240D02*
X53075840Y-50549240D01*
X53075840Y-40619240D02*
X53075840Y-41429240D01*
X54735840Y-50549240D02*
X54735840Y-41429240D01*
X51415840Y-50549240D02*
X54735840Y-50549240D01*
X51415840Y-41429240D02*
X51415840Y-50549240D01*
X54735840Y-41429240D02*
X51415840Y-41429240D01*
X65152160Y-92098560D02*
X68472160Y-92098560D01*
X68472160Y-92098560D02*
X68472160Y-82978560D01*
X68472160Y-82978560D02*
X65152160Y-82978560D01*
X65152160Y-82978560D02*
X65152160Y-92098560D01*
X66812160Y-92908560D02*
X66812160Y-92098560D01*
X66812160Y-82168560D02*
X66812160Y-82978560D01*
X60016960Y-55048040D02*
X60016960Y-58368040D01*
X60016960Y-58368040D02*
X69136960Y-58368040D01*
X69136960Y-58368040D02*
X69136960Y-55048040D01*
X69136960Y-55048040D02*
X60016960Y-55048040D01*
X59206960Y-56708040D02*
X60016960Y-56708040D01*
X69946960Y-56708040D02*
X69136960Y-56708040D01*
X107909360Y-42569960D02*
X107909360Y-43379960D01*
X107909360Y-53309960D02*
X107909360Y-52499960D01*
X106249360Y-43379960D02*
X106249360Y-52499960D01*
X109569360Y-43379960D02*
X106249360Y-43379960D01*
X109569360Y-52499960D02*
X109569360Y-43379960D01*
X106249360Y-52499960D02*
X109569360Y-52499960D01*
X84141880Y-86752320D02*
X84141880Y-90072320D01*
X84141880Y-90072320D02*
X93261880Y-90072320D01*
X93261880Y-90072320D02*
X93261880Y-86752320D01*
X93261880Y-86752320D02*
X84141880Y-86752320D01*
X83331880Y-88412320D02*
X84141880Y-88412320D01*
X94071880Y-88412320D02*
X93261880Y-88412320D01*
X101523800Y-73685840D02*
X101523800Y-72875840D01*
X101523800Y-62945840D02*
X101523800Y-63755840D01*
X103183800Y-72875840D02*
X103183800Y-63755840D01*
X99863800Y-72875840D02*
X103183800Y-72875840D01*
X99863800Y-63755840D02*
X99863800Y-72875840D01*
X103183800Y-63755840D02*
X99863800Y-63755840D01*
X106309160Y-73756960D02*
X106309160Y-72946960D01*
X106309160Y-63016960D02*
X106309160Y-63826960D01*
X107969160Y-72946960D02*
X107969160Y-63826960D01*
X104649160Y-72946960D02*
X107969160Y-72946960D01*
X104649160Y-63826960D02*
X104649160Y-72946960D01*
X107969160Y-63826960D02*
X104649160Y-63826960D01*
X83231880Y-54968840D02*
X86551880Y-54968840D01*
X86551880Y-54968840D02*
X86551880Y-45848840D01*
X86551880Y-45848840D02*
X83231880Y-45848840D01*
X83231880Y-45848840D02*
X83231880Y-54968840D01*
X84891880Y-55778840D02*
X84891880Y-54968840D01*
X84891880Y-45038840D02*
X84891880Y-45848840D01*
X58793640Y-97064880D02*
X57293640Y-97064880D01*
X54793640Y-98314880D02*
X54793640Y-102814880D01*
X57293640Y-104064880D02*
X58793640Y-104064880D01*
X61293640Y-102814880D02*
X61293640Y-98314880D01*
X64248040Y-45428560D02*
X65758040Y-45428560D01*
X64248040Y-49129560D02*
X65758040Y-49129560D01*
X65758040Y-52399560D02*
X65758040Y-42159560D01*
X64248040Y-42159560D02*
X68889040Y-42159560D01*
X64248040Y-52399560D02*
X68889040Y-52399560D01*
X68889040Y-52399560D02*
X68889040Y-42159560D01*
X64248040Y-52399560D02*
X64248040Y-42159560D01*
X96757000Y-62962480D02*
X95107000Y-62962480D01*
X96757000Y-73242480D02*
X96757000Y-62962480D01*
X91457000Y-73242480D02*
X96757000Y-73242480D01*
X91457000Y-62962480D02*
X91457000Y-73242480D01*
X93107000Y-62962480D02*
X91457000Y-62962480D01*
X95107000Y-62962480D02*
G75*
G02X93107000Y-62962480I-1000000J0D01*
G01*
X95162880Y-47915520D02*
G75*
G02X93162880Y-47915520I-1000000J0D01*
G01*
X93162880Y-47915520D02*
X91512880Y-47915520D01*
X91512880Y-47915520D02*
X91512880Y-58195520D01*
X91512880Y-58195520D02*
X96812880Y-58195520D01*
X96812880Y-58195520D02*
X96812880Y-47915520D01*
X96812880Y-47915520D02*
X95162880Y-47915520D01*
X104922435Y-39245456D02*
G75*
G02X105649640Y-39769640I-1122795J-2324184D01*
G01*
X102700833Y-39213240D02*
G75*
G03X101199640Y-41569640I1098807J-2356400D01*
G01*
X102700833Y-43926040D02*
G75*
G02X101199640Y-41569640I1098807J2356400D01*
G01*
X104922435Y-43893824D02*
G75*
G03X105649640Y-43369640I-1122795J2324184D01*
G01*
X105649640Y-43369640D02*
X105649640Y-39769640D01*
X112537240Y-42590280D02*
X112537240Y-43400280D01*
X112537240Y-53330280D02*
X112537240Y-52520280D01*
X110877240Y-43400280D02*
X110877240Y-52520280D01*
X114197240Y-43400280D02*
X110877240Y-43400280D01*
X114197240Y-52520280D02*
X114197240Y-43400280D01*
X110877240Y-52520280D02*
X114197240Y-52520280D01*
X56316000Y-61446000D02*
X56316000Y-65046000D01*
X57043205Y-60921816D02*
G75*
G03X56316000Y-61446000I1122795J-2324184D01*
G01*
X59264807Y-60889600D02*
G75*
G02X60766000Y-63246000I-1098807J-2356400D01*
G01*
X59264807Y-65602400D02*
G75*
G03X60766000Y-63246000I-1098807J2356400D01*
G01*
X57043205Y-65570184D02*
G75*
G02X56316000Y-65046000I1122795J2324184D01*
G01*
X65013955Y-60906576D02*
G75*
G02X65741160Y-61430760I-1122795J-2324184D01*
G01*
X62792353Y-60874360D02*
G75*
G03X61291160Y-63230760I1098807J-2356400D01*
G01*
X62792353Y-65587160D02*
G75*
G02X61291160Y-63230760I1098807J2356400D01*
G01*
X65013955Y-65554944D02*
G75*
G03X65741160Y-65030760I-1122795J2324184D01*
G01*
X65741160Y-65030760D02*
X65741160Y-61430760D01*
X73075800Y-82087280D02*
X73075800Y-82897280D01*
X73075800Y-92827280D02*
X73075800Y-92017280D01*
X71415800Y-82897280D02*
X71415800Y-92017280D01*
X74735800Y-82897280D02*
X71415800Y-82897280D01*
X74735800Y-92017280D02*
X74735800Y-82897280D01*
X71415800Y-92017280D02*
X74735800Y-92017280D01*
D12*
X120365354Y-29257745D02*
X120365354Y-28257745D01*
X120603449Y-28257745D01*
X120746306Y-28305365D01*
X120841544Y-28400603D01*
X120889163Y-28495841D01*
X120936782Y-28686317D01*
X120936782Y-28829174D01*
X120889163Y-29019650D01*
X120841544Y-29114888D01*
X120746306Y-29210126D01*
X120603449Y-29257745D01*
X120365354Y-29257745D01*
X121889163Y-29257745D02*
X121317735Y-29257745D01*
X121603449Y-29257745D02*
X121603449Y-28257745D01*
X121508211Y-28400603D01*
X121412973Y-28495841D01*
X121317735Y-28543460D01*
X122270116Y-28352984D02*
X122317735Y-28305365D01*
X122412973Y-28257745D01*
X122651068Y-28257745D01*
X122746306Y-28305365D01*
X122793925Y-28352984D01*
X122841544Y-28448222D01*
X122841544Y-28543460D01*
X122793925Y-28686317D01*
X122222497Y-29257745D01*
X122841544Y-29257745D01*
X50541180Y-67267057D02*
X50064990Y-67600390D01*
X50541180Y-67838485D02*
X49541180Y-67838485D01*
X49541180Y-67457533D01*
X49588800Y-67362295D01*
X49636419Y-67314676D01*
X49731657Y-67267057D01*
X49874514Y-67267057D01*
X49969752Y-67314676D01*
X50017371Y-67362295D01*
X50064990Y-67457533D01*
X50064990Y-67838485D01*
X50541180Y-66314676D02*
X50541180Y-66886104D01*
X50541180Y-66600390D02*
X49541180Y-66600390D01*
X49684038Y-66695628D01*
X49779276Y-66790866D01*
X49826895Y-66886104D01*
X49636419Y-65933723D02*
X49588800Y-65886104D01*
X49541180Y-65790866D01*
X49541180Y-65552771D01*
X49588800Y-65457533D01*
X49636419Y-65409914D01*
X49731657Y-65362295D01*
X49826895Y-65362295D01*
X49969752Y-65409914D01*
X50541180Y-65981342D01*
X50541180Y-65362295D01*
X124796253Y-35946340D02*
X124462920Y-35470150D01*
X124224824Y-35946340D02*
X124224824Y-34946340D01*
X124605777Y-34946340D01*
X124701015Y-34993960D01*
X124748634Y-35041579D01*
X124796253Y-35136817D01*
X124796253Y-35279674D01*
X124748634Y-35374912D01*
X124701015Y-35422531D01*
X124605777Y-35470150D01*
X124224824Y-35470150D01*
X125129586Y-34946340D02*
X125796253Y-34946340D01*
X125367681Y-35946340D01*
X92154784Y-37094420D02*
X92154784Y-36094420D01*
X92392880Y-36094420D01*
X92535737Y-36142040D01*
X92630975Y-36237278D01*
X92678594Y-36332516D01*
X92726213Y-36522992D01*
X92726213Y-36665849D01*
X92678594Y-36856325D01*
X92630975Y-36951563D01*
X92535737Y-37046801D01*
X92392880Y-37094420D01*
X92154784Y-37094420D01*
X93059546Y-36094420D02*
X93678594Y-36094420D01*
X93345260Y-36475373D01*
X93488118Y-36475373D01*
X93583356Y-36522992D01*
X93630975Y-36570611D01*
X93678594Y-36665849D01*
X93678594Y-36903944D01*
X93630975Y-36999182D01*
X93583356Y-37046801D01*
X93488118Y-37094420D01*
X93202403Y-37094420D01*
X93107165Y-37046801D01*
X93059546Y-36999182D01*
X93448142Y-101294226D02*
X93495761Y-101341845D01*
X93543380Y-101484702D01*
X93543380Y-101579940D01*
X93495761Y-101722798D01*
X93400523Y-101818036D01*
X93305285Y-101865655D01*
X93114809Y-101913274D01*
X92971952Y-101913274D01*
X92781476Y-101865655D01*
X92686238Y-101818036D01*
X92591000Y-101722798D01*
X92543380Y-101579940D01*
X92543380Y-101484702D01*
X92591000Y-101341845D01*
X92638619Y-101294226D01*
X93543380Y-100341845D02*
X93543380Y-100913274D01*
X93543380Y-100627560D02*
X92543380Y-100627560D01*
X92686238Y-100722798D01*
X92781476Y-100818036D01*
X92829095Y-100913274D01*
X119294613Y-55134782D02*
X119246994Y-55182401D01*
X119104137Y-55230020D01*
X119008899Y-55230020D01*
X118866041Y-55182401D01*
X118770803Y-55087163D01*
X118723184Y-54991925D01*
X118675565Y-54801449D01*
X118675565Y-54658592D01*
X118723184Y-54468116D01*
X118770803Y-54372878D01*
X118866041Y-54277640D01*
X119008899Y-54230020D01*
X119104137Y-54230020D01*
X119246994Y-54277640D01*
X119294613Y-54325259D01*
X119675565Y-54325259D02*
X119723184Y-54277640D01*
X119818422Y-54230020D01*
X120056518Y-54230020D01*
X120151756Y-54277640D01*
X120199375Y-54325259D01*
X120246994Y-54420497D01*
X120246994Y-54515735D01*
X120199375Y-54658592D01*
X119627946Y-55230020D01*
X120246994Y-55230020D01*
X80036942Y-45815546D02*
X80084561Y-45863165D01*
X80132180Y-46006022D01*
X80132180Y-46101260D01*
X80084561Y-46244118D01*
X79989323Y-46339356D01*
X79894085Y-46386975D01*
X79703609Y-46434594D01*
X79560752Y-46434594D01*
X79370276Y-46386975D01*
X79275038Y-46339356D01*
X79179800Y-46244118D01*
X79132180Y-46101260D01*
X79132180Y-46006022D01*
X79179800Y-45863165D01*
X79227419Y-45815546D01*
X79132180Y-45482213D02*
X79132180Y-44863165D01*
X79513133Y-45196499D01*
X79513133Y-45053641D01*
X79560752Y-44958403D01*
X79608371Y-44910784D01*
X79703609Y-44863165D01*
X79941704Y-44863165D01*
X80036942Y-44910784D01*
X80084561Y-44958403D01*
X80132180Y-45053641D01*
X80132180Y-45339356D01*
X80084561Y-45434594D01*
X80036942Y-45482213D01*
X85929173Y-40788862D02*
X85881554Y-40836481D01*
X85738697Y-40884100D01*
X85643459Y-40884100D01*
X85500601Y-40836481D01*
X85405363Y-40741243D01*
X85357744Y-40646005D01*
X85310125Y-40455529D01*
X85310125Y-40312672D01*
X85357744Y-40122196D01*
X85405363Y-40026958D01*
X85500601Y-39931720D01*
X85643459Y-39884100D01*
X85738697Y-39884100D01*
X85881554Y-39931720D01*
X85929173Y-39979339D01*
X86786316Y-40217434D02*
X86786316Y-40884100D01*
X86548220Y-39836481D02*
X86310125Y-40550767D01*
X86929173Y-40550767D01*
X78522533Y-64172102D02*
X78474914Y-64219721D01*
X78332057Y-64267340D01*
X78236819Y-64267340D01*
X78093961Y-64219721D01*
X77998723Y-64124483D01*
X77951104Y-64029245D01*
X77903485Y-63838769D01*
X77903485Y-63695912D01*
X77951104Y-63505436D01*
X77998723Y-63410198D01*
X78093961Y-63314960D01*
X78236819Y-63267340D01*
X78332057Y-63267340D01*
X78474914Y-63314960D01*
X78522533Y-63362579D01*
X79427295Y-63267340D02*
X78951104Y-63267340D01*
X78903485Y-63743531D01*
X78951104Y-63695912D01*
X79046342Y-63648293D01*
X79284438Y-63648293D01*
X79379676Y-63695912D01*
X79427295Y-63743531D01*
X79474914Y-63838769D01*
X79474914Y-64076864D01*
X79427295Y-64172102D01*
X79379676Y-64219721D01*
X79284438Y-64267340D01*
X79046342Y-64267340D01*
X78951104Y-64219721D01*
X78903485Y-64172102D01*
X76318382Y-29732266D02*
X76366001Y-29779885D01*
X76413620Y-29922742D01*
X76413620Y-30017980D01*
X76366001Y-30160838D01*
X76270763Y-30256076D01*
X76175525Y-30303695D01*
X75985049Y-30351314D01*
X75842192Y-30351314D01*
X75651716Y-30303695D01*
X75556478Y-30256076D01*
X75461240Y-30160838D01*
X75413620Y-30017980D01*
X75413620Y-29922742D01*
X75461240Y-29779885D01*
X75508859Y-29732266D01*
X75413620Y-29398933D02*
X75413620Y-28732266D01*
X76413620Y-29160838D01*
X132090420Y-43410095D02*
X131090420Y-43410095D01*
X131090420Y-43172000D01*
X131138040Y-43029142D01*
X131233278Y-42933904D01*
X131328516Y-42886285D01*
X131518992Y-42838666D01*
X131661849Y-42838666D01*
X131852325Y-42886285D01*
X131947563Y-42933904D01*
X132042801Y-43029142D01*
X132090420Y-43172000D01*
X132090420Y-43410095D01*
X132090420Y-41886285D02*
X132090420Y-42457714D01*
X132090420Y-42172000D02*
X131090420Y-42172000D01*
X131233278Y-42267238D01*
X131328516Y-42362476D01*
X131376135Y-42457714D01*
X114501704Y-106614220D02*
X114501704Y-105614220D01*
X114739800Y-105614220D01*
X114882657Y-105661840D01*
X114977895Y-105757078D01*
X115025514Y-105852316D01*
X115073133Y-106042792D01*
X115073133Y-106185649D01*
X115025514Y-106376125D01*
X114977895Y-106471363D01*
X114882657Y-106566601D01*
X114739800Y-106614220D01*
X114501704Y-106614220D01*
X115454085Y-105709459D02*
X115501704Y-105661840D01*
X115596942Y-105614220D01*
X115835038Y-105614220D01*
X115930276Y-105661840D01*
X115977895Y-105709459D01*
X116025514Y-105804697D01*
X116025514Y-105899935D01*
X115977895Y-106042792D01*
X115406466Y-106614220D01*
X116025514Y-106614220D01*
X65186820Y-104761255D02*
X64186820Y-104761255D01*
X64186820Y-104523160D01*
X64234440Y-104380302D01*
X64329678Y-104285064D01*
X64424916Y-104237445D01*
X64615392Y-104189826D01*
X64758249Y-104189826D01*
X64948725Y-104237445D01*
X65043963Y-104285064D01*
X65139201Y-104380302D01*
X65186820Y-104523160D01*
X65186820Y-104761255D01*
X64520154Y-103332683D02*
X65186820Y-103332683D01*
X64139201Y-103570779D02*
X64853487Y-103808874D01*
X64853487Y-103189826D01*
X58704740Y-45421775D02*
X57704740Y-45421775D01*
X57704740Y-45183680D01*
X57752360Y-45040822D01*
X57847598Y-44945584D01*
X57942836Y-44897965D01*
X58133312Y-44850346D01*
X58276169Y-44850346D01*
X58466645Y-44897965D01*
X58561883Y-44945584D01*
X58657121Y-45040822D01*
X58704740Y-45183680D01*
X58704740Y-45421775D01*
X57704740Y-43945584D02*
X57704740Y-44421775D01*
X58180931Y-44469394D01*
X58133312Y-44421775D01*
X58085693Y-44326537D01*
X58085693Y-44088441D01*
X58133312Y-43993203D01*
X58180931Y-43945584D01*
X58276169Y-43897965D01*
X58514264Y-43897965D01*
X58609502Y-43945584D01*
X58657121Y-43993203D01*
X58704740Y-44088441D01*
X58704740Y-44326537D01*
X58657121Y-44421775D01*
X58609502Y-44469394D01*
X62004984Y-28102820D02*
X62004984Y-27102820D01*
X62243080Y-27102820D01*
X62385937Y-27150440D01*
X62481175Y-27245678D01*
X62528794Y-27340916D01*
X62576413Y-27531392D01*
X62576413Y-27674249D01*
X62528794Y-27864725D01*
X62481175Y-27959963D01*
X62385937Y-28055201D01*
X62243080Y-28102820D01*
X62004984Y-28102820D01*
X63433556Y-27102820D02*
X63243080Y-27102820D01*
X63147841Y-27150440D01*
X63100222Y-27198059D01*
X63004984Y-27340916D01*
X62957365Y-27531392D01*
X62957365Y-27912344D01*
X63004984Y-28007582D01*
X63052603Y-28055201D01*
X63147841Y-28102820D01*
X63338318Y-28102820D01*
X63433556Y-28055201D01*
X63481175Y-28007582D01*
X63528794Y-27912344D01*
X63528794Y-27674249D01*
X63481175Y-27579011D01*
X63433556Y-27531392D01*
X63338318Y-27483773D01*
X63147841Y-27483773D01*
X63052603Y-27531392D01*
X63004984Y-27579011D01*
X62957365Y-27674249D01*
X62045624Y-34584900D02*
X62045624Y-33584900D01*
X62283720Y-33584900D01*
X62426577Y-33632520D01*
X62521815Y-33727758D01*
X62569434Y-33822996D01*
X62617053Y-34013472D01*
X62617053Y-34156329D01*
X62569434Y-34346805D01*
X62521815Y-34442043D01*
X62426577Y-34537281D01*
X62283720Y-34584900D01*
X62045624Y-34584900D01*
X62950386Y-33584900D02*
X63617053Y-33584900D01*
X63188481Y-34584900D01*
X108420944Y-78928220D02*
X108420944Y-77928220D01*
X108659040Y-77928220D01*
X108801897Y-77975840D01*
X108897135Y-78071078D01*
X108944754Y-78166316D01*
X108992373Y-78356792D01*
X108992373Y-78499649D01*
X108944754Y-78690125D01*
X108897135Y-78785363D01*
X108801897Y-78880601D01*
X108659040Y-78928220D01*
X108420944Y-78928220D01*
X109563801Y-78356792D02*
X109468563Y-78309173D01*
X109420944Y-78261554D01*
X109373325Y-78166316D01*
X109373325Y-78118697D01*
X109420944Y-78023459D01*
X109468563Y-77975840D01*
X109563801Y-77928220D01*
X109754278Y-77928220D01*
X109849516Y-77975840D01*
X109897135Y-78023459D01*
X109944754Y-78118697D01*
X109944754Y-78166316D01*
X109897135Y-78261554D01*
X109849516Y-78309173D01*
X109754278Y-78356792D01*
X109563801Y-78356792D01*
X109468563Y-78404411D01*
X109420944Y-78452030D01*
X109373325Y-78547268D01*
X109373325Y-78737744D01*
X109420944Y-78832982D01*
X109468563Y-78880601D01*
X109563801Y-78928220D01*
X109754278Y-78928220D01*
X109849516Y-78880601D01*
X109897135Y-78832982D01*
X109944754Y-78737744D01*
X109944754Y-78547268D01*
X109897135Y-78452030D01*
X109849516Y-78404411D01*
X109754278Y-78356792D01*
X102584024Y-89032340D02*
X102584024Y-88032340D01*
X102822120Y-88032340D01*
X102964977Y-88079960D01*
X103060215Y-88175198D01*
X103107834Y-88270436D01*
X103155453Y-88460912D01*
X103155453Y-88603769D01*
X103107834Y-88794245D01*
X103060215Y-88889483D01*
X102964977Y-88984721D01*
X102822120Y-89032340D01*
X102584024Y-89032340D01*
X103631643Y-89032340D02*
X103822120Y-89032340D01*
X103917358Y-88984721D01*
X103964977Y-88937102D01*
X104060215Y-88794245D01*
X104107834Y-88603769D01*
X104107834Y-88222817D01*
X104060215Y-88127579D01*
X104012596Y-88079960D01*
X103917358Y-88032340D01*
X103726881Y-88032340D01*
X103631643Y-88079960D01*
X103584024Y-88127579D01*
X103536405Y-88222817D01*
X103536405Y-88460912D01*
X103584024Y-88556150D01*
X103631643Y-88603769D01*
X103726881Y-88651388D01*
X103917358Y-88651388D01*
X104012596Y-88603769D01*
X104060215Y-88556150D01*
X104107834Y-88460912D01*
X139243060Y-43845645D02*
X138243060Y-43845645D01*
X138243060Y-43607550D01*
X138290680Y-43464693D01*
X138385918Y-43369455D01*
X138481156Y-43321836D01*
X138671632Y-43274217D01*
X138814489Y-43274217D01*
X139004965Y-43321836D01*
X139100203Y-43369455D01*
X139195441Y-43464693D01*
X139243060Y-43607550D01*
X139243060Y-43845645D01*
X139243060Y-42321836D02*
X139243060Y-42893264D01*
X139243060Y-42607550D02*
X138243060Y-42607550D01*
X138385918Y-42702788D01*
X138481156Y-42798026D01*
X138528775Y-42893264D01*
X138243060Y-41702788D02*
X138243060Y-41607550D01*
X138290680Y-41512312D01*
X138338299Y-41464693D01*
X138433537Y-41417074D01*
X138624013Y-41369455D01*
X138862108Y-41369455D01*
X139052584Y-41417074D01*
X139147822Y-41464693D01*
X139195441Y-41512312D01*
X139243060Y-41607550D01*
X139243060Y-41702788D01*
X139195441Y-41798026D01*
X139147822Y-41845645D01*
X139052584Y-41893264D01*
X138862108Y-41940883D01*
X138624013Y-41940883D01*
X138433537Y-41893264D01*
X138338299Y-41845645D01*
X138290680Y-41798026D01*
X138243060Y-41702788D01*
X114005194Y-100111820D02*
X114005194Y-99111820D01*
X114243289Y-99111820D01*
X114386146Y-99159440D01*
X114481384Y-99254678D01*
X114529003Y-99349916D01*
X114576622Y-99540392D01*
X114576622Y-99683249D01*
X114529003Y-99873725D01*
X114481384Y-99968963D01*
X114386146Y-100064201D01*
X114243289Y-100111820D01*
X114005194Y-100111820D01*
X115529003Y-100111820D02*
X114957575Y-100111820D01*
X115243289Y-100111820D02*
X115243289Y-99111820D01*
X115148051Y-99254678D01*
X115052813Y-99349916D01*
X114957575Y-99397535D01*
X116481384Y-100111820D02*
X115909956Y-100111820D01*
X116195670Y-100111820D02*
X116195670Y-99111820D01*
X116100432Y-99254678D01*
X116005194Y-99349916D01*
X115909956Y-99397535D01*
X47629558Y-36630241D02*
X47772415Y-36677860D01*
X48010510Y-36677860D01*
X48105748Y-36630241D01*
X48153367Y-36582622D01*
X48200986Y-36487384D01*
X48200986Y-36392146D01*
X48153367Y-36296908D01*
X48105748Y-36249289D01*
X48010510Y-36201670D01*
X47820034Y-36154051D01*
X47724796Y-36106432D01*
X47677177Y-36058813D01*
X47629558Y-35963575D01*
X47629558Y-35868337D01*
X47677177Y-35773099D01*
X47724796Y-35725480D01*
X47820034Y-35677860D01*
X48058129Y-35677860D01*
X48200986Y-35725480D01*
X48629558Y-36296908D02*
X49391462Y-36296908D01*
X49010510Y-36677860D02*
X49010510Y-35915956D01*
X46151278Y-73251961D02*
X46294135Y-73299580D01*
X46532230Y-73299580D01*
X46627468Y-73251961D01*
X46675087Y-73204342D01*
X46722706Y-73109104D01*
X46722706Y-73013866D01*
X46675087Y-72918628D01*
X46627468Y-72871009D01*
X46532230Y-72823390D01*
X46341754Y-72775771D01*
X46246516Y-72728152D01*
X46198897Y-72680533D01*
X46151278Y-72585295D01*
X46151278Y-72490057D01*
X46198897Y-72394819D01*
X46246516Y-72347200D01*
X46341754Y-72299580D01*
X46579849Y-72299580D01*
X46722706Y-72347200D01*
X47151278Y-72918628D02*
X47913182Y-72918628D01*
X133463754Y-95357700D02*
X133654230Y-95357700D01*
X133749468Y-95405320D01*
X133844706Y-95500558D01*
X133892325Y-95691034D01*
X133892325Y-96024367D01*
X133844706Y-96214843D01*
X133749468Y-96310081D01*
X133654230Y-96357700D01*
X133463754Y-96357700D01*
X133368516Y-96310081D01*
X133273278Y-96214843D01*
X133225659Y-96024367D01*
X133225659Y-95691034D01*
X133273278Y-95500558D01*
X133368516Y-95405320D01*
X133463754Y-95357700D01*
X134320897Y-95976748D02*
X135082801Y-95976748D01*
X134701849Y-96357700D02*
X134701849Y-95595796D01*
X127560794Y-111979460D02*
X127751270Y-111979460D01*
X127846508Y-112027080D01*
X127941746Y-112122318D01*
X127989365Y-112312794D01*
X127989365Y-112646127D01*
X127941746Y-112836603D01*
X127846508Y-112931841D01*
X127751270Y-112979460D01*
X127560794Y-112979460D01*
X127465556Y-112931841D01*
X127370318Y-112836603D01*
X127322699Y-112646127D01*
X127322699Y-112312794D01*
X127370318Y-112122318D01*
X127465556Y-112027080D01*
X127560794Y-111979460D01*
X128417937Y-112598508D02*
X129179841Y-112598508D01*
X125121373Y-67660780D02*
X124645182Y-67660780D01*
X124645182Y-66660780D01*
X125978516Y-67660780D02*
X125407087Y-67660780D01*
X125692801Y-67660780D02*
X125692801Y-66660780D01*
X125597563Y-66803638D01*
X125502325Y-66898876D01*
X125407087Y-66946495D01*
X124826733Y-85806540D02*
X124350542Y-85806540D01*
X124350542Y-84806540D01*
X125112447Y-84901779D02*
X125160066Y-84854160D01*
X125255304Y-84806540D01*
X125493400Y-84806540D01*
X125588638Y-84854160D01*
X125636257Y-84901779D01*
X125683876Y-84997017D01*
X125683876Y-85092255D01*
X125636257Y-85235112D01*
X125064828Y-85806540D01*
X125683876Y-85806540D01*
X77684641Y-102919779D02*
X77589403Y-102872160D01*
X77494165Y-102776921D01*
X77351308Y-102634064D01*
X77256070Y-102586445D01*
X77160832Y-102586445D01*
X77208451Y-102824540D02*
X77113213Y-102776921D01*
X77017975Y-102681683D01*
X76970356Y-102491207D01*
X76970356Y-102157874D01*
X77017975Y-101967398D01*
X77113213Y-101872160D01*
X77208451Y-101824540D01*
X77398927Y-101824540D01*
X77494165Y-101872160D01*
X77589403Y-101967398D01*
X77637022Y-102157874D01*
X77637022Y-102491207D01*
X77589403Y-102681683D01*
X77494165Y-102776921D01*
X77398927Y-102824540D01*
X77208451Y-102824540D01*
X78589403Y-102824540D02*
X78017975Y-102824540D01*
X78303689Y-102824540D02*
X78303689Y-101824540D01*
X78208451Y-101967398D01*
X78113213Y-102062636D01*
X78017975Y-102110255D01*
X118908841Y-27502099D02*
X118813603Y-27454480D01*
X118718365Y-27359241D01*
X118575508Y-27216384D01*
X118480270Y-27168765D01*
X118385032Y-27168765D01*
X118432651Y-27406860D02*
X118337413Y-27359241D01*
X118242175Y-27264003D01*
X118194556Y-27073527D01*
X118194556Y-26740194D01*
X118242175Y-26549718D01*
X118337413Y-26454480D01*
X118432651Y-26406860D01*
X118623127Y-26406860D01*
X118718365Y-26454480D01*
X118813603Y-26549718D01*
X118861222Y-26740194D01*
X118861222Y-27073527D01*
X118813603Y-27264003D01*
X118718365Y-27359241D01*
X118623127Y-27406860D01*
X118432651Y-27406860D01*
X119242175Y-26502099D02*
X119289794Y-26454480D01*
X119385032Y-26406860D01*
X119623127Y-26406860D01*
X119718365Y-26454480D01*
X119765984Y-26502099D01*
X119813603Y-26597337D01*
X119813603Y-26692575D01*
X119765984Y-26835432D01*
X119194556Y-27406860D01*
X119813603Y-27406860D01*
X114842539Y-39282358D02*
X114794920Y-39377596D01*
X114699681Y-39472834D01*
X114556824Y-39615691D01*
X114509205Y-39710929D01*
X114509205Y-39806167D01*
X114747300Y-39758548D02*
X114699681Y-39853786D01*
X114604443Y-39949024D01*
X114413967Y-39996643D01*
X114080634Y-39996643D01*
X113890158Y-39949024D01*
X113794920Y-39853786D01*
X113747300Y-39758548D01*
X113747300Y-39568072D01*
X113794920Y-39472834D01*
X113890158Y-39377596D01*
X114080634Y-39329977D01*
X114413967Y-39329977D01*
X114604443Y-39377596D01*
X114699681Y-39472834D01*
X114747300Y-39568072D01*
X114747300Y-39758548D01*
X114080634Y-38472834D02*
X114747300Y-38472834D01*
X113699681Y-38710929D02*
X114413967Y-38949024D01*
X114413967Y-38329977D01*
X125906779Y-38896278D02*
X125859160Y-38991516D01*
X125763921Y-39086754D01*
X125621064Y-39229611D01*
X125573445Y-39324849D01*
X125573445Y-39420087D01*
X125811540Y-39372468D02*
X125763921Y-39467706D01*
X125668683Y-39562944D01*
X125478207Y-39610563D01*
X125144874Y-39610563D01*
X124954398Y-39562944D01*
X124859160Y-39467706D01*
X124811540Y-39372468D01*
X124811540Y-39181992D01*
X124859160Y-39086754D01*
X124954398Y-38991516D01*
X125144874Y-38943897D01*
X125478207Y-38943897D01*
X125668683Y-38991516D01*
X125763921Y-39086754D01*
X125811540Y-39181992D01*
X125811540Y-39372468D01*
X124811540Y-38039135D02*
X124811540Y-38515325D01*
X125287731Y-38562944D01*
X125240112Y-38515325D01*
X125192493Y-38420087D01*
X125192493Y-38181992D01*
X125240112Y-38086754D01*
X125287731Y-38039135D01*
X125382969Y-37991516D01*
X125621064Y-37991516D01*
X125716302Y-38039135D01*
X125763921Y-38086754D01*
X125811540Y-38181992D01*
X125811540Y-38420087D01*
X125763921Y-38515325D01*
X125716302Y-38562944D01*
X97531180Y-93658986D02*
X97054990Y-93992320D01*
X97531180Y-94230415D02*
X96531180Y-94230415D01*
X96531180Y-93849462D01*
X96578800Y-93754224D01*
X96626419Y-93706605D01*
X96721657Y-93658986D01*
X96864514Y-93658986D01*
X96959752Y-93706605D01*
X97007371Y-93754224D01*
X97054990Y-93849462D01*
X97054990Y-94230415D01*
X97531180Y-92706605D02*
X97531180Y-93278034D01*
X97531180Y-92992320D02*
X96531180Y-92992320D01*
X96674038Y-93087558D01*
X96769276Y-93182796D01*
X96816895Y-93278034D01*
X103063300Y-91179946D02*
X102587110Y-91513280D01*
X103063300Y-91751375D02*
X102063300Y-91751375D01*
X102063300Y-91370422D01*
X102110920Y-91275184D01*
X102158539Y-91227565D01*
X102253777Y-91179946D01*
X102396634Y-91179946D01*
X102491872Y-91227565D01*
X102539491Y-91275184D01*
X102587110Y-91370422D01*
X102587110Y-91751375D01*
X102158539Y-90798994D02*
X102110920Y-90751375D01*
X102063300Y-90656137D01*
X102063300Y-90418041D01*
X102110920Y-90322803D01*
X102158539Y-90275184D01*
X102253777Y-90227565D01*
X102349015Y-90227565D01*
X102491872Y-90275184D01*
X103063300Y-90846613D01*
X103063300Y-90227565D01*
X78958700Y-79028586D02*
X78482510Y-79361920D01*
X78958700Y-79600015D02*
X77958700Y-79600015D01*
X77958700Y-79219062D01*
X78006320Y-79123824D01*
X78053939Y-79076205D01*
X78149177Y-79028586D01*
X78292034Y-79028586D01*
X78387272Y-79076205D01*
X78434891Y-79123824D01*
X78482510Y-79219062D01*
X78482510Y-79600015D01*
X77958700Y-78695253D02*
X77958700Y-78076205D01*
X78339653Y-78409539D01*
X78339653Y-78266681D01*
X78387272Y-78171443D01*
X78434891Y-78123824D01*
X78530129Y-78076205D01*
X78768224Y-78076205D01*
X78863462Y-78123824D01*
X78911081Y-78171443D01*
X78958700Y-78266681D01*
X78958700Y-78552396D01*
X78911081Y-78647634D01*
X78863462Y-78695253D01*
X82134413Y-81681580D02*
X81801080Y-81205390D01*
X81562984Y-81681580D02*
X81562984Y-80681580D01*
X81943937Y-80681580D01*
X82039175Y-80729200D01*
X82086794Y-80776819D01*
X82134413Y-80872057D01*
X82134413Y-81014914D01*
X82086794Y-81110152D01*
X82039175Y-81157771D01*
X81943937Y-81205390D01*
X81562984Y-81205390D01*
X82991556Y-81014914D02*
X82991556Y-81681580D01*
X82753460Y-80633961D02*
X82515365Y-81348247D01*
X83134413Y-81348247D01*
X50703740Y-49478226D02*
X50227550Y-49811560D01*
X50703740Y-50049655D02*
X49703740Y-50049655D01*
X49703740Y-49668702D01*
X49751360Y-49573464D01*
X49798979Y-49525845D01*
X49894217Y-49478226D01*
X50037074Y-49478226D01*
X50132312Y-49525845D01*
X50179931Y-49573464D01*
X50227550Y-49668702D01*
X50227550Y-50049655D01*
X49703740Y-48573464D02*
X49703740Y-49049655D01*
X50179931Y-49097274D01*
X50132312Y-49049655D01*
X50084693Y-48954417D01*
X50084693Y-48716321D01*
X50132312Y-48621083D01*
X50179931Y-48573464D01*
X50275169Y-48525845D01*
X50513264Y-48525845D01*
X50608502Y-48573464D01*
X50656121Y-48621083D01*
X50703740Y-48716321D01*
X50703740Y-48954417D01*
X50656121Y-49049655D01*
X50608502Y-49097274D01*
X65806580Y-78784746D02*
X65330390Y-79118080D01*
X65806580Y-79356175D02*
X64806580Y-79356175D01*
X64806580Y-78975222D01*
X64854200Y-78879984D01*
X64901819Y-78832365D01*
X64997057Y-78784746D01*
X65139914Y-78784746D01*
X65235152Y-78832365D01*
X65282771Y-78879984D01*
X65330390Y-78975222D01*
X65330390Y-79356175D01*
X64806580Y-77927603D02*
X64806580Y-78118080D01*
X64854200Y-78213318D01*
X64901819Y-78260937D01*
X65044676Y-78356175D01*
X65235152Y-78403794D01*
X65616104Y-78403794D01*
X65711342Y-78356175D01*
X65758961Y-78308556D01*
X65806580Y-78213318D01*
X65806580Y-78022841D01*
X65758961Y-77927603D01*
X65711342Y-77879984D01*
X65616104Y-77832365D01*
X65378009Y-77832365D01*
X65282771Y-77879984D01*
X65235152Y-77927603D01*
X65187533Y-78022841D01*
X65187533Y-78213318D01*
X65235152Y-78308556D01*
X65282771Y-78356175D01*
X65378009Y-78403794D01*
X64389973Y-57145180D02*
X64056640Y-56668990D01*
X63818544Y-57145180D02*
X63818544Y-56145180D01*
X64199497Y-56145180D01*
X64294735Y-56192800D01*
X64342354Y-56240419D01*
X64389973Y-56335657D01*
X64389973Y-56478514D01*
X64342354Y-56573752D01*
X64294735Y-56621371D01*
X64199497Y-56668990D01*
X63818544Y-56668990D01*
X64961401Y-56573752D02*
X64866163Y-56526133D01*
X64818544Y-56478514D01*
X64770925Y-56383276D01*
X64770925Y-56335657D01*
X64818544Y-56240419D01*
X64866163Y-56192800D01*
X64961401Y-56145180D01*
X65151878Y-56145180D01*
X65247116Y-56192800D01*
X65294735Y-56240419D01*
X65342354Y-56335657D01*
X65342354Y-56383276D01*
X65294735Y-56478514D01*
X65247116Y-56526133D01*
X65151878Y-56573752D01*
X64961401Y-56573752D01*
X64866163Y-56621371D01*
X64818544Y-56668990D01*
X64770925Y-56764228D01*
X64770925Y-56954704D01*
X64818544Y-57049942D01*
X64866163Y-57097561D01*
X64961401Y-57145180D01*
X65151878Y-57145180D01*
X65247116Y-57097561D01*
X65294735Y-57049942D01*
X65342354Y-56954704D01*
X65342354Y-56764228D01*
X65294735Y-56668990D01*
X65247116Y-56621371D01*
X65151878Y-56573752D01*
X109332020Y-39382937D02*
X108855830Y-39716270D01*
X109332020Y-39954365D02*
X108332020Y-39954365D01*
X108332020Y-39573413D01*
X108379640Y-39478175D01*
X108427259Y-39430556D01*
X108522497Y-39382937D01*
X108665354Y-39382937D01*
X108760592Y-39430556D01*
X108808211Y-39478175D01*
X108855830Y-39573413D01*
X108855830Y-39954365D01*
X109332020Y-38430556D02*
X109332020Y-39001984D01*
X109332020Y-38716270D02*
X108332020Y-38716270D01*
X108474878Y-38811508D01*
X108570116Y-38906746D01*
X108617735Y-39001984D01*
X108332020Y-37811508D02*
X108332020Y-37716270D01*
X108379640Y-37621032D01*
X108427259Y-37573413D01*
X108522497Y-37525794D01*
X108712973Y-37478175D01*
X108951068Y-37478175D01*
X109141544Y-37525794D01*
X109236782Y-37573413D01*
X109284401Y-37621032D01*
X109332020Y-37716270D01*
X109332020Y-37811508D01*
X109284401Y-37906746D01*
X109236782Y-37954365D01*
X109141544Y-38001984D01*
X108951068Y-38049603D01*
X108712973Y-38049603D01*
X108522497Y-38001984D01*
X108427259Y-37954365D01*
X108379640Y-37906746D01*
X108332020Y-37811508D01*
X80965300Y-88978977D02*
X80489110Y-89312310D01*
X80965300Y-89550405D02*
X79965300Y-89550405D01*
X79965300Y-89169453D01*
X80012920Y-89074215D01*
X80060539Y-89026596D01*
X80155777Y-88978977D01*
X80298634Y-88978977D01*
X80393872Y-89026596D01*
X80441491Y-89074215D01*
X80489110Y-89169453D01*
X80489110Y-89550405D01*
X80965300Y-88026596D02*
X80965300Y-88598024D01*
X80965300Y-88312310D02*
X79965300Y-88312310D01*
X80108158Y-88407548D01*
X80203396Y-88502786D01*
X80251015Y-88598024D01*
X79965300Y-87693262D02*
X79965300Y-87074215D01*
X80346253Y-87407548D01*
X80346253Y-87264691D01*
X80393872Y-87169453D01*
X80441491Y-87121834D01*
X80536729Y-87074215D01*
X80774824Y-87074215D01*
X80870062Y-87121834D01*
X80917681Y-87169453D01*
X80965300Y-87264691D01*
X80965300Y-87550405D01*
X80917681Y-87645643D01*
X80870062Y-87693262D01*
X97116662Y-62062620D02*
X96783329Y-61586430D01*
X96545234Y-62062620D02*
X96545234Y-61062620D01*
X96926186Y-61062620D01*
X97021424Y-61110240D01*
X97069043Y-61157859D01*
X97116662Y-61253097D01*
X97116662Y-61395954D01*
X97069043Y-61491192D01*
X97021424Y-61538811D01*
X96926186Y-61586430D01*
X96545234Y-61586430D01*
X98069043Y-62062620D02*
X97497615Y-62062620D01*
X97783329Y-62062620D02*
X97783329Y-61062620D01*
X97688091Y-61205478D01*
X97592853Y-61300716D01*
X97497615Y-61348335D01*
X98926186Y-61395954D02*
X98926186Y-62062620D01*
X98688091Y-61015001D02*
X98449996Y-61729287D01*
X99069043Y-61729287D01*
X106416100Y-59901057D02*
X105939910Y-60234390D01*
X106416100Y-60472485D02*
X105416100Y-60472485D01*
X105416100Y-60091533D01*
X105463720Y-59996295D01*
X105511339Y-59948676D01*
X105606577Y-59901057D01*
X105749434Y-59901057D01*
X105844672Y-59948676D01*
X105892291Y-59996295D01*
X105939910Y-60091533D01*
X105939910Y-60472485D01*
X106416100Y-58948676D02*
X106416100Y-59520104D01*
X106416100Y-59234390D02*
X105416100Y-59234390D01*
X105558958Y-59329628D01*
X105654196Y-59424866D01*
X105701815Y-59520104D01*
X105416100Y-58043914D02*
X105416100Y-58520104D01*
X105892291Y-58567723D01*
X105844672Y-58520104D01*
X105797053Y-58424866D01*
X105797053Y-58186771D01*
X105844672Y-58091533D01*
X105892291Y-58043914D01*
X105987529Y-57996295D01*
X106225624Y-57996295D01*
X106320862Y-58043914D01*
X106368481Y-58091533D01*
X106416100Y-58186771D01*
X106416100Y-58424866D01*
X106368481Y-58520104D01*
X106320862Y-58567723D01*
X82331820Y-57467737D02*
X81855630Y-57801070D01*
X82331820Y-58039165D02*
X81331820Y-58039165D01*
X81331820Y-57658213D01*
X81379440Y-57562975D01*
X81427059Y-57515356D01*
X81522297Y-57467737D01*
X81665154Y-57467737D01*
X81760392Y-57515356D01*
X81808011Y-57562975D01*
X81855630Y-57658213D01*
X81855630Y-58039165D01*
X82331820Y-56515356D02*
X82331820Y-57086784D01*
X82331820Y-56801070D02*
X81331820Y-56801070D01*
X81474678Y-56896308D01*
X81569916Y-56991546D01*
X81617535Y-57086784D01*
X81331820Y-55658213D02*
X81331820Y-55848689D01*
X81379440Y-55943927D01*
X81427059Y-55991546D01*
X81569916Y-56086784D01*
X81760392Y-56134403D01*
X82141344Y-56134403D01*
X82236582Y-56086784D01*
X82284201Y-56039165D01*
X82331820Y-55943927D01*
X82331820Y-55753451D01*
X82284201Y-55658213D01*
X82236582Y-55610594D01*
X82141344Y-55562975D01*
X81903249Y-55562975D01*
X81808011Y-55610594D01*
X81760392Y-55658213D01*
X81712773Y-55753451D01*
X81712773Y-55943927D01*
X81760392Y-56039165D01*
X81808011Y-56086784D01*
X81903249Y-56134403D01*
X54296489Y-94840062D02*
X54248870Y-94887681D01*
X54106013Y-94935300D01*
X54010775Y-94935300D01*
X53867918Y-94887681D01*
X53772680Y-94792443D01*
X53725060Y-94697205D01*
X53677441Y-94506729D01*
X53677441Y-94363872D01*
X53725060Y-94173396D01*
X53772680Y-94078158D01*
X53867918Y-93982920D01*
X54010775Y-93935300D01*
X54106013Y-93935300D01*
X54248870Y-93982920D01*
X54296489Y-94030539D01*
X54677441Y-94649586D02*
X55153632Y-94649586D01*
X54582203Y-94935300D02*
X54915537Y-93935300D01*
X55248870Y-94935300D01*
X56058394Y-94935300D02*
X55582203Y-94935300D01*
X55582203Y-93935300D01*
X57772680Y-94459110D02*
X57725060Y-94411491D01*
X57629822Y-94363872D01*
X57534584Y-94363872D01*
X57439346Y-94411491D01*
X57391727Y-94459110D01*
X57344108Y-94554348D01*
X57344108Y-94649586D01*
X57391727Y-94744824D01*
X57439346Y-94792443D01*
X57534584Y-94840062D01*
X57629822Y-94840062D01*
X57725060Y-94792443D01*
X57772680Y-94744824D01*
X57772680Y-94363872D02*
X57772680Y-94744824D01*
X57820299Y-94792443D01*
X57867918Y-94792443D01*
X57963156Y-94744824D01*
X58010775Y-94649586D01*
X58010775Y-94411491D01*
X57915537Y-94268634D01*
X57772680Y-94173396D01*
X57582203Y-94125777D01*
X57391727Y-94173396D01*
X57248870Y-94268634D01*
X57153632Y-94411491D01*
X57106013Y-94601967D01*
X57153632Y-94792443D01*
X57248870Y-94935300D01*
X57391727Y-95030539D01*
X57582203Y-95078158D01*
X57772680Y-95030539D01*
X57915537Y-94935300D01*
X59772680Y-94935300D02*
X59439346Y-94459110D01*
X59201251Y-94935300D02*
X59201251Y-93935300D01*
X59582203Y-93935300D01*
X59677441Y-93982920D01*
X59725060Y-94030539D01*
X59772680Y-94125777D01*
X59772680Y-94268634D01*
X59725060Y-94363872D01*
X59677441Y-94411491D01*
X59582203Y-94459110D01*
X59201251Y-94459110D01*
X60582203Y-94887681D02*
X60486965Y-94935300D01*
X60296489Y-94935300D01*
X60201251Y-94887681D01*
X60153632Y-94792443D01*
X60153632Y-94411491D01*
X60201251Y-94316253D01*
X60296489Y-94268634D01*
X60486965Y-94268634D01*
X60582203Y-94316253D01*
X60629822Y-94411491D01*
X60629822Y-94506729D01*
X60153632Y-94601967D01*
X61010775Y-94887681D02*
X61106013Y-94935300D01*
X61296489Y-94935300D01*
X61391727Y-94887681D01*
X61439346Y-94792443D01*
X61439346Y-94744824D01*
X61391727Y-94649586D01*
X61296489Y-94601967D01*
X61153632Y-94601967D01*
X61058394Y-94554348D01*
X61010775Y-94459110D01*
X61010775Y-94411491D01*
X61058394Y-94316253D01*
X61153632Y-94268634D01*
X61296489Y-94268634D01*
X61391727Y-94316253D01*
X62248870Y-94887681D02*
X62153632Y-94935300D01*
X61963156Y-94935300D01*
X61867918Y-94887681D01*
X61820299Y-94792443D01*
X61820299Y-94411491D01*
X61867918Y-94316253D01*
X61963156Y-94268634D01*
X62153632Y-94268634D01*
X62248870Y-94316253D01*
X62296489Y-94411491D01*
X62296489Y-94506729D01*
X61820299Y-94601967D01*
X62582203Y-94268634D02*
X62963156Y-94268634D01*
X62725060Y-93935300D02*
X62725060Y-94792443D01*
X62772680Y-94887681D01*
X62867918Y-94935300D01*
X62963156Y-94935300D01*
X62700420Y-48041464D02*
X63509944Y-48041464D01*
X63605182Y-47993845D01*
X63652801Y-47946226D01*
X63700420Y-47850988D01*
X63700420Y-47660512D01*
X63652801Y-47565274D01*
X63605182Y-47517655D01*
X63509944Y-47470036D01*
X62700420Y-47470036D01*
X63700420Y-46470036D02*
X63700420Y-47041464D01*
X63700420Y-46755750D02*
X62700420Y-46755750D01*
X62843278Y-46850988D01*
X62938516Y-46946226D01*
X62986135Y-47041464D01*
X93345095Y-61414860D02*
X93345095Y-62224384D01*
X93392714Y-62319622D01*
X93440333Y-62367241D01*
X93535571Y-62414860D01*
X93726047Y-62414860D01*
X93821285Y-62367241D01*
X93868904Y-62319622D01*
X93916523Y-62224384D01*
X93916523Y-61414860D01*
X94345095Y-61510099D02*
X94392714Y-61462480D01*
X94487952Y-61414860D01*
X94726047Y-61414860D01*
X94821285Y-61462480D01*
X94868904Y-61510099D01*
X94916523Y-61605337D01*
X94916523Y-61700575D01*
X94868904Y-61843432D01*
X94297476Y-62414860D01*
X94916523Y-62414860D01*
X93400975Y-46367900D02*
X93400975Y-47177424D01*
X93448594Y-47272662D01*
X93496213Y-47320281D01*
X93591451Y-47367900D01*
X93781927Y-47367900D01*
X93877165Y-47320281D01*
X93924784Y-47272662D01*
X93972403Y-47177424D01*
X93972403Y-46367900D01*
X94353356Y-46367900D02*
X94972403Y-46367900D01*
X94639070Y-46748853D01*
X94781927Y-46748853D01*
X94877165Y-46796472D01*
X94924784Y-46844091D01*
X94972403Y-46939329D01*
X94972403Y-47177424D01*
X94924784Y-47272662D01*
X94877165Y-47320281D01*
X94781927Y-47367900D01*
X94496213Y-47367900D01*
X94400975Y-47320281D01*
X94353356Y-47272662D01*
X102345739Y-36904918D02*
X102298120Y-37000156D01*
X102202881Y-37095394D01*
X102060024Y-37238251D01*
X102012405Y-37333489D01*
X102012405Y-37428727D01*
X102250500Y-37381108D02*
X102202881Y-37476346D01*
X102107643Y-37571584D01*
X101917167Y-37619203D01*
X101583834Y-37619203D01*
X101393358Y-37571584D01*
X101298120Y-37476346D01*
X101250500Y-37381108D01*
X101250500Y-37190632D01*
X101298120Y-37095394D01*
X101393358Y-37000156D01*
X101583834Y-36952537D01*
X101917167Y-36952537D01*
X102107643Y-37000156D01*
X102202881Y-37095394D01*
X102250500Y-37190632D01*
X102250500Y-37381108D01*
X101250500Y-36619203D02*
X101250500Y-36000156D01*
X101631453Y-36333489D01*
X101631453Y-36190632D01*
X101679072Y-36095394D01*
X101726691Y-36047775D01*
X101821929Y-36000156D01*
X102060024Y-36000156D01*
X102155262Y-36047775D01*
X102202881Y-36095394D01*
X102250500Y-36190632D01*
X102250500Y-36476346D01*
X102202881Y-36571584D01*
X102155262Y-36619203D01*
X111927900Y-56879786D02*
X111451710Y-57213120D01*
X111927900Y-57451215D02*
X110927900Y-57451215D01*
X110927900Y-57070262D01*
X110975520Y-56975024D01*
X111023139Y-56927405D01*
X111118377Y-56879786D01*
X111261234Y-56879786D01*
X111356472Y-56927405D01*
X111404091Y-56975024D01*
X111451710Y-57070262D01*
X111451710Y-57451215D01*
X111927900Y-56403596D02*
X111927900Y-56213120D01*
X111880281Y-56117881D01*
X111832662Y-56070262D01*
X111689805Y-55975024D01*
X111499329Y-55927405D01*
X111118377Y-55927405D01*
X111023139Y-55975024D01*
X110975520Y-56022643D01*
X110927900Y-56117881D01*
X110927900Y-56308358D01*
X110975520Y-56403596D01*
X111023139Y-56451215D01*
X111118377Y-56498834D01*
X111356472Y-56498834D01*
X111451710Y-56451215D01*
X111499329Y-56403596D01*
X111546948Y-56308358D01*
X111546948Y-56117881D01*
X111499329Y-56022643D01*
X111451710Y-55975024D01*
X111356472Y-55927405D01*
X57367419Y-67882758D02*
X57319800Y-67977996D01*
X57224561Y-68073234D01*
X57081704Y-68216091D01*
X57034085Y-68311329D01*
X57034085Y-68406567D01*
X57272180Y-68358948D02*
X57224561Y-68454186D01*
X57129323Y-68549424D01*
X56938847Y-68597043D01*
X56605514Y-68597043D01*
X56415038Y-68549424D01*
X56319800Y-68454186D01*
X56272180Y-68358948D01*
X56272180Y-68168472D01*
X56319800Y-68073234D01*
X56415038Y-67977996D01*
X56605514Y-67930377D01*
X56938847Y-67930377D01*
X57129323Y-67977996D01*
X57224561Y-68073234D01*
X57272180Y-68168472D01*
X57272180Y-68358948D01*
X56272180Y-67073234D02*
X56272180Y-67263710D01*
X56319800Y-67358948D01*
X56367419Y-67406567D01*
X56510276Y-67501805D01*
X56700752Y-67549424D01*
X57081704Y-67549424D01*
X57176942Y-67501805D01*
X57224561Y-67454186D01*
X57272180Y-67358948D01*
X57272180Y-67168472D01*
X57224561Y-67073234D01*
X57176942Y-67025615D01*
X57081704Y-66977996D01*
X56843609Y-66977996D01*
X56748371Y-67025615D01*
X56700752Y-67073234D01*
X56653133Y-67168472D01*
X56653133Y-67358948D01*
X56700752Y-67454186D01*
X56748371Y-67501805D01*
X56843609Y-67549424D01*
X62584579Y-67928478D02*
X62536960Y-68023716D01*
X62441721Y-68118954D01*
X62298864Y-68261811D01*
X62251245Y-68357049D01*
X62251245Y-68452287D01*
X62489340Y-68404668D02*
X62441721Y-68499906D01*
X62346483Y-68595144D01*
X62156007Y-68642763D01*
X61822674Y-68642763D01*
X61632198Y-68595144D01*
X61536960Y-68499906D01*
X61489340Y-68404668D01*
X61489340Y-68214192D01*
X61536960Y-68118954D01*
X61632198Y-68023716D01*
X61822674Y-67976097D01*
X62156007Y-67976097D01*
X62346483Y-68023716D01*
X62441721Y-68118954D01*
X62489340Y-68214192D01*
X62489340Y-68404668D01*
X61489340Y-67642763D02*
X61489340Y-66976097D01*
X62489340Y-67404668D01*
X71963540Y-78834217D02*
X71487350Y-79167550D01*
X71963540Y-79405645D02*
X70963540Y-79405645D01*
X70963540Y-79024693D01*
X71011160Y-78929455D01*
X71058779Y-78881836D01*
X71154017Y-78834217D01*
X71296874Y-78834217D01*
X71392112Y-78881836D01*
X71439731Y-78929455D01*
X71487350Y-79024693D01*
X71487350Y-79405645D01*
X71963540Y-77881836D02*
X71963540Y-78453264D01*
X71963540Y-78167550D02*
X70963540Y-78167550D01*
X71106398Y-78262788D01*
X71201636Y-78358026D01*
X71249255Y-78453264D01*
X71963540Y-76929455D02*
X71963540Y-77500883D01*
X71963540Y-77215169D02*
X70963540Y-77215169D01*
X71106398Y-77310407D01*
X71201636Y-77405645D01*
X71249255Y-77500883D01*
M02*
