%TF.GenerationSoftware,KiCad,Pcbnew,(5.0.0)*%
%TF.CreationDate,2018-11-02T12:03:44+09:00*%
%TF.ProjectId,ATTiny85-mppt,415454696E7938352D6D7070742E6B69,rev?*%
%TF.SameCoordinates,Original*%
%TF.FileFunction,Copper,L1,Top,Signal*%
%TF.FilePolarity,Positive*%
%FSLAX46Y46*%
G04 Gerber Fmt 4.6, Leading zero omitted, Abs format (unit mm)*
G04 Created by KiCad (PCBNEW (5.0.0)) date 11/02/18 12:03:44*
%MOMM*%
%LPD*%
G01*
G04 APERTURE LIST*
%ADD10O,2.200000X2.200000*%
%ADD11R,2.200000X2.200000*%
%ADD12R,2.400000X2.400000*%
%ADD13C,2.400000*%
%ADD14C,2.000000*%
%ADD15O,3.200000X3.200000*%
%ADD16R,3.200000X3.200000*%
%ADD17C,1.800000*%
%ADD18R,1.800000X1.800000*%
%ADD19C,4.064000*%
%ADD20C,3.600000*%
%ADD21O,1.501140X2.499360*%
%ADD22R,1.520000X1.520000*%
%ADD23C,1.520000*%
%ADD24C,1.600000*%
%ADD25O,1.600000X1.600000*%
%ADD26O,1.800000X1.800000*%
%ADD27R,1.600000X1.600000*%
%ADD28C,3.000000*%
%ADD29C,1.500000*%
%ADD30C,1.200000*%
%ADD31C,0.254000*%
G04 APERTURE END LIST*
D10*
X87848440Y-36642040D03*
D11*
X98008440Y-36642040D03*
D12*
X96611440Y-98790760D03*
D13*
X96611440Y-103790760D03*
X124131080Y-51912520D03*
D12*
X119131080Y-51912520D03*
X78633320Y-47238920D03*
D13*
X73633320Y-47238920D03*
D14*
X97873200Y-42291000D03*
X90373200Y-42291000D03*
D13*
X77464920Y-69292480D03*
D12*
X77464920Y-64292480D03*
X62814200Y-64292480D03*
D13*
X62814200Y-69292480D03*
X79603600Y-33585160D03*
D12*
X79603600Y-28585160D03*
D15*
X131612640Y-35077400D03*
D16*
X131612640Y-50317400D03*
X107579160Y-106131360D03*
D15*
X122819160Y-106131360D03*
D17*
X66812160Y-98734880D03*
D18*
X66812160Y-101274880D03*
D11*
X58252360Y-49809400D03*
D10*
X58252360Y-39649400D03*
D16*
X70337680Y-27584400D03*
D15*
X55097680Y-27584400D03*
X55097680Y-34117280D03*
D16*
X70337680Y-34117280D03*
D18*
X102768400Y-83058000D03*
D17*
X102768400Y-80518000D03*
X102768400Y-86207600D03*
D18*
X102768400Y-88747600D03*
D15*
X138831320Y-35077400D03*
D16*
X138831320Y-50317400D03*
X107579160Y-99674680D03*
D15*
X122819160Y-99674680D03*
D19*
X48549560Y-36332160D03*
X48508920Y-76621640D03*
X137154920Y-98333560D03*
X128366520Y-108788200D03*
D20*
X125105160Y-73385680D03*
X125105160Y-60685680D03*
X125105160Y-79314040D03*
X125105160Y-92014040D03*
D21*
X81955640Y-105196640D03*
X84495640Y-105196640D03*
X79415640Y-105196640D03*
X116951760Y-28056840D03*
X111871760Y-28056840D03*
X114411760Y-28056840D03*
D22*
X117861080Y-44109640D03*
D23*
X117861080Y-39029640D03*
X117861080Y-41569640D03*
X122666760Y-41569640D03*
X122666760Y-39029640D03*
D22*
X122666760Y-44109640D03*
D24*
X71531480Y-93888560D03*
D25*
X71531480Y-81188560D03*
X78673960Y-81254600D03*
D24*
X78673960Y-93954600D03*
X90297000Y-91897200D03*
D25*
X90297000Y-79197200D03*
X95138240Y-91881960D03*
D24*
X95138240Y-79181960D03*
D25*
X53075840Y-52339240D03*
D24*
X53075840Y-39639240D03*
X66812160Y-93888560D03*
D25*
X66812160Y-81188560D03*
D24*
X58211720Y-57028080D03*
D25*
X70911720Y-57028080D03*
X108153200Y-41661080D03*
D24*
X108153200Y-54361080D03*
D25*
X102829360Y-47508160D03*
D24*
X102829360Y-60208160D03*
X53045360Y-55956200D03*
D25*
X53045360Y-68656200D03*
D24*
X83520280Y-93954600D03*
D25*
X83520280Y-81254600D03*
X102768400Y-76992480D03*
D24*
X102768400Y-64292480D03*
D25*
X84231480Y-76763880D03*
D24*
X71531480Y-76763880D03*
X84815680Y-56550560D03*
D25*
X84815680Y-43850560D03*
D14*
X55793640Y-97314880D03*
X60293640Y-97314880D03*
X55793640Y-103814880D03*
X60293640Y-103814880D03*
D26*
X66868040Y-44739560D03*
X66868040Y-47279560D03*
D18*
X66868040Y-49819560D03*
D25*
X97917000Y-64292480D03*
X90297000Y-71912480D03*
X97917000Y-66832480D03*
X90297000Y-69372480D03*
X97917000Y-69372480D03*
X90297000Y-66832480D03*
X97917000Y-71912480D03*
D27*
X90297000Y-64292480D03*
X90373200Y-48935640D03*
D25*
X97993200Y-56555640D03*
X90373200Y-51475640D03*
X97993200Y-54015640D03*
X90373200Y-54015640D03*
X97993200Y-51475640D03*
X90373200Y-56555640D03*
X97993200Y-48935640D03*
X126654560Y-31409640D03*
D24*
X126654560Y-44109640D03*
D22*
X103799640Y-44109640D03*
D23*
X103799640Y-39029640D03*
X103799640Y-41569640D03*
D25*
X112872520Y-41661080D03*
D24*
X112872520Y-54361080D03*
D21*
X103078280Y-28056840D03*
X100538280Y-28056840D03*
X105618280Y-28056840D03*
D25*
X120853200Y-35946080D03*
D24*
X108153200Y-35946080D03*
D28*
X100811440Y-98790760D02*
X104921160Y-94681040D01*
X96611440Y-98790760D02*
X100811440Y-98790760D01*
X122438160Y-94681040D02*
X125105160Y-92014040D01*
X104921160Y-94681040D02*
X122438160Y-94681040D01*
D29*
X119202330Y-28056840D02*
X123525280Y-32379790D01*
X116951760Y-28056840D02*
X119202330Y-28056840D01*
X123525280Y-38171120D02*
X122666760Y-39029640D01*
X123525280Y-32379790D02*
X123525280Y-38171120D01*
X121591958Y-39029640D02*
X120228360Y-40393238D01*
X122666760Y-39029640D02*
X121591958Y-39029640D01*
X120228360Y-48009800D02*
X121484400Y-49265840D01*
X120228360Y-40393238D02*
X120228360Y-48009800D01*
X121484400Y-49265840D02*
X124131080Y-51912520D01*
X100608440Y-36642040D02*
X103458320Y-33792160D01*
X98008440Y-36642040D02*
X100608440Y-36642040D01*
X103458320Y-33792160D02*
X109646720Y-33792160D01*
X109646720Y-33792160D02*
X110383320Y-34528760D01*
X110383320Y-39171880D02*
X112872520Y-41661080D01*
X110383320Y-34528760D02*
X110383320Y-39171880D01*
X90373200Y-39166800D02*
X87848440Y-36642040D01*
X90373200Y-42291000D02*
X90373200Y-39166800D01*
X103899770Y-64292480D02*
X106410760Y-61781490D01*
X102768400Y-64292480D02*
X103899770Y-64292480D01*
X106410760Y-61781490D02*
X106410760Y-57073800D01*
X106410760Y-57073800D02*
X101818440Y-52481480D01*
X101818440Y-52481480D02*
X101818440Y-51353720D01*
X99400360Y-48935640D02*
X97993200Y-48935640D01*
X101818440Y-51353720D02*
X99400360Y-48935640D01*
X88254840Y-54015640D02*
X90373200Y-54015640D01*
X72043090Y-57028080D02*
X75004730Y-59989720D01*
X75004730Y-59989720D02*
X85684360Y-59989720D01*
X85684360Y-59989720D02*
X87650320Y-58023760D01*
X70911720Y-57028080D02*
X72043090Y-57028080D01*
X87650320Y-58023760D02*
X87650320Y-54620160D01*
X87650320Y-54620160D02*
X88254840Y-54015640D01*
X119721830Y-35946080D02*
X119635470Y-35859720D01*
X120853200Y-35946080D02*
X119721830Y-35946080D01*
X119635470Y-35859720D02*
X116591080Y-35859720D01*
X114411760Y-33680400D02*
X114411760Y-28056840D01*
X116591080Y-35859720D02*
X114411760Y-33680400D01*
X111871760Y-30806520D02*
X112506760Y-31441520D01*
X111871760Y-28056840D02*
X111871760Y-30806520D01*
X112506760Y-31441520D02*
X112506760Y-36941760D01*
X112506760Y-36941760D02*
X115321080Y-39756080D01*
X115601080Y-44109640D02*
X117861080Y-44109640D01*
X115321080Y-43829640D02*
X115601080Y-44109640D01*
X115321080Y-39756080D02*
X115321080Y-43829640D01*
X71531480Y-76763880D02*
X78171040Y-76763880D01*
X88102440Y-66832480D02*
X90297000Y-66832480D01*
X78171040Y-76763880D02*
X88102440Y-66832480D01*
D30*
X97917000Y-73043850D02*
X97911920Y-73048930D01*
X97917000Y-71912480D02*
X97917000Y-73043850D01*
X97911920Y-73048930D02*
X97911920Y-81696560D01*
X83520280Y-81254600D02*
X87320120Y-85054440D01*
X94554040Y-85054440D02*
X97911920Y-81696560D01*
X87320120Y-85054440D02*
X94554040Y-85054440D01*
X97917000Y-69372480D02*
X100299520Y-71755000D01*
X100299520Y-71755000D02*
X100299520Y-86720680D01*
X100299520Y-86720680D02*
X95138240Y-91881960D01*
D29*
X91504570Y-51475640D02*
X91545210Y-51435000D01*
X90373200Y-51475640D02*
X91504570Y-51475640D01*
X91545210Y-51435000D02*
X92115640Y-51435000D01*
X92115640Y-51435000D02*
X93477080Y-52796440D01*
X93477080Y-52796440D02*
X93477080Y-58602880D01*
X93477080Y-58602880D02*
X90911680Y-61168280D01*
X90911680Y-61168280D02*
X88925400Y-61168280D01*
X88925400Y-61168280D02*
X80863440Y-69230240D01*
X80863440Y-69230240D02*
X80863440Y-70434200D01*
X80863440Y-70434200D02*
X77409040Y-73888600D01*
X77409040Y-73888600D02*
X69555360Y-73888600D01*
X66812160Y-76631800D02*
X66812160Y-81188560D01*
X69555360Y-73888600D02*
X66812160Y-76631800D01*
D30*
X85362850Y-76763880D02*
X85367930Y-76758800D01*
X84231480Y-76763880D02*
X85362850Y-76763880D01*
X85367930Y-76758800D02*
X93309440Y-76758800D01*
X93309440Y-76758800D02*
X95265240Y-74803000D01*
X95265240Y-74803000D02*
X95265240Y-65415160D01*
X94142560Y-64292480D02*
X90297000Y-64292480D01*
X95265240Y-65415160D02*
X94142560Y-64292480D01*
D29*
X98226880Y-60208160D02*
X102829360Y-60208160D01*
X94142560Y-64292480D02*
X98226880Y-60208160D01*
X60293640Y-97314880D02*
X60293640Y-71896360D01*
X60293640Y-71896360D02*
X59278520Y-70881240D01*
X59278520Y-70881240D02*
X59278520Y-61346080D01*
X59278520Y-61346080D02*
X66466720Y-54157880D01*
X82423000Y-54157880D02*
X84815680Y-56550560D01*
X66466720Y-54157880D02*
X82423000Y-54157880D01*
X108153200Y-41661080D02*
X108153200Y-35946080D01*
D31*
G36*
X141534680Y-48502714D02*
X141407131Y-112700133D01*
X79338186Y-112863438D01*
X45338200Y-112833354D01*
X45338200Y-111070825D01*
X45345041Y-110850201D01*
X45338200Y-110809206D01*
X45338200Y-108350066D01*
X46470094Y-108350066D01*
X46477120Y-108776110D01*
X46477120Y-109202289D01*
X46484440Y-109219960D01*
X46484755Y-109239083D01*
X46796760Y-109992330D01*
X46806467Y-109997402D01*
X46817379Y-110023746D01*
X47446094Y-110652461D01*
X47472438Y-110663373D01*
X47477510Y-110673080D01*
X47873828Y-110829634D01*
X48267551Y-110992720D01*
X48286680Y-110992720D01*
X48304466Y-110999746D01*
X48730510Y-110992720D01*
X49156689Y-110992720D01*
X49174360Y-110985400D01*
X49193483Y-110985085D01*
X49946730Y-110673080D01*
X49951802Y-110663373D01*
X49978146Y-110652461D01*
X50606861Y-110023746D01*
X50617773Y-109997402D01*
X50627480Y-109992330D01*
X50784034Y-109596012D01*
X50947120Y-109202289D01*
X50947120Y-109183160D01*
X50954146Y-109165374D01*
X50947120Y-108739330D01*
X50947120Y-108313151D01*
X50939800Y-108295480D01*
X50939485Y-108276357D01*
X50627480Y-107523110D01*
X50617773Y-107518038D01*
X50606861Y-107491694D01*
X49978146Y-106862979D01*
X49951802Y-106852067D01*
X49946730Y-106842360D01*
X49550412Y-106685806D01*
X49156689Y-106522720D01*
X49137560Y-106522720D01*
X49119774Y-106515694D01*
X48693730Y-106522720D01*
X48267551Y-106522720D01*
X48249880Y-106530040D01*
X48230757Y-106530355D01*
X47477510Y-106842360D01*
X47472438Y-106852067D01*
X47446094Y-106862979D01*
X46817379Y-107491694D01*
X46806467Y-107518038D01*
X46796760Y-107523110D01*
X46640206Y-107919428D01*
X46477120Y-108313151D01*
X46477120Y-108332280D01*
X46470094Y-108350066D01*
X45338200Y-108350066D01*
X45338200Y-103489658D01*
X54158640Y-103489658D01*
X54158640Y-104140102D01*
X54407554Y-104741033D01*
X54867487Y-105200966D01*
X55468418Y-105449880D01*
X56118862Y-105449880D01*
X56719793Y-105200966D01*
X57179726Y-104741033D01*
X57428640Y-104140102D01*
X57428640Y-103489658D01*
X58658640Y-103489658D01*
X58658640Y-104140102D01*
X58907554Y-104741033D01*
X59367487Y-105200966D01*
X59968418Y-105449880D01*
X60618862Y-105449880D01*
X61219793Y-105200966D01*
X61679726Y-104741033D01*
X61754270Y-104561067D01*
X78030070Y-104561067D01*
X78030070Y-105832212D01*
X78110462Y-106236371D01*
X78416700Y-106694689D01*
X78875018Y-107000928D01*
X79415640Y-107108464D01*
X79956261Y-107000928D01*
X80414579Y-106694690D01*
X80685640Y-106289019D01*
X80956700Y-106694689D01*
X81415018Y-107000928D01*
X81955640Y-107108464D01*
X82496261Y-107000928D01*
X82954579Y-106694690D01*
X83225640Y-106289019D01*
X83496700Y-106694689D01*
X83955018Y-107000928D01*
X84495640Y-107108464D01*
X85036261Y-107000928D01*
X85494579Y-106694690D01*
X85800818Y-106236372D01*
X85881210Y-105832213D01*
X85881210Y-104561067D01*
X85800818Y-104156908D01*
X85494580Y-103698590D01*
X85086255Y-103425756D01*
X94776440Y-103425756D01*
X94776440Y-104155764D01*
X95055802Y-104830204D01*
X95571996Y-105346398D01*
X96246436Y-105625760D01*
X96976444Y-105625760D01*
X97650884Y-105346398D01*
X98167078Y-104830204D01*
X98290863Y-104531360D01*
X105331720Y-104531360D01*
X105331720Y-107731360D01*
X105381003Y-107979125D01*
X105521351Y-108189169D01*
X105731395Y-108329517D01*
X105979160Y-108378800D01*
X109179160Y-108378800D01*
X109426925Y-108329517D01*
X109636969Y-108189169D01*
X109777317Y-107979125D01*
X109826600Y-107731360D01*
X109826600Y-106131360D01*
X120540374Y-106131360D01*
X120713836Y-107003414D01*
X121207815Y-107742705D01*
X121947106Y-108236684D01*
X122599032Y-108366360D01*
X123039288Y-108366360D01*
X123585554Y-108257701D01*
X125699520Y-108257701D01*
X125699520Y-109318699D01*
X126105546Y-110298934D01*
X126855786Y-111049174D01*
X127836021Y-111455200D01*
X128897019Y-111455200D01*
X129877254Y-111049174D01*
X130627494Y-110298934D01*
X131033520Y-109318699D01*
X131033520Y-108522786D01*
X135492014Y-108522786D01*
X135499040Y-108948830D01*
X135499040Y-109375009D01*
X135506360Y-109392680D01*
X135506675Y-109411803D01*
X135818680Y-110165050D01*
X135828387Y-110170122D01*
X135839299Y-110196466D01*
X136468014Y-110825181D01*
X136494358Y-110836093D01*
X136499430Y-110845800D01*
X136895748Y-111002354D01*
X137289471Y-111165440D01*
X137308600Y-111165440D01*
X137326386Y-111172466D01*
X137752430Y-111165440D01*
X138178609Y-111165440D01*
X138196280Y-111158120D01*
X138215403Y-111157805D01*
X138968650Y-110845800D01*
X138973722Y-110836093D01*
X139000066Y-110825181D01*
X139628781Y-110196466D01*
X139639693Y-110170122D01*
X139649400Y-110165050D01*
X139805954Y-109768732D01*
X139969040Y-109375009D01*
X139969040Y-109355880D01*
X139976066Y-109338094D01*
X139969040Y-108912050D01*
X139969040Y-108485871D01*
X139961720Y-108468200D01*
X139961405Y-108449077D01*
X139649400Y-107695830D01*
X139639693Y-107690758D01*
X139628781Y-107664414D01*
X139000066Y-107035699D01*
X138973722Y-107024787D01*
X138968650Y-107015080D01*
X138572332Y-106858526D01*
X138178609Y-106695440D01*
X138159480Y-106695440D01*
X138141694Y-106688414D01*
X137715650Y-106695440D01*
X137289471Y-106695440D01*
X137271800Y-106702760D01*
X137252677Y-106703075D01*
X136499430Y-107015080D01*
X136494358Y-107024787D01*
X136468014Y-107035699D01*
X135839299Y-107664414D01*
X135828387Y-107690758D01*
X135818680Y-107695830D01*
X135662126Y-108092148D01*
X135499040Y-108485871D01*
X135499040Y-108505000D01*
X135492014Y-108522786D01*
X131033520Y-108522786D01*
X131033520Y-108257701D01*
X130627494Y-107277466D01*
X129877254Y-106527226D01*
X128897019Y-106121200D01*
X127836021Y-106121200D01*
X126855786Y-106527226D01*
X126105546Y-107277466D01*
X125699520Y-108257701D01*
X123585554Y-108257701D01*
X123691214Y-108236684D01*
X124430505Y-107742705D01*
X124924484Y-107003414D01*
X125097946Y-106131360D01*
X124924484Y-105259306D01*
X124430505Y-104520015D01*
X123691214Y-104026036D01*
X123039288Y-103896360D01*
X122599032Y-103896360D01*
X121947106Y-104026036D01*
X121207815Y-104520015D01*
X120713836Y-105259306D01*
X120540374Y-106131360D01*
X109826600Y-106131360D01*
X109826600Y-104531360D01*
X109777317Y-104283595D01*
X109636969Y-104073551D01*
X109426925Y-103933203D01*
X109179160Y-103883920D01*
X105979160Y-103883920D01*
X105731395Y-103933203D01*
X105521351Y-104073551D01*
X105381003Y-104283595D01*
X105331720Y-104531360D01*
X98290863Y-104531360D01*
X98446440Y-104155764D01*
X98446440Y-103425756D01*
X98167078Y-102751316D01*
X97650884Y-102235122D01*
X96976444Y-101955760D01*
X96246436Y-101955760D01*
X95571996Y-102235122D01*
X95055802Y-102751316D01*
X94776440Y-103425756D01*
X85086255Y-103425756D01*
X85036262Y-103392352D01*
X84495640Y-103284816D01*
X83955019Y-103392352D01*
X83496701Y-103698590D01*
X83225640Y-104104260D01*
X82954580Y-103698590D01*
X82496262Y-103392352D01*
X81955640Y-103284816D01*
X81415019Y-103392352D01*
X80956701Y-103698590D01*
X80685640Y-104104260D01*
X80414580Y-103698590D01*
X79956262Y-103392352D01*
X79415640Y-103284816D01*
X78875019Y-103392352D01*
X78416701Y-103698590D01*
X78110462Y-104156908D01*
X78030070Y-104561067D01*
X61754270Y-104561067D01*
X61928640Y-104140102D01*
X61928640Y-103489658D01*
X61679726Y-102888727D01*
X61219793Y-102428794D01*
X60618862Y-102179880D01*
X59968418Y-102179880D01*
X59367487Y-102428794D01*
X58907554Y-102888727D01*
X58658640Y-103489658D01*
X57428640Y-103489658D01*
X57179726Y-102888727D01*
X56719793Y-102428794D01*
X56118862Y-102179880D01*
X55468418Y-102179880D01*
X54867487Y-102428794D01*
X54407554Y-102888727D01*
X54158640Y-103489658D01*
X45338200Y-103489658D01*
X45338200Y-100374880D01*
X65264720Y-100374880D01*
X65264720Y-102174880D01*
X65314003Y-102422645D01*
X65454351Y-102632689D01*
X65664395Y-102773037D01*
X65912160Y-102822320D01*
X67712160Y-102822320D01*
X67959925Y-102773037D01*
X68169969Y-102632689D01*
X68310317Y-102422645D01*
X68359600Y-102174880D01*
X68359600Y-100374880D01*
X68310317Y-100127115D01*
X68169969Y-99917071D01*
X67959925Y-99776723D01*
X67944252Y-99773605D01*
X68113470Y-99604387D01*
X68347160Y-99040210D01*
X68347160Y-98790760D01*
X94434613Y-98790760D01*
X94600314Y-99623796D01*
X94764000Y-99868769D01*
X94764000Y-99990760D01*
X94813283Y-100238525D01*
X94953631Y-100448569D01*
X95163675Y-100588917D01*
X95411440Y-100638200D01*
X95533431Y-100638200D01*
X95778404Y-100801886D01*
X96401161Y-100925760D01*
X100601165Y-100925760D01*
X100811440Y-100967586D01*
X101021715Y-100925760D01*
X101021719Y-100925760D01*
X101644476Y-100801886D01*
X102350689Y-100330009D01*
X102469804Y-100151741D01*
X104546865Y-98074680D01*
X105331720Y-98074680D01*
X105331720Y-101274680D01*
X105381003Y-101522445D01*
X105521351Y-101732489D01*
X105731395Y-101872837D01*
X105979160Y-101922120D01*
X109179160Y-101922120D01*
X109426925Y-101872837D01*
X109636969Y-101732489D01*
X109777317Y-101522445D01*
X109826600Y-101274680D01*
X109826600Y-99674680D01*
X120540374Y-99674680D01*
X120713836Y-100546734D01*
X121207815Y-101286025D01*
X121947106Y-101780004D01*
X122599032Y-101909680D01*
X123039288Y-101909680D01*
X123691214Y-101780004D01*
X124430505Y-101286025D01*
X124924484Y-100546734D01*
X125097946Y-99674680D01*
X124924484Y-98802626D01*
X124430505Y-98063335D01*
X124040978Y-97803061D01*
X134487920Y-97803061D01*
X134487920Y-98864059D01*
X134893946Y-99844294D01*
X135644186Y-100594534D01*
X136624421Y-101000560D01*
X137685419Y-101000560D01*
X138665654Y-100594534D01*
X139415894Y-99844294D01*
X139821920Y-98864059D01*
X139821920Y-97803061D01*
X139415894Y-96822826D01*
X138665654Y-96072586D01*
X137685419Y-95666560D01*
X136624421Y-95666560D01*
X135644186Y-96072586D01*
X134893946Y-96822826D01*
X134487920Y-97803061D01*
X124040978Y-97803061D01*
X123691214Y-97569356D01*
X123039288Y-97439680D01*
X122599032Y-97439680D01*
X121947106Y-97569356D01*
X121207815Y-98063335D01*
X120713836Y-98802626D01*
X120540374Y-99674680D01*
X109826600Y-99674680D01*
X109826600Y-98074680D01*
X109777317Y-97826915D01*
X109636969Y-97616871D01*
X109426925Y-97476523D01*
X109179160Y-97427240D01*
X105979160Y-97427240D01*
X105731395Y-97476523D01*
X105521351Y-97616871D01*
X105381003Y-97826915D01*
X105331720Y-98074680D01*
X104546865Y-98074680D01*
X105805506Y-96816040D01*
X122227885Y-96816040D01*
X122438160Y-96857866D01*
X122648435Y-96816040D01*
X122648439Y-96816040D01*
X123271196Y-96692166D01*
X123977409Y-96220289D01*
X124096524Y-96042021D01*
X125760211Y-94378334D01*
X126484476Y-94078333D01*
X127169453Y-93393356D01*
X127540160Y-92498392D01*
X127540160Y-91529688D01*
X127169453Y-90634724D01*
X126484476Y-89949747D01*
X125589512Y-89579040D01*
X124620808Y-89579040D01*
X123725844Y-89949747D01*
X123040867Y-90634724D01*
X122740866Y-91358989D01*
X121553815Y-92546040D01*
X105131435Y-92546040D01*
X104921160Y-92504214D01*
X104710885Y-92546040D01*
X104710881Y-92546040D01*
X104088124Y-92669914D01*
X103381911Y-93141791D01*
X103262798Y-93320056D01*
X99927095Y-96655760D01*
X96401161Y-96655760D01*
X95778404Y-96779634D01*
X95533431Y-96943320D01*
X95411440Y-96943320D01*
X95163675Y-96992603D01*
X94953631Y-97132951D01*
X94813283Y-97342995D01*
X94764000Y-97590760D01*
X94764000Y-97712751D01*
X94600314Y-97957724D01*
X94434613Y-98790760D01*
X68347160Y-98790760D01*
X68347160Y-98429550D01*
X68113470Y-97865373D01*
X67681667Y-97433570D01*
X67117490Y-97199880D01*
X66506830Y-97199880D01*
X65942653Y-97433570D01*
X65510850Y-97865373D01*
X65277160Y-98429550D01*
X65277160Y-99040210D01*
X65510850Y-99604387D01*
X65680068Y-99773605D01*
X65664395Y-99776723D01*
X65454351Y-99917071D01*
X65314003Y-100127115D01*
X65264720Y-100374880D01*
X45338200Y-100374880D01*
X45338200Y-96989658D01*
X54158640Y-96989658D01*
X54158640Y-97640102D01*
X54407554Y-98241033D01*
X54867487Y-98700966D01*
X55468418Y-98949880D01*
X56118862Y-98949880D01*
X56719793Y-98700966D01*
X57179726Y-98241033D01*
X57428640Y-97640102D01*
X57428640Y-96989658D01*
X57179726Y-96388727D01*
X56719793Y-95928794D01*
X56118862Y-95679880D01*
X55468418Y-95679880D01*
X54867487Y-95928794D01*
X54407554Y-96388727D01*
X54158640Y-96989658D01*
X45338200Y-96989658D01*
X45338200Y-76091141D01*
X45841920Y-76091141D01*
X45841920Y-77152139D01*
X46247946Y-78132374D01*
X46998186Y-78882614D01*
X47978421Y-79288640D01*
X49039419Y-79288640D01*
X50019654Y-78882614D01*
X50769894Y-78132374D01*
X51175920Y-77152139D01*
X51175920Y-76091141D01*
X50769894Y-75110906D01*
X50019654Y-74360666D01*
X49039419Y-73954640D01*
X47978421Y-73954640D01*
X46998186Y-74360666D01*
X46247946Y-75110906D01*
X45841920Y-76091141D01*
X45338200Y-76091141D01*
X45338200Y-68656200D01*
X51582247Y-68656200D01*
X51693620Y-69216109D01*
X52010783Y-69690777D01*
X52485451Y-70007940D01*
X52904027Y-70091200D01*
X53186693Y-70091200D01*
X53605269Y-70007940D01*
X54079937Y-69690777D01*
X54397100Y-69216109D01*
X54508473Y-68656200D01*
X54397100Y-68096291D01*
X54079937Y-67621623D01*
X53605269Y-67304460D01*
X53186693Y-67221200D01*
X52904027Y-67221200D01*
X52485451Y-67304460D01*
X52010783Y-67621623D01*
X51693620Y-68096291D01*
X51582247Y-68656200D01*
X45338200Y-68656200D01*
X45338200Y-61346080D01*
X57866387Y-61346080D01*
X57893521Y-61482492D01*
X57893520Y-70744833D01*
X57866387Y-70881240D01*
X57893520Y-71017646D01*
X57973879Y-71421639D01*
X58279991Y-71879768D01*
X58395632Y-71957037D01*
X58908641Y-72470046D01*
X58908640Y-96387641D01*
X58907554Y-96388727D01*
X58658640Y-96989658D01*
X58658640Y-97640102D01*
X58907554Y-98241033D01*
X59367487Y-98700966D01*
X59968418Y-98949880D01*
X60618862Y-98949880D01*
X61219793Y-98700966D01*
X61679726Y-98241033D01*
X61928640Y-97640102D01*
X61928640Y-96989658D01*
X61679726Y-96388727D01*
X61678640Y-96387641D01*
X61678640Y-93603121D01*
X65377160Y-93603121D01*
X65377160Y-94173999D01*
X65595626Y-94701422D01*
X65999298Y-95105094D01*
X66526721Y-95323560D01*
X67097599Y-95323560D01*
X67625022Y-95105094D01*
X68028694Y-94701422D01*
X68247160Y-94173999D01*
X68247160Y-93603121D01*
X70096480Y-93603121D01*
X70096480Y-94173999D01*
X70314946Y-94701422D01*
X70718618Y-95105094D01*
X71246041Y-95323560D01*
X71816919Y-95323560D01*
X72344342Y-95105094D01*
X72748014Y-94701422D01*
X72966480Y-94173999D01*
X72966480Y-93669161D01*
X77238960Y-93669161D01*
X77238960Y-94240039D01*
X77457426Y-94767462D01*
X77861098Y-95171134D01*
X78388521Y-95389600D01*
X78959399Y-95389600D01*
X79486822Y-95171134D01*
X79890494Y-94767462D01*
X80108960Y-94240039D01*
X80108960Y-93669161D01*
X82085280Y-93669161D01*
X82085280Y-94240039D01*
X82303746Y-94767462D01*
X82707418Y-95171134D01*
X83234841Y-95389600D01*
X83805719Y-95389600D01*
X84333142Y-95171134D01*
X84736814Y-94767462D01*
X84955280Y-94240039D01*
X84955280Y-93669161D01*
X84736814Y-93141738D01*
X84333142Y-92738066D01*
X83805719Y-92519600D01*
X83234841Y-92519600D01*
X82707418Y-92738066D01*
X82303746Y-93141738D01*
X82085280Y-93669161D01*
X80108960Y-93669161D01*
X79890494Y-93141738D01*
X79486822Y-92738066D01*
X78959399Y-92519600D01*
X78388521Y-92519600D01*
X77861098Y-92738066D01*
X77457426Y-93141738D01*
X77238960Y-93669161D01*
X72966480Y-93669161D01*
X72966480Y-93603121D01*
X72748014Y-93075698D01*
X72344342Y-92672026D01*
X71816919Y-92453560D01*
X71246041Y-92453560D01*
X70718618Y-92672026D01*
X70314946Y-93075698D01*
X70096480Y-93603121D01*
X68247160Y-93603121D01*
X68028694Y-93075698D01*
X67625022Y-92672026D01*
X67097599Y-92453560D01*
X66526721Y-92453560D01*
X65999298Y-92672026D01*
X65595626Y-93075698D01*
X65377160Y-93603121D01*
X61678640Y-93603121D01*
X61678640Y-91611761D01*
X88862000Y-91611761D01*
X88862000Y-92182639D01*
X89080466Y-92710062D01*
X89484138Y-93113734D01*
X90011561Y-93332200D01*
X90582439Y-93332200D01*
X91109862Y-93113734D01*
X91513534Y-92710062D01*
X91732000Y-92182639D01*
X91732000Y-91611761D01*
X91513534Y-91084338D01*
X91109862Y-90680666D01*
X90582439Y-90462200D01*
X90011561Y-90462200D01*
X89484138Y-90680666D01*
X89080466Y-91084338D01*
X88862000Y-91611761D01*
X61678640Y-91611761D01*
X61678640Y-81188560D01*
X65349047Y-81188560D01*
X65460420Y-81748469D01*
X65777583Y-82223137D01*
X66252251Y-82540300D01*
X66670827Y-82623560D01*
X66953493Y-82623560D01*
X67372069Y-82540300D01*
X67846737Y-82223137D01*
X68163900Y-81748469D01*
X68275273Y-81188560D01*
X70068367Y-81188560D01*
X70179740Y-81748469D01*
X70496903Y-82223137D01*
X70971571Y-82540300D01*
X71390147Y-82623560D01*
X71672813Y-82623560D01*
X72091389Y-82540300D01*
X72566057Y-82223137D01*
X72883220Y-81748469D01*
X72981456Y-81254600D01*
X77210847Y-81254600D01*
X77322220Y-81814509D01*
X77639383Y-82289177D01*
X78114051Y-82606340D01*
X78532627Y-82689600D01*
X78815293Y-82689600D01*
X79233869Y-82606340D01*
X79708537Y-82289177D01*
X80025700Y-81814509D01*
X80137073Y-81254600D01*
X80025700Y-80694691D01*
X79708537Y-80220023D01*
X79233869Y-79902860D01*
X78815293Y-79819600D01*
X78532627Y-79819600D01*
X78114051Y-79902860D01*
X77639383Y-80220023D01*
X77322220Y-80694691D01*
X77210847Y-81254600D01*
X72981456Y-81254600D01*
X72994593Y-81188560D01*
X72883220Y-80628651D01*
X72566057Y-80153983D01*
X72091389Y-79836820D01*
X71672813Y-79753560D01*
X71390147Y-79753560D01*
X70971571Y-79836820D01*
X70496903Y-80153983D01*
X70179740Y-80628651D01*
X70068367Y-81188560D01*
X68275273Y-81188560D01*
X68197160Y-80795860D01*
X68197160Y-77205485D01*
X70129046Y-75273600D01*
X77272633Y-75273600D01*
X77409040Y-75300733D01*
X77545447Y-75273600D01*
X77741665Y-75234570D01*
X77597355Y-75378880D01*
X71937630Y-75378880D01*
X71816919Y-75328880D01*
X71246041Y-75328880D01*
X70718618Y-75547346D01*
X70314946Y-75951018D01*
X70096480Y-76478441D01*
X70096480Y-77049319D01*
X70314946Y-77576742D01*
X70718618Y-77980414D01*
X71246041Y-78198880D01*
X71816919Y-78198880D01*
X71937630Y-78148880D01*
X78034633Y-78148880D01*
X78171040Y-78176013D01*
X78307447Y-78148880D01*
X78711440Y-78068521D01*
X79169569Y-77762409D01*
X79246840Y-77646766D01*
X88676126Y-68217480D01*
X89442649Y-68217480D01*
X89262423Y-68337903D01*
X88945260Y-68812571D01*
X88833887Y-69372480D01*
X88945260Y-69932389D01*
X89262423Y-70407057D01*
X89614758Y-70642480D01*
X89262423Y-70877903D01*
X88945260Y-71352571D01*
X88833887Y-71912480D01*
X88945260Y-72472389D01*
X89262423Y-72947057D01*
X89737091Y-73264220D01*
X90155667Y-73347480D01*
X90438333Y-73347480D01*
X90856909Y-73264220D01*
X91331577Y-72947057D01*
X91648740Y-72472389D01*
X91760113Y-71912480D01*
X91648740Y-71352571D01*
X91331577Y-70877903D01*
X90979242Y-70642480D01*
X91331577Y-70407057D01*
X91648740Y-69932389D01*
X91760113Y-69372480D01*
X91648740Y-68812571D01*
X91331577Y-68337903D01*
X90979242Y-68102480D01*
X91331577Y-67867057D01*
X91648740Y-67392389D01*
X91760113Y-66832480D01*
X91648740Y-66272571D01*
X91331577Y-65797903D01*
X91210894Y-65717265D01*
X91344765Y-65690637D01*
X91554809Y-65550289D01*
X91570050Y-65527480D01*
X93497936Y-65527480D01*
X93602161Y-65597121D01*
X93725102Y-65621575D01*
X94030241Y-65926715D01*
X94030240Y-74291446D01*
X92797887Y-75523800D01*
X85489560Y-75523800D01*
X85367929Y-75499606D01*
X85246299Y-75523800D01*
X85246294Y-75523800D01*
X85220755Y-75528880D01*
X84966103Y-75528880D01*
X84791389Y-75412140D01*
X84372813Y-75328880D01*
X84090147Y-75328880D01*
X83671571Y-75412140D01*
X83196903Y-75729303D01*
X82879740Y-76203971D01*
X82768367Y-76763880D01*
X82879740Y-77323789D01*
X83196903Y-77798457D01*
X83671571Y-78115620D01*
X84090147Y-78198880D01*
X84372813Y-78198880D01*
X84791389Y-78115620D01*
X84966103Y-77998880D01*
X85241218Y-77998880D01*
X85362850Y-78023074D01*
X85484482Y-77998880D01*
X85484486Y-77998880D01*
X85510025Y-77993800D01*
X89515084Y-77993800D01*
X89262423Y-78162623D01*
X88945260Y-78637291D01*
X88833887Y-79197200D01*
X88945260Y-79757109D01*
X89262423Y-80231777D01*
X89737091Y-80548940D01*
X90155667Y-80632200D01*
X90438333Y-80632200D01*
X90856909Y-80548940D01*
X91331577Y-80231777D01*
X91648740Y-79757109D01*
X91760113Y-79197200D01*
X91700305Y-78896521D01*
X93703240Y-78896521D01*
X93703240Y-79467399D01*
X93921706Y-79994822D01*
X94325378Y-80398494D01*
X94852801Y-80616960D01*
X95423679Y-80616960D01*
X95951102Y-80398494D01*
X96354774Y-79994822D01*
X96573240Y-79467399D01*
X96573240Y-78896521D01*
X96354774Y-78369098D01*
X95951102Y-77965426D01*
X95423679Y-77746960D01*
X94852801Y-77746960D01*
X94325378Y-77965426D01*
X93921706Y-78369098D01*
X93703240Y-78896521D01*
X91700305Y-78896521D01*
X91648740Y-78637291D01*
X91331577Y-78162623D01*
X91078916Y-77993800D01*
X93187808Y-77993800D01*
X93309440Y-78017994D01*
X93431072Y-77993800D01*
X93431076Y-77993800D01*
X93791313Y-77922144D01*
X94199825Y-77649185D01*
X94268727Y-77546066D01*
X96052510Y-75762284D01*
X96155625Y-75693385D01*
X96253206Y-75547346D01*
X96428584Y-75284873D01*
X96463188Y-75110906D01*
X96500240Y-74924636D01*
X96500240Y-74924632D01*
X96524434Y-74803000D01*
X96500240Y-74681368D01*
X96500240Y-72145512D01*
X96565260Y-72472389D01*
X96682000Y-72647103D01*
X96682000Y-72901756D01*
X96676920Y-72927295D01*
X96676920Y-72927298D01*
X96652726Y-73048930D01*
X96676920Y-73170562D01*
X96676921Y-81185005D01*
X94042487Y-83819440D01*
X87831674Y-83819440D01*
X84913014Y-80900781D01*
X84872020Y-80694691D01*
X84554857Y-80220023D01*
X84080189Y-79902860D01*
X83661613Y-79819600D01*
X83378947Y-79819600D01*
X82960371Y-79902860D01*
X82485703Y-80220023D01*
X82168540Y-80694691D01*
X82057167Y-81254600D01*
X82168540Y-81814509D01*
X82485703Y-82289177D01*
X82960371Y-82606340D01*
X83166461Y-82647334D01*
X86360835Y-85841709D01*
X86429735Y-85944825D01*
X86532851Y-86013725D01*
X86532852Y-86013726D01*
X86623378Y-86074213D01*
X86838247Y-86217784D01*
X87198484Y-86289440D01*
X87198488Y-86289440D01*
X87320119Y-86313634D01*
X87441750Y-86289440D01*
X94432408Y-86289440D01*
X94554040Y-86313634D01*
X94675672Y-86289440D01*
X94675676Y-86289440D01*
X95035913Y-86217784D01*
X95444425Y-85944825D01*
X95513327Y-85841706D01*
X98699189Y-82655845D01*
X98802305Y-82586945D01*
X99064521Y-82194511D01*
X99064521Y-86209125D01*
X94784421Y-90489226D01*
X94578331Y-90530220D01*
X94103663Y-90847383D01*
X93786500Y-91322051D01*
X93675127Y-91881960D01*
X93786500Y-92441869D01*
X94103663Y-92916537D01*
X94578331Y-93233700D01*
X94996907Y-93316960D01*
X95279573Y-93316960D01*
X95698149Y-93233700D01*
X96172817Y-92916537D01*
X96489980Y-92441869D01*
X96530974Y-92235779D01*
X101086789Y-87679965D01*
X101189905Y-87611065D01*
X101462864Y-87202553D01*
X101484378Y-87094395D01*
X101636308Y-87246325D01*
X101620635Y-87249443D01*
X101410591Y-87389791D01*
X101270243Y-87599835D01*
X101220960Y-87847600D01*
X101220960Y-89647600D01*
X101270243Y-89895365D01*
X101410591Y-90105409D01*
X101620635Y-90245757D01*
X101868400Y-90295040D01*
X103668400Y-90295040D01*
X103916165Y-90245757D01*
X104126209Y-90105409D01*
X104266557Y-89895365D01*
X104315840Y-89647600D01*
X104315840Y-87847600D01*
X104266557Y-87599835D01*
X104126209Y-87389791D01*
X103916165Y-87249443D01*
X103900492Y-87246325D01*
X104069710Y-87077107D01*
X104303400Y-86512930D01*
X104303400Y-85902270D01*
X104069710Y-85338093D01*
X103637907Y-84906290D01*
X103073730Y-84672600D01*
X102463070Y-84672600D01*
X101898893Y-84906290D01*
X101534520Y-85270663D01*
X101534520Y-84498616D01*
X101620635Y-84556157D01*
X101868400Y-84605440D01*
X103668400Y-84605440D01*
X103916165Y-84556157D01*
X104126209Y-84415809D01*
X104266557Y-84205765D01*
X104315840Y-83958000D01*
X104315840Y-82158000D01*
X104266557Y-81910235D01*
X104126209Y-81700191D01*
X103916165Y-81559843D01*
X103900492Y-81556725D01*
X104069710Y-81387507D01*
X104303400Y-80823330D01*
X104303400Y-80212670D01*
X104069710Y-79648493D01*
X103637907Y-79216690D01*
X103073730Y-78983000D01*
X102463070Y-78983000D01*
X101898893Y-79216690D01*
X101534520Y-79581063D01*
X101534520Y-78829688D01*
X122670160Y-78829688D01*
X122670160Y-79798392D01*
X123040867Y-80693356D01*
X123725844Y-81378333D01*
X124620808Y-81749040D01*
X125589512Y-81749040D01*
X126484476Y-81378333D01*
X127169453Y-80693356D01*
X127540160Y-79798392D01*
X127540160Y-78829688D01*
X127169453Y-77934724D01*
X126484476Y-77249747D01*
X125589512Y-76879040D01*
X124620808Y-76879040D01*
X123725844Y-77249747D01*
X123040867Y-77934724D01*
X122670160Y-78829688D01*
X101534520Y-78829688D01*
X101534520Y-77728779D01*
X101733823Y-78027057D01*
X102208491Y-78344220D01*
X102627067Y-78427480D01*
X102909733Y-78427480D01*
X103328309Y-78344220D01*
X103802977Y-78027057D01*
X104120140Y-77552389D01*
X104231513Y-76992480D01*
X104120140Y-76432571D01*
X103802977Y-75957903D01*
X103328309Y-75640740D01*
X102909733Y-75557480D01*
X102627067Y-75557480D01*
X102208491Y-75640740D01*
X101733823Y-75957903D01*
X101534520Y-76256181D01*
X101534520Y-72901328D01*
X122670160Y-72901328D01*
X122670160Y-73870032D01*
X123040867Y-74764996D01*
X123725844Y-75449973D01*
X124620808Y-75820680D01*
X125589512Y-75820680D01*
X126484476Y-75449973D01*
X127169453Y-74764996D01*
X127540160Y-73870032D01*
X127540160Y-72901328D01*
X127169453Y-72006364D01*
X126484476Y-71321387D01*
X125589512Y-70950680D01*
X124620808Y-70950680D01*
X123725844Y-71321387D01*
X123040867Y-72006364D01*
X122670160Y-72901328D01*
X101534520Y-72901328D01*
X101534520Y-71876631D01*
X101558714Y-71754999D01*
X101534520Y-71633365D01*
X101534520Y-71633364D01*
X101462864Y-71273127D01*
X101292157Y-71017646D01*
X101258806Y-70967732D01*
X101258805Y-70967731D01*
X101189905Y-70864615D01*
X101086790Y-70795716D01*
X99309734Y-69018661D01*
X99268740Y-68812571D01*
X98951577Y-68337903D01*
X98599242Y-68102480D01*
X98951577Y-67867057D01*
X99268740Y-67392389D01*
X99380113Y-66832480D01*
X99268740Y-66272571D01*
X98951577Y-65797903D01*
X98599242Y-65562480D01*
X98951577Y-65327057D01*
X99268740Y-64852389D01*
X99380113Y-64292480D01*
X99268740Y-63732571D01*
X98951577Y-63257903D01*
X98476909Y-62940740D01*
X98058333Y-62857480D01*
X97775667Y-62857480D01*
X97476796Y-62916929D01*
X98800566Y-61593160D01*
X102423210Y-61593160D01*
X102543921Y-61643160D01*
X103114799Y-61643160D01*
X103642222Y-61424694D01*
X104045894Y-61021022D01*
X104264360Y-60493599D01*
X104264360Y-59922721D01*
X104045894Y-59395298D01*
X103642222Y-58991626D01*
X103114799Y-58773160D01*
X102543921Y-58773160D01*
X102423210Y-58823160D01*
X98363287Y-58823160D01*
X98226880Y-58796027D01*
X98090473Y-58823160D01*
X97686480Y-58903519D01*
X97228351Y-59209631D01*
X97151082Y-59325272D01*
X93418875Y-63057480D01*
X91570050Y-63057480D01*
X91554809Y-63034671D01*
X91344765Y-62894323D01*
X91097000Y-62845040D01*
X89497000Y-62845040D01*
X89249235Y-62894323D01*
X89039191Y-63034671D01*
X88898843Y-63244715D01*
X88849560Y-63492480D01*
X88849560Y-65092480D01*
X88898843Y-65340245D01*
X88970496Y-65447480D01*
X88238847Y-65447480D01*
X88102440Y-65420347D01*
X87966033Y-65447480D01*
X87562040Y-65527839D01*
X87103911Y-65833951D01*
X87026642Y-65949592D01*
X82209410Y-70766824D01*
X82248440Y-70570607D01*
X82275573Y-70434201D01*
X82248440Y-70297795D01*
X82248440Y-69803925D01*
X89499086Y-62553280D01*
X90775273Y-62553280D01*
X90911680Y-62580413D01*
X91048087Y-62553280D01*
X91452080Y-62472921D01*
X91910209Y-62166809D01*
X91987480Y-62051165D01*
X94359965Y-59678680D01*
X94475609Y-59601409D01*
X94781721Y-59143280D01*
X94862080Y-58739287D01*
X94862080Y-58739283D01*
X94889212Y-58602881D01*
X94862080Y-58466479D01*
X94862080Y-52932847D01*
X94889213Y-52796440D01*
X94781721Y-52256040D01*
X94552877Y-51913551D01*
X94552875Y-51913549D01*
X94475608Y-51797911D01*
X94359970Y-51720644D01*
X93191439Y-50552114D01*
X93114169Y-50436471D01*
X92656040Y-50130359D01*
X92252047Y-50050000D01*
X92115640Y-50022867D01*
X91979233Y-50050000D01*
X91726859Y-50050000D01*
X91771357Y-49983405D01*
X91820640Y-49735640D01*
X91820640Y-48935640D01*
X96530087Y-48935640D01*
X96641460Y-49495549D01*
X96958623Y-49970217D01*
X97310958Y-50205640D01*
X96958623Y-50441063D01*
X96641460Y-50915731D01*
X96530087Y-51475640D01*
X96641460Y-52035549D01*
X96958623Y-52510217D01*
X97310958Y-52745640D01*
X96958623Y-52981063D01*
X96641460Y-53455731D01*
X96530087Y-54015640D01*
X96641460Y-54575549D01*
X96958623Y-55050217D01*
X97310958Y-55285640D01*
X96958623Y-55521063D01*
X96641460Y-55995731D01*
X96530087Y-56555640D01*
X96641460Y-57115549D01*
X96958623Y-57590217D01*
X97433291Y-57907380D01*
X97851867Y-57990640D01*
X98134533Y-57990640D01*
X98553109Y-57907380D01*
X99027777Y-57590217D01*
X99344940Y-57115549D01*
X99456313Y-56555640D01*
X99344940Y-55995731D01*
X99027777Y-55521063D01*
X98675442Y-55285640D01*
X99027777Y-55050217D01*
X99344940Y-54575549D01*
X99456313Y-54015640D01*
X99344940Y-53455731D01*
X99027777Y-52981063D01*
X98675442Y-52745640D01*
X99027777Y-52510217D01*
X99344940Y-52035549D01*
X99456313Y-51475640D01*
X99344940Y-50915731D01*
X99190239Y-50684204D01*
X100433440Y-51927406D01*
X100433440Y-52345073D01*
X100406307Y-52481480D01*
X100491672Y-52910640D01*
X100513799Y-53021879D01*
X100819911Y-53480008D01*
X100935552Y-53557277D01*
X105025761Y-57647487D01*
X105025760Y-61207804D01*
X103326085Y-62907480D01*
X103174550Y-62907480D01*
X103053839Y-62857480D01*
X102482961Y-62857480D01*
X101955538Y-63075946D01*
X101551866Y-63479618D01*
X101333400Y-64007041D01*
X101333400Y-64577919D01*
X101551866Y-65105342D01*
X101955538Y-65509014D01*
X102482961Y-65727480D01*
X103053839Y-65727480D01*
X103174550Y-65677480D01*
X103763363Y-65677480D01*
X103899770Y-65704613D01*
X104036177Y-65677480D01*
X104440170Y-65597121D01*
X104898299Y-65291009D01*
X104975569Y-65175366D01*
X107293650Y-62857286D01*
X107409288Y-62780019D01*
X107486555Y-62664381D01*
X107486557Y-62664379D01*
X107715400Y-62321891D01*
X107715401Y-62321890D01*
X107795760Y-61917897D01*
X107795760Y-61917896D01*
X107822893Y-61781491D01*
X107795760Y-61645085D01*
X107795760Y-60201328D01*
X122670160Y-60201328D01*
X122670160Y-61170032D01*
X123040867Y-62064996D01*
X123725844Y-62749973D01*
X124620808Y-63120680D01*
X125589512Y-63120680D01*
X126484476Y-62749973D01*
X127169453Y-62064996D01*
X127540160Y-61170032D01*
X127540160Y-60201328D01*
X127169453Y-59306364D01*
X126484476Y-58621387D01*
X125589512Y-58250680D01*
X124620808Y-58250680D01*
X123725844Y-58621387D01*
X123040867Y-59306364D01*
X122670160Y-60201328D01*
X107795760Y-60201328D01*
X107795760Y-57210205D01*
X107822893Y-57073799D01*
X107795760Y-56937393D01*
X107715401Y-56533400D01*
X107409289Y-56075271D01*
X107293648Y-55998002D01*
X105371287Y-54075641D01*
X106718200Y-54075641D01*
X106718200Y-54646519D01*
X106936666Y-55173942D01*
X107340338Y-55577614D01*
X107867761Y-55796080D01*
X108438639Y-55796080D01*
X108966062Y-55577614D01*
X109369734Y-55173942D01*
X109588200Y-54646519D01*
X109588200Y-54075641D01*
X111437520Y-54075641D01*
X111437520Y-54646519D01*
X111655986Y-55173942D01*
X112059658Y-55577614D01*
X112587081Y-55796080D01*
X113157959Y-55796080D01*
X113685382Y-55577614D01*
X114089054Y-55173942D01*
X114307520Y-54646519D01*
X114307520Y-54075641D01*
X114089054Y-53548218D01*
X113685382Y-53144546D01*
X113157959Y-52926080D01*
X112587081Y-52926080D01*
X112059658Y-53144546D01*
X111655986Y-53548218D01*
X111437520Y-54075641D01*
X109588200Y-54075641D01*
X109369734Y-53548218D01*
X108966062Y-53144546D01*
X108438639Y-52926080D01*
X107867761Y-52926080D01*
X107340338Y-53144546D01*
X106936666Y-53548218D01*
X106718200Y-54075641D01*
X105371287Y-54075641D01*
X103203440Y-51907795D01*
X103203440Y-51490127D01*
X103230573Y-51353720D01*
X103123081Y-50813320D01*
X102894237Y-50470831D01*
X102816969Y-50355191D01*
X102701328Y-50277922D01*
X100476159Y-48052754D01*
X100398889Y-47937111D01*
X99940760Y-47630999D01*
X99536767Y-47550640D01*
X99400360Y-47523507D01*
X99263953Y-47550640D01*
X98385900Y-47550640D01*
X98172339Y-47508160D01*
X101366247Y-47508160D01*
X101477620Y-48068069D01*
X101794783Y-48542737D01*
X102269451Y-48859900D01*
X102688027Y-48943160D01*
X102970693Y-48943160D01*
X103389269Y-48859900D01*
X103863937Y-48542737D01*
X104181100Y-48068069D01*
X104292473Y-47508160D01*
X104181100Y-46948251D01*
X103863937Y-46473583D01*
X103389269Y-46156420D01*
X102970693Y-46073160D01*
X102688027Y-46073160D01*
X102269451Y-46156420D01*
X101794783Y-46473583D01*
X101477620Y-46948251D01*
X101366247Y-47508160D01*
X98172339Y-47508160D01*
X98134533Y-47500640D01*
X97851867Y-47500640D01*
X97433291Y-47583900D01*
X96958623Y-47901063D01*
X96641460Y-48375731D01*
X96530087Y-48935640D01*
X91820640Y-48935640D01*
X91820640Y-48135640D01*
X91771357Y-47887875D01*
X91631009Y-47677831D01*
X91420965Y-47537483D01*
X91173200Y-47488200D01*
X89573200Y-47488200D01*
X89325435Y-47537483D01*
X89115391Y-47677831D01*
X88975043Y-47887875D01*
X88925760Y-48135640D01*
X88925760Y-49735640D01*
X88975043Y-49983405D01*
X89115391Y-50193449D01*
X89325435Y-50333797D01*
X89459306Y-50360425D01*
X89338623Y-50441063D01*
X89021460Y-50915731D01*
X88910087Y-51475640D01*
X89021460Y-52035549D01*
X89338623Y-52510217D01*
X89518849Y-52630640D01*
X88391241Y-52630640D01*
X88254839Y-52603508D01*
X88118437Y-52630640D01*
X88118433Y-52630640D01*
X87714440Y-52710999D01*
X87256311Y-53017111D01*
X87179039Y-53132757D01*
X86767433Y-53544362D01*
X86651792Y-53621631D01*
X86574523Y-53737272D01*
X86345679Y-54079761D01*
X86238187Y-54620160D01*
X86265321Y-54756572D01*
X86265320Y-57450075D01*
X85110675Y-58604720D01*
X75578415Y-58604720D01*
X73118890Y-56145195D01*
X73041619Y-56029551D01*
X72583490Y-55723439D01*
X72179497Y-55643080D01*
X72043090Y-55615947D01*
X71906683Y-55643080D01*
X71304420Y-55643080D01*
X71053053Y-55593080D01*
X70770387Y-55593080D01*
X70351811Y-55676340D01*
X69877143Y-55993503D01*
X69559980Y-56468171D01*
X69448607Y-57028080D01*
X69559980Y-57587989D01*
X69877143Y-58062657D01*
X70351811Y-58379820D01*
X70770387Y-58463080D01*
X71053053Y-58463080D01*
X71304420Y-58413080D01*
X71469405Y-58413080D01*
X73928930Y-60872605D01*
X74006201Y-60988249D01*
X74464330Y-61294361D01*
X74868323Y-61374720D01*
X74868327Y-61374720D01*
X75004729Y-61401852D01*
X75141131Y-61374720D01*
X85547953Y-61374720D01*
X85684360Y-61401853D01*
X85820767Y-61374720D01*
X86224760Y-61294361D01*
X86682889Y-60988249D01*
X86760160Y-60872605D01*
X88533207Y-59099558D01*
X88648848Y-59022289D01*
X88954961Y-58564160D01*
X89035320Y-58160167D01*
X89035320Y-58160166D01*
X89062453Y-58023761D01*
X89035320Y-57887355D01*
X89035320Y-57136292D01*
X89338623Y-57590217D01*
X89813291Y-57907380D01*
X90231867Y-57990640D01*
X90514533Y-57990640D01*
X90933109Y-57907380D01*
X91407777Y-57590217D01*
X91724940Y-57115549D01*
X91836313Y-56555640D01*
X91724940Y-55995731D01*
X91407777Y-55521063D01*
X91055442Y-55285640D01*
X91407777Y-55050217D01*
X91724940Y-54575549D01*
X91836313Y-54015640D01*
X91724940Y-53455731D01*
X91407777Y-52981063D01*
X91227551Y-52860640D01*
X91368163Y-52860640D01*
X91504570Y-52887773D01*
X91592281Y-52870326D01*
X92092080Y-53370126D01*
X92092081Y-58029194D01*
X90337995Y-59783280D01*
X89061805Y-59783280D01*
X88925399Y-59756147D01*
X88788993Y-59783280D01*
X88385000Y-59863639D01*
X87926871Y-60169751D01*
X87849602Y-60285392D01*
X79980552Y-68154443D01*
X79864911Y-68231712D01*
X79581277Y-68656200D01*
X79558799Y-68689841D01*
X79451307Y-69230240D01*
X79478440Y-69366647D01*
X79478440Y-69860515D01*
X79030123Y-70308832D01*
X79299920Y-69657484D01*
X79299920Y-68927476D01*
X79020558Y-68253036D01*
X78504364Y-67736842D01*
X77829924Y-67457480D01*
X77099916Y-67457480D01*
X76425476Y-67736842D01*
X75909282Y-68253036D01*
X75629920Y-68927476D01*
X75629920Y-69657484D01*
X75909282Y-70331924D01*
X76425476Y-70848118D01*
X77099916Y-71127480D01*
X77829924Y-71127480D01*
X78481272Y-70857683D01*
X76835355Y-72503600D01*
X69691767Y-72503600D01*
X69555360Y-72476467D01*
X69418953Y-72503600D01*
X69014960Y-72583959D01*
X68556831Y-72890071D01*
X68479562Y-73005712D01*
X65929272Y-75556003D01*
X65813631Y-75633272D01*
X65653119Y-75873495D01*
X65507519Y-76091401D01*
X65400027Y-76631800D01*
X65427160Y-76768207D01*
X65427161Y-80795856D01*
X65349047Y-81188560D01*
X61678640Y-81188560D01*
X61678640Y-72032761D01*
X61705772Y-71896359D01*
X61678640Y-71759957D01*
X61678640Y-71759953D01*
X61598281Y-71355960D01*
X61292169Y-70897831D01*
X61176525Y-70820560D01*
X60663520Y-70307555D01*
X60663520Y-68927476D01*
X60979200Y-68927476D01*
X60979200Y-69657484D01*
X61258562Y-70331924D01*
X61774756Y-70848118D01*
X62449196Y-71127480D01*
X63179204Y-71127480D01*
X63853644Y-70848118D01*
X64369838Y-70331924D01*
X64649200Y-69657484D01*
X64649200Y-68927476D01*
X64369838Y-68253036D01*
X63853644Y-67736842D01*
X63179204Y-67457480D01*
X62449196Y-67457480D01*
X61774756Y-67736842D01*
X61258562Y-68253036D01*
X60979200Y-68927476D01*
X60663520Y-68927476D01*
X60663520Y-63092480D01*
X60966760Y-63092480D01*
X60966760Y-65492480D01*
X61016043Y-65740245D01*
X61156391Y-65950289D01*
X61366435Y-66090637D01*
X61614200Y-66139920D01*
X64014200Y-66139920D01*
X64261965Y-66090637D01*
X64472009Y-65950289D01*
X64612357Y-65740245D01*
X64661640Y-65492480D01*
X64661640Y-63092480D01*
X75617480Y-63092480D01*
X75617480Y-65492480D01*
X75666763Y-65740245D01*
X75807111Y-65950289D01*
X76017155Y-66090637D01*
X76264920Y-66139920D01*
X78664920Y-66139920D01*
X78912685Y-66090637D01*
X79122729Y-65950289D01*
X79263077Y-65740245D01*
X79312360Y-65492480D01*
X79312360Y-63092480D01*
X79263077Y-62844715D01*
X79122729Y-62634671D01*
X78912685Y-62494323D01*
X78664920Y-62445040D01*
X76264920Y-62445040D01*
X76017155Y-62494323D01*
X75807111Y-62634671D01*
X75666763Y-62844715D01*
X75617480Y-63092480D01*
X64661640Y-63092480D01*
X64612357Y-62844715D01*
X64472009Y-62634671D01*
X64261965Y-62494323D01*
X64014200Y-62445040D01*
X61614200Y-62445040D01*
X61366435Y-62494323D01*
X61156391Y-62634671D01*
X61016043Y-62844715D01*
X60966760Y-63092480D01*
X60663520Y-63092480D01*
X60663520Y-61919765D01*
X67040406Y-55542880D01*
X81849315Y-55542880D01*
X83549146Y-57242712D01*
X83599146Y-57363422D01*
X84002818Y-57767094D01*
X84530241Y-57985560D01*
X85101119Y-57985560D01*
X85628542Y-57767094D01*
X86032214Y-57363422D01*
X86250680Y-56835999D01*
X86250680Y-56265121D01*
X86032214Y-55737698D01*
X85628542Y-55334026D01*
X85507832Y-55284026D01*
X83498799Y-53274994D01*
X83421529Y-53159351D01*
X82963400Y-52853239D01*
X82559407Y-52772880D01*
X82423000Y-52745747D01*
X82286593Y-52772880D01*
X66603127Y-52772880D01*
X66466720Y-52745747D01*
X66211869Y-52796440D01*
X65926320Y-52853239D01*
X65468191Y-53159351D01*
X65390922Y-53274992D01*
X58395632Y-60270283D01*
X58279992Y-60347551D01*
X58202723Y-60463192D01*
X57973879Y-60805681D01*
X57866387Y-61346080D01*
X45338200Y-61346080D01*
X45338200Y-55670761D01*
X51610360Y-55670761D01*
X51610360Y-56241639D01*
X51828826Y-56769062D01*
X52232498Y-57172734D01*
X52759921Y-57391200D01*
X53330799Y-57391200D01*
X53858222Y-57172734D01*
X54261894Y-56769062D01*
X54272837Y-56742641D01*
X56776720Y-56742641D01*
X56776720Y-57313519D01*
X56995186Y-57840942D01*
X57398858Y-58244614D01*
X57926281Y-58463080D01*
X58497159Y-58463080D01*
X59024582Y-58244614D01*
X59428254Y-57840942D01*
X59646720Y-57313519D01*
X59646720Y-56742641D01*
X59428254Y-56215218D01*
X59024582Y-55811546D01*
X58497159Y-55593080D01*
X57926281Y-55593080D01*
X57398858Y-55811546D01*
X56995186Y-56215218D01*
X56776720Y-56742641D01*
X54272837Y-56742641D01*
X54480360Y-56241639D01*
X54480360Y-55670761D01*
X54261894Y-55143338D01*
X53858222Y-54739666D01*
X53330799Y-54521200D01*
X52759921Y-54521200D01*
X52232498Y-54739666D01*
X51828826Y-55143338D01*
X51610360Y-55670761D01*
X45338200Y-55670761D01*
X45338200Y-52339240D01*
X51612727Y-52339240D01*
X51724100Y-52899149D01*
X52041263Y-53373817D01*
X52515931Y-53690980D01*
X52934507Y-53774240D01*
X53217173Y-53774240D01*
X53635749Y-53690980D01*
X54110417Y-53373817D01*
X54427580Y-52899149D01*
X54538953Y-52339240D01*
X54427580Y-51779331D01*
X54110417Y-51304663D01*
X53635749Y-50987500D01*
X53217173Y-50904240D01*
X52934507Y-50904240D01*
X52515931Y-50987500D01*
X52041263Y-51304663D01*
X51724100Y-51779331D01*
X51612727Y-52339240D01*
X45338200Y-52339240D01*
X45338200Y-48709400D01*
X56504920Y-48709400D01*
X56504920Y-50909400D01*
X56554203Y-51157165D01*
X56694551Y-51367209D01*
X56904595Y-51507557D01*
X57152360Y-51556840D01*
X59352360Y-51556840D01*
X59600125Y-51507557D01*
X59810169Y-51367209D01*
X59950517Y-51157165D01*
X59999800Y-50909400D01*
X59999800Y-48709400D01*
X59950517Y-48461635D01*
X59810169Y-48251591D01*
X59600125Y-48111243D01*
X59352360Y-48061960D01*
X57152360Y-48061960D01*
X56904595Y-48111243D01*
X56694551Y-48251591D01*
X56554203Y-48461635D01*
X56504920Y-48709400D01*
X45338200Y-48709400D01*
X45338200Y-44739560D01*
X65302968Y-44739560D01*
X65422102Y-45338487D01*
X65761367Y-45846233D01*
X66005803Y-46009560D01*
X65761367Y-46172887D01*
X65422102Y-46680633D01*
X65302968Y-47279560D01*
X65422102Y-47878487D01*
X65718736Y-48322431D01*
X65510231Y-48461751D01*
X65369883Y-48671795D01*
X65320600Y-48919560D01*
X65320600Y-50719560D01*
X65369883Y-50967325D01*
X65510231Y-51177369D01*
X65720275Y-51317717D01*
X65968040Y-51367000D01*
X67768040Y-51367000D01*
X68015805Y-51317717D01*
X68225849Y-51177369D01*
X68366197Y-50967325D01*
X68415480Y-50719560D01*
X68415480Y-48919560D01*
X68366197Y-48671795D01*
X68225849Y-48461751D01*
X68017344Y-48322431D01*
X68313978Y-47878487D01*
X68433112Y-47279560D01*
X68352425Y-46873916D01*
X71798320Y-46873916D01*
X71798320Y-47603924D01*
X72077682Y-48278364D01*
X72593876Y-48794558D01*
X73268316Y-49073920D01*
X73998324Y-49073920D01*
X74672764Y-48794558D01*
X75188958Y-48278364D01*
X75468320Y-47603924D01*
X75468320Y-46873916D01*
X75188958Y-46199476D01*
X75028402Y-46038920D01*
X76785880Y-46038920D01*
X76785880Y-48438920D01*
X76835163Y-48686685D01*
X76975511Y-48896729D01*
X77185555Y-49037077D01*
X77433320Y-49086360D01*
X79833320Y-49086360D01*
X80081085Y-49037077D01*
X80291129Y-48896729D01*
X80431477Y-48686685D01*
X80480760Y-48438920D01*
X80480760Y-46038920D01*
X80431477Y-45791155D01*
X80291129Y-45581111D01*
X80081085Y-45440763D01*
X79833320Y-45391480D01*
X77433320Y-45391480D01*
X77185555Y-45440763D01*
X76975511Y-45581111D01*
X76835163Y-45791155D01*
X76785880Y-46038920D01*
X75028402Y-46038920D01*
X74672764Y-45683282D01*
X73998324Y-45403920D01*
X73268316Y-45403920D01*
X72593876Y-45683282D01*
X72077682Y-46199476D01*
X71798320Y-46873916D01*
X68352425Y-46873916D01*
X68313978Y-46680633D01*
X67974713Y-46172887D01*
X67730277Y-46009560D01*
X67974713Y-45846233D01*
X68313978Y-45338487D01*
X68433112Y-44739560D01*
X68313978Y-44140633D01*
X68120158Y-43850560D01*
X83352567Y-43850560D01*
X83463940Y-44410469D01*
X83781103Y-44885137D01*
X84255771Y-45202300D01*
X84674347Y-45285560D01*
X84957013Y-45285560D01*
X85375589Y-45202300D01*
X85850257Y-44885137D01*
X86167420Y-44410469D01*
X86278793Y-43850560D01*
X86167420Y-43290651D01*
X85850257Y-42815983D01*
X85375589Y-42498820D01*
X84957013Y-42415560D01*
X84674347Y-42415560D01*
X84255771Y-42498820D01*
X83781103Y-42815983D01*
X83463940Y-43290651D01*
X83352567Y-43850560D01*
X68120158Y-43850560D01*
X67974713Y-43632887D01*
X67466967Y-43293622D01*
X67019222Y-43204560D01*
X66716858Y-43204560D01*
X66269113Y-43293622D01*
X65761367Y-43632887D01*
X65422102Y-44140633D01*
X65302968Y-44739560D01*
X45338200Y-44739560D01*
X45338200Y-39353801D01*
X51640840Y-39353801D01*
X51640840Y-39924679D01*
X51859306Y-40452102D01*
X52262978Y-40855774D01*
X52790401Y-41074240D01*
X53361279Y-41074240D01*
X53888702Y-40855774D01*
X54292374Y-40452102D01*
X54510840Y-39924679D01*
X54510840Y-39649400D01*
X56483370Y-39649400D01*
X56618026Y-40326363D01*
X57001495Y-40900265D01*
X57575397Y-41283734D01*
X58081480Y-41384400D01*
X58423240Y-41384400D01*
X58929323Y-41283734D01*
X59503225Y-40900265D01*
X59886694Y-40326363D01*
X60021350Y-39649400D01*
X59886694Y-38972437D01*
X59503225Y-38398535D01*
X58929323Y-38015066D01*
X58423240Y-37914400D01*
X58081480Y-37914400D01*
X57575397Y-38015066D01*
X57001495Y-38398535D01*
X56618026Y-38972437D01*
X56483370Y-39649400D01*
X54510840Y-39649400D01*
X54510840Y-39353801D01*
X54292374Y-38826378D01*
X53888702Y-38422706D01*
X53361279Y-38204240D01*
X52790401Y-38204240D01*
X52262978Y-38422706D01*
X51859306Y-38826378D01*
X51640840Y-39353801D01*
X45338200Y-39353801D01*
X45338200Y-35801661D01*
X45882560Y-35801661D01*
X45882560Y-36862659D01*
X46288586Y-37842894D01*
X47038826Y-38593134D01*
X48019061Y-38999160D01*
X49080059Y-38999160D01*
X50060294Y-38593134D01*
X50810534Y-37842894D01*
X51216560Y-36862659D01*
X51216560Y-36642040D01*
X86079450Y-36642040D01*
X86214106Y-37319003D01*
X86597575Y-37892905D01*
X87171477Y-38276374D01*
X87611643Y-38363928D01*
X88988201Y-39740487D01*
X88988200Y-41363761D01*
X88987114Y-41364847D01*
X88738200Y-41965778D01*
X88738200Y-42616222D01*
X88987114Y-43217153D01*
X89447047Y-43677086D01*
X90047978Y-43926000D01*
X90698422Y-43926000D01*
X91299353Y-43677086D01*
X91759286Y-43217153D01*
X92008200Y-42616222D01*
X92008200Y-41965778D01*
X96238200Y-41965778D01*
X96238200Y-42616222D01*
X96487114Y-43217153D01*
X96947047Y-43677086D01*
X97547978Y-43926000D01*
X98198422Y-43926000D01*
X98799353Y-43677086D01*
X99126799Y-43349640D01*
X102392200Y-43349640D01*
X102392200Y-44869640D01*
X102441483Y-45117405D01*
X102581831Y-45327449D01*
X102791875Y-45467797D01*
X103039640Y-45517080D01*
X104559640Y-45517080D01*
X104807405Y-45467797D01*
X105017449Y-45327449D01*
X105157797Y-45117405D01*
X105207080Y-44869640D01*
X105207080Y-43349640D01*
X105157797Y-43101875D01*
X105017449Y-42891831D01*
X104807405Y-42751483D01*
X104626591Y-42715517D01*
X104982264Y-42359844D01*
X105194640Y-41847123D01*
X105194640Y-41292157D01*
X104982264Y-40779436D01*
X104589844Y-40387016D01*
X104378900Y-40299640D01*
X104589844Y-40212264D01*
X104982264Y-39819844D01*
X105194640Y-39307123D01*
X105194640Y-38752157D01*
X104982264Y-38239436D01*
X104589844Y-37847016D01*
X104077123Y-37634640D01*
X103522157Y-37634640D01*
X103009436Y-37847016D01*
X102617016Y-38239436D01*
X102404640Y-38752157D01*
X102404640Y-39307123D01*
X102617016Y-39819844D01*
X103009436Y-40212264D01*
X103220380Y-40299640D01*
X103009436Y-40387016D01*
X102617016Y-40779436D01*
X102404640Y-41292157D01*
X102404640Y-41847123D01*
X102617016Y-42359844D01*
X102972689Y-42715517D01*
X102791875Y-42751483D01*
X102581831Y-42891831D01*
X102441483Y-43101875D01*
X102392200Y-43349640D01*
X99126799Y-43349640D01*
X99259286Y-43217153D01*
X99508200Y-42616222D01*
X99508200Y-41965778D01*
X99259286Y-41364847D01*
X98799353Y-40904914D01*
X98198422Y-40656000D01*
X97547978Y-40656000D01*
X96947047Y-40904914D01*
X96487114Y-41364847D01*
X96238200Y-41965778D01*
X92008200Y-41965778D01*
X91759286Y-41364847D01*
X91758200Y-41363761D01*
X91758200Y-39303207D01*
X91785333Y-39166800D01*
X91677841Y-38626400D01*
X91448997Y-38283911D01*
X91371729Y-38168271D01*
X91256088Y-38091002D01*
X89570328Y-36405243D01*
X89482774Y-35965077D01*
X89200110Y-35542040D01*
X96261000Y-35542040D01*
X96261000Y-37742040D01*
X96310283Y-37989805D01*
X96450631Y-38199849D01*
X96660675Y-38340197D01*
X96908440Y-38389480D01*
X99108440Y-38389480D01*
X99356205Y-38340197D01*
X99566249Y-38199849D01*
X99681717Y-38027040D01*
X100472033Y-38027040D01*
X100608440Y-38054173D01*
X100744847Y-38027040D01*
X101148840Y-37946681D01*
X101606969Y-37640569D01*
X101684239Y-37524926D01*
X104032006Y-35177160D01*
X106918465Y-35177160D01*
X106718200Y-35660641D01*
X106718200Y-36231519D01*
X106768201Y-36352232D01*
X106768200Y-41268380D01*
X106690087Y-41661080D01*
X106801460Y-42220989D01*
X107118623Y-42695657D01*
X107593291Y-43012820D01*
X108011867Y-43096080D01*
X108294533Y-43096080D01*
X108713109Y-43012820D01*
X109187777Y-42695657D01*
X109504940Y-42220989D01*
X109616313Y-41661080D01*
X109538200Y-41268380D01*
X109538200Y-40285445D01*
X111615495Y-42362740D01*
X111837943Y-42695657D01*
X112312611Y-43012820D01*
X112731187Y-43096080D01*
X113013853Y-43096080D01*
X113432429Y-43012820D01*
X113907097Y-42695657D01*
X113936081Y-42652280D01*
X113936081Y-43693228D01*
X113908947Y-43829640D01*
X114016439Y-44370039D01*
X114203530Y-44650040D01*
X114322552Y-44828169D01*
X114438193Y-44905438D01*
X114525280Y-44992525D01*
X114602551Y-45108169D01*
X115060680Y-45414281D01*
X115464673Y-45494640D01*
X115601080Y-45521773D01*
X115737487Y-45494640D01*
X116988265Y-45494640D01*
X117101080Y-45517080D01*
X118621080Y-45517080D01*
X118843361Y-45472866D01*
X118843361Y-47873388D01*
X118816227Y-48009800D01*
X118923719Y-48550199D01*
X119040812Y-48725441D01*
X119229832Y-49008329D01*
X119345472Y-49085597D01*
X120324954Y-50065080D01*
X117931080Y-50065080D01*
X117683315Y-50114363D01*
X117473271Y-50254711D01*
X117332923Y-50464755D01*
X117283640Y-50712520D01*
X117283640Y-53112520D01*
X117332923Y-53360285D01*
X117473271Y-53570329D01*
X117683315Y-53710677D01*
X117931080Y-53759960D01*
X120331080Y-53759960D01*
X120578845Y-53710677D01*
X120788889Y-53570329D01*
X120929237Y-53360285D01*
X120978520Y-53112520D01*
X120978520Y-50718645D01*
X122296080Y-52036206D01*
X122296080Y-52277524D01*
X122575442Y-52951964D01*
X123091636Y-53468158D01*
X123766076Y-53747520D01*
X124496084Y-53747520D01*
X125170524Y-53468158D01*
X125686718Y-52951964D01*
X125966080Y-52277524D01*
X125966080Y-51547516D01*
X125686718Y-50873076D01*
X125170524Y-50356882D01*
X124496084Y-50077520D01*
X124254766Y-50077520D01*
X122894646Y-48717400D01*
X129365200Y-48717400D01*
X129365200Y-51917400D01*
X129414483Y-52165165D01*
X129554831Y-52375209D01*
X129764875Y-52515557D01*
X130012640Y-52564840D01*
X133212640Y-52564840D01*
X133460405Y-52515557D01*
X133670449Y-52375209D01*
X133810797Y-52165165D01*
X133860080Y-51917400D01*
X133860080Y-48717400D01*
X136583880Y-48717400D01*
X136583880Y-51917400D01*
X136633163Y-52165165D01*
X136773511Y-52375209D01*
X136983555Y-52515557D01*
X137231320Y-52564840D01*
X140431320Y-52564840D01*
X140679085Y-52515557D01*
X140889129Y-52375209D01*
X141029477Y-52165165D01*
X141078760Y-51917400D01*
X141078760Y-48717400D01*
X141029477Y-48469635D01*
X140889129Y-48259591D01*
X140679085Y-48119243D01*
X140431320Y-48069960D01*
X137231320Y-48069960D01*
X136983555Y-48119243D01*
X136773511Y-48259591D01*
X136633163Y-48469635D01*
X136583880Y-48717400D01*
X133860080Y-48717400D01*
X133810797Y-48469635D01*
X133670449Y-48259591D01*
X133460405Y-48119243D01*
X133212640Y-48069960D01*
X130012640Y-48069960D01*
X129764875Y-48119243D01*
X129554831Y-48259591D01*
X129414483Y-48469635D01*
X129365200Y-48717400D01*
X122894646Y-48717400D01*
X122560199Y-48382954D01*
X122560197Y-48382951D01*
X121613360Y-47436115D01*
X121613360Y-45437304D01*
X121658995Y-45467797D01*
X121906760Y-45517080D01*
X123426760Y-45517080D01*
X123674525Y-45467797D01*
X123884569Y-45327449D01*
X124024917Y-45117405D01*
X124074200Y-44869640D01*
X124074200Y-43824201D01*
X125219560Y-43824201D01*
X125219560Y-44395079D01*
X125438026Y-44922502D01*
X125841698Y-45326174D01*
X126369121Y-45544640D01*
X126939999Y-45544640D01*
X127467422Y-45326174D01*
X127871094Y-44922502D01*
X128089560Y-44395079D01*
X128089560Y-43824201D01*
X127871094Y-43296778D01*
X127467422Y-42893106D01*
X126939999Y-42674640D01*
X126369121Y-42674640D01*
X125841698Y-42893106D01*
X125438026Y-43296778D01*
X125219560Y-43824201D01*
X124074200Y-43824201D01*
X124074200Y-43349640D01*
X124024917Y-43101875D01*
X123884569Y-42891831D01*
X123674525Y-42751483D01*
X123493711Y-42715517D01*
X123849384Y-42359844D01*
X124061760Y-41847123D01*
X124061760Y-41292157D01*
X123849384Y-40779436D01*
X123456964Y-40387016D01*
X123254035Y-40302960D01*
X123280181Y-40285490D01*
X123456964Y-40212264D01*
X123592268Y-40076960D01*
X123665289Y-40028169D01*
X123714080Y-39955148D01*
X123849384Y-39819844D01*
X123859385Y-39795700D01*
X124408165Y-39246920D01*
X124523809Y-39169649D01*
X124829921Y-38711520D01*
X124910280Y-38307527D01*
X124937413Y-38171120D01*
X124910280Y-38034713D01*
X124910280Y-35077400D01*
X129333854Y-35077400D01*
X129507316Y-35949454D01*
X130001295Y-36688745D01*
X130740586Y-37182724D01*
X131392512Y-37312400D01*
X131832768Y-37312400D01*
X132484694Y-37182724D01*
X133223985Y-36688745D01*
X133717964Y-35949454D01*
X133891426Y-35077400D01*
X136552534Y-35077400D01*
X136725996Y-35949454D01*
X137219975Y-36688745D01*
X137959266Y-37182724D01*
X138611192Y-37312400D01*
X139051448Y-37312400D01*
X139703374Y-37182724D01*
X140442665Y-36688745D01*
X140936644Y-35949454D01*
X141110106Y-35077400D01*
X140936644Y-34205346D01*
X140442665Y-33466055D01*
X139703374Y-32972076D01*
X139051448Y-32842400D01*
X138611192Y-32842400D01*
X137959266Y-32972076D01*
X137219975Y-33466055D01*
X136725996Y-34205346D01*
X136552534Y-35077400D01*
X133891426Y-35077400D01*
X133717964Y-34205346D01*
X133223985Y-33466055D01*
X132484694Y-32972076D01*
X131832768Y-32842400D01*
X131392512Y-32842400D01*
X130740586Y-32972076D01*
X130001295Y-33466055D01*
X129507316Y-34205346D01*
X129333854Y-35077400D01*
X124910280Y-35077400D01*
X124910280Y-32516197D01*
X124937413Y-32379790D01*
X124829921Y-31839390D01*
X124601077Y-31496901D01*
X124601075Y-31496899D01*
X124542771Y-31409640D01*
X125191447Y-31409640D01*
X125302820Y-31969549D01*
X125619983Y-32444217D01*
X126094651Y-32761380D01*
X126513227Y-32844640D01*
X126795893Y-32844640D01*
X127214469Y-32761380D01*
X127689137Y-32444217D01*
X128006300Y-31969549D01*
X128117673Y-31409640D01*
X128006300Y-30849731D01*
X127689137Y-30375063D01*
X127214469Y-30057900D01*
X126795893Y-29974640D01*
X126513227Y-29974640D01*
X126094651Y-30057900D01*
X125619983Y-30375063D01*
X125302820Y-30849731D01*
X125191447Y-31409640D01*
X124542771Y-31409640D01*
X124523808Y-31381261D01*
X124408170Y-31303994D01*
X120407922Y-27303746D01*
X135573294Y-27303746D01*
X135580320Y-27729790D01*
X135580320Y-28155969D01*
X135587640Y-28173640D01*
X135587955Y-28192763D01*
X135899960Y-28946010D01*
X135909667Y-28951082D01*
X135920579Y-28977426D01*
X136549294Y-29606141D01*
X136575638Y-29617053D01*
X136580710Y-29626760D01*
X136977028Y-29783314D01*
X137370751Y-29946400D01*
X137389880Y-29946400D01*
X137407666Y-29953426D01*
X137833710Y-29946400D01*
X138259889Y-29946400D01*
X138277560Y-29939080D01*
X138296683Y-29938765D01*
X139049930Y-29626760D01*
X139055002Y-29617053D01*
X139081346Y-29606141D01*
X139710061Y-28977426D01*
X139720973Y-28951082D01*
X139730680Y-28946010D01*
X139887234Y-28549692D01*
X140050320Y-28155969D01*
X140050320Y-28136840D01*
X140057346Y-28119054D01*
X140050320Y-27693010D01*
X140050320Y-27266831D01*
X140043000Y-27249160D01*
X140042685Y-27230037D01*
X139730680Y-26476790D01*
X139720973Y-26471718D01*
X139710061Y-26445374D01*
X139081346Y-25816659D01*
X139055002Y-25805747D01*
X139049930Y-25796040D01*
X138653612Y-25639486D01*
X138259889Y-25476400D01*
X138240760Y-25476400D01*
X138222974Y-25469374D01*
X137796930Y-25476400D01*
X137370751Y-25476400D01*
X137353080Y-25483720D01*
X137333957Y-25484035D01*
X136580710Y-25796040D01*
X136575638Y-25805747D01*
X136549294Y-25816659D01*
X135920579Y-26445374D01*
X135909667Y-26471718D01*
X135899960Y-26476790D01*
X135743406Y-26873108D01*
X135580320Y-27266831D01*
X135580320Y-27285960D01*
X135573294Y-27303746D01*
X120407922Y-27303746D01*
X120278129Y-27173954D01*
X120200859Y-27058311D01*
X119742730Y-26752199D01*
X119338737Y-26671840D01*
X119202330Y-26644707D01*
X119065923Y-26671840D01*
X118026237Y-26671840D01*
X117950699Y-26558790D01*
X117492381Y-26252552D01*
X116951760Y-26145016D01*
X116411138Y-26252552D01*
X115952820Y-26558791D01*
X115681760Y-26964461D01*
X115410699Y-26558790D01*
X114952381Y-26252552D01*
X114411760Y-26145016D01*
X113871138Y-26252552D01*
X113412820Y-26558791D01*
X113141760Y-26964461D01*
X112870699Y-26558790D01*
X112412381Y-26252552D01*
X111871760Y-26145016D01*
X111331138Y-26252552D01*
X110872820Y-26558791D01*
X110566582Y-27017109D01*
X110486190Y-27421268D01*
X110486190Y-28692413D01*
X110486760Y-28695280D01*
X110486761Y-30670109D01*
X110459627Y-30806520D01*
X110567119Y-31346919D01*
X110667334Y-31496901D01*
X110873232Y-31805049D01*
X110988873Y-31882318D01*
X111121760Y-32015205D01*
X111121760Y-33308515D01*
X110722520Y-32909275D01*
X110645249Y-32793631D01*
X110187120Y-32487519D01*
X109783127Y-32407160D01*
X109646720Y-32380027D01*
X109510313Y-32407160D01*
X103594727Y-32407160D01*
X103458320Y-32380027D01*
X103321913Y-32407160D01*
X102917920Y-32487519D01*
X102459791Y-32793631D01*
X102382522Y-32909272D01*
X100034755Y-35257040D01*
X99681717Y-35257040D01*
X99566249Y-35084231D01*
X99356205Y-34943883D01*
X99108440Y-34894600D01*
X96908440Y-34894600D01*
X96660675Y-34943883D01*
X96450631Y-35084231D01*
X96310283Y-35294275D01*
X96261000Y-35542040D01*
X89200110Y-35542040D01*
X89099305Y-35391175D01*
X88525403Y-35007706D01*
X88019320Y-34907040D01*
X87677560Y-34907040D01*
X87171477Y-35007706D01*
X86597575Y-35391175D01*
X86214106Y-35965077D01*
X86079450Y-36642040D01*
X51216560Y-36642040D01*
X51216560Y-35801661D01*
X50810534Y-34821426D01*
X50106388Y-34117280D01*
X52818894Y-34117280D01*
X52992356Y-34989334D01*
X53486335Y-35728625D01*
X54225626Y-36222604D01*
X54877552Y-36352280D01*
X55317808Y-36352280D01*
X55969734Y-36222604D01*
X56709025Y-35728625D01*
X57203004Y-34989334D01*
X57376466Y-34117280D01*
X57203004Y-33245226D01*
X56716606Y-32517280D01*
X68090240Y-32517280D01*
X68090240Y-35717280D01*
X68139523Y-35965045D01*
X68279871Y-36175089D01*
X68489915Y-36315437D01*
X68737680Y-36364720D01*
X71937680Y-36364720D01*
X72185445Y-36315437D01*
X72395489Y-36175089D01*
X72535837Y-35965045D01*
X72585120Y-35717280D01*
X72585120Y-33220156D01*
X77768600Y-33220156D01*
X77768600Y-33950164D01*
X78047962Y-34624604D01*
X78564156Y-35140798D01*
X79238596Y-35420160D01*
X79968604Y-35420160D01*
X80643044Y-35140798D01*
X81159238Y-34624604D01*
X81438600Y-33950164D01*
X81438600Y-33220156D01*
X81159238Y-32545716D01*
X80643044Y-32029522D01*
X79968604Y-31750160D01*
X79238596Y-31750160D01*
X78564156Y-32029522D01*
X78047962Y-32545716D01*
X77768600Y-33220156D01*
X72585120Y-33220156D01*
X72585120Y-32517280D01*
X72535837Y-32269515D01*
X72395489Y-32059471D01*
X72185445Y-31919123D01*
X71937680Y-31869840D01*
X68737680Y-31869840D01*
X68489915Y-31919123D01*
X68279871Y-32059471D01*
X68139523Y-32269515D01*
X68090240Y-32517280D01*
X56716606Y-32517280D01*
X56709025Y-32505935D01*
X55969734Y-32011956D01*
X55317808Y-31882280D01*
X54877552Y-31882280D01*
X54225626Y-32011956D01*
X53486335Y-32505935D01*
X52992356Y-33245226D01*
X52818894Y-34117280D01*
X50106388Y-34117280D01*
X50060294Y-34071186D01*
X49080059Y-33665160D01*
X48019061Y-33665160D01*
X47038826Y-34071186D01*
X46288586Y-34821426D01*
X45882560Y-35801661D01*
X45338200Y-35801661D01*
X45338200Y-27318986D01*
X46470094Y-27318986D01*
X46477120Y-27745030D01*
X46477120Y-28171209D01*
X46484440Y-28188880D01*
X46484755Y-28208003D01*
X46796760Y-28961250D01*
X46806467Y-28966322D01*
X46817379Y-28992666D01*
X47446094Y-29621381D01*
X47472438Y-29632293D01*
X47477510Y-29642000D01*
X47873828Y-29798554D01*
X48267551Y-29961640D01*
X48286680Y-29961640D01*
X48304466Y-29968666D01*
X48730510Y-29961640D01*
X49156689Y-29961640D01*
X49174360Y-29954320D01*
X49193483Y-29954005D01*
X49946730Y-29642000D01*
X49951802Y-29632293D01*
X49978146Y-29621381D01*
X50606861Y-28992666D01*
X50617773Y-28966322D01*
X50627480Y-28961250D01*
X50784034Y-28564932D01*
X50947120Y-28171209D01*
X50947120Y-28152080D01*
X50954146Y-28134294D01*
X50947120Y-27708250D01*
X50947120Y-27584400D01*
X52818894Y-27584400D01*
X52992356Y-28456454D01*
X53486335Y-29195745D01*
X54225626Y-29689724D01*
X54877552Y-29819400D01*
X55317808Y-29819400D01*
X55969734Y-29689724D01*
X56709025Y-29195745D01*
X57203004Y-28456454D01*
X57376466Y-27584400D01*
X57203004Y-26712346D01*
X56716606Y-25984400D01*
X68090240Y-25984400D01*
X68090240Y-29184400D01*
X68139523Y-29432165D01*
X68279871Y-29642209D01*
X68489915Y-29782557D01*
X68737680Y-29831840D01*
X71937680Y-29831840D01*
X72185445Y-29782557D01*
X72395489Y-29642209D01*
X72535837Y-29432165D01*
X72585120Y-29184400D01*
X72585120Y-27385160D01*
X77756160Y-27385160D01*
X77756160Y-29785160D01*
X77805443Y-30032925D01*
X77945791Y-30242969D01*
X78155835Y-30383317D01*
X78403600Y-30432600D01*
X80803600Y-30432600D01*
X81051365Y-30383317D01*
X81261409Y-30242969D01*
X81401757Y-30032925D01*
X81451040Y-29785160D01*
X81451040Y-27421268D01*
X99152710Y-27421268D01*
X99152710Y-28692413D01*
X99233102Y-29096572D01*
X99539341Y-29554890D01*
X99997659Y-29861128D01*
X100538280Y-29968664D01*
X101078902Y-29861128D01*
X101537220Y-29554890D01*
X101808280Y-29149220D01*
X102079341Y-29554890D01*
X102537659Y-29861128D01*
X103078280Y-29968664D01*
X103618902Y-29861128D01*
X104077220Y-29554890D01*
X104348280Y-29149220D01*
X104619341Y-29554890D01*
X105077659Y-29861128D01*
X105618280Y-29968664D01*
X106158902Y-29861128D01*
X106617220Y-29554890D01*
X106923458Y-29096572D01*
X107003850Y-28692413D01*
X107003850Y-27421267D01*
X106923458Y-27017108D01*
X106617219Y-26558790D01*
X106158901Y-26252552D01*
X105618280Y-26145016D01*
X105077658Y-26252552D01*
X104619340Y-26558791D01*
X104348280Y-26964461D01*
X104077219Y-26558790D01*
X103618901Y-26252552D01*
X103078280Y-26145016D01*
X102537658Y-26252552D01*
X102079340Y-26558791D01*
X101808280Y-26964461D01*
X101537219Y-26558790D01*
X101078901Y-26252552D01*
X100538280Y-26145016D01*
X99997658Y-26252552D01*
X99539340Y-26558791D01*
X99233102Y-27017109D01*
X99152710Y-27421268D01*
X81451040Y-27421268D01*
X81451040Y-27385160D01*
X81401757Y-27137395D01*
X81261409Y-26927351D01*
X81051365Y-26787003D01*
X80803600Y-26737720D01*
X78403600Y-26737720D01*
X78155835Y-26787003D01*
X77945791Y-26927351D01*
X77805443Y-27137395D01*
X77756160Y-27385160D01*
X72585120Y-27385160D01*
X72585120Y-25984400D01*
X72535837Y-25736635D01*
X72395489Y-25526591D01*
X72185445Y-25386243D01*
X71937680Y-25336960D01*
X68737680Y-25336960D01*
X68489915Y-25386243D01*
X68279871Y-25526591D01*
X68139523Y-25736635D01*
X68090240Y-25984400D01*
X56716606Y-25984400D01*
X56709025Y-25973055D01*
X55969734Y-25479076D01*
X55317808Y-25349400D01*
X54877552Y-25349400D01*
X54225626Y-25479076D01*
X53486335Y-25973055D01*
X52992356Y-26712346D01*
X52818894Y-27584400D01*
X50947120Y-27584400D01*
X50947120Y-27282071D01*
X50939800Y-27264400D01*
X50939485Y-27245277D01*
X50627480Y-26492030D01*
X50617773Y-26486958D01*
X50606861Y-26460614D01*
X49978146Y-25831899D01*
X49951802Y-25820987D01*
X49946730Y-25811280D01*
X49550412Y-25654726D01*
X49156689Y-25491640D01*
X49137560Y-25491640D01*
X49119774Y-25484614D01*
X48693730Y-25491640D01*
X48267551Y-25491640D01*
X48249880Y-25498960D01*
X48230757Y-25499275D01*
X47477510Y-25811280D01*
X47472438Y-25820987D01*
X47446094Y-25831899D01*
X46817379Y-26460614D01*
X46806467Y-26486958D01*
X46796760Y-26492030D01*
X46640206Y-26888348D01*
X46477120Y-27282071D01*
X46477120Y-27301200D01*
X46470094Y-27318986D01*
X45338200Y-27318986D01*
X45338200Y-23743120D01*
X141534680Y-23743120D01*
X141534680Y-48502714D01*
X141534680Y-48502714D01*
G37*
X141534680Y-48502714D02*
X141407131Y-112700133D01*
X79338186Y-112863438D01*
X45338200Y-112833354D01*
X45338200Y-111070825D01*
X45345041Y-110850201D01*
X45338200Y-110809206D01*
X45338200Y-108350066D01*
X46470094Y-108350066D01*
X46477120Y-108776110D01*
X46477120Y-109202289D01*
X46484440Y-109219960D01*
X46484755Y-109239083D01*
X46796760Y-109992330D01*
X46806467Y-109997402D01*
X46817379Y-110023746D01*
X47446094Y-110652461D01*
X47472438Y-110663373D01*
X47477510Y-110673080D01*
X47873828Y-110829634D01*
X48267551Y-110992720D01*
X48286680Y-110992720D01*
X48304466Y-110999746D01*
X48730510Y-110992720D01*
X49156689Y-110992720D01*
X49174360Y-110985400D01*
X49193483Y-110985085D01*
X49946730Y-110673080D01*
X49951802Y-110663373D01*
X49978146Y-110652461D01*
X50606861Y-110023746D01*
X50617773Y-109997402D01*
X50627480Y-109992330D01*
X50784034Y-109596012D01*
X50947120Y-109202289D01*
X50947120Y-109183160D01*
X50954146Y-109165374D01*
X50947120Y-108739330D01*
X50947120Y-108313151D01*
X50939800Y-108295480D01*
X50939485Y-108276357D01*
X50627480Y-107523110D01*
X50617773Y-107518038D01*
X50606861Y-107491694D01*
X49978146Y-106862979D01*
X49951802Y-106852067D01*
X49946730Y-106842360D01*
X49550412Y-106685806D01*
X49156689Y-106522720D01*
X49137560Y-106522720D01*
X49119774Y-106515694D01*
X48693730Y-106522720D01*
X48267551Y-106522720D01*
X48249880Y-106530040D01*
X48230757Y-106530355D01*
X47477510Y-106842360D01*
X47472438Y-106852067D01*
X47446094Y-106862979D01*
X46817379Y-107491694D01*
X46806467Y-107518038D01*
X46796760Y-107523110D01*
X46640206Y-107919428D01*
X46477120Y-108313151D01*
X46477120Y-108332280D01*
X46470094Y-108350066D01*
X45338200Y-108350066D01*
X45338200Y-103489658D01*
X54158640Y-103489658D01*
X54158640Y-104140102D01*
X54407554Y-104741033D01*
X54867487Y-105200966D01*
X55468418Y-105449880D01*
X56118862Y-105449880D01*
X56719793Y-105200966D01*
X57179726Y-104741033D01*
X57428640Y-104140102D01*
X57428640Y-103489658D01*
X58658640Y-103489658D01*
X58658640Y-104140102D01*
X58907554Y-104741033D01*
X59367487Y-105200966D01*
X59968418Y-105449880D01*
X60618862Y-105449880D01*
X61219793Y-105200966D01*
X61679726Y-104741033D01*
X61754270Y-104561067D01*
X78030070Y-104561067D01*
X78030070Y-105832212D01*
X78110462Y-106236371D01*
X78416700Y-106694689D01*
X78875018Y-107000928D01*
X79415640Y-107108464D01*
X79956261Y-107000928D01*
X80414579Y-106694690D01*
X80685640Y-106289019D01*
X80956700Y-106694689D01*
X81415018Y-107000928D01*
X81955640Y-107108464D01*
X82496261Y-107000928D01*
X82954579Y-106694690D01*
X83225640Y-106289019D01*
X83496700Y-106694689D01*
X83955018Y-107000928D01*
X84495640Y-107108464D01*
X85036261Y-107000928D01*
X85494579Y-106694690D01*
X85800818Y-106236372D01*
X85881210Y-105832213D01*
X85881210Y-104561067D01*
X85800818Y-104156908D01*
X85494580Y-103698590D01*
X85086255Y-103425756D01*
X94776440Y-103425756D01*
X94776440Y-104155764D01*
X95055802Y-104830204D01*
X95571996Y-105346398D01*
X96246436Y-105625760D01*
X96976444Y-105625760D01*
X97650884Y-105346398D01*
X98167078Y-104830204D01*
X98290863Y-104531360D01*
X105331720Y-104531360D01*
X105331720Y-107731360D01*
X105381003Y-107979125D01*
X105521351Y-108189169D01*
X105731395Y-108329517D01*
X105979160Y-108378800D01*
X109179160Y-108378800D01*
X109426925Y-108329517D01*
X109636969Y-108189169D01*
X109777317Y-107979125D01*
X109826600Y-107731360D01*
X109826600Y-106131360D01*
X120540374Y-106131360D01*
X120713836Y-107003414D01*
X121207815Y-107742705D01*
X121947106Y-108236684D01*
X122599032Y-108366360D01*
X123039288Y-108366360D01*
X123585554Y-108257701D01*
X125699520Y-108257701D01*
X125699520Y-109318699D01*
X126105546Y-110298934D01*
X126855786Y-111049174D01*
X127836021Y-111455200D01*
X128897019Y-111455200D01*
X129877254Y-111049174D01*
X130627494Y-110298934D01*
X131033520Y-109318699D01*
X131033520Y-108522786D01*
X135492014Y-108522786D01*
X135499040Y-108948830D01*
X135499040Y-109375009D01*
X135506360Y-109392680D01*
X135506675Y-109411803D01*
X135818680Y-110165050D01*
X135828387Y-110170122D01*
X135839299Y-110196466D01*
X136468014Y-110825181D01*
X136494358Y-110836093D01*
X136499430Y-110845800D01*
X136895748Y-111002354D01*
X137289471Y-111165440D01*
X137308600Y-111165440D01*
X137326386Y-111172466D01*
X137752430Y-111165440D01*
X138178609Y-111165440D01*
X138196280Y-111158120D01*
X138215403Y-111157805D01*
X138968650Y-110845800D01*
X138973722Y-110836093D01*
X139000066Y-110825181D01*
X139628781Y-110196466D01*
X139639693Y-110170122D01*
X139649400Y-110165050D01*
X139805954Y-109768732D01*
X139969040Y-109375009D01*
X139969040Y-109355880D01*
X139976066Y-109338094D01*
X139969040Y-108912050D01*
X139969040Y-108485871D01*
X139961720Y-108468200D01*
X139961405Y-108449077D01*
X139649400Y-107695830D01*
X139639693Y-107690758D01*
X139628781Y-107664414D01*
X139000066Y-107035699D01*
X138973722Y-107024787D01*
X138968650Y-107015080D01*
X138572332Y-106858526D01*
X138178609Y-106695440D01*
X138159480Y-106695440D01*
X138141694Y-106688414D01*
X137715650Y-106695440D01*
X137289471Y-106695440D01*
X137271800Y-106702760D01*
X137252677Y-106703075D01*
X136499430Y-107015080D01*
X136494358Y-107024787D01*
X136468014Y-107035699D01*
X135839299Y-107664414D01*
X135828387Y-107690758D01*
X135818680Y-107695830D01*
X135662126Y-108092148D01*
X135499040Y-108485871D01*
X135499040Y-108505000D01*
X135492014Y-108522786D01*
X131033520Y-108522786D01*
X131033520Y-108257701D01*
X130627494Y-107277466D01*
X129877254Y-106527226D01*
X128897019Y-106121200D01*
X127836021Y-106121200D01*
X126855786Y-106527226D01*
X126105546Y-107277466D01*
X125699520Y-108257701D01*
X123585554Y-108257701D01*
X123691214Y-108236684D01*
X124430505Y-107742705D01*
X124924484Y-107003414D01*
X125097946Y-106131360D01*
X124924484Y-105259306D01*
X124430505Y-104520015D01*
X123691214Y-104026036D01*
X123039288Y-103896360D01*
X122599032Y-103896360D01*
X121947106Y-104026036D01*
X121207815Y-104520015D01*
X120713836Y-105259306D01*
X120540374Y-106131360D01*
X109826600Y-106131360D01*
X109826600Y-104531360D01*
X109777317Y-104283595D01*
X109636969Y-104073551D01*
X109426925Y-103933203D01*
X109179160Y-103883920D01*
X105979160Y-103883920D01*
X105731395Y-103933203D01*
X105521351Y-104073551D01*
X105381003Y-104283595D01*
X105331720Y-104531360D01*
X98290863Y-104531360D01*
X98446440Y-104155764D01*
X98446440Y-103425756D01*
X98167078Y-102751316D01*
X97650884Y-102235122D01*
X96976444Y-101955760D01*
X96246436Y-101955760D01*
X95571996Y-102235122D01*
X95055802Y-102751316D01*
X94776440Y-103425756D01*
X85086255Y-103425756D01*
X85036262Y-103392352D01*
X84495640Y-103284816D01*
X83955019Y-103392352D01*
X83496701Y-103698590D01*
X83225640Y-104104260D01*
X82954580Y-103698590D01*
X82496262Y-103392352D01*
X81955640Y-103284816D01*
X81415019Y-103392352D01*
X80956701Y-103698590D01*
X80685640Y-104104260D01*
X80414580Y-103698590D01*
X79956262Y-103392352D01*
X79415640Y-103284816D01*
X78875019Y-103392352D01*
X78416701Y-103698590D01*
X78110462Y-104156908D01*
X78030070Y-104561067D01*
X61754270Y-104561067D01*
X61928640Y-104140102D01*
X61928640Y-103489658D01*
X61679726Y-102888727D01*
X61219793Y-102428794D01*
X60618862Y-102179880D01*
X59968418Y-102179880D01*
X59367487Y-102428794D01*
X58907554Y-102888727D01*
X58658640Y-103489658D01*
X57428640Y-103489658D01*
X57179726Y-102888727D01*
X56719793Y-102428794D01*
X56118862Y-102179880D01*
X55468418Y-102179880D01*
X54867487Y-102428794D01*
X54407554Y-102888727D01*
X54158640Y-103489658D01*
X45338200Y-103489658D01*
X45338200Y-100374880D01*
X65264720Y-100374880D01*
X65264720Y-102174880D01*
X65314003Y-102422645D01*
X65454351Y-102632689D01*
X65664395Y-102773037D01*
X65912160Y-102822320D01*
X67712160Y-102822320D01*
X67959925Y-102773037D01*
X68169969Y-102632689D01*
X68310317Y-102422645D01*
X68359600Y-102174880D01*
X68359600Y-100374880D01*
X68310317Y-100127115D01*
X68169969Y-99917071D01*
X67959925Y-99776723D01*
X67944252Y-99773605D01*
X68113470Y-99604387D01*
X68347160Y-99040210D01*
X68347160Y-98790760D01*
X94434613Y-98790760D01*
X94600314Y-99623796D01*
X94764000Y-99868769D01*
X94764000Y-99990760D01*
X94813283Y-100238525D01*
X94953631Y-100448569D01*
X95163675Y-100588917D01*
X95411440Y-100638200D01*
X95533431Y-100638200D01*
X95778404Y-100801886D01*
X96401161Y-100925760D01*
X100601165Y-100925760D01*
X100811440Y-100967586D01*
X101021715Y-100925760D01*
X101021719Y-100925760D01*
X101644476Y-100801886D01*
X102350689Y-100330009D01*
X102469804Y-100151741D01*
X104546865Y-98074680D01*
X105331720Y-98074680D01*
X105331720Y-101274680D01*
X105381003Y-101522445D01*
X105521351Y-101732489D01*
X105731395Y-101872837D01*
X105979160Y-101922120D01*
X109179160Y-101922120D01*
X109426925Y-101872837D01*
X109636969Y-101732489D01*
X109777317Y-101522445D01*
X109826600Y-101274680D01*
X109826600Y-99674680D01*
X120540374Y-99674680D01*
X120713836Y-100546734D01*
X121207815Y-101286025D01*
X121947106Y-101780004D01*
X122599032Y-101909680D01*
X123039288Y-101909680D01*
X123691214Y-101780004D01*
X124430505Y-101286025D01*
X124924484Y-100546734D01*
X125097946Y-99674680D01*
X124924484Y-98802626D01*
X124430505Y-98063335D01*
X124040978Y-97803061D01*
X134487920Y-97803061D01*
X134487920Y-98864059D01*
X134893946Y-99844294D01*
X135644186Y-100594534D01*
X136624421Y-101000560D01*
X137685419Y-101000560D01*
X138665654Y-100594534D01*
X139415894Y-99844294D01*
X139821920Y-98864059D01*
X139821920Y-97803061D01*
X139415894Y-96822826D01*
X138665654Y-96072586D01*
X137685419Y-95666560D01*
X136624421Y-95666560D01*
X135644186Y-96072586D01*
X134893946Y-96822826D01*
X134487920Y-97803061D01*
X124040978Y-97803061D01*
X123691214Y-97569356D01*
X123039288Y-97439680D01*
X122599032Y-97439680D01*
X121947106Y-97569356D01*
X121207815Y-98063335D01*
X120713836Y-98802626D01*
X120540374Y-99674680D01*
X109826600Y-99674680D01*
X109826600Y-98074680D01*
X109777317Y-97826915D01*
X109636969Y-97616871D01*
X109426925Y-97476523D01*
X109179160Y-97427240D01*
X105979160Y-97427240D01*
X105731395Y-97476523D01*
X105521351Y-97616871D01*
X105381003Y-97826915D01*
X105331720Y-98074680D01*
X104546865Y-98074680D01*
X105805506Y-96816040D01*
X122227885Y-96816040D01*
X122438160Y-96857866D01*
X122648435Y-96816040D01*
X122648439Y-96816040D01*
X123271196Y-96692166D01*
X123977409Y-96220289D01*
X124096524Y-96042021D01*
X125760211Y-94378334D01*
X126484476Y-94078333D01*
X127169453Y-93393356D01*
X127540160Y-92498392D01*
X127540160Y-91529688D01*
X127169453Y-90634724D01*
X126484476Y-89949747D01*
X125589512Y-89579040D01*
X124620808Y-89579040D01*
X123725844Y-89949747D01*
X123040867Y-90634724D01*
X122740866Y-91358989D01*
X121553815Y-92546040D01*
X105131435Y-92546040D01*
X104921160Y-92504214D01*
X104710885Y-92546040D01*
X104710881Y-92546040D01*
X104088124Y-92669914D01*
X103381911Y-93141791D01*
X103262798Y-93320056D01*
X99927095Y-96655760D01*
X96401161Y-96655760D01*
X95778404Y-96779634D01*
X95533431Y-96943320D01*
X95411440Y-96943320D01*
X95163675Y-96992603D01*
X94953631Y-97132951D01*
X94813283Y-97342995D01*
X94764000Y-97590760D01*
X94764000Y-97712751D01*
X94600314Y-97957724D01*
X94434613Y-98790760D01*
X68347160Y-98790760D01*
X68347160Y-98429550D01*
X68113470Y-97865373D01*
X67681667Y-97433570D01*
X67117490Y-97199880D01*
X66506830Y-97199880D01*
X65942653Y-97433570D01*
X65510850Y-97865373D01*
X65277160Y-98429550D01*
X65277160Y-99040210D01*
X65510850Y-99604387D01*
X65680068Y-99773605D01*
X65664395Y-99776723D01*
X65454351Y-99917071D01*
X65314003Y-100127115D01*
X65264720Y-100374880D01*
X45338200Y-100374880D01*
X45338200Y-96989658D01*
X54158640Y-96989658D01*
X54158640Y-97640102D01*
X54407554Y-98241033D01*
X54867487Y-98700966D01*
X55468418Y-98949880D01*
X56118862Y-98949880D01*
X56719793Y-98700966D01*
X57179726Y-98241033D01*
X57428640Y-97640102D01*
X57428640Y-96989658D01*
X57179726Y-96388727D01*
X56719793Y-95928794D01*
X56118862Y-95679880D01*
X55468418Y-95679880D01*
X54867487Y-95928794D01*
X54407554Y-96388727D01*
X54158640Y-96989658D01*
X45338200Y-96989658D01*
X45338200Y-76091141D01*
X45841920Y-76091141D01*
X45841920Y-77152139D01*
X46247946Y-78132374D01*
X46998186Y-78882614D01*
X47978421Y-79288640D01*
X49039419Y-79288640D01*
X50019654Y-78882614D01*
X50769894Y-78132374D01*
X51175920Y-77152139D01*
X51175920Y-76091141D01*
X50769894Y-75110906D01*
X50019654Y-74360666D01*
X49039419Y-73954640D01*
X47978421Y-73954640D01*
X46998186Y-74360666D01*
X46247946Y-75110906D01*
X45841920Y-76091141D01*
X45338200Y-76091141D01*
X45338200Y-68656200D01*
X51582247Y-68656200D01*
X51693620Y-69216109D01*
X52010783Y-69690777D01*
X52485451Y-70007940D01*
X52904027Y-70091200D01*
X53186693Y-70091200D01*
X53605269Y-70007940D01*
X54079937Y-69690777D01*
X54397100Y-69216109D01*
X54508473Y-68656200D01*
X54397100Y-68096291D01*
X54079937Y-67621623D01*
X53605269Y-67304460D01*
X53186693Y-67221200D01*
X52904027Y-67221200D01*
X52485451Y-67304460D01*
X52010783Y-67621623D01*
X51693620Y-68096291D01*
X51582247Y-68656200D01*
X45338200Y-68656200D01*
X45338200Y-61346080D01*
X57866387Y-61346080D01*
X57893521Y-61482492D01*
X57893520Y-70744833D01*
X57866387Y-70881240D01*
X57893520Y-71017646D01*
X57973879Y-71421639D01*
X58279991Y-71879768D01*
X58395632Y-71957037D01*
X58908641Y-72470046D01*
X58908640Y-96387641D01*
X58907554Y-96388727D01*
X58658640Y-96989658D01*
X58658640Y-97640102D01*
X58907554Y-98241033D01*
X59367487Y-98700966D01*
X59968418Y-98949880D01*
X60618862Y-98949880D01*
X61219793Y-98700966D01*
X61679726Y-98241033D01*
X61928640Y-97640102D01*
X61928640Y-96989658D01*
X61679726Y-96388727D01*
X61678640Y-96387641D01*
X61678640Y-93603121D01*
X65377160Y-93603121D01*
X65377160Y-94173999D01*
X65595626Y-94701422D01*
X65999298Y-95105094D01*
X66526721Y-95323560D01*
X67097599Y-95323560D01*
X67625022Y-95105094D01*
X68028694Y-94701422D01*
X68247160Y-94173999D01*
X68247160Y-93603121D01*
X70096480Y-93603121D01*
X70096480Y-94173999D01*
X70314946Y-94701422D01*
X70718618Y-95105094D01*
X71246041Y-95323560D01*
X71816919Y-95323560D01*
X72344342Y-95105094D01*
X72748014Y-94701422D01*
X72966480Y-94173999D01*
X72966480Y-93669161D01*
X77238960Y-93669161D01*
X77238960Y-94240039D01*
X77457426Y-94767462D01*
X77861098Y-95171134D01*
X78388521Y-95389600D01*
X78959399Y-95389600D01*
X79486822Y-95171134D01*
X79890494Y-94767462D01*
X80108960Y-94240039D01*
X80108960Y-93669161D01*
X82085280Y-93669161D01*
X82085280Y-94240039D01*
X82303746Y-94767462D01*
X82707418Y-95171134D01*
X83234841Y-95389600D01*
X83805719Y-95389600D01*
X84333142Y-95171134D01*
X84736814Y-94767462D01*
X84955280Y-94240039D01*
X84955280Y-93669161D01*
X84736814Y-93141738D01*
X84333142Y-92738066D01*
X83805719Y-92519600D01*
X83234841Y-92519600D01*
X82707418Y-92738066D01*
X82303746Y-93141738D01*
X82085280Y-93669161D01*
X80108960Y-93669161D01*
X79890494Y-93141738D01*
X79486822Y-92738066D01*
X78959399Y-92519600D01*
X78388521Y-92519600D01*
X77861098Y-92738066D01*
X77457426Y-93141738D01*
X77238960Y-93669161D01*
X72966480Y-93669161D01*
X72966480Y-93603121D01*
X72748014Y-93075698D01*
X72344342Y-92672026D01*
X71816919Y-92453560D01*
X71246041Y-92453560D01*
X70718618Y-92672026D01*
X70314946Y-93075698D01*
X70096480Y-93603121D01*
X68247160Y-93603121D01*
X68028694Y-93075698D01*
X67625022Y-92672026D01*
X67097599Y-92453560D01*
X66526721Y-92453560D01*
X65999298Y-92672026D01*
X65595626Y-93075698D01*
X65377160Y-93603121D01*
X61678640Y-93603121D01*
X61678640Y-91611761D01*
X88862000Y-91611761D01*
X88862000Y-92182639D01*
X89080466Y-92710062D01*
X89484138Y-93113734D01*
X90011561Y-93332200D01*
X90582439Y-93332200D01*
X91109862Y-93113734D01*
X91513534Y-92710062D01*
X91732000Y-92182639D01*
X91732000Y-91611761D01*
X91513534Y-91084338D01*
X91109862Y-90680666D01*
X90582439Y-90462200D01*
X90011561Y-90462200D01*
X89484138Y-90680666D01*
X89080466Y-91084338D01*
X88862000Y-91611761D01*
X61678640Y-91611761D01*
X61678640Y-81188560D01*
X65349047Y-81188560D01*
X65460420Y-81748469D01*
X65777583Y-82223137D01*
X66252251Y-82540300D01*
X66670827Y-82623560D01*
X66953493Y-82623560D01*
X67372069Y-82540300D01*
X67846737Y-82223137D01*
X68163900Y-81748469D01*
X68275273Y-81188560D01*
X70068367Y-81188560D01*
X70179740Y-81748469D01*
X70496903Y-82223137D01*
X70971571Y-82540300D01*
X71390147Y-82623560D01*
X71672813Y-82623560D01*
X72091389Y-82540300D01*
X72566057Y-82223137D01*
X72883220Y-81748469D01*
X72981456Y-81254600D01*
X77210847Y-81254600D01*
X77322220Y-81814509D01*
X77639383Y-82289177D01*
X78114051Y-82606340D01*
X78532627Y-82689600D01*
X78815293Y-82689600D01*
X79233869Y-82606340D01*
X79708537Y-82289177D01*
X80025700Y-81814509D01*
X80137073Y-81254600D01*
X80025700Y-80694691D01*
X79708537Y-80220023D01*
X79233869Y-79902860D01*
X78815293Y-79819600D01*
X78532627Y-79819600D01*
X78114051Y-79902860D01*
X77639383Y-80220023D01*
X77322220Y-80694691D01*
X77210847Y-81254600D01*
X72981456Y-81254600D01*
X72994593Y-81188560D01*
X72883220Y-80628651D01*
X72566057Y-80153983D01*
X72091389Y-79836820D01*
X71672813Y-79753560D01*
X71390147Y-79753560D01*
X70971571Y-79836820D01*
X70496903Y-80153983D01*
X70179740Y-80628651D01*
X70068367Y-81188560D01*
X68275273Y-81188560D01*
X68197160Y-80795860D01*
X68197160Y-77205485D01*
X70129046Y-75273600D01*
X77272633Y-75273600D01*
X77409040Y-75300733D01*
X77545447Y-75273600D01*
X77741665Y-75234570D01*
X77597355Y-75378880D01*
X71937630Y-75378880D01*
X71816919Y-75328880D01*
X71246041Y-75328880D01*
X70718618Y-75547346D01*
X70314946Y-75951018D01*
X70096480Y-76478441D01*
X70096480Y-77049319D01*
X70314946Y-77576742D01*
X70718618Y-77980414D01*
X71246041Y-78198880D01*
X71816919Y-78198880D01*
X71937630Y-78148880D01*
X78034633Y-78148880D01*
X78171040Y-78176013D01*
X78307447Y-78148880D01*
X78711440Y-78068521D01*
X79169569Y-77762409D01*
X79246840Y-77646766D01*
X88676126Y-68217480D01*
X89442649Y-68217480D01*
X89262423Y-68337903D01*
X88945260Y-68812571D01*
X88833887Y-69372480D01*
X88945260Y-69932389D01*
X89262423Y-70407057D01*
X89614758Y-70642480D01*
X89262423Y-70877903D01*
X88945260Y-71352571D01*
X88833887Y-71912480D01*
X88945260Y-72472389D01*
X89262423Y-72947057D01*
X89737091Y-73264220D01*
X90155667Y-73347480D01*
X90438333Y-73347480D01*
X90856909Y-73264220D01*
X91331577Y-72947057D01*
X91648740Y-72472389D01*
X91760113Y-71912480D01*
X91648740Y-71352571D01*
X91331577Y-70877903D01*
X90979242Y-70642480D01*
X91331577Y-70407057D01*
X91648740Y-69932389D01*
X91760113Y-69372480D01*
X91648740Y-68812571D01*
X91331577Y-68337903D01*
X90979242Y-68102480D01*
X91331577Y-67867057D01*
X91648740Y-67392389D01*
X91760113Y-66832480D01*
X91648740Y-66272571D01*
X91331577Y-65797903D01*
X91210894Y-65717265D01*
X91344765Y-65690637D01*
X91554809Y-65550289D01*
X91570050Y-65527480D01*
X93497936Y-65527480D01*
X93602161Y-65597121D01*
X93725102Y-65621575D01*
X94030241Y-65926715D01*
X94030240Y-74291446D01*
X92797887Y-75523800D01*
X85489560Y-75523800D01*
X85367929Y-75499606D01*
X85246299Y-75523800D01*
X85246294Y-75523800D01*
X85220755Y-75528880D01*
X84966103Y-75528880D01*
X84791389Y-75412140D01*
X84372813Y-75328880D01*
X84090147Y-75328880D01*
X83671571Y-75412140D01*
X83196903Y-75729303D01*
X82879740Y-76203971D01*
X82768367Y-76763880D01*
X82879740Y-77323789D01*
X83196903Y-77798457D01*
X83671571Y-78115620D01*
X84090147Y-78198880D01*
X84372813Y-78198880D01*
X84791389Y-78115620D01*
X84966103Y-77998880D01*
X85241218Y-77998880D01*
X85362850Y-78023074D01*
X85484482Y-77998880D01*
X85484486Y-77998880D01*
X85510025Y-77993800D01*
X89515084Y-77993800D01*
X89262423Y-78162623D01*
X88945260Y-78637291D01*
X88833887Y-79197200D01*
X88945260Y-79757109D01*
X89262423Y-80231777D01*
X89737091Y-80548940D01*
X90155667Y-80632200D01*
X90438333Y-80632200D01*
X90856909Y-80548940D01*
X91331577Y-80231777D01*
X91648740Y-79757109D01*
X91760113Y-79197200D01*
X91700305Y-78896521D01*
X93703240Y-78896521D01*
X93703240Y-79467399D01*
X93921706Y-79994822D01*
X94325378Y-80398494D01*
X94852801Y-80616960D01*
X95423679Y-80616960D01*
X95951102Y-80398494D01*
X96354774Y-79994822D01*
X96573240Y-79467399D01*
X96573240Y-78896521D01*
X96354774Y-78369098D01*
X95951102Y-77965426D01*
X95423679Y-77746960D01*
X94852801Y-77746960D01*
X94325378Y-77965426D01*
X93921706Y-78369098D01*
X93703240Y-78896521D01*
X91700305Y-78896521D01*
X91648740Y-78637291D01*
X91331577Y-78162623D01*
X91078916Y-77993800D01*
X93187808Y-77993800D01*
X93309440Y-78017994D01*
X93431072Y-77993800D01*
X93431076Y-77993800D01*
X93791313Y-77922144D01*
X94199825Y-77649185D01*
X94268727Y-77546066D01*
X96052510Y-75762284D01*
X96155625Y-75693385D01*
X96253206Y-75547346D01*
X96428584Y-75284873D01*
X96463188Y-75110906D01*
X96500240Y-74924636D01*
X96500240Y-74924632D01*
X96524434Y-74803000D01*
X96500240Y-74681368D01*
X96500240Y-72145512D01*
X96565260Y-72472389D01*
X96682000Y-72647103D01*
X96682000Y-72901756D01*
X96676920Y-72927295D01*
X96676920Y-72927298D01*
X96652726Y-73048930D01*
X96676920Y-73170562D01*
X96676921Y-81185005D01*
X94042487Y-83819440D01*
X87831674Y-83819440D01*
X84913014Y-80900781D01*
X84872020Y-80694691D01*
X84554857Y-80220023D01*
X84080189Y-79902860D01*
X83661613Y-79819600D01*
X83378947Y-79819600D01*
X82960371Y-79902860D01*
X82485703Y-80220023D01*
X82168540Y-80694691D01*
X82057167Y-81254600D01*
X82168540Y-81814509D01*
X82485703Y-82289177D01*
X82960371Y-82606340D01*
X83166461Y-82647334D01*
X86360835Y-85841709D01*
X86429735Y-85944825D01*
X86532851Y-86013725D01*
X86532852Y-86013726D01*
X86623378Y-86074213D01*
X86838247Y-86217784D01*
X87198484Y-86289440D01*
X87198488Y-86289440D01*
X87320119Y-86313634D01*
X87441750Y-86289440D01*
X94432408Y-86289440D01*
X94554040Y-86313634D01*
X94675672Y-86289440D01*
X94675676Y-86289440D01*
X95035913Y-86217784D01*
X95444425Y-85944825D01*
X95513327Y-85841706D01*
X98699189Y-82655845D01*
X98802305Y-82586945D01*
X99064521Y-82194511D01*
X99064521Y-86209125D01*
X94784421Y-90489226D01*
X94578331Y-90530220D01*
X94103663Y-90847383D01*
X93786500Y-91322051D01*
X93675127Y-91881960D01*
X93786500Y-92441869D01*
X94103663Y-92916537D01*
X94578331Y-93233700D01*
X94996907Y-93316960D01*
X95279573Y-93316960D01*
X95698149Y-93233700D01*
X96172817Y-92916537D01*
X96489980Y-92441869D01*
X96530974Y-92235779D01*
X101086789Y-87679965D01*
X101189905Y-87611065D01*
X101462864Y-87202553D01*
X101484378Y-87094395D01*
X101636308Y-87246325D01*
X101620635Y-87249443D01*
X101410591Y-87389791D01*
X101270243Y-87599835D01*
X101220960Y-87847600D01*
X101220960Y-89647600D01*
X101270243Y-89895365D01*
X101410591Y-90105409D01*
X101620635Y-90245757D01*
X101868400Y-90295040D01*
X103668400Y-90295040D01*
X103916165Y-90245757D01*
X104126209Y-90105409D01*
X104266557Y-89895365D01*
X104315840Y-89647600D01*
X104315840Y-87847600D01*
X104266557Y-87599835D01*
X104126209Y-87389791D01*
X103916165Y-87249443D01*
X103900492Y-87246325D01*
X104069710Y-87077107D01*
X104303400Y-86512930D01*
X104303400Y-85902270D01*
X104069710Y-85338093D01*
X103637907Y-84906290D01*
X103073730Y-84672600D01*
X102463070Y-84672600D01*
X101898893Y-84906290D01*
X101534520Y-85270663D01*
X101534520Y-84498616D01*
X101620635Y-84556157D01*
X101868400Y-84605440D01*
X103668400Y-84605440D01*
X103916165Y-84556157D01*
X104126209Y-84415809D01*
X104266557Y-84205765D01*
X104315840Y-83958000D01*
X104315840Y-82158000D01*
X104266557Y-81910235D01*
X104126209Y-81700191D01*
X103916165Y-81559843D01*
X103900492Y-81556725D01*
X104069710Y-81387507D01*
X104303400Y-80823330D01*
X104303400Y-80212670D01*
X104069710Y-79648493D01*
X103637907Y-79216690D01*
X103073730Y-78983000D01*
X102463070Y-78983000D01*
X101898893Y-79216690D01*
X101534520Y-79581063D01*
X101534520Y-78829688D01*
X122670160Y-78829688D01*
X122670160Y-79798392D01*
X123040867Y-80693356D01*
X123725844Y-81378333D01*
X124620808Y-81749040D01*
X125589512Y-81749040D01*
X126484476Y-81378333D01*
X127169453Y-80693356D01*
X127540160Y-79798392D01*
X127540160Y-78829688D01*
X127169453Y-77934724D01*
X126484476Y-77249747D01*
X125589512Y-76879040D01*
X124620808Y-76879040D01*
X123725844Y-77249747D01*
X123040867Y-77934724D01*
X122670160Y-78829688D01*
X101534520Y-78829688D01*
X101534520Y-77728779D01*
X101733823Y-78027057D01*
X102208491Y-78344220D01*
X102627067Y-78427480D01*
X102909733Y-78427480D01*
X103328309Y-78344220D01*
X103802977Y-78027057D01*
X104120140Y-77552389D01*
X104231513Y-76992480D01*
X104120140Y-76432571D01*
X103802977Y-75957903D01*
X103328309Y-75640740D01*
X102909733Y-75557480D01*
X102627067Y-75557480D01*
X102208491Y-75640740D01*
X101733823Y-75957903D01*
X101534520Y-76256181D01*
X101534520Y-72901328D01*
X122670160Y-72901328D01*
X122670160Y-73870032D01*
X123040867Y-74764996D01*
X123725844Y-75449973D01*
X124620808Y-75820680D01*
X125589512Y-75820680D01*
X126484476Y-75449973D01*
X127169453Y-74764996D01*
X127540160Y-73870032D01*
X127540160Y-72901328D01*
X127169453Y-72006364D01*
X126484476Y-71321387D01*
X125589512Y-70950680D01*
X124620808Y-70950680D01*
X123725844Y-71321387D01*
X123040867Y-72006364D01*
X122670160Y-72901328D01*
X101534520Y-72901328D01*
X101534520Y-71876631D01*
X101558714Y-71754999D01*
X101534520Y-71633365D01*
X101534520Y-71633364D01*
X101462864Y-71273127D01*
X101292157Y-71017646D01*
X101258806Y-70967732D01*
X101258805Y-70967731D01*
X101189905Y-70864615D01*
X101086790Y-70795716D01*
X99309734Y-69018661D01*
X99268740Y-68812571D01*
X98951577Y-68337903D01*
X98599242Y-68102480D01*
X98951577Y-67867057D01*
X99268740Y-67392389D01*
X99380113Y-66832480D01*
X99268740Y-66272571D01*
X98951577Y-65797903D01*
X98599242Y-65562480D01*
X98951577Y-65327057D01*
X99268740Y-64852389D01*
X99380113Y-64292480D01*
X99268740Y-63732571D01*
X98951577Y-63257903D01*
X98476909Y-62940740D01*
X98058333Y-62857480D01*
X97775667Y-62857480D01*
X97476796Y-62916929D01*
X98800566Y-61593160D01*
X102423210Y-61593160D01*
X102543921Y-61643160D01*
X103114799Y-61643160D01*
X103642222Y-61424694D01*
X104045894Y-61021022D01*
X104264360Y-60493599D01*
X104264360Y-59922721D01*
X104045894Y-59395298D01*
X103642222Y-58991626D01*
X103114799Y-58773160D01*
X102543921Y-58773160D01*
X102423210Y-58823160D01*
X98363287Y-58823160D01*
X98226880Y-58796027D01*
X98090473Y-58823160D01*
X97686480Y-58903519D01*
X97228351Y-59209631D01*
X97151082Y-59325272D01*
X93418875Y-63057480D01*
X91570050Y-63057480D01*
X91554809Y-63034671D01*
X91344765Y-62894323D01*
X91097000Y-62845040D01*
X89497000Y-62845040D01*
X89249235Y-62894323D01*
X89039191Y-63034671D01*
X88898843Y-63244715D01*
X88849560Y-63492480D01*
X88849560Y-65092480D01*
X88898843Y-65340245D01*
X88970496Y-65447480D01*
X88238847Y-65447480D01*
X88102440Y-65420347D01*
X87966033Y-65447480D01*
X87562040Y-65527839D01*
X87103911Y-65833951D01*
X87026642Y-65949592D01*
X82209410Y-70766824D01*
X82248440Y-70570607D01*
X82275573Y-70434201D01*
X82248440Y-70297795D01*
X82248440Y-69803925D01*
X89499086Y-62553280D01*
X90775273Y-62553280D01*
X90911680Y-62580413D01*
X91048087Y-62553280D01*
X91452080Y-62472921D01*
X91910209Y-62166809D01*
X91987480Y-62051165D01*
X94359965Y-59678680D01*
X94475609Y-59601409D01*
X94781721Y-59143280D01*
X94862080Y-58739287D01*
X94862080Y-58739283D01*
X94889212Y-58602881D01*
X94862080Y-58466479D01*
X94862080Y-52932847D01*
X94889213Y-52796440D01*
X94781721Y-52256040D01*
X94552877Y-51913551D01*
X94552875Y-51913549D01*
X94475608Y-51797911D01*
X94359970Y-51720644D01*
X93191439Y-50552114D01*
X93114169Y-50436471D01*
X92656040Y-50130359D01*
X92252047Y-50050000D01*
X92115640Y-50022867D01*
X91979233Y-50050000D01*
X91726859Y-50050000D01*
X91771357Y-49983405D01*
X91820640Y-49735640D01*
X91820640Y-48935640D01*
X96530087Y-48935640D01*
X96641460Y-49495549D01*
X96958623Y-49970217D01*
X97310958Y-50205640D01*
X96958623Y-50441063D01*
X96641460Y-50915731D01*
X96530087Y-51475640D01*
X96641460Y-52035549D01*
X96958623Y-52510217D01*
X97310958Y-52745640D01*
X96958623Y-52981063D01*
X96641460Y-53455731D01*
X96530087Y-54015640D01*
X96641460Y-54575549D01*
X96958623Y-55050217D01*
X97310958Y-55285640D01*
X96958623Y-55521063D01*
X96641460Y-55995731D01*
X96530087Y-56555640D01*
X96641460Y-57115549D01*
X96958623Y-57590217D01*
X97433291Y-57907380D01*
X97851867Y-57990640D01*
X98134533Y-57990640D01*
X98553109Y-57907380D01*
X99027777Y-57590217D01*
X99344940Y-57115549D01*
X99456313Y-56555640D01*
X99344940Y-55995731D01*
X99027777Y-55521063D01*
X98675442Y-55285640D01*
X99027777Y-55050217D01*
X99344940Y-54575549D01*
X99456313Y-54015640D01*
X99344940Y-53455731D01*
X99027777Y-52981063D01*
X98675442Y-52745640D01*
X99027777Y-52510217D01*
X99344940Y-52035549D01*
X99456313Y-51475640D01*
X99344940Y-50915731D01*
X99190239Y-50684204D01*
X100433440Y-51927406D01*
X100433440Y-52345073D01*
X100406307Y-52481480D01*
X100491672Y-52910640D01*
X100513799Y-53021879D01*
X100819911Y-53480008D01*
X100935552Y-53557277D01*
X105025761Y-57647487D01*
X105025760Y-61207804D01*
X103326085Y-62907480D01*
X103174550Y-62907480D01*
X103053839Y-62857480D01*
X102482961Y-62857480D01*
X101955538Y-63075946D01*
X101551866Y-63479618D01*
X101333400Y-64007041D01*
X101333400Y-64577919D01*
X101551866Y-65105342D01*
X101955538Y-65509014D01*
X102482961Y-65727480D01*
X103053839Y-65727480D01*
X103174550Y-65677480D01*
X103763363Y-65677480D01*
X103899770Y-65704613D01*
X104036177Y-65677480D01*
X104440170Y-65597121D01*
X104898299Y-65291009D01*
X104975569Y-65175366D01*
X107293650Y-62857286D01*
X107409288Y-62780019D01*
X107486555Y-62664381D01*
X107486557Y-62664379D01*
X107715400Y-62321891D01*
X107715401Y-62321890D01*
X107795760Y-61917897D01*
X107795760Y-61917896D01*
X107822893Y-61781491D01*
X107795760Y-61645085D01*
X107795760Y-60201328D01*
X122670160Y-60201328D01*
X122670160Y-61170032D01*
X123040867Y-62064996D01*
X123725844Y-62749973D01*
X124620808Y-63120680D01*
X125589512Y-63120680D01*
X126484476Y-62749973D01*
X127169453Y-62064996D01*
X127540160Y-61170032D01*
X127540160Y-60201328D01*
X127169453Y-59306364D01*
X126484476Y-58621387D01*
X125589512Y-58250680D01*
X124620808Y-58250680D01*
X123725844Y-58621387D01*
X123040867Y-59306364D01*
X122670160Y-60201328D01*
X107795760Y-60201328D01*
X107795760Y-57210205D01*
X107822893Y-57073799D01*
X107795760Y-56937393D01*
X107715401Y-56533400D01*
X107409289Y-56075271D01*
X107293648Y-55998002D01*
X105371287Y-54075641D01*
X106718200Y-54075641D01*
X106718200Y-54646519D01*
X106936666Y-55173942D01*
X107340338Y-55577614D01*
X107867761Y-55796080D01*
X108438639Y-55796080D01*
X108966062Y-55577614D01*
X109369734Y-55173942D01*
X109588200Y-54646519D01*
X109588200Y-54075641D01*
X111437520Y-54075641D01*
X111437520Y-54646519D01*
X111655986Y-55173942D01*
X112059658Y-55577614D01*
X112587081Y-55796080D01*
X113157959Y-55796080D01*
X113685382Y-55577614D01*
X114089054Y-55173942D01*
X114307520Y-54646519D01*
X114307520Y-54075641D01*
X114089054Y-53548218D01*
X113685382Y-53144546D01*
X113157959Y-52926080D01*
X112587081Y-52926080D01*
X112059658Y-53144546D01*
X111655986Y-53548218D01*
X111437520Y-54075641D01*
X109588200Y-54075641D01*
X109369734Y-53548218D01*
X108966062Y-53144546D01*
X108438639Y-52926080D01*
X107867761Y-52926080D01*
X107340338Y-53144546D01*
X106936666Y-53548218D01*
X106718200Y-54075641D01*
X105371287Y-54075641D01*
X103203440Y-51907795D01*
X103203440Y-51490127D01*
X103230573Y-51353720D01*
X103123081Y-50813320D01*
X102894237Y-50470831D01*
X102816969Y-50355191D01*
X102701328Y-50277922D01*
X100476159Y-48052754D01*
X100398889Y-47937111D01*
X99940760Y-47630999D01*
X99536767Y-47550640D01*
X99400360Y-47523507D01*
X99263953Y-47550640D01*
X98385900Y-47550640D01*
X98172339Y-47508160D01*
X101366247Y-47508160D01*
X101477620Y-48068069D01*
X101794783Y-48542737D01*
X102269451Y-48859900D01*
X102688027Y-48943160D01*
X102970693Y-48943160D01*
X103389269Y-48859900D01*
X103863937Y-48542737D01*
X104181100Y-48068069D01*
X104292473Y-47508160D01*
X104181100Y-46948251D01*
X103863937Y-46473583D01*
X103389269Y-46156420D01*
X102970693Y-46073160D01*
X102688027Y-46073160D01*
X102269451Y-46156420D01*
X101794783Y-46473583D01*
X101477620Y-46948251D01*
X101366247Y-47508160D01*
X98172339Y-47508160D01*
X98134533Y-47500640D01*
X97851867Y-47500640D01*
X97433291Y-47583900D01*
X96958623Y-47901063D01*
X96641460Y-48375731D01*
X96530087Y-48935640D01*
X91820640Y-48935640D01*
X91820640Y-48135640D01*
X91771357Y-47887875D01*
X91631009Y-47677831D01*
X91420965Y-47537483D01*
X91173200Y-47488200D01*
X89573200Y-47488200D01*
X89325435Y-47537483D01*
X89115391Y-47677831D01*
X88975043Y-47887875D01*
X88925760Y-48135640D01*
X88925760Y-49735640D01*
X88975043Y-49983405D01*
X89115391Y-50193449D01*
X89325435Y-50333797D01*
X89459306Y-50360425D01*
X89338623Y-50441063D01*
X89021460Y-50915731D01*
X88910087Y-51475640D01*
X89021460Y-52035549D01*
X89338623Y-52510217D01*
X89518849Y-52630640D01*
X88391241Y-52630640D01*
X88254839Y-52603508D01*
X88118437Y-52630640D01*
X88118433Y-52630640D01*
X87714440Y-52710999D01*
X87256311Y-53017111D01*
X87179039Y-53132757D01*
X86767433Y-53544362D01*
X86651792Y-53621631D01*
X86574523Y-53737272D01*
X86345679Y-54079761D01*
X86238187Y-54620160D01*
X86265321Y-54756572D01*
X86265320Y-57450075D01*
X85110675Y-58604720D01*
X75578415Y-58604720D01*
X73118890Y-56145195D01*
X73041619Y-56029551D01*
X72583490Y-55723439D01*
X72179497Y-55643080D01*
X72043090Y-55615947D01*
X71906683Y-55643080D01*
X71304420Y-55643080D01*
X71053053Y-55593080D01*
X70770387Y-55593080D01*
X70351811Y-55676340D01*
X69877143Y-55993503D01*
X69559980Y-56468171D01*
X69448607Y-57028080D01*
X69559980Y-57587989D01*
X69877143Y-58062657D01*
X70351811Y-58379820D01*
X70770387Y-58463080D01*
X71053053Y-58463080D01*
X71304420Y-58413080D01*
X71469405Y-58413080D01*
X73928930Y-60872605D01*
X74006201Y-60988249D01*
X74464330Y-61294361D01*
X74868323Y-61374720D01*
X74868327Y-61374720D01*
X75004729Y-61401852D01*
X75141131Y-61374720D01*
X85547953Y-61374720D01*
X85684360Y-61401853D01*
X85820767Y-61374720D01*
X86224760Y-61294361D01*
X86682889Y-60988249D01*
X86760160Y-60872605D01*
X88533207Y-59099558D01*
X88648848Y-59022289D01*
X88954961Y-58564160D01*
X89035320Y-58160167D01*
X89035320Y-58160166D01*
X89062453Y-58023761D01*
X89035320Y-57887355D01*
X89035320Y-57136292D01*
X89338623Y-57590217D01*
X89813291Y-57907380D01*
X90231867Y-57990640D01*
X90514533Y-57990640D01*
X90933109Y-57907380D01*
X91407777Y-57590217D01*
X91724940Y-57115549D01*
X91836313Y-56555640D01*
X91724940Y-55995731D01*
X91407777Y-55521063D01*
X91055442Y-55285640D01*
X91407777Y-55050217D01*
X91724940Y-54575549D01*
X91836313Y-54015640D01*
X91724940Y-53455731D01*
X91407777Y-52981063D01*
X91227551Y-52860640D01*
X91368163Y-52860640D01*
X91504570Y-52887773D01*
X91592281Y-52870326D01*
X92092080Y-53370126D01*
X92092081Y-58029194D01*
X90337995Y-59783280D01*
X89061805Y-59783280D01*
X88925399Y-59756147D01*
X88788993Y-59783280D01*
X88385000Y-59863639D01*
X87926871Y-60169751D01*
X87849602Y-60285392D01*
X79980552Y-68154443D01*
X79864911Y-68231712D01*
X79581277Y-68656200D01*
X79558799Y-68689841D01*
X79451307Y-69230240D01*
X79478440Y-69366647D01*
X79478440Y-69860515D01*
X79030123Y-70308832D01*
X79299920Y-69657484D01*
X79299920Y-68927476D01*
X79020558Y-68253036D01*
X78504364Y-67736842D01*
X77829924Y-67457480D01*
X77099916Y-67457480D01*
X76425476Y-67736842D01*
X75909282Y-68253036D01*
X75629920Y-68927476D01*
X75629920Y-69657484D01*
X75909282Y-70331924D01*
X76425476Y-70848118D01*
X77099916Y-71127480D01*
X77829924Y-71127480D01*
X78481272Y-70857683D01*
X76835355Y-72503600D01*
X69691767Y-72503600D01*
X69555360Y-72476467D01*
X69418953Y-72503600D01*
X69014960Y-72583959D01*
X68556831Y-72890071D01*
X68479562Y-73005712D01*
X65929272Y-75556003D01*
X65813631Y-75633272D01*
X65653119Y-75873495D01*
X65507519Y-76091401D01*
X65400027Y-76631800D01*
X65427160Y-76768207D01*
X65427161Y-80795856D01*
X65349047Y-81188560D01*
X61678640Y-81188560D01*
X61678640Y-72032761D01*
X61705772Y-71896359D01*
X61678640Y-71759957D01*
X61678640Y-71759953D01*
X61598281Y-71355960D01*
X61292169Y-70897831D01*
X61176525Y-70820560D01*
X60663520Y-70307555D01*
X60663520Y-68927476D01*
X60979200Y-68927476D01*
X60979200Y-69657484D01*
X61258562Y-70331924D01*
X61774756Y-70848118D01*
X62449196Y-71127480D01*
X63179204Y-71127480D01*
X63853644Y-70848118D01*
X64369838Y-70331924D01*
X64649200Y-69657484D01*
X64649200Y-68927476D01*
X64369838Y-68253036D01*
X63853644Y-67736842D01*
X63179204Y-67457480D01*
X62449196Y-67457480D01*
X61774756Y-67736842D01*
X61258562Y-68253036D01*
X60979200Y-68927476D01*
X60663520Y-68927476D01*
X60663520Y-63092480D01*
X60966760Y-63092480D01*
X60966760Y-65492480D01*
X61016043Y-65740245D01*
X61156391Y-65950289D01*
X61366435Y-66090637D01*
X61614200Y-66139920D01*
X64014200Y-66139920D01*
X64261965Y-66090637D01*
X64472009Y-65950289D01*
X64612357Y-65740245D01*
X64661640Y-65492480D01*
X64661640Y-63092480D01*
X75617480Y-63092480D01*
X75617480Y-65492480D01*
X75666763Y-65740245D01*
X75807111Y-65950289D01*
X76017155Y-66090637D01*
X76264920Y-66139920D01*
X78664920Y-66139920D01*
X78912685Y-66090637D01*
X79122729Y-65950289D01*
X79263077Y-65740245D01*
X79312360Y-65492480D01*
X79312360Y-63092480D01*
X79263077Y-62844715D01*
X79122729Y-62634671D01*
X78912685Y-62494323D01*
X78664920Y-62445040D01*
X76264920Y-62445040D01*
X76017155Y-62494323D01*
X75807111Y-62634671D01*
X75666763Y-62844715D01*
X75617480Y-63092480D01*
X64661640Y-63092480D01*
X64612357Y-62844715D01*
X64472009Y-62634671D01*
X64261965Y-62494323D01*
X64014200Y-62445040D01*
X61614200Y-62445040D01*
X61366435Y-62494323D01*
X61156391Y-62634671D01*
X61016043Y-62844715D01*
X60966760Y-63092480D01*
X60663520Y-63092480D01*
X60663520Y-61919765D01*
X67040406Y-55542880D01*
X81849315Y-55542880D01*
X83549146Y-57242712D01*
X83599146Y-57363422D01*
X84002818Y-57767094D01*
X84530241Y-57985560D01*
X85101119Y-57985560D01*
X85628542Y-57767094D01*
X86032214Y-57363422D01*
X86250680Y-56835999D01*
X86250680Y-56265121D01*
X86032214Y-55737698D01*
X85628542Y-55334026D01*
X85507832Y-55284026D01*
X83498799Y-53274994D01*
X83421529Y-53159351D01*
X82963400Y-52853239D01*
X82559407Y-52772880D01*
X82423000Y-52745747D01*
X82286593Y-52772880D01*
X66603127Y-52772880D01*
X66466720Y-52745747D01*
X66211869Y-52796440D01*
X65926320Y-52853239D01*
X65468191Y-53159351D01*
X65390922Y-53274992D01*
X58395632Y-60270283D01*
X58279992Y-60347551D01*
X58202723Y-60463192D01*
X57973879Y-60805681D01*
X57866387Y-61346080D01*
X45338200Y-61346080D01*
X45338200Y-55670761D01*
X51610360Y-55670761D01*
X51610360Y-56241639D01*
X51828826Y-56769062D01*
X52232498Y-57172734D01*
X52759921Y-57391200D01*
X53330799Y-57391200D01*
X53858222Y-57172734D01*
X54261894Y-56769062D01*
X54272837Y-56742641D01*
X56776720Y-56742641D01*
X56776720Y-57313519D01*
X56995186Y-57840942D01*
X57398858Y-58244614D01*
X57926281Y-58463080D01*
X58497159Y-58463080D01*
X59024582Y-58244614D01*
X59428254Y-57840942D01*
X59646720Y-57313519D01*
X59646720Y-56742641D01*
X59428254Y-56215218D01*
X59024582Y-55811546D01*
X58497159Y-55593080D01*
X57926281Y-55593080D01*
X57398858Y-55811546D01*
X56995186Y-56215218D01*
X56776720Y-56742641D01*
X54272837Y-56742641D01*
X54480360Y-56241639D01*
X54480360Y-55670761D01*
X54261894Y-55143338D01*
X53858222Y-54739666D01*
X53330799Y-54521200D01*
X52759921Y-54521200D01*
X52232498Y-54739666D01*
X51828826Y-55143338D01*
X51610360Y-55670761D01*
X45338200Y-55670761D01*
X45338200Y-52339240D01*
X51612727Y-52339240D01*
X51724100Y-52899149D01*
X52041263Y-53373817D01*
X52515931Y-53690980D01*
X52934507Y-53774240D01*
X53217173Y-53774240D01*
X53635749Y-53690980D01*
X54110417Y-53373817D01*
X54427580Y-52899149D01*
X54538953Y-52339240D01*
X54427580Y-51779331D01*
X54110417Y-51304663D01*
X53635749Y-50987500D01*
X53217173Y-50904240D01*
X52934507Y-50904240D01*
X52515931Y-50987500D01*
X52041263Y-51304663D01*
X51724100Y-51779331D01*
X51612727Y-52339240D01*
X45338200Y-52339240D01*
X45338200Y-48709400D01*
X56504920Y-48709400D01*
X56504920Y-50909400D01*
X56554203Y-51157165D01*
X56694551Y-51367209D01*
X56904595Y-51507557D01*
X57152360Y-51556840D01*
X59352360Y-51556840D01*
X59600125Y-51507557D01*
X59810169Y-51367209D01*
X59950517Y-51157165D01*
X59999800Y-50909400D01*
X59999800Y-48709400D01*
X59950517Y-48461635D01*
X59810169Y-48251591D01*
X59600125Y-48111243D01*
X59352360Y-48061960D01*
X57152360Y-48061960D01*
X56904595Y-48111243D01*
X56694551Y-48251591D01*
X56554203Y-48461635D01*
X56504920Y-48709400D01*
X45338200Y-48709400D01*
X45338200Y-44739560D01*
X65302968Y-44739560D01*
X65422102Y-45338487D01*
X65761367Y-45846233D01*
X66005803Y-46009560D01*
X65761367Y-46172887D01*
X65422102Y-46680633D01*
X65302968Y-47279560D01*
X65422102Y-47878487D01*
X65718736Y-48322431D01*
X65510231Y-48461751D01*
X65369883Y-48671795D01*
X65320600Y-48919560D01*
X65320600Y-50719560D01*
X65369883Y-50967325D01*
X65510231Y-51177369D01*
X65720275Y-51317717D01*
X65968040Y-51367000D01*
X67768040Y-51367000D01*
X68015805Y-51317717D01*
X68225849Y-51177369D01*
X68366197Y-50967325D01*
X68415480Y-50719560D01*
X68415480Y-48919560D01*
X68366197Y-48671795D01*
X68225849Y-48461751D01*
X68017344Y-48322431D01*
X68313978Y-47878487D01*
X68433112Y-47279560D01*
X68352425Y-46873916D01*
X71798320Y-46873916D01*
X71798320Y-47603924D01*
X72077682Y-48278364D01*
X72593876Y-48794558D01*
X73268316Y-49073920D01*
X73998324Y-49073920D01*
X74672764Y-48794558D01*
X75188958Y-48278364D01*
X75468320Y-47603924D01*
X75468320Y-46873916D01*
X75188958Y-46199476D01*
X75028402Y-46038920D01*
X76785880Y-46038920D01*
X76785880Y-48438920D01*
X76835163Y-48686685D01*
X76975511Y-48896729D01*
X77185555Y-49037077D01*
X77433320Y-49086360D01*
X79833320Y-49086360D01*
X80081085Y-49037077D01*
X80291129Y-48896729D01*
X80431477Y-48686685D01*
X80480760Y-48438920D01*
X80480760Y-46038920D01*
X80431477Y-45791155D01*
X80291129Y-45581111D01*
X80081085Y-45440763D01*
X79833320Y-45391480D01*
X77433320Y-45391480D01*
X77185555Y-45440763D01*
X76975511Y-45581111D01*
X76835163Y-45791155D01*
X76785880Y-46038920D01*
X75028402Y-46038920D01*
X74672764Y-45683282D01*
X73998324Y-45403920D01*
X73268316Y-45403920D01*
X72593876Y-45683282D01*
X72077682Y-46199476D01*
X71798320Y-46873916D01*
X68352425Y-46873916D01*
X68313978Y-46680633D01*
X67974713Y-46172887D01*
X67730277Y-46009560D01*
X67974713Y-45846233D01*
X68313978Y-45338487D01*
X68433112Y-44739560D01*
X68313978Y-44140633D01*
X68120158Y-43850560D01*
X83352567Y-43850560D01*
X83463940Y-44410469D01*
X83781103Y-44885137D01*
X84255771Y-45202300D01*
X84674347Y-45285560D01*
X84957013Y-45285560D01*
X85375589Y-45202300D01*
X85850257Y-44885137D01*
X86167420Y-44410469D01*
X86278793Y-43850560D01*
X86167420Y-43290651D01*
X85850257Y-42815983D01*
X85375589Y-42498820D01*
X84957013Y-42415560D01*
X84674347Y-42415560D01*
X84255771Y-42498820D01*
X83781103Y-42815983D01*
X83463940Y-43290651D01*
X83352567Y-43850560D01*
X68120158Y-43850560D01*
X67974713Y-43632887D01*
X67466967Y-43293622D01*
X67019222Y-43204560D01*
X66716858Y-43204560D01*
X66269113Y-43293622D01*
X65761367Y-43632887D01*
X65422102Y-44140633D01*
X65302968Y-44739560D01*
X45338200Y-44739560D01*
X45338200Y-39353801D01*
X51640840Y-39353801D01*
X51640840Y-39924679D01*
X51859306Y-40452102D01*
X52262978Y-40855774D01*
X52790401Y-41074240D01*
X53361279Y-41074240D01*
X53888702Y-40855774D01*
X54292374Y-40452102D01*
X54510840Y-39924679D01*
X54510840Y-39649400D01*
X56483370Y-39649400D01*
X56618026Y-40326363D01*
X57001495Y-40900265D01*
X57575397Y-41283734D01*
X58081480Y-41384400D01*
X58423240Y-41384400D01*
X58929323Y-41283734D01*
X59503225Y-40900265D01*
X59886694Y-40326363D01*
X60021350Y-39649400D01*
X59886694Y-38972437D01*
X59503225Y-38398535D01*
X58929323Y-38015066D01*
X58423240Y-37914400D01*
X58081480Y-37914400D01*
X57575397Y-38015066D01*
X57001495Y-38398535D01*
X56618026Y-38972437D01*
X56483370Y-39649400D01*
X54510840Y-39649400D01*
X54510840Y-39353801D01*
X54292374Y-38826378D01*
X53888702Y-38422706D01*
X53361279Y-38204240D01*
X52790401Y-38204240D01*
X52262978Y-38422706D01*
X51859306Y-38826378D01*
X51640840Y-39353801D01*
X45338200Y-39353801D01*
X45338200Y-35801661D01*
X45882560Y-35801661D01*
X45882560Y-36862659D01*
X46288586Y-37842894D01*
X47038826Y-38593134D01*
X48019061Y-38999160D01*
X49080059Y-38999160D01*
X50060294Y-38593134D01*
X50810534Y-37842894D01*
X51216560Y-36862659D01*
X51216560Y-36642040D01*
X86079450Y-36642040D01*
X86214106Y-37319003D01*
X86597575Y-37892905D01*
X87171477Y-38276374D01*
X87611643Y-38363928D01*
X88988201Y-39740487D01*
X88988200Y-41363761D01*
X88987114Y-41364847D01*
X88738200Y-41965778D01*
X88738200Y-42616222D01*
X88987114Y-43217153D01*
X89447047Y-43677086D01*
X90047978Y-43926000D01*
X90698422Y-43926000D01*
X91299353Y-43677086D01*
X91759286Y-43217153D01*
X92008200Y-42616222D01*
X92008200Y-41965778D01*
X96238200Y-41965778D01*
X96238200Y-42616222D01*
X96487114Y-43217153D01*
X96947047Y-43677086D01*
X97547978Y-43926000D01*
X98198422Y-43926000D01*
X98799353Y-43677086D01*
X99126799Y-43349640D01*
X102392200Y-43349640D01*
X102392200Y-44869640D01*
X102441483Y-45117405D01*
X102581831Y-45327449D01*
X102791875Y-45467797D01*
X103039640Y-45517080D01*
X104559640Y-45517080D01*
X104807405Y-45467797D01*
X105017449Y-45327449D01*
X105157797Y-45117405D01*
X105207080Y-44869640D01*
X105207080Y-43349640D01*
X105157797Y-43101875D01*
X105017449Y-42891831D01*
X104807405Y-42751483D01*
X104626591Y-42715517D01*
X104982264Y-42359844D01*
X105194640Y-41847123D01*
X105194640Y-41292157D01*
X104982264Y-40779436D01*
X104589844Y-40387016D01*
X104378900Y-40299640D01*
X104589844Y-40212264D01*
X104982264Y-39819844D01*
X105194640Y-39307123D01*
X105194640Y-38752157D01*
X104982264Y-38239436D01*
X104589844Y-37847016D01*
X104077123Y-37634640D01*
X103522157Y-37634640D01*
X103009436Y-37847016D01*
X102617016Y-38239436D01*
X102404640Y-38752157D01*
X102404640Y-39307123D01*
X102617016Y-39819844D01*
X103009436Y-40212264D01*
X103220380Y-40299640D01*
X103009436Y-40387016D01*
X102617016Y-40779436D01*
X102404640Y-41292157D01*
X102404640Y-41847123D01*
X102617016Y-42359844D01*
X102972689Y-42715517D01*
X102791875Y-42751483D01*
X102581831Y-42891831D01*
X102441483Y-43101875D01*
X102392200Y-43349640D01*
X99126799Y-43349640D01*
X99259286Y-43217153D01*
X99508200Y-42616222D01*
X99508200Y-41965778D01*
X99259286Y-41364847D01*
X98799353Y-40904914D01*
X98198422Y-40656000D01*
X97547978Y-40656000D01*
X96947047Y-40904914D01*
X96487114Y-41364847D01*
X96238200Y-41965778D01*
X92008200Y-41965778D01*
X91759286Y-41364847D01*
X91758200Y-41363761D01*
X91758200Y-39303207D01*
X91785333Y-39166800D01*
X91677841Y-38626400D01*
X91448997Y-38283911D01*
X91371729Y-38168271D01*
X91256088Y-38091002D01*
X89570328Y-36405243D01*
X89482774Y-35965077D01*
X89200110Y-35542040D01*
X96261000Y-35542040D01*
X96261000Y-37742040D01*
X96310283Y-37989805D01*
X96450631Y-38199849D01*
X96660675Y-38340197D01*
X96908440Y-38389480D01*
X99108440Y-38389480D01*
X99356205Y-38340197D01*
X99566249Y-38199849D01*
X99681717Y-38027040D01*
X100472033Y-38027040D01*
X100608440Y-38054173D01*
X100744847Y-38027040D01*
X101148840Y-37946681D01*
X101606969Y-37640569D01*
X101684239Y-37524926D01*
X104032006Y-35177160D01*
X106918465Y-35177160D01*
X106718200Y-35660641D01*
X106718200Y-36231519D01*
X106768201Y-36352232D01*
X106768200Y-41268380D01*
X106690087Y-41661080D01*
X106801460Y-42220989D01*
X107118623Y-42695657D01*
X107593291Y-43012820D01*
X108011867Y-43096080D01*
X108294533Y-43096080D01*
X108713109Y-43012820D01*
X109187777Y-42695657D01*
X109504940Y-42220989D01*
X109616313Y-41661080D01*
X109538200Y-41268380D01*
X109538200Y-40285445D01*
X111615495Y-42362740D01*
X111837943Y-42695657D01*
X112312611Y-43012820D01*
X112731187Y-43096080D01*
X113013853Y-43096080D01*
X113432429Y-43012820D01*
X113907097Y-42695657D01*
X113936081Y-42652280D01*
X113936081Y-43693228D01*
X113908947Y-43829640D01*
X114016439Y-44370039D01*
X114203530Y-44650040D01*
X114322552Y-44828169D01*
X114438193Y-44905438D01*
X114525280Y-44992525D01*
X114602551Y-45108169D01*
X115060680Y-45414281D01*
X115464673Y-45494640D01*
X115601080Y-45521773D01*
X115737487Y-45494640D01*
X116988265Y-45494640D01*
X117101080Y-45517080D01*
X118621080Y-45517080D01*
X118843361Y-45472866D01*
X118843361Y-47873388D01*
X118816227Y-48009800D01*
X118923719Y-48550199D01*
X119040812Y-48725441D01*
X119229832Y-49008329D01*
X119345472Y-49085597D01*
X120324954Y-50065080D01*
X117931080Y-50065080D01*
X117683315Y-50114363D01*
X117473271Y-50254711D01*
X117332923Y-50464755D01*
X117283640Y-50712520D01*
X117283640Y-53112520D01*
X117332923Y-53360285D01*
X117473271Y-53570329D01*
X117683315Y-53710677D01*
X117931080Y-53759960D01*
X120331080Y-53759960D01*
X120578845Y-53710677D01*
X120788889Y-53570329D01*
X120929237Y-53360285D01*
X120978520Y-53112520D01*
X120978520Y-50718645D01*
X122296080Y-52036206D01*
X122296080Y-52277524D01*
X122575442Y-52951964D01*
X123091636Y-53468158D01*
X123766076Y-53747520D01*
X124496084Y-53747520D01*
X125170524Y-53468158D01*
X125686718Y-52951964D01*
X125966080Y-52277524D01*
X125966080Y-51547516D01*
X125686718Y-50873076D01*
X125170524Y-50356882D01*
X124496084Y-50077520D01*
X124254766Y-50077520D01*
X122894646Y-48717400D01*
X129365200Y-48717400D01*
X129365200Y-51917400D01*
X129414483Y-52165165D01*
X129554831Y-52375209D01*
X129764875Y-52515557D01*
X130012640Y-52564840D01*
X133212640Y-52564840D01*
X133460405Y-52515557D01*
X133670449Y-52375209D01*
X133810797Y-52165165D01*
X133860080Y-51917400D01*
X133860080Y-48717400D01*
X136583880Y-48717400D01*
X136583880Y-51917400D01*
X136633163Y-52165165D01*
X136773511Y-52375209D01*
X136983555Y-52515557D01*
X137231320Y-52564840D01*
X140431320Y-52564840D01*
X140679085Y-52515557D01*
X140889129Y-52375209D01*
X141029477Y-52165165D01*
X141078760Y-51917400D01*
X141078760Y-48717400D01*
X141029477Y-48469635D01*
X140889129Y-48259591D01*
X140679085Y-48119243D01*
X140431320Y-48069960D01*
X137231320Y-48069960D01*
X136983555Y-48119243D01*
X136773511Y-48259591D01*
X136633163Y-48469635D01*
X136583880Y-48717400D01*
X133860080Y-48717400D01*
X133810797Y-48469635D01*
X133670449Y-48259591D01*
X133460405Y-48119243D01*
X133212640Y-48069960D01*
X130012640Y-48069960D01*
X129764875Y-48119243D01*
X129554831Y-48259591D01*
X129414483Y-48469635D01*
X129365200Y-48717400D01*
X122894646Y-48717400D01*
X122560199Y-48382954D01*
X122560197Y-48382951D01*
X121613360Y-47436115D01*
X121613360Y-45437304D01*
X121658995Y-45467797D01*
X121906760Y-45517080D01*
X123426760Y-45517080D01*
X123674525Y-45467797D01*
X123884569Y-45327449D01*
X124024917Y-45117405D01*
X124074200Y-44869640D01*
X124074200Y-43824201D01*
X125219560Y-43824201D01*
X125219560Y-44395079D01*
X125438026Y-44922502D01*
X125841698Y-45326174D01*
X126369121Y-45544640D01*
X126939999Y-45544640D01*
X127467422Y-45326174D01*
X127871094Y-44922502D01*
X128089560Y-44395079D01*
X128089560Y-43824201D01*
X127871094Y-43296778D01*
X127467422Y-42893106D01*
X126939999Y-42674640D01*
X126369121Y-42674640D01*
X125841698Y-42893106D01*
X125438026Y-43296778D01*
X125219560Y-43824201D01*
X124074200Y-43824201D01*
X124074200Y-43349640D01*
X124024917Y-43101875D01*
X123884569Y-42891831D01*
X123674525Y-42751483D01*
X123493711Y-42715517D01*
X123849384Y-42359844D01*
X124061760Y-41847123D01*
X124061760Y-41292157D01*
X123849384Y-40779436D01*
X123456964Y-40387016D01*
X123254035Y-40302960D01*
X123280181Y-40285490D01*
X123456964Y-40212264D01*
X123592268Y-40076960D01*
X123665289Y-40028169D01*
X123714080Y-39955148D01*
X123849384Y-39819844D01*
X123859385Y-39795700D01*
X124408165Y-39246920D01*
X124523809Y-39169649D01*
X124829921Y-38711520D01*
X124910280Y-38307527D01*
X124937413Y-38171120D01*
X124910280Y-38034713D01*
X124910280Y-35077400D01*
X129333854Y-35077400D01*
X129507316Y-35949454D01*
X130001295Y-36688745D01*
X130740586Y-37182724D01*
X131392512Y-37312400D01*
X131832768Y-37312400D01*
X132484694Y-37182724D01*
X133223985Y-36688745D01*
X133717964Y-35949454D01*
X133891426Y-35077400D01*
X136552534Y-35077400D01*
X136725996Y-35949454D01*
X137219975Y-36688745D01*
X137959266Y-37182724D01*
X138611192Y-37312400D01*
X139051448Y-37312400D01*
X139703374Y-37182724D01*
X140442665Y-36688745D01*
X140936644Y-35949454D01*
X141110106Y-35077400D01*
X140936644Y-34205346D01*
X140442665Y-33466055D01*
X139703374Y-32972076D01*
X139051448Y-32842400D01*
X138611192Y-32842400D01*
X137959266Y-32972076D01*
X137219975Y-33466055D01*
X136725996Y-34205346D01*
X136552534Y-35077400D01*
X133891426Y-35077400D01*
X133717964Y-34205346D01*
X133223985Y-33466055D01*
X132484694Y-32972076D01*
X131832768Y-32842400D01*
X131392512Y-32842400D01*
X130740586Y-32972076D01*
X130001295Y-33466055D01*
X129507316Y-34205346D01*
X129333854Y-35077400D01*
X124910280Y-35077400D01*
X124910280Y-32516197D01*
X124937413Y-32379790D01*
X124829921Y-31839390D01*
X124601077Y-31496901D01*
X124601075Y-31496899D01*
X124542771Y-31409640D01*
X125191447Y-31409640D01*
X125302820Y-31969549D01*
X125619983Y-32444217D01*
X126094651Y-32761380D01*
X126513227Y-32844640D01*
X126795893Y-32844640D01*
X127214469Y-32761380D01*
X127689137Y-32444217D01*
X128006300Y-31969549D01*
X128117673Y-31409640D01*
X128006300Y-30849731D01*
X127689137Y-30375063D01*
X127214469Y-30057900D01*
X126795893Y-29974640D01*
X126513227Y-29974640D01*
X126094651Y-30057900D01*
X125619983Y-30375063D01*
X125302820Y-30849731D01*
X125191447Y-31409640D01*
X124542771Y-31409640D01*
X124523808Y-31381261D01*
X124408170Y-31303994D01*
X120407922Y-27303746D01*
X135573294Y-27303746D01*
X135580320Y-27729790D01*
X135580320Y-28155969D01*
X135587640Y-28173640D01*
X135587955Y-28192763D01*
X135899960Y-28946010D01*
X135909667Y-28951082D01*
X135920579Y-28977426D01*
X136549294Y-29606141D01*
X136575638Y-29617053D01*
X136580710Y-29626760D01*
X136977028Y-29783314D01*
X137370751Y-29946400D01*
X137389880Y-29946400D01*
X137407666Y-29953426D01*
X137833710Y-29946400D01*
X138259889Y-29946400D01*
X138277560Y-29939080D01*
X138296683Y-29938765D01*
X139049930Y-29626760D01*
X139055002Y-29617053D01*
X139081346Y-29606141D01*
X139710061Y-28977426D01*
X139720973Y-28951082D01*
X139730680Y-28946010D01*
X139887234Y-28549692D01*
X140050320Y-28155969D01*
X140050320Y-28136840D01*
X140057346Y-28119054D01*
X140050320Y-27693010D01*
X140050320Y-27266831D01*
X140043000Y-27249160D01*
X140042685Y-27230037D01*
X139730680Y-26476790D01*
X139720973Y-26471718D01*
X139710061Y-26445374D01*
X139081346Y-25816659D01*
X139055002Y-25805747D01*
X139049930Y-25796040D01*
X138653612Y-25639486D01*
X138259889Y-25476400D01*
X138240760Y-25476400D01*
X138222974Y-25469374D01*
X137796930Y-25476400D01*
X137370751Y-25476400D01*
X137353080Y-25483720D01*
X137333957Y-25484035D01*
X136580710Y-25796040D01*
X136575638Y-25805747D01*
X136549294Y-25816659D01*
X135920579Y-26445374D01*
X135909667Y-26471718D01*
X135899960Y-26476790D01*
X135743406Y-26873108D01*
X135580320Y-27266831D01*
X135580320Y-27285960D01*
X135573294Y-27303746D01*
X120407922Y-27303746D01*
X120278129Y-27173954D01*
X120200859Y-27058311D01*
X119742730Y-26752199D01*
X119338737Y-26671840D01*
X119202330Y-26644707D01*
X119065923Y-26671840D01*
X118026237Y-26671840D01*
X117950699Y-26558790D01*
X117492381Y-26252552D01*
X116951760Y-26145016D01*
X116411138Y-26252552D01*
X115952820Y-26558791D01*
X115681760Y-26964461D01*
X115410699Y-26558790D01*
X114952381Y-26252552D01*
X114411760Y-26145016D01*
X113871138Y-26252552D01*
X113412820Y-26558791D01*
X113141760Y-26964461D01*
X112870699Y-26558790D01*
X112412381Y-26252552D01*
X111871760Y-26145016D01*
X111331138Y-26252552D01*
X110872820Y-26558791D01*
X110566582Y-27017109D01*
X110486190Y-27421268D01*
X110486190Y-28692413D01*
X110486760Y-28695280D01*
X110486761Y-30670109D01*
X110459627Y-30806520D01*
X110567119Y-31346919D01*
X110667334Y-31496901D01*
X110873232Y-31805049D01*
X110988873Y-31882318D01*
X111121760Y-32015205D01*
X111121760Y-33308515D01*
X110722520Y-32909275D01*
X110645249Y-32793631D01*
X110187120Y-32487519D01*
X109783127Y-32407160D01*
X109646720Y-32380027D01*
X109510313Y-32407160D01*
X103594727Y-32407160D01*
X103458320Y-32380027D01*
X103321913Y-32407160D01*
X102917920Y-32487519D01*
X102459791Y-32793631D01*
X102382522Y-32909272D01*
X100034755Y-35257040D01*
X99681717Y-35257040D01*
X99566249Y-35084231D01*
X99356205Y-34943883D01*
X99108440Y-34894600D01*
X96908440Y-34894600D01*
X96660675Y-34943883D01*
X96450631Y-35084231D01*
X96310283Y-35294275D01*
X96261000Y-35542040D01*
X89200110Y-35542040D01*
X89099305Y-35391175D01*
X88525403Y-35007706D01*
X88019320Y-34907040D01*
X87677560Y-34907040D01*
X87171477Y-35007706D01*
X86597575Y-35391175D01*
X86214106Y-35965077D01*
X86079450Y-36642040D01*
X51216560Y-36642040D01*
X51216560Y-35801661D01*
X50810534Y-34821426D01*
X50106388Y-34117280D01*
X52818894Y-34117280D01*
X52992356Y-34989334D01*
X53486335Y-35728625D01*
X54225626Y-36222604D01*
X54877552Y-36352280D01*
X55317808Y-36352280D01*
X55969734Y-36222604D01*
X56709025Y-35728625D01*
X57203004Y-34989334D01*
X57376466Y-34117280D01*
X57203004Y-33245226D01*
X56716606Y-32517280D01*
X68090240Y-32517280D01*
X68090240Y-35717280D01*
X68139523Y-35965045D01*
X68279871Y-36175089D01*
X68489915Y-36315437D01*
X68737680Y-36364720D01*
X71937680Y-36364720D01*
X72185445Y-36315437D01*
X72395489Y-36175089D01*
X72535837Y-35965045D01*
X72585120Y-35717280D01*
X72585120Y-33220156D01*
X77768600Y-33220156D01*
X77768600Y-33950164D01*
X78047962Y-34624604D01*
X78564156Y-35140798D01*
X79238596Y-35420160D01*
X79968604Y-35420160D01*
X80643044Y-35140798D01*
X81159238Y-34624604D01*
X81438600Y-33950164D01*
X81438600Y-33220156D01*
X81159238Y-32545716D01*
X80643044Y-32029522D01*
X79968604Y-31750160D01*
X79238596Y-31750160D01*
X78564156Y-32029522D01*
X78047962Y-32545716D01*
X77768600Y-33220156D01*
X72585120Y-33220156D01*
X72585120Y-32517280D01*
X72535837Y-32269515D01*
X72395489Y-32059471D01*
X72185445Y-31919123D01*
X71937680Y-31869840D01*
X68737680Y-31869840D01*
X68489915Y-31919123D01*
X68279871Y-32059471D01*
X68139523Y-32269515D01*
X68090240Y-32517280D01*
X56716606Y-32517280D01*
X56709025Y-32505935D01*
X55969734Y-32011956D01*
X55317808Y-31882280D01*
X54877552Y-31882280D01*
X54225626Y-32011956D01*
X53486335Y-32505935D01*
X52992356Y-33245226D01*
X52818894Y-34117280D01*
X50106388Y-34117280D01*
X50060294Y-34071186D01*
X49080059Y-33665160D01*
X48019061Y-33665160D01*
X47038826Y-34071186D01*
X46288586Y-34821426D01*
X45882560Y-35801661D01*
X45338200Y-35801661D01*
X45338200Y-27318986D01*
X46470094Y-27318986D01*
X46477120Y-27745030D01*
X46477120Y-28171209D01*
X46484440Y-28188880D01*
X46484755Y-28208003D01*
X46796760Y-28961250D01*
X46806467Y-28966322D01*
X46817379Y-28992666D01*
X47446094Y-29621381D01*
X47472438Y-29632293D01*
X47477510Y-29642000D01*
X47873828Y-29798554D01*
X48267551Y-29961640D01*
X48286680Y-29961640D01*
X48304466Y-29968666D01*
X48730510Y-29961640D01*
X49156689Y-29961640D01*
X49174360Y-29954320D01*
X49193483Y-29954005D01*
X49946730Y-29642000D01*
X49951802Y-29632293D01*
X49978146Y-29621381D01*
X50606861Y-28992666D01*
X50617773Y-28966322D01*
X50627480Y-28961250D01*
X50784034Y-28564932D01*
X50947120Y-28171209D01*
X50947120Y-28152080D01*
X50954146Y-28134294D01*
X50947120Y-27708250D01*
X50947120Y-27584400D01*
X52818894Y-27584400D01*
X52992356Y-28456454D01*
X53486335Y-29195745D01*
X54225626Y-29689724D01*
X54877552Y-29819400D01*
X55317808Y-29819400D01*
X55969734Y-29689724D01*
X56709025Y-29195745D01*
X57203004Y-28456454D01*
X57376466Y-27584400D01*
X57203004Y-26712346D01*
X56716606Y-25984400D01*
X68090240Y-25984400D01*
X68090240Y-29184400D01*
X68139523Y-29432165D01*
X68279871Y-29642209D01*
X68489915Y-29782557D01*
X68737680Y-29831840D01*
X71937680Y-29831840D01*
X72185445Y-29782557D01*
X72395489Y-29642209D01*
X72535837Y-29432165D01*
X72585120Y-29184400D01*
X72585120Y-27385160D01*
X77756160Y-27385160D01*
X77756160Y-29785160D01*
X77805443Y-30032925D01*
X77945791Y-30242969D01*
X78155835Y-30383317D01*
X78403600Y-30432600D01*
X80803600Y-30432600D01*
X81051365Y-30383317D01*
X81261409Y-30242969D01*
X81401757Y-30032925D01*
X81451040Y-29785160D01*
X81451040Y-27421268D01*
X99152710Y-27421268D01*
X99152710Y-28692413D01*
X99233102Y-29096572D01*
X99539341Y-29554890D01*
X99997659Y-29861128D01*
X100538280Y-29968664D01*
X101078902Y-29861128D01*
X101537220Y-29554890D01*
X101808280Y-29149220D01*
X102079341Y-29554890D01*
X102537659Y-29861128D01*
X103078280Y-29968664D01*
X103618902Y-29861128D01*
X104077220Y-29554890D01*
X104348280Y-29149220D01*
X104619341Y-29554890D01*
X105077659Y-29861128D01*
X105618280Y-29968664D01*
X106158902Y-29861128D01*
X106617220Y-29554890D01*
X106923458Y-29096572D01*
X107003850Y-28692413D01*
X107003850Y-27421267D01*
X106923458Y-27017108D01*
X106617219Y-26558790D01*
X106158901Y-26252552D01*
X105618280Y-26145016D01*
X105077658Y-26252552D01*
X104619340Y-26558791D01*
X104348280Y-26964461D01*
X104077219Y-26558790D01*
X103618901Y-26252552D01*
X103078280Y-26145016D01*
X102537658Y-26252552D01*
X102079340Y-26558791D01*
X101808280Y-26964461D01*
X101537219Y-26558790D01*
X101078901Y-26252552D01*
X100538280Y-26145016D01*
X99997658Y-26252552D01*
X99539340Y-26558791D01*
X99233102Y-27017109D01*
X99152710Y-27421268D01*
X81451040Y-27421268D01*
X81451040Y-27385160D01*
X81401757Y-27137395D01*
X81261409Y-26927351D01*
X81051365Y-26787003D01*
X80803600Y-26737720D01*
X78403600Y-26737720D01*
X78155835Y-26787003D01*
X77945791Y-26927351D01*
X77805443Y-27137395D01*
X77756160Y-27385160D01*
X72585120Y-27385160D01*
X72585120Y-25984400D01*
X72535837Y-25736635D01*
X72395489Y-25526591D01*
X72185445Y-25386243D01*
X71937680Y-25336960D01*
X68737680Y-25336960D01*
X68489915Y-25386243D01*
X68279871Y-25526591D01*
X68139523Y-25736635D01*
X68090240Y-25984400D01*
X56716606Y-25984400D01*
X56709025Y-25973055D01*
X55969734Y-25479076D01*
X55317808Y-25349400D01*
X54877552Y-25349400D01*
X54225626Y-25479076D01*
X53486335Y-25973055D01*
X52992356Y-26712346D01*
X52818894Y-27584400D01*
X50947120Y-27584400D01*
X50947120Y-27282071D01*
X50939800Y-27264400D01*
X50939485Y-27245277D01*
X50627480Y-26492030D01*
X50617773Y-26486958D01*
X50606861Y-26460614D01*
X49978146Y-25831899D01*
X49951802Y-25820987D01*
X49946730Y-25811280D01*
X49550412Y-25654726D01*
X49156689Y-25491640D01*
X49137560Y-25491640D01*
X49119774Y-25484614D01*
X48693730Y-25491640D01*
X48267551Y-25491640D01*
X48249880Y-25498960D01*
X48230757Y-25499275D01*
X47477510Y-25811280D01*
X47472438Y-25820987D01*
X47446094Y-25831899D01*
X46817379Y-26460614D01*
X46806467Y-26486958D01*
X46796760Y-26492030D01*
X46640206Y-26888348D01*
X46477120Y-27282071D01*
X46477120Y-27301200D01*
X46470094Y-27318986D01*
X45338200Y-27318986D01*
X45338200Y-23743120D01*
X141534680Y-23743120D01*
X141534680Y-48502714D01*
G36*
X101636308Y-81556725D02*
X101620635Y-81559843D01*
X101534520Y-81617384D01*
X101534520Y-81454937D01*
X101636308Y-81556725D01*
X101636308Y-81556725D01*
G37*
X101636308Y-81556725D02*
X101620635Y-81559843D01*
X101534520Y-81617384D01*
X101534520Y-81454937D01*
X101636308Y-81556725D01*
G36*
X96565260Y-69932389D02*
X96882423Y-70407057D01*
X97234758Y-70642480D01*
X96882423Y-70877903D01*
X96565260Y-71352571D01*
X96500240Y-71679448D01*
X96500240Y-69605512D01*
X96565260Y-69932389D01*
X96565260Y-69932389D01*
G37*
X96565260Y-69932389D02*
X96882423Y-70407057D01*
X97234758Y-70642480D01*
X96882423Y-70877903D01*
X96565260Y-71352571D01*
X96500240Y-71679448D01*
X96500240Y-69605512D01*
X96565260Y-69932389D01*
G36*
X96565260Y-67392389D02*
X96882423Y-67867057D01*
X97234758Y-68102480D01*
X96882423Y-68337903D01*
X96565260Y-68812571D01*
X96500240Y-69139448D01*
X96500240Y-67065512D01*
X96565260Y-67392389D01*
X96565260Y-67392389D01*
G37*
X96565260Y-67392389D02*
X96882423Y-67867057D01*
X97234758Y-68102480D01*
X96882423Y-68337903D01*
X96565260Y-68812571D01*
X96500240Y-69139448D01*
X96500240Y-67065512D01*
X96565260Y-67392389D01*
G36*
X96453887Y-64292480D02*
X96565260Y-64852389D01*
X96882423Y-65327057D01*
X97234758Y-65562480D01*
X96882423Y-65797903D01*
X96565260Y-66272571D01*
X96500240Y-66599448D01*
X96500240Y-65536790D01*
X96524434Y-65415159D01*
X96500240Y-65293528D01*
X96500240Y-65293524D01*
X96428584Y-64933287D01*
X96155625Y-64524775D01*
X96052509Y-64455875D01*
X95995180Y-64398546D01*
X96541449Y-63852276D01*
X96453887Y-64292480D01*
X96453887Y-64292480D01*
G37*
X96453887Y-64292480D02*
X96565260Y-64852389D01*
X96882423Y-65327057D01*
X97234758Y-65562480D01*
X96882423Y-65797903D01*
X96565260Y-66272571D01*
X96500240Y-66599448D01*
X96500240Y-65536790D01*
X96524434Y-65415159D01*
X96500240Y-65293528D01*
X96500240Y-65293524D01*
X96428584Y-64933287D01*
X96155625Y-64524775D01*
X96052509Y-64455875D01*
X95995180Y-64398546D01*
X96541449Y-63852276D01*
X96453887Y-64292480D01*
G36*
X89338623Y-55521063D02*
X89035320Y-55974988D01*
X89035320Y-55400640D01*
X89518849Y-55400640D01*
X89338623Y-55521063D01*
X89338623Y-55521063D01*
G37*
X89338623Y-55521063D02*
X89035320Y-55974988D01*
X89035320Y-55400640D01*
X89518849Y-55400640D01*
X89338623Y-55521063D01*
G36*
X121839809Y-42715517D02*
X121658995Y-42751483D01*
X121613360Y-42781976D01*
X121613360Y-42489068D01*
X121839809Y-42715517D01*
X121839809Y-42715517D01*
G37*
X121839809Y-42715517D02*
X121658995Y-42751483D01*
X121613360Y-42781976D01*
X121613360Y-42489068D01*
X121839809Y-42715517D01*
G36*
X118843360Y-42746414D02*
X118688031Y-42715517D01*
X118843360Y-42560188D01*
X118843360Y-42746414D01*
X118843360Y-42746414D01*
G37*
X118843360Y-42746414D02*
X118688031Y-42715517D01*
X118843360Y-42560188D01*
X118843360Y-42746414D01*
G36*
X117034129Y-42715517D02*
X116988265Y-42724640D01*
X116706080Y-42724640D01*
X116706080Y-42387468D01*
X117034129Y-42715517D01*
X117034129Y-42715517D01*
G37*
X117034129Y-42715517D02*
X116988265Y-42724640D01*
X116706080Y-42724640D01*
X116706080Y-42387468D01*
X117034129Y-42715517D01*
G36*
X117070876Y-40212264D02*
X117281820Y-40299640D01*
X117070876Y-40387016D01*
X116706080Y-40751812D01*
X116706080Y-39892487D01*
X116713549Y-39854937D01*
X117070876Y-40212264D01*
X117070876Y-40212264D01*
G37*
X117070876Y-40212264D02*
X117281820Y-40299640D01*
X117070876Y-40387016D01*
X116706080Y-40751812D01*
X116706080Y-39892487D01*
X116713549Y-39854937D01*
X117070876Y-40212264D01*
G36*
X113936080Y-40329766D02*
X113936080Y-40669879D01*
X113907097Y-40626503D01*
X113574180Y-40404055D01*
X111768320Y-38598195D01*
X111768320Y-38162005D01*
X113936080Y-40329766D01*
X113936080Y-40329766D01*
G37*
X113936080Y-40329766D02*
X113936080Y-40669879D01*
X113907097Y-40626503D01*
X113574180Y-40404055D01*
X111768320Y-38598195D01*
X111768320Y-38162005D01*
X113936080Y-40329766D01*
G36*
X118816227Y-40393238D02*
X118843360Y-40529645D01*
X118843360Y-40579092D01*
X118651284Y-40387016D01*
X118440340Y-40299640D01*
X118651284Y-40212264D01*
X118902119Y-39961429D01*
X118816227Y-40393238D01*
X118816227Y-40393238D01*
G37*
X118816227Y-40393238D02*
X118843360Y-40529645D01*
X118843360Y-40579092D01*
X118651284Y-40387016D01*
X118440340Y-40299640D01*
X118651284Y-40212264D01*
X118902119Y-39961429D01*
X118816227Y-40393238D01*
G36*
X115515282Y-36742608D02*
X115592551Y-36858249D01*
X115721798Y-36944609D01*
X116050680Y-37164361D01*
X116591080Y-37271853D01*
X116727487Y-37244720D01*
X119172449Y-37244720D01*
X119181430Y-37250721D01*
X119585423Y-37331080D01*
X119585427Y-37331080D01*
X119721829Y-37358212D01*
X119858231Y-37331080D01*
X120460500Y-37331080D01*
X120711867Y-37381080D01*
X120994533Y-37381080D01*
X121413109Y-37297820D01*
X121887777Y-36980657D01*
X122140281Y-36602758D01*
X122140281Y-37597434D01*
X122093075Y-37644640D01*
X121728365Y-37644640D01*
X121591958Y-37617507D01*
X121455551Y-37644640D01*
X121051558Y-37724999D01*
X120593429Y-38031111D01*
X120516160Y-38146752D01*
X119345472Y-39317441D01*
X119229831Y-39394710D01*
X119203440Y-39434206D01*
X119256080Y-39307123D01*
X119256080Y-38752157D01*
X119043704Y-38239436D01*
X118651284Y-37847016D01*
X118138563Y-37634640D01*
X117583597Y-37634640D01*
X117070876Y-37847016D01*
X116678456Y-38239436D01*
X116466080Y-38752157D01*
X116466080Y-38976761D01*
X116396877Y-38873191D01*
X116396875Y-38873189D01*
X116319608Y-38757551D01*
X116203970Y-38680284D01*
X113891760Y-36368075D01*
X113891760Y-35119085D01*
X115515282Y-36742608D01*
X115515282Y-36742608D01*
G37*
X115515282Y-36742608D02*
X115592551Y-36858249D01*
X115721798Y-36944609D01*
X116050680Y-37164361D01*
X116591080Y-37271853D01*
X116727487Y-37244720D01*
X119172449Y-37244720D01*
X119181430Y-37250721D01*
X119585423Y-37331080D01*
X119585427Y-37331080D01*
X119721829Y-37358212D01*
X119858231Y-37331080D01*
X120460500Y-37331080D01*
X120711867Y-37381080D01*
X120994533Y-37381080D01*
X121413109Y-37297820D01*
X121887777Y-36980657D01*
X122140281Y-36602758D01*
X122140281Y-37597434D01*
X122093075Y-37644640D01*
X121728365Y-37644640D01*
X121591958Y-37617507D01*
X121455551Y-37644640D01*
X121051558Y-37724999D01*
X120593429Y-38031111D01*
X120516160Y-38146752D01*
X119345472Y-39317441D01*
X119229831Y-39394710D01*
X119203440Y-39434206D01*
X119256080Y-39307123D01*
X119256080Y-38752157D01*
X119043704Y-38239436D01*
X118651284Y-37847016D01*
X118138563Y-37634640D01*
X117583597Y-37634640D01*
X117070876Y-37847016D01*
X116678456Y-38239436D01*
X116466080Y-38752157D01*
X116466080Y-38976761D01*
X116396877Y-38873191D01*
X116396875Y-38873189D01*
X116319608Y-38757551D01*
X116203970Y-38680284D01*
X113891760Y-36368075D01*
X113891760Y-35119085D01*
X115515282Y-36742608D01*
G36*
X115952821Y-29554890D02*
X116411139Y-29861128D01*
X116951760Y-29968664D01*
X117492382Y-29861128D01*
X117950700Y-29554890D01*
X118026238Y-29441840D01*
X118628645Y-29441840D01*
X122140280Y-32953476D01*
X122140281Y-35289401D01*
X121887777Y-34911503D01*
X121413109Y-34594340D01*
X120994533Y-34511080D01*
X120711867Y-34511080D01*
X120460500Y-34561080D01*
X120184851Y-34561080D01*
X120175870Y-34555079D01*
X119771877Y-34474720D01*
X119635470Y-34447587D01*
X119499063Y-34474720D01*
X117164766Y-34474720D01*
X115796760Y-33106715D01*
X115796760Y-29321329D01*
X115952821Y-29554890D01*
X115952821Y-29554890D01*
G37*
X115952821Y-29554890D02*
X116411139Y-29861128D01*
X116951760Y-29968664D01*
X117492382Y-29861128D01*
X117950700Y-29554890D01*
X118026238Y-29441840D01*
X118628645Y-29441840D01*
X122140280Y-32953476D01*
X122140281Y-35289401D01*
X121887777Y-34911503D01*
X121413109Y-34594340D01*
X120994533Y-34511080D01*
X120711867Y-34511080D01*
X120460500Y-34561080D01*
X120184851Y-34561080D01*
X120175870Y-34555079D01*
X119771877Y-34474720D01*
X119635470Y-34447587D01*
X119499063Y-34474720D01*
X117164766Y-34474720D01*
X115796760Y-33106715D01*
X115796760Y-29321329D01*
X115952821Y-29554890D01*
M02*
