%TF.GenerationSoftware,KiCad,Pcbnew,(5.0.2)-1*%
%TF.CreationDate,2019-02-13T13:24:31+09:00*%
%TF.ProjectId,ATTiny85-mppt,41545469-6e79-4383-952d-6d7070742e6b,1.9*%
%TF.SameCoordinates,Original*%
%TF.FileFunction,Copper,L1,Top*%
%TF.FilePolarity,Positive*%
%FSLAX46Y46*%
G04 Gerber Fmt 4.6, Leading zero omitted, Abs format (unit mm)*
G04 Created by KiCad (PCBNEW (5.0.2)-1) date 2019-02-13 오후 1:24:31*
%MOMM*%
%LPD*%
G01*
G04 APERTURE LIST*
%ADD10R,2.200000X2.200000*%
%ADD11O,2.200000X2.200000*%
%ADD12C,1.600000*%
%ADD13O,1.600000X1.600000*%
%ADD14R,2.400000X2.400000*%
%ADD15C,2.400000*%
%ADD16C,2.000000*%
%ADD17O,3.200000X3.200000*%
%ADD18R,3.200000X3.200000*%
%ADD19C,1.800000*%
%ADD20R,1.800000X1.800000*%
%ADD21C,4.064000*%
%ADD22C,3.600000*%
%ADD23O,1.501140X2.499360*%
%ADD24R,1.520000X1.520000*%
%ADD25C,1.520000*%
%ADD26O,1.800000X1.800000*%
%ADD27R,1.600000X1.600000*%
%ADD28C,3.000000*%
%ADD29C,3.500000*%
%ADD30C,1.500000*%
%ADD31C,1.200000*%
%ADD32C,0.254000*%
G04 APERTURE END LIST*
D10*
X119039640Y-31496000D03*
D11*
X124119640Y-31496000D03*
D12*
X53035200Y-56784240D03*
D13*
X53035200Y-69484240D03*
D12*
X121859040Y-35473640D03*
D13*
X119319040Y-35473640D03*
D11*
X87848440Y-36642040D03*
D10*
X98008440Y-36642040D03*
D14*
X96611440Y-98790760D03*
D15*
X96611440Y-103790760D03*
X124131080Y-51912520D03*
D14*
X119131080Y-51912520D03*
X75839320Y-44729400D03*
D15*
X75839320Y-49729400D03*
D16*
X97873200Y-42291000D03*
X90373200Y-42291000D03*
D15*
X74583280Y-66725800D03*
D14*
X79583280Y-66725800D03*
D15*
X79603600Y-33585160D03*
D14*
X79603600Y-28585160D03*
D17*
X131612640Y-35077400D03*
D18*
X131612640Y-50317400D03*
X107579160Y-106131360D03*
D17*
X122819160Y-106131360D03*
D19*
X66812160Y-98734880D03*
D20*
X66812160Y-101274880D03*
D10*
X58252360Y-49809400D03*
D11*
X58252360Y-39649400D03*
D18*
X70337680Y-27584400D03*
D17*
X55097680Y-27584400D03*
X55097680Y-34117280D03*
D18*
X70337680Y-34117280D03*
D20*
X103692960Y-83626960D03*
D19*
X103692960Y-81086960D03*
X103713280Y-86918800D03*
D20*
X103713280Y-89458800D03*
D17*
X138831320Y-35077400D03*
D18*
X138831320Y-50317400D03*
X107579160Y-99674680D03*
D17*
X122819160Y-99674680D03*
D21*
X48539400Y-40101520D03*
X48508920Y-76621640D03*
X137154920Y-98333560D03*
X128366520Y-108788200D03*
D22*
X125105160Y-73385680D03*
X125105160Y-60685680D03*
X125105160Y-79314040D03*
X125105160Y-92014040D03*
D23*
X81955640Y-105196640D03*
X84495640Y-105196640D03*
X79415640Y-105196640D03*
X114127280Y-29448760D03*
X109047280Y-29448760D03*
X111587280Y-29448760D03*
D24*
X117043200Y-39024560D03*
D25*
X117043200Y-44104560D03*
X117043200Y-41564560D03*
X121859040Y-41564560D03*
X121859040Y-44104560D03*
D24*
X121859040Y-39024560D03*
D12*
X71531480Y-93888560D03*
D13*
X71531480Y-81188560D03*
X78673960Y-81254600D03*
D12*
X78673960Y-93954600D03*
X90297000Y-91897200D03*
D13*
X90297000Y-79197200D03*
X95138240Y-91881960D03*
D12*
X95138240Y-79181960D03*
D13*
X53075840Y-52339240D03*
D12*
X53075840Y-39639240D03*
X66812160Y-93888560D03*
D13*
X66812160Y-81188560D03*
D12*
X58226960Y-56708040D03*
D13*
X70926960Y-56708040D03*
X107909360Y-41589960D03*
D12*
X107909360Y-54289960D03*
X83520280Y-93954600D03*
D13*
X83520280Y-81254600D03*
X103687880Y-77022960D03*
D12*
X103687880Y-64322960D03*
D13*
X84231480Y-76895960D03*
D12*
X71531480Y-76895960D03*
X84891880Y-56758840D03*
D13*
X84891880Y-44058840D03*
D16*
X55793640Y-97314880D03*
X60293640Y-97314880D03*
X55793640Y-103814880D03*
X60293640Y-103814880D03*
D26*
X66868040Y-44739560D03*
X66868040Y-47279560D03*
D20*
X66868040Y-49819560D03*
D13*
X97917000Y-64292480D03*
X90297000Y-71912480D03*
X97917000Y-66832480D03*
X90297000Y-69372480D03*
X97917000Y-69372480D03*
X90297000Y-66832480D03*
X97917000Y-71912480D03*
D27*
X90297000Y-64292480D03*
X90352880Y-49245520D03*
D13*
X97972880Y-56865520D03*
X90352880Y-51785520D03*
X97972880Y-54325520D03*
X90352880Y-54325520D03*
X97972880Y-51785520D03*
X90352880Y-56865520D03*
X97972880Y-49245520D03*
D24*
X103799640Y-44109640D03*
D25*
X103799640Y-39029640D03*
X103799640Y-41569640D03*
D13*
X112537240Y-41610280D03*
D12*
X112537240Y-54310280D03*
D15*
X57906920Y-86198720D03*
D14*
X57906920Y-81198720D03*
D25*
X58166000Y-63246000D03*
X58166000Y-65786000D03*
D24*
X58166000Y-60706000D03*
X63891160Y-65770760D03*
D25*
X63891160Y-60690760D03*
X63891160Y-63230760D03*
D13*
X107950000Y-57439560D03*
D12*
X107950000Y-70139560D03*
D28*
X96611440Y-98790760D02*
X100811440Y-98790760D01*
D29*
X125105160Y-92014040D02*
X122438160Y-94681040D01*
X122438160Y-94681040D02*
X104921160Y-94681040D01*
X104921160Y-94681040D02*
X100811440Y-98790760D01*
D30*
X99104250Y-56865520D02*
X100817680Y-58578950D01*
X97972880Y-56865520D02*
X99104250Y-56865520D01*
X100817680Y-58578950D02*
X100817680Y-66446400D01*
X103687880Y-69316600D02*
X103687880Y-77022960D01*
X100817680Y-66446400D02*
X103687880Y-69316600D01*
X71531480Y-76895960D02*
X80192880Y-76895960D01*
X80192880Y-76895960D02*
X86791800Y-70297040D01*
X86791800Y-70297040D02*
X86791800Y-67462400D01*
X87421720Y-66832480D02*
X90297000Y-66832480D01*
X86791800Y-67462400D02*
X87421720Y-66832480D01*
D31*
X97917000Y-71912480D02*
X97917000Y-80614520D01*
X97917000Y-80614520D02*
X95615760Y-82915760D01*
X85181440Y-82915760D02*
X83520280Y-81254600D01*
X95615760Y-82915760D02*
X85181440Y-82915760D01*
X97917000Y-69372480D02*
X99801680Y-69372480D01*
X99801680Y-69372480D02*
X100284280Y-69855080D01*
X100284280Y-69855080D02*
X100284280Y-82163920D01*
X95138240Y-87309960D02*
X95138240Y-91881960D01*
X100284280Y-82163920D02*
X95138240Y-87309960D01*
D30*
X66812160Y-80057190D02*
X66827400Y-80041950D01*
X66812160Y-81188560D02*
X66812160Y-80057190D01*
X66827400Y-80041950D02*
X66827400Y-76799440D01*
X66827400Y-76799440D02*
X70424040Y-73202800D01*
X70424040Y-73202800D02*
X79725520Y-73202800D01*
X79725520Y-73202800D02*
X83809840Y-69118480D01*
X83809840Y-69118480D02*
X83809840Y-64114680D01*
X83809840Y-64114680D02*
X87401400Y-60523120D01*
X87401400Y-60523120D02*
X91912440Y-60523120D01*
X91912440Y-60523120D02*
X94447360Y-57988200D01*
X94447360Y-57988200D02*
X94447360Y-52491640D01*
X93741240Y-51785520D02*
X90352880Y-51785520D01*
X94447360Y-52491640D02*
X93741240Y-51785520D01*
X85362850Y-76895960D02*
X86439810Y-75819000D01*
X84231480Y-76895960D02*
X85362850Y-76895960D01*
X86439810Y-75819000D02*
X92242640Y-75819000D01*
X92242640Y-75819000D02*
X94142560Y-73919080D01*
X94142560Y-65838040D02*
X94142560Y-73919080D01*
X92597000Y-64292480D02*
X94142560Y-65838040D01*
X90297000Y-64292480D02*
X92597000Y-64292480D01*
X60293640Y-95900667D02*
X63779400Y-92414907D01*
X60293640Y-97314880D02*
X60293640Y-95900667D01*
X63779400Y-92414907D02*
X63779400Y-75981560D01*
X63779400Y-75981560D02*
X70149720Y-69611240D01*
X70149720Y-69611240D02*
X70149720Y-62763400D01*
X70149720Y-62763400D02*
X72984360Y-59928760D01*
X81721960Y-59928760D02*
X84891880Y-56758840D01*
X72984360Y-59928760D02*
X81721960Y-59928760D01*
D31*
X107355640Y-35473640D02*
X119319040Y-35473640D01*
X103799640Y-39029640D02*
X107355640Y-35473640D01*
D30*
X108056680Y-54325520D02*
X108071920Y-54310280D01*
X98008440Y-54289960D02*
X97972880Y-54325520D01*
X107909360Y-54289960D02*
X98008440Y-54289960D01*
D31*
X89221510Y-54325520D02*
X89211350Y-54335680D01*
X90352880Y-54325520D02*
X89221510Y-54325520D01*
X89211350Y-54335680D02*
X86989920Y-54335680D01*
X86989920Y-54335680D02*
X86024720Y-53370480D01*
X86024720Y-53370480D02*
X83357720Y-53370480D01*
X80020160Y-56708040D02*
X70926960Y-56708040D01*
X83357720Y-53370480D02*
X80020160Y-56708040D01*
D32*
G36*
X141534680Y-48502714D02*
X141407131Y-112700133D01*
X79338186Y-112863438D01*
X45338200Y-112833354D01*
X45338200Y-111070825D01*
X45345041Y-110850201D01*
X45338200Y-110809206D01*
X45338200Y-108350066D01*
X46470094Y-108350066D01*
X46477120Y-108776110D01*
X46477120Y-109202289D01*
X46484440Y-109219960D01*
X46484755Y-109239083D01*
X46796760Y-109992330D01*
X46806467Y-109997402D01*
X46817379Y-110023746D01*
X47446094Y-110652461D01*
X47472438Y-110663373D01*
X47477510Y-110673080D01*
X47873828Y-110829634D01*
X48267551Y-110992720D01*
X48286680Y-110992720D01*
X48304466Y-110999746D01*
X48730510Y-110992720D01*
X49156689Y-110992720D01*
X49174360Y-110985400D01*
X49193483Y-110985085D01*
X49946730Y-110673080D01*
X49951802Y-110663373D01*
X49978146Y-110652461D01*
X50606861Y-110023746D01*
X50617773Y-109997402D01*
X50627480Y-109992330D01*
X50784034Y-109596012D01*
X50947120Y-109202289D01*
X50947120Y-109183160D01*
X50954146Y-109165374D01*
X50947120Y-108739330D01*
X50947120Y-108313151D01*
X50939800Y-108295480D01*
X50939485Y-108276357D01*
X50627480Y-107523110D01*
X50617773Y-107518038D01*
X50606861Y-107491694D01*
X49978146Y-106862979D01*
X49951802Y-106852067D01*
X49946730Y-106842360D01*
X49550412Y-106685806D01*
X49156689Y-106522720D01*
X49137560Y-106522720D01*
X49119774Y-106515694D01*
X48693730Y-106522720D01*
X48267551Y-106522720D01*
X48249880Y-106530040D01*
X48230757Y-106530355D01*
X47477510Y-106842360D01*
X47472438Y-106852067D01*
X47446094Y-106862979D01*
X46817379Y-107491694D01*
X46806467Y-107518038D01*
X46796760Y-107523110D01*
X46640206Y-107919428D01*
X46477120Y-108313151D01*
X46477120Y-108332280D01*
X46470094Y-108350066D01*
X45338200Y-108350066D01*
X45338200Y-103489658D01*
X54158640Y-103489658D01*
X54158640Y-104140102D01*
X54407554Y-104741033D01*
X54867487Y-105200966D01*
X55468418Y-105449880D01*
X56118862Y-105449880D01*
X56719793Y-105200966D01*
X57179726Y-104741033D01*
X57428640Y-104140102D01*
X57428640Y-103489658D01*
X58658640Y-103489658D01*
X58658640Y-104140102D01*
X58907554Y-104741033D01*
X59367487Y-105200966D01*
X59968418Y-105449880D01*
X60618862Y-105449880D01*
X61219793Y-105200966D01*
X61679726Y-104741033D01*
X61754270Y-104561067D01*
X78030070Y-104561067D01*
X78030070Y-105832212D01*
X78110462Y-106236371D01*
X78416700Y-106694689D01*
X78875018Y-107000928D01*
X79415640Y-107108464D01*
X79956261Y-107000928D01*
X80414579Y-106694690D01*
X80685640Y-106289019D01*
X80956700Y-106694689D01*
X81415018Y-107000928D01*
X81955640Y-107108464D01*
X82496261Y-107000928D01*
X82954579Y-106694690D01*
X83225640Y-106289019D01*
X83496700Y-106694689D01*
X83955018Y-107000928D01*
X84495640Y-107108464D01*
X85036261Y-107000928D01*
X85494579Y-106694690D01*
X85800818Y-106236372D01*
X85881210Y-105832213D01*
X85881210Y-104561067D01*
X85800818Y-104156908D01*
X85494580Y-103698590D01*
X85086255Y-103425756D01*
X94776440Y-103425756D01*
X94776440Y-104155764D01*
X95055802Y-104830204D01*
X95571996Y-105346398D01*
X96246436Y-105625760D01*
X96976444Y-105625760D01*
X97650884Y-105346398D01*
X98167078Y-104830204D01*
X98290863Y-104531360D01*
X105331720Y-104531360D01*
X105331720Y-107731360D01*
X105381003Y-107979125D01*
X105521351Y-108189169D01*
X105731395Y-108329517D01*
X105979160Y-108378800D01*
X109179160Y-108378800D01*
X109426925Y-108329517D01*
X109636969Y-108189169D01*
X109777317Y-107979125D01*
X109826600Y-107731360D01*
X109826600Y-106131360D01*
X120540374Y-106131360D01*
X120713836Y-107003414D01*
X121207815Y-107742705D01*
X121947106Y-108236684D01*
X122599032Y-108366360D01*
X123039288Y-108366360D01*
X123585554Y-108257701D01*
X125699520Y-108257701D01*
X125699520Y-109318699D01*
X126105546Y-110298934D01*
X126855786Y-111049174D01*
X127836021Y-111455200D01*
X128897019Y-111455200D01*
X129877254Y-111049174D01*
X130627494Y-110298934D01*
X131033520Y-109318699D01*
X131033520Y-108522786D01*
X135492014Y-108522786D01*
X135499040Y-108948830D01*
X135499040Y-109375009D01*
X135506360Y-109392680D01*
X135506675Y-109411803D01*
X135818680Y-110165050D01*
X135828387Y-110170122D01*
X135839299Y-110196466D01*
X136468014Y-110825181D01*
X136494358Y-110836093D01*
X136499430Y-110845800D01*
X136895748Y-111002354D01*
X137289471Y-111165440D01*
X137308600Y-111165440D01*
X137326386Y-111172466D01*
X137752430Y-111165440D01*
X138178609Y-111165440D01*
X138196280Y-111158120D01*
X138215403Y-111157805D01*
X138968650Y-110845800D01*
X138973722Y-110836093D01*
X139000066Y-110825181D01*
X139628781Y-110196466D01*
X139639693Y-110170122D01*
X139649400Y-110165050D01*
X139805954Y-109768732D01*
X139969040Y-109375009D01*
X139969040Y-109355880D01*
X139976066Y-109338094D01*
X139969040Y-108912050D01*
X139969040Y-108485871D01*
X139961720Y-108468200D01*
X139961405Y-108449077D01*
X139649400Y-107695830D01*
X139639693Y-107690758D01*
X139628781Y-107664414D01*
X139000066Y-107035699D01*
X138973722Y-107024787D01*
X138968650Y-107015080D01*
X138572332Y-106858526D01*
X138178609Y-106695440D01*
X138159480Y-106695440D01*
X138141694Y-106688414D01*
X137715650Y-106695440D01*
X137289471Y-106695440D01*
X137271800Y-106702760D01*
X137252677Y-106703075D01*
X136499430Y-107015080D01*
X136494358Y-107024787D01*
X136468014Y-107035699D01*
X135839299Y-107664414D01*
X135828387Y-107690758D01*
X135818680Y-107695830D01*
X135662126Y-108092148D01*
X135499040Y-108485871D01*
X135499040Y-108505000D01*
X135492014Y-108522786D01*
X131033520Y-108522786D01*
X131033520Y-108257701D01*
X130627494Y-107277466D01*
X129877254Y-106527226D01*
X128897019Y-106121200D01*
X127836021Y-106121200D01*
X126855786Y-106527226D01*
X126105546Y-107277466D01*
X125699520Y-108257701D01*
X123585554Y-108257701D01*
X123691214Y-108236684D01*
X124430505Y-107742705D01*
X124924484Y-107003414D01*
X125097946Y-106131360D01*
X124924484Y-105259306D01*
X124430505Y-104520015D01*
X123691214Y-104026036D01*
X123039288Y-103896360D01*
X122599032Y-103896360D01*
X121947106Y-104026036D01*
X121207815Y-104520015D01*
X120713836Y-105259306D01*
X120540374Y-106131360D01*
X109826600Y-106131360D01*
X109826600Y-104531360D01*
X109777317Y-104283595D01*
X109636969Y-104073551D01*
X109426925Y-103933203D01*
X109179160Y-103883920D01*
X105979160Y-103883920D01*
X105731395Y-103933203D01*
X105521351Y-104073551D01*
X105381003Y-104283595D01*
X105331720Y-104531360D01*
X98290863Y-104531360D01*
X98446440Y-104155764D01*
X98446440Y-103425756D01*
X98167078Y-102751316D01*
X97650884Y-102235122D01*
X96976444Y-101955760D01*
X96246436Y-101955760D01*
X95571996Y-102235122D01*
X95055802Y-102751316D01*
X94776440Y-103425756D01*
X85086255Y-103425756D01*
X85036262Y-103392352D01*
X84495640Y-103284816D01*
X83955019Y-103392352D01*
X83496701Y-103698590D01*
X83225640Y-104104260D01*
X82954580Y-103698590D01*
X82496262Y-103392352D01*
X81955640Y-103284816D01*
X81415019Y-103392352D01*
X80956701Y-103698590D01*
X80685640Y-104104260D01*
X80414580Y-103698590D01*
X79956262Y-103392352D01*
X79415640Y-103284816D01*
X78875019Y-103392352D01*
X78416701Y-103698590D01*
X78110462Y-104156908D01*
X78030070Y-104561067D01*
X61754270Y-104561067D01*
X61928640Y-104140102D01*
X61928640Y-103489658D01*
X61679726Y-102888727D01*
X61219793Y-102428794D01*
X60618862Y-102179880D01*
X59968418Y-102179880D01*
X59367487Y-102428794D01*
X58907554Y-102888727D01*
X58658640Y-103489658D01*
X57428640Y-103489658D01*
X57179726Y-102888727D01*
X56719793Y-102428794D01*
X56118862Y-102179880D01*
X55468418Y-102179880D01*
X54867487Y-102428794D01*
X54407554Y-102888727D01*
X54158640Y-103489658D01*
X45338200Y-103489658D01*
X45338200Y-100374880D01*
X65264720Y-100374880D01*
X65264720Y-102174880D01*
X65314003Y-102422645D01*
X65454351Y-102632689D01*
X65664395Y-102773037D01*
X65912160Y-102822320D01*
X67712160Y-102822320D01*
X67959925Y-102773037D01*
X68169969Y-102632689D01*
X68310317Y-102422645D01*
X68359600Y-102174880D01*
X68359600Y-100374880D01*
X68310317Y-100127115D01*
X68169969Y-99917071D01*
X67959925Y-99776723D01*
X67944252Y-99773605D01*
X68113470Y-99604387D01*
X68347160Y-99040210D01*
X68347160Y-98790760D01*
X94434613Y-98790760D01*
X94600314Y-99623796D01*
X94764000Y-99868769D01*
X94764000Y-99990760D01*
X94813283Y-100238525D01*
X94953631Y-100448569D01*
X95163675Y-100588917D01*
X95411440Y-100638200D01*
X95533431Y-100638200D01*
X95778404Y-100801886D01*
X96401161Y-100925760D01*
X99713810Y-100925760D01*
X99880860Y-101037379D01*
X100811440Y-101222484D01*
X101742020Y-101037379D01*
X102331792Y-100643306D01*
X104900419Y-98074680D01*
X105331720Y-98074680D01*
X105331720Y-101274680D01*
X105381003Y-101522445D01*
X105521351Y-101732489D01*
X105731395Y-101872837D01*
X105979160Y-101922120D01*
X109179160Y-101922120D01*
X109426925Y-101872837D01*
X109636969Y-101732489D01*
X109777317Y-101522445D01*
X109826600Y-101274680D01*
X109826600Y-99674680D01*
X120540374Y-99674680D01*
X120713836Y-100546734D01*
X121207815Y-101286025D01*
X121947106Y-101780004D01*
X122599032Y-101909680D01*
X123039288Y-101909680D01*
X123691214Y-101780004D01*
X124430505Y-101286025D01*
X124924484Y-100546734D01*
X125097946Y-99674680D01*
X124924484Y-98802626D01*
X124430505Y-98063335D01*
X124040978Y-97803061D01*
X134487920Y-97803061D01*
X134487920Y-98864059D01*
X134893946Y-99844294D01*
X135644186Y-100594534D01*
X136624421Y-101000560D01*
X137685419Y-101000560D01*
X138665654Y-100594534D01*
X139415894Y-99844294D01*
X139821920Y-98864059D01*
X139821920Y-97803061D01*
X139415894Y-96822826D01*
X138665654Y-96072586D01*
X137685419Y-95666560D01*
X136624421Y-95666560D01*
X135644186Y-96072586D01*
X134893946Y-96822826D01*
X134487920Y-97803061D01*
X124040978Y-97803061D01*
X123691214Y-97569356D01*
X123039288Y-97439680D01*
X122599032Y-97439680D01*
X121947106Y-97569356D01*
X121207815Y-98063335D01*
X120713836Y-98802626D01*
X120540374Y-99674680D01*
X109826600Y-99674680D01*
X109826600Y-98074680D01*
X109777317Y-97826915D01*
X109636969Y-97616871D01*
X109426925Y-97476523D01*
X109179160Y-97427240D01*
X105979160Y-97427240D01*
X105731395Y-97476523D01*
X105521351Y-97616871D01*
X105381003Y-97826915D01*
X105331720Y-98074680D01*
X104900419Y-98074680D01*
X105909060Y-97066040D01*
X122203264Y-97066040D01*
X122438160Y-97112764D01*
X122673056Y-97066040D01*
X122673057Y-97066040D01*
X123368740Y-96927660D01*
X124157649Y-96400529D01*
X124290711Y-96201387D01*
X126363767Y-94128332D01*
X126484476Y-94078333D01*
X127169453Y-93393356D01*
X127540160Y-92498392D01*
X127540160Y-91529688D01*
X127169453Y-90634724D01*
X126484476Y-89949747D01*
X125589512Y-89579040D01*
X124620808Y-89579040D01*
X123725844Y-89949747D01*
X123040867Y-90634724D01*
X122990868Y-90755433D01*
X121450261Y-92296040D01*
X105156056Y-92296040D01*
X104921160Y-92249316D01*
X104686264Y-92296040D01*
X104686263Y-92296040D01*
X103990580Y-92434420D01*
X103201671Y-92961551D01*
X103068612Y-93160688D01*
X99573542Y-96655760D01*
X96401161Y-96655760D01*
X95778404Y-96779634D01*
X95533431Y-96943320D01*
X95411440Y-96943320D01*
X95163675Y-96992603D01*
X94953631Y-97132951D01*
X94813283Y-97342995D01*
X94764000Y-97590760D01*
X94764000Y-97712751D01*
X94600314Y-97957724D01*
X94434613Y-98790760D01*
X68347160Y-98790760D01*
X68347160Y-98429550D01*
X68113470Y-97865373D01*
X67681667Y-97433570D01*
X67117490Y-97199880D01*
X66506830Y-97199880D01*
X65942653Y-97433570D01*
X65510850Y-97865373D01*
X65277160Y-98429550D01*
X65277160Y-99040210D01*
X65510850Y-99604387D01*
X65680068Y-99773605D01*
X65664395Y-99776723D01*
X65454351Y-99917071D01*
X65314003Y-100127115D01*
X65264720Y-100374880D01*
X45338200Y-100374880D01*
X45338200Y-96989658D01*
X54158640Y-96989658D01*
X54158640Y-97640102D01*
X54407554Y-98241033D01*
X54867487Y-98700966D01*
X55468418Y-98949880D01*
X56118862Y-98949880D01*
X56719793Y-98700966D01*
X57179726Y-98241033D01*
X57428640Y-97640102D01*
X57428640Y-96989658D01*
X58658640Y-96989658D01*
X58658640Y-97640102D01*
X58907554Y-98241033D01*
X59367487Y-98700966D01*
X59968418Y-98949880D01*
X60618862Y-98949880D01*
X61219793Y-98700966D01*
X61679726Y-98241033D01*
X61928640Y-97640102D01*
X61928640Y-96989658D01*
X61704487Y-96448505D01*
X64549871Y-93603121D01*
X65377160Y-93603121D01*
X65377160Y-94173999D01*
X65595626Y-94701422D01*
X65999298Y-95105094D01*
X66526721Y-95323560D01*
X67097599Y-95323560D01*
X67625022Y-95105094D01*
X68028694Y-94701422D01*
X68247160Y-94173999D01*
X68247160Y-93603121D01*
X70096480Y-93603121D01*
X70096480Y-94173999D01*
X70314946Y-94701422D01*
X70718618Y-95105094D01*
X71246041Y-95323560D01*
X71816919Y-95323560D01*
X72344342Y-95105094D01*
X72748014Y-94701422D01*
X72966480Y-94173999D01*
X72966480Y-93669161D01*
X77238960Y-93669161D01*
X77238960Y-94240039D01*
X77457426Y-94767462D01*
X77861098Y-95171134D01*
X78388521Y-95389600D01*
X78959399Y-95389600D01*
X79486822Y-95171134D01*
X79890494Y-94767462D01*
X80108960Y-94240039D01*
X80108960Y-93669161D01*
X82085280Y-93669161D01*
X82085280Y-94240039D01*
X82303746Y-94767462D01*
X82707418Y-95171134D01*
X83234841Y-95389600D01*
X83805719Y-95389600D01*
X84333142Y-95171134D01*
X84736814Y-94767462D01*
X84955280Y-94240039D01*
X84955280Y-93669161D01*
X84736814Y-93141738D01*
X84333142Y-92738066D01*
X83805719Y-92519600D01*
X83234841Y-92519600D01*
X82707418Y-92738066D01*
X82303746Y-93141738D01*
X82085280Y-93669161D01*
X80108960Y-93669161D01*
X79890494Y-93141738D01*
X79486822Y-92738066D01*
X78959399Y-92519600D01*
X78388521Y-92519600D01*
X77861098Y-92738066D01*
X77457426Y-93141738D01*
X77238960Y-93669161D01*
X72966480Y-93669161D01*
X72966480Y-93603121D01*
X72748014Y-93075698D01*
X72344342Y-92672026D01*
X71816919Y-92453560D01*
X71246041Y-92453560D01*
X70718618Y-92672026D01*
X70314946Y-93075698D01*
X70096480Y-93603121D01*
X68247160Y-93603121D01*
X68028694Y-93075698D01*
X67625022Y-92672026D01*
X67097599Y-92453560D01*
X66526721Y-92453560D01*
X65999298Y-92672026D01*
X65595626Y-93075698D01*
X65377160Y-93603121D01*
X64549871Y-93603121D01*
X64662290Y-93490703D01*
X64777928Y-93413436D01*
X64855195Y-93297798D01*
X64855197Y-93297796D01*
X65084040Y-92955308D01*
X65084041Y-92955307D01*
X65164400Y-92551314D01*
X65164400Y-92551313D01*
X65191533Y-92414908D01*
X65164400Y-92278502D01*
X65164400Y-91611761D01*
X88862000Y-91611761D01*
X88862000Y-92182639D01*
X89080466Y-92710062D01*
X89484138Y-93113734D01*
X90011561Y-93332200D01*
X90582439Y-93332200D01*
X91109862Y-93113734D01*
X91513534Y-92710062D01*
X91732000Y-92182639D01*
X91732000Y-91611761D01*
X91513534Y-91084338D01*
X91109862Y-90680666D01*
X90582439Y-90462200D01*
X90011561Y-90462200D01*
X89484138Y-90680666D01*
X89080466Y-91084338D01*
X88862000Y-91611761D01*
X65164400Y-91611761D01*
X65164400Y-76555245D01*
X65647919Y-76071727D01*
X65522759Y-76259041D01*
X65415267Y-76799440D01*
X65442401Y-76935851D01*
X65442400Y-79844166D01*
X65400027Y-80057190D01*
X65427160Y-80193597D01*
X65427160Y-80795860D01*
X65349047Y-81188560D01*
X65460420Y-81748469D01*
X65777583Y-82223137D01*
X66252251Y-82540300D01*
X66670827Y-82623560D01*
X66953493Y-82623560D01*
X67372069Y-82540300D01*
X67846737Y-82223137D01*
X68163900Y-81748469D01*
X68275273Y-81188560D01*
X70068367Y-81188560D01*
X70179740Y-81748469D01*
X70496903Y-82223137D01*
X70971571Y-82540300D01*
X71390147Y-82623560D01*
X71672813Y-82623560D01*
X72091389Y-82540300D01*
X72566057Y-82223137D01*
X72883220Y-81748469D01*
X72981456Y-81254600D01*
X77210847Y-81254600D01*
X77322220Y-81814509D01*
X77639383Y-82289177D01*
X78114051Y-82606340D01*
X78532627Y-82689600D01*
X78815293Y-82689600D01*
X79233869Y-82606340D01*
X79708537Y-82289177D01*
X80025700Y-81814509D01*
X80137073Y-81254600D01*
X82057167Y-81254600D01*
X82168540Y-81814509D01*
X82485703Y-82289177D01*
X82960371Y-82606340D01*
X83166460Y-82647334D01*
X84222155Y-83703029D01*
X84291055Y-83806145D01*
X84394171Y-83875045D01*
X84394172Y-83875046D01*
X84699567Y-84079104D01*
X85059804Y-84150760D01*
X85059807Y-84150760D01*
X85181439Y-84174954D01*
X85303071Y-84150760D01*
X95494128Y-84150760D01*
X95615760Y-84174954D01*
X95737392Y-84150760D01*
X95737396Y-84150760D01*
X96097633Y-84079104D01*
X96506145Y-83806145D01*
X96575047Y-83703026D01*
X98704269Y-81573805D01*
X98807385Y-81504905D01*
X98927617Y-81324966D01*
X99049281Y-81142882D01*
X99049281Y-81652366D01*
X94350974Y-86350673D01*
X94247855Y-86419575D01*
X93974896Y-86828088D01*
X93903240Y-87188325D01*
X93903240Y-87188328D01*
X93879046Y-87309960D01*
X93903240Y-87431592D01*
X93903241Y-91147336D01*
X93786500Y-91322051D01*
X93675127Y-91881960D01*
X93786500Y-92441869D01*
X94103663Y-92916537D01*
X94578331Y-93233700D01*
X94996907Y-93316960D01*
X95279573Y-93316960D01*
X95698149Y-93233700D01*
X96172817Y-92916537D01*
X96489980Y-92441869D01*
X96601353Y-91881960D01*
X96489980Y-91322051D01*
X96373240Y-91147337D01*
X96373240Y-88558800D01*
X102165840Y-88558800D01*
X102165840Y-90358800D01*
X102215123Y-90606565D01*
X102355471Y-90816609D01*
X102565515Y-90956957D01*
X102813280Y-91006240D01*
X104613280Y-91006240D01*
X104861045Y-90956957D01*
X105071089Y-90816609D01*
X105211437Y-90606565D01*
X105260720Y-90358800D01*
X105260720Y-88558800D01*
X105211437Y-88311035D01*
X105071089Y-88100991D01*
X104861045Y-87960643D01*
X104845372Y-87957525D01*
X105014590Y-87788307D01*
X105248280Y-87224130D01*
X105248280Y-86613470D01*
X105014590Y-86049293D01*
X104582787Y-85617490D01*
X104018610Y-85383800D01*
X103407950Y-85383800D01*
X102843773Y-85617490D01*
X102411970Y-86049293D01*
X102178280Y-86613470D01*
X102178280Y-87224130D01*
X102411970Y-87788307D01*
X102581188Y-87957525D01*
X102565515Y-87960643D01*
X102355471Y-88100991D01*
X102215123Y-88311035D01*
X102165840Y-88558800D01*
X96373240Y-88558800D01*
X96373240Y-87821513D01*
X101071546Y-83123207D01*
X101174665Y-83054305D01*
X101393389Y-82726960D01*
X102145520Y-82726960D01*
X102145520Y-84526960D01*
X102194803Y-84774725D01*
X102335151Y-84984769D01*
X102545195Y-85125117D01*
X102792960Y-85174400D01*
X104592960Y-85174400D01*
X104840725Y-85125117D01*
X105050769Y-84984769D01*
X105191117Y-84774725D01*
X105240400Y-84526960D01*
X105240400Y-82726960D01*
X105191117Y-82479195D01*
X105050769Y-82269151D01*
X104840725Y-82128803D01*
X104825052Y-82125685D01*
X104994270Y-81956467D01*
X105227960Y-81392290D01*
X105227960Y-80781630D01*
X104994270Y-80217453D01*
X104562467Y-79785650D01*
X103998290Y-79551960D01*
X103387630Y-79551960D01*
X102823453Y-79785650D01*
X102391650Y-80217453D01*
X102157960Y-80781630D01*
X102157960Y-81392290D01*
X102391650Y-81956467D01*
X102560868Y-82125685D01*
X102545195Y-82128803D01*
X102335151Y-82269151D01*
X102194803Y-82479195D01*
X102145520Y-82726960D01*
X101393389Y-82726960D01*
X101447624Y-82645793D01*
X101519280Y-82285556D01*
X101519280Y-82285552D01*
X101543474Y-82163920D01*
X101519280Y-82042288D01*
X101519280Y-78829688D01*
X122670160Y-78829688D01*
X122670160Y-79798392D01*
X123040867Y-80693356D01*
X123725844Y-81378333D01*
X124620808Y-81749040D01*
X125589512Y-81749040D01*
X126484476Y-81378333D01*
X127169453Y-80693356D01*
X127540160Y-79798392D01*
X127540160Y-78829688D01*
X127169453Y-77934724D01*
X126484476Y-77249747D01*
X125589512Y-76879040D01*
X124620808Y-76879040D01*
X123725844Y-77249747D01*
X123040867Y-77934724D01*
X122670160Y-78829688D01*
X101519280Y-78829688D01*
X101519280Y-69976710D01*
X101543474Y-69855079D01*
X101519280Y-69733448D01*
X101519280Y-69733444D01*
X101447624Y-69373207D01*
X101174665Y-68964695D01*
X101071547Y-68895794D01*
X100760967Y-68585214D01*
X100692065Y-68482095D01*
X100283553Y-68209136D01*
X99923316Y-68137480D01*
X99923312Y-68137480D01*
X99801680Y-68113286D01*
X99680048Y-68137480D01*
X98651623Y-68137480D01*
X98599242Y-68102480D01*
X98951577Y-67867057D01*
X99268740Y-67392389D01*
X99380113Y-66832480D01*
X99268740Y-66272571D01*
X98951577Y-65797903D01*
X98599242Y-65562480D01*
X98951577Y-65327057D01*
X99268740Y-64852389D01*
X99380113Y-64292480D01*
X99268740Y-63732571D01*
X98951577Y-63257903D01*
X98476909Y-62940740D01*
X98058333Y-62857480D01*
X97775667Y-62857480D01*
X97357091Y-62940740D01*
X96882423Y-63257903D01*
X96565260Y-63732571D01*
X96453887Y-64292480D01*
X96565260Y-64852389D01*
X96882423Y-65327057D01*
X97234758Y-65562480D01*
X96882423Y-65797903D01*
X96565260Y-66272571D01*
X96453887Y-66832480D01*
X96565260Y-67392389D01*
X96882423Y-67867057D01*
X97234758Y-68102480D01*
X96882423Y-68337903D01*
X96565260Y-68812571D01*
X96453887Y-69372480D01*
X96565260Y-69932389D01*
X96882423Y-70407057D01*
X97234758Y-70642480D01*
X96882423Y-70877903D01*
X96565260Y-71352571D01*
X96453887Y-71912480D01*
X96565260Y-72472389D01*
X96682000Y-72647103D01*
X96682001Y-80102965D01*
X95104207Y-81680760D01*
X85692994Y-81680760D01*
X84913014Y-80900780D01*
X84872020Y-80694691D01*
X84554857Y-80220023D01*
X84080189Y-79902860D01*
X83661613Y-79819600D01*
X83378947Y-79819600D01*
X82960371Y-79902860D01*
X82485703Y-80220023D01*
X82168540Y-80694691D01*
X82057167Y-81254600D01*
X80137073Y-81254600D01*
X80025700Y-80694691D01*
X79708537Y-80220023D01*
X79233869Y-79902860D01*
X78815293Y-79819600D01*
X78532627Y-79819600D01*
X78114051Y-79902860D01*
X77639383Y-80220023D01*
X77322220Y-80694691D01*
X77210847Y-81254600D01*
X72981456Y-81254600D01*
X72994593Y-81188560D01*
X72883220Y-80628651D01*
X72566057Y-80153983D01*
X72091389Y-79836820D01*
X71672813Y-79753560D01*
X71390147Y-79753560D01*
X70971571Y-79836820D01*
X70496903Y-80153983D01*
X70179740Y-80628651D01*
X70068367Y-81188560D01*
X68275273Y-81188560D01*
X68197160Y-80795860D01*
X68197160Y-80254974D01*
X68212400Y-80178357D01*
X68212400Y-80178356D01*
X68239533Y-80041950D01*
X68212400Y-79905543D01*
X68212400Y-79197200D01*
X88833887Y-79197200D01*
X88945260Y-79757109D01*
X89262423Y-80231777D01*
X89737091Y-80548940D01*
X90155667Y-80632200D01*
X90438333Y-80632200D01*
X90856909Y-80548940D01*
X91331577Y-80231777D01*
X91648740Y-79757109D01*
X91760113Y-79197200D01*
X91700305Y-78896521D01*
X93703240Y-78896521D01*
X93703240Y-79467399D01*
X93921706Y-79994822D01*
X94325378Y-80398494D01*
X94852801Y-80616960D01*
X95423679Y-80616960D01*
X95951102Y-80398494D01*
X96354774Y-79994822D01*
X96573240Y-79467399D01*
X96573240Y-78896521D01*
X96354774Y-78369098D01*
X95951102Y-77965426D01*
X95423679Y-77746960D01*
X94852801Y-77746960D01*
X94325378Y-77965426D01*
X93921706Y-78369098D01*
X93703240Y-78896521D01*
X91700305Y-78896521D01*
X91648740Y-78637291D01*
X91331577Y-78162623D01*
X90856909Y-77845460D01*
X90438333Y-77762200D01*
X90155667Y-77762200D01*
X89737091Y-77845460D01*
X89262423Y-78162623D01*
X88945260Y-78637291D01*
X88833887Y-79197200D01*
X68212400Y-79197200D01*
X68212400Y-77373125D01*
X68975004Y-76610521D01*
X70096480Y-76610521D01*
X70096480Y-77181399D01*
X70314946Y-77708822D01*
X70718618Y-78112494D01*
X71246041Y-78330960D01*
X71816919Y-78330960D01*
X71937630Y-78280960D01*
X80056473Y-78280960D01*
X80192880Y-78308093D01*
X80329287Y-78280960D01*
X80733280Y-78200601D01*
X81191409Y-77894489D01*
X81268679Y-77778846D01*
X87674690Y-71372836D01*
X87790328Y-71295569D01*
X87867595Y-71179931D01*
X87867597Y-71179929D01*
X88096440Y-70837441D01*
X88096441Y-70837440D01*
X88176800Y-70433447D01*
X88176800Y-70433446D01*
X88203933Y-70297041D01*
X88176800Y-70160635D01*
X88176800Y-68217480D01*
X89442649Y-68217480D01*
X89262423Y-68337903D01*
X88945260Y-68812571D01*
X88833887Y-69372480D01*
X88945260Y-69932389D01*
X89262423Y-70407057D01*
X89614758Y-70642480D01*
X89262423Y-70877903D01*
X88945260Y-71352571D01*
X88833887Y-71912480D01*
X88945260Y-72472389D01*
X89262423Y-72947057D01*
X89737091Y-73264220D01*
X90155667Y-73347480D01*
X90438333Y-73347480D01*
X90856909Y-73264220D01*
X91331577Y-72947057D01*
X91648740Y-72472389D01*
X91760113Y-71912480D01*
X91648740Y-71352571D01*
X91331577Y-70877903D01*
X90979242Y-70642480D01*
X91331577Y-70407057D01*
X91648740Y-69932389D01*
X91760113Y-69372480D01*
X91648740Y-68812571D01*
X91331577Y-68337903D01*
X90979242Y-68102480D01*
X91331577Y-67867057D01*
X91648740Y-67392389D01*
X91760113Y-66832480D01*
X91648740Y-66272571D01*
X91331577Y-65797903D01*
X91210894Y-65717265D01*
X91344765Y-65690637D01*
X91364456Y-65677480D01*
X92023315Y-65677480D01*
X92757560Y-66411726D01*
X92757561Y-73345393D01*
X91668955Y-74434000D01*
X86576211Y-74434000D01*
X86439809Y-74406868D01*
X86303407Y-74434000D01*
X86303403Y-74434000D01*
X85899410Y-74514359D01*
X85441281Y-74820471D01*
X85364010Y-74936115D01*
X84789165Y-75510960D01*
X84624180Y-75510960D01*
X84372813Y-75460960D01*
X84090147Y-75460960D01*
X83671571Y-75544220D01*
X83196903Y-75861383D01*
X82879740Y-76336051D01*
X82768367Y-76895960D01*
X82879740Y-77455869D01*
X83196903Y-77930537D01*
X83671571Y-78247700D01*
X84090147Y-78330960D01*
X84372813Y-78330960D01*
X84624180Y-78280960D01*
X85226443Y-78280960D01*
X85362850Y-78308093D01*
X85499257Y-78280960D01*
X85903250Y-78200601D01*
X86361379Y-77894489D01*
X86438650Y-77778845D01*
X87013495Y-77204000D01*
X92106233Y-77204000D01*
X92242640Y-77231133D01*
X92379047Y-77204000D01*
X92783040Y-77123641D01*
X93241169Y-76817529D01*
X93318439Y-76701886D01*
X95025448Y-74994878D01*
X95141089Y-74917609D01*
X95447201Y-74459480D01*
X95498550Y-74201329D01*
X95554693Y-73919080D01*
X95527560Y-73782673D01*
X95527560Y-65974447D01*
X95554693Y-65838040D01*
X95447201Y-65297640D01*
X95218357Y-64955151D01*
X95218355Y-64955149D01*
X95141088Y-64839511D01*
X95025450Y-64762244D01*
X93672799Y-63409594D01*
X93595529Y-63293951D01*
X93137400Y-62987839D01*
X92733407Y-62907480D01*
X92597000Y-62880347D01*
X92460593Y-62907480D01*
X91364456Y-62907480D01*
X91344765Y-62894323D01*
X91097000Y-62845040D01*
X89497000Y-62845040D01*
X89249235Y-62894323D01*
X89039191Y-63034671D01*
X88898843Y-63244715D01*
X88849560Y-63492480D01*
X88849560Y-65092480D01*
X88898843Y-65340245D01*
X88970496Y-65447480D01*
X87558121Y-65447480D01*
X87421719Y-65420348D01*
X87285317Y-65447480D01*
X87285313Y-65447480D01*
X86881320Y-65527839D01*
X86423191Y-65833951D01*
X86345919Y-65949597D01*
X85908913Y-66386602D01*
X85793272Y-66463871D01*
X85716003Y-66579512D01*
X85487159Y-66922001D01*
X85379667Y-67462400D01*
X85406801Y-67598811D01*
X85406800Y-69723354D01*
X79619195Y-75510960D01*
X71937630Y-75510960D01*
X71816919Y-75460960D01*
X71246041Y-75460960D01*
X70718618Y-75679426D01*
X70314946Y-76083098D01*
X70096480Y-76610521D01*
X68975004Y-76610521D01*
X70997726Y-74587800D01*
X79589113Y-74587800D01*
X79725520Y-74614933D01*
X79861927Y-74587800D01*
X80265920Y-74507441D01*
X80724049Y-74201329D01*
X80801319Y-74085686D01*
X84692730Y-70194276D01*
X84808368Y-70117009D01*
X84885635Y-70001371D01*
X84885637Y-70001369D01*
X85114481Y-69658880D01*
X85221973Y-69118480D01*
X85194840Y-68982073D01*
X85194840Y-64688365D01*
X87975086Y-61908120D01*
X91776033Y-61908120D01*
X91912440Y-61935253D01*
X92048847Y-61908120D01*
X92452840Y-61827761D01*
X92910969Y-61521649D01*
X92988239Y-61406006D01*
X95330250Y-59063996D01*
X95445888Y-58986729D01*
X95523155Y-58871091D01*
X95523157Y-58871089D01*
X95688177Y-58624119D01*
X95752001Y-58528600D01*
X95832360Y-58124607D01*
X95832360Y-58124606D01*
X95859493Y-57988201D01*
X95832360Y-57851795D01*
X95832360Y-52628041D01*
X95859492Y-52491639D01*
X95832360Y-52355237D01*
X95832360Y-52355233D01*
X95752001Y-51951240D01*
X95445889Y-51493111D01*
X95330243Y-51415839D01*
X94817040Y-50902635D01*
X94739769Y-50786991D01*
X94281640Y-50480879D01*
X93877647Y-50400520D01*
X93741240Y-50373387D01*
X93604833Y-50400520D01*
X91679384Y-50400520D01*
X91751037Y-50293285D01*
X91800320Y-50045520D01*
X91800320Y-49245520D01*
X96509767Y-49245520D01*
X96621140Y-49805429D01*
X96938303Y-50280097D01*
X97290638Y-50515520D01*
X96938303Y-50750943D01*
X96621140Y-51225611D01*
X96509767Y-51785520D01*
X96621140Y-52345429D01*
X96938303Y-52820097D01*
X97290638Y-53055520D01*
X96938303Y-53290943D01*
X96621140Y-53765611D01*
X96509767Y-54325520D01*
X96621140Y-54885429D01*
X96938303Y-55360097D01*
X97290638Y-55595520D01*
X96938303Y-55830943D01*
X96621140Y-56305611D01*
X96509767Y-56865520D01*
X96621140Y-57425429D01*
X96938303Y-57900097D01*
X97412971Y-58217260D01*
X97831547Y-58300520D01*
X98114213Y-58300520D01*
X98365580Y-58250520D01*
X98530565Y-58250520D01*
X99432680Y-59152636D01*
X99432681Y-66309988D01*
X99405547Y-66446400D01*
X99513039Y-66986799D01*
X99741883Y-67329288D01*
X99819152Y-67444929D01*
X99934792Y-67522197D01*
X102302880Y-69890286D01*
X102302881Y-76630255D01*
X102224767Y-77022960D01*
X102336140Y-77582869D01*
X102653303Y-78057537D01*
X103127971Y-78374700D01*
X103546547Y-78457960D01*
X103829213Y-78457960D01*
X104247789Y-78374700D01*
X104722457Y-78057537D01*
X105039620Y-77582869D01*
X105150993Y-77022960D01*
X105072880Y-76630260D01*
X105072880Y-72901328D01*
X122670160Y-72901328D01*
X122670160Y-73870032D01*
X123040867Y-74764996D01*
X123725844Y-75449973D01*
X124620808Y-75820680D01*
X125589512Y-75820680D01*
X126484476Y-75449973D01*
X127169453Y-74764996D01*
X127540160Y-73870032D01*
X127540160Y-72901328D01*
X127169453Y-72006364D01*
X126484476Y-71321387D01*
X125589512Y-70950680D01*
X124620808Y-70950680D01*
X123725844Y-71321387D01*
X123040867Y-72006364D01*
X122670160Y-72901328D01*
X105072880Y-72901328D01*
X105072880Y-69854121D01*
X106515000Y-69854121D01*
X106515000Y-70424999D01*
X106733466Y-70952422D01*
X107137138Y-71356094D01*
X107664561Y-71574560D01*
X108235439Y-71574560D01*
X108762862Y-71356094D01*
X109166534Y-70952422D01*
X109385000Y-70424999D01*
X109385000Y-69854121D01*
X109166534Y-69326698D01*
X108762862Y-68923026D01*
X108235439Y-68704560D01*
X107664561Y-68704560D01*
X107137138Y-68923026D01*
X106733466Y-69326698D01*
X106515000Y-69854121D01*
X105072880Y-69854121D01*
X105072880Y-69453007D01*
X105100013Y-69316600D01*
X104992521Y-68776200D01*
X104763677Y-68433711D01*
X104763675Y-68433709D01*
X104686408Y-68318071D01*
X104570770Y-68240804D01*
X102202680Y-65872715D01*
X102202680Y-64037521D01*
X102252880Y-64037521D01*
X102252880Y-64608399D01*
X102471346Y-65135822D01*
X102875018Y-65539494D01*
X103402441Y-65757960D01*
X103973319Y-65757960D01*
X104500742Y-65539494D01*
X104904414Y-65135822D01*
X105122880Y-64608399D01*
X105122880Y-64037521D01*
X104904414Y-63510098D01*
X104500742Y-63106426D01*
X103973319Y-62887960D01*
X103402441Y-62887960D01*
X102875018Y-63106426D01*
X102471346Y-63510098D01*
X102252880Y-64037521D01*
X102202680Y-64037521D01*
X102202680Y-60201328D01*
X122670160Y-60201328D01*
X122670160Y-61170032D01*
X123040867Y-62064996D01*
X123725844Y-62749973D01*
X124620808Y-63120680D01*
X125589512Y-63120680D01*
X126484476Y-62749973D01*
X127169453Y-62064996D01*
X127540160Y-61170032D01*
X127540160Y-60201328D01*
X127169453Y-59306364D01*
X126484476Y-58621387D01*
X125589512Y-58250680D01*
X124620808Y-58250680D01*
X123725844Y-58621387D01*
X123040867Y-59306364D01*
X122670160Y-60201328D01*
X102202680Y-60201328D01*
X102202680Y-58715357D01*
X102229813Y-58578950D01*
X102122321Y-58038550D01*
X101893477Y-57696061D01*
X101893475Y-57696059D01*
X101816208Y-57580421D01*
X101700570Y-57503154D01*
X101636976Y-57439560D01*
X106486887Y-57439560D01*
X106598260Y-57999469D01*
X106915423Y-58474137D01*
X107390091Y-58791300D01*
X107808667Y-58874560D01*
X108091333Y-58874560D01*
X108509909Y-58791300D01*
X108984577Y-58474137D01*
X109301740Y-57999469D01*
X109413113Y-57439560D01*
X109301740Y-56879651D01*
X108984577Y-56404983D01*
X108509909Y-56087820D01*
X108091333Y-56004560D01*
X107808667Y-56004560D01*
X107390091Y-56087820D01*
X106915423Y-56404983D01*
X106598260Y-56879651D01*
X106486887Y-57439560D01*
X101636976Y-57439560D01*
X100180049Y-55982634D01*
X100102779Y-55866991D01*
X99815384Y-55674960D01*
X107503210Y-55674960D01*
X107623921Y-55724960D01*
X107992868Y-55724960D01*
X108056680Y-55737653D01*
X108120492Y-55724960D01*
X108194799Y-55724960D01*
X108263449Y-55696524D01*
X108597079Y-55630161D01*
X108939568Y-55401317D01*
X109147717Y-55193168D01*
X109376561Y-54850679D01*
X109484053Y-54310280D01*
X109427276Y-54024841D01*
X111102240Y-54024841D01*
X111102240Y-54595719D01*
X111320706Y-55123142D01*
X111724378Y-55526814D01*
X112251801Y-55745280D01*
X112822679Y-55745280D01*
X113350102Y-55526814D01*
X113753774Y-55123142D01*
X113972240Y-54595719D01*
X113972240Y-54024841D01*
X113753774Y-53497418D01*
X113350102Y-53093746D01*
X112822679Y-52875280D01*
X112251801Y-52875280D01*
X111724378Y-53093746D01*
X111320706Y-53497418D01*
X111102240Y-54024841D01*
X109427276Y-54024841D01*
X109376561Y-53769880D01*
X109070449Y-53311751D01*
X108739241Y-53090445D01*
X108722222Y-53073426D01*
X108699986Y-53064216D01*
X108612320Y-53005639D01*
X108508912Y-52985070D01*
X108194799Y-52854960D01*
X107623921Y-52854960D01*
X107503210Y-52904960D01*
X98880451Y-52904960D01*
X99007457Y-52820097D01*
X99324620Y-52345429D01*
X99435993Y-51785520D01*
X99324620Y-51225611D01*
X99007457Y-50750943D01*
X98949953Y-50712520D01*
X117283640Y-50712520D01*
X117283640Y-53112520D01*
X117332923Y-53360285D01*
X117473271Y-53570329D01*
X117683315Y-53710677D01*
X117931080Y-53759960D01*
X120331080Y-53759960D01*
X120578845Y-53710677D01*
X120788889Y-53570329D01*
X120929237Y-53360285D01*
X120978520Y-53112520D01*
X120978520Y-51547516D01*
X122296080Y-51547516D01*
X122296080Y-52277524D01*
X122575442Y-52951964D01*
X123091636Y-53468158D01*
X123766076Y-53747520D01*
X124496084Y-53747520D01*
X125170524Y-53468158D01*
X125686718Y-52951964D01*
X125966080Y-52277524D01*
X125966080Y-51547516D01*
X125686718Y-50873076D01*
X125170524Y-50356882D01*
X124496084Y-50077520D01*
X123766076Y-50077520D01*
X123091636Y-50356882D01*
X122575442Y-50873076D01*
X122296080Y-51547516D01*
X120978520Y-51547516D01*
X120978520Y-50712520D01*
X120929237Y-50464755D01*
X120788889Y-50254711D01*
X120578845Y-50114363D01*
X120331080Y-50065080D01*
X117931080Y-50065080D01*
X117683315Y-50114363D01*
X117473271Y-50254711D01*
X117332923Y-50464755D01*
X117283640Y-50712520D01*
X98949953Y-50712520D01*
X98655122Y-50515520D01*
X99007457Y-50280097D01*
X99324620Y-49805429D01*
X99435993Y-49245520D01*
X99330944Y-48717400D01*
X129365200Y-48717400D01*
X129365200Y-51917400D01*
X129414483Y-52165165D01*
X129554831Y-52375209D01*
X129764875Y-52515557D01*
X130012640Y-52564840D01*
X133212640Y-52564840D01*
X133460405Y-52515557D01*
X133670449Y-52375209D01*
X133810797Y-52165165D01*
X133860080Y-51917400D01*
X133860080Y-48717400D01*
X136583880Y-48717400D01*
X136583880Y-51917400D01*
X136633163Y-52165165D01*
X136773511Y-52375209D01*
X136983555Y-52515557D01*
X137231320Y-52564840D01*
X140431320Y-52564840D01*
X140679085Y-52515557D01*
X140889129Y-52375209D01*
X141029477Y-52165165D01*
X141078760Y-51917400D01*
X141078760Y-48717400D01*
X141029477Y-48469635D01*
X140889129Y-48259591D01*
X140679085Y-48119243D01*
X140431320Y-48069960D01*
X137231320Y-48069960D01*
X136983555Y-48119243D01*
X136773511Y-48259591D01*
X136633163Y-48469635D01*
X136583880Y-48717400D01*
X133860080Y-48717400D01*
X133810797Y-48469635D01*
X133670449Y-48259591D01*
X133460405Y-48119243D01*
X133212640Y-48069960D01*
X130012640Y-48069960D01*
X129764875Y-48119243D01*
X129554831Y-48259591D01*
X129414483Y-48469635D01*
X129365200Y-48717400D01*
X99330944Y-48717400D01*
X99324620Y-48685611D01*
X99007457Y-48210943D01*
X98532789Y-47893780D01*
X98114213Y-47810520D01*
X97831547Y-47810520D01*
X97412971Y-47893780D01*
X96938303Y-48210943D01*
X96621140Y-48685611D01*
X96509767Y-49245520D01*
X91800320Y-49245520D01*
X91800320Y-48445520D01*
X91751037Y-48197755D01*
X91610689Y-47987711D01*
X91400645Y-47847363D01*
X91152880Y-47798080D01*
X89552880Y-47798080D01*
X89305115Y-47847363D01*
X89095071Y-47987711D01*
X88954723Y-48197755D01*
X88905440Y-48445520D01*
X88905440Y-50045520D01*
X88954723Y-50293285D01*
X89095071Y-50503329D01*
X89305115Y-50643677D01*
X89438986Y-50670305D01*
X89318303Y-50750943D01*
X89001140Y-51225611D01*
X88889767Y-51785520D01*
X89001140Y-52345429D01*
X89318303Y-52820097D01*
X89670638Y-53055520D01*
X89618257Y-53090520D01*
X89343140Y-53090520D01*
X89221509Y-53066326D01*
X89099878Y-53090520D01*
X89099874Y-53090520D01*
X89048797Y-53100680D01*
X87501474Y-53100680D01*
X86984006Y-52583213D01*
X86915105Y-52480095D01*
X86506593Y-52207136D01*
X86146356Y-52135480D01*
X86146352Y-52135480D01*
X86024720Y-52111286D01*
X85903088Y-52135480D01*
X83479352Y-52135480D01*
X83357720Y-52111286D01*
X83236088Y-52135480D01*
X83236084Y-52135480D01*
X82875847Y-52207136D01*
X82467335Y-52480095D01*
X82398433Y-52583214D01*
X79508607Y-55473040D01*
X71661583Y-55473040D01*
X71486869Y-55356300D01*
X71068293Y-55273040D01*
X70785627Y-55273040D01*
X70367051Y-55356300D01*
X69892383Y-55673463D01*
X69575220Y-56148131D01*
X69463847Y-56708040D01*
X69575220Y-57267949D01*
X69892383Y-57742617D01*
X70367051Y-58059780D01*
X70785627Y-58143040D01*
X71068293Y-58143040D01*
X71486869Y-58059780D01*
X71661583Y-57943040D01*
X79898528Y-57943040D01*
X80020160Y-57967234D01*
X80141792Y-57943040D01*
X80141796Y-57943040D01*
X80502033Y-57871384D01*
X80910545Y-57598425D01*
X80979447Y-57495306D01*
X83869273Y-54605480D01*
X85513167Y-54605480D01*
X86030635Y-55122949D01*
X86099535Y-55226065D01*
X86202651Y-55294965D01*
X86202652Y-55294966D01*
X86508047Y-55499024D01*
X86868284Y-55570680D01*
X86868288Y-55570680D01*
X86989920Y-55594874D01*
X87111552Y-55570680D01*
X89089718Y-55570680D01*
X89211350Y-55594874D01*
X89332982Y-55570680D01*
X89332986Y-55570680D01*
X89384063Y-55560520D01*
X89618257Y-55560520D01*
X89670638Y-55595520D01*
X89318303Y-55830943D01*
X89001140Y-56305611D01*
X88889767Y-56865520D01*
X89001140Y-57425429D01*
X89318303Y-57900097D01*
X89792971Y-58217260D01*
X90211547Y-58300520D01*
X90494213Y-58300520D01*
X90912789Y-58217260D01*
X91387457Y-57900097D01*
X91704620Y-57425429D01*
X91815993Y-56865520D01*
X91704620Y-56305611D01*
X91387457Y-55830943D01*
X91035122Y-55595520D01*
X91387457Y-55360097D01*
X91704620Y-54885429D01*
X91815993Y-54325520D01*
X91704620Y-53765611D01*
X91387457Y-53290943D01*
X91207231Y-53170520D01*
X93062361Y-53170520D01*
X93062360Y-57414514D01*
X91338755Y-59138120D01*
X87537807Y-59138120D01*
X87401400Y-59110987D01*
X87264993Y-59138120D01*
X86861000Y-59218479D01*
X86402871Y-59524591D01*
X86325602Y-59640232D01*
X82926952Y-63038883D01*
X82811312Y-63116151D01*
X82734043Y-63231792D01*
X82505199Y-63574281D01*
X82397707Y-64114680D01*
X82424841Y-64251092D01*
X82424840Y-68544794D01*
X79151835Y-71817800D01*
X70560445Y-71817800D01*
X70424039Y-71790667D01*
X70287633Y-71817800D01*
X69883640Y-71898159D01*
X69696331Y-72023315D01*
X71032610Y-70687036D01*
X71148248Y-70609769D01*
X71225515Y-70494131D01*
X71225517Y-70494129D01*
X71454361Y-70151640D01*
X71561853Y-69611240D01*
X71534720Y-69474833D01*
X71534720Y-66360796D01*
X72748280Y-66360796D01*
X72748280Y-67090804D01*
X73027642Y-67765244D01*
X73543836Y-68281438D01*
X74218276Y-68560800D01*
X74948284Y-68560800D01*
X75622724Y-68281438D01*
X76138918Y-67765244D01*
X76418280Y-67090804D01*
X76418280Y-66360796D01*
X76138918Y-65686356D01*
X75978362Y-65525800D01*
X77735840Y-65525800D01*
X77735840Y-67925800D01*
X77785123Y-68173565D01*
X77925471Y-68383609D01*
X78135515Y-68523957D01*
X78383280Y-68573240D01*
X80783280Y-68573240D01*
X81031045Y-68523957D01*
X81241089Y-68383609D01*
X81381437Y-68173565D01*
X81430720Y-67925800D01*
X81430720Y-65525800D01*
X81381437Y-65278035D01*
X81241089Y-65067991D01*
X81031045Y-64927643D01*
X80783280Y-64878360D01*
X78383280Y-64878360D01*
X78135515Y-64927643D01*
X77925471Y-65067991D01*
X77785123Y-65278035D01*
X77735840Y-65525800D01*
X75978362Y-65525800D01*
X75622724Y-65170162D01*
X74948284Y-64890800D01*
X74218276Y-64890800D01*
X73543836Y-65170162D01*
X73027642Y-65686356D01*
X72748280Y-66360796D01*
X71534720Y-66360796D01*
X71534720Y-63337085D01*
X73558045Y-61313760D01*
X81585553Y-61313760D01*
X81721960Y-61340893D01*
X81858367Y-61313760D01*
X82262360Y-61233401D01*
X82720489Y-60927289D01*
X82797759Y-60811646D01*
X85584032Y-58025374D01*
X85704742Y-57975374D01*
X86108414Y-57571702D01*
X86326880Y-57044279D01*
X86326880Y-56473401D01*
X86108414Y-55945978D01*
X85704742Y-55542306D01*
X85177319Y-55323840D01*
X84606441Y-55323840D01*
X84079018Y-55542306D01*
X83675346Y-55945978D01*
X83625346Y-56066688D01*
X81148275Y-58543760D01*
X73120765Y-58543760D01*
X72984359Y-58516627D01*
X72847953Y-58543760D01*
X72443960Y-58624119D01*
X71985831Y-58930231D01*
X71908560Y-59045875D01*
X69266833Y-61687602D01*
X69151192Y-61764871D01*
X69073923Y-61880512D01*
X68845079Y-62223001D01*
X68737587Y-62763400D01*
X68764721Y-62899812D01*
X68764720Y-69037554D01*
X62896512Y-74905763D01*
X62780872Y-74983031D01*
X62703603Y-75098672D01*
X62474759Y-75441161D01*
X62367267Y-75981560D01*
X62394401Y-76117972D01*
X62394400Y-91841221D01*
X59410752Y-94824870D01*
X59295112Y-94902138D01*
X59217843Y-95017779D01*
X58988999Y-95360268D01*
X58881507Y-95900667D01*
X58908640Y-96037074D01*
X58908640Y-96387641D01*
X58907554Y-96388727D01*
X58658640Y-96989658D01*
X57428640Y-96989658D01*
X57179726Y-96388727D01*
X56719793Y-95928794D01*
X56118862Y-95679880D01*
X55468418Y-95679880D01*
X54867487Y-95928794D01*
X54407554Y-96388727D01*
X54158640Y-96989658D01*
X45338200Y-96989658D01*
X45338200Y-85833716D01*
X56071920Y-85833716D01*
X56071920Y-86563724D01*
X56351282Y-87238164D01*
X56867476Y-87754358D01*
X57541916Y-88033720D01*
X58271924Y-88033720D01*
X58946364Y-87754358D01*
X59462558Y-87238164D01*
X59741920Y-86563724D01*
X59741920Y-85833716D01*
X59462558Y-85159276D01*
X58946364Y-84643082D01*
X58271924Y-84363720D01*
X57541916Y-84363720D01*
X56867476Y-84643082D01*
X56351282Y-85159276D01*
X56071920Y-85833716D01*
X45338200Y-85833716D01*
X45338200Y-79998720D01*
X56059480Y-79998720D01*
X56059480Y-82398720D01*
X56108763Y-82646485D01*
X56249111Y-82856529D01*
X56459155Y-82996877D01*
X56706920Y-83046160D01*
X59106920Y-83046160D01*
X59354685Y-82996877D01*
X59564729Y-82856529D01*
X59705077Y-82646485D01*
X59754360Y-82398720D01*
X59754360Y-79998720D01*
X59705077Y-79750955D01*
X59564729Y-79540911D01*
X59354685Y-79400563D01*
X59106920Y-79351280D01*
X56706920Y-79351280D01*
X56459155Y-79400563D01*
X56249111Y-79540911D01*
X56108763Y-79750955D01*
X56059480Y-79998720D01*
X45338200Y-79998720D01*
X45338200Y-76091141D01*
X45841920Y-76091141D01*
X45841920Y-77152139D01*
X46247946Y-78132374D01*
X46998186Y-78882614D01*
X47978421Y-79288640D01*
X49039419Y-79288640D01*
X50019654Y-78882614D01*
X50769894Y-78132374D01*
X51175920Y-77152139D01*
X51175920Y-76091141D01*
X50769894Y-75110906D01*
X50019654Y-74360666D01*
X49039419Y-73954640D01*
X47978421Y-73954640D01*
X46998186Y-74360666D01*
X46247946Y-75110906D01*
X45841920Y-76091141D01*
X45338200Y-76091141D01*
X45338200Y-69484240D01*
X51572087Y-69484240D01*
X51683460Y-70044149D01*
X52000623Y-70518817D01*
X52475291Y-70835980D01*
X52893867Y-70919240D01*
X53176533Y-70919240D01*
X53595109Y-70835980D01*
X54069777Y-70518817D01*
X54386940Y-70044149D01*
X54498313Y-69484240D01*
X54386940Y-68924331D01*
X54069777Y-68449663D01*
X53595109Y-68132500D01*
X53176533Y-68049240D01*
X52893867Y-68049240D01*
X52475291Y-68132500D01*
X52000623Y-68449663D01*
X51683460Y-68924331D01*
X51572087Y-69484240D01*
X45338200Y-69484240D01*
X45338200Y-59946000D01*
X56758560Y-59946000D01*
X56758560Y-61466000D01*
X56807843Y-61713765D01*
X56948191Y-61923809D01*
X57158235Y-62064157D01*
X57339049Y-62100123D01*
X56983376Y-62455796D01*
X56771000Y-62968517D01*
X56771000Y-63523483D01*
X56983376Y-64036204D01*
X57375796Y-64428624D01*
X57586740Y-64516000D01*
X57375796Y-64603376D01*
X56983376Y-64995796D01*
X56771000Y-65508517D01*
X56771000Y-66063483D01*
X56983376Y-66576204D01*
X57375796Y-66968624D01*
X57888517Y-67181000D01*
X58443483Y-67181000D01*
X58956204Y-66968624D01*
X59348624Y-66576204D01*
X59561000Y-66063483D01*
X59561000Y-65508517D01*
X59354823Y-65010760D01*
X62483720Y-65010760D01*
X62483720Y-66530760D01*
X62533003Y-66778525D01*
X62673351Y-66988569D01*
X62883395Y-67128917D01*
X63131160Y-67178200D01*
X64651160Y-67178200D01*
X64898925Y-67128917D01*
X65108969Y-66988569D01*
X65249317Y-66778525D01*
X65298600Y-66530760D01*
X65298600Y-65010760D01*
X65249317Y-64762995D01*
X65108969Y-64552951D01*
X64898925Y-64412603D01*
X64718111Y-64376637D01*
X65073784Y-64020964D01*
X65286160Y-63508243D01*
X65286160Y-62953277D01*
X65073784Y-62440556D01*
X64681364Y-62048136D01*
X64470420Y-61960760D01*
X64681364Y-61873384D01*
X65073784Y-61480964D01*
X65286160Y-60968243D01*
X65286160Y-60413277D01*
X65073784Y-59900556D01*
X64681364Y-59508136D01*
X64168643Y-59295760D01*
X63613677Y-59295760D01*
X63100956Y-59508136D01*
X62708536Y-59900556D01*
X62496160Y-60413277D01*
X62496160Y-60968243D01*
X62708536Y-61480964D01*
X63100956Y-61873384D01*
X63311900Y-61960760D01*
X63100956Y-62048136D01*
X62708536Y-62440556D01*
X62496160Y-62953277D01*
X62496160Y-63508243D01*
X62708536Y-64020964D01*
X63064209Y-64376637D01*
X62883395Y-64412603D01*
X62673351Y-64552951D01*
X62533003Y-64762995D01*
X62483720Y-65010760D01*
X59354823Y-65010760D01*
X59348624Y-64995796D01*
X58956204Y-64603376D01*
X58745260Y-64516000D01*
X58956204Y-64428624D01*
X59348624Y-64036204D01*
X59561000Y-63523483D01*
X59561000Y-62968517D01*
X59348624Y-62455796D01*
X58992951Y-62100123D01*
X59173765Y-62064157D01*
X59383809Y-61923809D01*
X59524157Y-61713765D01*
X59573440Y-61466000D01*
X59573440Y-59946000D01*
X59524157Y-59698235D01*
X59383809Y-59488191D01*
X59173765Y-59347843D01*
X58926000Y-59298560D01*
X57406000Y-59298560D01*
X57158235Y-59347843D01*
X56948191Y-59488191D01*
X56807843Y-59698235D01*
X56758560Y-59946000D01*
X45338200Y-59946000D01*
X45338200Y-56498801D01*
X51600200Y-56498801D01*
X51600200Y-57069679D01*
X51818666Y-57597102D01*
X52222338Y-58000774D01*
X52749761Y-58219240D01*
X53320639Y-58219240D01*
X53848062Y-58000774D01*
X54251734Y-57597102D01*
X54470200Y-57069679D01*
X54470200Y-56498801D01*
X54438637Y-56422601D01*
X56791960Y-56422601D01*
X56791960Y-56993479D01*
X57010426Y-57520902D01*
X57414098Y-57924574D01*
X57941521Y-58143040D01*
X58512399Y-58143040D01*
X59039822Y-57924574D01*
X59443494Y-57520902D01*
X59661960Y-56993479D01*
X59661960Y-56422601D01*
X59443494Y-55895178D01*
X59039822Y-55491506D01*
X58512399Y-55273040D01*
X57941521Y-55273040D01*
X57414098Y-55491506D01*
X57010426Y-55895178D01*
X56791960Y-56422601D01*
X54438637Y-56422601D01*
X54251734Y-55971378D01*
X53848062Y-55567706D01*
X53320639Y-55349240D01*
X52749761Y-55349240D01*
X52222338Y-55567706D01*
X51818666Y-55971378D01*
X51600200Y-56498801D01*
X45338200Y-56498801D01*
X45338200Y-52339240D01*
X51612727Y-52339240D01*
X51724100Y-52899149D01*
X52041263Y-53373817D01*
X52515931Y-53690980D01*
X52934507Y-53774240D01*
X53217173Y-53774240D01*
X53635749Y-53690980D01*
X54110417Y-53373817D01*
X54427580Y-52899149D01*
X54538953Y-52339240D01*
X54427580Y-51779331D01*
X54110417Y-51304663D01*
X53635749Y-50987500D01*
X53217173Y-50904240D01*
X52934507Y-50904240D01*
X52515931Y-50987500D01*
X52041263Y-51304663D01*
X51724100Y-51779331D01*
X51612727Y-52339240D01*
X45338200Y-52339240D01*
X45338200Y-48709400D01*
X56504920Y-48709400D01*
X56504920Y-50909400D01*
X56554203Y-51157165D01*
X56694551Y-51367209D01*
X56904595Y-51507557D01*
X57152360Y-51556840D01*
X59352360Y-51556840D01*
X59600125Y-51507557D01*
X59810169Y-51367209D01*
X59950517Y-51157165D01*
X59999800Y-50909400D01*
X59999800Y-48709400D01*
X59950517Y-48461635D01*
X59810169Y-48251591D01*
X59600125Y-48111243D01*
X59352360Y-48061960D01*
X57152360Y-48061960D01*
X56904595Y-48111243D01*
X56694551Y-48251591D01*
X56554203Y-48461635D01*
X56504920Y-48709400D01*
X45338200Y-48709400D01*
X45338200Y-44739560D01*
X65302968Y-44739560D01*
X65422102Y-45338487D01*
X65761367Y-45846233D01*
X66005803Y-46009560D01*
X65761367Y-46172887D01*
X65422102Y-46680633D01*
X65302968Y-47279560D01*
X65422102Y-47878487D01*
X65718736Y-48322431D01*
X65510231Y-48461751D01*
X65369883Y-48671795D01*
X65320600Y-48919560D01*
X65320600Y-50719560D01*
X65369883Y-50967325D01*
X65510231Y-51177369D01*
X65720275Y-51317717D01*
X65968040Y-51367000D01*
X67768040Y-51367000D01*
X68015805Y-51317717D01*
X68225849Y-51177369D01*
X68366197Y-50967325D01*
X68415480Y-50719560D01*
X68415480Y-49364396D01*
X74004320Y-49364396D01*
X74004320Y-50094404D01*
X74283682Y-50768844D01*
X74799876Y-51285038D01*
X75474316Y-51564400D01*
X76204324Y-51564400D01*
X76878764Y-51285038D01*
X77394958Y-50768844D01*
X77674320Y-50094404D01*
X77674320Y-49364396D01*
X77394958Y-48689956D01*
X76878764Y-48173762D01*
X76204324Y-47894400D01*
X75474316Y-47894400D01*
X74799876Y-48173762D01*
X74283682Y-48689956D01*
X74004320Y-49364396D01*
X68415480Y-49364396D01*
X68415480Y-48919560D01*
X68366197Y-48671795D01*
X68225849Y-48461751D01*
X68017344Y-48322431D01*
X68313978Y-47878487D01*
X68433112Y-47279560D01*
X68313978Y-46680633D01*
X67974713Y-46172887D01*
X67730277Y-46009560D01*
X67974713Y-45846233D01*
X68313978Y-45338487D01*
X68433112Y-44739560D01*
X68313978Y-44140633D01*
X67974713Y-43632887D01*
X67819834Y-43529400D01*
X73991880Y-43529400D01*
X73991880Y-45929400D01*
X74041163Y-46177165D01*
X74181511Y-46387209D01*
X74391555Y-46527557D01*
X74639320Y-46576840D01*
X77039320Y-46576840D01*
X77287085Y-46527557D01*
X77497129Y-46387209D01*
X77637477Y-46177165D01*
X77686760Y-45929400D01*
X77686760Y-44058840D01*
X83428767Y-44058840D01*
X83540140Y-44618749D01*
X83857303Y-45093417D01*
X84331971Y-45410580D01*
X84750547Y-45493840D01*
X85033213Y-45493840D01*
X85451789Y-45410580D01*
X85926457Y-45093417D01*
X86243620Y-44618749D01*
X86354993Y-44058840D01*
X86243620Y-43498931D01*
X85926457Y-43024263D01*
X85451789Y-42707100D01*
X85033213Y-42623840D01*
X84750547Y-42623840D01*
X84331971Y-42707100D01*
X83857303Y-43024263D01*
X83540140Y-43498931D01*
X83428767Y-44058840D01*
X77686760Y-44058840D01*
X77686760Y-43529400D01*
X77637477Y-43281635D01*
X77497129Y-43071591D01*
X77287085Y-42931243D01*
X77039320Y-42881960D01*
X74639320Y-42881960D01*
X74391555Y-42931243D01*
X74181511Y-43071591D01*
X74041163Y-43281635D01*
X73991880Y-43529400D01*
X67819834Y-43529400D01*
X67466967Y-43293622D01*
X67019222Y-43204560D01*
X66716858Y-43204560D01*
X66269113Y-43293622D01*
X65761367Y-43632887D01*
X65422102Y-44140633D01*
X65302968Y-44739560D01*
X45338200Y-44739560D01*
X45338200Y-39571021D01*
X45872400Y-39571021D01*
X45872400Y-40632019D01*
X46278426Y-41612254D01*
X47028666Y-42362494D01*
X48008901Y-42768520D01*
X49069899Y-42768520D01*
X50050134Y-42362494D01*
X50446850Y-41965778D01*
X88738200Y-41965778D01*
X88738200Y-42616222D01*
X88987114Y-43217153D01*
X89447047Y-43677086D01*
X90047978Y-43926000D01*
X90698422Y-43926000D01*
X91299353Y-43677086D01*
X91759286Y-43217153D01*
X92008200Y-42616222D01*
X92008200Y-41965778D01*
X96238200Y-41965778D01*
X96238200Y-42616222D01*
X96487114Y-43217153D01*
X96947047Y-43677086D01*
X97547978Y-43926000D01*
X98198422Y-43926000D01*
X98799353Y-43677086D01*
X99126799Y-43349640D01*
X102392200Y-43349640D01*
X102392200Y-44869640D01*
X102441483Y-45117405D01*
X102581831Y-45327449D01*
X102791875Y-45467797D01*
X103039640Y-45517080D01*
X104559640Y-45517080D01*
X104807405Y-45467797D01*
X105017449Y-45327449D01*
X105157797Y-45117405D01*
X105207080Y-44869640D01*
X105207080Y-43349640D01*
X105157797Y-43101875D01*
X105017449Y-42891831D01*
X104807405Y-42751483D01*
X104626591Y-42715517D01*
X104982264Y-42359844D01*
X105194640Y-41847123D01*
X105194640Y-41589960D01*
X106446247Y-41589960D01*
X106557620Y-42149869D01*
X106874783Y-42624537D01*
X107349451Y-42941700D01*
X107768027Y-43024960D01*
X108050693Y-43024960D01*
X108469269Y-42941700D01*
X108943937Y-42624537D01*
X109261100Y-42149869D01*
X109368431Y-41610280D01*
X111074127Y-41610280D01*
X111185500Y-42170189D01*
X111502663Y-42644857D01*
X111977331Y-42962020D01*
X112395907Y-43045280D01*
X112678573Y-43045280D01*
X113097149Y-42962020D01*
X113571817Y-42644857D01*
X113888980Y-42170189D01*
X114000353Y-41610280D01*
X113888980Y-41050371D01*
X113571817Y-40575703D01*
X113097149Y-40258540D01*
X112678573Y-40175280D01*
X112395907Y-40175280D01*
X111977331Y-40258540D01*
X111502663Y-40575703D01*
X111185500Y-41050371D01*
X111074127Y-41610280D01*
X109368431Y-41610280D01*
X109372473Y-41589960D01*
X109261100Y-41030051D01*
X108943937Y-40555383D01*
X108469269Y-40238220D01*
X108050693Y-40154960D01*
X107768027Y-40154960D01*
X107349451Y-40238220D01*
X106874783Y-40555383D01*
X106557620Y-41030051D01*
X106446247Y-41589960D01*
X105194640Y-41589960D01*
X105194640Y-41292157D01*
X104982264Y-40779436D01*
X104589844Y-40387016D01*
X104378900Y-40299640D01*
X104589844Y-40212264D01*
X104982264Y-39819844D01*
X105142264Y-39433569D01*
X106311273Y-38264560D01*
X115635760Y-38264560D01*
X115635760Y-39784560D01*
X115685043Y-40032325D01*
X115825391Y-40242369D01*
X116035435Y-40382717D01*
X116216249Y-40418683D01*
X115860576Y-40774356D01*
X115648200Y-41287077D01*
X115648200Y-41842043D01*
X115860576Y-42354764D01*
X116252996Y-42747184D01*
X116463940Y-42834560D01*
X116252996Y-42921936D01*
X115860576Y-43314356D01*
X115648200Y-43827077D01*
X115648200Y-44382043D01*
X115860576Y-44894764D01*
X116252996Y-45287184D01*
X116765717Y-45499560D01*
X117320683Y-45499560D01*
X117833404Y-45287184D01*
X118225824Y-44894764D01*
X118438200Y-44382043D01*
X118438200Y-43827077D01*
X118225824Y-43314356D01*
X117833404Y-42921936D01*
X117622460Y-42834560D01*
X117833404Y-42747184D01*
X118225824Y-42354764D01*
X118438200Y-41842043D01*
X118438200Y-41287077D01*
X118225824Y-40774356D01*
X117870151Y-40418683D01*
X118050965Y-40382717D01*
X118261009Y-40242369D01*
X118401357Y-40032325D01*
X118450640Y-39784560D01*
X118450640Y-38264560D01*
X120451600Y-38264560D01*
X120451600Y-39784560D01*
X120500883Y-40032325D01*
X120641231Y-40242369D01*
X120851275Y-40382717D01*
X121032089Y-40418683D01*
X120676416Y-40774356D01*
X120464040Y-41287077D01*
X120464040Y-41842043D01*
X120676416Y-42354764D01*
X121068836Y-42747184D01*
X121279780Y-42834560D01*
X121068836Y-42921936D01*
X120676416Y-43314356D01*
X120464040Y-43827077D01*
X120464040Y-44382043D01*
X120676416Y-44894764D01*
X121068836Y-45287184D01*
X121581557Y-45499560D01*
X122136523Y-45499560D01*
X122649244Y-45287184D01*
X123041664Y-44894764D01*
X123254040Y-44382043D01*
X123254040Y-43827077D01*
X123041664Y-43314356D01*
X122649244Y-42921936D01*
X122438300Y-42834560D01*
X122649244Y-42747184D01*
X123041664Y-42354764D01*
X123254040Y-41842043D01*
X123254040Y-41287077D01*
X123041664Y-40774356D01*
X122685991Y-40418683D01*
X122866805Y-40382717D01*
X123076849Y-40242369D01*
X123217197Y-40032325D01*
X123266480Y-39784560D01*
X123266480Y-38264560D01*
X123217197Y-38016795D01*
X123076849Y-37806751D01*
X122866805Y-37666403D01*
X122619040Y-37617120D01*
X121099040Y-37617120D01*
X120851275Y-37666403D01*
X120641231Y-37806751D01*
X120500883Y-38016795D01*
X120451600Y-38264560D01*
X118450640Y-38264560D01*
X118401357Y-38016795D01*
X118261009Y-37806751D01*
X118050965Y-37666403D01*
X117803200Y-37617120D01*
X116283200Y-37617120D01*
X116035435Y-37666403D01*
X115825391Y-37806751D01*
X115685043Y-38016795D01*
X115635760Y-38264560D01*
X106311273Y-38264560D01*
X107867194Y-36708640D01*
X118584417Y-36708640D01*
X118759131Y-36825380D01*
X119177707Y-36908640D01*
X119460373Y-36908640D01*
X119878949Y-36825380D01*
X120353617Y-36508217D01*
X120588646Y-36156472D01*
X120642506Y-36286502D01*
X121046178Y-36690174D01*
X121573601Y-36908640D01*
X122144479Y-36908640D01*
X122671902Y-36690174D01*
X123075574Y-36286502D01*
X123294040Y-35759079D01*
X123294040Y-35188201D01*
X123248145Y-35077400D01*
X129333854Y-35077400D01*
X129507316Y-35949454D01*
X130001295Y-36688745D01*
X130740586Y-37182724D01*
X131392512Y-37312400D01*
X131832768Y-37312400D01*
X132484694Y-37182724D01*
X133223985Y-36688745D01*
X133717964Y-35949454D01*
X133891426Y-35077400D01*
X136552534Y-35077400D01*
X136725996Y-35949454D01*
X137219975Y-36688745D01*
X137959266Y-37182724D01*
X138611192Y-37312400D01*
X139051448Y-37312400D01*
X139703374Y-37182724D01*
X140442665Y-36688745D01*
X140936644Y-35949454D01*
X141110106Y-35077400D01*
X140936644Y-34205346D01*
X140442665Y-33466055D01*
X139703374Y-32972076D01*
X139051448Y-32842400D01*
X138611192Y-32842400D01*
X137959266Y-32972076D01*
X137219975Y-33466055D01*
X136725996Y-34205346D01*
X136552534Y-35077400D01*
X133891426Y-35077400D01*
X133717964Y-34205346D01*
X133223985Y-33466055D01*
X132484694Y-32972076D01*
X131832768Y-32842400D01*
X131392512Y-32842400D01*
X130740586Y-32972076D01*
X130001295Y-33466055D01*
X129507316Y-34205346D01*
X129333854Y-35077400D01*
X123248145Y-35077400D01*
X123075574Y-34660778D01*
X122671902Y-34257106D01*
X122144479Y-34038640D01*
X121573601Y-34038640D01*
X121046178Y-34257106D01*
X120642506Y-34660778D01*
X120588646Y-34790808D01*
X120353617Y-34439063D01*
X119878949Y-34121900D01*
X119460373Y-34038640D01*
X119177707Y-34038640D01*
X118759131Y-34121900D01*
X118584417Y-34238640D01*
X107477270Y-34238640D01*
X107355639Y-34214446D01*
X107234008Y-34238640D01*
X107234004Y-34238640D01*
X106873767Y-34310296D01*
X106873765Y-34310297D01*
X106873766Y-34310297D01*
X106568372Y-34514354D01*
X106568371Y-34514355D01*
X106465255Y-34583255D01*
X106396355Y-34686371D01*
X103395711Y-37687016D01*
X103009436Y-37847016D01*
X102617016Y-38239436D01*
X102404640Y-38752157D01*
X102404640Y-39307123D01*
X102617016Y-39819844D01*
X103009436Y-40212264D01*
X103220380Y-40299640D01*
X103009436Y-40387016D01*
X102617016Y-40779436D01*
X102404640Y-41292157D01*
X102404640Y-41847123D01*
X102617016Y-42359844D01*
X102972689Y-42715517D01*
X102791875Y-42751483D01*
X102581831Y-42891831D01*
X102441483Y-43101875D01*
X102392200Y-43349640D01*
X99126799Y-43349640D01*
X99259286Y-43217153D01*
X99508200Y-42616222D01*
X99508200Y-41965778D01*
X99259286Y-41364847D01*
X98799353Y-40904914D01*
X98198422Y-40656000D01*
X97547978Y-40656000D01*
X96947047Y-40904914D01*
X96487114Y-41364847D01*
X96238200Y-41965778D01*
X92008200Y-41965778D01*
X91759286Y-41364847D01*
X91299353Y-40904914D01*
X90698422Y-40656000D01*
X90047978Y-40656000D01*
X89447047Y-40904914D01*
X88987114Y-41364847D01*
X88738200Y-41965778D01*
X50446850Y-41965778D01*
X50800374Y-41612254D01*
X51206400Y-40632019D01*
X51206400Y-39571021D01*
X51116425Y-39353801D01*
X51640840Y-39353801D01*
X51640840Y-39924679D01*
X51859306Y-40452102D01*
X52262978Y-40855774D01*
X52790401Y-41074240D01*
X53361279Y-41074240D01*
X53888702Y-40855774D01*
X54292374Y-40452102D01*
X54510840Y-39924679D01*
X54510840Y-39649400D01*
X56483370Y-39649400D01*
X56618026Y-40326363D01*
X57001495Y-40900265D01*
X57575397Y-41283734D01*
X58081480Y-41384400D01*
X58423240Y-41384400D01*
X58929323Y-41283734D01*
X59503225Y-40900265D01*
X59886694Y-40326363D01*
X60021350Y-39649400D01*
X59886694Y-38972437D01*
X59503225Y-38398535D01*
X58929323Y-38015066D01*
X58423240Y-37914400D01*
X58081480Y-37914400D01*
X57575397Y-38015066D01*
X57001495Y-38398535D01*
X56618026Y-38972437D01*
X56483370Y-39649400D01*
X54510840Y-39649400D01*
X54510840Y-39353801D01*
X54292374Y-38826378D01*
X53888702Y-38422706D01*
X53361279Y-38204240D01*
X52790401Y-38204240D01*
X52262978Y-38422706D01*
X51859306Y-38826378D01*
X51640840Y-39353801D01*
X51116425Y-39353801D01*
X50800374Y-38590786D01*
X50050134Y-37840546D01*
X49069899Y-37434520D01*
X48008901Y-37434520D01*
X47028666Y-37840546D01*
X46278426Y-38590786D01*
X45872400Y-39571021D01*
X45338200Y-39571021D01*
X45338200Y-36642040D01*
X86079450Y-36642040D01*
X86214106Y-37319003D01*
X86597575Y-37892905D01*
X87171477Y-38276374D01*
X87677560Y-38377040D01*
X88019320Y-38377040D01*
X88525403Y-38276374D01*
X89099305Y-37892905D01*
X89482774Y-37319003D01*
X89617430Y-36642040D01*
X89482774Y-35965077D01*
X89200110Y-35542040D01*
X96261000Y-35542040D01*
X96261000Y-37742040D01*
X96310283Y-37989805D01*
X96450631Y-38199849D01*
X96660675Y-38340197D01*
X96908440Y-38389480D01*
X99108440Y-38389480D01*
X99356205Y-38340197D01*
X99566249Y-38199849D01*
X99706597Y-37989805D01*
X99755880Y-37742040D01*
X99755880Y-35542040D01*
X99706597Y-35294275D01*
X99566249Y-35084231D01*
X99356205Y-34943883D01*
X99108440Y-34894600D01*
X96908440Y-34894600D01*
X96660675Y-34943883D01*
X96450631Y-35084231D01*
X96310283Y-35294275D01*
X96261000Y-35542040D01*
X89200110Y-35542040D01*
X89099305Y-35391175D01*
X88525403Y-35007706D01*
X88019320Y-34907040D01*
X87677560Y-34907040D01*
X87171477Y-35007706D01*
X86597575Y-35391175D01*
X86214106Y-35965077D01*
X86079450Y-36642040D01*
X45338200Y-36642040D01*
X45338200Y-34117280D01*
X52818894Y-34117280D01*
X52992356Y-34989334D01*
X53486335Y-35728625D01*
X54225626Y-36222604D01*
X54877552Y-36352280D01*
X55317808Y-36352280D01*
X55969734Y-36222604D01*
X56709025Y-35728625D01*
X57203004Y-34989334D01*
X57376466Y-34117280D01*
X57203004Y-33245226D01*
X56716606Y-32517280D01*
X68090240Y-32517280D01*
X68090240Y-35717280D01*
X68139523Y-35965045D01*
X68279871Y-36175089D01*
X68489915Y-36315437D01*
X68737680Y-36364720D01*
X71937680Y-36364720D01*
X72185445Y-36315437D01*
X72395489Y-36175089D01*
X72535837Y-35965045D01*
X72585120Y-35717280D01*
X72585120Y-33220156D01*
X77768600Y-33220156D01*
X77768600Y-33950164D01*
X78047962Y-34624604D01*
X78564156Y-35140798D01*
X79238596Y-35420160D01*
X79968604Y-35420160D01*
X80643044Y-35140798D01*
X81159238Y-34624604D01*
X81438600Y-33950164D01*
X81438600Y-33220156D01*
X81159238Y-32545716D01*
X80643044Y-32029522D01*
X79968604Y-31750160D01*
X79238596Y-31750160D01*
X78564156Y-32029522D01*
X78047962Y-32545716D01*
X77768600Y-33220156D01*
X72585120Y-33220156D01*
X72585120Y-32517280D01*
X72535837Y-32269515D01*
X72395489Y-32059471D01*
X72185445Y-31919123D01*
X71937680Y-31869840D01*
X68737680Y-31869840D01*
X68489915Y-31919123D01*
X68279871Y-32059471D01*
X68139523Y-32269515D01*
X68090240Y-32517280D01*
X56716606Y-32517280D01*
X56709025Y-32505935D01*
X55969734Y-32011956D01*
X55317808Y-31882280D01*
X54877552Y-31882280D01*
X54225626Y-32011956D01*
X53486335Y-32505935D01*
X52992356Y-33245226D01*
X52818894Y-34117280D01*
X45338200Y-34117280D01*
X45338200Y-27318986D01*
X46470094Y-27318986D01*
X46477120Y-27745030D01*
X46477120Y-28171209D01*
X46484440Y-28188880D01*
X46484755Y-28208003D01*
X46796760Y-28961250D01*
X46806467Y-28966322D01*
X46817379Y-28992666D01*
X47446094Y-29621381D01*
X47472438Y-29632293D01*
X47477510Y-29642000D01*
X47873828Y-29798554D01*
X48267551Y-29961640D01*
X48286680Y-29961640D01*
X48304466Y-29968666D01*
X48730510Y-29961640D01*
X49156689Y-29961640D01*
X49174360Y-29954320D01*
X49193483Y-29954005D01*
X49946730Y-29642000D01*
X49951802Y-29632293D01*
X49978146Y-29621381D01*
X50606861Y-28992666D01*
X50617773Y-28966322D01*
X50627480Y-28961250D01*
X50784034Y-28564932D01*
X50947120Y-28171209D01*
X50947120Y-28152080D01*
X50954146Y-28134294D01*
X50947120Y-27708250D01*
X50947120Y-27584400D01*
X52818894Y-27584400D01*
X52992356Y-28456454D01*
X53486335Y-29195745D01*
X54225626Y-29689724D01*
X54877552Y-29819400D01*
X55317808Y-29819400D01*
X55969734Y-29689724D01*
X56709025Y-29195745D01*
X57203004Y-28456454D01*
X57376466Y-27584400D01*
X57203004Y-26712346D01*
X56716606Y-25984400D01*
X68090240Y-25984400D01*
X68090240Y-29184400D01*
X68139523Y-29432165D01*
X68279871Y-29642209D01*
X68489915Y-29782557D01*
X68737680Y-29831840D01*
X71937680Y-29831840D01*
X72185445Y-29782557D01*
X72395489Y-29642209D01*
X72535837Y-29432165D01*
X72585120Y-29184400D01*
X72585120Y-27385160D01*
X77756160Y-27385160D01*
X77756160Y-29785160D01*
X77805443Y-30032925D01*
X77945791Y-30242969D01*
X78155835Y-30383317D01*
X78403600Y-30432600D01*
X80803600Y-30432600D01*
X81051365Y-30383317D01*
X81261409Y-30242969D01*
X81401757Y-30032925D01*
X81451040Y-29785160D01*
X81451040Y-28813188D01*
X107661710Y-28813188D01*
X107661710Y-30084333D01*
X107742102Y-30488492D01*
X108048341Y-30946810D01*
X108506659Y-31253048D01*
X109047280Y-31360584D01*
X109587902Y-31253048D01*
X110046220Y-30946810D01*
X110317280Y-30541140D01*
X110588341Y-30946810D01*
X111046659Y-31253048D01*
X111587280Y-31360584D01*
X112127902Y-31253048D01*
X112586220Y-30946810D01*
X112857280Y-30541140D01*
X113128341Y-30946810D01*
X113586659Y-31253048D01*
X114127280Y-31360584D01*
X114667902Y-31253048D01*
X115126220Y-30946810D01*
X115432458Y-30488492D01*
X115450855Y-30396000D01*
X117292200Y-30396000D01*
X117292200Y-32596000D01*
X117341483Y-32843765D01*
X117481831Y-33053809D01*
X117691875Y-33194157D01*
X117939640Y-33243440D01*
X120139640Y-33243440D01*
X120387405Y-33194157D01*
X120597449Y-33053809D01*
X120737797Y-32843765D01*
X120787080Y-32596000D01*
X120787080Y-31496000D01*
X122350650Y-31496000D01*
X122485306Y-32172963D01*
X122868775Y-32746865D01*
X123442677Y-33130334D01*
X123948760Y-33231000D01*
X124290520Y-33231000D01*
X124796603Y-33130334D01*
X125370505Y-32746865D01*
X125753974Y-32172963D01*
X125888630Y-31496000D01*
X125753974Y-30819037D01*
X125370505Y-30245135D01*
X124796603Y-29861666D01*
X124290520Y-29761000D01*
X123948760Y-29761000D01*
X123442677Y-29861666D01*
X122868775Y-30245135D01*
X122485306Y-30819037D01*
X122350650Y-31496000D01*
X120787080Y-31496000D01*
X120787080Y-30396000D01*
X120737797Y-30148235D01*
X120597449Y-29938191D01*
X120387405Y-29797843D01*
X120139640Y-29748560D01*
X117939640Y-29748560D01*
X117691875Y-29797843D01*
X117481831Y-29938191D01*
X117341483Y-30148235D01*
X117292200Y-30396000D01*
X115450855Y-30396000D01*
X115512850Y-30084333D01*
X115512850Y-28813187D01*
X115432458Y-28409028D01*
X115126219Y-27950710D01*
X114667901Y-27644472D01*
X114127280Y-27536936D01*
X113586658Y-27644472D01*
X113128340Y-27950711D01*
X112857280Y-28356381D01*
X112586219Y-27950710D01*
X112127901Y-27644472D01*
X111587280Y-27536936D01*
X111046658Y-27644472D01*
X110588340Y-27950711D01*
X110317280Y-28356381D01*
X110046219Y-27950710D01*
X109587901Y-27644472D01*
X109047280Y-27536936D01*
X108506658Y-27644472D01*
X108048340Y-27950711D01*
X107742102Y-28409029D01*
X107661710Y-28813188D01*
X81451040Y-28813188D01*
X81451040Y-27385160D01*
X81434846Y-27303746D01*
X135573294Y-27303746D01*
X135580320Y-27729790D01*
X135580320Y-28155969D01*
X135587640Y-28173640D01*
X135587955Y-28192763D01*
X135899960Y-28946010D01*
X135909667Y-28951082D01*
X135920579Y-28977426D01*
X136549294Y-29606141D01*
X136575638Y-29617053D01*
X136580710Y-29626760D01*
X136977028Y-29783314D01*
X137370751Y-29946400D01*
X137389880Y-29946400D01*
X137407666Y-29953426D01*
X137833710Y-29946400D01*
X138259889Y-29946400D01*
X138277560Y-29939080D01*
X138296683Y-29938765D01*
X139049930Y-29626760D01*
X139055002Y-29617053D01*
X139081346Y-29606141D01*
X139710061Y-28977426D01*
X139720973Y-28951082D01*
X139730680Y-28946010D01*
X139887234Y-28549692D01*
X140050320Y-28155969D01*
X140050320Y-28136840D01*
X140057346Y-28119054D01*
X140050320Y-27693010D01*
X140050320Y-27266831D01*
X140043000Y-27249160D01*
X140042685Y-27230037D01*
X139730680Y-26476790D01*
X139720973Y-26471718D01*
X139710061Y-26445374D01*
X139081346Y-25816659D01*
X139055002Y-25805747D01*
X139049930Y-25796040D01*
X138653612Y-25639486D01*
X138259889Y-25476400D01*
X138240760Y-25476400D01*
X138222974Y-25469374D01*
X137796930Y-25476400D01*
X137370751Y-25476400D01*
X137353080Y-25483720D01*
X137333957Y-25484035D01*
X136580710Y-25796040D01*
X136575638Y-25805747D01*
X136549294Y-25816659D01*
X135920579Y-26445374D01*
X135909667Y-26471718D01*
X135899960Y-26476790D01*
X135743406Y-26873108D01*
X135580320Y-27266831D01*
X135580320Y-27285960D01*
X135573294Y-27303746D01*
X81434846Y-27303746D01*
X81401757Y-27137395D01*
X81261409Y-26927351D01*
X81051365Y-26787003D01*
X80803600Y-26737720D01*
X78403600Y-26737720D01*
X78155835Y-26787003D01*
X77945791Y-26927351D01*
X77805443Y-27137395D01*
X77756160Y-27385160D01*
X72585120Y-27385160D01*
X72585120Y-25984400D01*
X72535837Y-25736635D01*
X72395489Y-25526591D01*
X72185445Y-25386243D01*
X71937680Y-25336960D01*
X68737680Y-25336960D01*
X68489915Y-25386243D01*
X68279871Y-25526591D01*
X68139523Y-25736635D01*
X68090240Y-25984400D01*
X56716606Y-25984400D01*
X56709025Y-25973055D01*
X55969734Y-25479076D01*
X55317808Y-25349400D01*
X54877552Y-25349400D01*
X54225626Y-25479076D01*
X53486335Y-25973055D01*
X52992356Y-26712346D01*
X52818894Y-27584400D01*
X50947120Y-27584400D01*
X50947120Y-27282071D01*
X50939800Y-27264400D01*
X50939485Y-27245277D01*
X50627480Y-26492030D01*
X50617773Y-26486958D01*
X50606861Y-26460614D01*
X49978146Y-25831899D01*
X49951802Y-25820987D01*
X49946730Y-25811280D01*
X49550412Y-25654726D01*
X49156689Y-25491640D01*
X49137560Y-25491640D01*
X49119774Y-25484614D01*
X48693730Y-25491640D01*
X48267551Y-25491640D01*
X48249880Y-25498960D01*
X48230757Y-25499275D01*
X47477510Y-25811280D01*
X47472438Y-25820987D01*
X47446094Y-25831899D01*
X46817379Y-26460614D01*
X46806467Y-26486958D01*
X46796760Y-26492030D01*
X46640206Y-26888348D01*
X46477120Y-27282071D01*
X46477120Y-27301200D01*
X46470094Y-27318986D01*
X45338200Y-27318986D01*
X45338200Y-23743120D01*
X141534680Y-23743120D01*
X141534680Y-48502714D01*
X141534680Y-48502714D01*
G37*
X141534680Y-48502714D02*
X141407131Y-112700133D01*
X79338186Y-112863438D01*
X45338200Y-112833354D01*
X45338200Y-111070825D01*
X45345041Y-110850201D01*
X45338200Y-110809206D01*
X45338200Y-108350066D01*
X46470094Y-108350066D01*
X46477120Y-108776110D01*
X46477120Y-109202289D01*
X46484440Y-109219960D01*
X46484755Y-109239083D01*
X46796760Y-109992330D01*
X46806467Y-109997402D01*
X46817379Y-110023746D01*
X47446094Y-110652461D01*
X47472438Y-110663373D01*
X47477510Y-110673080D01*
X47873828Y-110829634D01*
X48267551Y-110992720D01*
X48286680Y-110992720D01*
X48304466Y-110999746D01*
X48730510Y-110992720D01*
X49156689Y-110992720D01*
X49174360Y-110985400D01*
X49193483Y-110985085D01*
X49946730Y-110673080D01*
X49951802Y-110663373D01*
X49978146Y-110652461D01*
X50606861Y-110023746D01*
X50617773Y-109997402D01*
X50627480Y-109992330D01*
X50784034Y-109596012D01*
X50947120Y-109202289D01*
X50947120Y-109183160D01*
X50954146Y-109165374D01*
X50947120Y-108739330D01*
X50947120Y-108313151D01*
X50939800Y-108295480D01*
X50939485Y-108276357D01*
X50627480Y-107523110D01*
X50617773Y-107518038D01*
X50606861Y-107491694D01*
X49978146Y-106862979D01*
X49951802Y-106852067D01*
X49946730Y-106842360D01*
X49550412Y-106685806D01*
X49156689Y-106522720D01*
X49137560Y-106522720D01*
X49119774Y-106515694D01*
X48693730Y-106522720D01*
X48267551Y-106522720D01*
X48249880Y-106530040D01*
X48230757Y-106530355D01*
X47477510Y-106842360D01*
X47472438Y-106852067D01*
X47446094Y-106862979D01*
X46817379Y-107491694D01*
X46806467Y-107518038D01*
X46796760Y-107523110D01*
X46640206Y-107919428D01*
X46477120Y-108313151D01*
X46477120Y-108332280D01*
X46470094Y-108350066D01*
X45338200Y-108350066D01*
X45338200Y-103489658D01*
X54158640Y-103489658D01*
X54158640Y-104140102D01*
X54407554Y-104741033D01*
X54867487Y-105200966D01*
X55468418Y-105449880D01*
X56118862Y-105449880D01*
X56719793Y-105200966D01*
X57179726Y-104741033D01*
X57428640Y-104140102D01*
X57428640Y-103489658D01*
X58658640Y-103489658D01*
X58658640Y-104140102D01*
X58907554Y-104741033D01*
X59367487Y-105200966D01*
X59968418Y-105449880D01*
X60618862Y-105449880D01*
X61219793Y-105200966D01*
X61679726Y-104741033D01*
X61754270Y-104561067D01*
X78030070Y-104561067D01*
X78030070Y-105832212D01*
X78110462Y-106236371D01*
X78416700Y-106694689D01*
X78875018Y-107000928D01*
X79415640Y-107108464D01*
X79956261Y-107000928D01*
X80414579Y-106694690D01*
X80685640Y-106289019D01*
X80956700Y-106694689D01*
X81415018Y-107000928D01*
X81955640Y-107108464D01*
X82496261Y-107000928D01*
X82954579Y-106694690D01*
X83225640Y-106289019D01*
X83496700Y-106694689D01*
X83955018Y-107000928D01*
X84495640Y-107108464D01*
X85036261Y-107000928D01*
X85494579Y-106694690D01*
X85800818Y-106236372D01*
X85881210Y-105832213D01*
X85881210Y-104561067D01*
X85800818Y-104156908D01*
X85494580Y-103698590D01*
X85086255Y-103425756D01*
X94776440Y-103425756D01*
X94776440Y-104155764D01*
X95055802Y-104830204D01*
X95571996Y-105346398D01*
X96246436Y-105625760D01*
X96976444Y-105625760D01*
X97650884Y-105346398D01*
X98167078Y-104830204D01*
X98290863Y-104531360D01*
X105331720Y-104531360D01*
X105331720Y-107731360D01*
X105381003Y-107979125D01*
X105521351Y-108189169D01*
X105731395Y-108329517D01*
X105979160Y-108378800D01*
X109179160Y-108378800D01*
X109426925Y-108329517D01*
X109636969Y-108189169D01*
X109777317Y-107979125D01*
X109826600Y-107731360D01*
X109826600Y-106131360D01*
X120540374Y-106131360D01*
X120713836Y-107003414D01*
X121207815Y-107742705D01*
X121947106Y-108236684D01*
X122599032Y-108366360D01*
X123039288Y-108366360D01*
X123585554Y-108257701D01*
X125699520Y-108257701D01*
X125699520Y-109318699D01*
X126105546Y-110298934D01*
X126855786Y-111049174D01*
X127836021Y-111455200D01*
X128897019Y-111455200D01*
X129877254Y-111049174D01*
X130627494Y-110298934D01*
X131033520Y-109318699D01*
X131033520Y-108522786D01*
X135492014Y-108522786D01*
X135499040Y-108948830D01*
X135499040Y-109375009D01*
X135506360Y-109392680D01*
X135506675Y-109411803D01*
X135818680Y-110165050D01*
X135828387Y-110170122D01*
X135839299Y-110196466D01*
X136468014Y-110825181D01*
X136494358Y-110836093D01*
X136499430Y-110845800D01*
X136895748Y-111002354D01*
X137289471Y-111165440D01*
X137308600Y-111165440D01*
X137326386Y-111172466D01*
X137752430Y-111165440D01*
X138178609Y-111165440D01*
X138196280Y-111158120D01*
X138215403Y-111157805D01*
X138968650Y-110845800D01*
X138973722Y-110836093D01*
X139000066Y-110825181D01*
X139628781Y-110196466D01*
X139639693Y-110170122D01*
X139649400Y-110165050D01*
X139805954Y-109768732D01*
X139969040Y-109375009D01*
X139969040Y-109355880D01*
X139976066Y-109338094D01*
X139969040Y-108912050D01*
X139969040Y-108485871D01*
X139961720Y-108468200D01*
X139961405Y-108449077D01*
X139649400Y-107695830D01*
X139639693Y-107690758D01*
X139628781Y-107664414D01*
X139000066Y-107035699D01*
X138973722Y-107024787D01*
X138968650Y-107015080D01*
X138572332Y-106858526D01*
X138178609Y-106695440D01*
X138159480Y-106695440D01*
X138141694Y-106688414D01*
X137715650Y-106695440D01*
X137289471Y-106695440D01*
X137271800Y-106702760D01*
X137252677Y-106703075D01*
X136499430Y-107015080D01*
X136494358Y-107024787D01*
X136468014Y-107035699D01*
X135839299Y-107664414D01*
X135828387Y-107690758D01*
X135818680Y-107695830D01*
X135662126Y-108092148D01*
X135499040Y-108485871D01*
X135499040Y-108505000D01*
X135492014Y-108522786D01*
X131033520Y-108522786D01*
X131033520Y-108257701D01*
X130627494Y-107277466D01*
X129877254Y-106527226D01*
X128897019Y-106121200D01*
X127836021Y-106121200D01*
X126855786Y-106527226D01*
X126105546Y-107277466D01*
X125699520Y-108257701D01*
X123585554Y-108257701D01*
X123691214Y-108236684D01*
X124430505Y-107742705D01*
X124924484Y-107003414D01*
X125097946Y-106131360D01*
X124924484Y-105259306D01*
X124430505Y-104520015D01*
X123691214Y-104026036D01*
X123039288Y-103896360D01*
X122599032Y-103896360D01*
X121947106Y-104026036D01*
X121207815Y-104520015D01*
X120713836Y-105259306D01*
X120540374Y-106131360D01*
X109826600Y-106131360D01*
X109826600Y-104531360D01*
X109777317Y-104283595D01*
X109636969Y-104073551D01*
X109426925Y-103933203D01*
X109179160Y-103883920D01*
X105979160Y-103883920D01*
X105731395Y-103933203D01*
X105521351Y-104073551D01*
X105381003Y-104283595D01*
X105331720Y-104531360D01*
X98290863Y-104531360D01*
X98446440Y-104155764D01*
X98446440Y-103425756D01*
X98167078Y-102751316D01*
X97650884Y-102235122D01*
X96976444Y-101955760D01*
X96246436Y-101955760D01*
X95571996Y-102235122D01*
X95055802Y-102751316D01*
X94776440Y-103425756D01*
X85086255Y-103425756D01*
X85036262Y-103392352D01*
X84495640Y-103284816D01*
X83955019Y-103392352D01*
X83496701Y-103698590D01*
X83225640Y-104104260D01*
X82954580Y-103698590D01*
X82496262Y-103392352D01*
X81955640Y-103284816D01*
X81415019Y-103392352D01*
X80956701Y-103698590D01*
X80685640Y-104104260D01*
X80414580Y-103698590D01*
X79956262Y-103392352D01*
X79415640Y-103284816D01*
X78875019Y-103392352D01*
X78416701Y-103698590D01*
X78110462Y-104156908D01*
X78030070Y-104561067D01*
X61754270Y-104561067D01*
X61928640Y-104140102D01*
X61928640Y-103489658D01*
X61679726Y-102888727D01*
X61219793Y-102428794D01*
X60618862Y-102179880D01*
X59968418Y-102179880D01*
X59367487Y-102428794D01*
X58907554Y-102888727D01*
X58658640Y-103489658D01*
X57428640Y-103489658D01*
X57179726Y-102888727D01*
X56719793Y-102428794D01*
X56118862Y-102179880D01*
X55468418Y-102179880D01*
X54867487Y-102428794D01*
X54407554Y-102888727D01*
X54158640Y-103489658D01*
X45338200Y-103489658D01*
X45338200Y-100374880D01*
X65264720Y-100374880D01*
X65264720Y-102174880D01*
X65314003Y-102422645D01*
X65454351Y-102632689D01*
X65664395Y-102773037D01*
X65912160Y-102822320D01*
X67712160Y-102822320D01*
X67959925Y-102773037D01*
X68169969Y-102632689D01*
X68310317Y-102422645D01*
X68359600Y-102174880D01*
X68359600Y-100374880D01*
X68310317Y-100127115D01*
X68169969Y-99917071D01*
X67959925Y-99776723D01*
X67944252Y-99773605D01*
X68113470Y-99604387D01*
X68347160Y-99040210D01*
X68347160Y-98790760D01*
X94434613Y-98790760D01*
X94600314Y-99623796D01*
X94764000Y-99868769D01*
X94764000Y-99990760D01*
X94813283Y-100238525D01*
X94953631Y-100448569D01*
X95163675Y-100588917D01*
X95411440Y-100638200D01*
X95533431Y-100638200D01*
X95778404Y-100801886D01*
X96401161Y-100925760D01*
X99713810Y-100925760D01*
X99880860Y-101037379D01*
X100811440Y-101222484D01*
X101742020Y-101037379D01*
X102331792Y-100643306D01*
X104900419Y-98074680D01*
X105331720Y-98074680D01*
X105331720Y-101274680D01*
X105381003Y-101522445D01*
X105521351Y-101732489D01*
X105731395Y-101872837D01*
X105979160Y-101922120D01*
X109179160Y-101922120D01*
X109426925Y-101872837D01*
X109636969Y-101732489D01*
X109777317Y-101522445D01*
X109826600Y-101274680D01*
X109826600Y-99674680D01*
X120540374Y-99674680D01*
X120713836Y-100546734D01*
X121207815Y-101286025D01*
X121947106Y-101780004D01*
X122599032Y-101909680D01*
X123039288Y-101909680D01*
X123691214Y-101780004D01*
X124430505Y-101286025D01*
X124924484Y-100546734D01*
X125097946Y-99674680D01*
X124924484Y-98802626D01*
X124430505Y-98063335D01*
X124040978Y-97803061D01*
X134487920Y-97803061D01*
X134487920Y-98864059D01*
X134893946Y-99844294D01*
X135644186Y-100594534D01*
X136624421Y-101000560D01*
X137685419Y-101000560D01*
X138665654Y-100594534D01*
X139415894Y-99844294D01*
X139821920Y-98864059D01*
X139821920Y-97803061D01*
X139415894Y-96822826D01*
X138665654Y-96072586D01*
X137685419Y-95666560D01*
X136624421Y-95666560D01*
X135644186Y-96072586D01*
X134893946Y-96822826D01*
X134487920Y-97803061D01*
X124040978Y-97803061D01*
X123691214Y-97569356D01*
X123039288Y-97439680D01*
X122599032Y-97439680D01*
X121947106Y-97569356D01*
X121207815Y-98063335D01*
X120713836Y-98802626D01*
X120540374Y-99674680D01*
X109826600Y-99674680D01*
X109826600Y-98074680D01*
X109777317Y-97826915D01*
X109636969Y-97616871D01*
X109426925Y-97476523D01*
X109179160Y-97427240D01*
X105979160Y-97427240D01*
X105731395Y-97476523D01*
X105521351Y-97616871D01*
X105381003Y-97826915D01*
X105331720Y-98074680D01*
X104900419Y-98074680D01*
X105909060Y-97066040D01*
X122203264Y-97066040D01*
X122438160Y-97112764D01*
X122673056Y-97066040D01*
X122673057Y-97066040D01*
X123368740Y-96927660D01*
X124157649Y-96400529D01*
X124290711Y-96201387D01*
X126363767Y-94128332D01*
X126484476Y-94078333D01*
X127169453Y-93393356D01*
X127540160Y-92498392D01*
X127540160Y-91529688D01*
X127169453Y-90634724D01*
X126484476Y-89949747D01*
X125589512Y-89579040D01*
X124620808Y-89579040D01*
X123725844Y-89949747D01*
X123040867Y-90634724D01*
X122990868Y-90755433D01*
X121450261Y-92296040D01*
X105156056Y-92296040D01*
X104921160Y-92249316D01*
X104686264Y-92296040D01*
X104686263Y-92296040D01*
X103990580Y-92434420D01*
X103201671Y-92961551D01*
X103068612Y-93160688D01*
X99573542Y-96655760D01*
X96401161Y-96655760D01*
X95778404Y-96779634D01*
X95533431Y-96943320D01*
X95411440Y-96943320D01*
X95163675Y-96992603D01*
X94953631Y-97132951D01*
X94813283Y-97342995D01*
X94764000Y-97590760D01*
X94764000Y-97712751D01*
X94600314Y-97957724D01*
X94434613Y-98790760D01*
X68347160Y-98790760D01*
X68347160Y-98429550D01*
X68113470Y-97865373D01*
X67681667Y-97433570D01*
X67117490Y-97199880D01*
X66506830Y-97199880D01*
X65942653Y-97433570D01*
X65510850Y-97865373D01*
X65277160Y-98429550D01*
X65277160Y-99040210D01*
X65510850Y-99604387D01*
X65680068Y-99773605D01*
X65664395Y-99776723D01*
X65454351Y-99917071D01*
X65314003Y-100127115D01*
X65264720Y-100374880D01*
X45338200Y-100374880D01*
X45338200Y-96989658D01*
X54158640Y-96989658D01*
X54158640Y-97640102D01*
X54407554Y-98241033D01*
X54867487Y-98700966D01*
X55468418Y-98949880D01*
X56118862Y-98949880D01*
X56719793Y-98700966D01*
X57179726Y-98241033D01*
X57428640Y-97640102D01*
X57428640Y-96989658D01*
X58658640Y-96989658D01*
X58658640Y-97640102D01*
X58907554Y-98241033D01*
X59367487Y-98700966D01*
X59968418Y-98949880D01*
X60618862Y-98949880D01*
X61219793Y-98700966D01*
X61679726Y-98241033D01*
X61928640Y-97640102D01*
X61928640Y-96989658D01*
X61704487Y-96448505D01*
X64549871Y-93603121D01*
X65377160Y-93603121D01*
X65377160Y-94173999D01*
X65595626Y-94701422D01*
X65999298Y-95105094D01*
X66526721Y-95323560D01*
X67097599Y-95323560D01*
X67625022Y-95105094D01*
X68028694Y-94701422D01*
X68247160Y-94173999D01*
X68247160Y-93603121D01*
X70096480Y-93603121D01*
X70096480Y-94173999D01*
X70314946Y-94701422D01*
X70718618Y-95105094D01*
X71246041Y-95323560D01*
X71816919Y-95323560D01*
X72344342Y-95105094D01*
X72748014Y-94701422D01*
X72966480Y-94173999D01*
X72966480Y-93669161D01*
X77238960Y-93669161D01*
X77238960Y-94240039D01*
X77457426Y-94767462D01*
X77861098Y-95171134D01*
X78388521Y-95389600D01*
X78959399Y-95389600D01*
X79486822Y-95171134D01*
X79890494Y-94767462D01*
X80108960Y-94240039D01*
X80108960Y-93669161D01*
X82085280Y-93669161D01*
X82085280Y-94240039D01*
X82303746Y-94767462D01*
X82707418Y-95171134D01*
X83234841Y-95389600D01*
X83805719Y-95389600D01*
X84333142Y-95171134D01*
X84736814Y-94767462D01*
X84955280Y-94240039D01*
X84955280Y-93669161D01*
X84736814Y-93141738D01*
X84333142Y-92738066D01*
X83805719Y-92519600D01*
X83234841Y-92519600D01*
X82707418Y-92738066D01*
X82303746Y-93141738D01*
X82085280Y-93669161D01*
X80108960Y-93669161D01*
X79890494Y-93141738D01*
X79486822Y-92738066D01*
X78959399Y-92519600D01*
X78388521Y-92519600D01*
X77861098Y-92738066D01*
X77457426Y-93141738D01*
X77238960Y-93669161D01*
X72966480Y-93669161D01*
X72966480Y-93603121D01*
X72748014Y-93075698D01*
X72344342Y-92672026D01*
X71816919Y-92453560D01*
X71246041Y-92453560D01*
X70718618Y-92672026D01*
X70314946Y-93075698D01*
X70096480Y-93603121D01*
X68247160Y-93603121D01*
X68028694Y-93075698D01*
X67625022Y-92672026D01*
X67097599Y-92453560D01*
X66526721Y-92453560D01*
X65999298Y-92672026D01*
X65595626Y-93075698D01*
X65377160Y-93603121D01*
X64549871Y-93603121D01*
X64662290Y-93490703D01*
X64777928Y-93413436D01*
X64855195Y-93297798D01*
X64855197Y-93297796D01*
X65084040Y-92955308D01*
X65084041Y-92955307D01*
X65164400Y-92551314D01*
X65164400Y-92551313D01*
X65191533Y-92414908D01*
X65164400Y-92278502D01*
X65164400Y-91611761D01*
X88862000Y-91611761D01*
X88862000Y-92182639D01*
X89080466Y-92710062D01*
X89484138Y-93113734D01*
X90011561Y-93332200D01*
X90582439Y-93332200D01*
X91109862Y-93113734D01*
X91513534Y-92710062D01*
X91732000Y-92182639D01*
X91732000Y-91611761D01*
X91513534Y-91084338D01*
X91109862Y-90680666D01*
X90582439Y-90462200D01*
X90011561Y-90462200D01*
X89484138Y-90680666D01*
X89080466Y-91084338D01*
X88862000Y-91611761D01*
X65164400Y-91611761D01*
X65164400Y-76555245D01*
X65647919Y-76071727D01*
X65522759Y-76259041D01*
X65415267Y-76799440D01*
X65442401Y-76935851D01*
X65442400Y-79844166D01*
X65400027Y-80057190D01*
X65427160Y-80193597D01*
X65427160Y-80795860D01*
X65349047Y-81188560D01*
X65460420Y-81748469D01*
X65777583Y-82223137D01*
X66252251Y-82540300D01*
X66670827Y-82623560D01*
X66953493Y-82623560D01*
X67372069Y-82540300D01*
X67846737Y-82223137D01*
X68163900Y-81748469D01*
X68275273Y-81188560D01*
X70068367Y-81188560D01*
X70179740Y-81748469D01*
X70496903Y-82223137D01*
X70971571Y-82540300D01*
X71390147Y-82623560D01*
X71672813Y-82623560D01*
X72091389Y-82540300D01*
X72566057Y-82223137D01*
X72883220Y-81748469D01*
X72981456Y-81254600D01*
X77210847Y-81254600D01*
X77322220Y-81814509D01*
X77639383Y-82289177D01*
X78114051Y-82606340D01*
X78532627Y-82689600D01*
X78815293Y-82689600D01*
X79233869Y-82606340D01*
X79708537Y-82289177D01*
X80025700Y-81814509D01*
X80137073Y-81254600D01*
X82057167Y-81254600D01*
X82168540Y-81814509D01*
X82485703Y-82289177D01*
X82960371Y-82606340D01*
X83166460Y-82647334D01*
X84222155Y-83703029D01*
X84291055Y-83806145D01*
X84394171Y-83875045D01*
X84394172Y-83875046D01*
X84699567Y-84079104D01*
X85059804Y-84150760D01*
X85059807Y-84150760D01*
X85181439Y-84174954D01*
X85303071Y-84150760D01*
X95494128Y-84150760D01*
X95615760Y-84174954D01*
X95737392Y-84150760D01*
X95737396Y-84150760D01*
X96097633Y-84079104D01*
X96506145Y-83806145D01*
X96575047Y-83703026D01*
X98704269Y-81573805D01*
X98807385Y-81504905D01*
X98927617Y-81324966D01*
X99049281Y-81142882D01*
X99049281Y-81652366D01*
X94350974Y-86350673D01*
X94247855Y-86419575D01*
X93974896Y-86828088D01*
X93903240Y-87188325D01*
X93903240Y-87188328D01*
X93879046Y-87309960D01*
X93903240Y-87431592D01*
X93903241Y-91147336D01*
X93786500Y-91322051D01*
X93675127Y-91881960D01*
X93786500Y-92441869D01*
X94103663Y-92916537D01*
X94578331Y-93233700D01*
X94996907Y-93316960D01*
X95279573Y-93316960D01*
X95698149Y-93233700D01*
X96172817Y-92916537D01*
X96489980Y-92441869D01*
X96601353Y-91881960D01*
X96489980Y-91322051D01*
X96373240Y-91147337D01*
X96373240Y-88558800D01*
X102165840Y-88558800D01*
X102165840Y-90358800D01*
X102215123Y-90606565D01*
X102355471Y-90816609D01*
X102565515Y-90956957D01*
X102813280Y-91006240D01*
X104613280Y-91006240D01*
X104861045Y-90956957D01*
X105071089Y-90816609D01*
X105211437Y-90606565D01*
X105260720Y-90358800D01*
X105260720Y-88558800D01*
X105211437Y-88311035D01*
X105071089Y-88100991D01*
X104861045Y-87960643D01*
X104845372Y-87957525D01*
X105014590Y-87788307D01*
X105248280Y-87224130D01*
X105248280Y-86613470D01*
X105014590Y-86049293D01*
X104582787Y-85617490D01*
X104018610Y-85383800D01*
X103407950Y-85383800D01*
X102843773Y-85617490D01*
X102411970Y-86049293D01*
X102178280Y-86613470D01*
X102178280Y-87224130D01*
X102411970Y-87788307D01*
X102581188Y-87957525D01*
X102565515Y-87960643D01*
X102355471Y-88100991D01*
X102215123Y-88311035D01*
X102165840Y-88558800D01*
X96373240Y-88558800D01*
X96373240Y-87821513D01*
X101071546Y-83123207D01*
X101174665Y-83054305D01*
X101393389Y-82726960D01*
X102145520Y-82726960D01*
X102145520Y-84526960D01*
X102194803Y-84774725D01*
X102335151Y-84984769D01*
X102545195Y-85125117D01*
X102792960Y-85174400D01*
X104592960Y-85174400D01*
X104840725Y-85125117D01*
X105050769Y-84984769D01*
X105191117Y-84774725D01*
X105240400Y-84526960D01*
X105240400Y-82726960D01*
X105191117Y-82479195D01*
X105050769Y-82269151D01*
X104840725Y-82128803D01*
X104825052Y-82125685D01*
X104994270Y-81956467D01*
X105227960Y-81392290D01*
X105227960Y-80781630D01*
X104994270Y-80217453D01*
X104562467Y-79785650D01*
X103998290Y-79551960D01*
X103387630Y-79551960D01*
X102823453Y-79785650D01*
X102391650Y-80217453D01*
X102157960Y-80781630D01*
X102157960Y-81392290D01*
X102391650Y-81956467D01*
X102560868Y-82125685D01*
X102545195Y-82128803D01*
X102335151Y-82269151D01*
X102194803Y-82479195D01*
X102145520Y-82726960D01*
X101393389Y-82726960D01*
X101447624Y-82645793D01*
X101519280Y-82285556D01*
X101519280Y-82285552D01*
X101543474Y-82163920D01*
X101519280Y-82042288D01*
X101519280Y-78829688D01*
X122670160Y-78829688D01*
X122670160Y-79798392D01*
X123040867Y-80693356D01*
X123725844Y-81378333D01*
X124620808Y-81749040D01*
X125589512Y-81749040D01*
X126484476Y-81378333D01*
X127169453Y-80693356D01*
X127540160Y-79798392D01*
X127540160Y-78829688D01*
X127169453Y-77934724D01*
X126484476Y-77249747D01*
X125589512Y-76879040D01*
X124620808Y-76879040D01*
X123725844Y-77249747D01*
X123040867Y-77934724D01*
X122670160Y-78829688D01*
X101519280Y-78829688D01*
X101519280Y-69976710D01*
X101543474Y-69855079D01*
X101519280Y-69733448D01*
X101519280Y-69733444D01*
X101447624Y-69373207D01*
X101174665Y-68964695D01*
X101071547Y-68895794D01*
X100760967Y-68585214D01*
X100692065Y-68482095D01*
X100283553Y-68209136D01*
X99923316Y-68137480D01*
X99923312Y-68137480D01*
X99801680Y-68113286D01*
X99680048Y-68137480D01*
X98651623Y-68137480D01*
X98599242Y-68102480D01*
X98951577Y-67867057D01*
X99268740Y-67392389D01*
X99380113Y-66832480D01*
X99268740Y-66272571D01*
X98951577Y-65797903D01*
X98599242Y-65562480D01*
X98951577Y-65327057D01*
X99268740Y-64852389D01*
X99380113Y-64292480D01*
X99268740Y-63732571D01*
X98951577Y-63257903D01*
X98476909Y-62940740D01*
X98058333Y-62857480D01*
X97775667Y-62857480D01*
X97357091Y-62940740D01*
X96882423Y-63257903D01*
X96565260Y-63732571D01*
X96453887Y-64292480D01*
X96565260Y-64852389D01*
X96882423Y-65327057D01*
X97234758Y-65562480D01*
X96882423Y-65797903D01*
X96565260Y-66272571D01*
X96453887Y-66832480D01*
X96565260Y-67392389D01*
X96882423Y-67867057D01*
X97234758Y-68102480D01*
X96882423Y-68337903D01*
X96565260Y-68812571D01*
X96453887Y-69372480D01*
X96565260Y-69932389D01*
X96882423Y-70407057D01*
X97234758Y-70642480D01*
X96882423Y-70877903D01*
X96565260Y-71352571D01*
X96453887Y-71912480D01*
X96565260Y-72472389D01*
X96682000Y-72647103D01*
X96682001Y-80102965D01*
X95104207Y-81680760D01*
X85692994Y-81680760D01*
X84913014Y-80900780D01*
X84872020Y-80694691D01*
X84554857Y-80220023D01*
X84080189Y-79902860D01*
X83661613Y-79819600D01*
X83378947Y-79819600D01*
X82960371Y-79902860D01*
X82485703Y-80220023D01*
X82168540Y-80694691D01*
X82057167Y-81254600D01*
X80137073Y-81254600D01*
X80025700Y-80694691D01*
X79708537Y-80220023D01*
X79233869Y-79902860D01*
X78815293Y-79819600D01*
X78532627Y-79819600D01*
X78114051Y-79902860D01*
X77639383Y-80220023D01*
X77322220Y-80694691D01*
X77210847Y-81254600D01*
X72981456Y-81254600D01*
X72994593Y-81188560D01*
X72883220Y-80628651D01*
X72566057Y-80153983D01*
X72091389Y-79836820D01*
X71672813Y-79753560D01*
X71390147Y-79753560D01*
X70971571Y-79836820D01*
X70496903Y-80153983D01*
X70179740Y-80628651D01*
X70068367Y-81188560D01*
X68275273Y-81188560D01*
X68197160Y-80795860D01*
X68197160Y-80254974D01*
X68212400Y-80178357D01*
X68212400Y-80178356D01*
X68239533Y-80041950D01*
X68212400Y-79905543D01*
X68212400Y-79197200D01*
X88833887Y-79197200D01*
X88945260Y-79757109D01*
X89262423Y-80231777D01*
X89737091Y-80548940D01*
X90155667Y-80632200D01*
X90438333Y-80632200D01*
X90856909Y-80548940D01*
X91331577Y-80231777D01*
X91648740Y-79757109D01*
X91760113Y-79197200D01*
X91700305Y-78896521D01*
X93703240Y-78896521D01*
X93703240Y-79467399D01*
X93921706Y-79994822D01*
X94325378Y-80398494D01*
X94852801Y-80616960D01*
X95423679Y-80616960D01*
X95951102Y-80398494D01*
X96354774Y-79994822D01*
X96573240Y-79467399D01*
X96573240Y-78896521D01*
X96354774Y-78369098D01*
X95951102Y-77965426D01*
X95423679Y-77746960D01*
X94852801Y-77746960D01*
X94325378Y-77965426D01*
X93921706Y-78369098D01*
X93703240Y-78896521D01*
X91700305Y-78896521D01*
X91648740Y-78637291D01*
X91331577Y-78162623D01*
X90856909Y-77845460D01*
X90438333Y-77762200D01*
X90155667Y-77762200D01*
X89737091Y-77845460D01*
X89262423Y-78162623D01*
X88945260Y-78637291D01*
X88833887Y-79197200D01*
X68212400Y-79197200D01*
X68212400Y-77373125D01*
X68975004Y-76610521D01*
X70096480Y-76610521D01*
X70096480Y-77181399D01*
X70314946Y-77708822D01*
X70718618Y-78112494D01*
X71246041Y-78330960D01*
X71816919Y-78330960D01*
X71937630Y-78280960D01*
X80056473Y-78280960D01*
X80192880Y-78308093D01*
X80329287Y-78280960D01*
X80733280Y-78200601D01*
X81191409Y-77894489D01*
X81268679Y-77778846D01*
X87674690Y-71372836D01*
X87790328Y-71295569D01*
X87867595Y-71179931D01*
X87867597Y-71179929D01*
X88096440Y-70837441D01*
X88096441Y-70837440D01*
X88176800Y-70433447D01*
X88176800Y-70433446D01*
X88203933Y-70297041D01*
X88176800Y-70160635D01*
X88176800Y-68217480D01*
X89442649Y-68217480D01*
X89262423Y-68337903D01*
X88945260Y-68812571D01*
X88833887Y-69372480D01*
X88945260Y-69932389D01*
X89262423Y-70407057D01*
X89614758Y-70642480D01*
X89262423Y-70877903D01*
X88945260Y-71352571D01*
X88833887Y-71912480D01*
X88945260Y-72472389D01*
X89262423Y-72947057D01*
X89737091Y-73264220D01*
X90155667Y-73347480D01*
X90438333Y-73347480D01*
X90856909Y-73264220D01*
X91331577Y-72947057D01*
X91648740Y-72472389D01*
X91760113Y-71912480D01*
X91648740Y-71352571D01*
X91331577Y-70877903D01*
X90979242Y-70642480D01*
X91331577Y-70407057D01*
X91648740Y-69932389D01*
X91760113Y-69372480D01*
X91648740Y-68812571D01*
X91331577Y-68337903D01*
X90979242Y-68102480D01*
X91331577Y-67867057D01*
X91648740Y-67392389D01*
X91760113Y-66832480D01*
X91648740Y-66272571D01*
X91331577Y-65797903D01*
X91210894Y-65717265D01*
X91344765Y-65690637D01*
X91364456Y-65677480D01*
X92023315Y-65677480D01*
X92757560Y-66411726D01*
X92757561Y-73345393D01*
X91668955Y-74434000D01*
X86576211Y-74434000D01*
X86439809Y-74406868D01*
X86303407Y-74434000D01*
X86303403Y-74434000D01*
X85899410Y-74514359D01*
X85441281Y-74820471D01*
X85364010Y-74936115D01*
X84789165Y-75510960D01*
X84624180Y-75510960D01*
X84372813Y-75460960D01*
X84090147Y-75460960D01*
X83671571Y-75544220D01*
X83196903Y-75861383D01*
X82879740Y-76336051D01*
X82768367Y-76895960D01*
X82879740Y-77455869D01*
X83196903Y-77930537D01*
X83671571Y-78247700D01*
X84090147Y-78330960D01*
X84372813Y-78330960D01*
X84624180Y-78280960D01*
X85226443Y-78280960D01*
X85362850Y-78308093D01*
X85499257Y-78280960D01*
X85903250Y-78200601D01*
X86361379Y-77894489D01*
X86438650Y-77778845D01*
X87013495Y-77204000D01*
X92106233Y-77204000D01*
X92242640Y-77231133D01*
X92379047Y-77204000D01*
X92783040Y-77123641D01*
X93241169Y-76817529D01*
X93318439Y-76701886D01*
X95025448Y-74994878D01*
X95141089Y-74917609D01*
X95447201Y-74459480D01*
X95498550Y-74201329D01*
X95554693Y-73919080D01*
X95527560Y-73782673D01*
X95527560Y-65974447D01*
X95554693Y-65838040D01*
X95447201Y-65297640D01*
X95218357Y-64955151D01*
X95218355Y-64955149D01*
X95141088Y-64839511D01*
X95025450Y-64762244D01*
X93672799Y-63409594D01*
X93595529Y-63293951D01*
X93137400Y-62987839D01*
X92733407Y-62907480D01*
X92597000Y-62880347D01*
X92460593Y-62907480D01*
X91364456Y-62907480D01*
X91344765Y-62894323D01*
X91097000Y-62845040D01*
X89497000Y-62845040D01*
X89249235Y-62894323D01*
X89039191Y-63034671D01*
X88898843Y-63244715D01*
X88849560Y-63492480D01*
X88849560Y-65092480D01*
X88898843Y-65340245D01*
X88970496Y-65447480D01*
X87558121Y-65447480D01*
X87421719Y-65420348D01*
X87285317Y-65447480D01*
X87285313Y-65447480D01*
X86881320Y-65527839D01*
X86423191Y-65833951D01*
X86345919Y-65949597D01*
X85908913Y-66386602D01*
X85793272Y-66463871D01*
X85716003Y-66579512D01*
X85487159Y-66922001D01*
X85379667Y-67462400D01*
X85406801Y-67598811D01*
X85406800Y-69723354D01*
X79619195Y-75510960D01*
X71937630Y-75510960D01*
X71816919Y-75460960D01*
X71246041Y-75460960D01*
X70718618Y-75679426D01*
X70314946Y-76083098D01*
X70096480Y-76610521D01*
X68975004Y-76610521D01*
X70997726Y-74587800D01*
X79589113Y-74587800D01*
X79725520Y-74614933D01*
X79861927Y-74587800D01*
X80265920Y-74507441D01*
X80724049Y-74201329D01*
X80801319Y-74085686D01*
X84692730Y-70194276D01*
X84808368Y-70117009D01*
X84885635Y-70001371D01*
X84885637Y-70001369D01*
X85114481Y-69658880D01*
X85221973Y-69118480D01*
X85194840Y-68982073D01*
X85194840Y-64688365D01*
X87975086Y-61908120D01*
X91776033Y-61908120D01*
X91912440Y-61935253D01*
X92048847Y-61908120D01*
X92452840Y-61827761D01*
X92910969Y-61521649D01*
X92988239Y-61406006D01*
X95330250Y-59063996D01*
X95445888Y-58986729D01*
X95523155Y-58871091D01*
X95523157Y-58871089D01*
X95688177Y-58624119D01*
X95752001Y-58528600D01*
X95832360Y-58124607D01*
X95832360Y-58124606D01*
X95859493Y-57988201D01*
X95832360Y-57851795D01*
X95832360Y-52628041D01*
X95859492Y-52491639D01*
X95832360Y-52355237D01*
X95832360Y-52355233D01*
X95752001Y-51951240D01*
X95445889Y-51493111D01*
X95330243Y-51415839D01*
X94817040Y-50902635D01*
X94739769Y-50786991D01*
X94281640Y-50480879D01*
X93877647Y-50400520D01*
X93741240Y-50373387D01*
X93604833Y-50400520D01*
X91679384Y-50400520D01*
X91751037Y-50293285D01*
X91800320Y-50045520D01*
X91800320Y-49245520D01*
X96509767Y-49245520D01*
X96621140Y-49805429D01*
X96938303Y-50280097D01*
X97290638Y-50515520D01*
X96938303Y-50750943D01*
X96621140Y-51225611D01*
X96509767Y-51785520D01*
X96621140Y-52345429D01*
X96938303Y-52820097D01*
X97290638Y-53055520D01*
X96938303Y-53290943D01*
X96621140Y-53765611D01*
X96509767Y-54325520D01*
X96621140Y-54885429D01*
X96938303Y-55360097D01*
X97290638Y-55595520D01*
X96938303Y-55830943D01*
X96621140Y-56305611D01*
X96509767Y-56865520D01*
X96621140Y-57425429D01*
X96938303Y-57900097D01*
X97412971Y-58217260D01*
X97831547Y-58300520D01*
X98114213Y-58300520D01*
X98365580Y-58250520D01*
X98530565Y-58250520D01*
X99432680Y-59152636D01*
X99432681Y-66309988D01*
X99405547Y-66446400D01*
X99513039Y-66986799D01*
X99741883Y-67329288D01*
X99819152Y-67444929D01*
X99934792Y-67522197D01*
X102302880Y-69890286D01*
X102302881Y-76630255D01*
X102224767Y-77022960D01*
X102336140Y-77582869D01*
X102653303Y-78057537D01*
X103127971Y-78374700D01*
X103546547Y-78457960D01*
X103829213Y-78457960D01*
X104247789Y-78374700D01*
X104722457Y-78057537D01*
X105039620Y-77582869D01*
X105150993Y-77022960D01*
X105072880Y-76630260D01*
X105072880Y-72901328D01*
X122670160Y-72901328D01*
X122670160Y-73870032D01*
X123040867Y-74764996D01*
X123725844Y-75449973D01*
X124620808Y-75820680D01*
X125589512Y-75820680D01*
X126484476Y-75449973D01*
X127169453Y-74764996D01*
X127540160Y-73870032D01*
X127540160Y-72901328D01*
X127169453Y-72006364D01*
X126484476Y-71321387D01*
X125589512Y-70950680D01*
X124620808Y-70950680D01*
X123725844Y-71321387D01*
X123040867Y-72006364D01*
X122670160Y-72901328D01*
X105072880Y-72901328D01*
X105072880Y-69854121D01*
X106515000Y-69854121D01*
X106515000Y-70424999D01*
X106733466Y-70952422D01*
X107137138Y-71356094D01*
X107664561Y-71574560D01*
X108235439Y-71574560D01*
X108762862Y-71356094D01*
X109166534Y-70952422D01*
X109385000Y-70424999D01*
X109385000Y-69854121D01*
X109166534Y-69326698D01*
X108762862Y-68923026D01*
X108235439Y-68704560D01*
X107664561Y-68704560D01*
X107137138Y-68923026D01*
X106733466Y-69326698D01*
X106515000Y-69854121D01*
X105072880Y-69854121D01*
X105072880Y-69453007D01*
X105100013Y-69316600D01*
X104992521Y-68776200D01*
X104763677Y-68433711D01*
X104763675Y-68433709D01*
X104686408Y-68318071D01*
X104570770Y-68240804D01*
X102202680Y-65872715D01*
X102202680Y-64037521D01*
X102252880Y-64037521D01*
X102252880Y-64608399D01*
X102471346Y-65135822D01*
X102875018Y-65539494D01*
X103402441Y-65757960D01*
X103973319Y-65757960D01*
X104500742Y-65539494D01*
X104904414Y-65135822D01*
X105122880Y-64608399D01*
X105122880Y-64037521D01*
X104904414Y-63510098D01*
X104500742Y-63106426D01*
X103973319Y-62887960D01*
X103402441Y-62887960D01*
X102875018Y-63106426D01*
X102471346Y-63510098D01*
X102252880Y-64037521D01*
X102202680Y-64037521D01*
X102202680Y-60201328D01*
X122670160Y-60201328D01*
X122670160Y-61170032D01*
X123040867Y-62064996D01*
X123725844Y-62749973D01*
X124620808Y-63120680D01*
X125589512Y-63120680D01*
X126484476Y-62749973D01*
X127169453Y-62064996D01*
X127540160Y-61170032D01*
X127540160Y-60201328D01*
X127169453Y-59306364D01*
X126484476Y-58621387D01*
X125589512Y-58250680D01*
X124620808Y-58250680D01*
X123725844Y-58621387D01*
X123040867Y-59306364D01*
X122670160Y-60201328D01*
X102202680Y-60201328D01*
X102202680Y-58715357D01*
X102229813Y-58578950D01*
X102122321Y-58038550D01*
X101893477Y-57696061D01*
X101893475Y-57696059D01*
X101816208Y-57580421D01*
X101700570Y-57503154D01*
X101636976Y-57439560D01*
X106486887Y-57439560D01*
X106598260Y-57999469D01*
X106915423Y-58474137D01*
X107390091Y-58791300D01*
X107808667Y-58874560D01*
X108091333Y-58874560D01*
X108509909Y-58791300D01*
X108984577Y-58474137D01*
X109301740Y-57999469D01*
X109413113Y-57439560D01*
X109301740Y-56879651D01*
X108984577Y-56404983D01*
X108509909Y-56087820D01*
X108091333Y-56004560D01*
X107808667Y-56004560D01*
X107390091Y-56087820D01*
X106915423Y-56404983D01*
X106598260Y-56879651D01*
X106486887Y-57439560D01*
X101636976Y-57439560D01*
X100180049Y-55982634D01*
X100102779Y-55866991D01*
X99815384Y-55674960D01*
X107503210Y-55674960D01*
X107623921Y-55724960D01*
X107992868Y-55724960D01*
X108056680Y-55737653D01*
X108120492Y-55724960D01*
X108194799Y-55724960D01*
X108263449Y-55696524D01*
X108597079Y-55630161D01*
X108939568Y-55401317D01*
X109147717Y-55193168D01*
X109376561Y-54850679D01*
X109484053Y-54310280D01*
X109427276Y-54024841D01*
X111102240Y-54024841D01*
X111102240Y-54595719D01*
X111320706Y-55123142D01*
X111724378Y-55526814D01*
X112251801Y-55745280D01*
X112822679Y-55745280D01*
X113350102Y-55526814D01*
X113753774Y-55123142D01*
X113972240Y-54595719D01*
X113972240Y-54024841D01*
X113753774Y-53497418D01*
X113350102Y-53093746D01*
X112822679Y-52875280D01*
X112251801Y-52875280D01*
X111724378Y-53093746D01*
X111320706Y-53497418D01*
X111102240Y-54024841D01*
X109427276Y-54024841D01*
X109376561Y-53769880D01*
X109070449Y-53311751D01*
X108739241Y-53090445D01*
X108722222Y-53073426D01*
X108699986Y-53064216D01*
X108612320Y-53005639D01*
X108508912Y-52985070D01*
X108194799Y-52854960D01*
X107623921Y-52854960D01*
X107503210Y-52904960D01*
X98880451Y-52904960D01*
X99007457Y-52820097D01*
X99324620Y-52345429D01*
X99435993Y-51785520D01*
X99324620Y-51225611D01*
X99007457Y-50750943D01*
X98949953Y-50712520D01*
X117283640Y-50712520D01*
X117283640Y-53112520D01*
X117332923Y-53360285D01*
X117473271Y-53570329D01*
X117683315Y-53710677D01*
X117931080Y-53759960D01*
X120331080Y-53759960D01*
X120578845Y-53710677D01*
X120788889Y-53570329D01*
X120929237Y-53360285D01*
X120978520Y-53112520D01*
X120978520Y-51547516D01*
X122296080Y-51547516D01*
X122296080Y-52277524D01*
X122575442Y-52951964D01*
X123091636Y-53468158D01*
X123766076Y-53747520D01*
X124496084Y-53747520D01*
X125170524Y-53468158D01*
X125686718Y-52951964D01*
X125966080Y-52277524D01*
X125966080Y-51547516D01*
X125686718Y-50873076D01*
X125170524Y-50356882D01*
X124496084Y-50077520D01*
X123766076Y-50077520D01*
X123091636Y-50356882D01*
X122575442Y-50873076D01*
X122296080Y-51547516D01*
X120978520Y-51547516D01*
X120978520Y-50712520D01*
X120929237Y-50464755D01*
X120788889Y-50254711D01*
X120578845Y-50114363D01*
X120331080Y-50065080D01*
X117931080Y-50065080D01*
X117683315Y-50114363D01*
X117473271Y-50254711D01*
X117332923Y-50464755D01*
X117283640Y-50712520D01*
X98949953Y-50712520D01*
X98655122Y-50515520D01*
X99007457Y-50280097D01*
X99324620Y-49805429D01*
X99435993Y-49245520D01*
X99330944Y-48717400D01*
X129365200Y-48717400D01*
X129365200Y-51917400D01*
X129414483Y-52165165D01*
X129554831Y-52375209D01*
X129764875Y-52515557D01*
X130012640Y-52564840D01*
X133212640Y-52564840D01*
X133460405Y-52515557D01*
X133670449Y-52375209D01*
X133810797Y-52165165D01*
X133860080Y-51917400D01*
X133860080Y-48717400D01*
X136583880Y-48717400D01*
X136583880Y-51917400D01*
X136633163Y-52165165D01*
X136773511Y-52375209D01*
X136983555Y-52515557D01*
X137231320Y-52564840D01*
X140431320Y-52564840D01*
X140679085Y-52515557D01*
X140889129Y-52375209D01*
X141029477Y-52165165D01*
X141078760Y-51917400D01*
X141078760Y-48717400D01*
X141029477Y-48469635D01*
X140889129Y-48259591D01*
X140679085Y-48119243D01*
X140431320Y-48069960D01*
X137231320Y-48069960D01*
X136983555Y-48119243D01*
X136773511Y-48259591D01*
X136633163Y-48469635D01*
X136583880Y-48717400D01*
X133860080Y-48717400D01*
X133810797Y-48469635D01*
X133670449Y-48259591D01*
X133460405Y-48119243D01*
X133212640Y-48069960D01*
X130012640Y-48069960D01*
X129764875Y-48119243D01*
X129554831Y-48259591D01*
X129414483Y-48469635D01*
X129365200Y-48717400D01*
X99330944Y-48717400D01*
X99324620Y-48685611D01*
X99007457Y-48210943D01*
X98532789Y-47893780D01*
X98114213Y-47810520D01*
X97831547Y-47810520D01*
X97412971Y-47893780D01*
X96938303Y-48210943D01*
X96621140Y-48685611D01*
X96509767Y-49245520D01*
X91800320Y-49245520D01*
X91800320Y-48445520D01*
X91751037Y-48197755D01*
X91610689Y-47987711D01*
X91400645Y-47847363D01*
X91152880Y-47798080D01*
X89552880Y-47798080D01*
X89305115Y-47847363D01*
X89095071Y-47987711D01*
X88954723Y-48197755D01*
X88905440Y-48445520D01*
X88905440Y-50045520D01*
X88954723Y-50293285D01*
X89095071Y-50503329D01*
X89305115Y-50643677D01*
X89438986Y-50670305D01*
X89318303Y-50750943D01*
X89001140Y-51225611D01*
X88889767Y-51785520D01*
X89001140Y-52345429D01*
X89318303Y-52820097D01*
X89670638Y-53055520D01*
X89618257Y-53090520D01*
X89343140Y-53090520D01*
X89221509Y-53066326D01*
X89099878Y-53090520D01*
X89099874Y-53090520D01*
X89048797Y-53100680D01*
X87501474Y-53100680D01*
X86984006Y-52583213D01*
X86915105Y-52480095D01*
X86506593Y-52207136D01*
X86146356Y-52135480D01*
X86146352Y-52135480D01*
X86024720Y-52111286D01*
X85903088Y-52135480D01*
X83479352Y-52135480D01*
X83357720Y-52111286D01*
X83236088Y-52135480D01*
X83236084Y-52135480D01*
X82875847Y-52207136D01*
X82467335Y-52480095D01*
X82398433Y-52583214D01*
X79508607Y-55473040D01*
X71661583Y-55473040D01*
X71486869Y-55356300D01*
X71068293Y-55273040D01*
X70785627Y-55273040D01*
X70367051Y-55356300D01*
X69892383Y-55673463D01*
X69575220Y-56148131D01*
X69463847Y-56708040D01*
X69575220Y-57267949D01*
X69892383Y-57742617D01*
X70367051Y-58059780D01*
X70785627Y-58143040D01*
X71068293Y-58143040D01*
X71486869Y-58059780D01*
X71661583Y-57943040D01*
X79898528Y-57943040D01*
X80020160Y-57967234D01*
X80141792Y-57943040D01*
X80141796Y-57943040D01*
X80502033Y-57871384D01*
X80910545Y-57598425D01*
X80979447Y-57495306D01*
X83869273Y-54605480D01*
X85513167Y-54605480D01*
X86030635Y-55122949D01*
X86099535Y-55226065D01*
X86202651Y-55294965D01*
X86202652Y-55294966D01*
X86508047Y-55499024D01*
X86868284Y-55570680D01*
X86868288Y-55570680D01*
X86989920Y-55594874D01*
X87111552Y-55570680D01*
X89089718Y-55570680D01*
X89211350Y-55594874D01*
X89332982Y-55570680D01*
X89332986Y-55570680D01*
X89384063Y-55560520D01*
X89618257Y-55560520D01*
X89670638Y-55595520D01*
X89318303Y-55830943D01*
X89001140Y-56305611D01*
X88889767Y-56865520D01*
X89001140Y-57425429D01*
X89318303Y-57900097D01*
X89792971Y-58217260D01*
X90211547Y-58300520D01*
X90494213Y-58300520D01*
X90912789Y-58217260D01*
X91387457Y-57900097D01*
X91704620Y-57425429D01*
X91815993Y-56865520D01*
X91704620Y-56305611D01*
X91387457Y-55830943D01*
X91035122Y-55595520D01*
X91387457Y-55360097D01*
X91704620Y-54885429D01*
X91815993Y-54325520D01*
X91704620Y-53765611D01*
X91387457Y-53290943D01*
X91207231Y-53170520D01*
X93062361Y-53170520D01*
X93062360Y-57414514D01*
X91338755Y-59138120D01*
X87537807Y-59138120D01*
X87401400Y-59110987D01*
X87264993Y-59138120D01*
X86861000Y-59218479D01*
X86402871Y-59524591D01*
X86325602Y-59640232D01*
X82926952Y-63038883D01*
X82811312Y-63116151D01*
X82734043Y-63231792D01*
X82505199Y-63574281D01*
X82397707Y-64114680D01*
X82424841Y-64251092D01*
X82424840Y-68544794D01*
X79151835Y-71817800D01*
X70560445Y-71817800D01*
X70424039Y-71790667D01*
X70287633Y-71817800D01*
X69883640Y-71898159D01*
X69696331Y-72023315D01*
X71032610Y-70687036D01*
X71148248Y-70609769D01*
X71225515Y-70494131D01*
X71225517Y-70494129D01*
X71454361Y-70151640D01*
X71561853Y-69611240D01*
X71534720Y-69474833D01*
X71534720Y-66360796D01*
X72748280Y-66360796D01*
X72748280Y-67090804D01*
X73027642Y-67765244D01*
X73543836Y-68281438D01*
X74218276Y-68560800D01*
X74948284Y-68560800D01*
X75622724Y-68281438D01*
X76138918Y-67765244D01*
X76418280Y-67090804D01*
X76418280Y-66360796D01*
X76138918Y-65686356D01*
X75978362Y-65525800D01*
X77735840Y-65525800D01*
X77735840Y-67925800D01*
X77785123Y-68173565D01*
X77925471Y-68383609D01*
X78135515Y-68523957D01*
X78383280Y-68573240D01*
X80783280Y-68573240D01*
X81031045Y-68523957D01*
X81241089Y-68383609D01*
X81381437Y-68173565D01*
X81430720Y-67925800D01*
X81430720Y-65525800D01*
X81381437Y-65278035D01*
X81241089Y-65067991D01*
X81031045Y-64927643D01*
X80783280Y-64878360D01*
X78383280Y-64878360D01*
X78135515Y-64927643D01*
X77925471Y-65067991D01*
X77785123Y-65278035D01*
X77735840Y-65525800D01*
X75978362Y-65525800D01*
X75622724Y-65170162D01*
X74948284Y-64890800D01*
X74218276Y-64890800D01*
X73543836Y-65170162D01*
X73027642Y-65686356D01*
X72748280Y-66360796D01*
X71534720Y-66360796D01*
X71534720Y-63337085D01*
X73558045Y-61313760D01*
X81585553Y-61313760D01*
X81721960Y-61340893D01*
X81858367Y-61313760D01*
X82262360Y-61233401D01*
X82720489Y-60927289D01*
X82797759Y-60811646D01*
X85584032Y-58025374D01*
X85704742Y-57975374D01*
X86108414Y-57571702D01*
X86326880Y-57044279D01*
X86326880Y-56473401D01*
X86108414Y-55945978D01*
X85704742Y-55542306D01*
X85177319Y-55323840D01*
X84606441Y-55323840D01*
X84079018Y-55542306D01*
X83675346Y-55945978D01*
X83625346Y-56066688D01*
X81148275Y-58543760D01*
X73120765Y-58543760D01*
X72984359Y-58516627D01*
X72847953Y-58543760D01*
X72443960Y-58624119D01*
X71985831Y-58930231D01*
X71908560Y-59045875D01*
X69266833Y-61687602D01*
X69151192Y-61764871D01*
X69073923Y-61880512D01*
X68845079Y-62223001D01*
X68737587Y-62763400D01*
X68764721Y-62899812D01*
X68764720Y-69037554D01*
X62896512Y-74905763D01*
X62780872Y-74983031D01*
X62703603Y-75098672D01*
X62474759Y-75441161D01*
X62367267Y-75981560D01*
X62394401Y-76117972D01*
X62394400Y-91841221D01*
X59410752Y-94824870D01*
X59295112Y-94902138D01*
X59217843Y-95017779D01*
X58988999Y-95360268D01*
X58881507Y-95900667D01*
X58908640Y-96037074D01*
X58908640Y-96387641D01*
X58907554Y-96388727D01*
X58658640Y-96989658D01*
X57428640Y-96989658D01*
X57179726Y-96388727D01*
X56719793Y-95928794D01*
X56118862Y-95679880D01*
X55468418Y-95679880D01*
X54867487Y-95928794D01*
X54407554Y-96388727D01*
X54158640Y-96989658D01*
X45338200Y-96989658D01*
X45338200Y-85833716D01*
X56071920Y-85833716D01*
X56071920Y-86563724D01*
X56351282Y-87238164D01*
X56867476Y-87754358D01*
X57541916Y-88033720D01*
X58271924Y-88033720D01*
X58946364Y-87754358D01*
X59462558Y-87238164D01*
X59741920Y-86563724D01*
X59741920Y-85833716D01*
X59462558Y-85159276D01*
X58946364Y-84643082D01*
X58271924Y-84363720D01*
X57541916Y-84363720D01*
X56867476Y-84643082D01*
X56351282Y-85159276D01*
X56071920Y-85833716D01*
X45338200Y-85833716D01*
X45338200Y-79998720D01*
X56059480Y-79998720D01*
X56059480Y-82398720D01*
X56108763Y-82646485D01*
X56249111Y-82856529D01*
X56459155Y-82996877D01*
X56706920Y-83046160D01*
X59106920Y-83046160D01*
X59354685Y-82996877D01*
X59564729Y-82856529D01*
X59705077Y-82646485D01*
X59754360Y-82398720D01*
X59754360Y-79998720D01*
X59705077Y-79750955D01*
X59564729Y-79540911D01*
X59354685Y-79400563D01*
X59106920Y-79351280D01*
X56706920Y-79351280D01*
X56459155Y-79400563D01*
X56249111Y-79540911D01*
X56108763Y-79750955D01*
X56059480Y-79998720D01*
X45338200Y-79998720D01*
X45338200Y-76091141D01*
X45841920Y-76091141D01*
X45841920Y-77152139D01*
X46247946Y-78132374D01*
X46998186Y-78882614D01*
X47978421Y-79288640D01*
X49039419Y-79288640D01*
X50019654Y-78882614D01*
X50769894Y-78132374D01*
X51175920Y-77152139D01*
X51175920Y-76091141D01*
X50769894Y-75110906D01*
X50019654Y-74360666D01*
X49039419Y-73954640D01*
X47978421Y-73954640D01*
X46998186Y-74360666D01*
X46247946Y-75110906D01*
X45841920Y-76091141D01*
X45338200Y-76091141D01*
X45338200Y-69484240D01*
X51572087Y-69484240D01*
X51683460Y-70044149D01*
X52000623Y-70518817D01*
X52475291Y-70835980D01*
X52893867Y-70919240D01*
X53176533Y-70919240D01*
X53595109Y-70835980D01*
X54069777Y-70518817D01*
X54386940Y-70044149D01*
X54498313Y-69484240D01*
X54386940Y-68924331D01*
X54069777Y-68449663D01*
X53595109Y-68132500D01*
X53176533Y-68049240D01*
X52893867Y-68049240D01*
X52475291Y-68132500D01*
X52000623Y-68449663D01*
X51683460Y-68924331D01*
X51572087Y-69484240D01*
X45338200Y-69484240D01*
X45338200Y-59946000D01*
X56758560Y-59946000D01*
X56758560Y-61466000D01*
X56807843Y-61713765D01*
X56948191Y-61923809D01*
X57158235Y-62064157D01*
X57339049Y-62100123D01*
X56983376Y-62455796D01*
X56771000Y-62968517D01*
X56771000Y-63523483D01*
X56983376Y-64036204D01*
X57375796Y-64428624D01*
X57586740Y-64516000D01*
X57375796Y-64603376D01*
X56983376Y-64995796D01*
X56771000Y-65508517D01*
X56771000Y-66063483D01*
X56983376Y-66576204D01*
X57375796Y-66968624D01*
X57888517Y-67181000D01*
X58443483Y-67181000D01*
X58956204Y-66968624D01*
X59348624Y-66576204D01*
X59561000Y-66063483D01*
X59561000Y-65508517D01*
X59354823Y-65010760D01*
X62483720Y-65010760D01*
X62483720Y-66530760D01*
X62533003Y-66778525D01*
X62673351Y-66988569D01*
X62883395Y-67128917D01*
X63131160Y-67178200D01*
X64651160Y-67178200D01*
X64898925Y-67128917D01*
X65108969Y-66988569D01*
X65249317Y-66778525D01*
X65298600Y-66530760D01*
X65298600Y-65010760D01*
X65249317Y-64762995D01*
X65108969Y-64552951D01*
X64898925Y-64412603D01*
X64718111Y-64376637D01*
X65073784Y-64020964D01*
X65286160Y-63508243D01*
X65286160Y-62953277D01*
X65073784Y-62440556D01*
X64681364Y-62048136D01*
X64470420Y-61960760D01*
X64681364Y-61873384D01*
X65073784Y-61480964D01*
X65286160Y-60968243D01*
X65286160Y-60413277D01*
X65073784Y-59900556D01*
X64681364Y-59508136D01*
X64168643Y-59295760D01*
X63613677Y-59295760D01*
X63100956Y-59508136D01*
X62708536Y-59900556D01*
X62496160Y-60413277D01*
X62496160Y-60968243D01*
X62708536Y-61480964D01*
X63100956Y-61873384D01*
X63311900Y-61960760D01*
X63100956Y-62048136D01*
X62708536Y-62440556D01*
X62496160Y-62953277D01*
X62496160Y-63508243D01*
X62708536Y-64020964D01*
X63064209Y-64376637D01*
X62883395Y-64412603D01*
X62673351Y-64552951D01*
X62533003Y-64762995D01*
X62483720Y-65010760D01*
X59354823Y-65010760D01*
X59348624Y-64995796D01*
X58956204Y-64603376D01*
X58745260Y-64516000D01*
X58956204Y-64428624D01*
X59348624Y-64036204D01*
X59561000Y-63523483D01*
X59561000Y-62968517D01*
X59348624Y-62455796D01*
X58992951Y-62100123D01*
X59173765Y-62064157D01*
X59383809Y-61923809D01*
X59524157Y-61713765D01*
X59573440Y-61466000D01*
X59573440Y-59946000D01*
X59524157Y-59698235D01*
X59383809Y-59488191D01*
X59173765Y-59347843D01*
X58926000Y-59298560D01*
X57406000Y-59298560D01*
X57158235Y-59347843D01*
X56948191Y-59488191D01*
X56807843Y-59698235D01*
X56758560Y-59946000D01*
X45338200Y-59946000D01*
X45338200Y-56498801D01*
X51600200Y-56498801D01*
X51600200Y-57069679D01*
X51818666Y-57597102D01*
X52222338Y-58000774D01*
X52749761Y-58219240D01*
X53320639Y-58219240D01*
X53848062Y-58000774D01*
X54251734Y-57597102D01*
X54470200Y-57069679D01*
X54470200Y-56498801D01*
X54438637Y-56422601D01*
X56791960Y-56422601D01*
X56791960Y-56993479D01*
X57010426Y-57520902D01*
X57414098Y-57924574D01*
X57941521Y-58143040D01*
X58512399Y-58143040D01*
X59039822Y-57924574D01*
X59443494Y-57520902D01*
X59661960Y-56993479D01*
X59661960Y-56422601D01*
X59443494Y-55895178D01*
X59039822Y-55491506D01*
X58512399Y-55273040D01*
X57941521Y-55273040D01*
X57414098Y-55491506D01*
X57010426Y-55895178D01*
X56791960Y-56422601D01*
X54438637Y-56422601D01*
X54251734Y-55971378D01*
X53848062Y-55567706D01*
X53320639Y-55349240D01*
X52749761Y-55349240D01*
X52222338Y-55567706D01*
X51818666Y-55971378D01*
X51600200Y-56498801D01*
X45338200Y-56498801D01*
X45338200Y-52339240D01*
X51612727Y-52339240D01*
X51724100Y-52899149D01*
X52041263Y-53373817D01*
X52515931Y-53690980D01*
X52934507Y-53774240D01*
X53217173Y-53774240D01*
X53635749Y-53690980D01*
X54110417Y-53373817D01*
X54427580Y-52899149D01*
X54538953Y-52339240D01*
X54427580Y-51779331D01*
X54110417Y-51304663D01*
X53635749Y-50987500D01*
X53217173Y-50904240D01*
X52934507Y-50904240D01*
X52515931Y-50987500D01*
X52041263Y-51304663D01*
X51724100Y-51779331D01*
X51612727Y-52339240D01*
X45338200Y-52339240D01*
X45338200Y-48709400D01*
X56504920Y-48709400D01*
X56504920Y-50909400D01*
X56554203Y-51157165D01*
X56694551Y-51367209D01*
X56904595Y-51507557D01*
X57152360Y-51556840D01*
X59352360Y-51556840D01*
X59600125Y-51507557D01*
X59810169Y-51367209D01*
X59950517Y-51157165D01*
X59999800Y-50909400D01*
X59999800Y-48709400D01*
X59950517Y-48461635D01*
X59810169Y-48251591D01*
X59600125Y-48111243D01*
X59352360Y-48061960D01*
X57152360Y-48061960D01*
X56904595Y-48111243D01*
X56694551Y-48251591D01*
X56554203Y-48461635D01*
X56504920Y-48709400D01*
X45338200Y-48709400D01*
X45338200Y-44739560D01*
X65302968Y-44739560D01*
X65422102Y-45338487D01*
X65761367Y-45846233D01*
X66005803Y-46009560D01*
X65761367Y-46172887D01*
X65422102Y-46680633D01*
X65302968Y-47279560D01*
X65422102Y-47878487D01*
X65718736Y-48322431D01*
X65510231Y-48461751D01*
X65369883Y-48671795D01*
X65320600Y-48919560D01*
X65320600Y-50719560D01*
X65369883Y-50967325D01*
X65510231Y-51177369D01*
X65720275Y-51317717D01*
X65968040Y-51367000D01*
X67768040Y-51367000D01*
X68015805Y-51317717D01*
X68225849Y-51177369D01*
X68366197Y-50967325D01*
X68415480Y-50719560D01*
X68415480Y-49364396D01*
X74004320Y-49364396D01*
X74004320Y-50094404D01*
X74283682Y-50768844D01*
X74799876Y-51285038D01*
X75474316Y-51564400D01*
X76204324Y-51564400D01*
X76878764Y-51285038D01*
X77394958Y-50768844D01*
X77674320Y-50094404D01*
X77674320Y-49364396D01*
X77394958Y-48689956D01*
X76878764Y-48173762D01*
X76204324Y-47894400D01*
X75474316Y-47894400D01*
X74799876Y-48173762D01*
X74283682Y-48689956D01*
X74004320Y-49364396D01*
X68415480Y-49364396D01*
X68415480Y-48919560D01*
X68366197Y-48671795D01*
X68225849Y-48461751D01*
X68017344Y-48322431D01*
X68313978Y-47878487D01*
X68433112Y-47279560D01*
X68313978Y-46680633D01*
X67974713Y-46172887D01*
X67730277Y-46009560D01*
X67974713Y-45846233D01*
X68313978Y-45338487D01*
X68433112Y-44739560D01*
X68313978Y-44140633D01*
X67974713Y-43632887D01*
X67819834Y-43529400D01*
X73991880Y-43529400D01*
X73991880Y-45929400D01*
X74041163Y-46177165D01*
X74181511Y-46387209D01*
X74391555Y-46527557D01*
X74639320Y-46576840D01*
X77039320Y-46576840D01*
X77287085Y-46527557D01*
X77497129Y-46387209D01*
X77637477Y-46177165D01*
X77686760Y-45929400D01*
X77686760Y-44058840D01*
X83428767Y-44058840D01*
X83540140Y-44618749D01*
X83857303Y-45093417D01*
X84331971Y-45410580D01*
X84750547Y-45493840D01*
X85033213Y-45493840D01*
X85451789Y-45410580D01*
X85926457Y-45093417D01*
X86243620Y-44618749D01*
X86354993Y-44058840D01*
X86243620Y-43498931D01*
X85926457Y-43024263D01*
X85451789Y-42707100D01*
X85033213Y-42623840D01*
X84750547Y-42623840D01*
X84331971Y-42707100D01*
X83857303Y-43024263D01*
X83540140Y-43498931D01*
X83428767Y-44058840D01*
X77686760Y-44058840D01*
X77686760Y-43529400D01*
X77637477Y-43281635D01*
X77497129Y-43071591D01*
X77287085Y-42931243D01*
X77039320Y-42881960D01*
X74639320Y-42881960D01*
X74391555Y-42931243D01*
X74181511Y-43071591D01*
X74041163Y-43281635D01*
X73991880Y-43529400D01*
X67819834Y-43529400D01*
X67466967Y-43293622D01*
X67019222Y-43204560D01*
X66716858Y-43204560D01*
X66269113Y-43293622D01*
X65761367Y-43632887D01*
X65422102Y-44140633D01*
X65302968Y-44739560D01*
X45338200Y-44739560D01*
X45338200Y-39571021D01*
X45872400Y-39571021D01*
X45872400Y-40632019D01*
X46278426Y-41612254D01*
X47028666Y-42362494D01*
X48008901Y-42768520D01*
X49069899Y-42768520D01*
X50050134Y-42362494D01*
X50446850Y-41965778D01*
X88738200Y-41965778D01*
X88738200Y-42616222D01*
X88987114Y-43217153D01*
X89447047Y-43677086D01*
X90047978Y-43926000D01*
X90698422Y-43926000D01*
X91299353Y-43677086D01*
X91759286Y-43217153D01*
X92008200Y-42616222D01*
X92008200Y-41965778D01*
X96238200Y-41965778D01*
X96238200Y-42616222D01*
X96487114Y-43217153D01*
X96947047Y-43677086D01*
X97547978Y-43926000D01*
X98198422Y-43926000D01*
X98799353Y-43677086D01*
X99126799Y-43349640D01*
X102392200Y-43349640D01*
X102392200Y-44869640D01*
X102441483Y-45117405D01*
X102581831Y-45327449D01*
X102791875Y-45467797D01*
X103039640Y-45517080D01*
X104559640Y-45517080D01*
X104807405Y-45467797D01*
X105017449Y-45327449D01*
X105157797Y-45117405D01*
X105207080Y-44869640D01*
X105207080Y-43349640D01*
X105157797Y-43101875D01*
X105017449Y-42891831D01*
X104807405Y-42751483D01*
X104626591Y-42715517D01*
X104982264Y-42359844D01*
X105194640Y-41847123D01*
X105194640Y-41589960D01*
X106446247Y-41589960D01*
X106557620Y-42149869D01*
X106874783Y-42624537D01*
X107349451Y-42941700D01*
X107768027Y-43024960D01*
X108050693Y-43024960D01*
X108469269Y-42941700D01*
X108943937Y-42624537D01*
X109261100Y-42149869D01*
X109368431Y-41610280D01*
X111074127Y-41610280D01*
X111185500Y-42170189D01*
X111502663Y-42644857D01*
X111977331Y-42962020D01*
X112395907Y-43045280D01*
X112678573Y-43045280D01*
X113097149Y-42962020D01*
X113571817Y-42644857D01*
X113888980Y-42170189D01*
X114000353Y-41610280D01*
X113888980Y-41050371D01*
X113571817Y-40575703D01*
X113097149Y-40258540D01*
X112678573Y-40175280D01*
X112395907Y-40175280D01*
X111977331Y-40258540D01*
X111502663Y-40575703D01*
X111185500Y-41050371D01*
X111074127Y-41610280D01*
X109368431Y-41610280D01*
X109372473Y-41589960D01*
X109261100Y-41030051D01*
X108943937Y-40555383D01*
X108469269Y-40238220D01*
X108050693Y-40154960D01*
X107768027Y-40154960D01*
X107349451Y-40238220D01*
X106874783Y-40555383D01*
X106557620Y-41030051D01*
X106446247Y-41589960D01*
X105194640Y-41589960D01*
X105194640Y-41292157D01*
X104982264Y-40779436D01*
X104589844Y-40387016D01*
X104378900Y-40299640D01*
X104589844Y-40212264D01*
X104982264Y-39819844D01*
X105142264Y-39433569D01*
X106311273Y-38264560D01*
X115635760Y-38264560D01*
X115635760Y-39784560D01*
X115685043Y-40032325D01*
X115825391Y-40242369D01*
X116035435Y-40382717D01*
X116216249Y-40418683D01*
X115860576Y-40774356D01*
X115648200Y-41287077D01*
X115648200Y-41842043D01*
X115860576Y-42354764D01*
X116252996Y-42747184D01*
X116463940Y-42834560D01*
X116252996Y-42921936D01*
X115860576Y-43314356D01*
X115648200Y-43827077D01*
X115648200Y-44382043D01*
X115860576Y-44894764D01*
X116252996Y-45287184D01*
X116765717Y-45499560D01*
X117320683Y-45499560D01*
X117833404Y-45287184D01*
X118225824Y-44894764D01*
X118438200Y-44382043D01*
X118438200Y-43827077D01*
X118225824Y-43314356D01*
X117833404Y-42921936D01*
X117622460Y-42834560D01*
X117833404Y-42747184D01*
X118225824Y-42354764D01*
X118438200Y-41842043D01*
X118438200Y-41287077D01*
X118225824Y-40774356D01*
X117870151Y-40418683D01*
X118050965Y-40382717D01*
X118261009Y-40242369D01*
X118401357Y-40032325D01*
X118450640Y-39784560D01*
X118450640Y-38264560D01*
X120451600Y-38264560D01*
X120451600Y-39784560D01*
X120500883Y-40032325D01*
X120641231Y-40242369D01*
X120851275Y-40382717D01*
X121032089Y-40418683D01*
X120676416Y-40774356D01*
X120464040Y-41287077D01*
X120464040Y-41842043D01*
X120676416Y-42354764D01*
X121068836Y-42747184D01*
X121279780Y-42834560D01*
X121068836Y-42921936D01*
X120676416Y-43314356D01*
X120464040Y-43827077D01*
X120464040Y-44382043D01*
X120676416Y-44894764D01*
X121068836Y-45287184D01*
X121581557Y-45499560D01*
X122136523Y-45499560D01*
X122649244Y-45287184D01*
X123041664Y-44894764D01*
X123254040Y-44382043D01*
X123254040Y-43827077D01*
X123041664Y-43314356D01*
X122649244Y-42921936D01*
X122438300Y-42834560D01*
X122649244Y-42747184D01*
X123041664Y-42354764D01*
X123254040Y-41842043D01*
X123254040Y-41287077D01*
X123041664Y-40774356D01*
X122685991Y-40418683D01*
X122866805Y-40382717D01*
X123076849Y-40242369D01*
X123217197Y-40032325D01*
X123266480Y-39784560D01*
X123266480Y-38264560D01*
X123217197Y-38016795D01*
X123076849Y-37806751D01*
X122866805Y-37666403D01*
X122619040Y-37617120D01*
X121099040Y-37617120D01*
X120851275Y-37666403D01*
X120641231Y-37806751D01*
X120500883Y-38016795D01*
X120451600Y-38264560D01*
X118450640Y-38264560D01*
X118401357Y-38016795D01*
X118261009Y-37806751D01*
X118050965Y-37666403D01*
X117803200Y-37617120D01*
X116283200Y-37617120D01*
X116035435Y-37666403D01*
X115825391Y-37806751D01*
X115685043Y-38016795D01*
X115635760Y-38264560D01*
X106311273Y-38264560D01*
X107867194Y-36708640D01*
X118584417Y-36708640D01*
X118759131Y-36825380D01*
X119177707Y-36908640D01*
X119460373Y-36908640D01*
X119878949Y-36825380D01*
X120353617Y-36508217D01*
X120588646Y-36156472D01*
X120642506Y-36286502D01*
X121046178Y-36690174D01*
X121573601Y-36908640D01*
X122144479Y-36908640D01*
X122671902Y-36690174D01*
X123075574Y-36286502D01*
X123294040Y-35759079D01*
X123294040Y-35188201D01*
X123248145Y-35077400D01*
X129333854Y-35077400D01*
X129507316Y-35949454D01*
X130001295Y-36688745D01*
X130740586Y-37182724D01*
X131392512Y-37312400D01*
X131832768Y-37312400D01*
X132484694Y-37182724D01*
X133223985Y-36688745D01*
X133717964Y-35949454D01*
X133891426Y-35077400D01*
X136552534Y-35077400D01*
X136725996Y-35949454D01*
X137219975Y-36688745D01*
X137959266Y-37182724D01*
X138611192Y-37312400D01*
X139051448Y-37312400D01*
X139703374Y-37182724D01*
X140442665Y-36688745D01*
X140936644Y-35949454D01*
X141110106Y-35077400D01*
X140936644Y-34205346D01*
X140442665Y-33466055D01*
X139703374Y-32972076D01*
X139051448Y-32842400D01*
X138611192Y-32842400D01*
X137959266Y-32972076D01*
X137219975Y-33466055D01*
X136725996Y-34205346D01*
X136552534Y-35077400D01*
X133891426Y-35077400D01*
X133717964Y-34205346D01*
X133223985Y-33466055D01*
X132484694Y-32972076D01*
X131832768Y-32842400D01*
X131392512Y-32842400D01*
X130740586Y-32972076D01*
X130001295Y-33466055D01*
X129507316Y-34205346D01*
X129333854Y-35077400D01*
X123248145Y-35077400D01*
X123075574Y-34660778D01*
X122671902Y-34257106D01*
X122144479Y-34038640D01*
X121573601Y-34038640D01*
X121046178Y-34257106D01*
X120642506Y-34660778D01*
X120588646Y-34790808D01*
X120353617Y-34439063D01*
X119878949Y-34121900D01*
X119460373Y-34038640D01*
X119177707Y-34038640D01*
X118759131Y-34121900D01*
X118584417Y-34238640D01*
X107477270Y-34238640D01*
X107355639Y-34214446D01*
X107234008Y-34238640D01*
X107234004Y-34238640D01*
X106873767Y-34310296D01*
X106873765Y-34310297D01*
X106873766Y-34310297D01*
X106568372Y-34514354D01*
X106568371Y-34514355D01*
X106465255Y-34583255D01*
X106396355Y-34686371D01*
X103395711Y-37687016D01*
X103009436Y-37847016D01*
X102617016Y-38239436D01*
X102404640Y-38752157D01*
X102404640Y-39307123D01*
X102617016Y-39819844D01*
X103009436Y-40212264D01*
X103220380Y-40299640D01*
X103009436Y-40387016D01*
X102617016Y-40779436D01*
X102404640Y-41292157D01*
X102404640Y-41847123D01*
X102617016Y-42359844D01*
X102972689Y-42715517D01*
X102791875Y-42751483D01*
X102581831Y-42891831D01*
X102441483Y-43101875D01*
X102392200Y-43349640D01*
X99126799Y-43349640D01*
X99259286Y-43217153D01*
X99508200Y-42616222D01*
X99508200Y-41965778D01*
X99259286Y-41364847D01*
X98799353Y-40904914D01*
X98198422Y-40656000D01*
X97547978Y-40656000D01*
X96947047Y-40904914D01*
X96487114Y-41364847D01*
X96238200Y-41965778D01*
X92008200Y-41965778D01*
X91759286Y-41364847D01*
X91299353Y-40904914D01*
X90698422Y-40656000D01*
X90047978Y-40656000D01*
X89447047Y-40904914D01*
X88987114Y-41364847D01*
X88738200Y-41965778D01*
X50446850Y-41965778D01*
X50800374Y-41612254D01*
X51206400Y-40632019D01*
X51206400Y-39571021D01*
X51116425Y-39353801D01*
X51640840Y-39353801D01*
X51640840Y-39924679D01*
X51859306Y-40452102D01*
X52262978Y-40855774D01*
X52790401Y-41074240D01*
X53361279Y-41074240D01*
X53888702Y-40855774D01*
X54292374Y-40452102D01*
X54510840Y-39924679D01*
X54510840Y-39649400D01*
X56483370Y-39649400D01*
X56618026Y-40326363D01*
X57001495Y-40900265D01*
X57575397Y-41283734D01*
X58081480Y-41384400D01*
X58423240Y-41384400D01*
X58929323Y-41283734D01*
X59503225Y-40900265D01*
X59886694Y-40326363D01*
X60021350Y-39649400D01*
X59886694Y-38972437D01*
X59503225Y-38398535D01*
X58929323Y-38015066D01*
X58423240Y-37914400D01*
X58081480Y-37914400D01*
X57575397Y-38015066D01*
X57001495Y-38398535D01*
X56618026Y-38972437D01*
X56483370Y-39649400D01*
X54510840Y-39649400D01*
X54510840Y-39353801D01*
X54292374Y-38826378D01*
X53888702Y-38422706D01*
X53361279Y-38204240D01*
X52790401Y-38204240D01*
X52262978Y-38422706D01*
X51859306Y-38826378D01*
X51640840Y-39353801D01*
X51116425Y-39353801D01*
X50800374Y-38590786D01*
X50050134Y-37840546D01*
X49069899Y-37434520D01*
X48008901Y-37434520D01*
X47028666Y-37840546D01*
X46278426Y-38590786D01*
X45872400Y-39571021D01*
X45338200Y-39571021D01*
X45338200Y-36642040D01*
X86079450Y-36642040D01*
X86214106Y-37319003D01*
X86597575Y-37892905D01*
X87171477Y-38276374D01*
X87677560Y-38377040D01*
X88019320Y-38377040D01*
X88525403Y-38276374D01*
X89099305Y-37892905D01*
X89482774Y-37319003D01*
X89617430Y-36642040D01*
X89482774Y-35965077D01*
X89200110Y-35542040D01*
X96261000Y-35542040D01*
X96261000Y-37742040D01*
X96310283Y-37989805D01*
X96450631Y-38199849D01*
X96660675Y-38340197D01*
X96908440Y-38389480D01*
X99108440Y-38389480D01*
X99356205Y-38340197D01*
X99566249Y-38199849D01*
X99706597Y-37989805D01*
X99755880Y-37742040D01*
X99755880Y-35542040D01*
X99706597Y-35294275D01*
X99566249Y-35084231D01*
X99356205Y-34943883D01*
X99108440Y-34894600D01*
X96908440Y-34894600D01*
X96660675Y-34943883D01*
X96450631Y-35084231D01*
X96310283Y-35294275D01*
X96261000Y-35542040D01*
X89200110Y-35542040D01*
X89099305Y-35391175D01*
X88525403Y-35007706D01*
X88019320Y-34907040D01*
X87677560Y-34907040D01*
X87171477Y-35007706D01*
X86597575Y-35391175D01*
X86214106Y-35965077D01*
X86079450Y-36642040D01*
X45338200Y-36642040D01*
X45338200Y-34117280D01*
X52818894Y-34117280D01*
X52992356Y-34989334D01*
X53486335Y-35728625D01*
X54225626Y-36222604D01*
X54877552Y-36352280D01*
X55317808Y-36352280D01*
X55969734Y-36222604D01*
X56709025Y-35728625D01*
X57203004Y-34989334D01*
X57376466Y-34117280D01*
X57203004Y-33245226D01*
X56716606Y-32517280D01*
X68090240Y-32517280D01*
X68090240Y-35717280D01*
X68139523Y-35965045D01*
X68279871Y-36175089D01*
X68489915Y-36315437D01*
X68737680Y-36364720D01*
X71937680Y-36364720D01*
X72185445Y-36315437D01*
X72395489Y-36175089D01*
X72535837Y-35965045D01*
X72585120Y-35717280D01*
X72585120Y-33220156D01*
X77768600Y-33220156D01*
X77768600Y-33950164D01*
X78047962Y-34624604D01*
X78564156Y-35140798D01*
X79238596Y-35420160D01*
X79968604Y-35420160D01*
X80643044Y-35140798D01*
X81159238Y-34624604D01*
X81438600Y-33950164D01*
X81438600Y-33220156D01*
X81159238Y-32545716D01*
X80643044Y-32029522D01*
X79968604Y-31750160D01*
X79238596Y-31750160D01*
X78564156Y-32029522D01*
X78047962Y-32545716D01*
X77768600Y-33220156D01*
X72585120Y-33220156D01*
X72585120Y-32517280D01*
X72535837Y-32269515D01*
X72395489Y-32059471D01*
X72185445Y-31919123D01*
X71937680Y-31869840D01*
X68737680Y-31869840D01*
X68489915Y-31919123D01*
X68279871Y-32059471D01*
X68139523Y-32269515D01*
X68090240Y-32517280D01*
X56716606Y-32517280D01*
X56709025Y-32505935D01*
X55969734Y-32011956D01*
X55317808Y-31882280D01*
X54877552Y-31882280D01*
X54225626Y-32011956D01*
X53486335Y-32505935D01*
X52992356Y-33245226D01*
X52818894Y-34117280D01*
X45338200Y-34117280D01*
X45338200Y-27318986D01*
X46470094Y-27318986D01*
X46477120Y-27745030D01*
X46477120Y-28171209D01*
X46484440Y-28188880D01*
X46484755Y-28208003D01*
X46796760Y-28961250D01*
X46806467Y-28966322D01*
X46817379Y-28992666D01*
X47446094Y-29621381D01*
X47472438Y-29632293D01*
X47477510Y-29642000D01*
X47873828Y-29798554D01*
X48267551Y-29961640D01*
X48286680Y-29961640D01*
X48304466Y-29968666D01*
X48730510Y-29961640D01*
X49156689Y-29961640D01*
X49174360Y-29954320D01*
X49193483Y-29954005D01*
X49946730Y-29642000D01*
X49951802Y-29632293D01*
X49978146Y-29621381D01*
X50606861Y-28992666D01*
X50617773Y-28966322D01*
X50627480Y-28961250D01*
X50784034Y-28564932D01*
X50947120Y-28171209D01*
X50947120Y-28152080D01*
X50954146Y-28134294D01*
X50947120Y-27708250D01*
X50947120Y-27584400D01*
X52818894Y-27584400D01*
X52992356Y-28456454D01*
X53486335Y-29195745D01*
X54225626Y-29689724D01*
X54877552Y-29819400D01*
X55317808Y-29819400D01*
X55969734Y-29689724D01*
X56709025Y-29195745D01*
X57203004Y-28456454D01*
X57376466Y-27584400D01*
X57203004Y-26712346D01*
X56716606Y-25984400D01*
X68090240Y-25984400D01*
X68090240Y-29184400D01*
X68139523Y-29432165D01*
X68279871Y-29642209D01*
X68489915Y-29782557D01*
X68737680Y-29831840D01*
X71937680Y-29831840D01*
X72185445Y-29782557D01*
X72395489Y-29642209D01*
X72535837Y-29432165D01*
X72585120Y-29184400D01*
X72585120Y-27385160D01*
X77756160Y-27385160D01*
X77756160Y-29785160D01*
X77805443Y-30032925D01*
X77945791Y-30242969D01*
X78155835Y-30383317D01*
X78403600Y-30432600D01*
X80803600Y-30432600D01*
X81051365Y-30383317D01*
X81261409Y-30242969D01*
X81401757Y-30032925D01*
X81451040Y-29785160D01*
X81451040Y-28813188D01*
X107661710Y-28813188D01*
X107661710Y-30084333D01*
X107742102Y-30488492D01*
X108048341Y-30946810D01*
X108506659Y-31253048D01*
X109047280Y-31360584D01*
X109587902Y-31253048D01*
X110046220Y-30946810D01*
X110317280Y-30541140D01*
X110588341Y-30946810D01*
X111046659Y-31253048D01*
X111587280Y-31360584D01*
X112127902Y-31253048D01*
X112586220Y-30946810D01*
X112857280Y-30541140D01*
X113128341Y-30946810D01*
X113586659Y-31253048D01*
X114127280Y-31360584D01*
X114667902Y-31253048D01*
X115126220Y-30946810D01*
X115432458Y-30488492D01*
X115450855Y-30396000D01*
X117292200Y-30396000D01*
X117292200Y-32596000D01*
X117341483Y-32843765D01*
X117481831Y-33053809D01*
X117691875Y-33194157D01*
X117939640Y-33243440D01*
X120139640Y-33243440D01*
X120387405Y-33194157D01*
X120597449Y-33053809D01*
X120737797Y-32843765D01*
X120787080Y-32596000D01*
X120787080Y-31496000D01*
X122350650Y-31496000D01*
X122485306Y-32172963D01*
X122868775Y-32746865D01*
X123442677Y-33130334D01*
X123948760Y-33231000D01*
X124290520Y-33231000D01*
X124796603Y-33130334D01*
X125370505Y-32746865D01*
X125753974Y-32172963D01*
X125888630Y-31496000D01*
X125753974Y-30819037D01*
X125370505Y-30245135D01*
X124796603Y-29861666D01*
X124290520Y-29761000D01*
X123948760Y-29761000D01*
X123442677Y-29861666D01*
X122868775Y-30245135D01*
X122485306Y-30819037D01*
X122350650Y-31496000D01*
X120787080Y-31496000D01*
X120787080Y-30396000D01*
X120737797Y-30148235D01*
X120597449Y-29938191D01*
X120387405Y-29797843D01*
X120139640Y-29748560D01*
X117939640Y-29748560D01*
X117691875Y-29797843D01*
X117481831Y-29938191D01*
X117341483Y-30148235D01*
X117292200Y-30396000D01*
X115450855Y-30396000D01*
X115512850Y-30084333D01*
X115512850Y-28813187D01*
X115432458Y-28409028D01*
X115126219Y-27950710D01*
X114667901Y-27644472D01*
X114127280Y-27536936D01*
X113586658Y-27644472D01*
X113128340Y-27950711D01*
X112857280Y-28356381D01*
X112586219Y-27950710D01*
X112127901Y-27644472D01*
X111587280Y-27536936D01*
X111046658Y-27644472D01*
X110588340Y-27950711D01*
X110317280Y-28356381D01*
X110046219Y-27950710D01*
X109587901Y-27644472D01*
X109047280Y-27536936D01*
X108506658Y-27644472D01*
X108048340Y-27950711D01*
X107742102Y-28409029D01*
X107661710Y-28813188D01*
X81451040Y-28813188D01*
X81451040Y-27385160D01*
X81434846Y-27303746D01*
X135573294Y-27303746D01*
X135580320Y-27729790D01*
X135580320Y-28155969D01*
X135587640Y-28173640D01*
X135587955Y-28192763D01*
X135899960Y-28946010D01*
X135909667Y-28951082D01*
X135920579Y-28977426D01*
X136549294Y-29606141D01*
X136575638Y-29617053D01*
X136580710Y-29626760D01*
X136977028Y-29783314D01*
X137370751Y-29946400D01*
X137389880Y-29946400D01*
X137407666Y-29953426D01*
X137833710Y-29946400D01*
X138259889Y-29946400D01*
X138277560Y-29939080D01*
X138296683Y-29938765D01*
X139049930Y-29626760D01*
X139055002Y-29617053D01*
X139081346Y-29606141D01*
X139710061Y-28977426D01*
X139720973Y-28951082D01*
X139730680Y-28946010D01*
X139887234Y-28549692D01*
X140050320Y-28155969D01*
X140050320Y-28136840D01*
X140057346Y-28119054D01*
X140050320Y-27693010D01*
X140050320Y-27266831D01*
X140043000Y-27249160D01*
X140042685Y-27230037D01*
X139730680Y-26476790D01*
X139720973Y-26471718D01*
X139710061Y-26445374D01*
X139081346Y-25816659D01*
X139055002Y-25805747D01*
X139049930Y-25796040D01*
X138653612Y-25639486D01*
X138259889Y-25476400D01*
X138240760Y-25476400D01*
X138222974Y-25469374D01*
X137796930Y-25476400D01*
X137370751Y-25476400D01*
X137353080Y-25483720D01*
X137333957Y-25484035D01*
X136580710Y-25796040D01*
X136575638Y-25805747D01*
X136549294Y-25816659D01*
X135920579Y-26445374D01*
X135909667Y-26471718D01*
X135899960Y-26476790D01*
X135743406Y-26873108D01*
X135580320Y-27266831D01*
X135580320Y-27285960D01*
X135573294Y-27303746D01*
X81434846Y-27303746D01*
X81401757Y-27137395D01*
X81261409Y-26927351D01*
X81051365Y-26787003D01*
X80803600Y-26737720D01*
X78403600Y-26737720D01*
X78155835Y-26787003D01*
X77945791Y-26927351D01*
X77805443Y-27137395D01*
X77756160Y-27385160D01*
X72585120Y-27385160D01*
X72585120Y-25984400D01*
X72535837Y-25736635D01*
X72395489Y-25526591D01*
X72185445Y-25386243D01*
X71937680Y-25336960D01*
X68737680Y-25336960D01*
X68489915Y-25386243D01*
X68279871Y-25526591D01*
X68139523Y-25736635D01*
X68090240Y-25984400D01*
X56716606Y-25984400D01*
X56709025Y-25973055D01*
X55969734Y-25479076D01*
X55317808Y-25349400D01*
X54877552Y-25349400D01*
X54225626Y-25479076D01*
X53486335Y-25973055D01*
X52992356Y-26712346D01*
X52818894Y-27584400D01*
X50947120Y-27584400D01*
X50947120Y-27282071D01*
X50939800Y-27264400D01*
X50939485Y-27245277D01*
X50627480Y-26492030D01*
X50617773Y-26486958D01*
X50606861Y-26460614D01*
X49978146Y-25831899D01*
X49951802Y-25820987D01*
X49946730Y-25811280D01*
X49550412Y-25654726D01*
X49156689Y-25491640D01*
X49137560Y-25491640D01*
X49119774Y-25484614D01*
X48693730Y-25491640D01*
X48267551Y-25491640D01*
X48249880Y-25498960D01*
X48230757Y-25499275D01*
X47477510Y-25811280D01*
X47472438Y-25820987D01*
X47446094Y-25831899D01*
X46817379Y-26460614D01*
X46806467Y-26486958D01*
X46796760Y-26492030D01*
X46640206Y-26888348D01*
X46477120Y-27282071D01*
X46477120Y-27301200D01*
X46470094Y-27318986D01*
X45338200Y-27318986D01*
X45338200Y-23743120D01*
X141534680Y-23743120D01*
X141534680Y-48502714D01*
G36*
X99049280Y-71024126D02*
X98951577Y-70877903D01*
X98599242Y-70642480D01*
X98651623Y-70607480D01*
X99049280Y-70607480D01*
X99049280Y-71024126D01*
X99049280Y-71024126D01*
G37*
X99049280Y-71024126D02*
X98951577Y-70877903D01*
X98599242Y-70642480D01*
X98651623Y-70607480D01*
X99049280Y-70607480D01*
X99049280Y-71024126D01*
M02*
