%TF.GenerationSoftware,KiCad,Pcbnew,(5.0.0)*%
%TF.CreationDate,2018-11-17T19:21:28+09:00*%
%TF.ProjectId,ATTiny85-mppt,415454696E7938352D6D7070742E6B69,rev?*%
%TF.SameCoordinates,Original*%
%TF.FileFunction,Soldermask,Bot*%
%TF.FilePolarity,Negative*%
%FSLAX46Y46*%
G04 Gerber Fmt 4.6, Leading zero omitted, Abs format (unit mm)*
G04 Created by KiCad (PCBNEW (5.0.0)) date 11/17/18 19:21:28*
%MOMM*%
%LPD*%
G01*
G04 APERTURE LIST*
%ADD10C,1.600000*%
%ADD11O,1.600000X1.600000*%
%ADD12O,2.200000X2.200000*%
%ADD13R,2.200000X2.200000*%
%ADD14C,3.200000*%
%ADD15R,2.400000X2.400000*%
%ADD16C,2.400000*%
%ADD17C,2.000000*%
%ADD18O,3.200000X3.200000*%
%ADD19R,3.200000X3.200000*%
%ADD20C,1.800000*%
%ADD21R,1.800000X1.800000*%
%ADD22C,4.064000*%
%ADD23C,3.600000*%
%ADD24O,1.501140X2.499360*%
%ADD25R,1.520000X1.520000*%
%ADD26C,1.520000*%
%ADD27O,1.800000X1.800000*%
%ADD28R,1.600000X1.600000*%
G04 APERTURE END LIST*
D10*
X121859040Y-35473640D03*
D11*
X119319040Y-35473640D03*
D12*
X87848440Y-36642040D03*
D13*
X98008440Y-36642040D03*
D14*
X137734040Y-108930440D03*
X137815320Y-27711400D03*
X48712120Y-27726640D03*
D15*
X96611440Y-98790760D03*
D16*
X96611440Y-103790760D03*
X124131080Y-51912520D03*
D15*
X119131080Y-51912520D03*
X78633320Y-47238920D03*
D16*
X73633320Y-47238920D03*
D17*
X97873200Y-42291000D03*
X90373200Y-42291000D03*
D16*
X77464920Y-69292480D03*
D15*
X77464920Y-64292480D03*
X62814200Y-64292480D03*
D16*
X62814200Y-69292480D03*
X79603600Y-33585160D03*
D15*
X79603600Y-28585160D03*
D18*
X131612640Y-35077400D03*
D19*
X131612640Y-50317400D03*
X107579160Y-106131360D03*
D18*
X122819160Y-106131360D03*
D20*
X66812160Y-98734880D03*
D21*
X66812160Y-101274880D03*
D13*
X58252360Y-49809400D03*
D12*
X58252360Y-39649400D03*
D19*
X70337680Y-27584400D03*
D18*
X55097680Y-27584400D03*
X55097680Y-34117280D03*
D19*
X70337680Y-34117280D03*
D21*
X102768400Y-83058000D03*
D20*
X102768400Y-80518000D03*
X102768400Y-86207600D03*
D21*
X102768400Y-88747600D03*
D18*
X138831320Y-35077400D03*
D19*
X138831320Y-50317400D03*
X107579160Y-99674680D03*
D18*
X122819160Y-99674680D03*
D22*
X48539400Y-40101520D03*
X48508920Y-76621640D03*
X137154920Y-98333560D03*
X128366520Y-108788200D03*
D23*
X125105160Y-73385680D03*
X125105160Y-60685680D03*
X125105160Y-79314040D03*
X125105160Y-92014040D03*
D24*
X81955640Y-105196640D03*
X84495640Y-105196640D03*
X79415640Y-105196640D03*
X116951760Y-28056840D03*
X111871760Y-28056840D03*
X114411760Y-28056840D03*
D25*
X117043200Y-39024560D03*
D26*
X117043200Y-44104560D03*
X117043200Y-41564560D03*
X121859040Y-41564560D03*
X121859040Y-44104560D03*
D25*
X121859040Y-39024560D03*
D10*
X71531480Y-93888560D03*
D11*
X71531480Y-81188560D03*
X78673960Y-81254600D03*
D10*
X78673960Y-93954600D03*
X90297000Y-91897200D03*
D11*
X90297000Y-79197200D03*
X95138240Y-91881960D03*
D10*
X95138240Y-79181960D03*
D11*
X53075840Y-52339240D03*
D10*
X53075840Y-39639240D03*
X66812160Y-93888560D03*
D11*
X66812160Y-81188560D03*
D10*
X58237120Y-56555640D03*
D11*
X70937120Y-56555640D03*
X108153200Y-41661080D03*
D10*
X108153200Y-54361080D03*
D11*
X102829360Y-47508160D03*
D10*
X102829360Y-60208160D03*
X53106320Y-56555640D03*
D11*
X53106320Y-69255640D03*
D10*
X83520280Y-93954600D03*
D11*
X83520280Y-81254600D03*
X102768400Y-76992480D03*
D10*
X102768400Y-64292480D03*
D11*
X84231480Y-76763880D03*
D10*
X71531480Y-76763880D03*
X84815680Y-56550560D03*
D11*
X84815680Y-43850560D03*
D17*
X55793640Y-97314880D03*
X60293640Y-97314880D03*
X55793640Y-103814880D03*
X60293640Y-103814880D03*
D27*
X66868040Y-44739560D03*
X66868040Y-47279560D03*
D21*
X66868040Y-49819560D03*
D11*
X97917000Y-64292480D03*
X90297000Y-71912480D03*
X97917000Y-66832480D03*
X90297000Y-69372480D03*
X97917000Y-69372480D03*
X90297000Y-66832480D03*
X97917000Y-71912480D03*
D28*
X90297000Y-64292480D03*
X90373200Y-48935640D03*
D11*
X97993200Y-56555640D03*
X90373200Y-51475640D03*
X97993200Y-54015640D03*
X90373200Y-54015640D03*
X97993200Y-51475640D03*
X90373200Y-56555640D03*
X97993200Y-48935640D03*
D14*
X48712120Y-108757720D03*
D25*
X103799640Y-44109640D03*
D26*
X103799640Y-39029640D03*
X103799640Y-41569640D03*
D11*
X112872520Y-41661080D03*
D10*
X112872520Y-54361080D03*
D16*
X57906920Y-86198720D03*
D15*
X57906920Y-81198720D03*
D12*
X121818400Y-31760160D03*
D13*
X111658400Y-31760160D03*
D11*
X103799640Y-34335720D03*
D10*
X103799640Y-31795720D03*
M02*
