M48
;DRILL file {KiCad (5.0.0)} date 10/31/18 11:51:04
;FORMAT={-:-/ absolute / inch / decimal}
FMAT,2
INCH,TZ
T1C0.0315
T2C0.0354
T3C0.0394
T4C0.0394
T5C0.0433
T6C0.0472
T7C0.0630
T8C0.0709
T9C0.1200
T10C0.1260
%
G90
G05
M72
T1
X2.9422Y-2.759
X3.4422Y-2.759
X4.431Y-1.662
X4.931Y-1.662
X4.298Y-1.6362
X4.298Y-2.1362
X3.2198Y-3.0186
X3.2198Y-3.5186
X2.0884Y-2.203
X2.0884Y-2.703
X2.7152Y-3.0192
X2.7152Y-3.5192
X2.0896Y-1.5606
X2.0896Y-2.0606
X4.1288Y-1.6358
X4.1288Y-2.1358
X3.6014Y-3.0186
X3.6014Y-3.5186
X4.0236Y-1.5084
X4.5236Y-1.5084
X2.9432Y-3.0192
X2.9432Y-3.5192
X4.5718Y-1.127
X4.6718Y-1.127
X4.7718Y-1.127
X3.396Y-3.0186
X3.396Y-3.5186
X4.9004Y-1.3086
X4.9004Y-1.4086
X4.9004Y-1.5086
X4.6678Y-1.3086
X4.6678Y-1.4086
X4.6678Y-1.5086
X3.6376Y-1.8004
X3.6376Y-1.9004
X3.6376Y-2.0004
X3.6376Y-2.1004
X3.9376Y-1.8004
X3.9376Y-1.9004
X3.9376Y-2.0004
X3.9376Y-2.1004
X3.7934Y-3.0186
X3.7934Y-3.5186
X2.2904Y-2.203
X2.7904Y-2.203
X4.1298Y-2.2612
X4.1298Y-2.7612
X3.6378Y-2.4622
X3.6378Y-2.5622
X3.6378Y-2.6622
X3.6378Y-2.7622
X3.9378Y-2.4622
X3.9378Y-2.5622
X3.9378Y-2.6622
X3.9378Y-2.7622
X3.4928Y-1.7024
X3.4928Y-2.2024
T2
X2.7164Y-3.74
X2.7164Y-3.84
X4.129Y-3.2114
X4.129Y-3.3114
X4.129Y-2.9642
X4.129Y-3.0642
T3
X3.5393Y-1.3824
X3.8346Y-1.3824
X2.5488Y-1.9614
X2.6488Y-1.9614
X2.7488Y-1.9614
T4
X4.0534Y-1.124
X4.1534Y-1.124
X4.2534Y-1.124
X3.1266Y-4.1416
X3.2266Y-4.1416
X3.3266Y-4.1416
T5
X4.0224Y-1.3504
X4.4224Y-1.3504
X2.2934Y-1.561
X2.2934Y-1.961
X2.305Y-3.5779
X2.305Y-3.8338
X2.4822Y-3.5779
X2.4822Y-3.8338
T6
X3.134Y-1.6621
X3.134Y-1.859
X3.134Y-1.1254
X3.134Y-1.3223
X3.0351Y-2.3082
X3.232Y-2.3082
X4.552Y-2.0096
X4.7489Y-2.0096
X3.8036Y-3.8894
X3.8036Y-4.0863
X2.4731Y-2.596
X2.67Y-2.596
T7
X2.1692Y-1.086
X2.7692Y-1.086
X2.1692Y-1.3432
X2.7692Y-1.3432
X4.2354Y-4.1784
X4.8354Y-4.1784
X4.2354Y-3.9242
X4.8354Y-3.9242
X5.1816Y-1.381
X5.1816Y-1.981
X5.4658Y-1.381
X5.4658Y-1.981
T8
X4.9254Y-3.1226
X4.9254Y-3.6226
X4.9254Y-2.3892
X4.9254Y-2.8892
T9
X5.3998Y-3.8714
X1.9098Y-3.0166
X5.0538Y-4.283
X1.9114Y-1.4304
T10
X5.4258Y-1.091
X1.9178Y-4.2818
X1.9178Y-1.0916
X5.4226Y-4.2886
T0
M30
