%TF.GenerationSoftware,KiCad,Pcbnew,(5.0.2)-1*%
%TF.CreationDate,2018-12-26T10:34:29+09:00*%
%TF.ProjectId,ATTiny85-mppt,41545469-6e79-4383-952d-6d7070742e6b,1.9*%
%TF.SameCoordinates,Original*%
%TF.FileFunction,Copper,L2,Bot*%
%TF.FilePolarity,Positive*%
%FSLAX46Y46*%
G04 Gerber Fmt 4.6, Leading zero omitted, Abs format (unit mm)*
G04 Created by KiCad (PCBNEW (5.0.2)-1) date 2018-12-26 오전 10:34:29*
%MOMM*%
%LPD*%
G01*
G04 APERTURE LIST*
%ADD10R,2.200000X2.200000*%
%ADD11O,2.200000X2.200000*%
%ADD12C,1.600000*%
%ADD13O,1.600000X1.600000*%
%ADD14R,2.400000X2.400000*%
%ADD15C,2.400000*%
%ADD16C,2.000000*%
%ADD17O,3.200000X3.200000*%
%ADD18R,3.200000X3.200000*%
%ADD19C,1.800000*%
%ADD20R,1.800000X1.800000*%
%ADD21C,4.064000*%
%ADD22C,3.600000*%
%ADD23O,1.501140X2.499360*%
%ADD24R,1.520000X1.520000*%
%ADD25C,1.520000*%
%ADD26O,1.800000X1.800000*%
%ADD27R,1.600000X1.600000*%
%ADD28C,3.500000*%
%ADD29C,3.000000*%
%ADD30C,2.000000*%
%ADD31C,1.500000*%
%ADD32C,1.200000*%
%ADD33C,2.500000*%
%ADD34C,0.254000*%
G04 APERTURE END LIST*
D10*
X119039640Y-31496000D03*
D11*
X124119640Y-31496000D03*
D12*
X53035200Y-56784240D03*
D13*
X53035200Y-69484240D03*
D12*
X121859040Y-35473640D03*
D13*
X119319040Y-35473640D03*
D11*
X87848440Y-36642040D03*
D10*
X98008440Y-36642040D03*
D14*
X96611440Y-98790760D03*
D15*
X96611440Y-103790760D03*
X124131080Y-51912520D03*
D14*
X119131080Y-51912520D03*
X75839320Y-44729400D03*
D15*
X75839320Y-49729400D03*
D16*
X97873200Y-42291000D03*
X90373200Y-42291000D03*
D15*
X74583280Y-66725800D03*
D14*
X79583280Y-66725800D03*
D15*
X79603600Y-33585160D03*
D14*
X79603600Y-28585160D03*
D17*
X131612640Y-35077400D03*
D18*
X131612640Y-50317400D03*
X107579160Y-106131360D03*
D17*
X122819160Y-106131360D03*
D19*
X66812160Y-98734880D03*
D20*
X66812160Y-101274880D03*
D10*
X58252360Y-49809400D03*
D11*
X58252360Y-39649400D03*
D18*
X70337680Y-27584400D03*
D17*
X55097680Y-27584400D03*
X55097680Y-34117280D03*
D18*
X70337680Y-34117280D03*
D20*
X103692960Y-83626960D03*
D19*
X103692960Y-81086960D03*
X103713280Y-86918800D03*
D20*
X103713280Y-89458800D03*
D17*
X138831320Y-35077400D03*
D18*
X138831320Y-50317400D03*
X107579160Y-99674680D03*
D17*
X122819160Y-99674680D03*
D21*
X48539400Y-40101520D03*
X48508920Y-76621640D03*
X137154920Y-98333560D03*
X128366520Y-108788200D03*
D22*
X125105160Y-73385680D03*
X125105160Y-60685680D03*
X125105160Y-79314040D03*
X125105160Y-92014040D03*
D23*
X81955640Y-105196640D03*
X84495640Y-105196640D03*
X79415640Y-105196640D03*
X114127280Y-29448760D03*
X109047280Y-29448760D03*
X111587280Y-29448760D03*
D24*
X117043200Y-39024560D03*
D25*
X117043200Y-44104560D03*
X117043200Y-41564560D03*
X121859040Y-41564560D03*
X121859040Y-44104560D03*
D24*
X121859040Y-39024560D03*
D12*
X71531480Y-93888560D03*
D13*
X71531480Y-81188560D03*
X78673960Y-81254600D03*
D12*
X78673960Y-93954600D03*
X90297000Y-91897200D03*
D13*
X90297000Y-79197200D03*
X95138240Y-91881960D03*
D12*
X95138240Y-79181960D03*
D13*
X53075840Y-52339240D03*
D12*
X53075840Y-39639240D03*
X66812160Y-93888560D03*
D13*
X66812160Y-81188560D03*
D12*
X58226960Y-56708040D03*
D13*
X70926960Y-56708040D03*
X107909360Y-41589960D03*
D12*
X107909360Y-54289960D03*
X83520280Y-93954600D03*
D13*
X83520280Y-81254600D03*
X103687880Y-77022960D03*
D12*
X103687880Y-64322960D03*
D13*
X84231480Y-76895960D03*
D12*
X71531480Y-76895960D03*
X84891880Y-56758840D03*
D13*
X84891880Y-44058840D03*
D16*
X55793640Y-97314880D03*
X60293640Y-97314880D03*
X55793640Y-103814880D03*
X60293640Y-103814880D03*
D26*
X66868040Y-44739560D03*
X66868040Y-47279560D03*
D20*
X66868040Y-49819560D03*
D13*
X97917000Y-64292480D03*
X90297000Y-71912480D03*
X97917000Y-66832480D03*
X90297000Y-69372480D03*
X97917000Y-69372480D03*
X90297000Y-66832480D03*
X97917000Y-71912480D03*
D27*
X90297000Y-64292480D03*
X90352880Y-49245520D03*
D13*
X97972880Y-56865520D03*
X90352880Y-51785520D03*
X97972880Y-54325520D03*
X90352880Y-54325520D03*
X97972880Y-51785520D03*
X90352880Y-56865520D03*
X97972880Y-49245520D03*
D24*
X103799640Y-44109640D03*
D25*
X103799640Y-39029640D03*
X103799640Y-41569640D03*
D13*
X112537240Y-41610280D03*
D12*
X112537240Y-54310280D03*
D15*
X57906920Y-86198720D03*
D14*
X57906920Y-81198720D03*
D25*
X58166000Y-63246000D03*
X58166000Y-65786000D03*
D24*
X58166000Y-60706000D03*
X63891160Y-65770760D03*
D25*
X63891160Y-60690760D03*
X63891160Y-63230760D03*
D28*
X132405120Y-73385680D02*
X134787640Y-75768200D01*
X125105160Y-73385680D02*
X132405120Y-73385680D01*
X134787640Y-75768200D02*
X134787640Y-84877144D01*
X134787640Y-84877144D02*
X127650744Y-92014040D01*
X127650744Y-92014040D02*
X125105160Y-92014040D01*
X125105160Y-92014040D02*
X131424680Y-98333560D01*
X131424680Y-98333560D02*
X137154920Y-98333560D01*
D29*
X96611440Y-103790760D02*
X96611440Y-111777668D01*
D30*
X81955640Y-107536808D02*
X82025076Y-107606244D01*
X81955640Y-105196640D02*
X81955640Y-107536808D01*
D31*
X81955640Y-95519240D02*
X83520280Y-93954600D01*
X81955640Y-105196640D02*
X81955640Y-95519240D01*
D28*
X122819160Y-106131360D02*
X122819160Y-99674680D01*
X122819160Y-103240840D02*
X128366520Y-108788200D01*
X122819160Y-99674680D02*
X122819160Y-103240840D01*
X117386810Y-111563710D02*
X96611629Y-111563710D01*
X122819160Y-106131360D02*
X117386810Y-111563710D01*
D29*
X96611440Y-111777668D02*
X96611629Y-111563710D01*
D28*
X82030002Y-111546078D02*
X82025276Y-111550804D01*
X117404443Y-111546077D02*
X82030002Y-111546078D01*
X122819160Y-106131360D02*
X117404443Y-111546077D01*
D29*
X96611440Y-111777668D02*
X82025276Y-111550804D01*
D28*
X82025276Y-109326880D02*
X82025076Y-109326680D01*
X82025276Y-111550804D02*
X82025276Y-109326880D01*
D29*
X82025076Y-109326680D02*
X82025076Y-107606244D01*
X125476000Y-108788200D02*
X122819160Y-106131360D01*
X128366520Y-108788200D02*
X125476000Y-108788200D01*
D28*
X120162320Y-108788200D02*
X117404443Y-111546077D01*
X128366520Y-108788200D02*
X120162320Y-108788200D01*
D31*
X124131080Y-46376600D02*
X121859040Y-44104560D01*
X124131080Y-51912520D02*
X124131080Y-46376600D01*
X121859040Y-44104560D02*
X126512320Y-44104560D01*
X131612640Y-39004240D02*
X131612640Y-35077400D01*
X126512320Y-44104560D02*
X131612640Y-39004240D01*
D28*
X131612640Y-35077400D02*
X138831320Y-35077400D01*
X131612640Y-32814659D02*
X125889621Y-27091640D01*
X131612640Y-35077400D02*
X131612640Y-32814659D01*
X125889621Y-27091640D02*
X116809520Y-27091640D01*
X116809520Y-27091640D02*
X115575080Y-28326080D01*
D31*
X114452400Y-29448760D02*
X115575080Y-28326080D01*
X114127280Y-29448760D02*
X114452400Y-29448760D01*
D28*
X138831320Y-35077400D02*
X136367520Y-32613600D01*
X131813699Y-32613600D02*
X131612640Y-32814659D01*
X136367520Y-32613600D02*
X131813699Y-32613600D01*
D30*
X124119640Y-28861621D02*
X125889621Y-27091640D01*
X124119640Y-31496000D02*
X124119640Y-28861621D01*
D31*
X119131080Y-46192440D02*
X117043200Y-44104560D01*
X119131080Y-51912520D02*
X119131080Y-46192440D01*
X98008440Y-36642040D02*
X110942120Y-36642040D01*
X112537240Y-38237160D02*
X110942120Y-36642040D01*
X112537240Y-41610280D02*
X112537240Y-38237160D01*
X115031520Y-44104560D02*
X112537240Y-41610280D01*
X117043200Y-44104560D02*
X115031520Y-44104560D01*
X75829160Y-44739560D02*
X75839320Y-44729400D01*
X66868040Y-44739560D02*
X75829160Y-44739560D01*
X87848440Y-36642040D02*
X84830920Y-36642040D01*
X84830920Y-36642040D02*
X79720440Y-41752520D01*
X78539320Y-44729400D02*
X75839320Y-44729400D01*
X79720440Y-43548280D02*
X78539320Y-44729400D01*
X79720440Y-41752520D02*
X79720440Y-43548280D01*
D32*
X83089950Y-44729400D02*
X78539320Y-44729400D01*
D31*
X75839320Y-44729400D02*
X83089950Y-44729400D01*
X83089950Y-44729400D02*
X83760510Y-44058840D01*
X83760510Y-44058840D02*
X84891880Y-44058840D01*
X88605360Y-44058840D02*
X90373200Y-42291000D01*
X84891880Y-44058840D02*
X88605360Y-44058840D01*
X91018360Y-42291000D02*
X97972880Y-49245520D01*
X90373200Y-42291000D02*
X91018360Y-42291000D01*
X103687880Y-64322960D02*
X103687880Y-51089560D01*
X103687880Y-51089560D02*
X101828600Y-49230280D01*
X101813360Y-49245520D02*
X97972880Y-49245520D01*
X101828600Y-49230280D02*
X101813360Y-49245520D01*
X97947480Y-64322960D02*
X97917000Y-64292480D01*
X103687880Y-64322960D02*
X97947480Y-64322960D01*
X79390240Y-105171240D02*
X79415640Y-105196640D01*
X77825600Y-105171240D02*
X79390240Y-105171240D01*
X66812160Y-103674880D02*
X66812160Y-108803440D01*
X66812160Y-101274880D02*
X66812160Y-103674880D01*
D29*
X59367987Y-108803440D02*
X66812160Y-108803440D01*
X66812160Y-108803440D02*
X74193400Y-108803440D01*
D31*
X69212160Y-101274880D02*
X71653400Y-98833640D01*
X66812160Y-101274880D02*
X69212160Y-101274880D01*
X71531480Y-98711720D02*
X71531480Y-93888560D01*
X71653400Y-98833640D02*
X71531480Y-98711720D01*
X78607920Y-93888560D02*
X78673960Y-93954600D01*
X71531480Y-93888560D02*
X78607920Y-93888560D01*
X99691840Y-44109640D02*
X97873200Y-42291000D01*
X103799640Y-44109640D02*
X99691840Y-44109640D01*
X96873201Y-41291001D02*
X96873201Y-41242121D01*
X97873200Y-42291000D02*
X96873201Y-41291001D01*
X96873201Y-41242121D02*
X92618560Y-36987480D01*
X92618560Y-36987480D02*
X92618560Y-34884360D01*
D29*
X48508920Y-73853040D02*
X53106320Y-69255640D01*
X48508920Y-76621640D02*
X48508920Y-73853040D01*
D31*
X64333120Y-47279560D02*
X63042800Y-45989240D01*
X66868040Y-47279560D02*
X64333120Y-47279560D01*
X91319360Y-33585160D02*
X92618560Y-34884360D01*
X79603600Y-33585160D02*
X91319360Y-33585160D01*
X90297000Y-71912480D02*
X90297000Y-79197200D01*
D30*
X53143160Y-69292480D02*
X53106320Y-69255640D01*
X51140361Y-87398719D02*
X48508920Y-90030160D01*
X56706921Y-87398719D02*
X51140361Y-87398719D01*
X57906920Y-86198720D02*
X56706921Y-87398719D01*
D31*
X89552881Y-57665519D02*
X88658801Y-57665519D01*
X90352880Y-56865520D02*
X89552881Y-57665519D01*
X88658801Y-57665519D02*
X86674960Y-59649360D01*
X73389480Y-47279560D02*
X75839320Y-49729400D01*
X66868040Y-47279560D02*
X73389480Y-47279560D01*
X81259680Y-59649360D02*
X75839320Y-54229000D01*
X86674960Y-59649360D02*
X81259680Y-59649360D01*
X75839320Y-49729400D02*
X75839320Y-54229000D01*
X75839320Y-54229000D02*
X75839320Y-65469760D01*
D30*
X75839320Y-65469760D02*
X74583280Y-66725800D01*
X75839320Y-49729400D02*
X75839320Y-65469760D01*
D28*
X48508920Y-76621640D02*
X48508920Y-74010520D01*
X48508920Y-90030160D02*
X55793640Y-97314880D01*
X55793640Y-97314880D02*
X55793640Y-103814880D01*
X55793640Y-105229093D02*
X59367987Y-108803440D01*
X55793640Y-103814880D02*
X55793640Y-105229093D01*
X59367987Y-108803440D02*
X74193400Y-108803440D01*
X74193400Y-108803440D02*
X77825600Y-105171240D01*
D29*
X50662840Y-79771240D02*
X48508920Y-81925160D01*
X50662840Y-71856600D02*
X50662840Y-79771240D01*
D28*
X48508920Y-81925160D02*
X48508920Y-90030160D01*
X48508920Y-76621640D02*
X48508920Y-81925160D01*
X50662840Y-71856600D02*
X53035200Y-69484240D01*
X48508920Y-74010520D02*
X50662840Y-71856600D01*
D29*
X48508920Y-76621640D02*
X48508920Y-49890680D01*
X54350920Y-44048680D02*
X63042800Y-44048680D01*
X48508920Y-49890680D02*
X54350920Y-44048680D01*
D31*
X63042800Y-45989240D02*
X63042800Y-44048680D01*
D29*
X78403601Y-34785159D02*
X79603600Y-33585160D01*
X73508880Y-39679880D02*
X78403601Y-34785159D01*
X67411600Y-39679880D02*
X73508880Y-39679880D01*
X63042800Y-44048680D02*
X67411600Y-39679880D01*
D31*
X79769960Y-71912480D02*
X79744560Y-71937880D01*
X90297000Y-71912480D02*
X79769960Y-71912480D01*
X79744560Y-71937880D02*
X76901040Y-71937880D01*
X74583280Y-69620120D02*
X76901040Y-71937880D01*
X74583280Y-66725800D02*
X74583280Y-69620120D01*
X100558600Y-89458800D02*
X90297000Y-79197200D01*
X103713280Y-89458800D02*
X100558600Y-89458800D01*
X71824840Y-69484240D02*
X74583280Y-66725800D01*
X64794800Y-69484240D02*
X71824840Y-69484240D01*
X62437680Y-69484240D02*
X61020960Y-69484240D01*
X63891160Y-68030760D02*
X62437680Y-69484240D01*
X63891160Y-65770760D02*
X63891160Y-68030760D01*
X53035200Y-69484240D02*
X61020960Y-69484240D01*
X61020960Y-69484240D02*
X64794800Y-69484240D01*
D33*
X87404320Y-24558130D02*
X87487760Y-24558130D01*
X83377290Y-28585160D02*
X87404320Y-24558130D01*
X79603600Y-28585160D02*
X83377290Y-28585160D01*
X87404320Y-24558130D02*
X105693730Y-24558130D01*
D31*
X105693730Y-24823810D02*
X105693730Y-24558130D01*
D33*
X83460730Y-28585160D02*
X87487760Y-24558130D01*
X79603600Y-28585160D02*
X83460730Y-28585160D01*
D28*
X70337680Y-27584400D02*
X70337680Y-34117280D01*
X78602840Y-27584400D02*
X79603600Y-28585160D01*
X87487760Y-25401000D02*
X87487760Y-25058130D01*
X84303600Y-28585160D02*
X87487760Y-25401000D01*
D31*
X87487760Y-24558130D02*
X87487760Y-25058130D01*
D28*
X87830630Y-25058130D02*
X104521000Y-25058130D01*
X84303600Y-28585160D02*
X87830630Y-25058130D01*
X79603600Y-28585160D02*
X84303600Y-28585160D01*
D31*
X87487760Y-25058130D02*
X104521000Y-25058130D01*
X104521000Y-25058130D02*
X105693730Y-24558130D01*
D28*
X104521000Y-25058130D02*
X110229410Y-25058130D01*
X110229410Y-25058130D02*
X111516160Y-26344880D01*
D31*
X111587280Y-26416000D02*
X111516160Y-26344880D01*
D30*
X111587280Y-26416000D02*
X111587280Y-27868880D01*
D31*
X111587280Y-29448760D02*
X111587280Y-27868880D01*
D28*
X71770560Y-27584400D02*
X75051920Y-27584400D01*
X70337680Y-29017280D02*
X71770560Y-27584400D01*
X70337680Y-34117280D02*
X70337680Y-29017280D01*
X70337680Y-27584400D02*
X75051920Y-27584400D01*
X75051920Y-27584400D02*
X78602840Y-27584400D01*
X75869800Y-28585160D02*
X70337680Y-34117280D01*
X79603600Y-28585160D02*
X75869800Y-28585160D01*
D29*
X116022120Y-69768720D02*
X116022120Y-78389480D01*
X116022120Y-78389480D02*
X116946680Y-79314040D01*
X116022120Y-95831720D02*
X116022120Y-78389480D01*
D28*
X131612640Y-54178200D02*
X125105160Y-60685680D01*
X131612640Y-50317400D02*
X131612640Y-54178200D01*
X131612640Y-50317400D02*
X138831320Y-50317400D01*
X125105160Y-60685680D02*
X116022120Y-69768720D01*
X116022120Y-69768720D02*
X116022120Y-95831720D01*
X112679160Y-99674680D02*
X107579160Y-99674680D01*
X116022120Y-96331720D02*
X112679160Y-99674680D01*
X116022120Y-95831720D02*
X116022120Y-96331720D01*
X125105160Y-79314040D02*
X116946680Y-79314040D01*
X138831320Y-50317400D02*
X138785600Y-50317400D01*
X134924800Y-54178200D02*
X131612640Y-54178200D01*
X138785600Y-50317400D02*
X134924800Y-54178200D01*
X111693960Y-99674680D02*
X107579160Y-103789480D01*
X112679160Y-99674680D02*
X111693960Y-99674680D01*
X107579160Y-99674680D02*
X107579160Y-103789480D01*
X107579160Y-103789480D02*
X107579160Y-106131360D01*
D31*
X66812160Y-93888560D02*
X66812160Y-98734880D01*
D30*
X66857880Y-49809400D02*
X66868040Y-49819560D01*
X58252360Y-49809400D02*
X66857880Y-49809400D01*
D29*
X52882800Y-36332160D02*
X55097680Y-34117280D01*
X53075840Y-39639240D02*
X53075840Y-36139120D01*
X53086000Y-39649400D02*
X53075840Y-39639240D01*
X58252360Y-39649400D02*
X53086000Y-39649400D01*
D28*
X55097680Y-34117280D02*
X53075840Y-36139120D01*
X55097680Y-34117280D02*
X55097680Y-27584400D01*
D29*
X49001680Y-39639240D02*
X48539400Y-40101520D01*
X53075840Y-39639240D02*
X49001680Y-39639240D01*
X49113440Y-40101520D02*
X55097680Y-34117280D01*
X48539400Y-40101520D02*
X49113440Y-40101520D01*
D28*
X55097680Y-33543240D02*
X48539400Y-40101520D01*
X55097680Y-27584400D02*
X55097680Y-33543240D01*
D33*
X55097680Y-30901640D02*
X49860200Y-36139120D01*
X55097680Y-27584400D02*
X55097680Y-30901640D01*
D28*
X54865599Y-30901640D02*
X55097680Y-30901640D01*
X48539400Y-37227839D02*
X54865599Y-30901640D01*
X48539400Y-40101520D02*
X48539400Y-37227839D01*
D31*
X103713280Y-83647280D02*
X103692960Y-83626960D01*
X103713280Y-86918800D02*
X103713280Y-83647280D01*
X84495640Y-105196640D02*
X84495640Y-102446960D01*
X60606920Y-81198720D02*
X67840840Y-88432640D01*
X57906920Y-81198720D02*
X60606920Y-81198720D01*
X67840840Y-88432640D02*
X83007200Y-88432640D01*
X83007200Y-88432640D02*
X87223600Y-92649040D01*
X84495640Y-102446960D02*
X87223600Y-99719000D01*
X87223600Y-92649040D02*
X87223600Y-95112840D01*
X87223600Y-95112840D02*
X87223600Y-99719000D01*
X103692960Y-77028040D02*
X103687880Y-77022960D01*
X103692960Y-81086960D02*
X103692960Y-77028040D01*
X104965752Y-81086960D02*
X104970832Y-81081880D01*
X103692960Y-81086960D02*
X104965752Y-81086960D01*
X104970832Y-81081880D02*
X106156760Y-81081880D01*
X106156760Y-81081880D02*
X107045760Y-81970880D01*
X107045760Y-81970880D02*
X107045760Y-91937840D01*
X103870760Y-95112840D02*
X87223600Y-95112840D01*
X107045760Y-91937840D02*
X103870760Y-95112840D01*
X117043200Y-41564560D02*
X121859040Y-41564560D01*
X121859040Y-41564560D02*
X124475240Y-41564560D01*
X124475240Y-41564560D02*
X125608080Y-40431720D01*
X125608080Y-40431720D02*
X125608080Y-36449000D01*
X125608080Y-36449000D02*
X124587000Y-35427920D01*
X124541280Y-35473640D02*
X121859040Y-35473640D01*
X124587000Y-35427920D02*
X124541280Y-35473640D01*
X71531480Y-76895960D02*
X71531480Y-81188560D01*
X78673960Y-81254600D02*
X83748880Y-81254600D01*
X90312240Y-91881960D02*
X90297000Y-91897200D01*
X95138240Y-91881960D02*
X90312240Y-91881960D01*
X91428370Y-69372480D02*
X93968370Y-66832480D01*
X90297000Y-69372480D02*
X91428370Y-69372480D01*
X93968370Y-66832480D02*
X97917000Y-66832480D01*
X93968370Y-78012090D02*
X95138240Y-79181960D01*
X93968370Y-66832480D02*
X93968370Y-78012090D01*
D32*
X53075840Y-56743600D02*
X53035200Y-56784240D01*
X53075840Y-52339240D02*
X53075840Y-56743600D01*
X58150760Y-56784240D02*
X58226960Y-56708040D01*
X53035200Y-56784240D02*
X58150760Y-56784240D01*
D31*
X58166000Y-56769000D02*
X58226960Y-56708040D01*
X58166000Y-60706000D02*
X58166000Y-56769000D01*
X82283280Y-66725800D02*
X86779080Y-62230000D01*
X79583280Y-66725800D02*
X82283280Y-66725800D01*
X86779080Y-62230000D02*
X87995760Y-62230000D01*
X90043000Y-60182760D02*
X92537280Y-60182760D01*
X92537280Y-60182760D02*
X94386400Y-58333640D01*
X94386400Y-58333640D02*
X94386400Y-52324000D01*
X94924880Y-51785520D02*
X97972880Y-51785520D01*
X94386400Y-52324000D02*
X94924880Y-51785520D01*
X90251280Y-64292480D02*
X88092280Y-62133480D01*
X90297000Y-64292480D02*
X90251280Y-64292480D01*
X87995760Y-62230000D02*
X88092280Y-62133480D01*
X88092280Y-62133480D02*
X90043000Y-60182760D01*
D32*
X84891880Y-52706520D02*
X84891880Y-56758840D01*
X90352880Y-49245520D02*
X88352880Y-49245520D01*
X88352880Y-49245520D02*
X84891880Y-52706520D01*
D30*
X60293640Y-97314880D02*
X60293640Y-103814880D01*
D32*
X110185200Y-51958240D02*
X110185200Y-40106600D01*
X112537240Y-54310280D02*
X110185200Y-51958240D01*
X109108240Y-39029640D02*
X110185200Y-40106600D01*
X103799640Y-39029640D02*
X109108240Y-39029640D01*
D31*
X107889040Y-41569640D02*
X107909360Y-41589960D01*
X103799640Y-41569640D02*
X107889040Y-41569640D01*
D32*
X121859040Y-39024560D02*
X117043200Y-39024560D01*
X117043200Y-37064560D02*
X114314360Y-34335720D01*
X117043200Y-39024560D02*
X117043200Y-37064560D01*
D31*
X111184560Y-34335720D02*
X114314360Y-34335720D01*
X109047280Y-32198440D02*
X111184560Y-34335720D01*
X109047280Y-29448760D02*
X109047280Y-32198440D01*
X116439640Y-31496000D02*
X119039640Y-31496000D01*
X114314360Y-34335720D02*
X114314360Y-33621280D01*
X114314360Y-33621280D02*
X116439640Y-31496000D01*
X58166000Y-65786000D02*
X58166000Y-63246000D01*
X63875920Y-63246000D02*
X63891160Y-63230760D01*
X58166000Y-63246000D02*
X63875920Y-63246000D01*
X63891160Y-60690760D02*
X63891160Y-63230760D01*
D34*
G36*
X85386189Y-23910469D02*
X83096498Y-26200160D01*
X80591498Y-26200160D01*
X80455391Y-26064053D01*
X80322329Y-25864911D01*
X79533420Y-25337780D01*
X78837737Y-25199400D01*
X78837736Y-25199400D01*
X78602840Y-25152676D01*
X78367944Y-25199400D01*
X72005455Y-25199400D01*
X71770559Y-25152676D01*
X71535663Y-25199400D01*
X70572577Y-25199400D01*
X70337680Y-25152676D01*
X70102783Y-25199400D01*
X69411222Y-25336960D01*
X68737680Y-25336960D01*
X68489915Y-25386243D01*
X68279871Y-25526591D01*
X68139523Y-25736635D01*
X68090240Y-25984400D01*
X68090240Y-26657942D01*
X67905956Y-27584400D01*
X67952680Y-27819298D01*
X67952680Y-28782383D01*
X67905956Y-29017280D01*
X67952680Y-29252177D01*
X67952681Y-30860893D01*
X67952680Y-33882384D01*
X67905956Y-34117280D01*
X67952680Y-34352176D01*
X68090240Y-35043737D01*
X68090240Y-35717280D01*
X68139523Y-35965045D01*
X68279871Y-36175089D01*
X68489915Y-36315437D01*
X68737680Y-36364720D01*
X69411222Y-36364720D01*
X70337680Y-36549004D01*
X71264138Y-36364720D01*
X71937680Y-36364720D01*
X72185445Y-36315437D01*
X72395489Y-36175089D01*
X72535837Y-35965045D01*
X72585120Y-35717280D01*
X72585120Y-35242738D01*
X76857699Y-30970160D01*
X79368703Y-30970160D01*
X79603599Y-31016884D01*
X79838495Y-30970160D01*
X84068704Y-30970160D01*
X84303600Y-31016884D01*
X84538496Y-30970160D01*
X84538497Y-30970160D01*
X85234180Y-30831780D01*
X86023089Y-30304649D01*
X86156151Y-30105507D01*
X86785018Y-29476640D01*
X88818530Y-27443130D01*
X109241512Y-27443130D01*
X109406838Y-27608456D01*
X109047280Y-27536936D01*
X108506658Y-27644472D01*
X108048340Y-27950711D01*
X107742102Y-28409029D01*
X107661710Y-28813188D01*
X107661710Y-30084333D01*
X107662280Y-30087200D01*
X107662281Y-32062029D01*
X107635147Y-32198440D01*
X107742639Y-32738839D01*
X107971184Y-33080880D01*
X108048752Y-33196969D01*
X108164393Y-33274238D01*
X110108760Y-35218605D01*
X110134442Y-35257040D01*
X99681717Y-35257040D01*
X99566249Y-35084231D01*
X99356205Y-34943883D01*
X99108440Y-34894600D01*
X96908440Y-34894600D01*
X96660675Y-34943883D01*
X96450631Y-35084231D01*
X96310283Y-35294275D01*
X96261000Y-35542040D01*
X96261000Y-37742040D01*
X96310283Y-37989805D01*
X96450631Y-38199849D01*
X96660675Y-38340197D01*
X96908440Y-38389480D01*
X99108440Y-38389480D01*
X99356205Y-38340197D01*
X99566249Y-38199849D01*
X99681717Y-38027040D01*
X102829412Y-38027040D01*
X102617016Y-38239436D01*
X102404640Y-38752157D01*
X102404640Y-39307123D01*
X102617016Y-39819844D01*
X103009436Y-40212264D01*
X103212365Y-40296320D01*
X103186219Y-40313790D01*
X103009436Y-40387016D01*
X102874132Y-40522320D01*
X102801111Y-40571111D01*
X102752320Y-40644132D01*
X102617016Y-40779436D01*
X102543790Y-40956219D01*
X102494999Y-41029240D01*
X102477866Y-41115374D01*
X102404640Y-41292157D01*
X102404640Y-41483506D01*
X102387507Y-41569640D01*
X102404640Y-41655774D01*
X102404640Y-41847123D01*
X102477866Y-42023906D01*
X102494999Y-42110040D01*
X102543790Y-42183061D01*
X102617016Y-42359844D01*
X102752320Y-42495148D01*
X102801111Y-42568169D01*
X102874132Y-42616960D01*
X102972689Y-42715517D01*
X102926825Y-42724640D01*
X100265525Y-42724640D01*
X99508200Y-41967315D01*
X99508200Y-41965778D01*
X99259286Y-41364847D01*
X98799353Y-40904914D01*
X98198422Y-40656000D01*
X98196885Y-40656000D01*
X98047427Y-40506541D01*
X97948998Y-40359232D01*
X97948997Y-40359231D01*
X97871730Y-40243593D01*
X97756092Y-40166326D01*
X94003560Y-36413795D01*
X94003560Y-35020765D01*
X94030693Y-34884359D01*
X93978070Y-34619808D01*
X93923201Y-34343960D01*
X93617089Y-33885831D01*
X93501448Y-33808562D01*
X92395159Y-32702274D01*
X92317889Y-32586631D01*
X91859760Y-32280519D01*
X91455767Y-32200160D01*
X91319360Y-32173027D01*
X91182953Y-32200160D01*
X81245915Y-32200160D01*
X81142849Y-32045911D01*
X80436635Y-31574034D01*
X79603600Y-31408334D01*
X78770564Y-31574034D01*
X78242617Y-31926798D01*
X77042620Y-33126795D01*
X77042617Y-33126797D01*
X72624535Y-37544880D01*
X67621874Y-37544880D01*
X67411599Y-37503054D01*
X67201324Y-37544880D01*
X67201321Y-37544880D01*
X66578564Y-37668754D01*
X65872351Y-38140631D01*
X65753238Y-38318896D01*
X62158455Y-41913680D01*
X54561198Y-41913680D01*
X54350920Y-41871853D01*
X54140641Y-41913680D01*
X53517884Y-42037554D01*
X52811671Y-42509431D01*
X52692558Y-42687696D01*
X47147937Y-48232318D01*
X46969672Y-48351431D01*
X46850559Y-48529696D01*
X46850558Y-48529697D01*
X46497794Y-49057645D01*
X46332094Y-49890680D01*
X46373921Y-50100960D01*
X46373920Y-72912889D01*
X46262300Y-73079940D01*
X46163610Y-73576088D01*
X46077196Y-74010520D01*
X46123920Y-74245416D01*
X46123920Y-75410332D01*
X45841920Y-76091141D01*
X45841920Y-77152139D01*
X46123920Y-77832949D01*
X46123921Y-81690259D01*
X46123920Y-81690264D01*
X46123921Y-89795259D01*
X46077196Y-90030160D01*
X46239040Y-90843800D01*
X46262301Y-90960740D01*
X46789432Y-91749649D01*
X46988571Y-91882709D01*
X53408640Y-98302780D01*
X53408641Y-103579979D01*
X53408640Y-103579984D01*
X53408640Y-104994197D01*
X53361916Y-105229093D01*
X53408640Y-105463989D01*
X53408640Y-105463990D01*
X53547020Y-106159673D01*
X54074152Y-106948582D01*
X54273291Y-107081642D01*
X57515437Y-110323789D01*
X57648498Y-110522929D01*
X58437407Y-111050060D01*
X59133090Y-111188440D01*
X59367986Y-111235164D01*
X59602882Y-111188440D01*
X73958504Y-111188440D01*
X74193400Y-111235164D01*
X74428296Y-111188440D01*
X74428297Y-111188440D01*
X75123980Y-111050060D01*
X75912889Y-110522929D01*
X76045951Y-110323787D01*
X79286886Y-107082853D01*
X79415640Y-107108464D01*
X79956261Y-107000928D01*
X79970554Y-106991378D01*
X79890076Y-107395965D01*
X79890076Y-108229050D01*
X79778457Y-108396100D01*
X79593352Y-109326680D01*
X79640276Y-109562581D01*
X79640276Y-111315908D01*
X79593552Y-111550804D01*
X79640276Y-111785700D01*
X79778656Y-112481383D01*
X80032715Y-112861610D01*
X79338364Y-112863437D01*
X45338200Y-112833354D01*
X45338200Y-111070825D01*
X45345041Y-110850201D01*
X45338200Y-110809206D01*
X45338200Y-108350066D01*
X46470094Y-108350066D01*
X46477120Y-108776110D01*
X46477120Y-109202289D01*
X46484440Y-109219960D01*
X46484755Y-109239083D01*
X46796760Y-109992330D01*
X46806467Y-109997402D01*
X46817379Y-110023746D01*
X47446094Y-110652461D01*
X47472438Y-110663373D01*
X47477510Y-110673080D01*
X47873828Y-110829634D01*
X48267551Y-110992720D01*
X48286680Y-110992720D01*
X48304466Y-110999746D01*
X48730510Y-110992720D01*
X49156689Y-110992720D01*
X49174360Y-110985400D01*
X49193483Y-110985085D01*
X49946730Y-110673080D01*
X49951802Y-110663373D01*
X49978146Y-110652461D01*
X50606861Y-110023746D01*
X50617773Y-109997402D01*
X50627480Y-109992330D01*
X50784034Y-109596012D01*
X50947120Y-109202289D01*
X50947120Y-109183160D01*
X50954146Y-109165374D01*
X50947120Y-108739330D01*
X50947120Y-108313151D01*
X50939800Y-108295480D01*
X50939485Y-108276357D01*
X50627480Y-107523110D01*
X50617773Y-107518038D01*
X50606861Y-107491694D01*
X49978146Y-106862979D01*
X49951802Y-106852067D01*
X49946730Y-106842360D01*
X49550412Y-106685806D01*
X49156689Y-106522720D01*
X49137560Y-106522720D01*
X49119774Y-106515694D01*
X48693730Y-106522720D01*
X48267551Y-106522720D01*
X48249880Y-106530040D01*
X48230757Y-106530355D01*
X47477510Y-106842360D01*
X47472438Y-106852067D01*
X47446094Y-106862979D01*
X46817379Y-107491694D01*
X46806467Y-107518038D01*
X46796760Y-107523110D01*
X46640206Y-107919428D01*
X46477120Y-108313151D01*
X46477120Y-108332280D01*
X46470094Y-108350066D01*
X45338200Y-108350066D01*
X45338200Y-39571021D01*
X45872400Y-39571021D01*
X45872400Y-40632019D01*
X46278426Y-41612254D01*
X47028666Y-42362494D01*
X48008901Y-42768520D01*
X49069899Y-42768520D01*
X50050134Y-42362494D01*
X50638388Y-41774240D01*
X52824643Y-41774240D01*
X52875721Y-41784400D01*
X52875726Y-41784400D01*
X53085999Y-41826226D01*
X53296273Y-41784400D01*
X58462639Y-41784400D01*
X59085396Y-41660526D01*
X59791609Y-41188649D01*
X60263486Y-40482436D01*
X60429187Y-39649400D01*
X60263486Y-38816364D01*
X59791609Y-38110151D01*
X59085396Y-37638274D01*
X58462639Y-37514400D01*
X55210840Y-37514400D01*
X55210840Y-37377019D01*
X56618034Y-35969826D01*
X56817169Y-35836769D01*
X57344300Y-35047860D01*
X57482680Y-34352177D01*
X57482680Y-34352176D01*
X57529404Y-34117280D01*
X57482680Y-33882384D01*
X57482680Y-33778141D01*
X57529405Y-33543240D01*
X57482680Y-33308339D01*
X57482680Y-31136537D01*
X57529404Y-30901640D01*
X57482680Y-30666743D01*
X57482680Y-27349503D01*
X57344300Y-26653820D01*
X56817169Y-25864911D01*
X56028260Y-25337780D01*
X55097680Y-25152676D01*
X54167100Y-25337780D01*
X53378191Y-25864911D01*
X52851060Y-26653821D01*
X52712680Y-27349504D01*
X52712680Y-29681660D01*
X47019051Y-35375290D01*
X46819912Y-35508350D01*
X46292781Y-36297259D01*
X46155487Y-36987480D01*
X46107676Y-37227839D01*
X46154400Y-37462735D01*
X46154400Y-38890212D01*
X45872400Y-39571021D01*
X45338200Y-39571021D01*
X45338200Y-27318986D01*
X46470094Y-27318986D01*
X46477120Y-27745030D01*
X46477120Y-28171209D01*
X46484440Y-28188880D01*
X46484755Y-28208003D01*
X46796760Y-28961250D01*
X46806467Y-28966322D01*
X46817379Y-28992666D01*
X47446094Y-29621381D01*
X47472438Y-29632293D01*
X47477510Y-29642000D01*
X47873828Y-29798554D01*
X48267551Y-29961640D01*
X48286680Y-29961640D01*
X48304466Y-29968666D01*
X48730510Y-29961640D01*
X49156689Y-29961640D01*
X49174360Y-29954320D01*
X49193483Y-29954005D01*
X49946730Y-29642000D01*
X49951802Y-29632293D01*
X49978146Y-29621381D01*
X50606861Y-28992666D01*
X50617773Y-28966322D01*
X50627480Y-28961250D01*
X50784034Y-28564932D01*
X50947120Y-28171209D01*
X50947120Y-28152080D01*
X50954146Y-28134294D01*
X50947120Y-27708250D01*
X50947120Y-27282071D01*
X50939800Y-27264400D01*
X50939485Y-27245277D01*
X50627480Y-26492030D01*
X50617773Y-26486958D01*
X50606861Y-26460614D01*
X49978146Y-25831899D01*
X49951802Y-25820987D01*
X49946730Y-25811280D01*
X49550412Y-25654726D01*
X49156689Y-25491640D01*
X49137560Y-25491640D01*
X49119774Y-25484614D01*
X48693730Y-25491640D01*
X48267551Y-25491640D01*
X48249880Y-25498960D01*
X48230757Y-25499275D01*
X47477510Y-25811280D01*
X47472438Y-25820987D01*
X47446094Y-25831899D01*
X46817379Y-26460614D01*
X46806467Y-26486958D01*
X46796760Y-26492030D01*
X46640206Y-26888348D01*
X46477120Y-27282071D01*
X46477120Y-27301200D01*
X46470094Y-27318986D01*
X45338200Y-27318986D01*
X45338200Y-23743120D01*
X85498008Y-23743120D01*
X85386189Y-23910469D01*
X85386189Y-23910469D01*
G37*
X85386189Y-23910469D02*
X83096498Y-26200160D01*
X80591498Y-26200160D01*
X80455391Y-26064053D01*
X80322329Y-25864911D01*
X79533420Y-25337780D01*
X78837737Y-25199400D01*
X78837736Y-25199400D01*
X78602840Y-25152676D01*
X78367944Y-25199400D01*
X72005455Y-25199400D01*
X71770559Y-25152676D01*
X71535663Y-25199400D01*
X70572577Y-25199400D01*
X70337680Y-25152676D01*
X70102783Y-25199400D01*
X69411222Y-25336960D01*
X68737680Y-25336960D01*
X68489915Y-25386243D01*
X68279871Y-25526591D01*
X68139523Y-25736635D01*
X68090240Y-25984400D01*
X68090240Y-26657942D01*
X67905956Y-27584400D01*
X67952680Y-27819298D01*
X67952680Y-28782383D01*
X67905956Y-29017280D01*
X67952680Y-29252177D01*
X67952681Y-30860893D01*
X67952680Y-33882384D01*
X67905956Y-34117280D01*
X67952680Y-34352176D01*
X68090240Y-35043737D01*
X68090240Y-35717280D01*
X68139523Y-35965045D01*
X68279871Y-36175089D01*
X68489915Y-36315437D01*
X68737680Y-36364720D01*
X69411222Y-36364720D01*
X70337680Y-36549004D01*
X71264138Y-36364720D01*
X71937680Y-36364720D01*
X72185445Y-36315437D01*
X72395489Y-36175089D01*
X72535837Y-35965045D01*
X72585120Y-35717280D01*
X72585120Y-35242738D01*
X76857699Y-30970160D01*
X79368703Y-30970160D01*
X79603599Y-31016884D01*
X79838495Y-30970160D01*
X84068704Y-30970160D01*
X84303600Y-31016884D01*
X84538496Y-30970160D01*
X84538497Y-30970160D01*
X85234180Y-30831780D01*
X86023089Y-30304649D01*
X86156151Y-30105507D01*
X86785018Y-29476640D01*
X88818530Y-27443130D01*
X109241512Y-27443130D01*
X109406838Y-27608456D01*
X109047280Y-27536936D01*
X108506658Y-27644472D01*
X108048340Y-27950711D01*
X107742102Y-28409029D01*
X107661710Y-28813188D01*
X107661710Y-30084333D01*
X107662280Y-30087200D01*
X107662281Y-32062029D01*
X107635147Y-32198440D01*
X107742639Y-32738839D01*
X107971184Y-33080880D01*
X108048752Y-33196969D01*
X108164393Y-33274238D01*
X110108760Y-35218605D01*
X110134442Y-35257040D01*
X99681717Y-35257040D01*
X99566249Y-35084231D01*
X99356205Y-34943883D01*
X99108440Y-34894600D01*
X96908440Y-34894600D01*
X96660675Y-34943883D01*
X96450631Y-35084231D01*
X96310283Y-35294275D01*
X96261000Y-35542040D01*
X96261000Y-37742040D01*
X96310283Y-37989805D01*
X96450631Y-38199849D01*
X96660675Y-38340197D01*
X96908440Y-38389480D01*
X99108440Y-38389480D01*
X99356205Y-38340197D01*
X99566249Y-38199849D01*
X99681717Y-38027040D01*
X102829412Y-38027040D01*
X102617016Y-38239436D01*
X102404640Y-38752157D01*
X102404640Y-39307123D01*
X102617016Y-39819844D01*
X103009436Y-40212264D01*
X103212365Y-40296320D01*
X103186219Y-40313790D01*
X103009436Y-40387016D01*
X102874132Y-40522320D01*
X102801111Y-40571111D01*
X102752320Y-40644132D01*
X102617016Y-40779436D01*
X102543790Y-40956219D01*
X102494999Y-41029240D01*
X102477866Y-41115374D01*
X102404640Y-41292157D01*
X102404640Y-41483506D01*
X102387507Y-41569640D01*
X102404640Y-41655774D01*
X102404640Y-41847123D01*
X102477866Y-42023906D01*
X102494999Y-42110040D01*
X102543790Y-42183061D01*
X102617016Y-42359844D01*
X102752320Y-42495148D01*
X102801111Y-42568169D01*
X102874132Y-42616960D01*
X102972689Y-42715517D01*
X102926825Y-42724640D01*
X100265525Y-42724640D01*
X99508200Y-41967315D01*
X99508200Y-41965778D01*
X99259286Y-41364847D01*
X98799353Y-40904914D01*
X98198422Y-40656000D01*
X98196885Y-40656000D01*
X98047427Y-40506541D01*
X97948998Y-40359232D01*
X97948997Y-40359231D01*
X97871730Y-40243593D01*
X97756092Y-40166326D01*
X94003560Y-36413795D01*
X94003560Y-35020765D01*
X94030693Y-34884359D01*
X93978070Y-34619808D01*
X93923201Y-34343960D01*
X93617089Y-33885831D01*
X93501448Y-33808562D01*
X92395159Y-32702274D01*
X92317889Y-32586631D01*
X91859760Y-32280519D01*
X91455767Y-32200160D01*
X91319360Y-32173027D01*
X91182953Y-32200160D01*
X81245915Y-32200160D01*
X81142849Y-32045911D01*
X80436635Y-31574034D01*
X79603600Y-31408334D01*
X78770564Y-31574034D01*
X78242617Y-31926798D01*
X77042620Y-33126795D01*
X77042617Y-33126797D01*
X72624535Y-37544880D01*
X67621874Y-37544880D01*
X67411599Y-37503054D01*
X67201324Y-37544880D01*
X67201321Y-37544880D01*
X66578564Y-37668754D01*
X65872351Y-38140631D01*
X65753238Y-38318896D01*
X62158455Y-41913680D01*
X54561198Y-41913680D01*
X54350920Y-41871853D01*
X54140641Y-41913680D01*
X53517884Y-42037554D01*
X52811671Y-42509431D01*
X52692558Y-42687696D01*
X47147937Y-48232318D01*
X46969672Y-48351431D01*
X46850559Y-48529696D01*
X46850558Y-48529697D01*
X46497794Y-49057645D01*
X46332094Y-49890680D01*
X46373921Y-50100960D01*
X46373920Y-72912889D01*
X46262300Y-73079940D01*
X46163610Y-73576088D01*
X46077196Y-74010520D01*
X46123920Y-74245416D01*
X46123920Y-75410332D01*
X45841920Y-76091141D01*
X45841920Y-77152139D01*
X46123920Y-77832949D01*
X46123921Y-81690259D01*
X46123920Y-81690264D01*
X46123921Y-89795259D01*
X46077196Y-90030160D01*
X46239040Y-90843800D01*
X46262301Y-90960740D01*
X46789432Y-91749649D01*
X46988571Y-91882709D01*
X53408640Y-98302780D01*
X53408641Y-103579979D01*
X53408640Y-103579984D01*
X53408640Y-104994197D01*
X53361916Y-105229093D01*
X53408640Y-105463989D01*
X53408640Y-105463990D01*
X53547020Y-106159673D01*
X54074152Y-106948582D01*
X54273291Y-107081642D01*
X57515437Y-110323789D01*
X57648498Y-110522929D01*
X58437407Y-111050060D01*
X59133090Y-111188440D01*
X59367986Y-111235164D01*
X59602882Y-111188440D01*
X73958504Y-111188440D01*
X74193400Y-111235164D01*
X74428296Y-111188440D01*
X74428297Y-111188440D01*
X75123980Y-111050060D01*
X75912889Y-110522929D01*
X76045951Y-110323787D01*
X79286886Y-107082853D01*
X79415640Y-107108464D01*
X79956261Y-107000928D01*
X79970554Y-106991378D01*
X79890076Y-107395965D01*
X79890076Y-108229050D01*
X79778457Y-108396100D01*
X79593352Y-109326680D01*
X79640276Y-109562581D01*
X79640276Y-111315908D01*
X79593552Y-111550804D01*
X79640276Y-111785700D01*
X79778656Y-112481383D01*
X80032715Y-112861610D01*
X79338364Y-112863437D01*
X45338200Y-112833354D01*
X45338200Y-111070825D01*
X45345041Y-110850201D01*
X45338200Y-110809206D01*
X45338200Y-108350066D01*
X46470094Y-108350066D01*
X46477120Y-108776110D01*
X46477120Y-109202289D01*
X46484440Y-109219960D01*
X46484755Y-109239083D01*
X46796760Y-109992330D01*
X46806467Y-109997402D01*
X46817379Y-110023746D01*
X47446094Y-110652461D01*
X47472438Y-110663373D01*
X47477510Y-110673080D01*
X47873828Y-110829634D01*
X48267551Y-110992720D01*
X48286680Y-110992720D01*
X48304466Y-110999746D01*
X48730510Y-110992720D01*
X49156689Y-110992720D01*
X49174360Y-110985400D01*
X49193483Y-110985085D01*
X49946730Y-110673080D01*
X49951802Y-110663373D01*
X49978146Y-110652461D01*
X50606861Y-110023746D01*
X50617773Y-109997402D01*
X50627480Y-109992330D01*
X50784034Y-109596012D01*
X50947120Y-109202289D01*
X50947120Y-109183160D01*
X50954146Y-109165374D01*
X50947120Y-108739330D01*
X50947120Y-108313151D01*
X50939800Y-108295480D01*
X50939485Y-108276357D01*
X50627480Y-107523110D01*
X50617773Y-107518038D01*
X50606861Y-107491694D01*
X49978146Y-106862979D01*
X49951802Y-106852067D01*
X49946730Y-106842360D01*
X49550412Y-106685806D01*
X49156689Y-106522720D01*
X49137560Y-106522720D01*
X49119774Y-106515694D01*
X48693730Y-106522720D01*
X48267551Y-106522720D01*
X48249880Y-106530040D01*
X48230757Y-106530355D01*
X47477510Y-106842360D01*
X47472438Y-106852067D01*
X47446094Y-106862979D01*
X46817379Y-107491694D01*
X46806467Y-107518038D01*
X46796760Y-107523110D01*
X46640206Y-107919428D01*
X46477120Y-108313151D01*
X46477120Y-108332280D01*
X46470094Y-108350066D01*
X45338200Y-108350066D01*
X45338200Y-39571021D01*
X45872400Y-39571021D01*
X45872400Y-40632019D01*
X46278426Y-41612254D01*
X47028666Y-42362494D01*
X48008901Y-42768520D01*
X49069899Y-42768520D01*
X50050134Y-42362494D01*
X50638388Y-41774240D01*
X52824643Y-41774240D01*
X52875721Y-41784400D01*
X52875726Y-41784400D01*
X53085999Y-41826226D01*
X53296273Y-41784400D01*
X58462639Y-41784400D01*
X59085396Y-41660526D01*
X59791609Y-41188649D01*
X60263486Y-40482436D01*
X60429187Y-39649400D01*
X60263486Y-38816364D01*
X59791609Y-38110151D01*
X59085396Y-37638274D01*
X58462639Y-37514400D01*
X55210840Y-37514400D01*
X55210840Y-37377019D01*
X56618034Y-35969826D01*
X56817169Y-35836769D01*
X57344300Y-35047860D01*
X57482680Y-34352177D01*
X57482680Y-34352176D01*
X57529404Y-34117280D01*
X57482680Y-33882384D01*
X57482680Y-33778141D01*
X57529405Y-33543240D01*
X57482680Y-33308339D01*
X57482680Y-31136537D01*
X57529404Y-30901640D01*
X57482680Y-30666743D01*
X57482680Y-27349503D01*
X57344300Y-26653820D01*
X56817169Y-25864911D01*
X56028260Y-25337780D01*
X55097680Y-25152676D01*
X54167100Y-25337780D01*
X53378191Y-25864911D01*
X52851060Y-26653821D01*
X52712680Y-27349504D01*
X52712680Y-29681660D01*
X47019051Y-35375290D01*
X46819912Y-35508350D01*
X46292781Y-36297259D01*
X46155487Y-36987480D01*
X46107676Y-37227839D01*
X46154400Y-37462735D01*
X46154400Y-38890212D01*
X45872400Y-39571021D01*
X45338200Y-39571021D01*
X45338200Y-27318986D01*
X46470094Y-27318986D01*
X46477120Y-27745030D01*
X46477120Y-28171209D01*
X46484440Y-28188880D01*
X46484755Y-28208003D01*
X46796760Y-28961250D01*
X46806467Y-28966322D01*
X46817379Y-28992666D01*
X47446094Y-29621381D01*
X47472438Y-29632293D01*
X47477510Y-29642000D01*
X47873828Y-29798554D01*
X48267551Y-29961640D01*
X48286680Y-29961640D01*
X48304466Y-29968666D01*
X48730510Y-29961640D01*
X49156689Y-29961640D01*
X49174360Y-29954320D01*
X49193483Y-29954005D01*
X49946730Y-29642000D01*
X49951802Y-29632293D01*
X49978146Y-29621381D01*
X50606861Y-28992666D01*
X50617773Y-28966322D01*
X50627480Y-28961250D01*
X50784034Y-28564932D01*
X50947120Y-28171209D01*
X50947120Y-28152080D01*
X50954146Y-28134294D01*
X50947120Y-27708250D01*
X50947120Y-27282071D01*
X50939800Y-27264400D01*
X50939485Y-27245277D01*
X50627480Y-26492030D01*
X50617773Y-26486958D01*
X50606861Y-26460614D01*
X49978146Y-25831899D01*
X49951802Y-25820987D01*
X49946730Y-25811280D01*
X49550412Y-25654726D01*
X49156689Y-25491640D01*
X49137560Y-25491640D01*
X49119774Y-25484614D01*
X48693730Y-25491640D01*
X48267551Y-25491640D01*
X48249880Y-25498960D01*
X48230757Y-25499275D01*
X47477510Y-25811280D01*
X47472438Y-25820987D01*
X47446094Y-25831899D01*
X46817379Y-26460614D01*
X46806467Y-26486958D01*
X46796760Y-26492030D01*
X46640206Y-26888348D01*
X46477120Y-27282071D01*
X46477120Y-27301200D01*
X46470094Y-27318986D01*
X45338200Y-27318986D01*
X45338200Y-23743120D01*
X85498008Y-23743120D01*
X85386189Y-23910469D01*
G36*
X141534680Y-48502714D02*
X141407131Y-112700133D01*
X119565820Y-112757598D01*
X120337358Y-111986060D01*
X121150219Y-111173200D01*
X127155212Y-111173200D01*
X127836021Y-111455200D01*
X128897019Y-111455200D01*
X129877254Y-111049174D01*
X130627494Y-110298934D01*
X131033520Y-109318699D01*
X131033520Y-108522786D01*
X135492014Y-108522786D01*
X135499040Y-108948830D01*
X135499040Y-109375009D01*
X135506360Y-109392680D01*
X135506675Y-109411803D01*
X135818680Y-110165050D01*
X135828387Y-110170122D01*
X135839299Y-110196466D01*
X136468014Y-110825181D01*
X136494358Y-110836093D01*
X136499430Y-110845800D01*
X136895748Y-111002354D01*
X137289471Y-111165440D01*
X137308600Y-111165440D01*
X137326386Y-111172466D01*
X137752430Y-111165440D01*
X138178609Y-111165440D01*
X138196280Y-111158120D01*
X138215403Y-111157805D01*
X138968650Y-110845800D01*
X138973722Y-110836093D01*
X139000066Y-110825181D01*
X139628781Y-110196466D01*
X139639693Y-110170122D01*
X139649400Y-110165050D01*
X139805954Y-109768732D01*
X139969040Y-109375009D01*
X139969040Y-109355880D01*
X139976066Y-109338094D01*
X139969040Y-108912050D01*
X139969040Y-108485871D01*
X139961720Y-108468200D01*
X139961405Y-108449077D01*
X139649400Y-107695830D01*
X139639693Y-107690758D01*
X139628781Y-107664414D01*
X139000066Y-107035699D01*
X138973722Y-107024787D01*
X138968650Y-107015080D01*
X138572332Y-106858526D01*
X138178609Y-106695440D01*
X138159480Y-106695440D01*
X138141694Y-106688414D01*
X137715650Y-106695440D01*
X137289471Y-106695440D01*
X137271800Y-106702760D01*
X137252677Y-106703075D01*
X136499430Y-107015080D01*
X136494358Y-107024787D01*
X136468014Y-107035699D01*
X135839299Y-107664414D01*
X135828387Y-107690758D01*
X135818680Y-107695830D01*
X135662126Y-108092148D01*
X135499040Y-108485871D01*
X135499040Y-108505000D01*
X135492014Y-108522786D01*
X131033520Y-108522786D01*
X131033520Y-108257701D01*
X130627494Y-107277466D01*
X129877254Y-106527226D01*
X129196446Y-106245227D01*
X125204160Y-102252942D01*
X125204160Y-99439783D01*
X125065780Y-98744100D01*
X124538649Y-97955191D01*
X123749740Y-97428060D01*
X122819160Y-97242956D01*
X121888580Y-97428060D01*
X121099671Y-97955191D01*
X120572540Y-98744101D01*
X120434160Y-99439784D01*
X120434160Y-103005942D01*
X120387436Y-103240840D01*
X120434160Y-103475737D01*
X120434160Y-105143461D01*
X118641972Y-106935650D01*
X118442831Y-107068711D01*
X118309770Y-107267851D01*
X117091751Y-108485871D01*
X116416545Y-109161077D01*
X98746440Y-109161078D01*
X98746440Y-103580481D01*
X98622566Y-102957724D01*
X98150689Y-102251511D01*
X97444475Y-101779634D01*
X96611440Y-101613933D01*
X95778404Y-101779634D01*
X95072191Y-102251511D01*
X94600314Y-102957725D01*
X94476440Y-103580482D01*
X94476441Y-109161078D01*
X84424020Y-109161079D01*
X84410276Y-109091983D01*
X84271896Y-108396300D01*
X84160076Y-108228949D01*
X84160076Y-107395966D01*
X84086709Y-107027123D01*
X84495640Y-107108464D01*
X85036261Y-107000928D01*
X85494579Y-106694690D01*
X85800818Y-106236372D01*
X85881210Y-105832213D01*
X85881210Y-104561067D01*
X85880640Y-104558201D01*
X85880640Y-103020645D01*
X88106488Y-100794798D01*
X88222129Y-100717529D01*
X88528241Y-100259400D01*
X88608600Y-99855407D01*
X88635733Y-99719001D01*
X88608600Y-99582595D01*
X88608600Y-97590760D01*
X94764000Y-97590760D01*
X94764000Y-99990760D01*
X94813283Y-100238525D01*
X94953631Y-100448569D01*
X95163675Y-100588917D01*
X95411440Y-100638200D01*
X97811440Y-100638200D01*
X98059205Y-100588917D01*
X98269249Y-100448569D01*
X98409597Y-100238525D01*
X98458880Y-99990760D01*
X98458880Y-99674680D01*
X105147436Y-99674680D01*
X105194160Y-99909578D01*
X105194161Y-103554579D01*
X105194160Y-103554583D01*
X105147436Y-103789480D01*
X105194160Y-104024376D01*
X105194160Y-106366257D01*
X105331720Y-107057818D01*
X105331720Y-107731360D01*
X105381003Y-107979125D01*
X105521351Y-108189169D01*
X105731395Y-108329517D01*
X105979160Y-108378800D01*
X106652703Y-108378800D01*
X107579160Y-108563084D01*
X108505618Y-108378800D01*
X109179160Y-108378800D01*
X109426925Y-108329517D01*
X109636969Y-108189169D01*
X109777317Y-107979125D01*
X109826600Y-107731360D01*
X109826600Y-107057818D01*
X109964160Y-106366257D01*
X109964160Y-104777378D01*
X112642439Y-102099100D01*
X112679160Y-102106404D01*
X112914056Y-102059680D01*
X112914057Y-102059680D01*
X113609740Y-101921300D01*
X114398649Y-101394169D01*
X114531711Y-101195027D01*
X117542469Y-98184270D01*
X117741609Y-98051209D01*
X118125601Y-97476523D01*
X118268739Y-97262302D01*
X118272588Y-97242956D01*
X118407120Y-96566616D01*
X118453844Y-96331721D01*
X118407120Y-96096825D01*
X118407120Y-81699040D01*
X124500098Y-81699040D01*
X124620808Y-81749040D01*
X125589512Y-81749040D01*
X126484476Y-81378333D01*
X127169453Y-80693356D01*
X127540160Y-79798392D01*
X127540160Y-78829688D01*
X127169453Y-77934724D01*
X126484476Y-77249747D01*
X125589512Y-76879040D01*
X124620808Y-76879040D01*
X124500098Y-76929040D01*
X118407120Y-76929040D01*
X118407120Y-72901328D01*
X122670160Y-72901328D01*
X122670160Y-73870032D01*
X123040867Y-74764996D01*
X123725844Y-75449973D01*
X124620808Y-75820680D01*
X125589512Y-75820680D01*
X125710222Y-75770680D01*
X131417222Y-75770680D01*
X132402640Y-76756099D01*
X132402641Y-83889244D01*
X126662846Y-89629040D01*
X125710222Y-89629040D01*
X125589512Y-89579040D01*
X124620808Y-89579040D01*
X123725844Y-89949747D01*
X123040867Y-90634724D01*
X122670160Y-91529688D01*
X122670160Y-92498392D01*
X123040867Y-93393356D01*
X123725844Y-94078333D01*
X123846555Y-94128333D01*
X129572132Y-99853912D01*
X129705191Y-100053049D01*
X130494100Y-100580180D01*
X131189783Y-100718560D01*
X131189784Y-100718560D01*
X131424680Y-100765284D01*
X131659576Y-100718560D01*
X135943612Y-100718560D01*
X136624421Y-101000560D01*
X137685419Y-101000560D01*
X138665654Y-100594534D01*
X139415894Y-99844294D01*
X139821920Y-98864059D01*
X139821920Y-97803061D01*
X139415894Y-96822826D01*
X138665654Y-96072586D01*
X137685419Y-95666560D01*
X136624421Y-95666560D01*
X135943612Y-95948560D01*
X132412580Y-95948560D01*
X129750851Y-93286832D01*
X136307989Y-86729694D01*
X136507129Y-86596633D01*
X137034260Y-85807724D01*
X137172640Y-85112041D01*
X137219364Y-84877145D01*
X137172640Y-84642249D01*
X137172640Y-76003095D01*
X137219364Y-75768199D01*
X137156065Y-75449973D01*
X137034260Y-74837620D01*
X136507129Y-74048711D01*
X136307990Y-73915651D01*
X134257671Y-71865333D01*
X134124609Y-71666191D01*
X133335700Y-71139060D01*
X132640017Y-71000680D01*
X132640016Y-71000680D01*
X132405120Y-70953956D01*
X132170224Y-71000680D01*
X125710222Y-71000680D01*
X125589512Y-70950680D01*
X124620808Y-70950680D01*
X123725844Y-71321387D01*
X123040867Y-72006364D01*
X122670160Y-72901328D01*
X118407120Y-72901328D01*
X118407120Y-70756618D01*
X126363766Y-62799973D01*
X126484476Y-62749973D01*
X127169453Y-62064996D01*
X127219453Y-61944285D01*
X132600539Y-56563200D01*
X134689904Y-56563200D01*
X134924800Y-56609924D01*
X135159696Y-56563200D01*
X135159697Y-56563200D01*
X135855380Y-56424820D01*
X136644289Y-55897689D01*
X136777351Y-55698547D01*
X139911060Y-52564840D01*
X140431320Y-52564840D01*
X140679085Y-52515557D01*
X140889129Y-52375209D01*
X141029477Y-52165165D01*
X141078760Y-51917400D01*
X141078760Y-51243858D01*
X141263044Y-50317400D01*
X141078760Y-49390942D01*
X141078760Y-48717400D01*
X141029477Y-48469635D01*
X140889129Y-48259591D01*
X140679085Y-48119243D01*
X140431320Y-48069960D01*
X139757778Y-48069960D01*
X139066217Y-47932400D01*
X139020496Y-47932400D01*
X138785600Y-47885676D01*
X138550704Y-47932400D01*
X131847537Y-47932400D01*
X131612640Y-47885676D01*
X131377743Y-47932400D01*
X130686182Y-48069960D01*
X130012640Y-48069960D01*
X129764875Y-48119243D01*
X129554831Y-48259591D01*
X129414483Y-48469635D01*
X129365200Y-48717400D01*
X129365200Y-49390942D01*
X129180916Y-50317400D01*
X129227640Y-50552298D01*
X129227641Y-53190300D01*
X123846555Y-58571387D01*
X123725844Y-58621387D01*
X123040867Y-59306364D01*
X122990867Y-59427074D01*
X114501773Y-67916169D01*
X114302631Y-68049231D01*
X113775500Y-68838141D01*
X113658791Y-69424876D01*
X113590396Y-69768720D01*
X113637120Y-70003616D01*
X113637121Y-95343820D01*
X111730681Y-97250260D01*
X111693960Y-97242956D01*
X111459064Y-97289680D01*
X107814057Y-97289680D01*
X107579160Y-97242956D01*
X107344263Y-97289680D01*
X106652702Y-97427240D01*
X105979160Y-97427240D01*
X105731395Y-97476523D01*
X105521351Y-97616871D01*
X105381003Y-97826915D01*
X105331720Y-98074680D01*
X105331720Y-98748222D01*
X105147436Y-99674680D01*
X98458880Y-99674680D01*
X98458880Y-97590760D01*
X98409597Y-97342995D01*
X98269249Y-97132951D01*
X98059205Y-96992603D01*
X97811440Y-96943320D01*
X95411440Y-96943320D01*
X95163675Y-96992603D01*
X94953631Y-97132951D01*
X94813283Y-97342995D01*
X94764000Y-97590760D01*
X88608600Y-97590760D01*
X88608600Y-96497840D01*
X103734353Y-96497840D01*
X103870760Y-96524973D01*
X104007167Y-96497840D01*
X104411160Y-96417481D01*
X104869289Y-96111369D01*
X104946559Y-95995726D01*
X107928648Y-93013638D01*
X108044289Y-92936369D01*
X108350401Y-92478240D01*
X108430760Y-92074247D01*
X108457893Y-91937841D01*
X108430760Y-91801435D01*
X108430760Y-82107287D01*
X108457893Y-81970880D01*
X108350401Y-81430480D01*
X108121557Y-81087991D01*
X108121555Y-81087989D01*
X108044288Y-80972351D01*
X107928650Y-80895084D01*
X107232559Y-80198994D01*
X107155289Y-80083351D01*
X106697160Y-79777239D01*
X106293167Y-79696880D01*
X106156760Y-79669747D01*
X106020353Y-79696880D01*
X105107237Y-79696880D01*
X105077960Y-79691056D01*
X105077960Y-77390121D01*
X105150993Y-77022960D01*
X105039620Y-76463051D01*
X104722457Y-75988383D01*
X104247789Y-75671220D01*
X103829213Y-75587960D01*
X103546547Y-75587960D01*
X103127971Y-75671220D01*
X102653303Y-75988383D01*
X102336140Y-76463051D01*
X102224767Y-77022960D01*
X102307961Y-77441203D01*
X102307960Y-80419498D01*
X102157960Y-80781630D01*
X102157960Y-81392290D01*
X102391650Y-81956467D01*
X102560868Y-82125685D01*
X102545195Y-82128803D01*
X102335151Y-82269151D01*
X102194803Y-82479195D01*
X102145520Y-82726960D01*
X102145520Y-84526960D01*
X102194803Y-84774725D01*
X102328281Y-84974487D01*
X102328280Y-86251338D01*
X102178280Y-86613470D01*
X102178280Y-87224130D01*
X102411970Y-87788307D01*
X102581188Y-87957525D01*
X102565515Y-87960643D01*
X102396165Y-88073800D01*
X101132286Y-88073800D01*
X91682000Y-78623515D01*
X91682000Y-72305180D01*
X91760113Y-71912480D01*
X91648740Y-71352571D01*
X91331577Y-70877903D01*
X91151351Y-70757480D01*
X91291963Y-70757480D01*
X91428370Y-70784613D01*
X91564777Y-70757480D01*
X91968770Y-70677121D01*
X92426899Y-70371009D01*
X92504170Y-70255365D01*
X92583370Y-70176165D01*
X92583371Y-77875678D01*
X92556237Y-78012090D01*
X92663729Y-78552489D01*
X92848948Y-78829688D01*
X92969842Y-79010619D01*
X93085482Y-79087887D01*
X93871706Y-79874112D01*
X93921706Y-79994822D01*
X94325378Y-80398494D01*
X94852801Y-80616960D01*
X95423679Y-80616960D01*
X95951102Y-80398494D01*
X96354774Y-79994822D01*
X96573240Y-79467399D01*
X96573240Y-78896521D01*
X96354774Y-78369098D01*
X95951102Y-77965426D01*
X95830392Y-77915426D01*
X95353370Y-77438405D01*
X95353370Y-68217480D01*
X97062649Y-68217480D01*
X96882423Y-68337903D01*
X96565260Y-68812571D01*
X96453887Y-69372480D01*
X96565260Y-69932389D01*
X96882423Y-70407057D01*
X97234758Y-70642480D01*
X96882423Y-70877903D01*
X96565260Y-71352571D01*
X96453887Y-71912480D01*
X96565260Y-72472389D01*
X96882423Y-72947057D01*
X97357091Y-73264220D01*
X97775667Y-73347480D01*
X98058333Y-73347480D01*
X98476909Y-73264220D01*
X98951577Y-72947057D01*
X99268740Y-72472389D01*
X99380113Y-71912480D01*
X99268740Y-71352571D01*
X98951577Y-70877903D01*
X98599242Y-70642480D01*
X98951577Y-70407057D01*
X99268740Y-69932389D01*
X99380113Y-69372480D01*
X99268740Y-68812571D01*
X98951577Y-68337903D01*
X98599242Y-68102480D01*
X98951577Y-67867057D01*
X99268740Y-67392389D01*
X99380113Y-66832480D01*
X99268740Y-66272571D01*
X98951577Y-65797903D01*
X98816968Y-65707960D01*
X103281730Y-65707960D01*
X103402441Y-65757960D01*
X103973319Y-65757960D01*
X104500742Y-65539494D01*
X104904414Y-65135822D01*
X105122880Y-64608399D01*
X105122880Y-64037521D01*
X105072880Y-63916810D01*
X105072880Y-54004521D01*
X106474360Y-54004521D01*
X106474360Y-54575399D01*
X106692826Y-55102822D01*
X107096498Y-55506494D01*
X107623921Y-55724960D01*
X108194799Y-55724960D01*
X108722222Y-55506494D01*
X109125894Y-55102822D01*
X109344360Y-54575399D01*
X109344360Y-54004521D01*
X109125894Y-53477098D01*
X108722222Y-53073426D01*
X108194799Y-52854960D01*
X107623921Y-52854960D01*
X107096498Y-53073426D01*
X106692826Y-53477098D01*
X106474360Y-54004521D01*
X105072880Y-54004521D01*
X105072880Y-51225967D01*
X105100013Y-51089560D01*
X104992521Y-50549160D01*
X104924490Y-50447345D01*
X104686409Y-50091031D01*
X104570768Y-50013762D01*
X102904399Y-48347394D01*
X102827129Y-48231751D01*
X102369000Y-47925639D01*
X101828600Y-47818147D01*
X101615576Y-47860520D01*
X98546566Y-47860520D01*
X92094159Y-41408114D01*
X92016889Y-41292471D01*
X91558760Y-40986359D01*
X91336610Y-40942171D01*
X91299353Y-40904914D01*
X90698422Y-40656000D01*
X90047978Y-40656000D01*
X89447047Y-40904914D01*
X88987114Y-41364847D01*
X88738200Y-41965778D01*
X88738200Y-41967315D01*
X88031675Y-42673840D01*
X85284580Y-42673840D01*
X85033213Y-42623840D01*
X84750547Y-42623840D01*
X84499180Y-42673840D01*
X83896915Y-42673840D01*
X83760509Y-42646707D01*
X83624103Y-42673840D01*
X83220110Y-42754199D01*
X82761981Y-43060311D01*
X82684710Y-43175955D01*
X82516265Y-43344400D01*
X81105440Y-43344400D01*
X81105440Y-42326205D01*
X85404606Y-38027040D01*
X86798322Y-38027040D01*
X87171477Y-38276374D01*
X87677560Y-38377040D01*
X88019320Y-38377040D01*
X88525403Y-38276374D01*
X89099305Y-37892905D01*
X89482774Y-37319003D01*
X89617430Y-36642040D01*
X89482774Y-35965077D01*
X89099305Y-35391175D01*
X88525403Y-35007706D01*
X88336646Y-34970160D01*
X90745675Y-34970160D01*
X91233561Y-35458046D01*
X91233560Y-36851073D01*
X91206427Y-36987480D01*
X91254237Y-37227839D01*
X91313919Y-37527879D01*
X91620031Y-37986008D01*
X91735672Y-38063277D01*
X95698977Y-42026583D01*
X95874672Y-42289529D01*
X95990313Y-42366798D01*
X96238200Y-42614685D01*
X96238200Y-42616222D01*
X96487114Y-43217153D01*
X96947047Y-43677086D01*
X97547978Y-43926000D01*
X97549515Y-43926000D01*
X98616040Y-44992525D01*
X98693311Y-45108169D01*
X99151440Y-45414281D01*
X99555433Y-45494640D01*
X99691839Y-45521773D01*
X99828245Y-45494640D01*
X102926825Y-45494640D01*
X103039640Y-45517080D01*
X104559640Y-45517080D01*
X104807405Y-45467797D01*
X105017449Y-45327449D01*
X105157797Y-45117405D01*
X105207080Y-44869640D01*
X105207080Y-44133233D01*
X105211773Y-44109640D01*
X105207080Y-44086047D01*
X105207080Y-43349640D01*
X105157797Y-43101875D01*
X105059417Y-42954640D01*
X107414505Y-42954640D01*
X107768027Y-43024960D01*
X108050693Y-43024960D01*
X108469269Y-42941700D01*
X108943937Y-42624537D01*
X108950201Y-42615163D01*
X108950200Y-51836608D01*
X108926006Y-51958240D01*
X108950200Y-52079872D01*
X108950200Y-52079875D01*
X109021856Y-52440112D01*
X109294815Y-52848625D01*
X109397934Y-52917527D01*
X111120706Y-54640300D01*
X111320706Y-55123142D01*
X111724378Y-55526814D01*
X112251801Y-55745280D01*
X112822679Y-55745280D01*
X113350102Y-55526814D01*
X113753774Y-55123142D01*
X113972240Y-54595719D01*
X113972240Y-54024841D01*
X113753774Y-53497418D01*
X113350102Y-53093746D01*
X112867260Y-52893746D01*
X111420200Y-51446687D01*
X111420200Y-42521442D01*
X111502663Y-42644857D01*
X111835580Y-42867305D01*
X113955722Y-44987448D01*
X114032991Y-45103089D01*
X114385289Y-45338487D01*
X114491120Y-45409201D01*
X115031520Y-45516693D01*
X115167927Y-45489560D01*
X116469515Y-45489560D01*
X117746081Y-46766127D01*
X117746080Y-50101878D01*
X117683315Y-50114363D01*
X117473271Y-50254711D01*
X117332923Y-50464755D01*
X117283640Y-50712520D01*
X117283640Y-53112520D01*
X117332923Y-53360285D01*
X117473271Y-53570329D01*
X117683315Y-53710677D01*
X117931080Y-53759960D01*
X120331080Y-53759960D01*
X120578845Y-53710677D01*
X120788889Y-53570329D01*
X120929237Y-53360285D01*
X120978520Y-53112520D01*
X120978520Y-50712520D01*
X120929237Y-50464755D01*
X120788889Y-50254711D01*
X120578845Y-50114363D01*
X120516080Y-50101878D01*
X120516080Y-46328845D01*
X120543213Y-46192439D01*
X120513726Y-46044201D01*
X120435721Y-45652040D01*
X120129609Y-45193911D01*
X120013968Y-45116642D01*
X118235825Y-43338499D01*
X118225824Y-43314356D01*
X118090520Y-43179052D01*
X118041729Y-43106031D01*
X117968708Y-43057240D01*
X117861028Y-42949560D01*
X121041212Y-42949560D01*
X120933532Y-43057240D01*
X120860511Y-43106031D01*
X120811720Y-43179052D01*
X120676416Y-43314356D01*
X120603190Y-43491139D01*
X120554399Y-43564160D01*
X120537266Y-43650294D01*
X120464040Y-43827077D01*
X120464040Y-44018426D01*
X120446907Y-44104560D01*
X120464040Y-44190694D01*
X120464040Y-44382043D01*
X120537266Y-44558826D01*
X120554399Y-44644960D01*
X120603190Y-44717981D01*
X120676416Y-44894764D01*
X120811720Y-45030068D01*
X120860511Y-45103089D01*
X120933532Y-45151880D01*
X121068836Y-45287184D01*
X121092979Y-45297185D01*
X122746081Y-46950287D01*
X122746080Y-50702438D01*
X122575442Y-50873076D01*
X122296080Y-51547516D01*
X122296080Y-52277524D01*
X122575442Y-52951964D01*
X123091636Y-53468158D01*
X123766076Y-53747520D01*
X124496084Y-53747520D01*
X125170524Y-53468158D01*
X125686718Y-52951964D01*
X125966080Y-52277524D01*
X125966080Y-51547516D01*
X125686718Y-50873076D01*
X125516080Y-50702438D01*
X125516080Y-46513007D01*
X125543213Y-46376600D01*
X125435721Y-45836200D01*
X125312669Y-45652040D01*
X125204104Y-45489560D01*
X126375913Y-45489560D01*
X126512320Y-45516693D01*
X126648727Y-45489560D01*
X127052720Y-45409201D01*
X127510849Y-45103089D01*
X127588119Y-44987446D01*
X132495530Y-40080036D01*
X132611168Y-40002769D01*
X132688435Y-39887131D01*
X132688437Y-39887129D01*
X132917281Y-39544640D01*
X133024773Y-39004240D01*
X132997640Y-38867833D01*
X132997640Y-37462400D01*
X138596423Y-37462400D01*
X138831319Y-37509124D01*
X139066215Y-37462400D01*
X139066217Y-37462400D01*
X139761900Y-37324020D01*
X140550809Y-36796889D01*
X141077940Y-36007980D01*
X141263044Y-35077400D01*
X141254982Y-35036867D01*
X141171816Y-34618768D01*
X141077940Y-34146820D01*
X141062211Y-34123279D01*
X140954643Y-33962293D01*
X140550809Y-33357911D01*
X140351669Y-33224850D01*
X138220071Y-31093253D01*
X138087009Y-30894111D01*
X137298100Y-30366980D01*
X136602417Y-30228600D01*
X136602416Y-30228600D01*
X136367520Y-30181876D01*
X136132624Y-30228600D01*
X132399480Y-30228600D01*
X129474626Y-27303746D01*
X135573294Y-27303746D01*
X135580320Y-27729790D01*
X135580320Y-28155969D01*
X135587640Y-28173640D01*
X135587955Y-28192763D01*
X135899960Y-28946010D01*
X135909667Y-28951082D01*
X135920579Y-28977426D01*
X136549294Y-29606141D01*
X136575638Y-29617053D01*
X136580710Y-29626760D01*
X136977028Y-29783314D01*
X137370751Y-29946400D01*
X137389880Y-29946400D01*
X137407666Y-29953426D01*
X137833710Y-29946400D01*
X138259889Y-29946400D01*
X138277560Y-29939080D01*
X138296683Y-29938765D01*
X139049930Y-29626760D01*
X139055002Y-29617053D01*
X139081346Y-29606141D01*
X139710061Y-28977426D01*
X139720973Y-28951082D01*
X139730680Y-28946010D01*
X139887234Y-28549692D01*
X140050320Y-28155969D01*
X140050320Y-28136840D01*
X140057346Y-28119054D01*
X140050320Y-27693010D01*
X140050320Y-27266831D01*
X140043000Y-27249160D01*
X140042685Y-27230037D01*
X139730680Y-26476790D01*
X139720973Y-26471718D01*
X139710061Y-26445374D01*
X139081346Y-25816659D01*
X139055002Y-25805747D01*
X139049930Y-25796040D01*
X138653612Y-25639486D01*
X138259889Y-25476400D01*
X138240760Y-25476400D01*
X138222974Y-25469374D01*
X137796930Y-25476400D01*
X137370751Y-25476400D01*
X137353080Y-25483720D01*
X137333957Y-25484035D01*
X136580710Y-25796040D01*
X136575638Y-25805747D01*
X136549294Y-25816659D01*
X135920579Y-26445374D01*
X135909667Y-26471718D01*
X135899960Y-26476790D01*
X135743406Y-26873108D01*
X135580320Y-27266831D01*
X135580320Y-27285960D01*
X135573294Y-27303746D01*
X129474626Y-27303746D01*
X127742172Y-25571293D01*
X127609110Y-25372151D01*
X126820201Y-24845020D01*
X126124518Y-24706640D01*
X126124517Y-24706640D01*
X125889621Y-24659916D01*
X125654725Y-24706640D01*
X117044416Y-24706640D01*
X116809520Y-24659916D01*
X116574624Y-24706640D01*
X116574623Y-24706640D01*
X115878940Y-24845020D01*
X115090031Y-25372151D01*
X114956970Y-25571291D01*
X113889409Y-26638853D01*
X113947884Y-26344879D01*
X113762779Y-25414298D01*
X113368706Y-24824528D01*
X112287298Y-23743120D01*
X141534680Y-23743120D01*
X141534680Y-48502714D01*
X141534680Y-48502714D01*
G37*
X141534680Y-48502714D02*
X141407131Y-112700133D01*
X119565820Y-112757598D01*
X120337358Y-111986060D01*
X121150219Y-111173200D01*
X127155212Y-111173200D01*
X127836021Y-111455200D01*
X128897019Y-111455200D01*
X129877254Y-111049174D01*
X130627494Y-110298934D01*
X131033520Y-109318699D01*
X131033520Y-108522786D01*
X135492014Y-108522786D01*
X135499040Y-108948830D01*
X135499040Y-109375009D01*
X135506360Y-109392680D01*
X135506675Y-109411803D01*
X135818680Y-110165050D01*
X135828387Y-110170122D01*
X135839299Y-110196466D01*
X136468014Y-110825181D01*
X136494358Y-110836093D01*
X136499430Y-110845800D01*
X136895748Y-111002354D01*
X137289471Y-111165440D01*
X137308600Y-111165440D01*
X137326386Y-111172466D01*
X137752430Y-111165440D01*
X138178609Y-111165440D01*
X138196280Y-111158120D01*
X138215403Y-111157805D01*
X138968650Y-110845800D01*
X138973722Y-110836093D01*
X139000066Y-110825181D01*
X139628781Y-110196466D01*
X139639693Y-110170122D01*
X139649400Y-110165050D01*
X139805954Y-109768732D01*
X139969040Y-109375009D01*
X139969040Y-109355880D01*
X139976066Y-109338094D01*
X139969040Y-108912050D01*
X139969040Y-108485871D01*
X139961720Y-108468200D01*
X139961405Y-108449077D01*
X139649400Y-107695830D01*
X139639693Y-107690758D01*
X139628781Y-107664414D01*
X139000066Y-107035699D01*
X138973722Y-107024787D01*
X138968650Y-107015080D01*
X138572332Y-106858526D01*
X138178609Y-106695440D01*
X138159480Y-106695440D01*
X138141694Y-106688414D01*
X137715650Y-106695440D01*
X137289471Y-106695440D01*
X137271800Y-106702760D01*
X137252677Y-106703075D01*
X136499430Y-107015080D01*
X136494358Y-107024787D01*
X136468014Y-107035699D01*
X135839299Y-107664414D01*
X135828387Y-107690758D01*
X135818680Y-107695830D01*
X135662126Y-108092148D01*
X135499040Y-108485871D01*
X135499040Y-108505000D01*
X135492014Y-108522786D01*
X131033520Y-108522786D01*
X131033520Y-108257701D01*
X130627494Y-107277466D01*
X129877254Y-106527226D01*
X129196446Y-106245227D01*
X125204160Y-102252942D01*
X125204160Y-99439783D01*
X125065780Y-98744100D01*
X124538649Y-97955191D01*
X123749740Y-97428060D01*
X122819160Y-97242956D01*
X121888580Y-97428060D01*
X121099671Y-97955191D01*
X120572540Y-98744101D01*
X120434160Y-99439784D01*
X120434160Y-103005942D01*
X120387436Y-103240840D01*
X120434160Y-103475737D01*
X120434160Y-105143461D01*
X118641972Y-106935650D01*
X118442831Y-107068711D01*
X118309770Y-107267851D01*
X117091751Y-108485871D01*
X116416545Y-109161077D01*
X98746440Y-109161078D01*
X98746440Y-103580481D01*
X98622566Y-102957724D01*
X98150689Y-102251511D01*
X97444475Y-101779634D01*
X96611440Y-101613933D01*
X95778404Y-101779634D01*
X95072191Y-102251511D01*
X94600314Y-102957725D01*
X94476440Y-103580482D01*
X94476441Y-109161078D01*
X84424020Y-109161079D01*
X84410276Y-109091983D01*
X84271896Y-108396300D01*
X84160076Y-108228949D01*
X84160076Y-107395966D01*
X84086709Y-107027123D01*
X84495640Y-107108464D01*
X85036261Y-107000928D01*
X85494579Y-106694690D01*
X85800818Y-106236372D01*
X85881210Y-105832213D01*
X85881210Y-104561067D01*
X85880640Y-104558201D01*
X85880640Y-103020645D01*
X88106488Y-100794798D01*
X88222129Y-100717529D01*
X88528241Y-100259400D01*
X88608600Y-99855407D01*
X88635733Y-99719001D01*
X88608600Y-99582595D01*
X88608600Y-97590760D01*
X94764000Y-97590760D01*
X94764000Y-99990760D01*
X94813283Y-100238525D01*
X94953631Y-100448569D01*
X95163675Y-100588917D01*
X95411440Y-100638200D01*
X97811440Y-100638200D01*
X98059205Y-100588917D01*
X98269249Y-100448569D01*
X98409597Y-100238525D01*
X98458880Y-99990760D01*
X98458880Y-99674680D01*
X105147436Y-99674680D01*
X105194160Y-99909578D01*
X105194161Y-103554579D01*
X105194160Y-103554583D01*
X105147436Y-103789480D01*
X105194160Y-104024376D01*
X105194160Y-106366257D01*
X105331720Y-107057818D01*
X105331720Y-107731360D01*
X105381003Y-107979125D01*
X105521351Y-108189169D01*
X105731395Y-108329517D01*
X105979160Y-108378800D01*
X106652703Y-108378800D01*
X107579160Y-108563084D01*
X108505618Y-108378800D01*
X109179160Y-108378800D01*
X109426925Y-108329517D01*
X109636969Y-108189169D01*
X109777317Y-107979125D01*
X109826600Y-107731360D01*
X109826600Y-107057818D01*
X109964160Y-106366257D01*
X109964160Y-104777378D01*
X112642439Y-102099100D01*
X112679160Y-102106404D01*
X112914056Y-102059680D01*
X112914057Y-102059680D01*
X113609740Y-101921300D01*
X114398649Y-101394169D01*
X114531711Y-101195027D01*
X117542469Y-98184270D01*
X117741609Y-98051209D01*
X118125601Y-97476523D01*
X118268739Y-97262302D01*
X118272588Y-97242956D01*
X118407120Y-96566616D01*
X118453844Y-96331721D01*
X118407120Y-96096825D01*
X118407120Y-81699040D01*
X124500098Y-81699040D01*
X124620808Y-81749040D01*
X125589512Y-81749040D01*
X126484476Y-81378333D01*
X127169453Y-80693356D01*
X127540160Y-79798392D01*
X127540160Y-78829688D01*
X127169453Y-77934724D01*
X126484476Y-77249747D01*
X125589512Y-76879040D01*
X124620808Y-76879040D01*
X124500098Y-76929040D01*
X118407120Y-76929040D01*
X118407120Y-72901328D01*
X122670160Y-72901328D01*
X122670160Y-73870032D01*
X123040867Y-74764996D01*
X123725844Y-75449973D01*
X124620808Y-75820680D01*
X125589512Y-75820680D01*
X125710222Y-75770680D01*
X131417222Y-75770680D01*
X132402640Y-76756099D01*
X132402641Y-83889244D01*
X126662846Y-89629040D01*
X125710222Y-89629040D01*
X125589512Y-89579040D01*
X124620808Y-89579040D01*
X123725844Y-89949747D01*
X123040867Y-90634724D01*
X122670160Y-91529688D01*
X122670160Y-92498392D01*
X123040867Y-93393356D01*
X123725844Y-94078333D01*
X123846555Y-94128333D01*
X129572132Y-99853912D01*
X129705191Y-100053049D01*
X130494100Y-100580180D01*
X131189783Y-100718560D01*
X131189784Y-100718560D01*
X131424680Y-100765284D01*
X131659576Y-100718560D01*
X135943612Y-100718560D01*
X136624421Y-101000560D01*
X137685419Y-101000560D01*
X138665654Y-100594534D01*
X139415894Y-99844294D01*
X139821920Y-98864059D01*
X139821920Y-97803061D01*
X139415894Y-96822826D01*
X138665654Y-96072586D01*
X137685419Y-95666560D01*
X136624421Y-95666560D01*
X135943612Y-95948560D01*
X132412580Y-95948560D01*
X129750851Y-93286832D01*
X136307989Y-86729694D01*
X136507129Y-86596633D01*
X137034260Y-85807724D01*
X137172640Y-85112041D01*
X137219364Y-84877145D01*
X137172640Y-84642249D01*
X137172640Y-76003095D01*
X137219364Y-75768199D01*
X137156065Y-75449973D01*
X137034260Y-74837620D01*
X136507129Y-74048711D01*
X136307990Y-73915651D01*
X134257671Y-71865333D01*
X134124609Y-71666191D01*
X133335700Y-71139060D01*
X132640017Y-71000680D01*
X132640016Y-71000680D01*
X132405120Y-70953956D01*
X132170224Y-71000680D01*
X125710222Y-71000680D01*
X125589512Y-70950680D01*
X124620808Y-70950680D01*
X123725844Y-71321387D01*
X123040867Y-72006364D01*
X122670160Y-72901328D01*
X118407120Y-72901328D01*
X118407120Y-70756618D01*
X126363766Y-62799973D01*
X126484476Y-62749973D01*
X127169453Y-62064996D01*
X127219453Y-61944285D01*
X132600539Y-56563200D01*
X134689904Y-56563200D01*
X134924800Y-56609924D01*
X135159696Y-56563200D01*
X135159697Y-56563200D01*
X135855380Y-56424820D01*
X136644289Y-55897689D01*
X136777351Y-55698547D01*
X139911060Y-52564840D01*
X140431320Y-52564840D01*
X140679085Y-52515557D01*
X140889129Y-52375209D01*
X141029477Y-52165165D01*
X141078760Y-51917400D01*
X141078760Y-51243858D01*
X141263044Y-50317400D01*
X141078760Y-49390942D01*
X141078760Y-48717400D01*
X141029477Y-48469635D01*
X140889129Y-48259591D01*
X140679085Y-48119243D01*
X140431320Y-48069960D01*
X139757778Y-48069960D01*
X139066217Y-47932400D01*
X139020496Y-47932400D01*
X138785600Y-47885676D01*
X138550704Y-47932400D01*
X131847537Y-47932400D01*
X131612640Y-47885676D01*
X131377743Y-47932400D01*
X130686182Y-48069960D01*
X130012640Y-48069960D01*
X129764875Y-48119243D01*
X129554831Y-48259591D01*
X129414483Y-48469635D01*
X129365200Y-48717400D01*
X129365200Y-49390942D01*
X129180916Y-50317400D01*
X129227640Y-50552298D01*
X129227641Y-53190300D01*
X123846555Y-58571387D01*
X123725844Y-58621387D01*
X123040867Y-59306364D01*
X122990867Y-59427074D01*
X114501773Y-67916169D01*
X114302631Y-68049231D01*
X113775500Y-68838141D01*
X113658791Y-69424876D01*
X113590396Y-69768720D01*
X113637120Y-70003616D01*
X113637121Y-95343820D01*
X111730681Y-97250260D01*
X111693960Y-97242956D01*
X111459064Y-97289680D01*
X107814057Y-97289680D01*
X107579160Y-97242956D01*
X107344263Y-97289680D01*
X106652702Y-97427240D01*
X105979160Y-97427240D01*
X105731395Y-97476523D01*
X105521351Y-97616871D01*
X105381003Y-97826915D01*
X105331720Y-98074680D01*
X105331720Y-98748222D01*
X105147436Y-99674680D01*
X98458880Y-99674680D01*
X98458880Y-97590760D01*
X98409597Y-97342995D01*
X98269249Y-97132951D01*
X98059205Y-96992603D01*
X97811440Y-96943320D01*
X95411440Y-96943320D01*
X95163675Y-96992603D01*
X94953631Y-97132951D01*
X94813283Y-97342995D01*
X94764000Y-97590760D01*
X88608600Y-97590760D01*
X88608600Y-96497840D01*
X103734353Y-96497840D01*
X103870760Y-96524973D01*
X104007167Y-96497840D01*
X104411160Y-96417481D01*
X104869289Y-96111369D01*
X104946559Y-95995726D01*
X107928648Y-93013638D01*
X108044289Y-92936369D01*
X108350401Y-92478240D01*
X108430760Y-92074247D01*
X108457893Y-91937841D01*
X108430760Y-91801435D01*
X108430760Y-82107287D01*
X108457893Y-81970880D01*
X108350401Y-81430480D01*
X108121557Y-81087991D01*
X108121555Y-81087989D01*
X108044288Y-80972351D01*
X107928650Y-80895084D01*
X107232559Y-80198994D01*
X107155289Y-80083351D01*
X106697160Y-79777239D01*
X106293167Y-79696880D01*
X106156760Y-79669747D01*
X106020353Y-79696880D01*
X105107237Y-79696880D01*
X105077960Y-79691056D01*
X105077960Y-77390121D01*
X105150993Y-77022960D01*
X105039620Y-76463051D01*
X104722457Y-75988383D01*
X104247789Y-75671220D01*
X103829213Y-75587960D01*
X103546547Y-75587960D01*
X103127971Y-75671220D01*
X102653303Y-75988383D01*
X102336140Y-76463051D01*
X102224767Y-77022960D01*
X102307961Y-77441203D01*
X102307960Y-80419498D01*
X102157960Y-80781630D01*
X102157960Y-81392290D01*
X102391650Y-81956467D01*
X102560868Y-82125685D01*
X102545195Y-82128803D01*
X102335151Y-82269151D01*
X102194803Y-82479195D01*
X102145520Y-82726960D01*
X102145520Y-84526960D01*
X102194803Y-84774725D01*
X102328281Y-84974487D01*
X102328280Y-86251338D01*
X102178280Y-86613470D01*
X102178280Y-87224130D01*
X102411970Y-87788307D01*
X102581188Y-87957525D01*
X102565515Y-87960643D01*
X102396165Y-88073800D01*
X101132286Y-88073800D01*
X91682000Y-78623515D01*
X91682000Y-72305180D01*
X91760113Y-71912480D01*
X91648740Y-71352571D01*
X91331577Y-70877903D01*
X91151351Y-70757480D01*
X91291963Y-70757480D01*
X91428370Y-70784613D01*
X91564777Y-70757480D01*
X91968770Y-70677121D01*
X92426899Y-70371009D01*
X92504170Y-70255365D01*
X92583370Y-70176165D01*
X92583371Y-77875678D01*
X92556237Y-78012090D01*
X92663729Y-78552489D01*
X92848948Y-78829688D01*
X92969842Y-79010619D01*
X93085482Y-79087887D01*
X93871706Y-79874112D01*
X93921706Y-79994822D01*
X94325378Y-80398494D01*
X94852801Y-80616960D01*
X95423679Y-80616960D01*
X95951102Y-80398494D01*
X96354774Y-79994822D01*
X96573240Y-79467399D01*
X96573240Y-78896521D01*
X96354774Y-78369098D01*
X95951102Y-77965426D01*
X95830392Y-77915426D01*
X95353370Y-77438405D01*
X95353370Y-68217480D01*
X97062649Y-68217480D01*
X96882423Y-68337903D01*
X96565260Y-68812571D01*
X96453887Y-69372480D01*
X96565260Y-69932389D01*
X96882423Y-70407057D01*
X97234758Y-70642480D01*
X96882423Y-70877903D01*
X96565260Y-71352571D01*
X96453887Y-71912480D01*
X96565260Y-72472389D01*
X96882423Y-72947057D01*
X97357091Y-73264220D01*
X97775667Y-73347480D01*
X98058333Y-73347480D01*
X98476909Y-73264220D01*
X98951577Y-72947057D01*
X99268740Y-72472389D01*
X99380113Y-71912480D01*
X99268740Y-71352571D01*
X98951577Y-70877903D01*
X98599242Y-70642480D01*
X98951577Y-70407057D01*
X99268740Y-69932389D01*
X99380113Y-69372480D01*
X99268740Y-68812571D01*
X98951577Y-68337903D01*
X98599242Y-68102480D01*
X98951577Y-67867057D01*
X99268740Y-67392389D01*
X99380113Y-66832480D01*
X99268740Y-66272571D01*
X98951577Y-65797903D01*
X98816968Y-65707960D01*
X103281730Y-65707960D01*
X103402441Y-65757960D01*
X103973319Y-65757960D01*
X104500742Y-65539494D01*
X104904414Y-65135822D01*
X105122880Y-64608399D01*
X105122880Y-64037521D01*
X105072880Y-63916810D01*
X105072880Y-54004521D01*
X106474360Y-54004521D01*
X106474360Y-54575399D01*
X106692826Y-55102822D01*
X107096498Y-55506494D01*
X107623921Y-55724960D01*
X108194799Y-55724960D01*
X108722222Y-55506494D01*
X109125894Y-55102822D01*
X109344360Y-54575399D01*
X109344360Y-54004521D01*
X109125894Y-53477098D01*
X108722222Y-53073426D01*
X108194799Y-52854960D01*
X107623921Y-52854960D01*
X107096498Y-53073426D01*
X106692826Y-53477098D01*
X106474360Y-54004521D01*
X105072880Y-54004521D01*
X105072880Y-51225967D01*
X105100013Y-51089560D01*
X104992521Y-50549160D01*
X104924490Y-50447345D01*
X104686409Y-50091031D01*
X104570768Y-50013762D01*
X102904399Y-48347394D01*
X102827129Y-48231751D01*
X102369000Y-47925639D01*
X101828600Y-47818147D01*
X101615576Y-47860520D01*
X98546566Y-47860520D01*
X92094159Y-41408114D01*
X92016889Y-41292471D01*
X91558760Y-40986359D01*
X91336610Y-40942171D01*
X91299353Y-40904914D01*
X90698422Y-40656000D01*
X90047978Y-40656000D01*
X89447047Y-40904914D01*
X88987114Y-41364847D01*
X88738200Y-41965778D01*
X88738200Y-41967315D01*
X88031675Y-42673840D01*
X85284580Y-42673840D01*
X85033213Y-42623840D01*
X84750547Y-42623840D01*
X84499180Y-42673840D01*
X83896915Y-42673840D01*
X83760509Y-42646707D01*
X83624103Y-42673840D01*
X83220110Y-42754199D01*
X82761981Y-43060311D01*
X82684710Y-43175955D01*
X82516265Y-43344400D01*
X81105440Y-43344400D01*
X81105440Y-42326205D01*
X85404606Y-38027040D01*
X86798322Y-38027040D01*
X87171477Y-38276374D01*
X87677560Y-38377040D01*
X88019320Y-38377040D01*
X88525403Y-38276374D01*
X89099305Y-37892905D01*
X89482774Y-37319003D01*
X89617430Y-36642040D01*
X89482774Y-35965077D01*
X89099305Y-35391175D01*
X88525403Y-35007706D01*
X88336646Y-34970160D01*
X90745675Y-34970160D01*
X91233561Y-35458046D01*
X91233560Y-36851073D01*
X91206427Y-36987480D01*
X91254237Y-37227839D01*
X91313919Y-37527879D01*
X91620031Y-37986008D01*
X91735672Y-38063277D01*
X95698977Y-42026583D01*
X95874672Y-42289529D01*
X95990313Y-42366798D01*
X96238200Y-42614685D01*
X96238200Y-42616222D01*
X96487114Y-43217153D01*
X96947047Y-43677086D01*
X97547978Y-43926000D01*
X97549515Y-43926000D01*
X98616040Y-44992525D01*
X98693311Y-45108169D01*
X99151440Y-45414281D01*
X99555433Y-45494640D01*
X99691839Y-45521773D01*
X99828245Y-45494640D01*
X102926825Y-45494640D01*
X103039640Y-45517080D01*
X104559640Y-45517080D01*
X104807405Y-45467797D01*
X105017449Y-45327449D01*
X105157797Y-45117405D01*
X105207080Y-44869640D01*
X105207080Y-44133233D01*
X105211773Y-44109640D01*
X105207080Y-44086047D01*
X105207080Y-43349640D01*
X105157797Y-43101875D01*
X105059417Y-42954640D01*
X107414505Y-42954640D01*
X107768027Y-43024960D01*
X108050693Y-43024960D01*
X108469269Y-42941700D01*
X108943937Y-42624537D01*
X108950201Y-42615163D01*
X108950200Y-51836608D01*
X108926006Y-51958240D01*
X108950200Y-52079872D01*
X108950200Y-52079875D01*
X109021856Y-52440112D01*
X109294815Y-52848625D01*
X109397934Y-52917527D01*
X111120706Y-54640300D01*
X111320706Y-55123142D01*
X111724378Y-55526814D01*
X112251801Y-55745280D01*
X112822679Y-55745280D01*
X113350102Y-55526814D01*
X113753774Y-55123142D01*
X113972240Y-54595719D01*
X113972240Y-54024841D01*
X113753774Y-53497418D01*
X113350102Y-53093746D01*
X112867260Y-52893746D01*
X111420200Y-51446687D01*
X111420200Y-42521442D01*
X111502663Y-42644857D01*
X111835580Y-42867305D01*
X113955722Y-44987448D01*
X114032991Y-45103089D01*
X114385289Y-45338487D01*
X114491120Y-45409201D01*
X115031520Y-45516693D01*
X115167927Y-45489560D01*
X116469515Y-45489560D01*
X117746081Y-46766127D01*
X117746080Y-50101878D01*
X117683315Y-50114363D01*
X117473271Y-50254711D01*
X117332923Y-50464755D01*
X117283640Y-50712520D01*
X117283640Y-53112520D01*
X117332923Y-53360285D01*
X117473271Y-53570329D01*
X117683315Y-53710677D01*
X117931080Y-53759960D01*
X120331080Y-53759960D01*
X120578845Y-53710677D01*
X120788889Y-53570329D01*
X120929237Y-53360285D01*
X120978520Y-53112520D01*
X120978520Y-50712520D01*
X120929237Y-50464755D01*
X120788889Y-50254711D01*
X120578845Y-50114363D01*
X120516080Y-50101878D01*
X120516080Y-46328845D01*
X120543213Y-46192439D01*
X120513726Y-46044201D01*
X120435721Y-45652040D01*
X120129609Y-45193911D01*
X120013968Y-45116642D01*
X118235825Y-43338499D01*
X118225824Y-43314356D01*
X118090520Y-43179052D01*
X118041729Y-43106031D01*
X117968708Y-43057240D01*
X117861028Y-42949560D01*
X121041212Y-42949560D01*
X120933532Y-43057240D01*
X120860511Y-43106031D01*
X120811720Y-43179052D01*
X120676416Y-43314356D01*
X120603190Y-43491139D01*
X120554399Y-43564160D01*
X120537266Y-43650294D01*
X120464040Y-43827077D01*
X120464040Y-44018426D01*
X120446907Y-44104560D01*
X120464040Y-44190694D01*
X120464040Y-44382043D01*
X120537266Y-44558826D01*
X120554399Y-44644960D01*
X120603190Y-44717981D01*
X120676416Y-44894764D01*
X120811720Y-45030068D01*
X120860511Y-45103089D01*
X120933532Y-45151880D01*
X121068836Y-45287184D01*
X121092979Y-45297185D01*
X122746081Y-46950287D01*
X122746080Y-50702438D01*
X122575442Y-50873076D01*
X122296080Y-51547516D01*
X122296080Y-52277524D01*
X122575442Y-52951964D01*
X123091636Y-53468158D01*
X123766076Y-53747520D01*
X124496084Y-53747520D01*
X125170524Y-53468158D01*
X125686718Y-52951964D01*
X125966080Y-52277524D01*
X125966080Y-51547516D01*
X125686718Y-50873076D01*
X125516080Y-50702438D01*
X125516080Y-46513007D01*
X125543213Y-46376600D01*
X125435721Y-45836200D01*
X125312669Y-45652040D01*
X125204104Y-45489560D01*
X126375913Y-45489560D01*
X126512320Y-45516693D01*
X126648727Y-45489560D01*
X127052720Y-45409201D01*
X127510849Y-45103089D01*
X127588119Y-44987446D01*
X132495530Y-40080036D01*
X132611168Y-40002769D01*
X132688435Y-39887131D01*
X132688437Y-39887129D01*
X132917281Y-39544640D01*
X133024773Y-39004240D01*
X132997640Y-38867833D01*
X132997640Y-37462400D01*
X138596423Y-37462400D01*
X138831319Y-37509124D01*
X139066215Y-37462400D01*
X139066217Y-37462400D01*
X139761900Y-37324020D01*
X140550809Y-36796889D01*
X141077940Y-36007980D01*
X141263044Y-35077400D01*
X141254982Y-35036867D01*
X141171816Y-34618768D01*
X141077940Y-34146820D01*
X141062211Y-34123279D01*
X140954643Y-33962293D01*
X140550809Y-33357911D01*
X140351669Y-33224850D01*
X138220071Y-31093253D01*
X138087009Y-30894111D01*
X137298100Y-30366980D01*
X136602417Y-30228600D01*
X136602416Y-30228600D01*
X136367520Y-30181876D01*
X136132624Y-30228600D01*
X132399480Y-30228600D01*
X129474626Y-27303746D01*
X135573294Y-27303746D01*
X135580320Y-27729790D01*
X135580320Y-28155969D01*
X135587640Y-28173640D01*
X135587955Y-28192763D01*
X135899960Y-28946010D01*
X135909667Y-28951082D01*
X135920579Y-28977426D01*
X136549294Y-29606141D01*
X136575638Y-29617053D01*
X136580710Y-29626760D01*
X136977028Y-29783314D01*
X137370751Y-29946400D01*
X137389880Y-29946400D01*
X137407666Y-29953426D01*
X137833710Y-29946400D01*
X138259889Y-29946400D01*
X138277560Y-29939080D01*
X138296683Y-29938765D01*
X139049930Y-29626760D01*
X139055002Y-29617053D01*
X139081346Y-29606141D01*
X139710061Y-28977426D01*
X139720973Y-28951082D01*
X139730680Y-28946010D01*
X139887234Y-28549692D01*
X140050320Y-28155969D01*
X140050320Y-28136840D01*
X140057346Y-28119054D01*
X140050320Y-27693010D01*
X140050320Y-27266831D01*
X140043000Y-27249160D01*
X140042685Y-27230037D01*
X139730680Y-26476790D01*
X139720973Y-26471718D01*
X139710061Y-26445374D01*
X139081346Y-25816659D01*
X139055002Y-25805747D01*
X139049930Y-25796040D01*
X138653612Y-25639486D01*
X138259889Y-25476400D01*
X138240760Y-25476400D01*
X138222974Y-25469374D01*
X137796930Y-25476400D01*
X137370751Y-25476400D01*
X137353080Y-25483720D01*
X137333957Y-25484035D01*
X136580710Y-25796040D01*
X136575638Y-25805747D01*
X136549294Y-25816659D01*
X135920579Y-26445374D01*
X135909667Y-26471718D01*
X135899960Y-26476790D01*
X135743406Y-26873108D01*
X135580320Y-27266831D01*
X135580320Y-27285960D01*
X135573294Y-27303746D01*
X129474626Y-27303746D01*
X127742172Y-25571293D01*
X127609110Y-25372151D01*
X126820201Y-24845020D01*
X126124518Y-24706640D01*
X126124517Y-24706640D01*
X125889621Y-24659916D01*
X125654725Y-24706640D01*
X117044416Y-24706640D01*
X116809520Y-24659916D01*
X116574624Y-24706640D01*
X116574623Y-24706640D01*
X115878940Y-24845020D01*
X115090031Y-25372151D01*
X114956970Y-25571291D01*
X113889409Y-26638853D01*
X113947884Y-26344879D01*
X113762779Y-25414298D01*
X113368706Y-24824528D01*
X112287298Y-23743120D01*
X141534680Y-23743120D01*
X141534680Y-48502714D01*
G36*
X73278639Y-70160519D02*
X73419284Y-70371009D01*
X73584752Y-70618649D01*
X73700392Y-70695917D01*
X75825242Y-72820768D01*
X75902511Y-72936409D01*
X76322626Y-73217121D01*
X76360640Y-73242521D01*
X76901040Y-73350013D01*
X77037447Y-73322880D01*
X79608153Y-73322880D01*
X79744560Y-73350013D01*
X79880967Y-73322880D01*
X80008662Y-73297480D01*
X88912000Y-73297480D01*
X88912001Y-78804495D01*
X88833887Y-79197200D01*
X88945260Y-79757109D01*
X89262423Y-80231777D01*
X89595340Y-80454225D01*
X99482802Y-90341688D01*
X99560071Y-90457329D01*
X100018200Y-90763441D01*
X100558600Y-90870933D01*
X100695007Y-90843800D01*
X102396165Y-90843800D01*
X102565515Y-90956957D01*
X102813280Y-91006240D01*
X104613280Y-91006240D01*
X104861045Y-90956957D01*
X105071089Y-90816609D01*
X105211437Y-90606565D01*
X105260720Y-90358800D01*
X105260720Y-88558800D01*
X105211437Y-88311035D01*
X105071089Y-88100991D01*
X104861045Y-87960643D01*
X104845372Y-87957525D01*
X105014590Y-87788307D01*
X105248280Y-87224130D01*
X105248280Y-86613470D01*
X105098280Y-86251338D01*
X105098280Y-84913664D01*
X105191117Y-84774725D01*
X105240400Y-84526960D01*
X105240400Y-82726960D01*
X105191117Y-82479195D01*
X105182888Y-82466880D01*
X105583075Y-82466880D01*
X105660760Y-82544566D01*
X105660761Y-91364153D01*
X103297075Y-93727840D01*
X88608600Y-93727840D01*
X88608600Y-92785445D01*
X88635733Y-92649039D01*
X88593675Y-92437599D01*
X88528241Y-92108640D01*
X88444292Y-91983002D01*
X88299397Y-91766151D01*
X88299395Y-91766149D01*
X88222128Y-91650511D01*
X88164135Y-91611761D01*
X88862000Y-91611761D01*
X88862000Y-92182639D01*
X89080466Y-92710062D01*
X89484138Y-93113734D01*
X90011561Y-93332200D01*
X90582439Y-93332200D01*
X90739942Y-93266960D01*
X94745540Y-93266960D01*
X94996907Y-93316960D01*
X95279573Y-93316960D01*
X95698149Y-93233700D01*
X96172817Y-92916537D01*
X96489980Y-92441869D01*
X96601353Y-91881960D01*
X96489980Y-91322051D01*
X96172817Y-90847383D01*
X95698149Y-90530220D01*
X95279573Y-90446960D01*
X94996907Y-90446960D01*
X94745540Y-90496960D01*
X90666357Y-90496960D01*
X90582439Y-90462200D01*
X90011561Y-90462200D01*
X89484138Y-90680666D01*
X89080466Y-91084338D01*
X88862000Y-91611761D01*
X88164135Y-91611761D01*
X88106490Y-91573244D01*
X84082999Y-87549754D01*
X84005729Y-87434111D01*
X83547600Y-87127999D01*
X83143607Y-87047640D01*
X83007200Y-87020507D01*
X82870793Y-87047640D01*
X68414526Y-87047640D01*
X62555446Y-81188560D01*
X65349047Y-81188560D01*
X65460420Y-81748469D01*
X65777583Y-82223137D01*
X66252251Y-82540300D01*
X66670827Y-82623560D01*
X66953493Y-82623560D01*
X67372069Y-82540300D01*
X67846737Y-82223137D01*
X68163900Y-81748469D01*
X68275273Y-81188560D01*
X70068367Y-81188560D01*
X70179740Y-81748469D01*
X70496903Y-82223137D01*
X70971571Y-82540300D01*
X71390147Y-82623560D01*
X71672813Y-82623560D01*
X72091389Y-82540300D01*
X72566057Y-82223137D01*
X72883220Y-81748469D01*
X72981456Y-81254600D01*
X77210847Y-81254600D01*
X77322220Y-81814509D01*
X77639383Y-82289177D01*
X78114051Y-82606340D01*
X78532627Y-82689600D01*
X78815293Y-82689600D01*
X79066660Y-82639600D01*
X83127580Y-82639600D01*
X83378947Y-82689600D01*
X83661613Y-82689600D01*
X84080189Y-82606340D01*
X84091927Y-82598497D01*
X84289280Y-82559241D01*
X84747409Y-82253129D01*
X85053521Y-81795000D01*
X85161013Y-81254600D01*
X85053521Y-80714200D01*
X84747409Y-80256071D01*
X84289280Y-79949959D01*
X84091927Y-79910703D01*
X84080189Y-79902860D01*
X83661613Y-79819600D01*
X83378947Y-79819600D01*
X83127580Y-79869600D01*
X79066660Y-79869600D01*
X78815293Y-79819600D01*
X78532627Y-79819600D01*
X78114051Y-79902860D01*
X77639383Y-80220023D01*
X77322220Y-80694691D01*
X77210847Y-81254600D01*
X72981456Y-81254600D01*
X72994593Y-81188560D01*
X72916480Y-80795860D01*
X72916480Y-77302110D01*
X72966480Y-77181399D01*
X72966480Y-76895960D01*
X82768367Y-76895960D01*
X82879740Y-77455869D01*
X83196903Y-77930537D01*
X83671571Y-78247700D01*
X84090147Y-78330960D01*
X84372813Y-78330960D01*
X84791389Y-78247700D01*
X85266057Y-77930537D01*
X85583220Y-77455869D01*
X85694593Y-76895960D01*
X85583220Y-76336051D01*
X85266057Y-75861383D01*
X84791389Y-75544220D01*
X84372813Y-75460960D01*
X84090147Y-75460960D01*
X83671571Y-75544220D01*
X83196903Y-75861383D01*
X82879740Y-76336051D01*
X82768367Y-76895960D01*
X72966480Y-76895960D01*
X72966480Y-76610521D01*
X72748014Y-76083098D01*
X72344342Y-75679426D01*
X71816919Y-75460960D01*
X71246041Y-75460960D01*
X70718618Y-75679426D01*
X70314946Y-76083098D01*
X70096480Y-76610521D01*
X70096480Y-77181399D01*
X70146480Y-77302110D01*
X70146481Y-80795856D01*
X70068367Y-81188560D01*
X68275273Y-81188560D01*
X68163900Y-80628651D01*
X67846737Y-80153983D01*
X67372069Y-79836820D01*
X66953493Y-79753560D01*
X66670827Y-79753560D01*
X66252251Y-79836820D01*
X65777583Y-80153983D01*
X65460420Y-80628651D01*
X65349047Y-81188560D01*
X62555446Y-81188560D01*
X61682719Y-80315834D01*
X61605449Y-80200191D01*
X61147320Y-79894079D01*
X60743327Y-79813720D01*
X60606920Y-79786587D01*
X60470513Y-79813720D01*
X59717562Y-79813720D01*
X59705077Y-79750955D01*
X59564729Y-79540911D01*
X59354685Y-79400563D01*
X59106920Y-79351280D01*
X56706920Y-79351280D01*
X56459155Y-79400563D01*
X56249111Y-79540911D01*
X56108763Y-79750955D01*
X56059480Y-79998720D01*
X56059480Y-82398720D01*
X56108763Y-82646485D01*
X56249111Y-82856529D01*
X56459155Y-82996877D01*
X56706920Y-83046160D01*
X59106920Y-83046160D01*
X59354685Y-82996877D01*
X59564729Y-82856529D01*
X59705077Y-82646485D01*
X59717562Y-82583720D01*
X60033235Y-82583720D01*
X66765042Y-89315528D01*
X66842311Y-89431169D01*
X67138446Y-89629040D01*
X67300440Y-89737281D01*
X67840840Y-89844773D01*
X67977247Y-89817640D01*
X82433515Y-89817640D01*
X85838600Y-93222726D01*
X85838601Y-94976428D01*
X85811467Y-95112840D01*
X85838600Y-95249247D01*
X85838601Y-99145313D01*
X83612752Y-101371163D01*
X83497112Y-101448431D01*
X83419843Y-101564072D01*
X83340640Y-101682608D01*
X83340640Y-96092925D01*
X84212432Y-95221134D01*
X84333142Y-95171134D01*
X84736814Y-94767462D01*
X84955280Y-94240039D01*
X84955280Y-93669161D01*
X84736814Y-93141738D01*
X84333142Y-92738066D01*
X83805719Y-92519600D01*
X83234841Y-92519600D01*
X82707418Y-92738066D01*
X82303746Y-93141738D01*
X82253746Y-93262448D01*
X81072752Y-94443443D01*
X80957112Y-94520711D01*
X80879843Y-94636352D01*
X80650999Y-94978841D01*
X80543507Y-95519240D01*
X80570641Y-95655652D01*
X80570640Y-103932151D01*
X80414580Y-103698590D01*
X79956262Y-103392352D01*
X79415640Y-103284816D01*
X79322869Y-103303269D01*
X78756181Y-102924620D01*
X77825600Y-102739515D01*
X76895019Y-102924620D01*
X76305247Y-103318693D01*
X73205502Y-106418440D01*
X68197160Y-106418440D01*
X68197160Y-102659880D01*
X69075753Y-102659880D01*
X69212160Y-102687013D01*
X69348567Y-102659880D01*
X69752560Y-102579521D01*
X70210689Y-102273409D01*
X70287959Y-102157766D01*
X72536292Y-99909434D01*
X72651928Y-99832168D01*
X72729194Y-99716532D01*
X72729197Y-99716529D01*
X72958041Y-99374040D01*
X73065533Y-98833640D01*
X72958041Y-98293240D01*
X72916480Y-98231040D01*
X72916480Y-95273560D01*
X78108376Y-95273560D01*
X78388521Y-95389600D01*
X78959399Y-95389600D01*
X79486822Y-95171134D01*
X79890494Y-94767462D01*
X80108960Y-94240039D01*
X80108960Y-93669161D01*
X79890494Y-93141738D01*
X79486822Y-92738066D01*
X79203189Y-92620581D01*
X79148320Y-92583919D01*
X79083598Y-92571045D01*
X78959399Y-92519600D01*
X78824966Y-92519600D01*
X78744327Y-92503560D01*
X78607920Y-92476427D01*
X78471513Y-92503560D01*
X71937630Y-92503560D01*
X71816919Y-92453560D01*
X71246041Y-92453560D01*
X70718618Y-92672026D01*
X70314946Y-93075698D01*
X70096480Y-93603121D01*
X70096480Y-94173999D01*
X70146481Y-94294712D01*
X70146480Y-98381874D01*
X68638475Y-99889880D01*
X68129275Y-99889880D01*
X67959925Y-99776723D01*
X67944252Y-99773605D01*
X68113470Y-99604387D01*
X68347160Y-99040210D01*
X68347160Y-98429550D01*
X68197160Y-98067418D01*
X68197160Y-94294710D01*
X68247160Y-94173999D01*
X68247160Y-93603121D01*
X68028694Y-93075698D01*
X67625022Y-92672026D01*
X67097599Y-92453560D01*
X66526721Y-92453560D01*
X65999298Y-92672026D01*
X65595626Y-93075698D01*
X65377160Y-93603121D01*
X65377160Y-94173999D01*
X65427160Y-94294710D01*
X65427161Y-98067416D01*
X65277160Y-98429550D01*
X65277160Y-99040210D01*
X65510850Y-99604387D01*
X65680068Y-99773605D01*
X65664395Y-99776723D01*
X65454351Y-99917071D01*
X65314003Y-100127115D01*
X65264720Y-100374880D01*
X65264720Y-102174880D01*
X65314003Y-102422645D01*
X65427161Y-102591996D01*
X65427161Y-103538469D01*
X65427160Y-103538474D01*
X65427161Y-106418440D01*
X60355886Y-106418440D01*
X58178640Y-104241195D01*
X58178640Y-97549776D01*
X58225364Y-97314880D01*
X58160674Y-96989658D01*
X58658640Y-96989658D01*
X58658640Y-97153850D01*
X58658641Y-103489656D01*
X58658640Y-103489658D01*
X58658640Y-104140102D01*
X58721475Y-104291799D01*
X58753505Y-104452825D01*
X58844719Y-104589337D01*
X58907554Y-104741033D01*
X59023657Y-104857136D01*
X59114872Y-104993649D01*
X59251385Y-105084864D01*
X59367487Y-105200966D01*
X59519182Y-105263800D01*
X59655696Y-105355016D01*
X59816725Y-105387047D01*
X59968418Y-105449880D01*
X60132609Y-105449880D01*
X60293640Y-105481911D01*
X60454671Y-105449880D01*
X60618862Y-105449880D01*
X60770554Y-105387047D01*
X60931585Y-105355016D01*
X61068101Y-105263799D01*
X61219793Y-105200966D01*
X61335893Y-105084866D01*
X61472409Y-104993649D01*
X61563626Y-104857133D01*
X61679726Y-104741033D01*
X61742559Y-104589341D01*
X61833776Y-104452825D01*
X61865807Y-104291794D01*
X61928640Y-104140102D01*
X61928640Y-96989658D01*
X61865807Y-96837966D01*
X61833776Y-96676935D01*
X61742559Y-96540419D01*
X61679726Y-96388727D01*
X61563626Y-96272627D01*
X61472409Y-96136111D01*
X61335893Y-96044894D01*
X61219793Y-95928794D01*
X61068099Y-95865960D01*
X60931584Y-95774744D01*
X60770555Y-95742713D01*
X60618862Y-95679880D01*
X60454671Y-95679880D01*
X60293640Y-95647849D01*
X60132609Y-95679880D01*
X59968418Y-95679880D01*
X59816726Y-95742713D01*
X59655695Y-95774744D01*
X59519179Y-95865961D01*
X59367487Y-95928794D01*
X59251387Y-96044894D01*
X59114871Y-96136111D01*
X59023654Y-96272627D01*
X58907554Y-96388727D01*
X58844720Y-96540421D01*
X58753504Y-96676936D01*
X58721473Y-96837965D01*
X58658640Y-96989658D01*
X58160674Y-96989658D01*
X58151456Y-96943320D01*
X58040260Y-96384300D01*
X57513129Y-95595391D01*
X57313993Y-95462333D01*
X51351489Y-89499830D01*
X51817601Y-89033719D01*
X56545891Y-89033719D01*
X56706921Y-89065750D01*
X56867951Y-89033719D01*
X56867952Y-89033719D01*
X57344866Y-88938855D01*
X57885690Y-88577488D01*
X57976909Y-88440969D01*
X58463520Y-87954358D01*
X58946364Y-87754358D01*
X59462558Y-87238164D01*
X59741920Y-86563724D01*
X59741920Y-85833716D01*
X59462558Y-85159276D01*
X58946364Y-84643082D01*
X58271924Y-84363720D01*
X57541916Y-84363720D01*
X56867476Y-84643082D01*
X56351282Y-85159276D01*
X56151282Y-85642120D01*
X56029683Y-85763719D01*
X51301392Y-85763719D01*
X51140361Y-85731688D01*
X50893920Y-85780708D01*
X50893920Y-82559505D01*
X52023824Y-81429602D01*
X52202089Y-81310489D01*
X52673966Y-80604276D01*
X52797840Y-79981519D01*
X52797840Y-79981515D01*
X52839666Y-79771240D01*
X52797840Y-79560965D01*
X52797840Y-73094498D01*
X54887747Y-71004593D01*
X54978187Y-70869240D01*
X62301273Y-70869240D01*
X62437680Y-70896373D01*
X62574087Y-70869240D01*
X71688433Y-70869240D01*
X71824840Y-70896373D01*
X71961247Y-70869240D01*
X72365240Y-70788881D01*
X72823369Y-70482769D01*
X72900639Y-70367126D01*
X73250203Y-70017562D01*
X73278639Y-70160519D01*
X73278639Y-70160519D01*
G37*
X73278639Y-70160519D02*
X73419284Y-70371009D01*
X73584752Y-70618649D01*
X73700392Y-70695917D01*
X75825242Y-72820768D01*
X75902511Y-72936409D01*
X76322626Y-73217121D01*
X76360640Y-73242521D01*
X76901040Y-73350013D01*
X77037447Y-73322880D01*
X79608153Y-73322880D01*
X79744560Y-73350013D01*
X79880967Y-73322880D01*
X80008662Y-73297480D01*
X88912000Y-73297480D01*
X88912001Y-78804495D01*
X88833887Y-79197200D01*
X88945260Y-79757109D01*
X89262423Y-80231777D01*
X89595340Y-80454225D01*
X99482802Y-90341688D01*
X99560071Y-90457329D01*
X100018200Y-90763441D01*
X100558600Y-90870933D01*
X100695007Y-90843800D01*
X102396165Y-90843800D01*
X102565515Y-90956957D01*
X102813280Y-91006240D01*
X104613280Y-91006240D01*
X104861045Y-90956957D01*
X105071089Y-90816609D01*
X105211437Y-90606565D01*
X105260720Y-90358800D01*
X105260720Y-88558800D01*
X105211437Y-88311035D01*
X105071089Y-88100991D01*
X104861045Y-87960643D01*
X104845372Y-87957525D01*
X105014590Y-87788307D01*
X105248280Y-87224130D01*
X105248280Y-86613470D01*
X105098280Y-86251338D01*
X105098280Y-84913664D01*
X105191117Y-84774725D01*
X105240400Y-84526960D01*
X105240400Y-82726960D01*
X105191117Y-82479195D01*
X105182888Y-82466880D01*
X105583075Y-82466880D01*
X105660760Y-82544566D01*
X105660761Y-91364153D01*
X103297075Y-93727840D01*
X88608600Y-93727840D01*
X88608600Y-92785445D01*
X88635733Y-92649039D01*
X88593675Y-92437599D01*
X88528241Y-92108640D01*
X88444292Y-91983002D01*
X88299397Y-91766151D01*
X88299395Y-91766149D01*
X88222128Y-91650511D01*
X88164135Y-91611761D01*
X88862000Y-91611761D01*
X88862000Y-92182639D01*
X89080466Y-92710062D01*
X89484138Y-93113734D01*
X90011561Y-93332200D01*
X90582439Y-93332200D01*
X90739942Y-93266960D01*
X94745540Y-93266960D01*
X94996907Y-93316960D01*
X95279573Y-93316960D01*
X95698149Y-93233700D01*
X96172817Y-92916537D01*
X96489980Y-92441869D01*
X96601353Y-91881960D01*
X96489980Y-91322051D01*
X96172817Y-90847383D01*
X95698149Y-90530220D01*
X95279573Y-90446960D01*
X94996907Y-90446960D01*
X94745540Y-90496960D01*
X90666357Y-90496960D01*
X90582439Y-90462200D01*
X90011561Y-90462200D01*
X89484138Y-90680666D01*
X89080466Y-91084338D01*
X88862000Y-91611761D01*
X88164135Y-91611761D01*
X88106490Y-91573244D01*
X84082999Y-87549754D01*
X84005729Y-87434111D01*
X83547600Y-87127999D01*
X83143607Y-87047640D01*
X83007200Y-87020507D01*
X82870793Y-87047640D01*
X68414526Y-87047640D01*
X62555446Y-81188560D01*
X65349047Y-81188560D01*
X65460420Y-81748469D01*
X65777583Y-82223137D01*
X66252251Y-82540300D01*
X66670827Y-82623560D01*
X66953493Y-82623560D01*
X67372069Y-82540300D01*
X67846737Y-82223137D01*
X68163900Y-81748469D01*
X68275273Y-81188560D01*
X70068367Y-81188560D01*
X70179740Y-81748469D01*
X70496903Y-82223137D01*
X70971571Y-82540300D01*
X71390147Y-82623560D01*
X71672813Y-82623560D01*
X72091389Y-82540300D01*
X72566057Y-82223137D01*
X72883220Y-81748469D01*
X72981456Y-81254600D01*
X77210847Y-81254600D01*
X77322220Y-81814509D01*
X77639383Y-82289177D01*
X78114051Y-82606340D01*
X78532627Y-82689600D01*
X78815293Y-82689600D01*
X79066660Y-82639600D01*
X83127580Y-82639600D01*
X83378947Y-82689600D01*
X83661613Y-82689600D01*
X84080189Y-82606340D01*
X84091927Y-82598497D01*
X84289280Y-82559241D01*
X84747409Y-82253129D01*
X85053521Y-81795000D01*
X85161013Y-81254600D01*
X85053521Y-80714200D01*
X84747409Y-80256071D01*
X84289280Y-79949959D01*
X84091927Y-79910703D01*
X84080189Y-79902860D01*
X83661613Y-79819600D01*
X83378947Y-79819600D01*
X83127580Y-79869600D01*
X79066660Y-79869600D01*
X78815293Y-79819600D01*
X78532627Y-79819600D01*
X78114051Y-79902860D01*
X77639383Y-80220023D01*
X77322220Y-80694691D01*
X77210847Y-81254600D01*
X72981456Y-81254600D01*
X72994593Y-81188560D01*
X72916480Y-80795860D01*
X72916480Y-77302110D01*
X72966480Y-77181399D01*
X72966480Y-76895960D01*
X82768367Y-76895960D01*
X82879740Y-77455869D01*
X83196903Y-77930537D01*
X83671571Y-78247700D01*
X84090147Y-78330960D01*
X84372813Y-78330960D01*
X84791389Y-78247700D01*
X85266057Y-77930537D01*
X85583220Y-77455869D01*
X85694593Y-76895960D01*
X85583220Y-76336051D01*
X85266057Y-75861383D01*
X84791389Y-75544220D01*
X84372813Y-75460960D01*
X84090147Y-75460960D01*
X83671571Y-75544220D01*
X83196903Y-75861383D01*
X82879740Y-76336051D01*
X82768367Y-76895960D01*
X72966480Y-76895960D01*
X72966480Y-76610521D01*
X72748014Y-76083098D01*
X72344342Y-75679426D01*
X71816919Y-75460960D01*
X71246041Y-75460960D01*
X70718618Y-75679426D01*
X70314946Y-76083098D01*
X70096480Y-76610521D01*
X70096480Y-77181399D01*
X70146480Y-77302110D01*
X70146481Y-80795856D01*
X70068367Y-81188560D01*
X68275273Y-81188560D01*
X68163900Y-80628651D01*
X67846737Y-80153983D01*
X67372069Y-79836820D01*
X66953493Y-79753560D01*
X66670827Y-79753560D01*
X66252251Y-79836820D01*
X65777583Y-80153983D01*
X65460420Y-80628651D01*
X65349047Y-81188560D01*
X62555446Y-81188560D01*
X61682719Y-80315834D01*
X61605449Y-80200191D01*
X61147320Y-79894079D01*
X60743327Y-79813720D01*
X60606920Y-79786587D01*
X60470513Y-79813720D01*
X59717562Y-79813720D01*
X59705077Y-79750955D01*
X59564729Y-79540911D01*
X59354685Y-79400563D01*
X59106920Y-79351280D01*
X56706920Y-79351280D01*
X56459155Y-79400563D01*
X56249111Y-79540911D01*
X56108763Y-79750955D01*
X56059480Y-79998720D01*
X56059480Y-82398720D01*
X56108763Y-82646485D01*
X56249111Y-82856529D01*
X56459155Y-82996877D01*
X56706920Y-83046160D01*
X59106920Y-83046160D01*
X59354685Y-82996877D01*
X59564729Y-82856529D01*
X59705077Y-82646485D01*
X59717562Y-82583720D01*
X60033235Y-82583720D01*
X66765042Y-89315528D01*
X66842311Y-89431169D01*
X67138446Y-89629040D01*
X67300440Y-89737281D01*
X67840840Y-89844773D01*
X67977247Y-89817640D01*
X82433515Y-89817640D01*
X85838600Y-93222726D01*
X85838601Y-94976428D01*
X85811467Y-95112840D01*
X85838600Y-95249247D01*
X85838601Y-99145313D01*
X83612752Y-101371163D01*
X83497112Y-101448431D01*
X83419843Y-101564072D01*
X83340640Y-101682608D01*
X83340640Y-96092925D01*
X84212432Y-95221134D01*
X84333142Y-95171134D01*
X84736814Y-94767462D01*
X84955280Y-94240039D01*
X84955280Y-93669161D01*
X84736814Y-93141738D01*
X84333142Y-92738066D01*
X83805719Y-92519600D01*
X83234841Y-92519600D01*
X82707418Y-92738066D01*
X82303746Y-93141738D01*
X82253746Y-93262448D01*
X81072752Y-94443443D01*
X80957112Y-94520711D01*
X80879843Y-94636352D01*
X80650999Y-94978841D01*
X80543507Y-95519240D01*
X80570641Y-95655652D01*
X80570640Y-103932151D01*
X80414580Y-103698590D01*
X79956262Y-103392352D01*
X79415640Y-103284816D01*
X79322869Y-103303269D01*
X78756181Y-102924620D01*
X77825600Y-102739515D01*
X76895019Y-102924620D01*
X76305247Y-103318693D01*
X73205502Y-106418440D01*
X68197160Y-106418440D01*
X68197160Y-102659880D01*
X69075753Y-102659880D01*
X69212160Y-102687013D01*
X69348567Y-102659880D01*
X69752560Y-102579521D01*
X70210689Y-102273409D01*
X70287959Y-102157766D01*
X72536292Y-99909434D01*
X72651928Y-99832168D01*
X72729194Y-99716532D01*
X72729197Y-99716529D01*
X72958041Y-99374040D01*
X73065533Y-98833640D01*
X72958041Y-98293240D01*
X72916480Y-98231040D01*
X72916480Y-95273560D01*
X78108376Y-95273560D01*
X78388521Y-95389600D01*
X78959399Y-95389600D01*
X79486822Y-95171134D01*
X79890494Y-94767462D01*
X80108960Y-94240039D01*
X80108960Y-93669161D01*
X79890494Y-93141738D01*
X79486822Y-92738066D01*
X79203189Y-92620581D01*
X79148320Y-92583919D01*
X79083598Y-92571045D01*
X78959399Y-92519600D01*
X78824966Y-92519600D01*
X78744327Y-92503560D01*
X78607920Y-92476427D01*
X78471513Y-92503560D01*
X71937630Y-92503560D01*
X71816919Y-92453560D01*
X71246041Y-92453560D01*
X70718618Y-92672026D01*
X70314946Y-93075698D01*
X70096480Y-93603121D01*
X70096480Y-94173999D01*
X70146481Y-94294712D01*
X70146480Y-98381874D01*
X68638475Y-99889880D01*
X68129275Y-99889880D01*
X67959925Y-99776723D01*
X67944252Y-99773605D01*
X68113470Y-99604387D01*
X68347160Y-99040210D01*
X68347160Y-98429550D01*
X68197160Y-98067418D01*
X68197160Y-94294710D01*
X68247160Y-94173999D01*
X68247160Y-93603121D01*
X68028694Y-93075698D01*
X67625022Y-92672026D01*
X67097599Y-92453560D01*
X66526721Y-92453560D01*
X65999298Y-92672026D01*
X65595626Y-93075698D01*
X65377160Y-93603121D01*
X65377160Y-94173999D01*
X65427160Y-94294710D01*
X65427161Y-98067416D01*
X65277160Y-98429550D01*
X65277160Y-99040210D01*
X65510850Y-99604387D01*
X65680068Y-99773605D01*
X65664395Y-99776723D01*
X65454351Y-99917071D01*
X65314003Y-100127115D01*
X65264720Y-100374880D01*
X65264720Y-102174880D01*
X65314003Y-102422645D01*
X65427161Y-102591996D01*
X65427161Y-103538469D01*
X65427160Y-103538474D01*
X65427161Y-106418440D01*
X60355886Y-106418440D01*
X58178640Y-104241195D01*
X58178640Y-97549776D01*
X58225364Y-97314880D01*
X58160674Y-96989658D01*
X58658640Y-96989658D01*
X58658640Y-97153850D01*
X58658641Y-103489656D01*
X58658640Y-103489658D01*
X58658640Y-104140102D01*
X58721475Y-104291799D01*
X58753505Y-104452825D01*
X58844719Y-104589337D01*
X58907554Y-104741033D01*
X59023657Y-104857136D01*
X59114872Y-104993649D01*
X59251385Y-105084864D01*
X59367487Y-105200966D01*
X59519182Y-105263800D01*
X59655696Y-105355016D01*
X59816725Y-105387047D01*
X59968418Y-105449880D01*
X60132609Y-105449880D01*
X60293640Y-105481911D01*
X60454671Y-105449880D01*
X60618862Y-105449880D01*
X60770554Y-105387047D01*
X60931585Y-105355016D01*
X61068101Y-105263799D01*
X61219793Y-105200966D01*
X61335893Y-105084866D01*
X61472409Y-104993649D01*
X61563626Y-104857133D01*
X61679726Y-104741033D01*
X61742559Y-104589341D01*
X61833776Y-104452825D01*
X61865807Y-104291794D01*
X61928640Y-104140102D01*
X61928640Y-96989658D01*
X61865807Y-96837966D01*
X61833776Y-96676935D01*
X61742559Y-96540419D01*
X61679726Y-96388727D01*
X61563626Y-96272627D01*
X61472409Y-96136111D01*
X61335893Y-96044894D01*
X61219793Y-95928794D01*
X61068099Y-95865960D01*
X60931584Y-95774744D01*
X60770555Y-95742713D01*
X60618862Y-95679880D01*
X60454671Y-95679880D01*
X60293640Y-95647849D01*
X60132609Y-95679880D01*
X59968418Y-95679880D01*
X59816726Y-95742713D01*
X59655695Y-95774744D01*
X59519179Y-95865961D01*
X59367487Y-95928794D01*
X59251387Y-96044894D01*
X59114871Y-96136111D01*
X59023654Y-96272627D01*
X58907554Y-96388727D01*
X58844720Y-96540421D01*
X58753504Y-96676936D01*
X58721473Y-96837965D01*
X58658640Y-96989658D01*
X58160674Y-96989658D01*
X58151456Y-96943320D01*
X58040260Y-96384300D01*
X57513129Y-95595391D01*
X57313993Y-95462333D01*
X51351489Y-89499830D01*
X51817601Y-89033719D01*
X56545891Y-89033719D01*
X56706921Y-89065750D01*
X56867951Y-89033719D01*
X56867952Y-89033719D01*
X57344866Y-88938855D01*
X57885690Y-88577488D01*
X57976909Y-88440969D01*
X58463520Y-87954358D01*
X58946364Y-87754358D01*
X59462558Y-87238164D01*
X59741920Y-86563724D01*
X59741920Y-85833716D01*
X59462558Y-85159276D01*
X58946364Y-84643082D01*
X58271924Y-84363720D01*
X57541916Y-84363720D01*
X56867476Y-84643082D01*
X56351282Y-85159276D01*
X56151282Y-85642120D01*
X56029683Y-85763719D01*
X51301392Y-85763719D01*
X51140361Y-85731688D01*
X50893920Y-85780708D01*
X50893920Y-82559505D01*
X52023824Y-81429602D01*
X52202089Y-81310489D01*
X52673966Y-80604276D01*
X52797840Y-79981519D01*
X52797840Y-79981515D01*
X52839666Y-79771240D01*
X52797840Y-79560965D01*
X52797840Y-73094498D01*
X54887747Y-71004593D01*
X54978187Y-70869240D01*
X62301273Y-70869240D01*
X62437680Y-70896373D01*
X62574087Y-70869240D01*
X71688433Y-70869240D01*
X71824840Y-70896373D01*
X71961247Y-70869240D01*
X72365240Y-70788881D01*
X72823369Y-70482769D01*
X72900639Y-70367126D01*
X73250203Y-70017562D01*
X73278639Y-70160519D01*
G36*
X80183882Y-60532248D02*
X80261151Y-60647889D01*
X80676414Y-60925359D01*
X80719280Y-60954001D01*
X81259680Y-61061493D01*
X81396087Y-61034360D01*
X86075548Y-61034360D01*
X85780551Y-61231471D01*
X85703280Y-61347115D01*
X81709595Y-65340800D01*
X81393922Y-65340800D01*
X81381437Y-65278035D01*
X81241089Y-65067991D01*
X81031045Y-64927643D01*
X80783280Y-64878360D01*
X78383280Y-64878360D01*
X78135515Y-64927643D01*
X77925471Y-65067991D01*
X77785123Y-65278035D01*
X77735840Y-65525800D01*
X77735840Y-67925800D01*
X77785123Y-68173565D01*
X77925471Y-68383609D01*
X78135515Y-68523957D01*
X78383280Y-68573240D01*
X80783280Y-68573240D01*
X81031045Y-68523957D01*
X81241089Y-68383609D01*
X81381437Y-68173565D01*
X81393922Y-68110800D01*
X82146873Y-68110800D01*
X82283280Y-68137933D01*
X82419687Y-68110800D01*
X82823680Y-68030441D01*
X83281809Y-67724329D01*
X83359080Y-67608685D01*
X87352765Y-63615000D01*
X87615115Y-63615000D01*
X88849560Y-64849446D01*
X88849560Y-65092480D01*
X88898843Y-65340245D01*
X89039191Y-65550289D01*
X89249235Y-65690637D01*
X89383106Y-65717265D01*
X89262423Y-65797903D01*
X88945260Y-66272571D01*
X88833887Y-66832480D01*
X88945260Y-67392389D01*
X89262423Y-67867057D01*
X89614758Y-68102480D01*
X89262423Y-68337903D01*
X88945260Y-68812571D01*
X88833887Y-69372480D01*
X88945260Y-69932389D01*
X89262423Y-70407057D01*
X89442649Y-70527480D01*
X79906365Y-70527480D01*
X79769959Y-70500347D01*
X79633553Y-70527480D01*
X79505858Y-70552880D01*
X77474726Y-70552880D01*
X75968280Y-69046435D01*
X75968280Y-67935882D01*
X76138918Y-67765244D01*
X76338918Y-67282400D01*
X76881572Y-66739747D01*
X77018089Y-66648529D01*
X77379456Y-66107705D01*
X77474320Y-65630791D01*
X77474320Y-65630790D01*
X77506351Y-65469760D01*
X77474320Y-65308730D01*
X77474320Y-57822685D01*
X80183882Y-60532248D01*
X80183882Y-60532248D01*
G37*
X80183882Y-60532248D02*
X80261151Y-60647889D01*
X80676414Y-60925359D01*
X80719280Y-60954001D01*
X81259680Y-61061493D01*
X81396087Y-61034360D01*
X86075548Y-61034360D01*
X85780551Y-61231471D01*
X85703280Y-61347115D01*
X81709595Y-65340800D01*
X81393922Y-65340800D01*
X81381437Y-65278035D01*
X81241089Y-65067991D01*
X81031045Y-64927643D01*
X80783280Y-64878360D01*
X78383280Y-64878360D01*
X78135515Y-64927643D01*
X77925471Y-65067991D01*
X77785123Y-65278035D01*
X77735840Y-65525800D01*
X77735840Y-67925800D01*
X77785123Y-68173565D01*
X77925471Y-68383609D01*
X78135515Y-68523957D01*
X78383280Y-68573240D01*
X80783280Y-68573240D01*
X81031045Y-68523957D01*
X81241089Y-68383609D01*
X81381437Y-68173565D01*
X81393922Y-68110800D01*
X82146873Y-68110800D01*
X82283280Y-68137933D01*
X82419687Y-68110800D01*
X82823680Y-68030441D01*
X83281809Y-67724329D01*
X83359080Y-67608685D01*
X87352765Y-63615000D01*
X87615115Y-63615000D01*
X88849560Y-64849446D01*
X88849560Y-65092480D01*
X88898843Y-65340245D01*
X89039191Y-65550289D01*
X89249235Y-65690637D01*
X89383106Y-65717265D01*
X89262423Y-65797903D01*
X88945260Y-66272571D01*
X88833887Y-66832480D01*
X88945260Y-67392389D01*
X89262423Y-67867057D01*
X89614758Y-68102480D01*
X89262423Y-68337903D01*
X88945260Y-68812571D01*
X88833887Y-69372480D01*
X88945260Y-69932389D01*
X89262423Y-70407057D01*
X89442649Y-70527480D01*
X79906365Y-70527480D01*
X79769959Y-70500347D01*
X79633553Y-70527480D01*
X79505858Y-70552880D01*
X77474726Y-70552880D01*
X75968280Y-69046435D01*
X75968280Y-67935882D01*
X76138918Y-67765244D01*
X76338918Y-67282400D01*
X76881572Y-66739747D01*
X77018089Y-66648529D01*
X77379456Y-66107705D01*
X77474320Y-65630791D01*
X77474320Y-65630790D01*
X77506351Y-65469760D01*
X77474320Y-65308730D01*
X77474320Y-57822685D01*
X80183882Y-60532248D01*
G36*
X61738159Y-46529639D02*
X62044271Y-46987768D01*
X62159912Y-47065037D01*
X63257322Y-48162448D01*
X63265308Y-48174400D01*
X59694645Y-48174400D01*
X59600125Y-48111243D01*
X59352360Y-48061960D01*
X57152360Y-48061960D01*
X56904595Y-48111243D01*
X56694551Y-48251591D01*
X56554203Y-48461635D01*
X56504920Y-48709400D01*
X56504920Y-50909400D01*
X56554203Y-51157165D01*
X56694551Y-51367209D01*
X56904595Y-51507557D01*
X57152360Y-51556840D01*
X59352360Y-51556840D01*
X59600125Y-51507557D01*
X59694645Y-51444400D01*
X66655936Y-51444400D01*
X66868039Y-51486590D01*
X67469260Y-51367000D01*
X67768040Y-51367000D01*
X68015805Y-51317717D01*
X68225849Y-51177369D01*
X68366197Y-50967325D01*
X68415480Y-50719560D01*
X68415480Y-50420780D01*
X68535070Y-49819559D01*
X68415480Y-49218340D01*
X68415480Y-48919560D01*
X68366197Y-48671795D01*
X68361363Y-48664560D01*
X72815795Y-48664560D01*
X74004320Y-49853086D01*
X74004320Y-50094404D01*
X74204320Y-50577247D01*
X74204321Y-64792520D01*
X74026680Y-64970162D01*
X73543836Y-65170162D01*
X73027642Y-65686356D01*
X72748280Y-66360796D01*
X72748280Y-66602114D01*
X71251155Y-68099240D01*
X65289672Y-68099240D01*
X65303293Y-68030761D01*
X65276160Y-67894355D01*
X65276160Y-66643575D01*
X65298600Y-66530760D01*
X65298600Y-65010760D01*
X65249317Y-64762995D01*
X65108969Y-64552951D01*
X64898925Y-64412603D01*
X64718111Y-64376637D01*
X64801428Y-64293320D01*
X64874449Y-64244529D01*
X64880553Y-64235393D01*
X64889689Y-64229289D01*
X64938480Y-64156268D01*
X65073784Y-64020964D01*
X65147010Y-63844181D01*
X65195801Y-63771160D01*
X65212934Y-63685026D01*
X65286160Y-63508243D01*
X65286160Y-63316893D01*
X65303293Y-63230760D01*
X65286160Y-63144626D01*
X65286160Y-62953277D01*
X65276160Y-62929135D01*
X65276160Y-60992385D01*
X65286160Y-60968243D01*
X65286160Y-60413277D01*
X65212934Y-60236494D01*
X65195801Y-60150360D01*
X65147010Y-60077340D01*
X65073784Y-59900556D01*
X64938478Y-59765250D01*
X64889688Y-59692231D01*
X64816670Y-59643442D01*
X64681364Y-59508136D01*
X64504578Y-59434909D01*
X64431559Y-59386119D01*
X64345427Y-59368986D01*
X64168643Y-59295760D01*
X63977293Y-59295760D01*
X63891160Y-59278627D01*
X63805026Y-59295760D01*
X63613677Y-59295760D01*
X63436894Y-59368986D01*
X63350760Y-59386119D01*
X63277740Y-59434910D01*
X63100956Y-59508136D01*
X62965650Y-59643442D01*
X62892631Y-59692232D01*
X62843842Y-59765250D01*
X62708536Y-59900556D01*
X62635309Y-60077342D01*
X62586519Y-60150361D01*
X62569386Y-60236493D01*
X62496160Y-60413277D01*
X62496160Y-60968243D01*
X62506160Y-60992386D01*
X62506160Y-61861000D01*
X59425777Y-61861000D01*
X59524157Y-61713765D01*
X59573440Y-61466000D01*
X59573440Y-59946000D01*
X59551000Y-59833185D01*
X59551000Y-57261360D01*
X59661960Y-56993479D01*
X59661960Y-56708040D01*
X69463847Y-56708040D01*
X69575220Y-57267949D01*
X69892383Y-57742617D01*
X70367051Y-58059780D01*
X70785627Y-58143040D01*
X71068293Y-58143040D01*
X71486869Y-58059780D01*
X71961537Y-57742617D01*
X72278700Y-57267949D01*
X72390073Y-56708040D01*
X72278700Y-56148131D01*
X71961537Y-55673463D01*
X71486869Y-55356300D01*
X71068293Y-55273040D01*
X70785627Y-55273040D01*
X70367051Y-55356300D01*
X69892383Y-55673463D01*
X69575220Y-56148131D01*
X69463847Y-56708040D01*
X59661960Y-56708040D01*
X59661960Y-56422601D01*
X59443494Y-55895178D01*
X59039822Y-55491506D01*
X58512399Y-55273040D01*
X57941521Y-55273040D01*
X57414098Y-55491506D01*
X57356364Y-55549240D01*
X54310840Y-55549240D01*
X54310840Y-53073863D01*
X54427580Y-52899149D01*
X54538953Y-52339240D01*
X54427580Y-51779331D01*
X54110417Y-51304663D01*
X53635749Y-50987500D01*
X53217173Y-50904240D01*
X52934507Y-50904240D01*
X52515931Y-50987500D01*
X52041263Y-51304663D01*
X51724100Y-51779331D01*
X51612727Y-52339240D01*
X51724100Y-52899149D01*
X51840840Y-53073863D01*
X51840841Y-55949203D01*
X51818666Y-55971378D01*
X51600200Y-56498801D01*
X51600200Y-57069679D01*
X51818666Y-57597102D01*
X52222338Y-58000774D01*
X52749761Y-58219240D01*
X53320639Y-58219240D01*
X53803481Y-58019240D01*
X56781001Y-58019240D01*
X56781000Y-59833184D01*
X56758560Y-59946000D01*
X56758560Y-61466000D01*
X56807843Y-61713765D01*
X56948191Y-61923809D01*
X57158235Y-62064157D01*
X57339049Y-62100123D01*
X57240492Y-62198680D01*
X57167471Y-62247471D01*
X57118680Y-62320492D01*
X56983376Y-62455796D01*
X56910150Y-62632579D01*
X56861359Y-62705600D01*
X56844226Y-62791734D01*
X56771000Y-62968517D01*
X56771000Y-63159866D01*
X56753867Y-63246000D01*
X56771000Y-63332134D01*
X56771000Y-63523483D01*
X56781001Y-63547627D01*
X56781000Y-65484374D01*
X56771000Y-65508517D01*
X56771000Y-66063483D01*
X56844226Y-66240267D01*
X56861359Y-66326399D01*
X56910149Y-66399418D01*
X56983376Y-66576204D01*
X57118682Y-66711510D01*
X57167471Y-66784528D01*
X57240490Y-66833318D01*
X57375796Y-66968624D01*
X57552580Y-67041850D01*
X57625600Y-67090641D01*
X57711734Y-67107774D01*
X57888517Y-67181000D01*
X58079866Y-67181000D01*
X58166000Y-67198133D01*
X58252133Y-67181000D01*
X58443483Y-67181000D01*
X58620267Y-67107774D01*
X58706399Y-67090641D01*
X58779418Y-67041851D01*
X58956204Y-66968624D01*
X59091510Y-66833318D01*
X59164528Y-66784529D01*
X59213318Y-66711510D01*
X59348624Y-66576204D01*
X59421850Y-66399420D01*
X59470641Y-66326400D01*
X59487774Y-66240266D01*
X59561000Y-66063483D01*
X59561000Y-65508517D01*
X59551000Y-65484375D01*
X59551000Y-64631000D01*
X62621200Y-64631000D01*
X62533003Y-64762995D01*
X62483720Y-65010760D01*
X62483720Y-66530760D01*
X62506160Y-66643577D01*
X62506161Y-67457074D01*
X61863995Y-68099240D01*
X54978186Y-68099240D01*
X54754688Y-67764752D01*
X53965781Y-67237621D01*
X53035200Y-67052516D01*
X52104619Y-67237621D01*
X51514847Y-67631693D01*
X50643920Y-68502621D01*
X50643920Y-50775025D01*
X55235266Y-46183680D01*
X61669344Y-46183680D01*
X61738159Y-46529639D01*
X61738159Y-46529639D01*
G37*
X61738159Y-46529639D02*
X62044271Y-46987768D01*
X62159912Y-47065037D01*
X63257322Y-48162448D01*
X63265308Y-48174400D01*
X59694645Y-48174400D01*
X59600125Y-48111243D01*
X59352360Y-48061960D01*
X57152360Y-48061960D01*
X56904595Y-48111243D01*
X56694551Y-48251591D01*
X56554203Y-48461635D01*
X56504920Y-48709400D01*
X56504920Y-50909400D01*
X56554203Y-51157165D01*
X56694551Y-51367209D01*
X56904595Y-51507557D01*
X57152360Y-51556840D01*
X59352360Y-51556840D01*
X59600125Y-51507557D01*
X59694645Y-51444400D01*
X66655936Y-51444400D01*
X66868039Y-51486590D01*
X67469260Y-51367000D01*
X67768040Y-51367000D01*
X68015805Y-51317717D01*
X68225849Y-51177369D01*
X68366197Y-50967325D01*
X68415480Y-50719560D01*
X68415480Y-50420780D01*
X68535070Y-49819559D01*
X68415480Y-49218340D01*
X68415480Y-48919560D01*
X68366197Y-48671795D01*
X68361363Y-48664560D01*
X72815795Y-48664560D01*
X74004320Y-49853086D01*
X74004320Y-50094404D01*
X74204320Y-50577247D01*
X74204321Y-64792520D01*
X74026680Y-64970162D01*
X73543836Y-65170162D01*
X73027642Y-65686356D01*
X72748280Y-66360796D01*
X72748280Y-66602114D01*
X71251155Y-68099240D01*
X65289672Y-68099240D01*
X65303293Y-68030761D01*
X65276160Y-67894355D01*
X65276160Y-66643575D01*
X65298600Y-66530760D01*
X65298600Y-65010760D01*
X65249317Y-64762995D01*
X65108969Y-64552951D01*
X64898925Y-64412603D01*
X64718111Y-64376637D01*
X64801428Y-64293320D01*
X64874449Y-64244529D01*
X64880553Y-64235393D01*
X64889689Y-64229289D01*
X64938480Y-64156268D01*
X65073784Y-64020964D01*
X65147010Y-63844181D01*
X65195801Y-63771160D01*
X65212934Y-63685026D01*
X65286160Y-63508243D01*
X65286160Y-63316893D01*
X65303293Y-63230760D01*
X65286160Y-63144626D01*
X65286160Y-62953277D01*
X65276160Y-62929135D01*
X65276160Y-60992385D01*
X65286160Y-60968243D01*
X65286160Y-60413277D01*
X65212934Y-60236494D01*
X65195801Y-60150360D01*
X65147010Y-60077340D01*
X65073784Y-59900556D01*
X64938478Y-59765250D01*
X64889688Y-59692231D01*
X64816670Y-59643442D01*
X64681364Y-59508136D01*
X64504578Y-59434909D01*
X64431559Y-59386119D01*
X64345427Y-59368986D01*
X64168643Y-59295760D01*
X63977293Y-59295760D01*
X63891160Y-59278627D01*
X63805026Y-59295760D01*
X63613677Y-59295760D01*
X63436894Y-59368986D01*
X63350760Y-59386119D01*
X63277740Y-59434910D01*
X63100956Y-59508136D01*
X62965650Y-59643442D01*
X62892631Y-59692232D01*
X62843842Y-59765250D01*
X62708536Y-59900556D01*
X62635309Y-60077342D01*
X62586519Y-60150361D01*
X62569386Y-60236493D01*
X62496160Y-60413277D01*
X62496160Y-60968243D01*
X62506160Y-60992386D01*
X62506160Y-61861000D01*
X59425777Y-61861000D01*
X59524157Y-61713765D01*
X59573440Y-61466000D01*
X59573440Y-59946000D01*
X59551000Y-59833185D01*
X59551000Y-57261360D01*
X59661960Y-56993479D01*
X59661960Y-56708040D01*
X69463847Y-56708040D01*
X69575220Y-57267949D01*
X69892383Y-57742617D01*
X70367051Y-58059780D01*
X70785627Y-58143040D01*
X71068293Y-58143040D01*
X71486869Y-58059780D01*
X71961537Y-57742617D01*
X72278700Y-57267949D01*
X72390073Y-56708040D01*
X72278700Y-56148131D01*
X71961537Y-55673463D01*
X71486869Y-55356300D01*
X71068293Y-55273040D01*
X70785627Y-55273040D01*
X70367051Y-55356300D01*
X69892383Y-55673463D01*
X69575220Y-56148131D01*
X69463847Y-56708040D01*
X59661960Y-56708040D01*
X59661960Y-56422601D01*
X59443494Y-55895178D01*
X59039822Y-55491506D01*
X58512399Y-55273040D01*
X57941521Y-55273040D01*
X57414098Y-55491506D01*
X57356364Y-55549240D01*
X54310840Y-55549240D01*
X54310840Y-53073863D01*
X54427580Y-52899149D01*
X54538953Y-52339240D01*
X54427580Y-51779331D01*
X54110417Y-51304663D01*
X53635749Y-50987500D01*
X53217173Y-50904240D01*
X52934507Y-50904240D01*
X52515931Y-50987500D01*
X52041263Y-51304663D01*
X51724100Y-51779331D01*
X51612727Y-52339240D01*
X51724100Y-52899149D01*
X51840840Y-53073863D01*
X51840841Y-55949203D01*
X51818666Y-55971378D01*
X51600200Y-56498801D01*
X51600200Y-57069679D01*
X51818666Y-57597102D01*
X52222338Y-58000774D01*
X52749761Y-58219240D01*
X53320639Y-58219240D01*
X53803481Y-58019240D01*
X56781001Y-58019240D01*
X56781000Y-59833184D01*
X56758560Y-59946000D01*
X56758560Y-61466000D01*
X56807843Y-61713765D01*
X56948191Y-61923809D01*
X57158235Y-62064157D01*
X57339049Y-62100123D01*
X57240492Y-62198680D01*
X57167471Y-62247471D01*
X57118680Y-62320492D01*
X56983376Y-62455796D01*
X56910150Y-62632579D01*
X56861359Y-62705600D01*
X56844226Y-62791734D01*
X56771000Y-62968517D01*
X56771000Y-63159866D01*
X56753867Y-63246000D01*
X56771000Y-63332134D01*
X56771000Y-63523483D01*
X56781001Y-63547627D01*
X56781000Y-65484374D01*
X56771000Y-65508517D01*
X56771000Y-66063483D01*
X56844226Y-66240267D01*
X56861359Y-66326399D01*
X56910149Y-66399418D01*
X56983376Y-66576204D01*
X57118682Y-66711510D01*
X57167471Y-66784528D01*
X57240490Y-66833318D01*
X57375796Y-66968624D01*
X57552580Y-67041850D01*
X57625600Y-67090641D01*
X57711734Y-67107774D01*
X57888517Y-67181000D01*
X58079866Y-67181000D01*
X58166000Y-67198133D01*
X58252133Y-67181000D01*
X58443483Y-67181000D01*
X58620267Y-67107774D01*
X58706399Y-67090641D01*
X58779418Y-67041851D01*
X58956204Y-66968624D01*
X59091510Y-66833318D01*
X59164528Y-66784529D01*
X59213318Y-66711510D01*
X59348624Y-66576204D01*
X59421850Y-66399420D01*
X59470641Y-66326400D01*
X59487774Y-66240266D01*
X59561000Y-66063483D01*
X59561000Y-65508517D01*
X59551000Y-65484375D01*
X59551000Y-64631000D01*
X62621200Y-64631000D01*
X62533003Y-64762995D01*
X62483720Y-65010760D01*
X62483720Y-66530760D01*
X62506160Y-66643577D01*
X62506161Y-67457074D01*
X61863995Y-68099240D01*
X54978186Y-68099240D01*
X54754688Y-67764752D01*
X53965781Y-67237621D01*
X53035200Y-67052516D01*
X52104619Y-67237621D01*
X51514847Y-67631693D01*
X50643920Y-68502621D01*
X50643920Y-50775025D01*
X55235266Y-46183680D01*
X61669344Y-46183680D01*
X61738159Y-46529639D01*
G36*
X102302881Y-51663247D02*
X102302880Y-62937960D01*
X98462933Y-62937960D01*
X98058333Y-62857480D01*
X97775667Y-62857480D01*
X97357091Y-62940740D01*
X96882423Y-63257903D01*
X96565260Y-63732571D01*
X96453887Y-64292480D01*
X96565260Y-64852389D01*
X96882423Y-65327057D01*
X97062649Y-65447480D01*
X94104777Y-65447480D01*
X93968370Y-65420347D01*
X93438221Y-65525800D01*
X93427970Y-65527839D01*
X92969841Y-65833951D01*
X92892570Y-65949595D01*
X91698143Y-67144022D01*
X91760113Y-66832480D01*
X91648740Y-66272571D01*
X91331577Y-65797903D01*
X91210894Y-65717265D01*
X91344765Y-65690637D01*
X91554809Y-65550289D01*
X91695157Y-65340245D01*
X91744440Y-65092480D01*
X91744440Y-63492480D01*
X91695157Y-63244715D01*
X91554809Y-63034671D01*
X91344765Y-62894323D01*
X91097000Y-62845040D01*
X90762526Y-62845040D01*
X90050965Y-62133480D01*
X90616686Y-61567760D01*
X92400873Y-61567760D01*
X92537280Y-61594893D01*
X92673687Y-61567760D01*
X93077680Y-61487401D01*
X93535809Y-61181289D01*
X93613079Y-61065646D01*
X95269290Y-59409436D01*
X95384928Y-59332169D01*
X95462195Y-59216531D01*
X95462197Y-59216529D01*
X95691041Y-58874040D01*
X95798533Y-58333640D01*
X95771400Y-58197233D01*
X95771400Y-53170520D01*
X97118529Y-53170520D01*
X96938303Y-53290943D01*
X96621140Y-53765611D01*
X96509767Y-54325520D01*
X96621140Y-54885429D01*
X96938303Y-55360097D01*
X97290638Y-55595520D01*
X96938303Y-55830943D01*
X96621140Y-56305611D01*
X96509767Y-56865520D01*
X96621140Y-57425429D01*
X96938303Y-57900097D01*
X97412971Y-58217260D01*
X97831547Y-58300520D01*
X98114213Y-58300520D01*
X98532789Y-58217260D01*
X99007457Y-57900097D01*
X99324620Y-57425429D01*
X99435993Y-56865520D01*
X99324620Y-56305611D01*
X99007457Y-55830943D01*
X98655122Y-55595520D01*
X99007457Y-55360097D01*
X99324620Y-54885429D01*
X99435993Y-54325520D01*
X99324620Y-53765611D01*
X99007457Y-53290943D01*
X98655122Y-53055520D01*
X99007457Y-52820097D01*
X99324620Y-52345429D01*
X99435993Y-51785520D01*
X99324620Y-51225611D01*
X99007457Y-50750943D01*
X98827231Y-50630520D01*
X101270155Y-50630520D01*
X102302881Y-51663247D01*
X102302881Y-51663247D01*
G37*
X102302881Y-51663247D02*
X102302880Y-62937960D01*
X98462933Y-62937960D01*
X98058333Y-62857480D01*
X97775667Y-62857480D01*
X97357091Y-62940740D01*
X96882423Y-63257903D01*
X96565260Y-63732571D01*
X96453887Y-64292480D01*
X96565260Y-64852389D01*
X96882423Y-65327057D01*
X97062649Y-65447480D01*
X94104777Y-65447480D01*
X93968370Y-65420347D01*
X93438221Y-65525800D01*
X93427970Y-65527839D01*
X92969841Y-65833951D01*
X92892570Y-65949595D01*
X91698143Y-67144022D01*
X91760113Y-66832480D01*
X91648740Y-66272571D01*
X91331577Y-65797903D01*
X91210894Y-65717265D01*
X91344765Y-65690637D01*
X91554809Y-65550289D01*
X91695157Y-65340245D01*
X91744440Y-65092480D01*
X91744440Y-63492480D01*
X91695157Y-63244715D01*
X91554809Y-63034671D01*
X91344765Y-62894323D01*
X91097000Y-62845040D01*
X90762526Y-62845040D01*
X90050965Y-62133480D01*
X90616686Y-61567760D01*
X92400873Y-61567760D01*
X92537280Y-61594893D01*
X92673687Y-61567760D01*
X93077680Y-61487401D01*
X93535809Y-61181289D01*
X93613079Y-61065646D01*
X95269290Y-59409436D01*
X95384928Y-59332169D01*
X95462195Y-59216531D01*
X95462197Y-59216529D01*
X95691041Y-58874040D01*
X95798533Y-58333640D01*
X95771400Y-58197233D01*
X95771400Y-53170520D01*
X97118529Y-53170520D01*
X96938303Y-53290943D01*
X96621140Y-53765611D01*
X96509767Y-54325520D01*
X96621140Y-54885429D01*
X96938303Y-55360097D01*
X97290638Y-55595520D01*
X96938303Y-55830943D01*
X96621140Y-56305611D01*
X96509767Y-56865520D01*
X96621140Y-57425429D01*
X96938303Y-57900097D01*
X97412971Y-58217260D01*
X97831547Y-58300520D01*
X98114213Y-58300520D01*
X98532789Y-58217260D01*
X99007457Y-57900097D01*
X99324620Y-57425429D01*
X99435993Y-56865520D01*
X99324620Y-56305611D01*
X99007457Y-55830943D01*
X98655122Y-55595520D01*
X99007457Y-55360097D01*
X99324620Y-54885429D01*
X99435993Y-54325520D01*
X99324620Y-53765611D01*
X99007457Y-53290943D01*
X98655122Y-53055520D01*
X99007457Y-52820097D01*
X99324620Y-52345429D01*
X99435993Y-51785520D01*
X99324620Y-51225611D01*
X99007457Y-50750943D01*
X98827231Y-50630520D01*
X101270155Y-50630520D01*
X102302881Y-51663247D01*
G36*
X87422075Y-60845000D02*
X87378492Y-60845000D01*
X87509837Y-60757238D01*
X87422075Y-60845000D01*
X87422075Y-60845000D01*
G37*
X87422075Y-60845000D02*
X87378492Y-60845000D01*
X87509837Y-60757238D01*
X87422075Y-60845000D01*
G36*
X89208125Y-59074881D02*
X89232487Y-59050519D01*
X89244585Y-59050519D01*
X89208125Y-59074881D01*
X89208125Y-59074881D01*
G37*
X89208125Y-59074881D02*
X89232487Y-59050519D01*
X89244585Y-59050519D01*
X89208125Y-59074881D01*
G36*
X96715857Y-49947183D02*
X96938303Y-50280097D01*
X97118529Y-50400520D01*
X95061287Y-50400520D01*
X94924880Y-50373387D01*
X94788473Y-50400520D01*
X94384480Y-50480879D01*
X93926351Y-50786991D01*
X93849080Y-50902635D01*
X93503513Y-51248202D01*
X93387872Y-51325471D01*
X93310603Y-51441112D01*
X93081759Y-51783601D01*
X92974267Y-52324000D01*
X93001401Y-52460412D01*
X93001400Y-57759954D01*
X91963595Y-58797760D01*
X90351296Y-58797760D01*
X90551410Y-58664048D01*
X90628681Y-58548404D01*
X91054538Y-58122546D01*
X91387457Y-57900097D01*
X91704620Y-57425429D01*
X91815993Y-56865520D01*
X91704620Y-56305611D01*
X91387457Y-55830943D01*
X91035122Y-55595520D01*
X91387457Y-55360097D01*
X91704620Y-54885429D01*
X91815993Y-54325520D01*
X91704620Y-53765611D01*
X91387457Y-53290943D01*
X91035122Y-53055520D01*
X91387457Y-52820097D01*
X91704620Y-52345429D01*
X91815993Y-51785520D01*
X91704620Y-51225611D01*
X91387457Y-50750943D01*
X91266774Y-50670305D01*
X91400645Y-50643677D01*
X91610689Y-50503329D01*
X91751037Y-50293285D01*
X91800320Y-50045520D01*
X91800320Y-48445520D01*
X91751037Y-48197755D01*
X91610689Y-47987711D01*
X91400645Y-47847363D01*
X91152880Y-47798080D01*
X89552880Y-47798080D01*
X89305115Y-47847363D01*
X89095071Y-47987711D01*
X89079830Y-48010520D01*
X88474510Y-48010520D01*
X88352879Y-47986326D01*
X88231248Y-48010520D01*
X88231244Y-48010520D01*
X87871007Y-48082176D01*
X87698031Y-48197755D01*
X87565612Y-48286234D01*
X87565611Y-48286235D01*
X87462495Y-48355135D01*
X87393595Y-48458251D01*
X84104614Y-51747233D01*
X84001495Y-51816135D01*
X83728536Y-52224648D01*
X83656880Y-52584885D01*
X83656880Y-52584888D01*
X83632686Y-52706520D01*
X83656880Y-52828152D01*
X83656881Y-55990557D01*
X83456880Y-56473401D01*
X83456880Y-57044279D01*
X83675346Y-57571702D01*
X84079018Y-57975374D01*
X84606441Y-58193840D01*
X85177319Y-58193840D01*
X85704742Y-57975374D01*
X86108414Y-57571702D01*
X86326880Y-57044279D01*
X86326880Y-56473401D01*
X86126880Y-55990559D01*
X86126880Y-53218073D01*
X88864434Y-50480520D01*
X89079830Y-50480520D01*
X89095071Y-50503329D01*
X89305115Y-50643677D01*
X89438986Y-50670305D01*
X89318303Y-50750943D01*
X89001140Y-51225611D01*
X88889767Y-51785520D01*
X89001140Y-52345429D01*
X89318303Y-52820097D01*
X89670638Y-53055520D01*
X89318303Y-53290943D01*
X89001140Y-53765611D01*
X88889767Y-54325520D01*
X89001140Y-54885429D01*
X89318303Y-55360097D01*
X89670638Y-55595520D01*
X89318303Y-55830943D01*
X89095854Y-56163862D01*
X88979197Y-56280519D01*
X88795208Y-56280519D01*
X88658801Y-56253386D01*
X88522394Y-56280519D01*
X88118401Y-56360878D01*
X87660272Y-56666990D01*
X87583003Y-56782631D01*
X86101275Y-58264360D01*
X81833366Y-58264360D01*
X77474320Y-53905315D01*
X77474320Y-50577247D01*
X77674320Y-50094404D01*
X77674320Y-49364396D01*
X77394958Y-48689956D01*
X76878764Y-48173762D01*
X76204324Y-47894400D01*
X75963006Y-47894400D01*
X74645445Y-46576840D01*
X77039320Y-46576840D01*
X77287085Y-46527557D01*
X77497129Y-46387209D01*
X77637477Y-46177165D01*
X77649962Y-46114400D01*
X78402913Y-46114400D01*
X78539320Y-46141533D01*
X78675727Y-46114400D01*
X82953543Y-46114400D01*
X83089950Y-46141533D01*
X83226357Y-46114400D01*
X83630350Y-46034041D01*
X84088479Y-45727929D01*
X84165750Y-45612285D01*
X84334195Y-45443840D01*
X84499180Y-45443840D01*
X84750547Y-45493840D01*
X85033213Y-45493840D01*
X85284580Y-45443840D01*
X88468953Y-45443840D01*
X88605360Y-45470973D01*
X88741767Y-45443840D01*
X89145760Y-45363481D01*
X89603889Y-45057369D01*
X89681160Y-44941725D01*
X90695780Y-43927105D01*
X96715857Y-49947183D01*
X96715857Y-49947183D01*
G37*
X96715857Y-49947183D02*
X96938303Y-50280097D01*
X97118529Y-50400520D01*
X95061287Y-50400520D01*
X94924880Y-50373387D01*
X94788473Y-50400520D01*
X94384480Y-50480879D01*
X93926351Y-50786991D01*
X93849080Y-50902635D01*
X93503513Y-51248202D01*
X93387872Y-51325471D01*
X93310603Y-51441112D01*
X93081759Y-51783601D01*
X92974267Y-52324000D01*
X93001401Y-52460412D01*
X93001400Y-57759954D01*
X91963595Y-58797760D01*
X90351296Y-58797760D01*
X90551410Y-58664048D01*
X90628681Y-58548404D01*
X91054538Y-58122546D01*
X91387457Y-57900097D01*
X91704620Y-57425429D01*
X91815993Y-56865520D01*
X91704620Y-56305611D01*
X91387457Y-55830943D01*
X91035122Y-55595520D01*
X91387457Y-55360097D01*
X91704620Y-54885429D01*
X91815993Y-54325520D01*
X91704620Y-53765611D01*
X91387457Y-53290943D01*
X91035122Y-53055520D01*
X91387457Y-52820097D01*
X91704620Y-52345429D01*
X91815993Y-51785520D01*
X91704620Y-51225611D01*
X91387457Y-50750943D01*
X91266774Y-50670305D01*
X91400645Y-50643677D01*
X91610689Y-50503329D01*
X91751037Y-50293285D01*
X91800320Y-50045520D01*
X91800320Y-48445520D01*
X91751037Y-48197755D01*
X91610689Y-47987711D01*
X91400645Y-47847363D01*
X91152880Y-47798080D01*
X89552880Y-47798080D01*
X89305115Y-47847363D01*
X89095071Y-47987711D01*
X89079830Y-48010520D01*
X88474510Y-48010520D01*
X88352879Y-47986326D01*
X88231248Y-48010520D01*
X88231244Y-48010520D01*
X87871007Y-48082176D01*
X87698031Y-48197755D01*
X87565612Y-48286234D01*
X87565611Y-48286235D01*
X87462495Y-48355135D01*
X87393595Y-48458251D01*
X84104614Y-51747233D01*
X84001495Y-51816135D01*
X83728536Y-52224648D01*
X83656880Y-52584885D01*
X83656880Y-52584888D01*
X83632686Y-52706520D01*
X83656880Y-52828152D01*
X83656881Y-55990557D01*
X83456880Y-56473401D01*
X83456880Y-57044279D01*
X83675346Y-57571702D01*
X84079018Y-57975374D01*
X84606441Y-58193840D01*
X85177319Y-58193840D01*
X85704742Y-57975374D01*
X86108414Y-57571702D01*
X86326880Y-57044279D01*
X86326880Y-56473401D01*
X86126880Y-55990559D01*
X86126880Y-53218073D01*
X88864434Y-50480520D01*
X89079830Y-50480520D01*
X89095071Y-50503329D01*
X89305115Y-50643677D01*
X89438986Y-50670305D01*
X89318303Y-50750943D01*
X89001140Y-51225611D01*
X88889767Y-51785520D01*
X89001140Y-52345429D01*
X89318303Y-52820097D01*
X89670638Y-53055520D01*
X89318303Y-53290943D01*
X89001140Y-53765611D01*
X88889767Y-54325520D01*
X89001140Y-54885429D01*
X89318303Y-55360097D01*
X89670638Y-55595520D01*
X89318303Y-55830943D01*
X89095854Y-56163862D01*
X88979197Y-56280519D01*
X88795208Y-56280519D01*
X88658801Y-56253386D01*
X88522394Y-56280519D01*
X88118401Y-56360878D01*
X87660272Y-56666990D01*
X87583003Y-56782631D01*
X86101275Y-58264360D01*
X81833366Y-58264360D01*
X77474320Y-53905315D01*
X77474320Y-50577247D01*
X77674320Y-50094404D01*
X77674320Y-49364396D01*
X77394958Y-48689956D01*
X76878764Y-48173762D01*
X76204324Y-47894400D01*
X75963006Y-47894400D01*
X74645445Y-46576840D01*
X77039320Y-46576840D01*
X77287085Y-46527557D01*
X77497129Y-46387209D01*
X77637477Y-46177165D01*
X77649962Y-46114400D01*
X78402913Y-46114400D01*
X78539320Y-46141533D01*
X78675727Y-46114400D01*
X82953543Y-46114400D01*
X83089950Y-46141533D01*
X83226357Y-46114400D01*
X83630350Y-46034041D01*
X84088479Y-45727929D01*
X84165750Y-45612285D01*
X84334195Y-45443840D01*
X84499180Y-45443840D01*
X84750547Y-45493840D01*
X85033213Y-45493840D01*
X85284580Y-45443840D01*
X88468953Y-45443840D01*
X88605360Y-45470973D01*
X88741767Y-45443840D01*
X89145760Y-45363481D01*
X89603889Y-45057369D01*
X89681160Y-44941725D01*
X90695780Y-43927105D01*
X96715857Y-49947183D01*
G36*
X65422102Y-45338487D02*
X65761367Y-45846233D01*
X65833693Y-45894560D01*
X64906806Y-45894560D01*
X64589309Y-45577064D01*
X64701164Y-45409661D01*
X65314299Y-44796526D01*
X65422102Y-45338487D01*
X65422102Y-45338487D01*
G37*
X65422102Y-45338487D02*
X65761367Y-45846233D01*
X65833693Y-45894560D01*
X64906806Y-45894560D01*
X64589309Y-45577064D01*
X64701164Y-45409661D01*
X65314299Y-44796526D01*
X65422102Y-45338487D01*
G36*
X87171477Y-35007706D02*
X86798322Y-35257040D01*
X84967325Y-35257040D01*
X84830919Y-35229907D01*
X84694513Y-35257040D01*
X84290520Y-35337399D01*
X83832391Y-35643511D01*
X83755122Y-35759152D01*
X78837552Y-40676723D01*
X78721911Y-40753992D01*
X78415800Y-41212120D01*
X78415799Y-41212121D01*
X78308307Y-41752520D01*
X78335440Y-41888928D01*
X78335441Y-42974594D01*
X77965635Y-43344400D01*
X77649962Y-43344400D01*
X77637477Y-43281635D01*
X77497129Y-43071591D01*
X77287085Y-42931243D01*
X77039320Y-42881960D01*
X74639320Y-42881960D01*
X74391555Y-42931243D01*
X74181511Y-43071591D01*
X74041163Y-43281635D01*
X74026657Y-43354560D01*
X67558167Y-43354560D01*
X67466967Y-43293622D01*
X67019222Y-43204560D01*
X66906266Y-43204560D01*
X68295946Y-41814880D01*
X73298605Y-41814880D01*
X73508880Y-41856706D01*
X73719155Y-41814880D01*
X73719159Y-41814880D01*
X74341916Y-41691006D01*
X75048129Y-41219129D01*
X75167244Y-41040861D01*
X80061963Y-36146143D01*
X80061965Y-36146140D01*
X81237945Y-34970160D01*
X87360234Y-34970160D01*
X87171477Y-35007706D01*
X87171477Y-35007706D01*
G37*
X87171477Y-35007706D02*
X86798322Y-35257040D01*
X84967325Y-35257040D01*
X84830919Y-35229907D01*
X84694513Y-35257040D01*
X84290520Y-35337399D01*
X83832391Y-35643511D01*
X83755122Y-35759152D01*
X78837552Y-40676723D01*
X78721911Y-40753992D01*
X78415800Y-41212120D01*
X78415799Y-41212121D01*
X78308307Y-41752520D01*
X78335440Y-41888928D01*
X78335441Y-42974594D01*
X77965635Y-43344400D01*
X77649962Y-43344400D01*
X77637477Y-43281635D01*
X77497129Y-43071591D01*
X77287085Y-42931243D01*
X77039320Y-42881960D01*
X74639320Y-42881960D01*
X74391555Y-42931243D01*
X74181511Y-43071591D01*
X74041163Y-43281635D01*
X74026657Y-43354560D01*
X67558167Y-43354560D01*
X67466967Y-43293622D01*
X67019222Y-43204560D01*
X66906266Y-43204560D01*
X68295946Y-41814880D01*
X73298605Y-41814880D01*
X73508880Y-41856706D01*
X73719155Y-41814880D01*
X73719159Y-41814880D01*
X74341916Y-41691006D01*
X75048129Y-41219129D01*
X75167244Y-41040861D01*
X80061963Y-36146143D01*
X80061965Y-36146140D01*
X81237945Y-34970160D01*
X87360234Y-34970160D01*
X87171477Y-35007706D01*
G36*
X122484640Y-30822384D02*
X122350650Y-31496000D01*
X122485306Y-32172963D01*
X122868775Y-32746865D01*
X123442677Y-33130334D01*
X123948760Y-33231000D01*
X124290520Y-33231000D01*
X124796603Y-33130334D01*
X125370505Y-32746865D01*
X125753974Y-32172963D01*
X125888630Y-31496000D01*
X125754640Y-30822385D01*
X125754640Y-30329557D01*
X129227640Y-33802558D01*
X129227640Y-34842503D01*
X129180916Y-35077400D01*
X129366020Y-36007980D01*
X129880718Y-36778281D01*
X129893151Y-36796889D01*
X130227641Y-37020387D01*
X130227640Y-38430554D01*
X125938635Y-42719560D01*
X125239594Y-42719560D01*
X125473769Y-42563089D01*
X125551039Y-42447446D01*
X126490970Y-41507516D01*
X126606608Y-41430249D01*
X126683875Y-41314611D01*
X126683877Y-41314609D01*
X126912721Y-40972120D01*
X127020213Y-40431720D01*
X126993080Y-40295313D01*
X126993080Y-36585405D01*
X127020213Y-36448999D01*
X126990030Y-36297259D01*
X126912721Y-35908600D01*
X126606609Y-35450471D01*
X126490968Y-35373202D01*
X125662795Y-34545030D01*
X125585528Y-34429392D01*
X125469889Y-34352124D01*
X125469888Y-34352123D01*
X125162628Y-34146818D01*
X125127400Y-34123279D01*
X124587000Y-34015787D01*
X124220743Y-34088640D01*
X122265190Y-34088640D01*
X122144479Y-34038640D01*
X121573601Y-34038640D01*
X121046178Y-34257106D01*
X120642506Y-34660778D01*
X120588646Y-34790808D01*
X120353617Y-34439063D01*
X119878949Y-34121900D01*
X119460373Y-34038640D01*
X119177707Y-34038640D01*
X118759131Y-34121900D01*
X118284463Y-34439063D01*
X117967300Y-34913731D01*
X117855927Y-35473640D01*
X117967300Y-36033549D01*
X118284463Y-36508217D01*
X118759131Y-36825380D01*
X119177707Y-36908640D01*
X119460373Y-36908640D01*
X119878949Y-36825380D01*
X120353617Y-36508217D01*
X120588646Y-36156472D01*
X120642506Y-36286502D01*
X121046178Y-36690174D01*
X121573601Y-36908640D01*
X122144479Y-36908640D01*
X122265190Y-36858640D01*
X124059035Y-36858640D01*
X124223081Y-37022686D01*
X124223080Y-39858034D01*
X123901555Y-40179560D01*
X123118817Y-40179560D01*
X123217197Y-40032325D01*
X123266480Y-39784560D01*
X123266480Y-38264560D01*
X123217197Y-38016795D01*
X123076849Y-37806751D01*
X122866805Y-37666403D01*
X122619040Y-37617120D01*
X121099040Y-37617120D01*
X120851275Y-37666403D01*
X120666959Y-37789560D01*
X118278200Y-37789560D01*
X118278200Y-37186192D01*
X118302394Y-37064560D01*
X118278200Y-36942928D01*
X118278200Y-36942924D01*
X118206544Y-36582687D01*
X117933585Y-36174175D01*
X117830466Y-36105273D01*
X115809759Y-34084566D01*
X117013326Y-32881000D01*
X117366363Y-32881000D01*
X117481831Y-33053809D01*
X117691875Y-33194157D01*
X117939640Y-33243440D01*
X120139640Y-33243440D01*
X120387405Y-33194157D01*
X120597449Y-33053809D01*
X120737797Y-32843765D01*
X120787080Y-32596000D01*
X120787080Y-30396000D01*
X120737797Y-30148235D01*
X120597449Y-29938191D01*
X120387405Y-29797843D01*
X120139640Y-29748560D01*
X117939640Y-29748560D01*
X117691875Y-29797843D01*
X117481831Y-29938191D01*
X117366363Y-30111000D01*
X117163058Y-30111000D01*
X117797418Y-29476640D01*
X122484641Y-29476640D01*
X122484640Y-30822384D01*
X122484640Y-30822384D01*
G37*
X122484640Y-30822384D02*
X122350650Y-31496000D01*
X122485306Y-32172963D01*
X122868775Y-32746865D01*
X123442677Y-33130334D01*
X123948760Y-33231000D01*
X124290520Y-33231000D01*
X124796603Y-33130334D01*
X125370505Y-32746865D01*
X125753974Y-32172963D01*
X125888630Y-31496000D01*
X125754640Y-30822385D01*
X125754640Y-30329557D01*
X129227640Y-33802558D01*
X129227640Y-34842503D01*
X129180916Y-35077400D01*
X129366020Y-36007980D01*
X129880718Y-36778281D01*
X129893151Y-36796889D01*
X130227641Y-37020387D01*
X130227640Y-38430554D01*
X125938635Y-42719560D01*
X125239594Y-42719560D01*
X125473769Y-42563089D01*
X125551039Y-42447446D01*
X126490970Y-41507516D01*
X126606608Y-41430249D01*
X126683875Y-41314611D01*
X126683877Y-41314609D01*
X126912721Y-40972120D01*
X127020213Y-40431720D01*
X126993080Y-40295313D01*
X126993080Y-36585405D01*
X127020213Y-36448999D01*
X126990030Y-36297259D01*
X126912721Y-35908600D01*
X126606609Y-35450471D01*
X126490968Y-35373202D01*
X125662795Y-34545030D01*
X125585528Y-34429392D01*
X125469889Y-34352124D01*
X125469888Y-34352123D01*
X125162628Y-34146818D01*
X125127400Y-34123279D01*
X124587000Y-34015787D01*
X124220743Y-34088640D01*
X122265190Y-34088640D01*
X122144479Y-34038640D01*
X121573601Y-34038640D01*
X121046178Y-34257106D01*
X120642506Y-34660778D01*
X120588646Y-34790808D01*
X120353617Y-34439063D01*
X119878949Y-34121900D01*
X119460373Y-34038640D01*
X119177707Y-34038640D01*
X118759131Y-34121900D01*
X118284463Y-34439063D01*
X117967300Y-34913731D01*
X117855927Y-35473640D01*
X117967300Y-36033549D01*
X118284463Y-36508217D01*
X118759131Y-36825380D01*
X119177707Y-36908640D01*
X119460373Y-36908640D01*
X119878949Y-36825380D01*
X120353617Y-36508217D01*
X120588646Y-36156472D01*
X120642506Y-36286502D01*
X121046178Y-36690174D01*
X121573601Y-36908640D01*
X122144479Y-36908640D01*
X122265190Y-36858640D01*
X124059035Y-36858640D01*
X124223081Y-37022686D01*
X124223080Y-39858034D01*
X123901555Y-40179560D01*
X123118817Y-40179560D01*
X123217197Y-40032325D01*
X123266480Y-39784560D01*
X123266480Y-38264560D01*
X123217197Y-38016795D01*
X123076849Y-37806751D01*
X122866805Y-37666403D01*
X122619040Y-37617120D01*
X121099040Y-37617120D01*
X120851275Y-37666403D01*
X120666959Y-37789560D01*
X118278200Y-37789560D01*
X118278200Y-37186192D01*
X118302394Y-37064560D01*
X118278200Y-36942928D01*
X118278200Y-36942924D01*
X118206544Y-36582687D01*
X117933585Y-36174175D01*
X117830466Y-36105273D01*
X115809759Y-34084566D01*
X117013326Y-32881000D01*
X117366363Y-32881000D01*
X117481831Y-33053809D01*
X117691875Y-33194157D01*
X117939640Y-33243440D01*
X120139640Y-33243440D01*
X120387405Y-33194157D01*
X120597449Y-33053809D01*
X120737797Y-32843765D01*
X120787080Y-32596000D01*
X120787080Y-30396000D01*
X120737797Y-30148235D01*
X120597449Y-29938191D01*
X120387405Y-29797843D01*
X120139640Y-29748560D01*
X117939640Y-29748560D01*
X117691875Y-29797843D01*
X117481831Y-29938191D01*
X117366363Y-30111000D01*
X117163058Y-30111000D01*
X117797418Y-29476640D01*
X122484641Y-29476640D01*
X122484640Y-30822384D01*
G36*
X115808201Y-37576114D02*
X115808201Y-37832478D01*
X115685043Y-38016795D01*
X115635760Y-38264560D01*
X115635760Y-39784560D01*
X115685043Y-40032325D01*
X115825391Y-40242369D01*
X116035435Y-40382717D01*
X116216249Y-40418683D01*
X116117692Y-40517240D01*
X116044671Y-40566031D01*
X115995880Y-40639052D01*
X115860576Y-40774356D01*
X115787350Y-40951139D01*
X115738559Y-41024160D01*
X115721426Y-41110294D01*
X115648200Y-41287077D01*
X115648200Y-41478426D01*
X115631067Y-41564560D01*
X115648200Y-41650694D01*
X115648200Y-41842043D01*
X115721426Y-42018826D01*
X115738559Y-42104960D01*
X115787350Y-42177981D01*
X115860576Y-42354764D01*
X115995880Y-42490068D01*
X116044671Y-42563089D01*
X116117692Y-42611880D01*
X116225372Y-42719560D01*
X115605206Y-42719560D01*
X113922240Y-41036595D01*
X113922240Y-38373565D01*
X113949373Y-38237159D01*
X113914342Y-38061048D01*
X113841881Y-37696760D01*
X113535769Y-37238631D01*
X113420125Y-37161360D01*
X112017920Y-35759155D01*
X111992238Y-35720720D01*
X113952807Y-35720720D01*
X115808201Y-37576114D01*
X115808201Y-37576114D01*
G37*
X115808201Y-37576114D02*
X115808201Y-37832478D01*
X115685043Y-38016795D01*
X115635760Y-38264560D01*
X115635760Y-39784560D01*
X115685043Y-40032325D01*
X115825391Y-40242369D01*
X116035435Y-40382717D01*
X116216249Y-40418683D01*
X116117692Y-40517240D01*
X116044671Y-40566031D01*
X115995880Y-40639052D01*
X115860576Y-40774356D01*
X115787350Y-40951139D01*
X115738559Y-41024160D01*
X115721426Y-41110294D01*
X115648200Y-41287077D01*
X115648200Y-41478426D01*
X115631067Y-41564560D01*
X115648200Y-41650694D01*
X115648200Y-41842043D01*
X115721426Y-42018826D01*
X115738559Y-42104960D01*
X115787350Y-42177981D01*
X115860576Y-42354764D01*
X115995880Y-42490068D01*
X116044671Y-42563089D01*
X116117692Y-42611880D01*
X116225372Y-42719560D01*
X115605206Y-42719560D01*
X113922240Y-41036595D01*
X113922240Y-38373565D01*
X113949373Y-38237159D01*
X113914342Y-38061048D01*
X113841881Y-37696760D01*
X113535769Y-37238631D01*
X113420125Y-37161360D01*
X112017920Y-35759155D01*
X111992238Y-35720720D01*
X113952807Y-35720720D01*
X115808201Y-37576114D01*
G36*
X108773642Y-40441596D02*
X108508809Y-40264640D01*
X108596687Y-40264640D01*
X108773642Y-40441596D01*
X108773642Y-40441596D01*
G37*
X108773642Y-40441596D02*
X108508809Y-40264640D01*
X108596687Y-40264640D01*
X108773642Y-40441596D01*
G36*
X111152241Y-38810846D02*
X111152241Y-39330938D01*
X111075585Y-39216215D01*
X110972469Y-39147315D01*
X110067526Y-38242373D01*
X109998625Y-38139255D01*
X109830683Y-38027040D01*
X110368435Y-38027040D01*
X111152241Y-38810846D01*
X111152241Y-38810846D01*
G37*
X111152241Y-38810846D02*
X111152241Y-39330938D01*
X111075585Y-39216215D01*
X110972469Y-39147315D01*
X110067526Y-38242373D01*
X109998625Y-38139255D01*
X109830683Y-38027040D01*
X110368435Y-38027040D01*
X111152241Y-38810846D01*
G36*
X113128341Y-30946810D02*
X113586659Y-31253048D01*
X114127280Y-31360584D01*
X114667902Y-31253048D01*
X114836680Y-31140274D01*
X113431472Y-32545483D01*
X113315832Y-32622751D01*
X113096689Y-32950720D01*
X111758245Y-32950720D01*
X110432280Y-31624755D01*
X110432280Y-30713249D01*
X110588341Y-30946810D01*
X111046659Y-31253048D01*
X111587280Y-31360584D01*
X112127902Y-31253048D01*
X112586220Y-30946810D01*
X112857280Y-30541140D01*
X113128341Y-30946810D01*
X113128341Y-30946810D01*
G37*
X113128341Y-30946810D02*
X113586659Y-31253048D01*
X114127280Y-31360584D01*
X114667902Y-31253048D01*
X114836680Y-31140274D01*
X113431472Y-32545483D01*
X113315832Y-32622751D01*
X113096689Y-32950720D01*
X111758245Y-32950720D01*
X110432280Y-31624755D01*
X110432280Y-30713249D01*
X110588341Y-30946810D01*
X111046659Y-31253048D01*
X111587280Y-31360584D01*
X112127902Y-31253048D01*
X112586220Y-30946810D01*
X112857280Y-30541140D01*
X113128341Y-30946810D01*
M02*
