%TF.GenerationSoftware,KiCad,Pcbnew,(5.0.0)*%
%TF.CreationDate,2018-10-31T06:44:45+09:00*%
%TF.ProjectId,ATTiny85-mppt,415454696E7938352D6D7070742E6B69,rev?*%
%TF.SameCoordinates,Original*%
%TF.FileFunction,Copper,L1,Top,Signal*%
%TF.FilePolarity,Positive*%
%FSLAX46Y46*%
G04 Gerber Fmt 4.6, Leading zero omitted, Abs format (unit mm)*
G04 Created by KiCad (PCBNEW (5.0.0)) date 10/31/18 06:44:45*
%MOMM*%
%LPD*%
G01*
G04 APERTURE LIST*
%ADD10O,2.200000X2.200000*%
%ADD11R,2.200000X2.200000*%
%ADD12R,2.400000X2.400000*%
%ADD13C,2.400000*%
%ADD14C,2.000000*%
%ADD15O,3.200000X3.200000*%
%ADD16R,3.200000X3.200000*%
%ADD17C,1.800000*%
%ADD18R,1.800000X1.800000*%
%ADD19C,4.064000*%
%ADD20C,3.600000*%
%ADD21O,1.501140X2.499360*%
%ADD22R,1.520000X1.520000*%
%ADD23C,1.520000*%
%ADD24C,1.600000*%
%ADD25O,1.600000X1.600000*%
%ADD26O,1.800000X1.800000*%
%ADD27R,1.600000X1.600000*%
%ADD28C,3.000000*%
%ADD29C,1.000000*%
%ADD30C,1.500000*%
%ADD31C,0.254000*%
G04 APERTURE END LIST*
D10*
X102168960Y-35077400D03*
D11*
X112328960Y-35077400D03*
D12*
X96611440Y-98790760D03*
D13*
X96611440Y-103790760D03*
X121575840Y-50393600D03*
D12*
X116575840Y-50393600D03*
X79603600Y-47218600D03*
D13*
X79603600Y-42218600D03*
D14*
X89898840Y-35112960D03*
X97398840Y-35112960D03*
D13*
X77092800Y-58628280D03*
D12*
X82092800Y-58628280D03*
X67818000Y-65938400D03*
D13*
X62818000Y-65938400D03*
X79603600Y-33585160D03*
D12*
X79603600Y-28585160D03*
D15*
X131612640Y-35077400D03*
D16*
X131612640Y-50317400D03*
X107579160Y-106131360D03*
D15*
X122819160Y-106131360D03*
D17*
X68996560Y-94996000D03*
D18*
X68996560Y-97536000D03*
D11*
X58252360Y-49809400D03*
D10*
X58252360Y-39649400D03*
D16*
X70337680Y-27584400D03*
D15*
X55097680Y-27584400D03*
X55097680Y-34117280D03*
D16*
X70337680Y-34117280D03*
D18*
X104876600Y-77830680D03*
D17*
X104876600Y-75290680D03*
X104876600Y-81569560D03*
D18*
X104876600Y-84109560D03*
D15*
X138831320Y-35077400D03*
D16*
X138831320Y-50317400D03*
X107579160Y-99674680D03*
D15*
X122819160Y-99674680D03*
D19*
X48549560Y-36332160D03*
X48508920Y-76621640D03*
X137154920Y-98333560D03*
X128366520Y-108788200D03*
D20*
X125105160Y-73385680D03*
X125105160Y-60685680D03*
X125105160Y-79314040D03*
X125105160Y-92014040D03*
D21*
X81955640Y-105196640D03*
X84495640Y-105196640D03*
X79415640Y-105196640D03*
X108036360Y-28549600D03*
X102956360Y-28549600D03*
X105496360Y-28549600D03*
D22*
X117312440Y-32339280D03*
D23*
X117312440Y-37419280D03*
X117312440Y-34879280D03*
X122788680Y-34808160D03*
X122788680Y-37348160D03*
D22*
X122788680Y-32268160D03*
D24*
X74757280Y-89387680D03*
D25*
X74757280Y-76687680D03*
X81782920Y-76672440D03*
D24*
X81782920Y-89372440D03*
X91475560Y-89372440D03*
D25*
X91475560Y-76672440D03*
X96352360Y-89372440D03*
D24*
X96352360Y-76672440D03*
D25*
X53075840Y-52339240D03*
D24*
X53075840Y-39639240D03*
X68966080Y-89387680D03*
D25*
X68966080Y-76687680D03*
D24*
X58176160Y-55956200D03*
D25*
X70876160Y-55956200D03*
X109148880Y-53070760D03*
D24*
X109148880Y-40370760D03*
D25*
X104775000Y-40340280D03*
D24*
X104775000Y-53040280D03*
X53045360Y-55956200D03*
D25*
X53045360Y-68656200D03*
D24*
X86258400Y-89372440D03*
D25*
X86258400Y-76672440D03*
X104896920Y-57434480D03*
D24*
X104896920Y-70134480D03*
D25*
X87431880Y-70078600D03*
D24*
X74731880Y-70078600D03*
X88717120Y-55940960D03*
D25*
X88717120Y-43240960D03*
D14*
X58547000Y-90878520D03*
X63047000Y-90878520D03*
X58547000Y-97378520D03*
X63047000Y-97378520D03*
D26*
X69819520Y-49819560D03*
X67279520Y-49819560D03*
D18*
X64739520Y-49819560D03*
D25*
X100020120Y-62539880D03*
X92400120Y-70159880D03*
X100020120Y-65079880D03*
X92400120Y-67619880D03*
X100020120Y-67619880D03*
X92400120Y-65079880D03*
X100020120Y-70159880D03*
D27*
X92400120Y-62539880D03*
X92395040Y-45730160D03*
D25*
X100015040Y-53350160D03*
X92395040Y-48270160D03*
X100015040Y-50810160D03*
X92395040Y-50810160D03*
X100015040Y-48270160D03*
X92395040Y-53350160D03*
X100015040Y-45730160D03*
X113598960Y-41280080D03*
D24*
X126298960Y-41280080D03*
D28*
X122559576Y-92014040D02*
X125105160Y-92014040D01*
X107588160Y-92014040D02*
X122559576Y-92014040D01*
X100811440Y-98790760D02*
X107588160Y-92014040D01*
X96611440Y-98790760D02*
X100811440Y-98790760D01*
D29*
X101146410Y-45730160D02*
X102208130Y-46791880D01*
X100015040Y-45730160D02*
X101146410Y-45730160D01*
X103352600Y-46791880D02*
X106989880Y-50429160D01*
X102208130Y-46791880D02*
X103352600Y-46791880D01*
X104983280Y-62539880D02*
X106989880Y-60533280D01*
X100020120Y-62539880D02*
X104983280Y-62539880D01*
X106989880Y-60533280D02*
X106989880Y-50429160D01*
D30*
X102476600Y-84109560D02*
X102420720Y-84053680D01*
X104876600Y-84109560D02*
X102476600Y-84109560D01*
X102420720Y-84053680D02*
X95336360Y-84053680D01*
X91475560Y-80192880D02*
X91475560Y-76672440D01*
X95336360Y-84053680D02*
X91475560Y-80192880D01*
X90898839Y-36112959D02*
X93059759Y-36112959D01*
X89898840Y-35112960D02*
X90898839Y-36112959D01*
X93059759Y-36112959D02*
X95143320Y-38196520D01*
X95143320Y-38196520D02*
X114401600Y-38196520D01*
X114401600Y-38196520D02*
X117180360Y-40975280D01*
X119161560Y-40975280D02*
X122788680Y-37348160D01*
X117180360Y-40975280D02*
X119161560Y-40975280D01*
X82092800Y-55928280D02*
X85308440Y-52712640D01*
X82092800Y-58628280D02*
X82092800Y-55928280D01*
X85308440Y-52712640D02*
X85308440Y-41259760D01*
X85308440Y-41259760D02*
X86400640Y-40167560D01*
X86400640Y-40167560D02*
X93263720Y-40167560D01*
X93263720Y-40167560D02*
X97012760Y-43916600D01*
X97012760Y-43916600D02*
X97012760Y-46802040D01*
X98480880Y-48270160D02*
X97012760Y-46802040D01*
X100015040Y-48270160D02*
X98480880Y-48270160D01*
X67818000Y-59014360D02*
X70876160Y-55956200D01*
X67818000Y-65938400D02*
X67818000Y-59014360D01*
X104099360Y-57434480D02*
X100015040Y-53350160D01*
X104896920Y-57434480D02*
X104099360Y-57434480D01*
X102956360Y-28549600D02*
X102956360Y-29048710D01*
X109148880Y-41502130D02*
X112244070Y-44597320D01*
X109148880Y-40370760D02*
X109148880Y-41502130D01*
X112244070Y-44597320D02*
X119232680Y-44597320D01*
X119232680Y-44597320D02*
X126055120Y-37774880D01*
X126055120Y-37774880D02*
X126055120Y-35905440D01*
X123863482Y-34808160D02*
X123873642Y-34818320D01*
X122788680Y-34808160D02*
X123863482Y-34808160D01*
X124968000Y-34818320D02*
X126055120Y-35905440D01*
X123873642Y-34818320D02*
X124968000Y-34818320D01*
X89733120Y-65079880D02*
X92400120Y-65079880D01*
X88706960Y-66106040D02*
X89733120Y-65079880D01*
X81330800Y-66106040D02*
X88706960Y-66106040D01*
X74731880Y-70078600D02*
X77358240Y-70078600D01*
X77358240Y-70078600D02*
X81330800Y-66106040D01*
X99220121Y-70959879D02*
X97472601Y-70959879D01*
X100020120Y-70159880D02*
X99220121Y-70959879D01*
X97472601Y-70959879D02*
X94843600Y-73588880D01*
X94843600Y-73588880D02*
X88402160Y-73588880D01*
X88402160Y-73588880D02*
X86410800Y-75580240D01*
X86410800Y-76520040D02*
X86258400Y-76672440D01*
X86410800Y-75580240D02*
X86410800Y-76520040D01*
X93526410Y-48270160D02*
X95717360Y-50461110D01*
X92395040Y-48270160D02*
X93526410Y-48270160D01*
X95717360Y-50461110D02*
X95717360Y-56525160D01*
X95717360Y-56525160D02*
X93040200Y-59202320D01*
X93040200Y-59202320D02*
X89011760Y-59202320D01*
X89011760Y-59202320D02*
X84769960Y-63444120D01*
X84769960Y-63444120D02*
X76291440Y-63444120D01*
X68966080Y-70769480D02*
X68966080Y-76687680D01*
X76291440Y-63444120D02*
X68966080Y-70769480D01*
X90095040Y-45730160D02*
X92395040Y-45730160D01*
X88767920Y-47057280D02*
X90095040Y-45730160D01*
X88767920Y-54758790D02*
X88767920Y-47057280D01*
X88717120Y-54809590D02*
X88767920Y-54758790D01*
X88717120Y-55940960D02*
X88717120Y-54809590D01*
D31*
G36*
X141534680Y-48502714D02*
X141407131Y-112700133D01*
X79338186Y-112863438D01*
X45338200Y-112833354D01*
X45338200Y-111070825D01*
X45345041Y-110850201D01*
X45338200Y-110809206D01*
X45338200Y-108350066D01*
X46470094Y-108350066D01*
X46477120Y-108776110D01*
X46477120Y-109202289D01*
X46484440Y-109219960D01*
X46484755Y-109239083D01*
X46796760Y-109992330D01*
X46806467Y-109997402D01*
X46817379Y-110023746D01*
X47446094Y-110652461D01*
X47472438Y-110663373D01*
X47477510Y-110673080D01*
X47873828Y-110829634D01*
X48267551Y-110992720D01*
X48286680Y-110992720D01*
X48304466Y-110999746D01*
X48730510Y-110992720D01*
X49156689Y-110992720D01*
X49174360Y-110985400D01*
X49193483Y-110985085D01*
X49946730Y-110673080D01*
X49951802Y-110663373D01*
X49978146Y-110652461D01*
X50606861Y-110023746D01*
X50617773Y-109997402D01*
X50627480Y-109992330D01*
X50784034Y-109596012D01*
X50947120Y-109202289D01*
X50947120Y-109183160D01*
X50954146Y-109165374D01*
X50947120Y-108739330D01*
X50947120Y-108313151D01*
X50939800Y-108295480D01*
X50939485Y-108276357D01*
X50627480Y-107523110D01*
X50617773Y-107518038D01*
X50606861Y-107491694D01*
X49978146Y-106862979D01*
X49951802Y-106852067D01*
X49946730Y-106842360D01*
X49550412Y-106685806D01*
X49156689Y-106522720D01*
X49137560Y-106522720D01*
X49119774Y-106515694D01*
X48693730Y-106522720D01*
X48267551Y-106522720D01*
X48249880Y-106530040D01*
X48230757Y-106530355D01*
X47477510Y-106842360D01*
X47472438Y-106852067D01*
X47446094Y-106862979D01*
X46817379Y-107491694D01*
X46806467Y-107518038D01*
X46796760Y-107523110D01*
X46640206Y-107919428D01*
X46477120Y-108313151D01*
X46477120Y-108332280D01*
X46470094Y-108350066D01*
X45338200Y-108350066D01*
X45338200Y-104561067D01*
X78030070Y-104561067D01*
X78030070Y-105832212D01*
X78110462Y-106236371D01*
X78416700Y-106694689D01*
X78875018Y-107000928D01*
X79415640Y-107108464D01*
X79956261Y-107000928D01*
X80414579Y-106694690D01*
X80685640Y-106289019D01*
X80956700Y-106694689D01*
X81415018Y-107000928D01*
X81955640Y-107108464D01*
X82496261Y-107000928D01*
X82954579Y-106694690D01*
X83225640Y-106289019D01*
X83496700Y-106694689D01*
X83955018Y-107000928D01*
X84495640Y-107108464D01*
X85036261Y-107000928D01*
X85494579Y-106694690D01*
X85800818Y-106236372D01*
X85881210Y-105832213D01*
X85881210Y-104561067D01*
X85800818Y-104156908D01*
X85494580Y-103698590D01*
X85086255Y-103425756D01*
X94776440Y-103425756D01*
X94776440Y-104155764D01*
X95055802Y-104830204D01*
X95571996Y-105346398D01*
X96246436Y-105625760D01*
X96976444Y-105625760D01*
X97650884Y-105346398D01*
X98167078Y-104830204D01*
X98290863Y-104531360D01*
X105331720Y-104531360D01*
X105331720Y-107731360D01*
X105381003Y-107979125D01*
X105521351Y-108189169D01*
X105731395Y-108329517D01*
X105979160Y-108378800D01*
X109179160Y-108378800D01*
X109426925Y-108329517D01*
X109636969Y-108189169D01*
X109777317Y-107979125D01*
X109826600Y-107731360D01*
X109826600Y-106131360D01*
X120540374Y-106131360D01*
X120713836Y-107003414D01*
X121207815Y-107742705D01*
X121947106Y-108236684D01*
X122599032Y-108366360D01*
X123039288Y-108366360D01*
X123585554Y-108257701D01*
X125699520Y-108257701D01*
X125699520Y-109318699D01*
X126105546Y-110298934D01*
X126855786Y-111049174D01*
X127836021Y-111455200D01*
X128897019Y-111455200D01*
X129877254Y-111049174D01*
X130627494Y-110298934D01*
X131033520Y-109318699D01*
X131033520Y-108522786D01*
X135492014Y-108522786D01*
X135499040Y-108948830D01*
X135499040Y-109375009D01*
X135506360Y-109392680D01*
X135506675Y-109411803D01*
X135818680Y-110165050D01*
X135828387Y-110170122D01*
X135839299Y-110196466D01*
X136468014Y-110825181D01*
X136494358Y-110836093D01*
X136499430Y-110845800D01*
X136895748Y-111002354D01*
X137289471Y-111165440D01*
X137308600Y-111165440D01*
X137326386Y-111172466D01*
X137752430Y-111165440D01*
X138178609Y-111165440D01*
X138196280Y-111158120D01*
X138215403Y-111157805D01*
X138968650Y-110845800D01*
X138973722Y-110836093D01*
X139000066Y-110825181D01*
X139628781Y-110196466D01*
X139639693Y-110170122D01*
X139649400Y-110165050D01*
X139805954Y-109768732D01*
X139969040Y-109375009D01*
X139969040Y-109355880D01*
X139976066Y-109338094D01*
X139969040Y-108912050D01*
X139969040Y-108485871D01*
X139961720Y-108468200D01*
X139961405Y-108449077D01*
X139649400Y-107695830D01*
X139639693Y-107690758D01*
X139628781Y-107664414D01*
X139000066Y-107035699D01*
X138973722Y-107024787D01*
X138968650Y-107015080D01*
X138572332Y-106858526D01*
X138178609Y-106695440D01*
X138159480Y-106695440D01*
X138141694Y-106688414D01*
X137715650Y-106695440D01*
X137289471Y-106695440D01*
X137271800Y-106702760D01*
X137252677Y-106703075D01*
X136499430Y-107015080D01*
X136494358Y-107024787D01*
X136468014Y-107035699D01*
X135839299Y-107664414D01*
X135828387Y-107690758D01*
X135818680Y-107695830D01*
X135662126Y-108092148D01*
X135499040Y-108485871D01*
X135499040Y-108505000D01*
X135492014Y-108522786D01*
X131033520Y-108522786D01*
X131033520Y-108257701D01*
X130627494Y-107277466D01*
X129877254Y-106527226D01*
X128897019Y-106121200D01*
X127836021Y-106121200D01*
X126855786Y-106527226D01*
X126105546Y-107277466D01*
X125699520Y-108257701D01*
X123585554Y-108257701D01*
X123691214Y-108236684D01*
X124430505Y-107742705D01*
X124924484Y-107003414D01*
X125097946Y-106131360D01*
X124924484Y-105259306D01*
X124430505Y-104520015D01*
X123691214Y-104026036D01*
X123039288Y-103896360D01*
X122599032Y-103896360D01*
X121947106Y-104026036D01*
X121207815Y-104520015D01*
X120713836Y-105259306D01*
X120540374Y-106131360D01*
X109826600Y-106131360D01*
X109826600Y-104531360D01*
X109777317Y-104283595D01*
X109636969Y-104073551D01*
X109426925Y-103933203D01*
X109179160Y-103883920D01*
X105979160Y-103883920D01*
X105731395Y-103933203D01*
X105521351Y-104073551D01*
X105381003Y-104283595D01*
X105331720Y-104531360D01*
X98290863Y-104531360D01*
X98446440Y-104155764D01*
X98446440Y-103425756D01*
X98167078Y-102751316D01*
X97650884Y-102235122D01*
X96976444Y-101955760D01*
X96246436Y-101955760D01*
X95571996Y-102235122D01*
X95055802Y-102751316D01*
X94776440Y-103425756D01*
X85086255Y-103425756D01*
X85036262Y-103392352D01*
X84495640Y-103284816D01*
X83955019Y-103392352D01*
X83496701Y-103698590D01*
X83225640Y-104104260D01*
X82954580Y-103698590D01*
X82496262Y-103392352D01*
X81955640Y-103284816D01*
X81415019Y-103392352D01*
X80956701Y-103698590D01*
X80685640Y-104104260D01*
X80414580Y-103698590D01*
X79956262Y-103392352D01*
X79415640Y-103284816D01*
X78875019Y-103392352D01*
X78416701Y-103698590D01*
X78110462Y-104156908D01*
X78030070Y-104561067D01*
X45338200Y-104561067D01*
X45338200Y-97053298D01*
X56912000Y-97053298D01*
X56912000Y-97703742D01*
X57160914Y-98304673D01*
X57620847Y-98764606D01*
X58221778Y-99013520D01*
X58872222Y-99013520D01*
X59473153Y-98764606D01*
X59933086Y-98304673D01*
X60182000Y-97703742D01*
X60182000Y-97053298D01*
X61412000Y-97053298D01*
X61412000Y-97703742D01*
X61660914Y-98304673D01*
X62120847Y-98764606D01*
X62721778Y-99013520D01*
X63372222Y-99013520D01*
X63973153Y-98764606D01*
X64433086Y-98304673D01*
X64682000Y-97703742D01*
X64682000Y-97053298D01*
X64509150Y-96636000D01*
X67449120Y-96636000D01*
X67449120Y-98436000D01*
X67498403Y-98683765D01*
X67638751Y-98893809D01*
X67848795Y-99034157D01*
X68096560Y-99083440D01*
X69896560Y-99083440D01*
X70144325Y-99034157D01*
X70354369Y-98893809D01*
X70423224Y-98790760D01*
X94434613Y-98790760D01*
X94600314Y-99623796D01*
X94764000Y-99868769D01*
X94764000Y-99990760D01*
X94813283Y-100238525D01*
X94953631Y-100448569D01*
X95163675Y-100588917D01*
X95411440Y-100638200D01*
X95533431Y-100638200D01*
X95778404Y-100801886D01*
X96401161Y-100925760D01*
X100601165Y-100925760D01*
X100811440Y-100967586D01*
X101021715Y-100925760D01*
X101021719Y-100925760D01*
X101644476Y-100801886D01*
X102350689Y-100330009D01*
X102469804Y-100151741D01*
X104546865Y-98074680D01*
X105331720Y-98074680D01*
X105331720Y-101274680D01*
X105381003Y-101522445D01*
X105521351Y-101732489D01*
X105731395Y-101872837D01*
X105979160Y-101922120D01*
X109179160Y-101922120D01*
X109426925Y-101872837D01*
X109636969Y-101732489D01*
X109777317Y-101522445D01*
X109826600Y-101274680D01*
X109826600Y-99674680D01*
X120540374Y-99674680D01*
X120713836Y-100546734D01*
X121207815Y-101286025D01*
X121947106Y-101780004D01*
X122599032Y-101909680D01*
X123039288Y-101909680D01*
X123691214Y-101780004D01*
X124430505Y-101286025D01*
X124924484Y-100546734D01*
X125097946Y-99674680D01*
X124924484Y-98802626D01*
X124430505Y-98063335D01*
X124040978Y-97803061D01*
X134487920Y-97803061D01*
X134487920Y-98864059D01*
X134893946Y-99844294D01*
X135644186Y-100594534D01*
X136624421Y-101000560D01*
X137685419Y-101000560D01*
X138665654Y-100594534D01*
X139415894Y-99844294D01*
X139821920Y-98864059D01*
X139821920Y-97803061D01*
X139415894Y-96822826D01*
X138665654Y-96072586D01*
X137685419Y-95666560D01*
X136624421Y-95666560D01*
X135644186Y-96072586D01*
X134893946Y-96822826D01*
X134487920Y-97803061D01*
X124040978Y-97803061D01*
X123691214Y-97569356D01*
X123039288Y-97439680D01*
X122599032Y-97439680D01*
X121947106Y-97569356D01*
X121207815Y-98063335D01*
X120713836Y-98802626D01*
X120540374Y-99674680D01*
X109826600Y-99674680D01*
X109826600Y-98074680D01*
X109777317Y-97826915D01*
X109636969Y-97616871D01*
X109426925Y-97476523D01*
X109179160Y-97427240D01*
X105979160Y-97427240D01*
X105731395Y-97476523D01*
X105521351Y-97616871D01*
X105381003Y-97826915D01*
X105331720Y-98074680D01*
X104546865Y-98074680D01*
X108472506Y-94149040D01*
X123896545Y-94149040D01*
X124620808Y-94449040D01*
X125589512Y-94449040D01*
X126484476Y-94078333D01*
X127169453Y-93393356D01*
X127540160Y-92498392D01*
X127540160Y-91529688D01*
X127169453Y-90634724D01*
X126484476Y-89949747D01*
X125589512Y-89579040D01*
X124620808Y-89579040D01*
X123896545Y-89879040D01*
X107798434Y-89879040D01*
X107588159Y-89837214D01*
X107377884Y-89879040D01*
X107377881Y-89879040D01*
X106755124Y-90002914D01*
X106048911Y-90474791D01*
X105929798Y-90653056D01*
X99927095Y-96655760D01*
X96401161Y-96655760D01*
X95778404Y-96779634D01*
X95533431Y-96943320D01*
X95411440Y-96943320D01*
X95163675Y-96992603D01*
X94953631Y-97132951D01*
X94813283Y-97342995D01*
X94764000Y-97590760D01*
X94764000Y-97712751D01*
X94600314Y-97957724D01*
X94434613Y-98790760D01*
X70423224Y-98790760D01*
X70494717Y-98683765D01*
X70544000Y-98436000D01*
X70544000Y-96636000D01*
X70494717Y-96388235D01*
X70354369Y-96178191D01*
X70144325Y-96037843D01*
X70128652Y-96034725D01*
X70297870Y-95865507D01*
X70531560Y-95301330D01*
X70531560Y-94690670D01*
X70297870Y-94126493D01*
X69866067Y-93694690D01*
X69301890Y-93461000D01*
X68691230Y-93461000D01*
X68127053Y-93694690D01*
X67695250Y-94126493D01*
X67461560Y-94690670D01*
X67461560Y-95301330D01*
X67695250Y-95865507D01*
X67864468Y-96034725D01*
X67848795Y-96037843D01*
X67638751Y-96178191D01*
X67498403Y-96388235D01*
X67449120Y-96636000D01*
X64509150Y-96636000D01*
X64433086Y-96452367D01*
X63973153Y-95992434D01*
X63372222Y-95743520D01*
X62721778Y-95743520D01*
X62120847Y-95992434D01*
X61660914Y-96452367D01*
X61412000Y-97053298D01*
X60182000Y-97053298D01*
X59933086Y-96452367D01*
X59473153Y-95992434D01*
X58872222Y-95743520D01*
X58221778Y-95743520D01*
X57620847Y-95992434D01*
X57160914Y-96452367D01*
X56912000Y-97053298D01*
X45338200Y-97053298D01*
X45338200Y-90553298D01*
X56912000Y-90553298D01*
X56912000Y-91203742D01*
X57160914Y-91804673D01*
X57620847Y-92264606D01*
X58221778Y-92513520D01*
X58872222Y-92513520D01*
X59473153Y-92264606D01*
X59933086Y-91804673D01*
X60182000Y-91203742D01*
X60182000Y-90553298D01*
X61412000Y-90553298D01*
X61412000Y-91203742D01*
X61660914Y-91804673D01*
X62120847Y-92264606D01*
X62721778Y-92513520D01*
X63372222Y-92513520D01*
X63973153Y-92264606D01*
X64433086Y-91804673D01*
X64682000Y-91203742D01*
X64682000Y-90553298D01*
X64433086Y-89952367D01*
X63973153Y-89492434D01*
X63372222Y-89243520D01*
X62721778Y-89243520D01*
X62120847Y-89492434D01*
X61660914Y-89952367D01*
X61412000Y-90553298D01*
X60182000Y-90553298D01*
X59933086Y-89952367D01*
X59473153Y-89492434D01*
X58872222Y-89243520D01*
X58221778Y-89243520D01*
X57620847Y-89492434D01*
X57160914Y-89952367D01*
X56912000Y-90553298D01*
X45338200Y-90553298D01*
X45338200Y-89102241D01*
X67531080Y-89102241D01*
X67531080Y-89673119D01*
X67749546Y-90200542D01*
X68153218Y-90604214D01*
X68680641Y-90822680D01*
X69251519Y-90822680D01*
X69778942Y-90604214D01*
X70182614Y-90200542D01*
X70401080Y-89673119D01*
X70401080Y-89102241D01*
X73322280Y-89102241D01*
X73322280Y-89673119D01*
X73540746Y-90200542D01*
X73944418Y-90604214D01*
X74471841Y-90822680D01*
X75042719Y-90822680D01*
X75570142Y-90604214D01*
X75973814Y-90200542D01*
X76192280Y-89673119D01*
X76192280Y-89102241D01*
X76185968Y-89087001D01*
X80347920Y-89087001D01*
X80347920Y-89657879D01*
X80566386Y-90185302D01*
X80970058Y-90588974D01*
X81497481Y-90807440D01*
X82068359Y-90807440D01*
X82595782Y-90588974D01*
X82999454Y-90185302D01*
X83217920Y-89657879D01*
X83217920Y-89087001D01*
X84823400Y-89087001D01*
X84823400Y-89657879D01*
X85041866Y-90185302D01*
X85445538Y-90588974D01*
X85972961Y-90807440D01*
X86543839Y-90807440D01*
X87071262Y-90588974D01*
X87474934Y-90185302D01*
X87693400Y-89657879D01*
X87693400Y-89087001D01*
X90040560Y-89087001D01*
X90040560Y-89657879D01*
X90259026Y-90185302D01*
X90662698Y-90588974D01*
X91190121Y-90807440D01*
X91760999Y-90807440D01*
X92288422Y-90588974D01*
X92692094Y-90185302D01*
X92910560Y-89657879D01*
X92910560Y-89372440D01*
X94889247Y-89372440D01*
X95000620Y-89932349D01*
X95317783Y-90407017D01*
X95792451Y-90724180D01*
X96211027Y-90807440D01*
X96493693Y-90807440D01*
X96912269Y-90724180D01*
X97386937Y-90407017D01*
X97704100Y-89932349D01*
X97815473Y-89372440D01*
X97704100Y-88812531D01*
X97386937Y-88337863D01*
X96912269Y-88020700D01*
X96493693Y-87937440D01*
X96211027Y-87937440D01*
X95792451Y-88020700D01*
X95317783Y-88337863D01*
X95000620Y-88812531D01*
X94889247Y-89372440D01*
X92910560Y-89372440D01*
X92910560Y-89087001D01*
X92692094Y-88559578D01*
X92288422Y-88155906D01*
X91760999Y-87937440D01*
X91190121Y-87937440D01*
X90662698Y-88155906D01*
X90259026Y-88559578D01*
X90040560Y-89087001D01*
X87693400Y-89087001D01*
X87474934Y-88559578D01*
X87071262Y-88155906D01*
X86543839Y-87937440D01*
X85972961Y-87937440D01*
X85445538Y-88155906D01*
X85041866Y-88559578D01*
X84823400Y-89087001D01*
X83217920Y-89087001D01*
X82999454Y-88559578D01*
X82595782Y-88155906D01*
X82068359Y-87937440D01*
X81497481Y-87937440D01*
X80970058Y-88155906D01*
X80566386Y-88559578D01*
X80347920Y-89087001D01*
X76185968Y-89087001D01*
X75973814Y-88574818D01*
X75570142Y-88171146D01*
X75042719Y-87952680D01*
X74471841Y-87952680D01*
X73944418Y-88171146D01*
X73540746Y-88574818D01*
X73322280Y-89102241D01*
X70401080Y-89102241D01*
X70182614Y-88574818D01*
X69778942Y-88171146D01*
X69251519Y-87952680D01*
X68680641Y-87952680D01*
X68153218Y-88171146D01*
X67749546Y-88574818D01*
X67531080Y-89102241D01*
X45338200Y-89102241D01*
X45338200Y-76091141D01*
X45841920Y-76091141D01*
X45841920Y-77152139D01*
X46247946Y-78132374D01*
X46998186Y-78882614D01*
X47978421Y-79288640D01*
X49039419Y-79288640D01*
X50019654Y-78882614D01*
X50769894Y-78132374D01*
X51175920Y-77152139D01*
X51175920Y-76687680D01*
X67502967Y-76687680D01*
X67614340Y-77247589D01*
X67931503Y-77722257D01*
X68406171Y-78039420D01*
X68824747Y-78122680D01*
X69107413Y-78122680D01*
X69525989Y-78039420D01*
X70000657Y-77722257D01*
X70317820Y-77247589D01*
X70429193Y-76687680D01*
X73294167Y-76687680D01*
X73405540Y-77247589D01*
X73722703Y-77722257D01*
X74197371Y-78039420D01*
X74615947Y-78122680D01*
X74898613Y-78122680D01*
X75317189Y-78039420D01*
X75791857Y-77722257D01*
X76109020Y-77247589D01*
X76220393Y-76687680D01*
X76217362Y-76672440D01*
X80319807Y-76672440D01*
X80431180Y-77232349D01*
X80748343Y-77707017D01*
X81223011Y-78024180D01*
X81641587Y-78107440D01*
X81924253Y-78107440D01*
X82342829Y-78024180D01*
X82817497Y-77707017D01*
X83134660Y-77232349D01*
X83246033Y-76672440D01*
X83134660Y-76112531D01*
X82817497Y-75637863D01*
X82342829Y-75320700D01*
X81924253Y-75237440D01*
X81641587Y-75237440D01*
X81223011Y-75320700D01*
X80748343Y-75637863D01*
X80431180Y-76112531D01*
X80319807Y-76672440D01*
X76217362Y-76672440D01*
X76109020Y-76127771D01*
X75791857Y-75653103D01*
X75317189Y-75335940D01*
X74898613Y-75252680D01*
X74615947Y-75252680D01*
X74197371Y-75335940D01*
X73722703Y-75653103D01*
X73405540Y-76127771D01*
X73294167Y-76687680D01*
X70429193Y-76687680D01*
X70351080Y-76294980D01*
X70351080Y-71343165D01*
X76865125Y-64829120D01*
X80748913Y-64829120D01*
X80332271Y-65107511D01*
X80255002Y-65223152D01*
X76784555Y-68693600D01*
X75138030Y-68693600D01*
X75017319Y-68643600D01*
X74446441Y-68643600D01*
X73919018Y-68862066D01*
X73515346Y-69265738D01*
X73296880Y-69793161D01*
X73296880Y-70364039D01*
X73515346Y-70891462D01*
X73919018Y-71295134D01*
X74446441Y-71513600D01*
X75017319Y-71513600D01*
X75138030Y-71463600D01*
X77221833Y-71463600D01*
X77358240Y-71490733D01*
X77494647Y-71463600D01*
X77898640Y-71383241D01*
X78356769Y-71077129D01*
X78434039Y-70961486D01*
X79316925Y-70078600D01*
X85968767Y-70078600D01*
X86080140Y-70638509D01*
X86397303Y-71113177D01*
X86871971Y-71430340D01*
X87290547Y-71513600D01*
X87573213Y-71513600D01*
X87991789Y-71430340D01*
X88466457Y-71113177D01*
X88783620Y-70638509D01*
X88894993Y-70078600D01*
X88783620Y-69518691D01*
X88466457Y-69044023D01*
X87991789Y-68726860D01*
X87573213Y-68643600D01*
X87290547Y-68643600D01*
X86871971Y-68726860D01*
X86397303Y-69044023D01*
X86080140Y-69518691D01*
X85968767Y-70078600D01*
X79316925Y-70078600D01*
X81904486Y-67491040D01*
X88570553Y-67491040D01*
X88706960Y-67518173D01*
X88843367Y-67491040D01*
X89247360Y-67410681D01*
X89705489Y-67104569D01*
X89782760Y-66988925D01*
X90306805Y-66464880D01*
X91545769Y-66464880D01*
X91365543Y-66585303D01*
X91048380Y-67059971D01*
X90937007Y-67619880D01*
X91048380Y-68179789D01*
X91365543Y-68654457D01*
X91717878Y-68889880D01*
X91365543Y-69125303D01*
X91048380Y-69599971D01*
X90937007Y-70159880D01*
X91048380Y-70719789D01*
X91365543Y-71194457D01*
X91840211Y-71511620D01*
X92258787Y-71594880D01*
X92541453Y-71594880D01*
X92960029Y-71511620D01*
X93434697Y-71194457D01*
X93751860Y-70719789D01*
X93863233Y-70159880D01*
X93751860Y-69599971D01*
X93434697Y-69125303D01*
X93082362Y-68889880D01*
X93434697Y-68654457D01*
X93751860Y-68179789D01*
X93863233Y-67619880D01*
X93751860Y-67059971D01*
X93434697Y-66585303D01*
X93082362Y-66349880D01*
X93434697Y-66114457D01*
X93751860Y-65639789D01*
X93863233Y-65079880D01*
X93751860Y-64519971D01*
X93434697Y-64045303D01*
X93314014Y-63964665D01*
X93447885Y-63938037D01*
X93657929Y-63797689D01*
X93798277Y-63587645D01*
X93847560Y-63339880D01*
X93847560Y-61739880D01*
X93798277Y-61492115D01*
X93657929Y-61282071D01*
X93447885Y-61141723D01*
X93200120Y-61092440D01*
X91600120Y-61092440D01*
X91352355Y-61141723D01*
X91142311Y-61282071D01*
X91001963Y-61492115D01*
X90952680Y-61739880D01*
X90952680Y-63339880D01*
X91001963Y-63587645D01*
X91073616Y-63694880D01*
X89869521Y-63694880D01*
X89733119Y-63667748D01*
X89596717Y-63694880D01*
X89596713Y-63694880D01*
X89192720Y-63775239D01*
X88734591Y-64081351D01*
X88657320Y-64196995D01*
X88133275Y-64721040D01*
X85351847Y-64721040D01*
X85768489Y-64442649D01*
X85845759Y-64327006D01*
X89585446Y-60587320D01*
X92903793Y-60587320D01*
X93040200Y-60614453D01*
X93176607Y-60587320D01*
X93580600Y-60506961D01*
X94038729Y-60200849D01*
X94115999Y-60085206D01*
X96600248Y-57600958D01*
X96715889Y-57523689D01*
X97022001Y-57065560D01*
X97102360Y-56661567D01*
X97129493Y-56525160D01*
X97102360Y-56388753D01*
X97102360Y-50597515D01*
X97129493Y-50461109D01*
X97100903Y-50317377D01*
X97022001Y-49920710D01*
X96877975Y-49705160D01*
X96793157Y-49578221D01*
X96793155Y-49578219D01*
X96715888Y-49462581D01*
X96600250Y-49385314D01*
X94602209Y-47387274D01*
X94524939Y-47271631D01*
X94066810Y-46965519D01*
X93714655Y-46895471D01*
X93793197Y-46777925D01*
X93842480Y-46530160D01*
X93842480Y-44930160D01*
X93793197Y-44682395D01*
X93652849Y-44472351D01*
X93442805Y-44332003D01*
X93195040Y-44282720D01*
X91595040Y-44282720D01*
X91347275Y-44332003D01*
X91327584Y-44345160D01*
X90231445Y-44345160D01*
X90095039Y-44318027D01*
X89958633Y-44345160D01*
X89554640Y-44425519D01*
X89096511Y-44731631D01*
X89019242Y-44847272D01*
X87885032Y-45981483D01*
X87769392Y-46058751D01*
X87692123Y-46174392D01*
X87463279Y-46516881D01*
X87355787Y-47057280D01*
X87382921Y-47193692D01*
X87382920Y-54417793D01*
X87365383Y-54505960D01*
X87304987Y-54809590D01*
X87332120Y-54945997D01*
X87332120Y-55534810D01*
X87282120Y-55655521D01*
X87282120Y-56226399D01*
X87500586Y-56753822D01*
X87904258Y-57157494D01*
X88431681Y-57375960D01*
X89002559Y-57375960D01*
X89529982Y-57157494D01*
X89933654Y-56753822D01*
X90152120Y-56226399D01*
X90152120Y-55655521D01*
X90102120Y-55534810D01*
X90102120Y-55150586D01*
X90152920Y-54895197D01*
X90152920Y-54895196D01*
X90180053Y-54758791D01*
X90152920Y-54622385D01*
X90152920Y-47630965D01*
X90668726Y-47115160D01*
X91327584Y-47115160D01*
X91347275Y-47128317D01*
X91481146Y-47154945D01*
X91360463Y-47235583D01*
X91043300Y-47710251D01*
X90931927Y-48270160D01*
X91043300Y-48830069D01*
X91360463Y-49304737D01*
X91712798Y-49540160D01*
X91360463Y-49775583D01*
X91043300Y-50250251D01*
X90931927Y-50810160D01*
X91043300Y-51370069D01*
X91360463Y-51844737D01*
X91712798Y-52080160D01*
X91360463Y-52315583D01*
X91043300Y-52790251D01*
X90931927Y-53350160D01*
X91043300Y-53910069D01*
X91360463Y-54384737D01*
X91835131Y-54701900D01*
X92253707Y-54785160D01*
X92536373Y-54785160D01*
X92954949Y-54701900D01*
X93429617Y-54384737D01*
X93746780Y-53910069D01*
X93858153Y-53350160D01*
X93746780Y-52790251D01*
X93429617Y-52315583D01*
X93077282Y-52080160D01*
X93429617Y-51844737D01*
X93746780Y-51370069D01*
X93858153Y-50810160D01*
X93796184Y-50498619D01*
X94332360Y-51034796D01*
X94332361Y-55951473D01*
X92466515Y-57817320D01*
X89148165Y-57817320D01*
X89011759Y-57790187D01*
X88875353Y-57817320D01*
X88471360Y-57897679D01*
X88013231Y-58203791D01*
X87935962Y-58319432D01*
X84196275Y-62059120D01*
X76427841Y-62059120D01*
X76291439Y-62031988D01*
X76155037Y-62059120D01*
X76155033Y-62059120D01*
X75751040Y-62139479D01*
X75292911Y-62445591D01*
X75215640Y-62561235D01*
X68083192Y-69693683D01*
X67967551Y-69770952D01*
X67809201Y-70007940D01*
X67661439Y-70229081D01*
X67553947Y-70769480D01*
X67581080Y-70905887D01*
X67581081Y-76294975D01*
X67502967Y-76687680D01*
X51175920Y-76687680D01*
X51175920Y-76091141D01*
X50769894Y-75110906D01*
X50019654Y-74360666D01*
X49039419Y-73954640D01*
X47978421Y-73954640D01*
X46998186Y-74360666D01*
X46247946Y-75110906D01*
X45841920Y-76091141D01*
X45338200Y-76091141D01*
X45338200Y-68656200D01*
X51582247Y-68656200D01*
X51693620Y-69216109D01*
X52010783Y-69690777D01*
X52485451Y-70007940D01*
X52904027Y-70091200D01*
X53186693Y-70091200D01*
X53605269Y-70007940D01*
X54079937Y-69690777D01*
X54397100Y-69216109D01*
X54508473Y-68656200D01*
X54397100Y-68096291D01*
X54079937Y-67621623D01*
X53605269Y-67304460D01*
X53186693Y-67221200D01*
X52904027Y-67221200D01*
X52485451Y-67304460D01*
X52010783Y-67621623D01*
X51693620Y-68096291D01*
X51582247Y-68656200D01*
X45338200Y-68656200D01*
X45338200Y-65573396D01*
X60983000Y-65573396D01*
X60983000Y-66303404D01*
X61262362Y-66977844D01*
X61778556Y-67494038D01*
X62452996Y-67773400D01*
X63183004Y-67773400D01*
X63857444Y-67494038D01*
X64373638Y-66977844D01*
X64653000Y-66303404D01*
X64653000Y-65573396D01*
X64373638Y-64898956D01*
X64213082Y-64738400D01*
X65970560Y-64738400D01*
X65970560Y-67138400D01*
X66019843Y-67386165D01*
X66160191Y-67596209D01*
X66370235Y-67736557D01*
X66618000Y-67785840D01*
X69018000Y-67785840D01*
X69265765Y-67736557D01*
X69475809Y-67596209D01*
X69616157Y-67386165D01*
X69665440Y-67138400D01*
X69665440Y-64738400D01*
X69616157Y-64490635D01*
X69475809Y-64280591D01*
X69265765Y-64140243D01*
X69203000Y-64127758D01*
X69203000Y-59588045D01*
X70527769Y-58263276D01*
X75257800Y-58263276D01*
X75257800Y-58993284D01*
X75537162Y-59667724D01*
X76053356Y-60183918D01*
X76727796Y-60463280D01*
X77457804Y-60463280D01*
X78132244Y-60183918D01*
X78648438Y-59667724D01*
X78927800Y-58993284D01*
X78927800Y-58263276D01*
X78648438Y-57588836D01*
X78487882Y-57428280D01*
X80245360Y-57428280D01*
X80245360Y-59828280D01*
X80294643Y-60076045D01*
X80434991Y-60286089D01*
X80645035Y-60426437D01*
X80892800Y-60475720D01*
X83292800Y-60475720D01*
X83540565Y-60426437D01*
X83750609Y-60286089D01*
X83890957Y-60076045D01*
X83940240Y-59828280D01*
X83940240Y-57428280D01*
X83890957Y-57180515D01*
X83750609Y-56970471D01*
X83540565Y-56830123D01*
X83477800Y-56817638D01*
X83477800Y-56501965D01*
X86191330Y-53788436D01*
X86306968Y-53711169D01*
X86384235Y-53595531D01*
X86384237Y-53595529D01*
X86613081Y-53253040D01*
X86720573Y-52712640D01*
X86693440Y-52576233D01*
X86693440Y-43240960D01*
X87254007Y-43240960D01*
X87365380Y-43800869D01*
X87682543Y-44275537D01*
X88157211Y-44592700D01*
X88575787Y-44675960D01*
X88858453Y-44675960D01*
X89277029Y-44592700D01*
X89751697Y-44275537D01*
X90068860Y-43800869D01*
X90180233Y-43240960D01*
X90068860Y-42681051D01*
X89751697Y-42206383D01*
X89277029Y-41889220D01*
X88858453Y-41805960D01*
X88575787Y-41805960D01*
X88157211Y-41889220D01*
X87682543Y-42206383D01*
X87365380Y-42681051D01*
X87254007Y-43240960D01*
X86693440Y-43240960D01*
X86693440Y-41833445D01*
X86974326Y-41552560D01*
X92690035Y-41552560D01*
X95627760Y-44490286D01*
X95627761Y-46665629D01*
X95600627Y-46802040D01*
X95708119Y-47342439D01*
X95708120Y-47342440D01*
X96014232Y-47800569D01*
X96129872Y-47877837D01*
X97405082Y-49153048D01*
X97482351Y-49268689D01*
X97940480Y-49574801D01*
X98344473Y-49655160D01*
X98480879Y-49682293D01*
X98617285Y-49655160D01*
X99160689Y-49655160D01*
X98980463Y-49775583D01*
X98663300Y-50250251D01*
X98551927Y-50810160D01*
X98663300Y-51370069D01*
X98980463Y-51844737D01*
X99332798Y-52080160D01*
X98980463Y-52315583D01*
X98663300Y-52790251D01*
X98551927Y-53350160D01*
X98663300Y-53910069D01*
X98980463Y-54384737D01*
X99313380Y-54607185D01*
X103023562Y-58317368D01*
X103100831Y-58433009D01*
X103216471Y-58510277D01*
X103558960Y-58739121D01*
X104099360Y-58846613D01*
X104235767Y-58819480D01*
X104504220Y-58819480D01*
X104755587Y-58869480D01*
X105038253Y-58869480D01*
X105456829Y-58786220D01*
X105854880Y-58520251D01*
X105854880Y-60063148D01*
X104513149Y-61404880D01*
X100904403Y-61404880D01*
X100580029Y-61188140D01*
X100161453Y-61104880D01*
X99878787Y-61104880D01*
X99460211Y-61188140D01*
X98985543Y-61505303D01*
X98668380Y-61979971D01*
X98557007Y-62539880D01*
X98668380Y-63099789D01*
X98985543Y-63574457D01*
X99337878Y-63809880D01*
X98985543Y-64045303D01*
X98668380Y-64519971D01*
X98557007Y-65079880D01*
X98668380Y-65639789D01*
X98985543Y-66114457D01*
X99337878Y-66349880D01*
X98985543Y-66585303D01*
X98668380Y-67059971D01*
X98557007Y-67619880D01*
X98668380Y-68179789D01*
X98985543Y-68654457D01*
X99337878Y-68889880D01*
X98985543Y-69125303D01*
X98763094Y-69458222D01*
X98646437Y-69574879D01*
X97609008Y-69574879D01*
X97472601Y-69547746D01*
X97336194Y-69574879D01*
X96932201Y-69655238D01*
X96474072Y-69961350D01*
X96396803Y-70076991D01*
X94269915Y-72203880D01*
X88538565Y-72203880D01*
X88402159Y-72176747D01*
X88265753Y-72203880D01*
X87861760Y-72284239D01*
X87403631Y-72590351D01*
X87326360Y-72705995D01*
X85527912Y-74504443D01*
X85412271Y-74581712D01*
X85335003Y-74697352D01*
X85106159Y-75039841D01*
X84998667Y-75580240D01*
X85025800Y-75716647D01*
X85025800Y-75934225D01*
X84906660Y-76112531D01*
X84795287Y-76672440D01*
X84906660Y-77232349D01*
X85223823Y-77707017D01*
X85698491Y-78024180D01*
X86117067Y-78107440D01*
X86399733Y-78107440D01*
X86818309Y-78024180D01*
X87292977Y-77707017D01*
X87610140Y-77232349D01*
X87614194Y-77211966D01*
X87715441Y-77060440D01*
X87792618Y-76672440D01*
X90012447Y-76672440D01*
X90090561Y-77065144D01*
X90090560Y-80056473D01*
X90063427Y-80192880D01*
X90090560Y-80329286D01*
X90170919Y-80733279D01*
X90477031Y-81191408D01*
X90592672Y-81268677D01*
X94260562Y-84936568D01*
X94337831Y-85052209D01*
X94453471Y-85129477D01*
X94795960Y-85358321D01*
X95336360Y-85465813D01*
X95472767Y-85438680D01*
X102059265Y-85438680D01*
X102340193Y-85494560D01*
X102476599Y-85521693D01*
X102613005Y-85494560D01*
X103559485Y-85494560D01*
X103728835Y-85607717D01*
X103976600Y-85657000D01*
X105776600Y-85657000D01*
X106024365Y-85607717D01*
X106234409Y-85467369D01*
X106374757Y-85257325D01*
X106424040Y-85009560D01*
X106424040Y-83209560D01*
X106374757Y-82961795D01*
X106234409Y-82751751D01*
X106024365Y-82611403D01*
X106008692Y-82608285D01*
X106177910Y-82439067D01*
X106411600Y-81874890D01*
X106411600Y-81264230D01*
X106177910Y-80700053D01*
X105746107Y-80268250D01*
X105181930Y-80034560D01*
X104571270Y-80034560D01*
X104007093Y-80268250D01*
X103575290Y-80700053D01*
X103341600Y-81264230D01*
X103341600Y-81874890D01*
X103575290Y-82439067D01*
X103744508Y-82608285D01*
X103728835Y-82611403D01*
X103559485Y-82724560D01*
X102838055Y-82724560D01*
X102557127Y-82668680D01*
X102420720Y-82641547D01*
X102284313Y-82668680D01*
X95910046Y-82668680D01*
X92860560Y-79619195D01*
X92860560Y-77065140D01*
X92938673Y-76672440D01*
X92881896Y-76387001D01*
X94917360Y-76387001D01*
X94917360Y-76957879D01*
X95135826Y-77485302D01*
X95539498Y-77888974D01*
X96066921Y-78107440D01*
X96637799Y-78107440D01*
X97165222Y-77888974D01*
X97568894Y-77485302D01*
X97787360Y-76957879D01*
X97787360Y-76930680D01*
X103329160Y-76930680D01*
X103329160Y-78730680D01*
X103378443Y-78978445D01*
X103518791Y-79188489D01*
X103728835Y-79328837D01*
X103976600Y-79378120D01*
X105776600Y-79378120D01*
X106024365Y-79328837D01*
X106234409Y-79188489D01*
X106374757Y-78978445D01*
X106404346Y-78829688D01*
X122670160Y-78829688D01*
X122670160Y-79798392D01*
X123040867Y-80693356D01*
X123725844Y-81378333D01*
X124620808Y-81749040D01*
X125589512Y-81749040D01*
X126484476Y-81378333D01*
X127169453Y-80693356D01*
X127540160Y-79798392D01*
X127540160Y-78829688D01*
X127169453Y-77934724D01*
X126484476Y-77249747D01*
X125589512Y-76879040D01*
X124620808Y-76879040D01*
X123725844Y-77249747D01*
X123040867Y-77934724D01*
X122670160Y-78829688D01*
X106404346Y-78829688D01*
X106424040Y-78730680D01*
X106424040Y-76930680D01*
X106374757Y-76682915D01*
X106234409Y-76472871D01*
X106024365Y-76332523D01*
X106008692Y-76329405D01*
X106177910Y-76160187D01*
X106411600Y-75596010D01*
X106411600Y-74985350D01*
X106177910Y-74421173D01*
X105746107Y-73989370D01*
X105181930Y-73755680D01*
X104571270Y-73755680D01*
X104007093Y-73989370D01*
X103575290Y-74421173D01*
X103341600Y-74985350D01*
X103341600Y-75596010D01*
X103575290Y-76160187D01*
X103744508Y-76329405D01*
X103728835Y-76332523D01*
X103518791Y-76472871D01*
X103378443Y-76682915D01*
X103329160Y-76930680D01*
X97787360Y-76930680D01*
X97787360Y-76387001D01*
X97568894Y-75859578D01*
X97165222Y-75455906D01*
X96637799Y-75237440D01*
X96066921Y-75237440D01*
X95539498Y-75455906D01*
X95135826Y-75859578D01*
X94917360Y-76387001D01*
X92881896Y-76387001D01*
X92827300Y-76112531D01*
X92510137Y-75637863D01*
X92035469Y-75320700D01*
X91616893Y-75237440D01*
X91334227Y-75237440D01*
X90915651Y-75320700D01*
X90440983Y-75637863D01*
X90123820Y-76112531D01*
X90012447Y-76672440D01*
X87792618Y-76672440D01*
X87795800Y-76656447D01*
X87822933Y-76520041D01*
X87795800Y-76383635D01*
X87795800Y-76153925D01*
X88975845Y-74973880D01*
X94707193Y-74973880D01*
X94843600Y-75001013D01*
X94980007Y-74973880D01*
X95384000Y-74893521D01*
X95842129Y-74587409D01*
X95919399Y-74471766D01*
X97489837Y-72901328D01*
X122670160Y-72901328D01*
X122670160Y-73870032D01*
X123040867Y-74764996D01*
X123725844Y-75449973D01*
X124620808Y-75820680D01*
X125589512Y-75820680D01*
X126484476Y-75449973D01*
X127169453Y-74764996D01*
X127540160Y-73870032D01*
X127540160Y-72901328D01*
X127169453Y-72006364D01*
X126484476Y-71321387D01*
X125589512Y-70950680D01*
X124620808Y-70950680D01*
X123725844Y-71321387D01*
X123040867Y-72006364D01*
X122670160Y-72901328D01*
X97489837Y-72901328D01*
X98046287Y-72344879D01*
X99083714Y-72344879D01*
X99220121Y-72372012D01*
X99356528Y-72344879D01*
X99760521Y-72264520D01*
X100218650Y-71958408D01*
X100295921Y-71842764D01*
X100721778Y-71416906D01*
X101054697Y-71194457D01*
X101371860Y-70719789D01*
X101483233Y-70159880D01*
X101421404Y-69849041D01*
X103461920Y-69849041D01*
X103461920Y-70419919D01*
X103680386Y-70947342D01*
X104084058Y-71351014D01*
X104611481Y-71569480D01*
X105182359Y-71569480D01*
X105709782Y-71351014D01*
X106113454Y-70947342D01*
X106331920Y-70419919D01*
X106331920Y-69849041D01*
X106113454Y-69321618D01*
X105709782Y-68917946D01*
X105182359Y-68699480D01*
X104611481Y-68699480D01*
X104084058Y-68917946D01*
X103680386Y-69321618D01*
X103461920Y-69849041D01*
X101421404Y-69849041D01*
X101371860Y-69599971D01*
X101054697Y-69125303D01*
X100702362Y-68889880D01*
X101054697Y-68654457D01*
X101371860Y-68179789D01*
X101483233Y-67619880D01*
X101371860Y-67059971D01*
X101054697Y-66585303D01*
X100702362Y-66349880D01*
X101054697Y-66114457D01*
X101371860Y-65639789D01*
X101483233Y-65079880D01*
X101371860Y-64519971D01*
X101054697Y-64045303D01*
X100702362Y-63809880D01*
X100904403Y-63674880D01*
X104871497Y-63674880D01*
X104983280Y-63697115D01*
X105095063Y-63674880D01*
X105426135Y-63609026D01*
X105801569Y-63358169D01*
X105864893Y-63263398D01*
X107713401Y-61414891D01*
X107808169Y-61351569D01*
X108059026Y-60976135D01*
X108124880Y-60645063D01*
X108124880Y-60645062D01*
X108147115Y-60533280D01*
X108124880Y-60421497D01*
X108124880Y-60201328D01*
X122670160Y-60201328D01*
X122670160Y-61170032D01*
X123040867Y-62064996D01*
X123725844Y-62749973D01*
X124620808Y-63120680D01*
X125589512Y-63120680D01*
X126484476Y-62749973D01*
X127169453Y-62064996D01*
X127540160Y-61170032D01*
X127540160Y-60201328D01*
X127169453Y-59306364D01*
X126484476Y-58621387D01*
X125589512Y-58250680D01*
X124620808Y-58250680D01*
X123725844Y-58621387D01*
X123040867Y-59306364D01*
X122670160Y-60201328D01*
X108124880Y-60201328D01*
X108124880Y-54112404D01*
X108588971Y-54422500D01*
X109007547Y-54505760D01*
X109290213Y-54505760D01*
X109708789Y-54422500D01*
X110183457Y-54105337D01*
X110500620Y-53630669D01*
X110611993Y-53070760D01*
X110500620Y-52510851D01*
X110183457Y-52036183D01*
X109708789Y-51719020D01*
X109290213Y-51635760D01*
X109007547Y-51635760D01*
X108588971Y-51719020D01*
X108124880Y-52029116D01*
X108124880Y-50540943D01*
X108147115Y-50429160D01*
X108059026Y-49986305D01*
X108015196Y-49920709D01*
X107808169Y-49610871D01*
X107713401Y-49547549D01*
X107359452Y-49193600D01*
X114728400Y-49193600D01*
X114728400Y-51593600D01*
X114777683Y-51841365D01*
X114918031Y-52051409D01*
X115128075Y-52191757D01*
X115375840Y-52241040D01*
X117775840Y-52241040D01*
X118023605Y-52191757D01*
X118233649Y-52051409D01*
X118373997Y-51841365D01*
X118423280Y-51593600D01*
X118423280Y-50028596D01*
X119740840Y-50028596D01*
X119740840Y-50758604D01*
X120020202Y-51433044D01*
X120536396Y-51949238D01*
X121210836Y-52228600D01*
X121940844Y-52228600D01*
X122615284Y-51949238D01*
X123131478Y-51433044D01*
X123410840Y-50758604D01*
X123410840Y-50028596D01*
X123131478Y-49354156D01*
X122615284Y-48837962D01*
X122324222Y-48717400D01*
X129365200Y-48717400D01*
X129365200Y-51917400D01*
X129414483Y-52165165D01*
X129554831Y-52375209D01*
X129764875Y-52515557D01*
X130012640Y-52564840D01*
X133212640Y-52564840D01*
X133460405Y-52515557D01*
X133670449Y-52375209D01*
X133810797Y-52165165D01*
X133860080Y-51917400D01*
X133860080Y-48717400D01*
X136583880Y-48717400D01*
X136583880Y-51917400D01*
X136633163Y-52165165D01*
X136773511Y-52375209D01*
X136983555Y-52515557D01*
X137231320Y-52564840D01*
X140431320Y-52564840D01*
X140679085Y-52515557D01*
X140889129Y-52375209D01*
X141029477Y-52165165D01*
X141078760Y-51917400D01*
X141078760Y-48717400D01*
X141029477Y-48469635D01*
X140889129Y-48259591D01*
X140679085Y-48119243D01*
X140431320Y-48069960D01*
X137231320Y-48069960D01*
X136983555Y-48119243D01*
X136773511Y-48259591D01*
X136633163Y-48469635D01*
X136583880Y-48717400D01*
X133860080Y-48717400D01*
X133810797Y-48469635D01*
X133670449Y-48259591D01*
X133460405Y-48119243D01*
X133212640Y-48069960D01*
X130012640Y-48069960D01*
X129764875Y-48119243D01*
X129554831Y-48259591D01*
X129414483Y-48469635D01*
X129365200Y-48717400D01*
X122324222Y-48717400D01*
X121940844Y-48558600D01*
X121210836Y-48558600D01*
X120536396Y-48837962D01*
X120020202Y-49354156D01*
X119740840Y-50028596D01*
X118423280Y-50028596D01*
X118423280Y-49193600D01*
X118373997Y-48945835D01*
X118233649Y-48735791D01*
X118023605Y-48595443D01*
X117775840Y-48546160D01*
X115375840Y-48546160D01*
X115128075Y-48595443D01*
X114918031Y-48735791D01*
X114777683Y-48945835D01*
X114728400Y-49193600D01*
X107359452Y-49193600D01*
X104234213Y-46068362D01*
X104170889Y-45973591D01*
X103795455Y-45722734D01*
X103464383Y-45656880D01*
X103352600Y-45634645D01*
X103240817Y-45656880D01*
X102678262Y-45656880D01*
X102028023Y-45006641D01*
X101964699Y-44911871D01*
X101589265Y-44661014D01*
X101258193Y-44595160D01*
X101146410Y-44572925D01*
X101034627Y-44595160D01*
X100899323Y-44595160D01*
X100574949Y-44378420D01*
X100156373Y-44295160D01*
X99873707Y-44295160D01*
X99455131Y-44378420D01*
X98980463Y-44695583D01*
X98663300Y-45170251D01*
X98551927Y-45730160D01*
X98663300Y-46290069D01*
X98980463Y-46764737D01*
X99160689Y-46885160D01*
X99054566Y-46885160D01*
X98397760Y-46228355D01*
X98397760Y-44053005D01*
X98424893Y-43916599D01*
X98361677Y-43598791D01*
X98317401Y-43376200D01*
X98207900Y-43212320D01*
X98088557Y-43033711D01*
X98088555Y-43033709D01*
X98011288Y-42918071D01*
X97895650Y-42840804D01*
X94461537Y-39406692D01*
X94602920Y-39501161D01*
X95006913Y-39581520D01*
X95143319Y-39608653D01*
X95279725Y-39581520D01*
X103556128Y-39581520D01*
X103423260Y-39780371D01*
X103311887Y-40340280D01*
X103423260Y-40900189D01*
X103740423Y-41374857D01*
X104215091Y-41692020D01*
X104633667Y-41775280D01*
X104916333Y-41775280D01*
X105334909Y-41692020D01*
X105809577Y-41374857D01*
X106126740Y-40900189D01*
X106238113Y-40340280D01*
X106126740Y-39780371D01*
X105993872Y-39581520D01*
X107922561Y-39581520D01*
X107713880Y-40085321D01*
X107713880Y-40656199D01*
X107763880Y-40776910D01*
X107763880Y-41365723D01*
X107736747Y-41502130D01*
X107763880Y-41638537D01*
X107844239Y-42042530D01*
X108150352Y-42500659D01*
X108265992Y-42577927D01*
X111168272Y-45480208D01*
X111245541Y-45595849D01*
X111446552Y-45730160D01*
X111703670Y-45901961D01*
X112244070Y-46009453D01*
X112380477Y-45982320D01*
X119096273Y-45982320D01*
X119232680Y-46009453D01*
X119369087Y-45982320D01*
X119773080Y-45901961D01*
X120231209Y-45595849D01*
X120308479Y-45480206D01*
X124913398Y-40875288D01*
X124863960Y-40994641D01*
X124863960Y-41565519D01*
X125082426Y-42092942D01*
X125486098Y-42496614D01*
X126013521Y-42715080D01*
X126584399Y-42715080D01*
X127111822Y-42496614D01*
X127515494Y-42092942D01*
X127733960Y-41565519D01*
X127733960Y-40994641D01*
X127515494Y-40467218D01*
X127111822Y-40063546D01*
X126584399Y-39845080D01*
X126013521Y-39845080D01*
X125894168Y-39894518D01*
X126938010Y-38850676D01*
X127053648Y-38773409D01*
X127130915Y-38657771D01*
X127130917Y-38657769D01*
X127287981Y-38422706D01*
X127359761Y-38315280D01*
X127440120Y-37911287D01*
X127440120Y-37911286D01*
X127467253Y-37774881D01*
X127440120Y-37638475D01*
X127440120Y-36041847D01*
X127467253Y-35905440D01*
X127359761Y-35365040D01*
X127192309Y-35114430D01*
X127167567Y-35077400D01*
X129333854Y-35077400D01*
X129507316Y-35949454D01*
X130001295Y-36688745D01*
X130740586Y-37182724D01*
X131392512Y-37312400D01*
X131832768Y-37312400D01*
X132484694Y-37182724D01*
X133223985Y-36688745D01*
X133717964Y-35949454D01*
X133891426Y-35077400D01*
X136552534Y-35077400D01*
X136725996Y-35949454D01*
X137219975Y-36688745D01*
X137959266Y-37182724D01*
X138611192Y-37312400D01*
X139051448Y-37312400D01*
X139703374Y-37182724D01*
X140442665Y-36688745D01*
X140936644Y-35949454D01*
X141110106Y-35077400D01*
X140936644Y-34205346D01*
X140442665Y-33466055D01*
X139703374Y-32972076D01*
X139051448Y-32842400D01*
X138611192Y-32842400D01*
X137959266Y-32972076D01*
X137219975Y-33466055D01*
X136725996Y-34205346D01*
X136552534Y-35077400D01*
X133891426Y-35077400D01*
X133717964Y-34205346D01*
X133223985Y-33466055D01*
X132484694Y-32972076D01*
X131832768Y-32842400D01*
X131392512Y-32842400D01*
X130740586Y-32972076D01*
X130001295Y-33466055D01*
X129507316Y-34205346D01*
X129333854Y-35077400D01*
X127167567Y-35077400D01*
X127053649Y-34906911D01*
X126938008Y-34829642D01*
X126043799Y-33935434D01*
X125966529Y-33819791D01*
X125508400Y-33513679D01*
X125104407Y-33433320D01*
X124968000Y-33406187D01*
X124831593Y-33433320D01*
X124050967Y-33433320D01*
X124042759Y-33431687D01*
X124146837Y-33275925D01*
X124196120Y-33028160D01*
X124196120Y-31508160D01*
X124146837Y-31260395D01*
X124006489Y-31050351D01*
X123796445Y-30910003D01*
X123548680Y-30860720D01*
X122028680Y-30860720D01*
X121780915Y-30910003D01*
X121570871Y-31050351D01*
X121430523Y-31260395D01*
X121381240Y-31508160D01*
X121381240Y-33028160D01*
X121430523Y-33275925D01*
X121570871Y-33485969D01*
X121780915Y-33626317D01*
X121961729Y-33662283D01*
X121863172Y-33760840D01*
X121790151Y-33809631D01*
X121741360Y-33882652D01*
X121606056Y-34017956D01*
X121532830Y-34194739D01*
X121484039Y-34267760D01*
X121466906Y-34353894D01*
X121393680Y-34530677D01*
X121393680Y-34722026D01*
X121376547Y-34808160D01*
X121393680Y-34894294D01*
X121393680Y-35085643D01*
X121466906Y-35262426D01*
X121484039Y-35348560D01*
X121532830Y-35421581D01*
X121606056Y-35598364D01*
X121741360Y-35733668D01*
X121790151Y-35806689D01*
X121863172Y-35855480D01*
X121998476Y-35990784D01*
X122175259Y-36064010D01*
X122196436Y-36078160D01*
X122175261Y-36092309D01*
X121998476Y-36165536D01*
X121606056Y-36557956D01*
X121596055Y-36582100D01*
X118587875Y-39590280D01*
X117754046Y-39590280D01*
X116937803Y-38774038D01*
X117034957Y-38814280D01*
X117589923Y-38814280D01*
X118102644Y-38601904D01*
X118495064Y-38209484D01*
X118707440Y-37696763D01*
X118707440Y-37141797D01*
X118495064Y-36629076D01*
X118102644Y-36236656D01*
X117891700Y-36149280D01*
X118102644Y-36061904D01*
X118495064Y-35669484D01*
X118707440Y-35156763D01*
X118707440Y-34601797D01*
X118495064Y-34089076D01*
X118139391Y-33733403D01*
X118320205Y-33697437D01*
X118530249Y-33557089D01*
X118670597Y-33347045D01*
X118719880Y-33099280D01*
X118719880Y-31579280D01*
X118670597Y-31331515D01*
X118530249Y-31121471D01*
X118320205Y-30981123D01*
X118072440Y-30931840D01*
X116552440Y-30931840D01*
X116304675Y-30981123D01*
X116094631Y-31121471D01*
X115954283Y-31331515D01*
X115905000Y-31579280D01*
X115905000Y-33099280D01*
X115954283Y-33347045D01*
X116094631Y-33557089D01*
X116304675Y-33697437D01*
X116485489Y-33733403D01*
X116129816Y-34089076D01*
X115917440Y-34601797D01*
X115917440Y-35156763D01*
X116129816Y-35669484D01*
X116522236Y-36061904D01*
X116733180Y-36149280D01*
X116522236Y-36236656D01*
X116129816Y-36629076D01*
X115917440Y-37141797D01*
X115917440Y-37696763D01*
X115957683Y-37793917D01*
X115477399Y-37313634D01*
X115400129Y-37197991D01*
X114942000Y-36891879D01*
X114538007Y-36811520D01*
X114401600Y-36784387D01*
X114265193Y-36811520D01*
X113495925Y-36811520D01*
X113676725Y-36775557D01*
X113886769Y-36635209D01*
X114027117Y-36425165D01*
X114076400Y-36177400D01*
X114076400Y-33977400D01*
X114027117Y-33729635D01*
X113886769Y-33519591D01*
X113676725Y-33379243D01*
X113428960Y-33329960D01*
X111228960Y-33329960D01*
X110981195Y-33379243D01*
X110771151Y-33519591D01*
X110630803Y-33729635D01*
X110581520Y-33977400D01*
X110581520Y-36177400D01*
X110630803Y-36425165D01*
X110771151Y-36635209D01*
X110981195Y-36775557D01*
X111161995Y-36811520D01*
X102344264Y-36811520D01*
X102845923Y-36711734D01*
X103419825Y-36328265D01*
X103803294Y-35754363D01*
X103937950Y-35077400D01*
X103803294Y-34400437D01*
X103419825Y-33826535D01*
X102845923Y-33443066D01*
X102339840Y-33342400D01*
X101998080Y-33342400D01*
X101491997Y-33443066D01*
X100918095Y-33826535D01*
X100534626Y-34400437D01*
X100399970Y-35077400D01*
X100534626Y-35754363D01*
X100918095Y-36328265D01*
X101491997Y-36711734D01*
X101993656Y-36811520D01*
X95717006Y-36811520D01*
X94135558Y-35230073D01*
X94058288Y-35114430D01*
X93600159Y-34808318D01*
X93496697Y-34787738D01*
X95763840Y-34787738D01*
X95763840Y-35438182D01*
X96012754Y-36039113D01*
X96472687Y-36499046D01*
X97073618Y-36747960D01*
X97724062Y-36747960D01*
X98324993Y-36499046D01*
X98784926Y-36039113D01*
X99033840Y-35438182D01*
X99033840Y-34787738D01*
X98784926Y-34186807D01*
X98324993Y-33726874D01*
X97724062Y-33477960D01*
X97073618Y-33477960D01*
X96472687Y-33726874D01*
X96012754Y-34186807D01*
X95763840Y-34787738D01*
X93496697Y-34787738D01*
X93196166Y-34727959D01*
X93059759Y-34700826D01*
X92923352Y-34727959D01*
X91509079Y-34727959D01*
X91284926Y-34186807D01*
X90824993Y-33726874D01*
X90224062Y-33477960D01*
X89573618Y-33477960D01*
X88972687Y-33726874D01*
X88512754Y-34186807D01*
X88263840Y-34787738D01*
X88263840Y-35438182D01*
X88512754Y-36039113D01*
X88972687Y-36499046D01*
X89573618Y-36747960D01*
X89575154Y-36747960D01*
X89823041Y-36995847D01*
X89900310Y-37111488D01*
X90358439Y-37417600D01*
X90762432Y-37497959D01*
X90898838Y-37525092D01*
X91035244Y-37497959D01*
X92486074Y-37497959D01*
X93945501Y-38957387D01*
X93804120Y-38862919D01*
X93400127Y-38782560D01*
X93263720Y-38755427D01*
X93127313Y-38782560D01*
X86537045Y-38782560D01*
X86400639Y-38755427D01*
X86264233Y-38782560D01*
X85860240Y-38862919D01*
X85402111Y-39169031D01*
X85324842Y-39284672D01*
X84425552Y-40183963D01*
X84309912Y-40261231D01*
X84232643Y-40376872D01*
X84003799Y-40719361D01*
X83896307Y-41259760D01*
X83923441Y-41396172D01*
X83923440Y-52138954D01*
X81209912Y-54852483D01*
X81094272Y-54929751D01*
X81017003Y-55045392D01*
X80788159Y-55387881D01*
X80680667Y-55928280D01*
X80707801Y-56064691D01*
X80707801Y-56817638D01*
X80645035Y-56830123D01*
X80434991Y-56970471D01*
X80294643Y-57180515D01*
X80245360Y-57428280D01*
X78487882Y-57428280D01*
X78132244Y-57072642D01*
X77457804Y-56793280D01*
X76727796Y-56793280D01*
X76053356Y-57072642D01*
X75537162Y-57588836D01*
X75257800Y-58263276D01*
X70527769Y-58263276D01*
X71577820Y-57213225D01*
X71910737Y-56990777D01*
X72227900Y-56516109D01*
X72339273Y-55956200D01*
X72227900Y-55396291D01*
X71910737Y-54921623D01*
X71436069Y-54604460D01*
X71017493Y-54521200D01*
X70734827Y-54521200D01*
X70316251Y-54604460D01*
X69841583Y-54921623D01*
X69619135Y-55254540D01*
X66935113Y-57938562D01*
X66819472Y-58015831D01*
X66742203Y-58131472D01*
X66513359Y-58473961D01*
X66405867Y-59014360D01*
X66433001Y-59150772D01*
X66433000Y-64127758D01*
X66370235Y-64140243D01*
X66160191Y-64280591D01*
X66019843Y-64490635D01*
X65970560Y-64738400D01*
X64213082Y-64738400D01*
X63857444Y-64382762D01*
X63183004Y-64103400D01*
X62452996Y-64103400D01*
X61778556Y-64382762D01*
X61262362Y-64898956D01*
X60983000Y-65573396D01*
X45338200Y-65573396D01*
X45338200Y-55670761D01*
X51610360Y-55670761D01*
X51610360Y-56241639D01*
X51828826Y-56769062D01*
X52232498Y-57172734D01*
X52759921Y-57391200D01*
X53330799Y-57391200D01*
X53858222Y-57172734D01*
X54261894Y-56769062D01*
X54480360Y-56241639D01*
X54480360Y-55670761D01*
X56741160Y-55670761D01*
X56741160Y-56241639D01*
X56959626Y-56769062D01*
X57363298Y-57172734D01*
X57890721Y-57391200D01*
X58461599Y-57391200D01*
X58989022Y-57172734D01*
X59392694Y-56769062D01*
X59611160Y-56241639D01*
X59611160Y-55670761D01*
X59392694Y-55143338D01*
X58989022Y-54739666D01*
X58461599Y-54521200D01*
X57890721Y-54521200D01*
X57363298Y-54739666D01*
X56959626Y-55143338D01*
X56741160Y-55670761D01*
X54480360Y-55670761D01*
X54261894Y-55143338D01*
X53858222Y-54739666D01*
X53330799Y-54521200D01*
X52759921Y-54521200D01*
X52232498Y-54739666D01*
X51828826Y-55143338D01*
X51610360Y-55670761D01*
X45338200Y-55670761D01*
X45338200Y-52339240D01*
X51612727Y-52339240D01*
X51724100Y-52899149D01*
X52041263Y-53373817D01*
X52515931Y-53690980D01*
X52934507Y-53774240D01*
X53217173Y-53774240D01*
X53635749Y-53690980D01*
X54110417Y-53373817D01*
X54427580Y-52899149D01*
X54538953Y-52339240D01*
X54427580Y-51779331D01*
X54110417Y-51304663D01*
X53635749Y-50987500D01*
X53217173Y-50904240D01*
X52934507Y-50904240D01*
X52515931Y-50987500D01*
X52041263Y-51304663D01*
X51724100Y-51779331D01*
X51612727Y-52339240D01*
X45338200Y-52339240D01*
X45338200Y-48709400D01*
X56504920Y-48709400D01*
X56504920Y-50909400D01*
X56554203Y-51157165D01*
X56694551Y-51367209D01*
X56904595Y-51507557D01*
X57152360Y-51556840D01*
X59352360Y-51556840D01*
X59600125Y-51507557D01*
X59810169Y-51367209D01*
X59950517Y-51157165D01*
X59999800Y-50909400D01*
X59999800Y-48919560D01*
X63192080Y-48919560D01*
X63192080Y-50719560D01*
X63241363Y-50967325D01*
X63381711Y-51177369D01*
X63591755Y-51317717D01*
X63839520Y-51367000D01*
X65639520Y-51367000D01*
X65887285Y-51317717D01*
X66097329Y-51177369D01*
X66236649Y-50968864D01*
X66680593Y-51265498D01*
X67128338Y-51354560D01*
X67430702Y-51354560D01*
X67878447Y-51265498D01*
X68386193Y-50926233D01*
X68549520Y-50681797D01*
X68712847Y-50926233D01*
X69220593Y-51265498D01*
X69668338Y-51354560D01*
X69970702Y-51354560D01*
X70418447Y-51265498D01*
X70926193Y-50926233D01*
X71265458Y-50418487D01*
X71384592Y-49819560D01*
X71265458Y-49220633D01*
X70926193Y-48712887D01*
X70418447Y-48373622D01*
X69970702Y-48284560D01*
X69668338Y-48284560D01*
X69220593Y-48373622D01*
X68712847Y-48712887D01*
X68549520Y-48957323D01*
X68386193Y-48712887D01*
X67878447Y-48373622D01*
X67430702Y-48284560D01*
X67128338Y-48284560D01*
X66680593Y-48373622D01*
X66236649Y-48670256D01*
X66097329Y-48461751D01*
X65887285Y-48321403D01*
X65639520Y-48272120D01*
X63839520Y-48272120D01*
X63591755Y-48321403D01*
X63381711Y-48461751D01*
X63241363Y-48671795D01*
X63192080Y-48919560D01*
X59999800Y-48919560D01*
X59999800Y-48709400D01*
X59950517Y-48461635D01*
X59810169Y-48251591D01*
X59600125Y-48111243D01*
X59352360Y-48061960D01*
X57152360Y-48061960D01*
X56904595Y-48111243D01*
X56694551Y-48251591D01*
X56554203Y-48461635D01*
X56504920Y-48709400D01*
X45338200Y-48709400D01*
X45338200Y-46018600D01*
X77756160Y-46018600D01*
X77756160Y-48418600D01*
X77805443Y-48666365D01*
X77945791Y-48876409D01*
X78155835Y-49016757D01*
X78403600Y-49066040D01*
X80803600Y-49066040D01*
X81051365Y-49016757D01*
X81261409Y-48876409D01*
X81401757Y-48666365D01*
X81451040Y-48418600D01*
X81451040Y-46018600D01*
X81401757Y-45770835D01*
X81261409Y-45560791D01*
X81051365Y-45420443D01*
X80803600Y-45371160D01*
X78403600Y-45371160D01*
X78155835Y-45420443D01*
X77945791Y-45560791D01*
X77805443Y-45770835D01*
X77756160Y-46018600D01*
X45338200Y-46018600D01*
X45338200Y-41853596D01*
X77768600Y-41853596D01*
X77768600Y-42583604D01*
X78047962Y-43258044D01*
X78564156Y-43774238D01*
X79238596Y-44053600D01*
X79968604Y-44053600D01*
X80643044Y-43774238D01*
X81159238Y-43258044D01*
X81438600Y-42583604D01*
X81438600Y-41853596D01*
X81159238Y-41179156D01*
X80643044Y-40662962D01*
X79968604Y-40383600D01*
X79238596Y-40383600D01*
X78564156Y-40662962D01*
X78047962Y-41179156D01*
X77768600Y-41853596D01*
X45338200Y-41853596D01*
X45338200Y-39353801D01*
X51640840Y-39353801D01*
X51640840Y-39924679D01*
X51859306Y-40452102D01*
X52262978Y-40855774D01*
X52790401Y-41074240D01*
X53361279Y-41074240D01*
X53888702Y-40855774D01*
X54292374Y-40452102D01*
X54510840Y-39924679D01*
X54510840Y-39649400D01*
X56483370Y-39649400D01*
X56618026Y-40326363D01*
X57001495Y-40900265D01*
X57575397Y-41283734D01*
X58081480Y-41384400D01*
X58423240Y-41384400D01*
X58929323Y-41283734D01*
X59503225Y-40900265D01*
X59886694Y-40326363D01*
X60021350Y-39649400D01*
X59886694Y-38972437D01*
X59503225Y-38398535D01*
X58929323Y-38015066D01*
X58423240Y-37914400D01*
X58081480Y-37914400D01*
X57575397Y-38015066D01*
X57001495Y-38398535D01*
X56618026Y-38972437D01*
X56483370Y-39649400D01*
X54510840Y-39649400D01*
X54510840Y-39353801D01*
X54292374Y-38826378D01*
X53888702Y-38422706D01*
X53361279Y-38204240D01*
X52790401Y-38204240D01*
X52262978Y-38422706D01*
X51859306Y-38826378D01*
X51640840Y-39353801D01*
X45338200Y-39353801D01*
X45338200Y-35801661D01*
X45882560Y-35801661D01*
X45882560Y-36862659D01*
X46288586Y-37842894D01*
X47038826Y-38593134D01*
X48019061Y-38999160D01*
X49080059Y-38999160D01*
X50060294Y-38593134D01*
X50810534Y-37842894D01*
X51216560Y-36862659D01*
X51216560Y-35801661D01*
X50810534Y-34821426D01*
X50106388Y-34117280D01*
X52818894Y-34117280D01*
X52992356Y-34989334D01*
X53486335Y-35728625D01*
X54225626Y-36222604D01*
X54877552Y-36352280D01*
X55317808Y-36352280D01*
X55969734Y-36222604D01*
X56709025Y-35728625D01*
X57203004Y-34989334D01*
X57376466Y-34117280D01*
X57203004Y-33245226D01*
X56716606Y-32517280D01*
X68090240Y-32517280D01*
X68090240Y-35717280D01*
X68139523Y-35965045D01*
X68279871Y-36175089D01*
X68489915Y-36315437D01*
X68737680Y-36364720D01*
X71937680Y-36364720D01*
X72185445Y-36315437D01*
X72395489Y-36175089D01*
X72535837Y-35965045D01*
X72585120Y-35717280D01*
X72585120Y-33220156D01*
X77768600Y-33220156D01*
X77768600Y-33950164D01*
X78047962Y-34624604D01*
X78564156Y-35140798D01*
X79238596Y-35420160D01*
X79968604Y-35420160D01*
X80643044Y-35140798D01*
X81159238Y-34624604D01*
X81438600Y-33950164D01*
X81438600Y-33220156D01*
X81159238Y-32545716D01*
X80643044Y-32029522D01*
X79968604Y-31750160D01*
X79238596Y-31750160D01*
X78564156Y-32029522D01*
X78047962Y-32545716D01*
X77768600Y-33220156D01*
X72585120Y-33220156D01*
X72585120Y-32517280D01*
X72535837Y-32269515D01*
X72395489Y-32059471D01*
X72185445Y-31919123D01*
X71937680Y-31869840D01*
X68737680Y-31869840D01*
X68489915Y-31919123D01*
X68279871Y-32059471D01*
X68139523Y-32269515D01*
X68090240Y-32517280D01*
X56716606Y-32517280D01*
X56709025Y-32505935D01*
X55969734Y-32011956D01*
X55317808Y-31882280D01*
X54877552Y-31882280D01*
X54225626Y-32011956D01*
X53486335Y-32505935D01*
X52992356Y-33245226D01*
X52818894Y-34117280D01*
X50106388Y-34117280D01*
X50060294Y-34071186D01*
X49080059Y-33665160D01*
X48019061Y-33665160D01*
X47038826Y-34071186D01*
X46288586Y-34821426D01*
X45882560Y-35801661D01*
X45338200Y-35801661D01*
X45338200Y-27318986D01*
X46470094Y-27318986D01*
X46477120Y-27745030D01*
X46477120Y-28171209D01*
X46484440Y-28188880D01*
X46484755Y-28208003D01*
X46796760Y-28961250D01*
X46806467Y-28966322D01*
X46817379Y-28992666D01*
X47446094Y-29621381D01*
X47472438Y-29632293D01*
X47477510Y-29642000D01*
X47873828Y-29798554D01*
X48267551Y-29961640D01*
X48286680Y-29961640D01*
X48304466Y-29968666D01*
X48730510Y-29961640D01*
X49156689Y-29961640D01*
X49174360Y-29954320D01*
X49193483Y-29954005D01*
X49946730Y-29642000D01*
X49951802Y-29632293D01*
X49978146Y-29621381D01*
X50606861Y-28992666D01*
X50617773Y-28966322D01*
X50627480Y-28961250D01*
X50784034Y-28564932D01*
X50947120Y-28171209D01*
X50947120Y-28152080D01*
X50954146Y-28134294D01*
X50947120Y-27708250D01*
X50947120Y-27584400D01*
X52818894Y-27584400D01*
X52992356Y-28456454D01*
X53486335Y-29195745D01*
X54225626Y-29689724D01*
X54877552Y-29819400D01*
X55317808Y-29819400D01*
X55969734Y-29689724D01*
X56709025Y-29195745D01*
X57203004Y-28456454D01*
X57376466Y-27584400D01*
X57203004Y-26712346D01*
X56716606Y-25984400D01*
X68090240Y-25984400D01*
X68090240Y-29184400D01*
X68139523Y-29432165D01*
X68279871Y-29642209D01*
X68489915Y-29782557D01*
X68737680Y-29831840D01*
X71937680Y-29831840D01*
X72185445Y-29782557D01*
X72395489Y-29642209D01*
X72535837Y-29432165D01*
X72585120Y-29184400D01*
X72585120Y-27385160D01*
X77756160Y-27385160D01*
X77756160Y-29785160D01*
X77805443Y-30032925D01*
X77945791Y-30242969D01*
X78155835Y-30383317D01*
X78403600Y-30432600D01*
X80803600Y-30432600D01*
X81051365Y-30383317D01*
X81261409Y-30242969D01*
X81401757Y-30032925D01*
X81451040Y-29785160D01*
X81451040Y-27914028D01*
X101570790Y-27914028D01*
X101570790Y-29185173D01*
X101651182Y-29589332D01*
X101957421Y-30047650D01*
X102415739Y-30353888D01*
X102956360Y-30461424D01*
X103496982Y-30353888D01*
X103955300Y-30047650D01*
X104226360Y-29641980D01*
X104497421Y-30047650D01*
X104955739Y-30353888D01*
X105496360Y-30461424D01*
X106036982Y-30353888D01*
X106495300Y-30047650D01*
X106766360Y-29641980D01*
X107037421Y-30047650D01*
X107495739Y-30353888D01*
X108036360Y-30461424D01*
X108576982Y-30353888D01*
X109035300Y-30047650D01*
X109341538Y-29589332D01*
X109421930Y-29185173D01*
X109421930Y-27914027D01*
X109341538Y-27509868D01*
X109203812Y-27303746D01*
X135573294Y-27303746D01*
X135580320Y-27729790D01*
X135580320Y-28155969D01*
X135587640Y-28173640D01*
X135587955Y-28192763D01*
X135899960Y-28946010D01*
X135909667Y-28951082D01*
X135920579Y-28977426D01*
X136549294Y-29606141D01*
X136575638Y-29617053D01*
X136580710Y-29626760D01*
X136977028Y-29783314D01*
X137370751Y-29946400D01*
X137389880Y-29946400D01*
X137407666Y-29953426D01*
X137833710Y-29946400D01*
X138259889Y-29946400D01*
X138277560Y-29939080D01*
X138296683Y-29938765D01*
X139049930Y-29626760D01*
X139055002Y-29617053D01*
X139081346Y-29606141D01*
X139710061Y-28977426D01*
X139720973Y-28951082D01*
X139730680Y-28946010D01*
X139887234Y-28549692D01*
X140050320Y-28155969D01*
X140050320Y-28136840D01*
X140057346Y-28119054D01*
X140050320Y-27693010D01*
X140050320Y-27266831D01*
X140043000Y-27249160D01*
X140042685Y-27230037D01*
X139730680Y-26476790D01*
X139720973Y-26471718D01*
X139710061Y-26445374D01*
X139081346Y-25816659D01*
X139055002Y-25805747D01*
X139049930Y-25796040D01*
X138653612Y-25639486D01*
X138259889Y-25476400D01*
X138240760Y-25476400D01*
X138222974Y-25469374D01*
X137796930Y-25476400D01*
X137370751Y-25476400D01*
X137353080Y-25483720D01*
X137333957Y-25484035D01*
X136580710Y-25796040D01*
X136575638Y-25805747D01*
X136549294Y-25816659D01*
X135920579Y-26445374D01*
X135909667Y-26471718D01*
X135899960Y-26476790D01*
X135743406Y-26873108D01*
X135580320Y-27266831D01*
X135580320Y-27285960D01*
X135573294Y-27303746D01*
X109203812Y-27303746D01*
X109035299Y-27051550D01*
X108576981Y-26745312D01*
X108036360Y-26637776D01*
X107495738Y-26745312D01*
X107037420Y-27051551D01*
X106766360Y-27457221D01*
X106495299Y-27051550D01*
X106036981Y-26745312D01*
X105496360Y-26637776D01*
X104955738Y-26745312D01*
X104497420Y-27051551D01*
X104226360Y-27457221D01*
X103955299Y-27051550D01*
X103496981Y-26745312D01*
X102956360Y-26637776D01*
X102415738Y-26745312D01*
X101957420Y-27051551D01*
X101651182Y-27509869D01*
X101570790Y-27914028D01*
X81451040Y-27914028D01*
X81451040Y-27385160D01*
X81401757Y-27137395D01*
X81261409Y-26927351D01*
X81051365Y-26787003D01*
X80803600Y-26737720D01*
X78403600Y-26737720D01*
X78155835Y-26787003D01*
X77945791Y-26927351D01*
X77805443Y-27137395D01*
X77756160Y-27385160D01*
X72585120Y-27385160D01*
X72585120Y-25984400D01*
X72535837Y-25736635D01*
X72395489Y-25526591D01*
X72185445Y-25386243D01*
X71937680Y-25336960D01*
X68737680Y-25336960D01*
X68489915Y-25386243D01*
X68279871Y-25526591D01*
X68139523Y-25736635D01*
X68090240Y-25984400D01*
X56716606Y-25984400D01*
X56709025Y-25973055D01*
X55969734Y-25479076D01*
X55317808Y-25349400D01*
X54877552Y-25349400D01*
X54225626Y-25479076D01*
X53486335Y-25973055D01*
X52992356Y-26712346D01*
X52818894Y-27584400D01*
X50947120Y-27584400D01*
X50947120Y-27282071D01*
X50939800Y-27264400D01*
X50939485Y-27245277D01*
X50627480Y-26492030D01*
X50617773Y-26486958D01*
X50606861Y-26460614D01*
X49978146Y-25831899D01*
X49951802Y-25820987D01*
X49946730Y-25811280D01*
X49550412Y-25654726D01*
X49156689Y-25491640D01*
X49137560Y-25491640D01*
X49119774Y-25484614D01*
X48693730Y-25491640D01*
X48267551Y-25491640D01*
X48249880Y-25498960D01*
X48230757Y-25499275D01*
X47477510Y-25811280D01*
X47472438Y-25820987D01*
X47446094Y-25831899D01*
X46817379Y-26460614D01*
X46806467Y-26486958D01*
X46796760Y-26492030D01*
X46640206Y-26888348D01*
X46477120Y-27282071D01*
X46477120Y-27301200D01*
X46470094Y-27318986D01*
X45338200Y-27318986D01*
X45338200Y-23743120D01*
X141534680Y-23743120D01*
X141534680Y-48502714D01*
X141534680Y-48502714D01*
G37*
X141534680Y-48502714D02*
X141407131Y-112700133D01*
X79338186Y-112863438D01*
X45338200Y-112833354D01*
X45338200Y-111070825D01*
X45345041Y-110850201D01*
X45338200Y-110809206D01*
X45338200Y-108350066D01*
X46470094Y-108350066D01*
X46477120Y-108776110D01*
X46477120Y-109202289D01*
X46484440Y-109219960D01*
X46484755Y-109239083D01*
X46796760Y-109992330D01*
X46806467Y-109997402D01*
X46817379Y-110023746D01*
X47446094Y-110652461D01*
X47472438Y-110663373D01*
X47477510Y-110673080D01*
X47873828Y-110829634D01*
X48267551Y-110992720D01*
X48286680Y-110992720D01*
X48304466Y-110999746D01*
X48730510Y-110992720D01*
X49156689Y-110992720D01*
X49174360Y-110985400D01*
X49193483Y-110985085D01*
X49946730Y-110673080D01*
X49951802Y-110663373D01*
X49978146Y-110652461D01*
X50606861Y-110023746D01*
X50617773Y-109997402D01*
X50627480Y-109992330D01*
X50784034Y-109596012D01*
X50947120Y-109202289D01*
X50947120Y-109183160D01*
X50954146Y-109165374D01*
X50947120Y-108739330D01*
X50947120Y-108313151D01*
X50939800Y-108295480D01*
X50939485Y-108276357D01*
X50627480Y-107523110D01*
X50617773Y-107518038D01*
X50606861Y-107491694D01*
X49978146Y-106862979D01*
X49951802Y-106852067D01*
X49946730Y-106842360D01*
X49550412Y-106685806D01*
X49156689Y-106522720D01*
X49137560Y-106522720D01*
X49119774Y-106515694D01*
X48693730Y-106522720D01*
X48267551Y-106522720D01*
X48249880Y-106530040D01*
X48230757Y-106530355D01*
X47477510Y-106842360D01*
X47472438Y-106852067D01*
X47446094Y-106862979D01*
X46817379Y-107491694D01*
X46806467Y-107518038D01*
X46796760Y-107523110D01*
X46640206Y-107919428D01*
X46477120Y-108313151D01*
X46477120Y-108332280D01*
X46470094Y-108350066D01*
X45338200Y-108350066D01*
X45338200Y-104561067D01*
X78030070Y-104561067D01*
X78030070Y-105832212D01*
X78110462Y-106236371D01*
X78416700Y-106694689D01*
X78875018Y-107000928D01*
X79415640Y-107108464D01*
X79956261Y-107000928D01*
X80414579Y-106694690D01*
X80685640Y-106289019D01*
X80956700Y-106694689D01*
X81415018Y-107000928D01*
X81955640Y-107108464D01*
X82496261Y-107000928D01*
X82954579Y-106694690D01*
X83225640Y-106289019D01*
X83496700Y-106694689D01*
X83955018Y-107000928D01*
X84495640Y-107108464D01*
X85036261Y-107000928D01*
X85494579Y-106694690D01*
X85800818Y-106236372D01*
X85881210Y-105832213D01*
X85881210Y-104561067D01*
X85800818Y-104156908D01*
X85494580Y-103698590D01*
X85086255Y-103425756D01*
X94776440Y-103425756D01*
X94776440Y-104155764D01*
X95055802Y-104830204D01*
X95571996Y-105346398D01*
X96246436Y-105625760D01*
X96976444Y-105625760D01*
X97650884Y-105346398D01*
X98167078Y-104830204D01*
X98290863Y-104531360D01*
X105331720Y-104531360D01*
X105331720Y-107731360D01*
X105381003Y-107979125D01*
X105521351Y-108189169D01*
X105731395Y-108329517D01*
X105979160Y-108378800D01*
X109179160Y-108378800D01*
X109426925Y-108329517D01*
X109636969Y-108189169D01*
X109777317Y-107979125D01*
X109826600Y-107731360D01*
X109826600Y-106131360D01*
X120540374Y-106131360D01*
X120713836Y-107003414D01*
X121207815Y-107742705D01*
X121947106Y-108236684D01*
X122599032Y-108366360D01*
X123039288Y-108366360D01*
X123585554Y-108257701D01*
X125699520Y-108257701D01*
X125699520Y-109318699D01*
X126105546Y-110298934D01*
X126855786Y-111049174D01*
X127836021Y-111455200D01*
X128897019Y-111455200D01*
X129877254Y-111049174D01*
X130627494Y-110298934D01*
X131033520Y-109318699D01*
X131033520Y-108522786D01*
X135492014Y-108522786D01*
X135499040Y-108948830D01*
X135499040Y-109375009D01*
X135506360Y-109392680D01*
X135506675Y-109411803D01*
X135818680Y-110165050D01*
X135828387Y-110170122D01*
X135839299Y-110196466D01*
X136468014Y-110825181D01*
X136494358Y-110836093D01*
X136499430Y-110845800D01*
X136895748Y-111002354D01*
X137289471Y-111165440D01*
X137308600Y-111165440D01*
X137326386Y-111172466D01*
X137752430Y-111165440D01*
X138178609Y-111165440D01*
X138196280Y-111158120D01*
X138215403Y-111157805D01*
X138968650Y-110845800D01*
X138973722Y-110836093D01*
X139000066Y-110825181D01*
X139628781Y-110196466D01*
X139639693Y-110170122D01*
X139649400Y-110165050D01*
X139805954Y-109768732D01*
X139969040Y-109375009D01*
X139969040Y-109355880D01*
X139976066Y-109338094D01*
X139969040Y-108912050D01*
X139969040Y-108485871D01*
X139961720Y-108468200D01*
X139961405Y-108449077D01*
X139649400Y-107695830D01*
X139639693Y-107690758D01*
X139628781Y-107664414D01*
X139000066Y-107035699D01*
X138973722Y-107024787D01*
X138968650Y-107015080D01*
X138572332Y-106858526D01*
X138178609Y-106695440D01*
X138159480Y-106695440D01*
X138141694Y-106688414D01*
X137715650Y-106695440D01*
X137289471Y-106695440D01*
X137271800Y-106702760D01*
X137252677Y-106703075D01*
X136499430Y-107015080D01*
X136494358Y-107024787D01*
X136468014Y-107035699D01*
X135839299Y-107664414D01*
X135828387Y-107690758D01*
X135818680Y-107695830D01*
X135662126Y-108092148D01*
X135499040Y-108485871D01*
X135499040Y-108505000D01*
X135492014Y-108522786D01*
X131033520Y-108522786D01*
X131033520Y-108257701D01*
X130627494Y-107277466D01*
X129877254Y-106527226D01*
X128897019Y-106121200D01*
X127836021Y-106121200D01*
X126855786Y-106527226D01*
X126105546Y-107277466D01*
X125699520Y-108257701D01*
X123585554Y-108257701D01*
X123691214Y-108236684D01*
X124430505Y-107742705D01*
X124924484Y-107003414D01*
X125097946Y-106131360D01*
X124924484Y-105259306D01*
X124430505Y-104520015D01*
X123691214Y-104026036D01*
X123039288Y-103896360D01*
X122599032Y-103896360D01*
X121947106Y-104026036D01*
X121207815Y-104520015D01*
X120713836Y-105259306D01*
X120540374Y-106131360D01*
X109826600Y-106131360D01*
X109826600Y-104531360D01*
X109777317Y-104283595D01*
X109636969Y-104073551D01*
X109426925Y-103933203D01*
X109179160Y-103883920D01*
X105979160Y-103883920D01*
X105731395Y-103933203D01*
X105521351Y-104073551D01*
X105381003Y-104283595D01*
X105331720Y-104531360D01*
X98290863Y-104531360D01*
X98446440Y-104155764D01*
X98446440Y-103425756D01*
X98167078Y-102751316D01*
X97650884Y-102235122D01*
X96976444Y-101955760D01*
X96246436Y-101955760D01*
X95571996Y-102235122D01*
X95055802Y-102751316D01*
X94776440Y-103425756D01*
X85086255Y-103425756D01*
X85036262Y-103392352D01*
X84495640Y-103284816D01*
X83955019Y-103392352D01*
X83496701Y-103698590D01*
X83225640Y-104104260D01*
X82954580Y-103698590D01*
X82496262Y-103392352D01*
X81955640Y-103284816D01*
X81415019Y-103392352D01*
X80956701Y-103698590D01*
X80685640Y-104104260D01*
X80414580Y-103698590D01*
X79956262Y-103392352D01*
X79415640Y-103284816D01*
X78875019Y-103392352D01*
X78416701Y-103698590D01*
X78110462Y-104156908D01*
X78030070Y-104561067D01*
X45338200Y-104561067D01*
X45338200Y-97053298D01*
X56912000Y-97053298D01*
X56912000Y-97703742D01*
X57160914Y-98304673D01*
X57620847Y-98764606D01*
X58221778Y-99013520D01*
X58872222Y-99013520D01*
X59473153Y-98764606D01*
X59933086Y-98304673D01*
X60182000Y-97703742D01*
X60182000Y-97053298D01*
X61412000Y-97053298D01*
X61412000Y-97703742D01*
X61660914Y-98304673D01*
X62120847Y-98764606D01*
X62721778Y-99013520D01*
X63372222Y-99013520D01*
X63973153Y-98764606D01*
X64433086Y-98304673D01*
X64682000Y-97703742D01*
X64682000Y-97053298D01*
X64509150Y-96636000D01*
X67449120Y-96636000D01*
X67449120Y-98436000D01*
X67498403Y-98683765D01*
X67638751Y-98893809D01*
X67848795Y-99034157D01*
X68096560Y-99083440D01*
X69896560Y-99083440D01*
X70144325Y-99034157D01*
X70354369Y-98893809D01*
X70423224Y-98790760D01*
X94434613Y-98790760D01*
X94600314Y-99623796D01*
X94764000Y-99868769D01*
X94764000Y-99990760D01*
X94813283Y-100238525D01*
X94953631Y-100448569D01*
X95163675Y-100588917D01*
X95411440Y-100638200D01*
X95533431Y-100638200D01*
X95778404Y-100801886D01*
X96401161Y-100925760D01*
X100601165Y-100925760D01*
X100811440Y-100967586D01*
X101021715Y-100925760D01*
X101021719Y-100925760D01*
X101644476Y-100801886D01*
X102350689Y-100330009D01*
X102469804Y-100151741D01*
X104546865Y-98074680D01*
X105331720Y-98074680D01*
X105331720Y-101274680D01*
X105381003Y-101522445D01*
X105521351Y-101732489D01*
X105731395Y-101872837D01*
X105979160Y-101922120D01*
X109179160Y-101922120D01*
X109426925Y-101872837D01*
X109636969Y-101732489D01*
X109777317Y-101522445D01*
X109826600Y-101274680D01*
X109826600Y-99674680D01*
X120540374Y-99674680D01*
X120713836Y-100546734D01*
X121207815Y-101286025D01*
X121947106Y-101780004D01*
X122599032Y-101909680D01*
X123039288Y-101909680D01*
X123691214Y-101780004D01*
X124430505Y-101286025D01*
X124924484Y-100546734D01*
X125097946Y-99674680D01*
X124924484Y-98802626D01*
X124430505Y-98063335D01*
X124040978Y-97803061D01*
X134487920Y-97803061D01*
X134487920Y-98864059D01*
X134893946Y-99844294D01*
X135644186Y-100594534D01*
X136624421Y-101000560D01*
X137685419Y-101000560D01*
X138665654Y-100594534D01*
X139415894Y-99844294D01*
X139821920Y-98864059D01*
X139821920Y-97803061D01*
X139415894Y-96822826D01*
X138665654Y-96072586D01*
X137685419Y-95666560D01*
X136624421Y-95666560D01*
X135644186Y-96072586D01*
X134893946Y-96822826D01*
X134487920Y-97803061D01*
X124040978Y-97803061D01*
X123691214Y-97569356D01*
X123039288Y-97439680D01*
X122599032Y-97439680D01*
X121947106Y-97569356D01*
X121207815Y-98063335D01*
X120713836Y-98802626D01*
X120540374Y-99674680D01*
X109826600Y-99674680D01*
X109826600Y-98074680D01*
X109777317Y-97826915D01*
X109636969Y-97616871D01*
X109426925Y-97476523D01*
X109179160Y-97427240D01*
X105979160Y-97427240D01*
X105731395Y-97476523D01*
X105521351Y-97616871D01*
X105381003Y-97826915D01*
X105331720Y-98074680D01*
X104546865Y-98074680D01*
X108472506Y-94149040D01*
X123896545Y-94149040D01*
X124620808Y-94449040D01*
X125589512Y-94449040D01*
X126484476Y-94078333D01*
X127169453Y-93393356D01*
X127540160Y-92498392D01*
X127540160Y-91529688D01*
X127169453Y-90634724D01*
X126484476Y-89949747D01*
X125589512Y-89579040D01*
X124620808Y-89579040D01*
X123896545Y-89879040D01*
X107798434Y-89879040D01*
X107588159Y-89837214D01*
X107377884Y-89879040D01*
X107377881Y-89879040D01*
X106755124Y-90002914D01*
X106048911Y-90474791D01*
X105929798Y-90653056D01*
X99927095Y-96655760D01*
X96401161Y-96655760D01*
X95778404Y-96779634D01*
X95533431Y-96943320D01*
X95411440Y-96943320D01*
X95163675Y-96992603D01*
X94953631Y-97132951D01*
X94813283Y-97342995D01*
X94764000Y-97590760D01*
X94764000Y-97712751D01*
X94600314Y-97957724D01*
X94434613Y-98790760D01*
X70423224Y-98790760D01*
X70494717Y-98683765D01*
X70544000Y-98436000D01*
X70544000Y-96636000D01*
X70494717Y-96388235D01*
X70354369Y-96178191D01*
X70144325Y-96037843D01*
X70128652Y-96034725D01*
X70297870Y-95865507D01*
X70531560Y-95301330D01*
X70531560Y-94690670D01*
X70297870Y-94126493D01*
X69866067Y-93694690D01*
X69301890Y-93461000D01*
X68691230Y-93461000D01*
X68127053Y-93694690D01*
X67695250Y-94126493D01*
X67461560Y-94690670D01*
X67461560Y-95301330D01*
X67695250Y-95865507D01*
X67864468Y-96034725D01*
X67848795Y-96037843D01*
X67638751Y-96178191D01*
X67498403Y-96388235D01*
X67449120Y-96636000D01*
X64509150Y-96636000D01*
X64433086Y-96452367D01*
X63973153Y-95992434D01*
X63372222Y-95743520D01*
X62721778Y-95743520D01*
X62120847Y-95992434D01*
X61660914Y-96452367D01*
X61412000Y-97053298D01*
X60182000Y-97053298D01*
X59933086Y-96452367D01*
X59473153Y-95992434D01*
X58872222Y-95743520D01*
X58221778Y-95743520D01*
X57620847Y-95992434D01*
X57160914Y-96452367D01*
X56912000Y-97053298D01*
X45338200Y-97053298D01*
X45338200Y-90553298D01*
X56912000Y-90553298D01*
X56912000Y-91203742D01*
X57160914Y-91804673D01*
X57620847Y-92264606D01*
X58221778Y-92513520D01*
X58872222Y-92513520D01*
X59473153Y-92264606D01*
X59933086Y-91804673D01*
X60182000Y-91203742D01*
X60182000Y-90553298D01*
X61412000Y-90553298D01*
X61412000Y-91203742D01*
X61660914Y-91804673D01*
X62120847Y-92264606D01*
X62721778Y-92513520D01*
X63372222Y-92513520D01*
X63973153Y-92264606D01*
X64433086Y-91804673D01*
X64682000Y-91203742D01*
X64682000Y-90553298D01*
X64433086Y-89952367D01*
X63973153Y-89492434D01*
X63372222Y-89243520D01*
X62721778Y-89243520D01*
X62120847Y-89492434D01*
X61660914Y-89952367D01*
X61412000Y-90553298D01*
X60182000Y-90553298D01*
X59933086Y-89952367D01*
X59473153Y-89492434D01*
X58872222Y-89243520D01*
X58221778Y-89243520D01*
X57620847Y-89492434D01*
X57160914Y-89952367D01*
X56912000Y-90553298D01*
X45338200Y-90553298D01*
X45338200Y-89102241D01*
X67531080Y-89102241D01*
X67531080Y-89673119D01*
X67749546Y-90200542D01*
X68153218Y-90604214D01*
X68680641Y-90822680D01*
X69251519Y-90822680D01*
X69778942Y-90604214D01*
X70182614Y-90200542D01*
X70401080Y-89673119D01*
X70401080Y-89102241D01*
X73322280Y-89102241D01*
X73322280Y-89673119D01*
X73540746Y-90200542D01*
X73944418Y-90604214D01*
X74471841Y-90822680D01*
X75042719Y-90822680D01*
X75570142Y-90604214D01*
X75973814Y-90200542D01*
X76192280Y-89673119D01*
X76192280Y-89102241D01*
X76185968Y-89087001D01*
X80347920Y-89087001D01*
X80347920Y-89657879D01*
X80566386Y-90185302D01*
X80970058Y-90588974D01*
X81497481Y-90807440D01*
X82068359Y-90807440D01*
X82595782Y-90588974D01*
X82999454Y-90185302D01*
X83217920Y-89657879D01*
X83217920Y-89087001D01*
X84823400Y-89087001D01*
X84823400Y-89657879D01*
X85041866Y-90185302D01*
X85445538Y-90588974D01*
X85972961Y-90807440D01*
X86543839Y-90807440D01*
X87071262Y-90588974D01*
X87474934Y-90185302D01*
X87693400Y-89657879D01*
X87693400Y-89087001D01*
X90040560Y-89087001D01*
X90040560Y-89657879D01*
X90259026Y-90185302D01*
X90662698Y-90588974D01*
X91190121Y-90807440D01*
X91760999Y-90807440D01*
X92288422Y-90588974D01*
X92692094Y-90185302D01*
X92910560Y-89657879D01*
X92910560Y-89372440D01*
X94889247Y-89372440D01*
X95000620Y-89932349D01*
X95317783Y-90407017D01*
X95792451Y-90724180D01*
X96211027Y-90807440D01*
X96493693Y-90807440D01*
X96912269Y-90724180D01*
X97386937Y-90407017D01*
X97704100Y-89932349D01*
X97815473Y-89372440D01*
X97704100Y-88812531D01*
X97386937Y-88337863D01*
X96912269Y-88020700D01*
X96493693Y-87937440D01*
X96211027Y-87937440D01*
X95792451Y-88020700D01*
X95317783Y-88337863D01*
X95000620Y-88812531D01*
X94889247Y-89372440D01*
X92910560Y-89372440D01*
X92910560Y-89087001D01*
X92692094Y-88559578D01*
X92288422Y-88155906D01*
X91760999Y-87937440D01*
X91190121Y-87937440D01*
X90662698Y-88155906D01*
X90259026Y-88559578D01*
X90040560Y-89087001D01*
X87693400Y-89087001D01*
X87474934Y-88559578D01*
X87071262Y-88155906D01*
X86543839Y-87937440D01*
X85972961Y-87937440D01*
X85445538Y-88155906D01*
X85041866Y-88559578D01*
X84823400Y-89087001D01*
X83217920Y-89087001D01*
X82999454Y-88559578D01*
X82595782Y-88155906D01*
X82068359Y-87937440D01*
X81497481Y-87937440D01*
X80970058Y-88155906D01*
X80566386Y-88559578D01*
X80347920Y-89087001D01*
X76185968Y-89087001D01*
X75973814Y-88574818D01*
X75570142Y-88171146D01*
X75042719Y-87952680D01*
X74471841Y-87952680D01*
X73944418Y-88171146D01*
X73540746Y-88574818D01*
X73322280Y-89102241D01*
X70401080Y-89102241D01*
X70182614Y-88574818D01*
X69778942Y-88171146D01*
X69251519Y-87952680D01*
X68680641Y-87952680D01*
X68153218Y-88171146D01*
X67749546Y-88574818D01*
X67531080Y-89102241D01*
X45338200Y-89102241D01*
X45338200Y-76091141D01*
X45841920Y-76091141D01*
X45841920Y-77152139D01*
X46247946Y-78132374D01*
X46998186Y-78882614D01*
X47978421Y-79288640D01*
X49039419Y-79288640D01*
X50019654Y-78882614D01*
X50769894Y-78132374D01*
X51175920Y-77152139D01*
X51175920Y-76687680D01*
X67502967Y-76687680D01*
X67614340Y-77247589D01*
X67931503Y-77722257D01*
X68406171Y-78039420D01*
X68824747Y-78122680D01*
X69107413Y-78122680D01*
X69525989Y-78039420D01*
X70000657Y-77722257D01*
X70317820Y-77247589D01*
X70429193Y-76687680D01*
X73294167Y-76687680D01*
X73405540Y-77247589D01*
X73722703Y-77722257D01*
X74197371Y-78039420D01*
X74615947Y-78122680D01*
X74898613Y-78122680D01*
X75317189Y-78039420D01*
X75791857Y-77722257D01*
X76109020Y-77247589D01*
X76220393Y-76687680D01*
X76217362Y-76672440D01*
X80319807Y-76672440D01*
X80431180Y-77232349D01*
X80748343Y-77707017D01*
X81223011Y-78024180D01*
X81641587Y-78107440D01*
X81924253Y-78107440D01*
X82342829Y-78024180D01*
X82817497Y-77707017D01*
X83134660Y-77232349D01*
X83246033Y-76672440D01*
X83134660Y-76112531D01*
X82817497Y-75637863D01*
X82342829Y-75320700D01*
X81924253Y-75237440D01*
X81641587Y-75237440D01*
X81223011Y-75320700D01*
X80748343Y-75637863D01*
X80431180Y-76112531D01*
X80319807Y-76672440D01*
X76217362Y-76672440D01*
X76109020Y-76127771D01*
X75791857Y-75653103D01*
X75317189Y-75335940D01*
X74898613Y-75252680D01*
X74615947Y-75252680D01*
X74197371Y-75335940D01*
X73722703Y-75653103D01*
X73405540Y-76127771D01*
X73294167Y-76687680D01*
X70429193Y-76687680D01*
X70351080Y-76294980D01*
X70351080Y-71343165D01*
X76865125Y-64829120D01*
X80748913Y-64829120D01*
X80332271Y-65107511D01*
X80255002Y-65223152D01*
X76784555Y-68693600D01*
X75138030Y-68693600D01*
X75017319Y-68643600D01*
X74446441Y-68643600D01*
X73919018Y-68862066D01*
X73515346Y-69265738D01*
X73296880Y-69793161D01*
X73296880Y-70364039D01*
X73515346Y-70891462D01*
X73919018Y-71295134D01*
X74446441Y-71513600D01*
X75017319Y-71513600D01*
X75138030Y-71463600D01*
X77221833Y-71463600D01*
X77358240Y-71490733D01*
X77494647Y-71463600D01*
X77898640Y-71383241D01*
X78356769Y-71077129D01*
X78434039Y-70961486D01*
X79316925Y-70078600D01*
X85968767Y-70078600D01*
X86080140Y-70638509D01*
X86397303Y-71113177D01*
X86871971Y-71430340D01*
X87290547Y-71513600D01*
X87573213Y-71513600D01*
X87991789Y-71430340D01*
X88466457Y-71113177D01*
X88783620Y-70638509D01*
X88894993Y-70078600D01*
X88783620Y-69518691D01*
X88466457Y-69044023D01*
X87991789Y-68726860D01*
X87573213Y-68643600D01*
X87290547Y-68643600D01*
X86871971Y-68726860D01*
X86397303Y-69044023D01*
X86080140Y-69518691D01*
X85968767Y-70078600D01*
X79316925Y-70078600D01*
X81904486Y-67491040D01*
X88570553Y-67491040D01*
X88706960Y-67518173D01*
X88843367Y-67491040D01*
X89247360Y-67410681D01*
X89705489Y-67104569D01*
X89782760Y-66988925D01*
X90306805Y-66464880D01*
X91545769Y-66464880D01*
X91365543Y-66585303D01*
X91048380Y-67059971D01*
X90937007Y-67619880D01*
X91048380Y-68179789D01*
X91365543Y-68654457D01*
X91717878Y-68889880D01*
X91365543Y-69125303D01*
X91048380Y-69599971D01*
X90937007Y-70159880D01*
X91048380Y-70719789D01*
X91365543Y-71194457D01*
X91840211Y-71511620D01*
X92258787Y-71594880D01*
X92541453Y-71594880D01*
X92960029Y-71511620D01*
X93434697Y-71194457D01*
X93751860Y-70719789D01*
X93863233Y-70159880D01*
X93751860Y-69599971D01*
X93434697Y-69125303D01*
X93082362Y-68889880D01*
X93434697Y-68654457D01*
X93751860Y-68179789D01*
X93863233Y-67619880D01*
X93751860Y-67059971D01*
X93434697Y-66585303D01*
X93082362Y-66349880D01*
X93434697Y-66114457D01*
X93751860Y-65639789D01*
X93863233Y-65079880D01*
X93751860Y-64519971D01*
X93434697Y-64045303D01*
X93314014Y-63964665D01*
X93447885Y-63938037D01*
X93657929Y-63797689D01*
X93798277Y-63587645D01*
X93847560Y-63339880D01*
X93847560Y-61739880D01*
X93798277Y-61492115D01*
X93657929Y-61282071D01*
X93447885Y-61141723D01*
X93200120Y-61092440D01*
X91600120Y-61092440D01*
X91352355Y-61141723D01*
X91142311Y-61282071D01*
X91001963Y-61492115D01*
X90952680Y-61739880D01*
X90952680Y-63339880D01*
X91001963Y-63587645D01*
X91073616Y-63694880D01*
X89869521Y-63694880D01*
X89733119Y-63667748D01*
X89596717Y-63694880D01*
X89596713Y-63694880D01*
X89192720Y-63775239D01*
X88734591Y-64081351D01*
X88657320Y-64196995D01*
X88133275Y-64721040D01*
X85351847Y-64721040D01*
X85768489Y-64442649D01*
X85845759Y-64327006D01*
X89585446Y-60587320D01*
X92903793Y-60587320D01*
X93040200Y-60614453D01*
X93176607Y-60587320D01*
X93580600Y-60506961D01*
X94038729Y-60200849D01*
X94115999Y-60085206D01*
X96600248Y-57600958D01*
X96715889Y-57523689D01*
X97022001Y-57065560D01*
X97102360Y-56661567D01*
X97129493Y-56525160D01*
X97102360Y-56388753D01*
X97102360Y-50597515D01*
X97129493Y-50461109D01*
X97100903Y-50317377D01*
X97022001Y-49920710D01*
X96877975Y-49705160D01*
X96793157Y-49578221D01*
X96793155Y-49578219D01*
X96715888Y-49462581D01*
X96600250Y-49385314D01*
X94602209Y-47387274D01*
X94524939Y-47271631D01*
X94066810Y-46965519D01*
X93714655Y-46895471D01*
X93793197Y-46777925D01*
X93842480Y-46530160D01*
X93842480Y-44930160D01*
X93793197Y-44682395D01*
X93652849Y-44472351D01*
X93442805Y-44332003D01*
X93195040Y-44282720D01*
X91595040Y-44282720D01*
X91347275Y-44332003D01*
X91327584Y-44345160D01*
X90231445Y-44345160D01*
X90095039Y-44318027D01*
X89958633Y-44345160D01*
X89554640Y-44425519D01*
X89096511Y-44731631D01*
X89019242Y-44847272D01*
X87885032Y-45981483D01*
X87769392Y-46058751D01*
X87692123Y-46174392D01*
X87463279Y-46516881D01*
X87355787Y-47057280D01*
X87382921Y-47193692D01*
X87382920Y-54417793D01*
X87365383Y-54505960D01*
X87304987Y-54809590D01*
X87332120Y-54945997D01*
X87332120Y-55534810D01*
X87282120Y-55655521D01*
X87282120Y-56226399D01*
X87500586Y-56753822D01*
X87904258Y-57157494D01*
X88431681Y-57375960D01*
X89002559Y-57375960D01*
X89529982Y-57157494D01*
X89933654Y-56753822D01*
X90152120Y-56226399D01*
X90152120Y-55655521D01*
X90102120Y-55534810D01*
X90102120Y-55150586D01*
X90152920Y-54895197D01*
X90152920Y-54895196D01*
X90180053Y-54758791D01*
X90152920Y-54622385D01*
X90152920Y-47630965D01*
X90668726Y-47115160D01*
X91327584Y-47115160D01*
X91347275Y-47128317D01*
X91481146Y-47154945D01*
X91360463Y-47235583D01*
X91043300Y-47710251D01*
X90931927Y-48270160D01*
X91043300Y-48830069D01*
X91360463Y-49304737D01*
X91712798Y-49540160D01*
X91360463Y-49775583D01*
X91043300Y-50250251D01*
X90931927Y-50810160D01*
X91043300Y-51370069D01*
X91360463Y-51844737D01*
X91712798Y-52080160D01*
X91360463Y-52315583D01*
X91043300Y-52790251D01*
X90931927Y-53350160D01*
X91043300Y-53910069D01*
X91360463Y-54384737D01*
X91835131Y-54701900D01*
X92253707Y-54785160D01*
X92536373Y-54785160D01*
X92954949Y-54701900D01*
X93429617Y-54384737D01*
X93746780Y-53910069D01*
X93858153Y-53350160D01*
X93746780Y-52790251D01*
X93429617Y-52315583D01*
X93077282Y-52080160D01*
X93429617Y-51844737D01*
X93746780Y-51370069D01*
X93858153Y-50810160D01*
X93796184Y-50498619D01*
X94332360Y-51034796D01*
X94332361Y-55951473D01*
X92466515Y-57817320D01*
X89148165Y-57817320D01*
X89011759Y-57790187D01*
X88875353Y-57817320D01*
X88471360Y-57897679D01*
X88013231Y-58203791D01*
X87935962Y-58319432D01*
X84196275Y-62059120D01*
X76427841Y-62059120D01*
X76291439Y-62031988D01*
X76155037Y-62059120D01*
X76155033Y-62059120D01*
X75751040Y-62139479D01*
X75292911Y-62445591D01*
X75215640Y-62561235D01*
X68083192Y-69693683D01*
X67967551Y-69770952D01*
X67809201Y-70007940D01*
X67661439Y-70229081D01*
X67553947Y-70769480D01*
X67581080Y-70905887D01*
X67581081Y-76294975D01*
X67502967Y-76687680D01*
X51175920Y-76687680D01*
X51175920Y-76091141D01*
X50769894Y-75110906D01*
X50019654Y-74360666D01*
X49039419Y-73954640D01*
X47978421Y-73954640D01*
X46998186Y-74360666D01*
X46247946Y-75110906D01*
X45841920Y-76091141D01*
X45338200Y-76091141D01*
X45338200Y-68656200D01*
X51582247Y-68656200D01*
X51693620Y-69216109D01*
X52010783Y-69690777D01*
X52485451Y-70007940D01*
X52904027Y-70091200D01*
X53186693Y-70091200D01*
X53605269Y-70007940D01*
X54079937Y-69690777D01*
X54397100Y-69216109D01*
X54508473Y-68656200D01*
X54397100Y-68096291D01*
X54079937Y-67621623D01*
X53605269Y-67304460D01*
X53186693Y-67221200D01*
X52904027Y-67221200D01*
X52485451Y-67304460D01*
X52010783Y-67621623D01*
X51693620Y-68096291D01*
X51582247Y-68656200D01*
X45338200Y-68656200D01*
X45338200Y-65573396D01*
X60983000Y-65573396D01*
X60983000Y-66303404D01*
X61262362Y-66977844D01*
X61778556Y-67494038D01*
X62452996Y-67773400D01*
X63183004Y-67773400D01*
X63857444Y-67494038D01*
X64373638Y-66977844D01*
X64653000Y-66303404D01*
X64653000Y-65573396D01*
X64373638Y-64898956D01*
X64213082Y-64738400D01*
X65970560Y-64738400D01*
X65970560Y-67138400D01*
X66019843Y-67386165D01*
X66160191Y-67596209D01*
X66370235Y-67736557D01*
X66618000Y-67785840D01*
X69018000Y-67785840D01*
X69265765Y-67736557D01*
X69475809Y-67596209D01*
X69616157Y-67386165D01*
X69665440Y-67138400D01*
X69665440Y-64738400D01*
X69616157Y-64490635D01*
X69475809Y-64280591D01*
X69265765Y-64140243D01*
X69203000Y-64127758D01*
X69203000Y-59588045D01*
X70527769Y-58263276D01*
X75257800Y-58263276D01*
X75257800Y-58993284D01*
X75537162Y-59667724D01*
X76053356Y-60183918D01*
X76727796Y-60463280D01*
X77457804Y-60463280D01*
X78132244Y-60183918D01*
X78648438Y-59667724D01*
X78927800Y-58993284D01*
X78927800Y-58263276D01*
X78648438Y-57588836D01*
X78487882Y-57428280D01*
X80245360Y-57428280D01*
X80245360Y-59828280D01*
X80294643Y-60076045D01*
X80434991Y-60286089D01*
X80645035Y-60426437D01*
X80892800Y-60475720D01*
X83292800Y-60475720D01*
X83540565Y-60426437D01*
X83750609Y-60286089D01*
X83890957Y-60076045D01*
X83940240Y-59828280D01*
X83940240Y-57428280D01*
X83890957Y-57180515D01*
X83750609Y-56970471D01*
X83540565Y-56830123D01*
X83477800Y-56817638D01*
X83477800Y-56501965D01*
X86191330Y-53788436D01*
X86306968Y-53711169D01*
X86384235Y-53595531D01*
X86384237Y-53595529D01*
X86613081Y-53253040D01*
X86720573Y-52712640D01*
X86693440Y-52576233D01*
X86693440Y-43240960D01*
X87254007Y-43240960D01*
X87365380Y-43800869D01*
X87682543Y-44275537D01*
X88157211Y-44592700D01*
X88575787Y-44675960D01*
X88858453Y-44675960D01*
X89277029Y-44592700D01*
X89751697Y-44275537D01*
X90068860Y-43800869D01*
X90180233Y-43240960D01*
X90068860Y-42681051D01*
X89751697Y-42206383D01*
X89277029Y-41889220D01*
X88858453Y-41805960D01*
X88575787Y-41805960D01*
X88157211Y-41889220D01*
X87682543Y-42206383D01*
X87365380Y-42681051D01*
X87254007Y-43240960D01*
X86693440Y-43240960D01*
X86693440Y-41833445D01*
X86974326Y-41552560D01*
X92690035Y-41552560D01*
X95627760Y-44490286D01*
X95627761Y-46665629D01*
X95600627Y-46802040D01*
X95708119Y-47342439D01*
X95708120Y-47342440D01*
X96014232Y-47800569D01*
X96129872Y-47877837D01*
X97405082Y-49153048D01*
X97482351Y-49268689D01*
X97940480Y-49574801D01*
X98344473Y-49655160D01*
X98480879Y-49682293D01*
X98617285Y-49655160D01*
X99160689Y-49655160D01*
X98980463Y-49775583D01*
X98663300Y-50250251D01*
X98551927Y-50810160D01*
X98663300Y-51370069D01*
X98980463Y-51844737D01*
X99332798Y-52080160D01*
X98980463Y-52315583D01*
X98663300Y-52790251D01*
X98551927Y-53350160D01*
X98663300Y-53910069D01*
X98980463Y-54384737D01*
X99313380Y-54607185D01*
X103023562Y-58317368D01*
X103100831Y-58433009D01*
X103216471Y-58510277D01*
X103558960Y-58739121D01*
X104099360Y-58846613D01*
X104235767Y-58819480D01*
X104504220Y-58819480D01*
X104755587Y-58869480D01*
X105038253Y-58869480D01*
X105456829Y-58786220D01*
X105854880Y-58520251D01*
X105854880Y-60063148D01*
X104513149Y-61404880D01*
X100904403Y-61404880D01*
X100580029Y-61188140D01*
X100161453Y-61104880D01*
X99878787Y-61104880D01*
X99460211Y-61188140D01*
X98985543Y-61505303D01*
X98668380Y-61979971D01*
X98557007Y-62539880D01*
X98668380Y-63099789D01*
X98985543Y-63574457D01*
X99337878Y-63809880D01*
X98985543Y-64045303D01*
X98668380Y-64519971D01*
X98557007Y-65079880D01*
X98668380Y-65639789D01*
X98985543Y-66114457D01*
X99337878Y-66349880D01*
X98985543Y-66585303D01*
X98668380Y-67059971D01*
X98557007Y-67619880D01*
X98668380Y-68179789D01*
X98985543Y-68654457D01*
X99337878Y-68889880D01*
X98985543Y-69125303D01*
X98763094Y-69458222D01*
X98646437Y-69574879D01*
X97609008Y-69574879D01*
X97472601Y-69547746D01*
X97336194Y-69574879D01*
X96932201Y-69655238D01*
X96474072Y-69961350D01*
X96396803Y-70076991D01*
X94269915Y-72203880D01*
X88538565Y-72203880D01*
X88402159Y-72176747D01*
X88265753Y-72203880D01*
X87861760Y-72284239D01*
X87403631Y-72590351D01*
X87326360Y-72705995D01*
X85527912Y-74504443D01*
X85412271Y-74581712D01*
X85335003Y-74697352D01*
X85106159Y-75039841D01*
X84998667Y-75580240D01*
X85025800Y-75716647D01*
X85025800Y-75934225D01*
X84906660Y-76112531D01*
X84795287Y-76672440D01*
X84906660Y-77232349D01*
X85223823Y-77707017D01*
X85698491Y-78024180D01*
X86117067Y-78107440D01*
X86399733Y-78107440D01*
X86818309Y-78024180D01*
X87292977Y-77707017D01*
X87610140Y-77232349D01*
X87614194Y-77211966D01*
X87715441Y-77060440D01*
X87792618Y-76672440D01*
X90012447Y-76672440D01*
X90090561Y-77065144D01*
X90090560Y-80056473D01*
X90063427Y-80192880D01*
X90090560Y-80329286D01*
X90170919Y-80733279D01*
X90477031Y-81191408D01*
X90592672Y-81268677D01*
X94260562Y-84936568D01*
X94337831Y-85052209D01*
X94453471Y-85129477D01*
X94795960Y-85358321D01*
X95336360Y-85465813D01*
X95472767Y-85438680D01*
X102059265Y-85438680D01*
X102340193Y-85494560D01*
X102476599Y-85521693D01*
X102613005Y-85494560D01*
X103559485Y-85494560D01*
X103728835Y-85607717D01*
X103976600Y-85657000D01*
X105776600Y-85657000D01*
X106024365Y-85607717D01*
X106234409Y-85467369D01*
X106374757Y-85257325D01*
X106424040Y-85009560D01*
X106424040Y-83209560D01*
X106374757Y-82961795D01*
X106234409Y-82751751D01*
X106024365Y-82611403D01*
X106008692Y-82608285D01*
X106177910Y-82439067D01*
X106411600Y-81874890D01*
X106411600Y-81264230D01*
X106177910Y-80700053D01*
X105746107Y-80268250D01*
X105181930Y-80034560D01*
X104571270Y-80034560D01*
X104007093Y-80268250D01*
X103575290Y-80700053D01*
X103341600Y-81264230D01*
X103341600Y-81874890D01*
X103575290Y-82439067D01*
X103744508Y-82608285D01*
X103728835Y-82611403D01*
X103559485Y-82724560D01*
X102838055Y-82724560D01*
X102557127Y-82668680D01*
X102420720Y-82641547D01*
X102284313Y-82668680D01*
X95910046Y-82668680D01*
X92860560Y-79619195D01*
X92860560Y-77065140D01*
X92938673Y-76672440D01*
X92881896Y-76387001D01*
X94917360Y-76387001D01*
X94917360Y-76957879D01*
X95135826Y-77485302D01*
X95539498Y-77888974D01*
X96066921Y-78107440D01*
X96637799Y-78107440D01*
X97165222Y-77888974D01*
X97568894Y-77485302D01*
X97787360Y-76957879D01*
X97787360Y-76930680D01*
X103329160Y-76930680D01*
X103329160Y-78730680D01*
X103378443Y-78978445D01*
X103518791Y-79188489D01*
X103728835Y-79328837D01*
X103976600Y-79378120D01*
X105776600Y-79378120D01*
X106024365Y-79328837D01*
X106234409Y-79188489D01*
X106374757Y-78978445D01*
X106404346Y-78829688D01*
X122670160Y-78829688D01*
X122670160Y-79798392D01*
X123040867Y-80693356D01*
X123725844Y-81378333D01*
X124620808Y-81749040D01*
X125589512Y-81749040D01*
X126484476Y-81378333D01*
X127169453Y-80693356D01*
X127540160Y-79798392D01*
X127540160Y-78829688D01*
X127169453Y-77934724D01*
X126484476Y-77249747D01*
X125589512Y-76879040D01*
X124620808Y-76879040D01*
X123725844Y-77249747D01*
X123040867Y-77934724D01*
X122670160Y-78829688D01*
X106404346Y-78829688D01*
X106424040Y-78730680D01*
X106424040Y-76930680D01*
X106374757Y-76682915D01*
X106234409Y-76472871D01*
X106024365Y-76332523D01*
X106008692Y-76329405D01*
X106177910Y-76160187D01*
X106411600Y-75596010D01*
X106411600Y-74985350D01*
X106177910Y-74421173D01*
X105746107Y-73989370D01*
X105181930Y-73755680D01*
X104571270Y-73755680D01*
X104007093Y-73989370D01*
X103575290Y-74421173D01*
X103341600Y-74985350D01*
X103341600Y-75596010D01*
X103575290Y-76160187D01*
X103744508Y-76329405D01*
X103728835Y-76332523D01*
X103518791Y-76472871D01*
X103378443Y-76682915D01*
X103329160Y-76930680D01*
X97787360Y-76930680D01*
X97787360Y-76387001D01*
X97568894Y-75859578D01*
X97165222Y-75455906D01*
X96637799Y-75237440D01*
X96066921Y-75237440D01*
X95539498Y-75455906D01*
X95135826Y-75859578D01*
X94917360Y-76387001D01*
X92881896Y-76387001D01*
X92827300Y-76112531D01*
X92510137Y-75637863D01*
X92035469Y-75320700D01*
X91616893Y-75237440D01*
X91334227Y-75237440D01*
X90915651Y-75320700D01*
X90440983Y-75637863D01*
X90123820Y-76112531D01*
X90012447Y-76672440D01*
X87792618Y-76672440D01*
X87795800Y-76656447D01*
X87822933Y-76520041D01*
X87795800Y-76383635D01*
X87795800Y-76153925D01*
X88975845Y-74973880D01*
X94707193Y-74973880D01*
X94843600Y-75001013D01*
X94980007Y-74973880D01*
X95384000Y-74893521D01*
X95842129Y-74587409D01*
X95919399Y-74471766D01*
X97489837Y-72901328D01*
X122670160Y-72901328D01*
X122670160Y-73870032D01*
X123040867Y-74764996D01*
X123725844Y-75449973D01*
X124620808Y-75820680D01*
X125589512Y-75820680D01*
X126484476Y-75449973D01*
X127169453Y-74764996D01*
X127540160Y-73870032D01*
X127540160Y-72901328D01*
X127169453Y-72006364D01*
X126484476Y-71321387D01*
X125589512Y-70950680D01*
X124620808Y-70950680D01*
X123725844Y-71321387D01*
X123040867Y-72006364D01*
X122670160Y-72901328D01*
X97489837Y-72901328D01*
X98046287Y-72344879D01*
X99083714Y-72344879D01*
X99220121Y-72372012D01*
X99356528Y-72344879D01*
X99760521Y-72264520D01*
X100218650Y-71958408D01*
X100295921Y-71842764D01*
X100721778Y-71416906D01*
X101054697Y-71194457D01*
X101371860Y-70719789D01*
X101483233Y-70159880D01*
X101421404Y-69849041D01*
X103461920Y-69849041D01*
X103461920Y-70419919D01*
X103680386Y-70947342D01*
X104084058Y-71351014D01*
X104611481Y-71569480D01*
X105182359Y-71569480D01*
X105709782Y-71351014D01*
X106113454Y-70947342D01*
X106331920Y-70419919D01*
X106331920Y-69849041D01*
X106113454Y-69321618D01*
X105709782Y-68917946D01*
X105182359Y-68699480D01*
X104611481Y-68699480D01*
X104084058Y-68917946D01*
X103680386Y-69321618D01*
X103461920Y-69849041D01*
X101421404Y-69849041D01*
X101371860Y-69599971D01*
X101054697Y-69125303D01*
X100702362Y-68889880D01*
X101054697Y-68654457D01*
X101371860Y-68179789D01*
X101483233Y-67619880D01*
X101371860Y-67059971D01*
X101054697Y-66585303D01*
X100702362Y-66349880D01*
X101054697Y-66114457D01*
X101371860Y-65639789D01*
X101483233Y-65079880D01*
X101371860Y-64519971D01*
X101054697Y-64045303D01*
X100702362Y-63809880D01*
X100904403Y-63674880D01*
X104871497Y-63674880D01*
X104983280Y-63697115D01*
X105095063Y-63674880D01*
X105426135Y-63609026D01*
X105801569Y-63358169D01*
X105864893Y-63263398D01*
X107713401Y-61414891D01*
X107808169Y-61351569D01*
X108059026Y-60976135D01*
X108124880Y-60645063D01*
X108124880Y-60645062D01*
X108147115Y-60533280D01*
X108124880Y-60421497D01*
X108124880Y-60201328D01*
X122670160Y-60201328D01*
X122670160Y-61170032D01*
X123040867Y-62064996D01*
X123725844Y-62749973D01*
X124620808Y-63120680D01*
X125589512Y-63120680D01*
X126484476Y-62749973D01*
X127169453Y-62064996D01*
X127540160Y-61170032D01*
X127540160Y-60201328D01*
X127169453Y-59306364D01*
X126484476Y-58621387D01*
X125589512Y-58250680D01*
X124620808Y-58250680D01*
X123725844Y-58621387D01*
X123040867Y-59306364D01*
X122670160Y-60201328D01*
X108124880Y-60201328D01*
X108124880Y-54112404D01*
X108588971Y-54422500D01*
X109007547Y-54505760D01*
X109290213Y-54505760D01*
X109708789Y-54422500D01*
X110183457Y-54105337D01*
X110500620Y-53630669D01*
X110611993Y-53070760D01*
X110500620Y-52510851D01*
X110183457Y-52036183D01*
X109708789Y-51719020D01*
X109290213Y-51635760D01*
X109007547Y-51635760D01*
X108588971Y-51719020D01*
X108124880Y-52029116D01*
X108124880Y-50540943D01*
X108147115Y-50429160D01*
X108059026Y-49986305D01*
X108015196Y-49920709D01*
X107808169Y-49610871D01*
X107713401Y-49547549D01*
X107359452Y-49193600D01*
X114728400Y-49193600D01*
X114728400Y-51593600D01*
X114777683Y-51841365D01*
X114918031Y-52051409D01*
X115128075Y-52191757D01*
X115375840Y-52241040D01*
X117775840Y-52241040D01*
X118023605Y-52191757D01*
X118233649Y-52051409D01*
X118373997Y-51841365D01*
X118423280Y-51593600D01*
X118423280Y-50028596D01*
X119740840Y-50028596D01*
X119740840Y-50758604D01*
X120020202Y-51433044D01*
X120536396Y-51949238D01*
X121210836Y-52228600D01*
X121940844Y-52228600D01*
X122615284Y-51949238D01*
X123131478Y-51433044D01*
X123410840Y-50758604D01*
X123410840Y-50028596D01*
X123131478Y-49354156D01*
X122615284Y-48837962D01*
X122324222Y-48717400D01*
X129365200Y-48717400D01*
X129365200Y-51917400D01*
X129414483Y-52165165D01*
X129554831Y-52375209D01*
X129764875Y-52515557D01*
X130012640Y-52564840D01*
X133212640Y-52564840D01*
X133460405Y-52515557D01*
X133670449Y-52375209D01*
X133810797Y-52165165D01*
X133860080Y-51917400D01*
X133860080Y-48717400D01*
X136583880Y-48717400D01*
X136583880Y-51917400D01*
X136633163Y-52165165D01*
X136773511Y-52375209D01*
X136983555Y-52515557D01*
X137231320Y-52564840D01*
X140431320Y-52564840D01*
X140679085Y-52515557D01*
X140889129Y-52375209D01*
X141029477Y-52165165D01*
X141078760Y-51917400D01*
X141078760Y-48717400D01*
X141029477Y-48469635D01*
X140889129Y-48259591D01*
X140679085Y-48119243D01*
X140431320Y-48069960D01*
X137231320Y-48069960D01*
X136983555Y-48119243D01*
X136773511Y-48259591D01*
X136633163Y-48469635D01*
X136583880Y-48717400D01*
X133860080Y-48717400D01*
X133810797Y-48469635D01*
X133670449Y-48259591D01*
X133460405Y-48119243D01*
X133212640Y-48069960D01*
X130012640Y-48069960D01*
X129764875Y-48119243D01*
X129554831Y-48259591D01*
X129414483Y-48469635D01*
X129365200Y-48717400D01*
X122324222Y-48717400D01*
X121940844Y-48558600D01*
X121210836Y-48558600D01*
X120536396Y-48837962D01*
X120020202Y-49354156D01*
X119740840Y-50028596D01*
X118423280Y-50028596D01*
X118423280Y-49193600D01*
X118373997Y-48945835D01*
X118233649Y-48735791D01*
X118023605Y-48595443D01*
X117775840Y-48546160D01*
X115375840Y-48546160D01*
X115128075Y-48595443D01*
X114918031Y-48735791D01*
X114777683Y-48945835D01*
X114728400Y-49193600D01*
X107359452Y-49193600D01*
X104234213Y-46068362D01*
X104170889Y-45973591D01*
X103795455Y-45722734D01*
X103464383Y-45656880D01*
X103352600Y-45634645D01*
X103240817Y-45656880D01*
X102678262Y-45656880D01*
X102028023Y-45006641D01*
X101964699Y-44911871D01*
X101589265Y-44661014D01*
X101258193Y-44595160D01*
X101146410Y-44572925D01*
X101034627Y-44595160D01*
X100899323Y-44595160D01*
X100574949Y-44378420D01*
X100156373Y-44295160D01*
X99873707Y-44295160D01*
X99455131Y-44378420D01*
X98980463Y-44695583D01*
X98663300Y-45170251D01*
X98551927Y-45730160D01*
X98663300Y-46290069D01*
X98980463Y-46764737D01*
X99160689Y-46885160D01*
X99054566Y-46885160D01*
X98397760Y-46228355D01*
X98397760Y-44053005D01*
X98424893Y-43916599D01*
X98361677Y-43598791D01*
X98317401Y-43376200D01*
X98207900Y-43212320D01*
X98088557Y-43033711D01*
X98088555Y-43033709D01*
X98011288Y-42918071D01*
X97895650Y-42840804D01*
X94461537Y-39406692D01*
X94602920Y-39501161D01*
X95006913Y-39581520D01*
X95143319Y-39608653D01*
X95279725Y-39581520D01*
X103556128Y-39581520D01*
X103423260Y-39780371D01*
X103311887Y-40340280D01*
X103423260Y-40900189D01*
X103740423Y-41374857D01*
X104215091Y-41692020D01*
X104633667Y-41775280D01*
X104916333Y-41775280D01*
X105334909Y-41692020D01*
X105809577Y-41374857D01*
X106126740Y-40900189D01*
X106238113Y-40340280D01*
X106126740Y-39780371D01*
X105993872Y-39581520D01*
X107922561Y-39581520D01*
X107713880Y-40085321D01*
X107713880Y-40656199D01*
X107763880Y-40776910D01*
X107763880Y-41365723D01*
X107736747Y-41502130D01*
X107763880Y-41638537D01*
X107844239Y-42042530D01*
X108150352Y-42500659D01*
X108265992Y-42577927D01*
X111168272Y-45480208D01*
X111245541Y-45595849D01*
X111446552Y-45730160D01*
X111703670Y-45901961D01*
X112244070Y-46009453D01*
X112380477Y-45982320D01*
X119096273Y-45982320D01*
X119232680Y-46009453D01*
X119369087Y-45982320D01*
X119773080Y-45901961D01*
X120231209Y-45595849D01*
X120308479Y-45480206D01*
X124913398Y-40875288D01*
X124863960Y-40994641D01*
X124863960Y-41565519D01*
X125082426Y-42092942D01*
X125486098Y-42496614D01*
X126013521Y-42715080D01*
X126584399Y-42715080D01*
X127111822Y-42496614D01*
X127515494Y-42092942D01*
X127733960Y-41565519D01*
X127733960Y-40994641D01*
X127515494Y-40467218D01*
X127111822Y-40063546D01*
X126584399Y-39845080D01*
X126013521Y-39845080D01*
X125894168Y-39894518D01*
X126938010Y-38850676D01*
X127053648Y-38773409D01*
X127130915Y-38657771D01*
X127130917Y-38657769D01*
X127287981Y-38422706D01*
X127359761Y-38315280D01*
X127440120Y-37911287D01*
X127440120Y-37911286D01*
X127467253Y-37774881D01*
X127440120Y-37638475D01*
X127440120Y-36041847D01*
X127467253Y-35905440D01*
X127359761Y-35365040D01*
X127192309Y-35114430D01*
X127167567Y-35077400D01*
X129333854Y-35077400D01*
X129507316Y-35949454D01*
X130001295Y-36688745D01*
X130740586Y-37182724D01*
X131392512Y-37312400D01*
X131832768Y-37312400D01*
X132484694Y-37182724D01*
X133223985Y-36688745D01*
X133717964Y-35949454D01*
X133891426Y-35077400D01*
X136552534Y-35077400D01*
X136725996Y-35949454D01*
X137219975Y-36688745D01*
X137959266Y-37182724D01*
X138611192Y-37312400D01*
X139051448Y-37312400D01*
X139703374Y-37182724D01*
X140442665Y-36688745D01*
X140936644Y-35949454D01*
X141110106Y-35077400D01*
X140936644Y-34205346D01*
X140442665Y-33466055D01*
X139703374Y-32972076D01*
X139051448Y-32842400D01*
X138611192Y-32842400D01*
X137959266Y-32972076D01*
X137219975Y-33466055D01*
X136725996Y-34205346D01*
X136552534Y-35077400D01*
X133891426Y-35077400D01*
X133717964Y-34205346D01*
X133223985Y-33466055D01*
X132484694Y-32972076D01*
X131832768Y-32842400D01*
X131392512Y-32842400D01*
X130740586Y-32972076D01*
X130001295Y-33466055D01*
X129507316Y-34205346D01*
X129333854Y-35077400D01*
X127167567Y-35077400D01*
X127053649Y-34906911D01*
X126938008Y-34829642D01*
X126043799Y-33935434D01*
X125966529Y-33819791D01*
X125508400Y-33513679D01*
X125104407Y-33433320D01*
X124968000Y-33406187D01*
X124831593Y-33433320D01*
X124050967Y-33433320D01*
X124042759Y-33431687D01*
X124146837Y-33275925D01*
X124196120Y-33028160D01*
X124196120Y-31508160D01*
X124146837Y-31260395D01*
X124006489Y-31050351D01*
X123796445Y-30910003D01*
X123548680Y-30860720D01*
X122028680Y-30860720D01*
X121780915Y-30910003D01*
X121570871Y-31050351D01*
X121430523Y-31260395D01*
X121381240Y-31508160D01*
X121381240Y-33028160D01*
X121430523Y-33275925D01*
X121570871Y-33485969D01*
X121780915Y-33626317D01*
X121961729Y-33662283D01*
X121863172Y-33760840D01*
X121790151Y-33809631D01*
X121741360Y-33882652D01*
X121606056Y-34017956D01*
X121532830Y-34194739D01*
X121484039Y-34267760D01*
X121466906Y-34353894D01*
X121393680Y-34530677D01*
X121393680Y-34722026D01*
X121376547Y-34808160D01*
X121393680Y-34894294D01*
X121393680Y-35085643D01*
X121466906Y-35262426D01*
X121484039Y-35348560D01*
X121532830Y-35421581D01*
X121606056Y-35598364D01*
X121741360Y-35733668D01*
X121790151Y-35806689D01*
X121863172Y-35855480D01*
X121998476Y-35990784D01*
X122175259Y-36064010D01*
X122196436Y-36078160D01*
X122175261Y-36092309D01*
X121998476Y-36165536D01*
X121606056Y-36557956D01*
X121596055Y-36582100D01*
X118587875Y-39590280D01*
X117754046Y-39590280D01*
X116937803Y-38774038D01*
X117034957Y-38814280D01*
X117589923Y-38814280D01*
X118102644Y-38601904D01*
X118495064Y-38209484D01*
X118707440Y-37696763D01*
X118707440Y-37141797D01*
X118495064Y-36629076D01*
X118102644Y-36236656D01*
X117891700Y-36149280D01*
X118102644Y-36061904D01*
X118495064Y-35669484D01*
X118707440Y-35156763D01*
X118707440Y-34601797D01*
X118495064Y-34089076D01*
X118139391Y-33733403D01*
X118320205Y-33697437D01*
X118530249Y-33557089D01*
X118670597Y-33347045D01*
X118719880Y-33099280D01*
X118719880Y-31579280D01*
X118670597Y-31331515D01*
X118530249Y-31121471D01*
X118320205Y-30981123D01*
X118072440Y-30931840D01*
X116552440Y-30931840D01*
X116304675Y-30981123D01*
X116094631Y-31121471D01*
X115954283Y-31331515D01*
X115905000Y-31579280D01*
X115905000Y-33099280D01*
X115954283Y-33347045D01*
X116094631Y-33557089D01*
X116304675Y-33697437D01*
X116485489Y-33733403D01*
X116129816Y-34089076D01*
X115917440Y-34601797D01*
X115917440Y-35156763D01*
X116129816Y-35669484D01*
X116522236Y-36061904D01*
X116733180Y-36149280D01*
X116522236Y-36236656D01*
X116129816Y-36629076D01*
X115917440Y-37141797D01*
X115917440Y-37696763D01*
X115957683Y-37793917D01*
X115477399Y-37313634D01*
X115400129Y-37197991D01*
X114942000Y-36891879D01*
X114538007Y-36811520D01*
X114401600Y-36784387D01*
X114265193Y-36811520D01*
X113495925Y-36811520D01*
X113676725Y-36775557D01*
X113886769Y-36635209D01*
X114027117Y-36425165D01*
X114076400Y-36177400D01*
X114076400Y-33977400D01*
X114027117Y-33729635D01*
X113886769Y-33519591D01*
X113676725Y-33379243D01*
X113428960Y-33329960D01*
X111228960Y-33329960D01*
X110981195Y-33379243D01*
X110771151Y-33519591D01*
X110630803Y-33729635D01*
X110581520Y-33977400D01*
X110581520Y-36177400D01*
X110630803Y-36425165D01*
X110771151Y-36635209D01*
X110981195Y-36775557D01*
X111161995Y-36811520D01*
X102344264Y-36811520D01*
X102845923Y-36711734D01*
X103419825Y-36328265D01*
X103803294Y-35754363D01*
X103937950Y-35077400D01*
X103803294Y-34400437D01*
X103419825Y-33826535D01*
X102845923Y-33443066D01*
X102339840Y-33342400D01*
X101998080Y-33342400D01*
X101491997Y-33443066D01*
X100918095Y-33826535D01*
X100534626Y-34400437D01*
X100399970Y-35077400D01*
X100534626Y-35754363D01*
X100918095Y-36328265D01*
X101491997Y-36711734D01*
X101993656Y-36811520D01*
X95717006Y-36811520D01*
X94135558Y-35230073D01*
X94058288Y-35114430D01*
X93600159Y-34808318D01*
X93496697Y-34787738D01*
X95763840Y-34787738D01*
X95763840Y-35438182D01*
X96012754Y-36039113D01*
X96472687Y-36499046D01*
X97073618Y-36747960D01*
X97724062Y-36747960D01*
X98324993Y-36499046D01*
X98784926Y-36039113D01*
X99033840Y-35438182D01*
X99033840Y-34787738D01*
X98784926Y-34186807D01*
X98324993Y-33726874D01*
X97724062Y-33477960D01*
X97073618Y-33477960D01*
X96472687Y-33726874D01*
X96012754Y-34186807D01*
X95763840Y-34787738D01*
X93496697Y-34787738D01*
X93196166Y-34727959D01*
X93059759Y-34700826D01*
X92923352Y-34727959D01*
X91509079Y-34727959D01*
X91284926Y-34186807D01*
X90824993Y-33726874D01*
X90224062Y-33477960D01*
X89573618Y-33477960D01*
X88972687Y-33726874D01*
X88512754Y-34186807D01*
X88263840Y-34787738D01*
X88263840Y-35438182D01*
X88512754Y-36039113D01*
X88972687Y-36499046D01*
X89573618Y-36747960D01*
X89575154Y-36747960D01*
X89823041Y-36995847D01*
X89900310Y-37111488D01*
X90358439Y-37417600D01*
X90762432Y-37497959D01*
X90898838Y-37525092D01*
X91035244Y-37497959D01*
X92486074Y-37497959D01*
X93945501Y-38957387D01*
X93804120Y-38862919D01*
X93400127Y-38782560D01*
X93263720Y-38755427D01*
X93127313Y-38782560D01*
X86537045Y-38782560D01*
X86400639Y-38755427D01*
X86264233Y-38782560D01*
X85860240Y-38862919D01*
X85402111Y-39169031D01*
X85324842Y-39284672D01*
X84425552Y-40183963D01*
X84309912Y-40261231D01*
X84232643Y-40376872D01*
X84003799Y-40719361D01*
X83896307Y-41259760D01*
X83923441Y-41396172D01*
X83923440Y-52138954D01*
X81209912Y-54852483D01*
X81094272Y-54929751D01*
X81017003Y-55045392D01*
X80788159Y-55387881D01*
X80680667Y-55928280D01*
X80707801Y-56064691D01*
X80707801Y-56817638D01*
X80645035Y-56830123D01*
X80434991Y-56970471D01*
X80294643Y-57180515D01*
X80245360Y-57428280D01*
X78487882Y-57428280D01*
X78132244Y-57072642D01*
X77457804Y-56793280D01*
X76727796Y-56793280D01*
X76053356Y-57072642D01*
X75537162Y-57588836D01*
X75257800Y-58263276D01*
X70527769Y-58263276D01*
X71577820Y-57213225D01*
X71910737Y-56990777D01*
X72227900Y-56516109D01*
X72339273Y-55956200D01*
X72227900Y-55396291D01*
X71910737Y-54921623D01*
X71436069Y-54604460D01*
X71017493Y-54521200D01*
X70734827Y-54521200D01*
X70316251Y-54604460D01*
X69841583Y-54921623D01*
X69619135Y-55254540D01*
X66935113Y-57938562D01*
X66819472Y-58015831D01*
X66742203Y-58131472D01*
X66513359Y-58473961D01*
X66405867Y-59014360D01*
X66433001Y-59150772D01*
X66433000Y-64127758D01*
X66370235Y-64140243D01*
X66160191Y-64280591D01*
X66019843Y-64490635D01*
X65970560Y-64738400D01*
X64213082Y-64738400D01*
X63857444Y-64382762D01*
X63183004Y-64103400D01*
X62452996Y-64103400D01*
X61778556Y-64382762D01*
X61262362Y-64898956D01*
X60983000Y-65573396D01*
X45338200Y-65573396D01*
X45338200Y-55670761D01*
X51610360Y-55670761D01*
X51610360Y-56241639D01*
X51828826Y-56769062D01*
X52232498Y-57172734D01*
X52759921Y-57391200D01*
X53330799Y-57391200D01*
X53858222Y-57172734D01*
X54261894Y-56769062D01*
X54480360Y-56241639D01*
X54480360Y-55670761D01*
X56741160Y-55670761D01*
X56741160Y-56241639D01*
X56959626Y-56769062D01*
X57363298Y-57172734D01*
X57890721Y-57391200D01*
X58461599Y-57391200D01*
X58989022Y-57172734D01*
X59392694Y-56769062D01*
X59611160Y-56241639D01*
X59611160Y-55670761D01*
X59392694Y-55143338D01*
X58989022Y-54739666D01*
X58461599Y-54521200D01*
X57890721Y-54521200D01*
X57363298Y-54739666D01*
X56959626Y-55143338D01*
X56741160Y-55670761D01*
X54480360Y-55670761D01*
X54261894Y-55143338D01*
X53858222Y-54739666D01*
X53330799Y-54521200D01*
X52759921Y-54521200D01*
X52232498Y-54739666D01*
X51828826Y-55143338D01*
X51610360Y-55670761D01*
X45338200Y-55670761D01*
X45338200Y-52339240D01*
X51612727Y-52339240D01*
X51724100Y-52899149D01*
X52041263Y-53373817D01*
X52515931Y-53690980D01*
X52934507Y-53774240D01*
X53217173Y-53774240D01*
X53635749Y-53690980D01*
X54110417Y-53373817D01*
X54427580Y-52899149D01*
X54538953Y-52339240D01*
X54427580Y-51779331D01*
X54110417Y-51304663D01*
X53635749Y-50987500D01*
X53217173Y-50904240D01*
X52934507Y-50904240D01*
X52515931Y-50987500D01*
X52041263Y-51304663D01*
X51724100Y-51779331D01*
X51612727Y-52339240D01*
X45338200Y-52339240D01*
X45338200Y-48709400D01*
X56504920Y-48709400D01*
X56504920Y-50909400D01*
X56554203Y-51157165D01*
X56694551Y-51367209D01*
X56904595Y-51507557D01*
X57152360Y-51556840D01*
X59352360Y-51556840D01*
X59600125Y-51507557D01*
X59810169Y-51367209D01*
X59950517Y-51157165D01*
X59999800Y-50909400D01*
X59999800Y-48919560D01*
X63192080Y-48919560D01*
X63192080Y-50719560D01*
X63241363Y-50967325D01*
X63381711Y-51177369D01*
X63591755Y-51317717D01*
X63839520Y-51367000D01*
X65639520Y-51367000D01*
X65887285Y-51317717D01*
X66097329Y-51177369D01*
X66236649Y-50968864D01*
X66680593Y-51265498D01*
X67128338Y-51354560D01*
X67430702Y-51354560D01*
X67878447Y-51265498D01*
X68386193Y-50926233D01*
X68549520Y-50681797D01*
X68712847Y-50926233D01*
X69220593Y-51265498D01*
X69668338Y-51354560D01*
X69970702Y-51354560D01*
X70418447Y-51265498D01*
X70926193Y-50926233D01*
X71265458Y-50418487D01*
X71384592Y-49819560D01*
X71265458Y-49220633D01*
X70926193Y-48712887D01*
X70418447Y-48373622D01*
X69970702Y-48284560D01*
X69668338Y-48284560D01*
X69220593Y-48373622D01*
X68712847Y-48712887D01*
X68549520Y-48957323D01*
X68386193Y-48712887D01*
X67878447Y-48373622D01*
X67430702Y-48284560D01*
X67128338Y-48284560D01*
X66680593Y-48373622D01*
X66236649Y-48670256D01*
X66097329Y-48461751D01*
X65887285Y-48321403D01*
X65639520Y-48272120D01*
X63839520Y-48272120D01*
X63591755Y-48321403D01*
X63381711Y-48461751D01*
X63241363Y-48671795D01*
X63192080Y-48919560D01*
X59999800Y-48919560D01*
X59999800Y-48709400D01*
X59950517Y-48461635D01*
X59810169Y-48251591D01*
X59600125Y-48111243D01*
X59352360Y-48061960D01*
X57152360Y-48061960D01*
X56904595Y-48111243D01*
X56694551Y-48251591D01*
X56554203Y-48461635D01*
X56504920Y-48709400D01*
X45338200Y-48709400D01*
X45338200Y-46018600D01*
X77756160Y-46018600D01*
X77756160Y-48418600D01*
X77805443Y-48666365D01*
X77945791Y-48876409D01*
X78155835Y-49016757D01*
X78403600Y-49066040D01*
X80803600Y-49066040D01*
X81051365Y-49016757D01*
X81261409Y-48876409D01*
X81401757Y-48666365D01*
X81451040Y-48418600D01*
X81451040Y-46018600D01*
X81401757Y-45770835D01*
X81261409Y-45560791D01*
X81051365Y-45420443D01*
X80803600Y-45371160D01*
X78403600Y-45371160D01*
X78155835Y-45420443D01*
X77945791Y-45560791D01*
X77805443Y-45770835D01*
X77756160Y-46018600D01*
X45338200Y-46018600D01*
X45338200Y-41853596D01*
X77768600Y-41853596D01*
X77768600Y-42583604D01*
X78047962Y-43258044D01*
X78564156Y-43774238D01*
X79238596Y-44053600D01*
X79968604Y-44053600D01*
X80643044Y-43774238D01*
X81159238Y-43258044D01*
X81438600Y-42583604D01*
X81438600Y-41853596D01*
X81159238Y-41179156D01*
X80643044Y-40662962D01*
X79968604Y-40383600D01*
X79238596Y-40383600D01*
X78564156Y-40662962D01*
X78047962Y-41179156D01*
X77768600Y-41853596D01*
X45338200Y-41853596D01*
X45338200Y-39353801D01*
X51640840Y-39353801D01*
X51640840Y-39924679D01*
X51859306Y-40452102D01*
X52262978Y-40855774D01*
X52790401Y-41074240D01*
X53361279Y-41074240D01*
X53888702Y-40855774D01*
X54292374Y-40452102D01*
X54510840Y-39924679D01*
X54510840Y-39649400D01*
X56483370Y-39649400D01*
X56618026Y-40326363D01*
X57001495Y-40900265D01*
X57575397Y-41283734D01*
X58081480Y-41384400D01*
X58423240Y-41384400D01*
X58929323Y-41283734D01*
X59503225Y-40900265D01*
X59886694Y-40326363D01*
X60021350Y-39649400D01*
X59886694Y-38972437D01*
X59503225Y-38398535D01*
X58929323Y-38015066D01*
X58423240Y-37914400D01*
X58081480Y-37914400D01*
X57575397Y-38015066D01*
X57001495Y-38398535D01*
X56618026Y-38972437D01*
X56483370Y-39649400D01*
X54510840Y-39649400D01*
X54510840Y-39353801D01*
X54292374Y-38826378D01*
X53888702Y-38422706D01*
X53361279Y-38204240D01*
X52790401Y-38204240D01*
X52262978Y-38422706D01*
X51859306Y-38826378D01*
X51640840Y-39353801D01*
X45338200Y-39353801D01*
X45338200Y-35801661D01*
X45882560Y-35801661D01*
X45882560Y-36862659D01*
X46288586Y-37842894D01*
X47038826Y-38593134D01*
X48019061Y-38999160D01*
X49080059Y-38999160D01*
X50060294Y-38593134D01*
X50810534Y-37842894D01*
X51216560Y-36862659D01*
X51216560Y-35801661D01*
X50810534Y-34821426D01*
X50106388Y-34117280D01*
X52818894Y-34117280D01*
X52992356Y-34989334D01*
X53486335Y-35728625D01*
X54225626Y-36222604D01*
X54877552Y-36352280D01*
X55317808Y-36352280D01*
X55969734Y-36222604D01*
X56709025Y-35728625D01*
X57203004Y-34989334D01*
X57376466Y-34117280D01*
X57203004Y-33245226D01*
X56716606Y-32517280D01*
X68090240Y-32517280D01*
X68090240Y-35717280D01*
X68139523Y-35965045D01*
X68279871Y-36175089D01*
X68489915Y-36315437D01*
X68737680Y-36364720D01*
X71937680Y-36364720D01*
X72185445Y-36315437D01*
X72395489Y-36175089D01*
X72535837Y-35965045D01*
X72585120Y-35717280D01*
X72585120Y-33220156D01*
X77768600Y-33220156D01*
X77768600Y-33950164D01*
X78047962Y-34624604D01*
X78564156Y-35140798D01*
X79238596Y-35420160D01*
X79968604Y-35420160D01*
X80643044Y-35140798D01*
X81159238Y-34624604D01*
X81438600Y-33950164D01*
X81438600Y-33220156D01*
X81159238Y-32545716D01*
X80643044Y-32029522D01*
X79968604Y-31750160D01*
X79238596Y-31750160D01*
X78564156Y-32029522D01*
X78047962Y-32545716D01*
X77768600Y-33220156D01*
X72585120Y-33220156D01*
X72585120Y-32517280D01*
X72535837Y-32269515D01*
X72395489Y-32059471D01*
X72185445Y-31919123D01*
X71937680Y-31869840D01*
X68737680Y-31869840D01*
X68489915Y-31919123D01*
X68279871Y-32059471D01*
X68139523Y-32269515D01*
X68090240Y-32517280D01*
X56716606Y-32517280D01*
X56709025Y-32505935D01*
X55969734Y-32011956D01*
X55317808Y-31882280D01*
X54877552Y-31882280D01*
X54225626Y-32011956D01*
X53486335Y-32505935D01*
X52992356Y-33245226D01*
X52818894Y-34117280D01*
X50106388Y-34117280D01*
X50060294Y-34071186D01*
X49080059Y-33665160D01*
X48019061Y-33665160D01*
X47038826Y-34071186D01*
X46288586Y-34821426D01*
X45882560Y-35801661D01*
X45338200Y-35801661D01*
X45338200Y-27318986D01*
X46470094Y-27318986D01*
X46477120Y-27745030D01*
X46477120Y-28171209D01*
X46484440Y-28188880D01*
X46484755Y-28208003D01*
X46796760Y-28961250D01*
X46806467Y-28966322D01*
X46817379Y-28992666D01*
X47446094Y-29621381D01*
X47472438Y-29632293D01*
X47477510Y-29642000D01*
X47873828Y-29798554D01*
X48267551Y-29961640D01*
X48286680Y-29961640D01*
X48304466Y-29968666D01*
X48730510Y-29961640D01*
X49156689Y-29961640D01*
X49174360Y-29954320D01*
X49193483Y-29954005D01*
X49946730Y-29642000D01*
X49951802Y-29632293D01*
X49978146Y-29621381D01*
X50606861Y-28992666D01*
X50617773Y-28966322D01*
X50627480Y-28961250D01*
X50784034Y-28564932D01*
X50947120Y-28171209D01*
X50947120Y-28152080D01*
X50954146Y-28134294D01*
X50947120Y-27708250D01*
X50947120Y-27584400D01*
X52818894Y-27584400D01*
X52992356Y-28456454D01*
X53486335Y-29195745D01*
X54225626Y-29689724D01*
X54877552Y-29819400D01*
X55317808Y-29819400D01*
X55969734Y-29689724D01*
X56709025Y-29195745D01*
X57203004Y-28456454D01*
X57376466Y-27584400D01*
X57203004Y-26712346D01*
X56716606Y-25984400D01*
X68090240Y-25984400D01*
X68090240Y-29184400D01*
X68139523Y-29432165D01*
X68279871Y-29642209D01*
X68489915Y-29782557D01*
X68737680Y-29831840D01*
X71937680Y-29831840D01*
X72185445Y-29782557D01*
X72395489Y-29642209D01*
X72535837Y-29432165D01*
X72585120Y-29184400D01*
X72585120Y-27385160D01*
X77756160Y-27385160D01*
X77756160Y-29785160D01*
X77805443Y-30032925D01*
X77945791Y-30242969D01*
X78155835Y-30383317D01*
X78403600Y-30432600D01*
X80803600Y-30432600D01*
X81051365Y-30383317D01*
X81261409Y-30242969D01*
X81401757Y-30032925D01*
X81451040Y-29785160D01*
X81451040Y-27914028D01*
X101570790Y-27914028D01*
X101570790Y-29185173D01*
X101651182Y-29589332D01*
X101957421Y-30047650D01*
X102415739Y-30353888D01*
X102956360Y-30461424D01*
X103496982Y-30353888D01*
X103955300Y-30047650D01*
X104226360Y-29641980D01*
X104497421Y-30047650D01*
X104955739Y-30353888D01*
X105496360Y-30461424D01*
X106036982Y-30353888D01*
X106495300Y-30047650D01*
X106766360Y-29641980D01*
X107037421Y-30047650D01*
X107495739Y-30353888D01*
X108036360Y-30461424D01*
X108576982Y-30353888D01*
X109035300Y-30047650D01*
X109341538Y-29589332D01*
X109421930Y-29185173D01*
X109421930Y-27914027D01*
X109341538Y-27509868D01*
X109203812Y-27303746D01*
X135573294Y-27303746D01*
X135580320Y-27729790D01*
X135580320Y-28155969D01*
X135587640Y-28173640D01*
X135587955Y-28192763D01*
X135899960Y-28946010D01*
X135909667Y-28951082D01*
X135920579Y-28977426D01*
X136549294Y-29606141D01*
X136575638Y-29617053D01*
X136580710Y-29626760D01*
X136977028Y-29783314D01*
X137370751Y-29946400D01*
X137389880Y-29946400D01*
X137407666Y-29953426D01*
X137833710Y-29946400D01*
X138259889Y-29946400D01*
X138277560Y-29939080D01*
X138296683Y-29938765D01*
X139049930Y-29626760D01*
X139055002Y-29617053D01*
X139081346Y-29606141D01*
X139710061Y-28977426D01*
X139720973Y-28951082D01*
X139730680Y-28946010D01*
X139887234Y-28549692D01*
X140050320Y-28155969D01*
X140050320Y-28136840D01*
X140057346Y-28119054D01*
X140050320Y-27693010D01*
X140050320Y-27266831D01*
X140043000Y-27249160D01*
X140042685Y-27230037D01*
X139730680Y-26476790D01*
X139720973Y-26471718D01*
X139710061Y-26445374D01*
X139081346Y-25816659D01*
X139055002Y-25805747D01*
X139049930Y-25796040D01*
X138653612Y-25639486D01*
X138259889Y-25476400D01*
X138240760Y-25476400D01*
X138222974Y-25469374D01*
X137796930Y-25476400D01*
X137370751Y-25476400D01*
X137353080Y-25483720D01*
X137333957Y-25484035D01*
X136580710Y-25796040D01*
X136575638Y-25805747D01*
X136549294Y-25816659D01*
X135920579Y-26445374D01*
X135909667Y-26471718D01*
X135899960Y-26476790D01*
X135743406Y-26873108D01*
X135580320Y-27266831D01*
X135580320Y-27285960D01*
X135573294Y-27303746D01*
X109203812Y-27303746D01*
X109035299Y-27051550D01*
X108576981Y-26745312D01*
X108036360Y-26637776D01*
X107495738Y-26745312D01*
X107037420Y-27051551D01*
X106766360Y-27457221D01*
X106495299Y-27051550D01*
X106036981Y-26745312D01*
X105496360Y-26637776D01*
X104955738Y-26745312D01*
X104497420Y-27051551D01*
X104226360Y-27457221D01*
X103955299Y-27051550D01*
X103496981Y-26745312D01*
X102956360Y-26637776D01*
X102415738Y-26745312D01*
X101957420Y-27051551D01*
X101651182Y-27509869D01*
X101570790Y-27914028D01*
X81451040Y-27914028D01*
X81451040Y-27385160D01*
X81401757Y-27137395D01*
X81261409Y-26927351D01*
X81051365Y-26787003D01*
X80803600Y-26737720D01*
X78403600Y-26737720D01*
X78155835Y-26787003D01*
X77945791Y-26927351D01*
X77805443Y-27137395D01*
X77756160Y-27385160D01*
X72585120Y-27385160D01*
X72585120Y-25984400D01*
X72535837Y-25736635D01*
X72395489Y-25526591D01*
X72185445Y-25386243D01*
X71937680Y-25336960D01*
X68737680Y-25336960D01*
X68489915Y-25386243D01*
X68279871Y-25526591D01*
X68139523Y-25736635D01*
X68090240Y-25984400D01*
X56716606Y-25984400D01*
X56709025Y-25973055D01*
X55969734Y-25479076D01*
X55317808Y-25349400D01*
X54877552Y-25349400D01*
X54225626Y-25479076D01*
X53486335Y-25973055D01*
X52992356Y-26712346D01*
X52818894Y-27584400D01*
X50947120Y-27584400D01*
X50947120Y-27282071D01*
X50939800Y-27264400D01*
X50939485Y-27245277D01*
X50627480Y-26492030D01*
X50617773Y-26486958D01*
X50606861Y-26460614D01*
X49978146Y-25831899D01*
X49951802Y-25820987D01*
X49946730Y-25811280D01*
X49550412Y-25654726D01*
X49156689Y-25491640D01*
X49137560Y-25491640D01*
X49119774Y-25484614D01*
X48693730Y-25491640D01*
X48267551Y-25491640D01*
X48249880Y-25498960D01*
X48230757Y-25499275D01*
X47477510Y-25811280D01*
X47472438Y-25820987D01*
X47446094Y-25831899D01*
X46817379Y-26460614D01*
X46806467Y-26486958D01*
X46796760Y-26492030D01*
X46640206Y-26888348D01*
X46477120Y-27282071D01*
X46477120Y-27301200D01*
X46470094Y-27318986D01*
X45338200Y-27318986D01*
X45338200Y-23743120D01*
X141534680Y-23743120D01*
X141534680Y-48502714D01*
G36*
X101326519Y-47515401D02*
X101389841Y-47610169D01*
X101674795Y-47800569D01*
X101765275Y-47861026D01*
X102208130Y-47949115D01*
X102319913Y-47926880D01*
X102882469Y-47926880D01*
X105854881Y-50899293D01*
X105854881Y-52090765D01*
X105587862Y-51823746D01*
X105060439Y-51605280D01*
X104489561Y-51605280D01*
X103962138Y-51823746D01*
X103558466Y-52227418D01*
X103340000Y-52754841D01*
X103340000Y-53325719D01*
X103558466Y-53853142D01*
X103962138Y-54256814D01*
X104489561Y-54475280D01*
X105060439Y-54475280D01*
X105587862Y-54256814D01*
X105854881Y-53989795D01*
X105854880Y-56348709D01*
X105456829Y-56082740D01*
X105038253Y-55999480D01*
X104755587Y-55999480D01*
X104645036Y-56021470D01*
X101272065Y-52648500D01*
X101049617Y-52315583D01*
X100697282Y-52080160D01*
X101049617Y-51844737D01*
X101366780Y-51370069D01*
X101478153Y-50810160D01*
X101366780Y-50250251D01*
X101049617Y-49775583D01*
X100697282Y-49540160D01*
X101049617Y-49304737D01*
X101366780Y-48830069D01*
X101478153Y-48270160D01*
X101366780Y-47710251D01*
X101055488Y-47244370D01*
X101326519Y-47515401D01*
X101326519Y-47515401D01*
G37*
X101326519Y-47515401D02*
X101389841Y-47610169D01*
X101674795Y-47800569D01*
X101765275Y-47861026D01*
X102208130Y-47949115D01*
X102319913Y-47926880D01*
X102882469Y-47926880D01*
X105854881Y-50899293D01*
X105854881Y-52090765D01*
X105587862Y-51823746D01*
X105060439Y-51605280D01*
X104489561Y-51605280D01*
X103962138Y-51823746D01*
X103558466Y-52227418D01*
X103340000Y-52754841D01*
X103340000Y-53325719D01*
X103558466Y-53853142D01*
X103962138Y-54256814D01*
X104489561Y-54475280D01*
X105060439Y-54475280D01*
X105587862Y-54256814D01*
X105854881Y-53989795D01*
X105854880Y-56348709D01*
X105456829Y-56082740D01*
X105038253Y-55999480D01*
X104755587Y-55999480D01*
X104645036Y-56021470D01*
X101272065Y-52648500D01*
X101049617Y-52315583D01*
X100697282Y-52080160D01*
X101049617Y-51844737D01*
X101366780Y-51370069D01*
X101478153Y-50810160D01*
X101366780Y-50250251D01*
X101049617Y-49775583D01*
X100697282Y-49540160D01*
X101049617Y-49304737D01*
X101366780Y-48830069D01*
X101478153Y-48270160D01*
X101366780Y-47710251D01*
X101055488Y-47244370D01*
X101326519Y-47515401D01*
G36*
X101040830Y-47229712D02*
X100697282Y-47000160D01*
X100765618Y-46954499D01*
X101040830Y-47229712D01*
X101040830Y-47229712D01*
G37*
X101040830Y-47229712D02*
X100697282Y-47000160D01*
X100765618Y-46954499D01*
X101040830Y-47229712D01*
G36*
X114206683Y-39960288D02*
X114158869Y-39928340D01*
X113740293Y-39845080D01*
X113457627Y-39845080D01*
X113039051Y-39928340D01*
X112564383Y-40245503D01*
X112247220Y-40720171D01*
X112135847Y-41280080D01*
X112247220Y-41839989D01*
X112564383Y-42314657D01*
X113039051Y-42631820D01*
X113457627Y-42715080D01*
X113740293Y-42715080D01*
X114158869Y-42631820D01*
X114633537Y-42314657D01*
X114950700Y-41839989D01*
X115062073Y-41280080D01*
X114950700Y-40720171D01*
X114918752Y-40672358D01*
X116104562Y-41858168D01*
X116181831Y-41973809D01*
X116639960Y-42279921D01*
X117043953Y-42360280D01*
X117180359Y-42387413D01*
X117316765Y-42360280D01*
X119025153Y-42360280D01*
X119161560Y-42387413D01*
X119297967Y-42360280D01*
X119563940Y-42307375D01*
X118658995Y-43212320D01*
X112817756Y-43212320D01*
X110533880Y-40928445D01*
X110533880Y-40776910D01*
X110583880Y-40656199D01*
X110583880Y-40085321D01*
X110375199Y-39581520D01*
X113827915Y-39581520D01*
X114206683Y-39960288D01*
X114206683Y-39960288D01*
G37*
X114206683Y-39960288D02*
X114158869Y-39928340D01*
X113740293Y-39845080D01*
X113457627Y-39845080D01*
X113039051Y-39928340D01*
X112564383Y-40245503D01*
X112247220Y-40720171D01*
X112135847Y-41280080D01*
X112247220Y-41839989D01*
X112564383Y-42314657D01*
X113039051Y-42631820D01*
X113457627Y-42715080D01*
X113740293Y-42715080D01*
X114158869Y-42631820D01*
X114633537Y-42314657D01*
X114950700Y-41839989D01*
X115062073Y-41280080D01*
X114950700Y-40720171D01*
X114918752Y-40672358D01*
X116104562Y-41858168D01*
X116181831Y-41973809D01*
X116639960Y-42279921D01*
X117043953Y-42360280D01*
X117180359Y-42387413D01*
X117316765Y-42360280D01*
X119025153Y-42360280D01*
X119161560Y-42387413D01*
X119297967Y-42360280D01*
X119563940Y-42307375D01*
X118658995Y-43212320D01*
X112817756Y-43212320D01*
X110533880Y-40928445D01*
X110533880Y-40776910D01*
X110583880Y-40656199D01*
X110583880Y-40085321D01*
X110375199Y-39581520D01*
X113827915Y-39581520D01*
X114206683Y-39960288D01*
G36*
X123737235Y-36203320D02*
X123737239Y-36203320D01*
X123873641Y-36230452D01*
X124010043Y-36203320D01*
X124394315Y-36203320D01*
X124670121Y-36479126D01*
X124670120Y-37201194D01*
X124139846Y-37731469D01*
X124183680Y-37625643D01*
X124183680Y-37434294D01*
X124200813Y-37348161D01*
X124183680Y-37262028D01*
X124183680Y-37070677D01*
X124110452Y-36893889D01*
X124093320Y-36807761D01*
X124044533Y-36734746D01*
X123971304Y-36557956D01*
X123835995Y-36422647D01*
X123787208Y-36349632D01*
X123714193Y-36300845D01*
X123606508Y-36193160D01*
X123686157Y-36193160D01*
X123737235Y-36203320D01*
X123737235Y-36203320D01*
G37*
X123737235Y-36203320D02*
X123737239Y-36203320D01*
X123873641Y-36230452D01*
X124010043Y-36203320D01*
X124394315Y-36203320D01*
X124670121Y-36479126D01*
X124670120Y-37201194D01*
X124139846Y-37731469D01*
X124183680Y-37625643D01*
X124183680Y-37434294D01*
X124200813Y-37348161D01*
X124183680Y-37262028D01*
X124183680Y-37070677D01*
X124110452Y-36893889D01*
X124093320Y-36807761D01*
X124044533Y-36734746D01*
X123971304Y-36557956D01*
X123835995Y-36422647D01*
X123787208Y-36349632D01*
X123714193Y-36300845D01*
X123606508Y-36193160D01*
X123686157Y-36193160D01*
X123737235Y-36203320D01*
M02*
