%TF.GenerationSoftware,KiCad,Pcbnew,(5.0.2)-1*%
%TF.CreationDate,2018-12-26T10:00:51+09:00*%
%TF.ProjectId,ATTiny85-mppt,41545469-6e79-4383-952d-6d7070742e6b,1.9*%
%TF.SameCoordinates,Original*%
%TF.FileFunction,Soldermask,Top*%
%TF.FilePolarity,Negative*%
%FSLAX46Y46*%
G04 Gerber Fmt 4.6, Leading zero omitted, Abs format (unit mm)*
G04 Created by KiCad (PCBNEW (5.0.2)-1) date 2018-12-26 오전 10:00:51*
%MOMM*%
%LPD*%
G01*
G04 APERTURE LIST*
%ADD10C,0.100000*%
G04 APERTURE END LIST*
D10*
G36*
X128959232Y-106834288D02*
X129329030Y-106987463D01*
X129329033Y-106987465D01*
X129661845Y-107209843D01*
X129944877Y-107492875D01*
X130167255Y-107825687D01*
X130167257Y-107825690D01*
X130320432Y-108195488D01*
X130398520Y-108588064D01*
X130398520Y-108988336D01*
X130320432Y-109380912D01*
X130167257Y-109750710D01*
X130167255Y-109750713D01*
X129944877Y-110083525D01*
X129661845Y-110366557D01*
X129416577Y-110530440D01*
X129329030Y-110588937D01*
X128959232Y-110742112D01*
X128566656Y-110820200D01*
X128166384Y-110820200D01*
X127773808Y-110742112D01*
X127404010Y-110588937D01*
X127316463Y-110530440D01*
X127071195Y-110366557D01*
X126788163Y-110083525D01*
X126565785Y-109750713D01*
X126565783Y-109750710D01*
X126412608Y-109380912D01*
X126334520Y-108988336D01*
X126334520Y-108588064D01*
X126412608Y-108195488D01*
X126565783Y-107825690D01*
X126565785Y-107825687D01*
X126788163Y-107492875D01*
X127071195Y-107209843D01*
X127404007Y-106987465D01*
X127404010Y-106987463D01*
X127773808Y-106834288D01*
X128166384Y-106756200D01*
X128566656Y-106756200D01*
X128959232Y-106834288D01*
X128959232Y-106834288D01*
G37*
G36*
X138200743Y-107391926D02*
X138491923Y-107512537D01*
X138753984Y-107687641D01*
X138976839Y-107910496D01*
X139151943Y-108172557D01*
X139272554Y-108463737D01*
X139334040Y-108772852D01*
X139334040Y-109088028D01*
X139272554Y-109397143D01*
X139151943Y-109688323D01*
X138976839Y-109950384D01*
X138753984Y-110173239D01*
X138491923Y-110348343D01*
X138200743Y-110468954D01*
X137891628Y-110530440D01*
X137576452Y-110530440D01*
X137267337Y-110468954D01*
X136976157Y-110348343D01*
X136714096Y-110173239D01*
X136491241Y-109950384D01*
X136316137Y-109688323D01*
X136195526Y-109397143D01*
X136134040Y-109088028D01*
X136134040Y-108772852D01*
X136195526Y-108463737D01*
X136316137Y-108172557D01*
X136491241Y-107910496D01*
X136714096Y-107687641D01*
X136976157Y-107512537D01*
X137267337Y-107391926D01*
X137576452Y-107330440D01*
X137891628Y-107330440D01*
X138200743Y-107391926D01*
X138200743Y-107391926D01*
G37*
G36*
X49178823Y-107219206D02*
X49470003Y-107339817D01*
X49732064Y-107514921D01*
X49954919Y-107737776D01*
X50130023Y-107999837D01*
X50250634Y-108291017D01*
X50312120Y-108600132D01*
X50312120Y-108915308D01*
X50250634Y-109224423D01*
X50130023Y-109515603D01*
X49954919Y-109777664D01*
X49732064Y-110000519D01*
X49470003Y-110175623D01*
X49178823Y-110296234D01*
X48869708Y-110357720D01*
X48554532Y-110357720D01*
X48245417Y-110296234D01*
X47954237Y-110175623D01*
X47692176Y-110000519D01*
X47469321Y-109777664D01*
X47294217Y-109515603D01*
X47173606Y-109224423D01*
X47112120Y-108915308D01*
X47112120Y-108600132D01*
X47173606Y-108291017D01*
X47294217Y-107999837D01*
X47469321Y-107737776D01*
X47692176Y-107514921D01*
X47954237Y-107339817D01*
X48245417Y-107219206D01*
X48554532Y-107157720D01*
X48869708Y-107157720D01*
X49178823Y-107219206D01*
X49178823Y-107219206D01*
G37*
G36*
X122976110Y-104539077D02*
X123132815Y-104554511D01*
X123333882Y-104615504D01*
X123434417Y-104646001D01*
X123537441Y-104701069D01*
X123712373Y-104794572D01*
X123712375Y-104794573D01*
X123712374Y-104794573D01*
X123956005Y-104994515D01*
X124155947Y-105238146D01*
X124304519Y-105516103D01*
X124304519Y-105516104D01*
X124396009Y-105817705D01*
X124426901Y-106131360D01*
X124396009Y-106445015D01*
X124335016Y-106646082D01*
X124304519Y-106746617D01*
X124257657Y-106834289D01*
X124155948Y-107024573D01*
X123956005Y-107268205D01*
X123712373Y-107468148D01*
X123624867Y-107514921D01*
X123434417Y-107616719D01*
X123333882Y-107647216D01*
X123132815Y-107708209D01*
X122976110Y-107723643D01*
X122897758Y-107731360D01*
X122740562Y-107731360D01*
X122662210Y-107723643D01*
X122505505Y-107708209D01*
X122304438Y-107647216D01*
X122203903Y-107616719D01*
X122013453Y-107514921D01*
X121925947Y-107468148D01*
X121682315Y-107268205D01*
X121482372Y-107024573D01*
X121380663Y-106834289D01*
X121333801Y-106746617D01*
X121303304Y-106646082D01*
X121242311Y-106445015D01*
X121211419Y-106131360D01*
X121242311Y-105817705D01*
X121333801Y-105516104D01*
X121333801Y-105516103D01*
X121482373Y-105238146D01*
X121682315Y-104994515D01*
X121925946Y-104794573D01*
X121925945Y-104794573D01*
X121925947Y-104794572D01*
X122100879Y-104701069D01*
X122203903Y-104646001D01*
X122304438Y-104615504D01*
X122505505Y-104554511D01*
X122662210Y-104539077D01*
X122740562Y-104531360D01*
X122897758Y-104531360D01*
X122976110Y-104539077D01*
X122976110Y-104539077D01*
G37*
G36*
X109179160Y-107731360D02*
X105979160Y-107731360D01*
X105979160Y-104531360D01*
X109179160Y-104531360D01*
X109179160Y-107731360D01*
X109179160Y-107731360D01*
G37*
G36*
X79562774Y-103957820D02*
X79562777Y-103957821D01*
X79704260Y-104000739D01*
X79704262Y-104000740D01*
X79834654Y-104070436D01*
X79948941Y-104164229D01*
X80042734Y-104278516D01*
X80112430Y-104408908D01*
X80155350Y-104550396D01*
X80166210Y-104660661D01*
X80166210Y-105732619D01*
X80155350Y-105842884D01*
X80112430Y-105984372D01*
X80042734Y-106114764D01*
X79948944Y-106229048D01*
X79948942Y-106229049D01*
X79948941Y-106229051D01*
X79834651Y-106322845D01*
X79704259Y-106392541D01*
X79589113Y-106427470D01*
X79562773Y-106435460D01*
X79415640Y-106449951D01*
X79268506Y-106435460D01*
X79242166Y-106427470D01*
X79127020Y-106392541D01*
X78996628Y-106322845D01*
X78996626Y-106322844D01*
X78882342Y-106229054D01*
X78882341Y-106229052D01*
X78882339Y-106229051D01*
X78788545Y-106114761D01*
X78718849Y-105984369D01*
X78675931Y-105842886D01*
X78675930Y-105842883D01*
X78665070Y-105732618D01*
X78665071Y-104660661D01*
X78675931Y-104550396D01*
X78718851Y-104408908D01*
X78788547Y-104278516D01*
X78882340Y-104164229D01*
X78996627Y-104070436D01*
X79127019Y-104000740D01*
X79127021Y-104000739D01*
X79268504Y-103957821D01*
X79268507Y-103957820D01*
X79415640Y-103943329D01*
X79562774Y-103957820D01*
X79562774Y-103957820D01*
G37*
G36*
X82102774Y-103957820D02*
X82102777Y-103957821D01*
X82244260Y-104000739D01*
X82244262Y-104000740D01*
X82374654Y-104070436D01*
X82488941Y-104164229D01*
X82582734Y-104278516D01*
X82652430Y-104408908D01*
X82695350Y-104550396D01*
X82706210Y-104660661D01*
X82706210Y-105732619D01*
X82695350Y-105842884D01*
X82652430Y-105984372D01*
X82582734Y-106114764D01*
X82488944Y-106229048D01*
X82488942Y-106229049D01*
X82488941Y-106229051D01*
X82374651Y-106322845D01*
X82244259Y-106392541D01*
X82129113Y-106427470D01*
X82102773Y-106435460D01*
X81955640Y-106449951D01*
X81808506Y-106435460D01*
X81782166Y-106427470D01*
X81667020Y-106392541D01*
X81536628Y-106322845D01*
X81536626Y-106322844D01*
X81422342Y-106229054D01*
X81422341Y-106229052D01*
X81422339Y-106229051D01*
X81328545Y-106114761D01*
X81258849Y-105984369D01*
X81215931Y-105842886D01*
X81215930Y-105842883D01*
X81205070Y-105732618D01*
X81205071Y-104660661D01*
X81215931Y-104550396D01*
X81258851Y-104408908D01*
X81328547Y-104278516D01*
X81422340Y-104164229D01*
X81536627Y-104070436D01*
X81667019Y-104000740D01*
X81667021Y-104000739D01*
X81808504Y-103957821D01*
X81808507Y-103957820D01*
X81955640Y-103943329D01*
X82102774Y-103957820D01*
X82102774Y-103957820D01*
G37*
G36*
X84642774Y-103957820D02*
X84642777Y-103957821D01*
X84784260Y-104000739D01*
X84784262Y-104000740D01*
X84914654Y-104070436D01*
X85028941Y-104164229D01*
X85122734Y-104278516D01*
X85192430Y-104408908D01*
X85235350Y-104550396D01*
X85246210Y-104660661D01*
X85246210Y-105732619D01*
X85235350Y-105842884D01*
X85192430Y-105984372D01*
X85122734Y-106114764D01*
X85028944Y-106229048D01*
X85028942Y-106229049D01*
X85028941Y-106229051D01*
X84914651Y-106322845D01*
X84784259Y-106392541D01*
X84669113Y-106427470D01*
X84642773Y-106435460D01*
X84495640Y-106449951D01*
X84348506Y-106435460D01*
X84322166Y-106427470D01*
X84207020Y-106392541D01*
X84076628Y-106322845D01*
X84076626Y-106322844D01*
X83962342Y-106229054D01*
X83962341Y-106229052D01*
X83962339Y-106229051D01*
X83868545Y-106114761D01*
X83798849Y-105984369D01*
X83755931Y-105842886D01*
X83755930Y-105842883D01*
X83745070Y-105732618D01*
X83745071Y-104660661D01*
X83755931Y-104550396D01*
X83798851Y-104408908D01*
X83868547Y-104278516D01*
X83962340Y-104164229D01*
X84076627Y-104070436D01*
X84207019Y-104000740D01*
X84207021Y-104000739D01*
X84348504Y-103957821D01*
X84348507Y-103957820D01*
X84495640Y-103943329D01*
X84642774Y-103957820D01*
X84642774Y-103957820D01*
G37*
G36*
X96961466Y-102636875D02*
X97179852Y-102727333D01*
X97376398Y-102858661D01*
X97543539Y-103025802D01*
X97674867Y-103222348D01*
X97765325Y-103440734D01*
X97811440Y-103672569D01*
X97811440Y-103908951D01*
X97765325Y-104140786D01*
X97674867Y-104359172D01*
X97543539Y-104555718D01*
X97376398Y-104722859D01*
X97179852Y-104854187D01*
X96961466Y-104944645D01*
X96729631Y-104990760D01*
X96493249Y-104990760D01*
X96261414Y-104944645D01*
X96043028Y-104854187D01*
X95846482Y-104722859D01*
X95679341Y-104555718D01*
X95548013Y-104359172D01*
X95457555Y-104140786D01*
X95411440Y-103908951D01*
X95411440Y-103672569D01*
X95457555Y-103440734D01*
X95548013Y-103222348D01*
X95679341Y-103025802D01*
X95846482Y-102858661D01*
X96043028Y-102727333D01*
X96261414Y-102636875D01*
X96493249Y-102590760D01*
X96729631Y-102590760D01*
X96961466Y-102636875D01*
X96961466Y-102636875D01*
G37*
G36*
X55969410Y-102830252D02*
X56085329Y-102853309D01*
X56267318Y-102928691D01*
X56431103Y-103038129D01*
X56570391Y-103177417D01*
X56679829Y-103341202D01*
X56755211Y-103523191D01*
X56778268Y-103639110D01*
X56793640Y-103716387D01*
X56793640Y-103913373D01*
X56778268Y-103990650D01*
X56755211Y-104106569D01*
X56679829Y-104288558D01*
X56570391Y-104452343D01*
X56431103Y-104591631D01*
X56267318Y-104701069D01*
X56085329Y-104776451D01*
X55994227Y-104794572D01*
X55892133Y-104814880D01*
X55695147Y-104814880D01*
X55593053Y-104794572D01*
X55501951Y-104776451D01*
X55319962Y-104701069D01*
X55156177Y-104591631D01*
X55016889Y-104452343D01*
X54907451Y-104288558D01*
X54832069Y-104106569D01*
X54809012Y-103990650D01*
X54793640Y-103913373D01*
X54793640Y-103716387D01*
X54809012Y-103639110D01*
X54832069Y-103523191D01*
X54907451Y-103341202D01*
X55016889Y-103177417D01*
X55156177Y-103038129D01*
X55319962Y-102928691D01*
X55501951Y-102853309D01*
X55617870Y-102830252D01*
X55695147Y-102814880D01*
X55892133Y-102814880D01*
X55969410Y-102830252D01*
X55969410Y-102830252D01*
G37*
G36*
X60469410Y-102830252D02*
X60585329Y-102853309D01*
X60767318Y-102928691D01*
X60931103Y-103038129D01*
X61070391Y-103177417D01*
X61179829Y-103341202D01*
X61255211Y-103523191D01*
X61278268Y-103639110D01*
X61293640Y-103716387D01*
X61293640Y-103913373D01*
X61278268Y-103990650D01*
X61255211Y-104106569D01*
X61179829Y-104288558D01*
X61070391Y-104452343D01*
X60931103Y-104591631D01*
X60767318Y-104701069D01*
X60585329Y-104776451D01*
X60494227Y-104794572D01*
X60392133Y-104814880D01*
X60195147Y-104814880D01*
X60093053Y-104794572D01*
X60001951Y-104776451D01*
X59819962Y-104701069D01*
X59656177Y-104591631D01*
X59516889Y-104452343D01*
X59407451Y-104288558D01*
X59332069Y-104106569D01*
X59309012Y-103990650D01*
X59293640Y-103913373D01*
X59293640Y-103716387D01*
X59309012Y-103639110D01*
X59332069Y-103523191D01*
X59407451Y-103341202D01*
X59516889Y-103177417D01*
X59656177Y-103038129D01*
X59819962Y-102928691D01*
X60001951Y-102853309D01*
X60117870Y-102830252D01*
X60195147Y-102814880D01*
X60392133Y-102814880D01*
X60469410Y-102830252D01*
X60469410Y-102830252D01*
G37*
G36*
X67712160Y-102174880D02*
X65912160Y-102174880D01*
X65912160Y-100374880D01*
X67712160Y-100374880D01*
X67712160Y-102174880D01*
X67712160Y-102174880D01*
G37*
G36*
X122976110Y-98082397D02*
X123132815Y-98097831D01*
X123333882Y-98158824D01*
X123434417Y-98189321D01*
X123582988Y-98268734D01*
X123712373Y-98337892D01*
X123712375Y-98337893D01*
X123712374Y-98337893D01*
X123956005Y-98537835D01*
X124155947Y-98781466D01*
X124304519Y-99059423D01*
X124304519Y-99059424D01*
X124396009Y-99361025D01*
X124426901Y-99674680D01*
X124396009Y-99988335D01*
X124395273Y-99990760D01*
X124304519Y-100289937D01*
X124264097Y-100365560D01*
X124155948Y-100567893D01*
X123956005Y-100811525D01*
X123712373Y-101011468D01*
X123582988Y-101080626D01*
X123434417Y-101160039D01*
X123333882Y-101190536D01*
X123132815Y-101251529D01*
X122976110Y-101266963D01*
X122897758Y-101274680D01*
X122740562Y-101274680D01*
X122662210Y-101266963D01*
X122505505Y-101251529D01*
X122304438Y-101190536D01*
X122203903Y-101160039D01*
X122055332Y-101080626D01*
X121925947Y-101011468D01*
X121682315Y-100811525D01*
X121482372Y-100567893D01*
X121374223Y-100365560D01*
X121333801Y-100289937D01*
X121243047Y-99990760D01*
X121242311Y-99988335D01*
X121211419Y-99674680D01*
X121242311Y-99361025D01*
X121333801Y-99059424D01*
X121333801Y-99059423D01*
X121482373Y-98781466D01*
X121682315Y-98537835D01*
X121925946Y-98337893D01*
X121925945Y-98337893D01*
X121925947Y-98337892D01*
X122055332Y-98268734D01*
X122203903Y-98189321D01*
X122304438Y-98158824D01*
X122505505Y-98097831D01*
X122662210Y-98082397D01*
X122740562Y-98074680D01*
X122897758Y-98074680D01*
X122976110Y-98082397D01*
X122976110Y-98082397D01*
G37*
G36*
X109179160Y-101274680D02*
X105979160Y-101274680D01*
X105979160Y-98074680D01*
X109179160Y-98074680D01*
X109179160Y-101274680D01*
X109179160Y-101274680D01*
G37*
G36*
X137747632Y-96379648D02*
X138117430Y-96532823D01*
X138117433Y-96532825D01*
X138450245Y-96755203D01*
X138733277Y-97038235D01*
X138955655Y-97371047D01*
X138955657Y-97371050D01*
X139108832Y-97740848D01*
X139186920Y-98133424D01*
X139186920Y-98533696D01*
X139108832Y-98926272D01*
X138955657Y-99296070D01*
X138955655Y-99296073D01*
X138733277Y-99628885D01*
X138450245Y-99911917D01*
X138117433Y-100134295D01*
X138117430Y-100134297D01*
X137747632Y-100287472D01*
X137355056Y-100365560D01*
X136954784Y-100365560D01*
X136562208Y-100287472D01*
X136192410Y-100134297D01*
X136192407Y-100134295D01*
X135859595Y-99911917D01*
X135576563Y-99628885D01*
X135354185Y-99296073D01*
X135354183Y-99296070D01*
X135201008Y-98926272D01*
X135122920Y-98533696D01*
X135122920Y-98133424D01*
X135201008Y-97740848D01*
X135354183Y-97371050D01*
X135354185Y-97371047D01*
X135576563Y-97038235D01*
X135859595Y-96755203D01*
X136192407Y-96532825D01*
X136192410Y-96532823D01*
X136562208Y-96379648D01*
X136954784Y-96301560D01*
X137355056Y-96301560D01*
X137747632Y-96379648D01*
X137747632Y-96379648D01*
G37*
G36*
X97811440Y-99990760D02*
X95411440Y-99990760D01*
X95411440Y-97590760D01*
X97811440Y-97590760D01*
X97811440Y-99990760D01*
X97811440Y-99990760D01*
G37*
G36*
X67074681Y-97869466D02*
X67238469Y-97937309D01*
X67385880Y-98035806D01*
X67511234Y-98161160D01*
X67609731Y-98308571D01*
X67677574Y-98472359D01*
X67712160Y-98646236D01*
X67712160Y-98823524D01*
X67677574Y-98997401D01*
X67609731Y-99161189D01*
X67511234Y-99308600D01*
X67385880Y-99433954D01*
X67238469Y-99532451D01*
X67074681Y-99600294D01*
X66900804Y-99634880D01*
X66723516Y-99634880D01*
X66549639Y-99600294D01*
X66385851Y-99532451D01*
X66238440Y-99433954D01*
X66113086Y-99308600D01*
X66014589Y-99161189D01*
X65946746Y-98997401D01*
X65912160Y-98823524D01*
X65912160Y-98646236D01*
X65946746Y-98472359D01*
X66014589Y-98308571D01*
X66113086Y-98161160D01*
X66238440Y-98035806D01*
X66385851Y-97937309D01*
X66549639Y-97869466D01*
X66723516Y-97834880D01*
X66900804Y-97834880D01*
X67074681Y-97869466D01*
X67074681Y-97869466D01*
G37*
G36*
X55969410Y-96330252D02*
X56085329Y-96353309D01*
X56267318Y-96428691D01*
X56431103Y-96538129D01*
X56570391Y-96677417D01*
X56679829Y-96841202D01*
X56755211Y-97023191D01*
X56793640Y-97216389D01*
X56793640Y-97413371D01*
X56755211Y-97606569D01*
X56679829Y-97788558D01*
X56570391Y-97952343D01*
X56431103Y-98091631D01*
X56267318Y-98201069D01*
X56085329Y-98276451D01*
X55969410Y-98299508D01*
X55892133Y-98314880D01*
X55695147Y-98314880D01*
X55617870Y-98299508D01*
X55501951Y-98276451D01*
X55319962Y-98201069D01*
X55156177Y-98091631D01*
X55016889Y-97952343D01*
X54907451Y-97788558D01*
X54832069Y-97606569D01*
X54793640Y-97413371D01*
X54793640Y-97216389D01*
X54832069Y-97023191D01*
X54907451Y-96841202D01*
X55016889Y-96677417D01*
X55156177Y-96538129D01*
X55319962Y-96428691D01*
X55501951Y-96353309D01*
X55617870Y-96330252D01*
X55695147Y-96314880D01*
X55892133Y-96314880D01*
X55969410Y-96330252D01*
X55969410Y-96330252D01*
G37*
G36*
X60469410Y-96330252D02*
X60585329Y-96353309D01*
X60767318Y-96428691D01*
X60931103Y-96538129D01*
X61070391Y-96677417D01*
X61179829Y-96841202D01*
X61255211Y-97023191D01*
X61293640Y-97216389D01*
X61293640Y-97413371D01*
X61255211Y-97606569D01*
X61179829Y-97788558D01*
X61070391Y-97952343D01*
X60931103Y-98091631D01*
X60767318Y-98201069D01*
X60585329Y-98276451D01*
X60469410Y-98299508D01*
X60392133Y-98314880D01*
X60195147Y-98314880D01*
X60117870Y-98299508D01*
X60001951Y-98276451D01*
X59819962Y-98201069D01*
X59656177Y-98091631D01*
X59516889Y-97952343D01*
X59407451Y-97788558D01*
X59332069Y-97606569D01*
X59293640Y-97413371D01*
X59293640Y-97216389D01*
X59332069Y-97023191D01*
X59407451Y-96841202D01*
X59516889Y-96677417D01*
X59656177Y-96538129D01*
X59819962Y-96428691D01*
X60001951Y-96353309D01*
X60117870Y-96330252D01*
X60195147Y-96314880D01*
X60392133Y-96314880D01*
X60469410Y-96330252D01*
X60469410Y-96330252D01*
G37*
G36*
X83753632Y-93185343D02*
X83899221Y-93245648D01*
X84030253Y-93333201D01*
X84141679Y-93444627D01*
X84229232Y-93575659D01*
X84289537Y-93721248D01*
X84320280Y-93875805D01*
X84320280Y-94033395D01*
X84289537Y-94187952D01*
X84229232Y-94333541D01*
X84141679Y-94464573D01*
X84030253Y-94575999D01*
X83899221Y-94663552D01*
X83753632Y-94723857D01*
X83599075Y-94754600D01*
X83441485Y-94754600D01*
X83286928Y-94723857D01*
X83141339Y-94663552D01*
X83010307Y-94575999D01*
X82898881Y-94464573D01*
X82811328Y-94333541D01*
X82751023Y-94187952D01*
X82720280Y-94033395D01*
X82720280Y-93875805D01*
X82751023Y-93721248D01*
X82811328Y-93575659D01*
X82898881Y-93444627D01*
X83010307Y-93333201D01*
X83141339Y-93245648D01*
X83286928Y-93185343D01*
X83441485Y-93154600D01*
X83599075Y-93154600D01*
X83753632Y-93185343D01*
X83753632Y-93185343D01*
G37*
G36*
X78907312Y-93185343D02*
X79052901Y-93245648D01*
X79183933Y-93333201D01*
X79295359Y-93444627D01*
X79382912Y-93575659D01*
X79443217Y-93721248D01*
X79473960Y-93875805D01*
X79473960Y-94033395D01*
X79443217Y-94187952D01*
X79382912Y-94333541D01*
X79295359Y-94464573D01*
X79183933Y-94575999D01*
X79052901Y-94663552D01*
X78907312Y-94723857D01*
X78752755Y-94754600D01*
X78595165Y-94754600D01*
X78440608Y-94723857D01*
X78295019Y-94663552D01*
X78163987Y-94575999D01*
X78052561Y-94464573D01*
X77965008Y-94333541D01*
X77904703Y-94187952D01*
X77873960Y-94033395D01*
X77873960Y-93875805D01*
X77904703Y-93721248D01*
X77965008Y-93575659D01*
X78052561Y-93444627D01*
X78163987Y-93333201D01*
X78295019Y-93245648D01*
X78440608Y-93185343D01*
X78595165Y-93154600D01*
X78752755Y-93154600D01*
X78907312Y-93185343D01*
X78907312Y-93185343D01*
G37*
G36*
X71764832Y-93119303D02*
X71910421Y-93179608D01*
X72041453Y-93267161D01*
X72152879Y-93378587D01*
X72240432Y-93509619D01*
X72300737Y-93655208D01*
X72331480Y-93809765D01*
X72331480Y-93967355D01*
X72300737Y-94121912D01*
X72240432Y-94267501D01*
X72152879Y-94398533D01*
X72041453Y-94509959D01*
X71910421Y-94597512D01*
X71764832Y-94657817D01*
X71610275Y-94688560D01*
X71452685Y-94688560D01*
X71298128Y-94657817D01*
X71152539Y-94597512D01*
X71021507Y-94509959D01*
X70910081Y-94398533D01*
X70822528Y-94267501D01*
X70762223Y-94121912D01*
X70731480Y-93967355D01*
X70731480Y-93809765D01*
X70762223Y-93655208D01*
X70822528Y-93509619D01*
X70910081Y-93378587D01*
X71021507Y-93267161D01*
X71152539Y-93179608D01*
X71298128Y-93119303D01*
X71452685Y-93088560D01*
X71610275Y-93088560D01*
X71764832Y-93119303D01*
X71764832Y-93119303D01*
G37*
G36*
X67045512Y-93119303D02*
X67191101Y-93179608D01*
X67322133Y-93267161D01*
X67433559Y-93378587D01*
X67521112Y-93509619D01*
X67581417Y-93655208D01*
X67612160Y-93809765D01*
X67612160Y-93967355D01*
X67581417Y-94121912D01*
X67521112Y-94267501D01*
X67433559Y-94398533D01*
X67322133Y-94509959D01*
X67191101Y-94597512D01*
X67045512Y-94657817D01*
X66890955Y-94688560D01*
X66733365Y-94688560D01*
X66578808Y-94657817D01*
X66433219Y-94597512D01*
X66302187Y-94509959D01*
X66190761Y-94398533D01*
X66103208Y-94267501D01*
X66042903Y-94121912D01*
X66012160Y-93967355D01*
X66012160Y-93809765D01*
X66042903Y-93655208D01*
X66103208Y-93509619D01*
X66190761Y-93378587D01*
X66302187Y-93267161D01*
X66433219Y-93179608D01*
X66578808Y-93119303D01*
X66733365Y-93088560D01*
X66890955Y-93088560D01*
X67045512Y-93119303D01*
X67045512Y-93119303D01*
G37*
G36*
X125514282Y-90260155D02*
X125630201Y-90283213D01*
X125957780Y-90418901D01*
X126248671Y-90613268D01*
X126252596Y-90615891D01*
X126503309Y-90866604D01*
X126503311Y-90866607D01*
X126657389Y-91097200D01*
X126700300Y-91161422D01*
X126740041Y-91257366D01*
X126835987Y-91488999D01*
X126852961Y-91574332D01*
X126901511Y-91818407D01*
X126905160Y-91836756D01*
X126905160Y-92191324D01*
X126835987Y-92539081D01*
X126783226Y-92666457D01*
X126700300Y-92866658D01*
X126503309Y-93161476D01*
X126252596Y-93412189D01*
X126252593Y-93412191D01*
X125957780Y-93609179D01*
X125630201Y-93744867D01*
X125514282Y-93767925D01*
X125282446Y-93814040D01*
X124927874Y-93814040D01*
X124696038Y-93767925D01*
X124580119Y-93744867D01*
X124252540Y-93609179D01*
X123957727Y-93412191D01*
X123957724Y-93412189D01*
X123707011Y-93161476D01*
X123510020Y-92866658D01*
X123427094Y-92666457D01*
X123374333Y-92539081D01*
X123305160Y-92191324D01*
X123305160Y-91836756D01*
X123308810Y-91818407D01*
X123357359Y-91574332D01*
X123374333Y-91488999D01*
X123470279Y-91257366D01*
X123510020Y-91161422D01*
X123552932Y-91097200D01*
X123707009Y-90866607D01*
X123707011Y-90866604D01*
X123957724Y-90615891D01*
X123961649Y-90613268D01*
X124252540Y-90418901D01*
X124580119Y-90283213D01*
X124696038Y-90260155D01*
X124927874Y-90214040D01*
X125282446Y-90214040D01*
X125514282Y-90260155D01*
X125514282Y-90260155D01*
G37*
G36*
X90530352Y-91127943D02*
X90675941Y-91188248D01*
X90806973Y-91275801D01*
X90918399Y-91387227D01*
X91005952Y-91518259D01*
X91066257Y-91663848D01*
X91097000Y-91818405D01*
X91097000Y-91975995D01*
X91066257Y-92130552D01*
X91005952Y-92276141D01*
X90918399Y-92407173D01*
X90806973Y-92518599D01*
X90675941Y-92606152D01*
X90530352Y-92666457D01*
X90375795Y-92697200D01*
X90218205Y-92697200D01*
X90063648Y-92666457D01*
X89918059Y-92606152D01*
X89787027Y-92518599D01*
X89675601Y-92407173D01*
X89588048Y-92276141D01*
X89527743Y-92130552D01*
X89497000Y-91975995D01*
X89497000Y-91818405D01*
X89527743Y-91663848D01*
X89588048Y-91518259D01*
X89675601Y-91387227D01*
X89787027Y-91275801D01*
X89918059Y-91188248D01*
X90063648Y-91127943D01*
X90218205Y-91097200D01*
X90375795Y-91097200D01*
X90530352Y-91127943D01*
X90530352Y-91127943D01*
G37*
G36*
X95255889Y-91089677D02*
X95295067Y-91093536D01*
X95370467Y-91116408D01*
X95445869Y-91139281D01*
X95584848Y-91213568D01*
X95706662Y-91313538D01*
X95806632Y-91435352D01*
X95880919Y-91574331D01*
X95926664Y-91725134D01*
X95942110Y-91881960D01*
X95926664Y-92038786D01*
X95880919Y-92189589D01*
X95806632Y-92328568D01*
X95706662Y-92450382D01*
X95584848Y-92550352D01*
X95445869Y-92624639D01*
X95370468Y-92647511D01*
X95295067Y-92670384D01*
X95255889Y-92674243D01*
X95177535Y-92681960D01*
X95098945Y-92681960D01*
X95020591Y-92674243D01*
X94981413Y-92670384D01*
X94906012Y-92647511D01*
X94830611Y-92624639D01*
X94691632Y-92550352D01*
X94569818Y-92450382D01*
X94469848Y-92328568D01*
X94395561Y-92189589D01*
X94349816Y-92038786D01*
X94334370Y-91881960D01*
X94349816Y-91725134D01*
X94395561Y-91574331D01*
X94469848Y-91435352D01*
X94569818Y-91313538D01*
X94691632Y-91213568D01*
X94830611Y-91139281D01*
X94906013Y-91116408D01*
X94981413Y-91093536D01*
X95020591Y-91089677D01*
X95098945Y-91081960D01*
X95177535Y-91081960D01*
X95255889Y-91089677D01*
X95255889Y-91089677D01*
G37*
G36*
X104613280Y-90358800D02*
X102813280Y-90358800D01*
X102813280Y-88558800D01*
X104613280Y-88558800D01*
X104613280Y-90358800D01*
X104613280Y-90358800D01*
G37*
G36*
X103975801Y-86053386D02*
X104139589Y-86121229D01*
X104287000Y-86219726D01*
X104412354Y-86345080D01*
X104510851Y-86492491D01*
X104578694Y-86656279D01*
X104613280Y-86830156D01*
X104613280Y-87007444D01*
X104578694Y-87181321D01*
X104510851Y-87345109D01*
X104412354Y-87492520D01*
X104287000Y-87617874D01*
X104139589Y-87716371D01*
X103975801Y-87784214D01*
X103801924Y-87818800D01*
X103624636Y-87818800D01*
X103450759Y-87784214D01*
X103286971Y-87716371D01*
X103139560Y-87617874D01*
X103014206Y-87492520D01*
X102915709Y-87345109D01*
X102847866Y-87181321D01*
X102813280Y-87007444D01*
X102813280Y-86830156D01*
X102847866Y-86656279D01*
X102915709Y-86492491D01*
X103014206Y-86345080D01*
X103139560Y-86219726D01*
X103286971Y-86121229D01*
X103450759Y-86053386D01*
X103624636Y-86018800D01*
X103801924Y-86018800D01*
X103975801Y-86053386D01*
X103975801Y-86053386D01*
G37*
G36*
X58256946Y-85044835D02*
X58475332Y-85135293D01*
X58671878Y-85266621D01*
X58839019Y-85433762D01*
X58970347Y-85630308D01*
X59060805Y-85848694D01*
X59106920Y-86080529D01*
X59106920Y-86316911D01*
X59060805Y-86548746D01*
X58970347Y-86767132D01*
X58839019Y-86963678D01*
X58671878Y-87130819D01*
X58475332Y-87262147D01*
X58256946Y-87352605D01*
X58025111Y-87398720D01*
X57788729Y-87398720D01*
X57556894Y-87352605D01*
X57338508Y-87262147D01*
X57141962Y-87130819D01*
X56974821Y-86963678D01*
X56843493Y-86767132D01*
X56753035Y-86548746D01*
X56706920Y-86316911D01*
X56706920Y-86080529D01*
X56753035Y-85848694D01*
X56843493Y-85630308D01*
X56974821Y-85433762D01*
X57141962Y-85266621D01*
X57338508Y-85135293D01*
X57556894Y-85044835D01*
X57788729Y-84998720D01*
X58025111Y-84998720D01*
X58256946Y-85044835D01*
X58256946Y-85044835D01*
G37*
G36*
X104592960Y-84526960D02*
X102792960Y-84526960D01*
X102792960Y-82726960D01*
X104592960Y-82726960D01*
X104592960Y-84526960D01*
X104592960Y-84526960D01*
G37*
G36*
X59106920Y-82398720D02*
X56706920Y-82398720D01*
X56706920Y-79998720D01*
X59106920Y-79998720D01*
X59106920Y-82398720D01*
X59106920Y-82398720D01*
G37*
G36*
X83629356Y-80461473D02*
X83677107Y-80466176D01*
X83752507Y-80489048D01*
X83827909Y-80511921D01*
X83966888Y-80586208D01*
X84088702Y-80686178D01*
X84188672Y-80807992D01*
X84262959Y-80946971D01*
X84308704Y-81097774D01*
X84324150Y-81254600D01*
X84308704Y-81411426D01*
X84262959Y-81562229D01*
X84188672Y-81701208D01*
X84088702Y-81823022D01*
X83966888Y-81922992D01*
X83827909Y-81997279D01*
X83752508Y-82020151D01*
X83677107Y-82043024D01*
X83637929Y-82046883D01*
X83559575Y-82054600D01*
X83480985Y-82054600D01*
X83402631Y-82046883D01*
X83363453Y-82043024D01*
X83288052Y-82020151D01*
X83212651Y-81997279D01*
X83073672Y-81922992D01*
X82951858Y-81823022D01*
X82851888Y-81701208D01*
X82777601Y-81562229D01*
X82731856Y-81411426D01*
X82716410Y-81254600D01*
X82731856Y-81097774D01*
X82777601Y-80946971D01*
X82851888Y-80807992D01*
X82951858Y-80686178D01*
X83073672Y-80586208D01*
X83212651Y-80511921D01*
X83288052Y-80489049D01*
X83363453Y-80466176D01*
X83411204Y-80461473D01*
X83480985Y-80454600D01*
X83559575Y-80454600D01*
X83629356Y-80461473D01*
X83629356Y-80461473D01*
G37*
G36*
X78783036Y-80461473D02*
X78830787Y-80466176D01*
X78906187Y-80489048D01*
X78981589Y-80511921D01*
X79120568Y-80586208D01*
X79242382Y-80686178D01*
X79342352Y-80807992D01*
X79416639Y-80946971D01*
X79462384Y-81097774D01*
X79477830Y-81254600D01*
X79462384Y-81411426D01*
X79416639Y-81562229D01*
X79342352Y-81701208D01*
X79242382Y-81823022D01*
X79120568Y-81922992D01*
X78981589Y-81997279D01*
X78906188Y-82020151D01*
X78830787Y-82043024D01*
X78791609Y-82046883D01*
X78713255Y-82054600D01*
X78634665Y-82054600D01*
X78556311Y-82046883D01*
X78517133Y-82043024D01*
X78441732Y-82020151D01*
X78366331Y-81997279D01*
X78227352Y-81922992D01*
X78105538Y-81823022D01*
X78005568Y-81701208D01*
X77931281Y-81562229D01*
X77885536Y-81411426D01*
X77870090Y-81254600D01*
X77885536Y-81097774D01*
X77931281Y-80946971D01*
X78005568Y-80807992D01*
X78105538Y-80686178D01*
X78227352Y-80586208D01*
X78366331Y-80511921D01*
X78441732Y-80489049D01*
X78517133Y-80466176D01*
X78564884Y-80461473D01*
X78634665Y-80454600D01*
X78713255Y-80454600D01*
X78783036Y-80461473D01*
X78783036Y-80461473D01*
G37*
G36*
X71649129Y-80396277D02*
X71688307Y-80400136D01*
X71763708Y-80423009D01*
X71839109Y-80445881D01*
X71978088Y-80520168D01*
X72099902Y-80620138D01*
X72199872Y-80741952D01*
X72274159Y-80880931D01*
X72274159Y-80880932D01*
X72319904Y-81031733D01*
X72326408Y-81097773D01*
X72335350Y-81188560D01*
X72319904Y-81345386D01*
X72274159Y-81496189D01*
X72199872Y-81635168D01*
X72099902Y-81756982D01*
X71978088Y-81856952D01*
X71839109Y-81931239D01*
X71769435Y-81952374D01*
X71688307Y-81976984D01*
X71649129Y-81980843D01*
X71570775Y-81988560D01*
X71492185Y-81988560D01*
X71413831Y-81980843D01*
X71374653Y-81976984D01*
X71293525Y-81952374D01*
X71223851Y-81931239D01*
X71084872Y-81856952D01*
X70963058Y-81756982D01*
X70863088Y-81635168D01*
X70788801Y-81496189D01*
X70743056Y-81345386D01*
X70727610Y-81188560D01*
X70736552Y-81097773D01*
X70743056Y-81031733D01*
X70788801Y-80880932D01*
X70788801Y-80880931D01*
X70863088Y-80741952D01*
X70963058Y-80620138D01*
X71084872Y-80520168D01*
X71223851Y-80445881D01*
X71299252Y-80423009D01*
X71374653Y-80400136D01*
X71413831Y-80396277D01*
X71492185Y-80388560D01*
X71570775Y-80388560D01*
X71649129Y-80396277D01*
X71649129Y-80396277D01*
G37*
G36*
X66929809Y-80396277D02*
X66968987Y-80400136D01*
X67044388Y-80423009D01*
X67119789Y-80445881D01*
X67258768Y-80520168D01*
X67380582Y-80620138D01*
X67480552Y-80741952D01*
X67554839Y-80880931D01*
X67554839Y-80880932D01*
X67600584Y-81031733D01*
X67607088Y-81097773D01*
X67616030Y-81188560D01*
X67600584Y-81345386D01*
X67554839Y-81496189D01*
X67480552Y-81635168D01*
X67380582Y-81756982D01*
X67258768Y-81856952D01*
X67119789Y-81931239D01*
X67050115Y-81952374D01*
X66968987Y-81976984D01*
X66929809Y-81980843D01*
X66851455Y-81988560D01*
X66772865Y-81988560D01*
X66694511Y-81980843D01*
X66655333Y-81976984D01*
X66574205Y-81952374D01*
X66504531Y-81931239D01*
X66365552Y-81856952D01*
X66243738Y-81756982D01*
X66143768Y-81635168D01*
X66069481Y-81496189D01*
X66023736Y-81345386D01*
X66008290Y-81188560D01*
X66017232Y-81097773D01*
X66023736Y-81031733D01*
X66069481Y-80880932D01*
X66069481Y-80880931D01*
X66143768Y-80741952D01*
X66243738Y-80620138D01*
X66365552Y-80520168D01*
X66504531Y-80445881D01*
X66579932Y-80423009D01*
X66655333Y-80400136D01*
X66694511Y-80396277D01*
X66772865Y-80388560D01*
X66851455Y-80388560D01*
X66929809Y-80396277D01*
X66929809Y-80396277D01*
G37*
G36*
X103955481Y-80221546D02*
X104119269Y-80289389D01*
X104266680Y-80387886D01*
X104392034Y-80513240D01*
X104490531Y-80660651D01*
X104558374Y-80824439D01*
X104592960Y-80998316D01*
X104592960Y-81175604D01*
X104558374Y-81349481D01*
X104490531Y-81513269D01*
X104392034Y-81660680D01*
X104266680Y-81786034D01*
X104119269Y-81884531D01*
X103955481Y-81952374D01*
X103781604Y-81986960D01*
X103604316Y-81986960D01*
X103430439Y-81952374D01*
X103266651Y-81884531D01*
X103119240Y-81786034D01*
X102993886Y-81660680D01*
X102895389Y-81513269D01*
X102827546Y-81349481D01*
X102792960Y-81175604D01*
X102792960Y-80998316D01*
X102827546Y-80824439D01*
X102895389Y-80660651D01*
X102993886Y-80513240D01*
X103119240Y-80387886D01*
X103266651Y-80289389D01*
X103430439Y-80221546D01*
X103604316Y-80186960D01*
X103781604Y-80186960D01*
X103955481Y-80221546D01*
X103955481Y-80221546D01*
G37*
G36*
X125514282Y-77560155D02*
X125630201Y-77583213D01*
X125828176Y-77665217D01*
X125891274Y-77691353D01*
X125957780Y-77718901D01*
X126027728Y-77765639D01*
X126252596Y-77915891D01*
X126503309Y-78166604D01*
X126503311Y-78166607D01*
X126700299Y-78461420D01*
X126835987Y-78788999D01*
X126838776Y-78803019D01*
X126905160Y-79136754D01*
X126905160Y-79491326D01*
X126859045Y-79723162D01*
X126835987Y-79839081D01*
X126776804Y-79981960D01*
X126700300Y-80166658D01*
X126503309Y-80461476D01*
X126252596Y-80712189D01*
X126252593Y-80712191D01*
X125957780Y-80909179D01*
X125630201Y-81044867D01*
X125514282Y-81067925D01*
X125282446Y-81114040D01*
X124927874Y-81114040D01*
X124696038Y-81067925D01*
X124580119Y-81044867D01*
X124252540Y-80909179D01*
X123957727Y-80712191D01*
X123957724Y-80712189D01*
X123707011Y-80461476D01*
X123510020Y-80166658D01*
X123433516Y-79981960D01*
X123374333Y-79839081D01*
X123351275Y-79723162D01*
X123305160Y-79491326D01*
X123305160Y-79136754D01*
X123371544Y-78803019D01*
X123374333Y-78788999D01*
X123510021Y-78461420D01*
X123707009Y-78166607D01*
X123707011Y-78166604D01*
X123957724Y-77915891D01*
X124182592Y-77765639D01*
X124252540Y-77718901D01*
X124319047Y-77691353D01*
X124382144Y-77665217D01*
X124580119Y-77583213D01*
X124696038Y-77560155D01*
X124927874Y-77514040D01*
X125282446Y-77514040D01*
X125514282Y-77560155D01*
X125514282Y-77560155D01*
G37*
G36*
X90414649Y-78404917D02*
X90453827Y-78408776D01*
X90498663Y-78422377D01*
X90604629Y-78454521D01*
X90743608Y-78528808D01*
X90865422Y-78628778D01*
X90965392Y-78750592D01*
X91039679Y-78889571D01*
X91085424Y-79040374D01*
X91100870Y-79197200D01*
X91085424Y-79354026D01*
X91039679Y-79504829D01*
X90965392Y-79643808D01*
X90865422Y-79765622D01*
X90743608Y-79865592D01*
X90604629Y-79939879D01*
X90567252Y-79951217D01*
X90453827Y-79985624D01*
X90414649Y-79989483D01*
X90336295Y-79997200D01*
X90257705Y-79997200D01*
X90179351Y-79989483D01*
X90140173Y-79985624D01*
X90026748Y-79951217D01*
X89989371Y-79939879D01*
X89850392Y-79865592D01*
X89728578Y-79765622D01*
X89628608Y-79643808D01*
X89554321Y-79504829D01*
X89508576Y-79354026D01*
X89493130Y-79197200D01*
X89508576Y-79040374D01*
X89554321Y-78889571D01*
X89628608Y-78750592D01*
X89728578Y-78628778D01*
X89850392Y-78528808D01*
X89989371Y-78454521D01*
X90095337Y-78422377D01*
X90140173Y-78408776D01*
X90179351Y-78404917D01*
X90257705Y-78397200D01*
X90336295Y-78397200D01*
X90414649Y-78404917D01*
X90414649Y-78404917D01*
G37*
G36*
X95371592Y-78412703D02*
X95517181Y-78473008D01*
X95648213Y-78560561D01*
X95759639Y-78671987D01*
X95847192Y-78803019D01*
X95907497Y-78948608D01*
X95938240Y-79103165D01*
X95938240Y-79260755D01*
X95907497Y-79415312D01*
X95847192Y-79560901D01*
X95759639Y-79691933D01*
X95648213Y-79803359D01*
X95517181Y-79890912D01*
X95371592Y-79951217D01*
X95217035Y-79981960D01*
X95059445Y-79981960D01*
X94904888Y-79951217D01*
X94759299Y-79890912D01*
X94628267Y-79803359D01*
X94516841Y-79691933D01*
X94429288Y-79560901D01*
X94368983Y-79415312D01*
X94338240Y-79260755D01*
X94338240Y-79103165D01*
X94368983Y-78948608D01*
X94429288Y-78803019D01*
X94516841Y-78671987D01*
X94628267Y-78560561D01*
X94759299Y-78473008D01*
X94904888Y-78412703D01*
X95059445Y-78381960D01*
X95217035Y-78381960D01*
X95371592Y-78412703D01*
X95371592Y-78412703D01*
G37*
G36*
X49101632Y-74667728D02*
X49471430Y-74820903D01*
X49471433Y-74820905D01*
X49804245Y-75043283D01*
X50087277Y-75326315D01*
X50309655Y-75659127D01*
X50309657Y-75659130D01*
X50462832Y-76028928D01*
X50540920Y-76421504D01*
X50540920Y-76821776D01*
X50462832Y-77214352D01*
X50309657Y-77584150D01*
X50309655Y-77584153D01*
X50087277Y-77916965D01*
X49804245Y-78199997D01*
X49531918Y-78381960D01*
X49471430Y-78422377D01*
X49101632Y-78575552D01*
X48709056Y-78653640D01*
X48308784Y-78653640D01*
X47916208Y-78575552D01*
X47546410Y-78422377D01*
X47485922Y-78381960D01*
X47213595Y-78199997D01*
X46930563Y-77916965D01*
X46708185Y-77584153D01*
X46708183Y-77584150D01*
X46555008Y-77214352D01*
X46476920Y-76821776D01*
X46476920Y-76421504D01*
X46555008Y-76028928D01*
X46708183Y-75659130D01*
X46708185Y-75659127D01*
X46930563Y-75326315D01*
X47213595Y-75043283D01*
X47546407Y-74820905D01*
X47546410Y-74820903D01*
X47916208Y-74667728D01*
X48308784Y-74589640D01*
X48709056Y-74589640D01*
X49101632Y-74667728D01*
X49101632Y-74667728D01*
G37*
G36*
X103805529Y-76230677D02*
X103844707Y-76234536D01*
X103920108Y-76257409D01*
X103995509Y-76280281D01*
X104134488Y-76354568D01*
X104256302Y-76454538D01*
X104356272Y-76576352D01*
X104430559Y-76715331D01*
X104430559Y-76715332D01*
X104476304Y-76866133D01*
X104491750Y-77022960D01*
X104476304Y-77179787D01*
X104453432Y-77255187D01*
X104430559Y-77330589D01*
X104356272Y-77469568D01*
X104256302Y-77591382D01*
X104134488Y-77691352D01*
X103995509Y-77765639D01*
X103920108Y-77788511D01*
X103844707Y-77811384D01*
X103805529Y-77815243D01*
X103727175Y-77822960D01*
X103648585Y-77822960D01*
X103570231Y-77815243D01*
X103531053Y-77811384D01*
X103455652Y-77788511D01*
X103380251Y-77765639D01*
X103241272Y-77691352D01*
X103119458Y-77591382D01*
X103019488Y-77469568D01*
X102945201Y-77330589D01*
X102922328Y-77255187D01*
X102899456Y-77179787D01*
X102884010Y-77022960D01*
X102899456Y-76866133D01*
X102945201Y-76715332D01*
X102945201Y-76715331D01*
X103019488Y-76576352D01*
X103119458Y-76454538D01*
X103241272Y-76354568D01*
X103380251Y-76280281D01*
X103455653Y-76257408D01*
X103531053Y-76234536D01*
X103570231Y-76230677D01*
X103648585Y-76222960D01*
X103727175Y-76222960D01*
X103805529Y-76230677D01*
X103805529Y-76230677D01*
G37*
G36*
X71764832Y-76126703D02*
X71910421Y-76187008D01*
X72041453Y-76274561D01*
X72152879Y-76385987D01*
X72240432Y-76517019D01*
X72300737Y-76662608D01*
X72331480Y-76817165D01*
X72331480Y-76974755D01*
X72300737Y-77129312D01*
X72240432Y-77274901D01*
X72152879Y-77405933D01*
X72041453Y-77517359D01*
X71910421Y-77604912D01*
X71764832Y-77665217D01*
X71610275Y-77695960D01*
X71452685Y-77695960D01*
X71298128Y-77665217D01*
X71152539Y-77604912D01*
X71021507Y-77517359D01*
X70910081Y-77405933D01*
X70822528Y-77274901D01*
X70762223Y-77129312D01*
X70731480Y-76974755D01*
X70731480Y-76817165D01*
X70762223Y-76662608D01*
X70822528Y-76517019D01*
X70910081Y-76385987D01*
X71021507Y-76274561D01*
X71152539Y-76187008D01*
X71298128Y-76126703D01*
X71452685Y-76095960D01*
X71610275Y-76095960D01*
X71764832Y-76126703D01*
X71764832Y-76126703D01*
G37*
G36*
X84349129Y-76103677D02*
X84388307Y-76107536D01*
X84451492Y-76126703D01*
X84539109Y-76153281D01*
X84678088Y-76227568D01*
X84799902Y-76327538D01*
X84899872Y-76449352D01*
X84974159Y-76588331D01*
X85019904Y-76739134D01*
X85035350Y-76895960D01*
X85019904Y-77052786D01*
X84974159Y-77203589D01*
X84899872Y-77342568D01*
X84799902Y-77464382D01*
X84678088Y-77564352D01*
X84539109Y-77638639D01*
X84463707Y-77661512D01*
X84388307Y-77684384D01*
X84349129Y-77688243D01*
X84270775Y-77695960D01*
X84192185Y-77695960D01*
X84113831Y-77688243D01*
X84074653Y-77684384D01*
X83999253Y-77661512D01*
X83923851Y-77638639D01*
X83784872Y-77564352D01*
X83663058Y-77464382D01*
X83563088Y-77342568D01*
X83488801Y-77203589D01*
X83443056Y-77052786D01*
X83427610Y-76895960D01*
X83443056Y-76739134D01*
X83488801Y-76588331D01*
X83563088Y-76449352D01*
X83663058Y-76327538D01*
X83784872Y-76227568D01*
X83923851Y-76153281D01*
X84011468Y-76126703D01*
X84074653Y-76107536D01*
X84113831Y-76103677D01*
X84192185Y-76095960D01*
X84270775Y-76095960D01*
X84349129Y-76103677D01*
X84349129Y-76103677D01*
G37*
G36*
X125514282Y-71631795D02*
X125630201Y-71654853D01*
X125957780Y-71790541D01*
X126140274Y-71912480D01*
X126252596Y-71987531D01*
X126503309Y-72238244D01*
X126700300Y-72533062D01*
X126835987Y-72860640D01*
X126905160Y-73208394D01*
X126905160Y-73562966D01*
X126835987Y-73910720D01*
X126700300Y-74238298D01*
X126503309Y-74533116D01*
X126252596Y-74783829D01*
X126252593Y-74783831D01*
X125957780Y-74980819D01*
X125630201Y-75116507D01*
X125514282Y-75139565D01*
X125282446Y-75185680D01*
X124927874Y-75185680D01*
X124696038Y-75139565D01*
X124580119Y-75116507D01*
X124252540Y-74980819D01*
X123957727Y-74783831D01*
X123957724Y-74783829D01*
X123707011Y-74533116D01*
X123510020Y-74238298D01*
X123374333Y-73910720D01*
X123305160Y-73562966D01*
X123305160Y-73208394D01*
X123374333Y-72860640D01*
X123510020Y-72533062D01*
X123707011Y-72238244D01*
X123957724Y-71987531D01*
X124070046Y-71912480D01*
X124252540Y-71790541D01*
X124580119Y-71654853D01*
X124696038Y-71631795D01*
X124927874Y-71585680D01*
X125282446Y-71585680D01*
X125514282Y-71631795D01*
X125514282Y-71631795D01*
G37*
G36*
X98034649Y-71120197D02*
X98073827Y-71124056D01*
X98149228Y-71146929D01*
X98224629Y-71169801D01*
X98363608Y-71244088D01*
X98485422Y-71344058D01*
X98585392Y-71465872D01*
X98659679Y-71604851D01*
X98705424Y-71755654D01*
X98720870Y-71912480D01*
X98705424Y-72069306D01*
X98659679Y-72220109D01*
X98585392Y-72359088D01*
X98485422Y-72480902D01*
X98363608Y-72580872D01*
X98224629Y-72655159D01*
X98149228Y-72678031D01*
X98073827Y-72700904D01*
X98034649Y-72704763D01*
X97956295Y-72712480D01*
X97877705Y-72712480D01*
X97799351Y-72704763D01*
X97760173Y-72700904D01*
X97684772Y-72678031D01*
X97609371Y-72655159D01*
X97470392Y-72580872D01*
X97348578Y-72480902D01*
X97248608Y-72359088D01*
X97174321Y-72220109D01*
X97128576Y-72069306D01*
X97113130Y-71912480D01*
X97128576Y-71755654D01*
X97174321Y-71604851D01*
X97248608Y-71465872D01*
X97348578Y-71344058D01*
X97470392Y-71244088D01*
X97609371Y-71169801D01*
X97684773Y-71146928D01*
X97760173Y-71124056D01*
X97799351Y-71120197D01*
X97877705Y-71112480D01*
X97956295Y-71112480D01*
X98034649Y-71120197D01*
X98034649Y-71120197D01*
G37*
G36*
X90414649Y-71120197D02*
X90453827Y-71124056D01*
X90529228Y-71146929D01*
X90604629Y-71169801D01*
X90743608Y-71244088D01*
X90865422Y-71344058D01*
X90965392Y-71465872D01*
X91039679Y-71604851D01*
X91085424Y-71755654D01*
X91100870Y-71912480D01*
X91085424Y-72069306D01*
X91039679Y-72220109D01*
X90965392Y-72359088D01*
X90865422Y-72480902D01*
X90743608Y-72580872D01*
X90604629Y-72655159D01*
X90529228Y-72678031D01*
X90453827Y-72700904D01*
X90414649Y-72704763D01*
X90336295Y-72712480D01*
X90257705Y-72712480D01*
X90179351Y-72704763D01*
X90140173Y-72700904D01*
X90064772Y-72678031D01*
X89989371Y-72655159D01*
X89850392Y-72580872D01*
X89728578Y-72480902D01*
X89628608Y-72359088D01*
X89554321Y-72220109D01*
X89508576Y-72069306D01*
X89493130Y-71912480D01*
X89508576Y-71755654D01*
X89554321Y-71604851D01*
X89628608Y-71465872D01*
X89728578Y-71344058D01*
X89850392Y-71244088D01*
X89989371Y-71169801D01*
X90064773Y-71146928D01*
X90140173Y-71124056D01*
X90179351Y-71120197D01*
X90257705Y-71112480D01*
X90336295Y-71112480D01*
X90414649Y-71120197D01*
X90414649Y-71120197D01*
G37*
G36*
X53152849Y-68691957D02*
X53192027Y-68695816D01*
X53267428Y-68718689D01*
X53342829Y-68741561D01*
X53481808Y-68815848D01*
X53603622Y-68915818D01*
X53703592Y-69037632D01*
X53777879Y-69176611D01*
X53823624Y-69327414D01*
X53839070Y-69484240D01*
X53823624Y-69641066D01*
X53777879Y-69791869D01*
X53703592Y-69930848D01*
X53603622Y-70052662D01*
X53481808Y-70152632D01*
X53342829Y-70226919D01*
X53267428Y-70249791D01*
X53192027Y-70272664D01*
X53152849Y-70276523D01*
X53074495Y-70284240D01*
X52995905Y-70284240D01*
X52917551Y-70276523D01*
X52878373Y-70272664D01*
X52802972Y-70249791D01*
X52727571Y-70226919D01*
X52588592Y-70152632D01*
X52466778Y-70052662D01*
X52366808Y-69930848D01*
X52292521Y-69791869D01*
X52246776Y-69641066D01*
X52231330Y-69484240D01*
X52246776Y-69327414D01*
X52292521Y-69176611D01*
X52366808Y-69037632D01*
X52466778Y-68915818D01*
X52588592Y-68815848D01*
X52727571Y-68741561D01*
X52802972Y-68718689D01*
X52878373Y-68695816D01*
X52917551Y-68691957D01*
X52995905Y-68684240D01*
X53074495Y-68684240D01*
X53152849Y-68691957D01*
X53152849Y-68691957D01*
G37*
G36*
X90414649Y-68580197D02*
X90453827Y-68584056D01*
X90529228Y-68606929D01*
X90604629Y-68629801D01*
X90743608Y-68704088D01*
X90865422Y-68804058D01*
X90965392Y-68925872D01*
X91039679Y-69064851D01*
X91085424Y-69215654D01*
X91100870Y-69372480D01*
X91085424Y-69529306D01*
X91039679Y-69680109D01*
X90965392Y-69819088D01*
X90865422Y-69940902D01*
X90743608Y-70040872D01*
X90604629Y-70115159D01*
X90529227Y-70138032D01*
X90453827Y-70160904D01*
X90414649Y-70164763D01*
X90336295Y-70172480D01*
X90257705Y-70172480D01*
X90179351Y-70164763D01*
X90140173Y-70160904D01*
X90064773Y-70138032D01*
X89989371Y-70115159D01*
X89850392Y-70040872D01*
X89728578Y-69940902D01*
X89628608Y-69819088D01*
X89554321Y-69680109D01*
X89508576Y-69529306D01*
X89493130Y-69372480D01*
X89508576Y-69215654D01*
X89554321Y-69064851D01*
X89628608Y-68925872D01*
X89728578Y-68804058D01*
X89850392Y-68704088D01*
X89989371Y-68629801D01*
X90064772Y-68606929D01*
X90140173Y-68584056D01*
X90179351Y-68580197D01*
X90257705Y-68572480D01*
X90336295Y-68572480D01*
X90414649Y-68580197D01*
X90414649Y-68580197D01*
G37*
G36*
X98034649Y-68580197D02*
X98073827Y-68584056D01*
X98149228Y-68606929D01*
X98224629Y-68629801D01*
X98363608Y-68704088D01*
X98485422Y-68804058D01*
X98585392Y-68925872D01*
X98659679Y-69064851D01*
X98705424Y-69215654D01*
X98720870Y-69372480D01*
X98705424Y-69529306D01*
X98659679Y-69680109D01*
X98585392Y-69819088D01*
X98485422Y-69940902D01*
X98363608Y-70040872D01*
X98224629Y-70115159D01*
X98149227Y-70138032D01*
X98073827Y-70160904D01*
X98034649Y-70164763D01*
X97956295Y-70172480D01*
X97877705Y-70172480D01*
X97799351Y-70164763D01*
X97760173Y-70160904D01*
X97684773Y-70138032D01*
X97609371Y-70115159D01*
X97470392Y-70040872D01*
X97348578Y-69940902D01*
X97248608Y-69819088D01*
X97174321Y-69680109D01*
X97128576Y-69529306D01*
X97113130Y-69372480D01*
X97128576Y-69215654D01*
X97174321Y-69064851D01*
X97248608Y-68925872D01*
X97348578Y-68804058D01*
X97470392Y-68704088D01*
X97609371Y-68629801D01*
X97684772Y-68606929D01*
X97760173Y-68584056D01*
X97799351Y-68580197D01*
X97877705Y-68572480D01*
X97956295Y-68572480D01*
X98034649Y-68580197D01*
X98034649Y-68580197D01*
G37*
G36*
X74933306Y-65571915D02*
X75151692Y-65662373D01*
X75348238Y-65793701D01*
X75515379Y-65960842D01*
X75646707Y-66157388D01*
X75737165Y-66375774D01*
X75783280Y-66607609D01*
X75783280Y-66843991D01*
X75737165Y-67075826D01*
X75646707Y-67294212D01*
X75515379Y-67490758D01*
X75348238Y-67657899D01*
X75151692Y-67789227D01*
X74933306Y-67879685D01*
X74701471Y-67925800D01*
X74465089Y-67925800D01*
X74233254Y-67879685D01*
X74014868Y-67789227D01*
X73818322Y-67657899D01*
X73651181Y-67490758D01*
X73519853Y-67294212D01*
X73429395Y-67075826D01*
X73383280Y-66843991D01*
X73383280Y-66607609D01*
X73429395Y-66375774D01*
X73519853Y-66157388D01*
X73651181Y-65960842D01*
X73818322Y-65793701D01*
X74014868Y-65662373D01*
X74233254Y-65571915D01*
X74465089Y-65525800D01*
X74701471Y-65525800D01*
X74933306Y-65571915D01*
X74933306Y-65571915D01*
G37*
G36*
X80783280Y-67925800D02*
X78383280Y-67925800D01*
X78383280Y-65525800D01*
X80783280Y-65525800D01*
X80783280Y-67925800D01*
X80783280Y-67925800D01*
G37*
G36*
X98034649Y-66040197D02*
X98073827Y-66044056D01*
X98149227Y-66066928D01*
X98224629Y-66089801D01*
X98363608Y-66164088D01*
X98485422Y-66264058D01*
X98585392Y-66385872D01*
X98659679Y-66524851D01*
X98705424Y-66675654D01*
X98720870Y-66832480D01*
X98705424Y-66989306D01*
X98659679Y-67140109D01*
X98585392Y-67279088D01*
X98485422Y-67400902D01*
X98363608Y-67500872D01*
X98224629Y-67575159D01*
X98149228Y-67598031D01*
X98073827Y-67620904D01*
X98034649Y-67624763D01*
X97956295Y-67632480D01*
X97877705Y-67632480D01*
X97799351Y-67624763D01*
X97760173Y-67620904D01*
X97684772Y-67598031D01*
X97609371Y-67575159D01*
X97470392Y-67500872D01*
X97348578Y-67400902D01*
X97248608Y-67279088D01*
X97174321Y-67140109D01*
X97128576Y-66989306D01*
X97113130Y-66832480D01*
X97128576Y-66675654D01*
X97174321Y-66524851D01*
X97248608Y-66385872D01*
X97348578Y-66264058D01*
X97470392Y-66164088D01*
X97609371Y-66089801D01*
X97684773Y-66066928D01*
X97760173Y-66044056D01*
X97799351Y-66040197D01*
X97877705Y-66032480D01*
X97956295Y-66032480D01*
X98034649Y-66040197D01*
X98034649Y-66040197D01*
G37*
G36*
X90414649Y-66040197D02*
X90453827Y-66044056D01*
X90529227Y-66066928D01*
X90604629Y-66089801D01*
X90743608Y-66164088D01*
X90865422Y-66264058D01*
X90965392Y-66385872D01*
X91039679Y-66524851D01*
X91085424Y-66675654D01*
X91100870Y-66832480D01*
X91085424Y-66989306D01*
X91039679Y-67140109D01*
X90965392Y-67279088D01*
X90865422Y-67400902D01*
X90743608Y-67500872D01*
X90604629Y-67575159D01*
X90529228Y-67598031D01*
X90453827Y-67620904D01*
X90414649Y-67624763D01*
X90336295Y-67632480D01*
X90257705Y-67632480D01*
X90179351Y-67624763D01*
X90140173Y-67620904D01*
X90064772Y-67598031D01*
X89989371Y-67575159D01*
X89850392Y-67500872D01*
X89728578Y-67400902D01*
X89628608Y-67279088D01*
X89554321Y-67140109D01*
X89508576Y-66989306D01*
X89493130Y-66832480D01*
X89508576Y-66675654D01*
X89554321Y-66524851D01*
X89628608Y-66385872D01*
X89728578Y-66264058D01*
X89850392Y-66164088D01*
X89989371Y-66089801D01*
X90064773Y-66066928D01*
X90140173Y-66044056D01*
X90179351Y-66040197D01*
X90257705Y-66032480D01*
X90336295Y-66032480D01*
X90414649Y-66040197D01*
X90414649Y-66040197D01*
G37*
G36*
X58387683Y-65055206D02*
X58525992Y-65112495D01*
X58650476Y-65195673D01*
X58756327Y-65301524D01*
X58839505Y-65426008D01*
X58896794Y-65564317D01*
X58926000Y-65711145D01*
X58926000Y-65860855D01*
X58896794Y-66007683D01*
X58839505Y-66145992D01*
X58839503Y-66145995D01*
X58760616Y-66264058D01*
X58756327Y-66270476D01*
X58650476Y-66376327D01*
X58525992Y-66459505D01*
X58387683Y-66516794D01*
X58240855Y-66546000D01*
X58091145Y-66546000D01*
X57944317Y-66516794D01*
X57806008Y-66459505D01*
X57681524Y-66376327D01*
X57575673Y-66270476D01*
X57571385Y-66264058D01*
X57492497Y-66145995D01*
X57492495Y-66145992D01*
X57435206Y-66007683D01*
X57406000Y-65860855D01*
X57406000Y-65711145D01*
X57435206Y-65564317D01*
X57492495Y-65426008D01*
X57575673Y-65301524D01*
X57681524Y-65195673D01*
X57806008Y-65112495D01*
X57944317Y-65055206D01*
X58091145Y-65026000D01*
X58240855Y-65026000D01*
X58387683Y-65055206D01*
X58387683Y-65055206D01*
G37*
G36*
X64651160Y-66530760D02*
X63131160Y-66530760D01*
X63131160Y-65010760D01*
X64651160Y-65010760D01*
X64651160Y-66530760D01*
X64651160Y-66530760D01*
G37*
G36*
X103921232Y-63553703D02*
X104066821Y-63614008D01*
X104197853Y-63701561D01*
X104309279Y-63812987D01*
X104396832Y-63944019D01*
X104457137Y-64089608D01*
X104487880Y-64244165D01*
X104487880Y-64401755D01*
X104457137Y-64556312D01*
X104396832Y-64701901D01*
X104309279Y-64832933D01*
X104197853Y-64944359D01*
X104066821Y-65031912D01*
X103921232Y-65092217D01*
X103766675Y-65122960D01*
X103609085Y-65122960D01*
X103454528Y-65092217D01*
X103308939Y-65031912D01*
X103177907Y-64944359D01*
X103066481Y-64832933D01*
X102978928Y-64701901D01*
X102918623Y-64556312D01*
X102887880Y-64401755D01*
X102887880Y-64244165D01*
X102918623Y-64089608D01*
X102978928Y-63944019D01*
X103066481Y-63812987D01*
X103177907Y-63701561D01*
X103308939Y-63614008D01*
X103454528Y-63553703D01*
X103609085Y-63522960D01*
X103766675Y-63522960D01*
X103921232Y-63553703D01*
X103921232Y-63553703D01*
G37*
G36*
X98034649Y-63500197D02*
X98073827Y-63504056D01*
X98136145Y-63522960D01*
X98224629Y-63549801D01*
X98363608Y-63624088D01*
X98485422Y-63724058D01*
X98585392Y-63845872D01*
X98659679Y-63984851D01*
X98705424Y-64135654D01*
X98720870Y-64292480D01*
X98705424Y-64449306D01*
X98659679Y-64600109D01*
X98585392Y-64739088D01*
X98485422Y-64860902D01*
X98363608Y-64960872D01*
X98224629Y-65035159D01*
X98158542Y-65055206D01*
X98073827Y-65080904D01*
X98034649Y-65084763D01*
X97956295Y-65092480D01*
X97877705Y-65092480D01*
X97799351Y-65084763D01*
X97760173Y-65080904D01*
X97675458Y-65055206D01*
X97609371Y-65035159D01*
X97470392Y-64960872D01*
X97348578Y-64860902D01*
X97248608Y-64739088D01*
X97174321Y-64600109D01*
X97128576Y-64449306D01*
X97113130Y-64292480D01*
X97128576Y-64135654D01*
X97174321Y-63984851D01*
X97248608Y-63845872D01*
X97348578Y-63724058D01*
X97470392Y-63624088D01*
X97609371Y-63549801D01*
X97697855Y-63522960D01*
X97760173Y-63504056D01*
X97799351Y-63500197D01*
X97877705Y-63492480D01*
X97956295Y-63492480D01*
X98034649Y-63500197D01*
X98034649Y-63500197D01*
G37*
G36*
X91097000Y-65092480D02*
X89497000Y-65092480D01*
X89497000Y-63492480D01*
X91097000Y-63492480D01*
X91097000Y-65092480D01*
X91097000Y-65092480D01*
G37*
G36*
X58387683Y-62515206D02*
X58525992Y-62572495D01*
X58525995Y-62572497D01*
X58627664Y-62640430D01*
X58650476Y-62655673D01*
X58756327Y-62761524D01*
X58839505Y-62886008D01*
X58896794Y-63024317D01*
X58926000Y-63171145D01*
X58926000Y-63320855D01*
X58896794Y-63467683D01*
X58839505Y-63605992D01*
X58839503Y-63605995D01*
X58760616Y-63724058D01*
X58756327Y-63730476D01*
X58650476Y-63836327D01*
X58525992Y-63919505D01*
X58387683Y-63976794D01*
X58240855Y-64006000D01*
X58091145Y-64006000D01*
X57944317Y-63976794D01*
X57806008Y-63919505D01*
X57681524Y-63836327D01*
X57575673Y-63730476D01*
X57571385Y-63724058D01*
X57492497Y-63605995D01*
X57492495Y-63605992D01*
X57435206Y-63467683D01*
X57406000Y-63320855D01*
X57406000Y-63171145D01*
X57435206Y-63024317D01*
X57492495Y-62886008D01*
X57575673Y-62761524D01*
X57681524Y-62655673D01*
X57704337Y-62640430D01*
X57806005Y-62572497D01*
X57806008Y-62572495D01*
X57944317Y-62515206D01*
X58091145Y-62486000D01*
X58240855Y-62486000D01*
X58387683Y-62515206D01*
X58387683Y-62515206D01*
G37*
G36*
X64112843Y-62499966D02*
X64251152Y-62557255D01*
X64375636Y-62640433D01*
X64481487Y-62746284D01*
X64564665Y-62870768D01*
X64621954Y-63009077D01*
X64651160Y-63155905D01*
X64651160Y-63305615D01*
X64621954Y-63452443D01*
X64564665Y-63590752D01*
X64564663Y-63590755D01*
X64490625Y-63701561D01*
X64481487Y-63715236D01*
X64375636Y-63821087D01*
X64375633Y-63821089D01*
X64375632Y-63821090D01*
X64338543Y-63845872D01*
X64251152Y-63904265D01*
X64112843Y-63961554D01*
X63966015Y-63990760D01*
X63816305Y-63990760D01*
X63669477Y-63961554D01*
X63531168Y-63904265D01*
X63443777Y-63845872D01*
X63406688Y-63821090D01*
X63406687Y-63821089D01*
X63406684Y-63821087D01*
X63300833Y-63715236D01*
X63291696Y-63701561D01*
X63217657Y-63590755D01*
X63217655Y-63590752D01*
X63160366Y-63452443D01*
X63131160Y-63305615D01*
X63131160Y-63155905D01*
X63160366Y-63009077D01*
X63217655Y-62870768D01*
X63300833Y-62746284D01*
X63406684Y-62640433D01*
X63531168Y-62557255D01*
X63669477Y-62499966D01*
X63816305Y-62470760D01*
X63966015Y-62470760D01*
X64112843Y-62499966D01*
X64112843Y-62499966D01*
G37*
G36*
X125514282Y-58931795D02*
X125630201Y-58954853D01*
X125957780Y-59090541D01*
X126248671Y-59284908D01*
X126252596Y-59287531D01*
X126503309Y-59538244D01*
X126503311Y-59538247D01*
X126700299Y-59833060D01*
X126811049Y-60100433D01*
X126835987Y-60160640D01*
X126905160Y-60508394D01*
X126905160Y-60862966D01*
X126835987Y-61210720D01*
X126700300Y-61538298D01*
X126503309Y-61833116D01*
X126252596Y-62083829D01*
X126252593Y-62083831D01*
X125957780Y-62280819D01*
X125630201Y-62416507D01*
X125514282Y-62439565D01*
X125282446Y-62485680D01*
X124927874Y-62485680D01*
X124696038Y-62439565D01*
X124580119Y-62416507D01*
X124252540Y-62280819D01*
X123957727Y-62083831D01*
X123957724Y-62083829D01*
X123707011Y-61833116D01*
X123510020Y-61538298D01*
X123374333Y-61210720D01*
X123305160Y-60862966D01*
X123305160Y-60508394D01*
X123374333Y-60160640D01*
X123399272Y-60100433D01*
X123510021Y-59833060D01*
X123707009Y-59538247D01*
X123707011Y-59538244D01*
X123957724Y-59287531D01*
X123961649Y-59284908D01*
X124252540Y-59090541D01*
X124580119Y-58954853D01*
X124696038Y-58931795D01*
X124927874Y-58885680D01*
X125282446Y-58885680D01*
X125514282Y-58931795D01*
X125514282Y-58931795D01*
G37*
G36*
X58926000Y-61466000D02*
X57406000Y-61466000D01*
X57406000Y-59946000D01*
X58926000Y-59946000D01*
X58926000Y-61466000D01*
X58926000Y-61466000D01*
G37*
G36*
X64112843Y-59959966D02*
X64251152Y-60017255D01*
X64375636Y-60100433D01*
X64481487Y-60206284D01*
X64564665Y-60330768D01*
X64621954Y-60469077D01*
X64651160Y-60615905D01*
X64651160Y-60765615D01*
X64621954Y-60912443D01*
X64564665Y-61050752D01*
X64481487Y-61175236D01*
X64375636Y-61281087D01*
X64251152Y-61364265D01*
X64112843Y-61421554D01*
X63966015Y-61450760D01*
X63816305Y-61450760D01*
X63669477Y-61421554D01*
X63531168Y-61364265D01*
X63406684Y-61281087D01*
X63300833Y-61175236D01*
X63217655Y-61050752D01*
X63160366Y-60912443D01*
X63131160Y-60765615D01*
X63131160Y-60615905D01*
X63160366Y-60469077D01*
X63217655Y-60330768D01*
X63300833Y-60206284D01*
X63406684Y-60100433D01*
X63531168Y-60017255D01*
X63669477Y-59959966D01*
X63816305Y-59930760D01*
X63966015Y-59930760D01*
X64112843Y-59959966D01*
X64112843Y-59959966D01*
G37*
G36*
X90470529Y-56073237D02*
X90509707Y-56077096D01*
X90585107Y-56099968D01*
X90660509Y-56122841D01*
X90799488Y-56197128D01*
X90921302Y-56297098D01*
X91021272Y-56418912D01*
X91095559Y-56557891D01*
X91095559Y-56557892D01*
X91140319Y-56705445D01*
X91141304Y-56708694D01*
X91156750Y-56865520D01*
X91141304Y-57022346D01*
X91095559Y-57173149D01*
X91021272Y-57312128D01*
X90921302Y-57433942D01*
X90799488Y-57533912D01*
X90660509Y-57608199D01*
X90585107Y-57631072D01*
X90509707Y-57653944D01*
X90470529Y-57657803D01*
X90392175Y-57665520D01*
X90313585Y-57665520D01*
X90235231Y-57657803D01*
X90196053Y-57653944D01*
X90120653Y-57631072D01*
X90045251Y-57608199D01*
X89906272Y-57533912D01*
X89784458Y-57433942D01*
X89684488Y-57312128D01*
X89610201Y-57173149D01*
X89564456Y-57022346D01*
X89549010Y-56865520D01*
X89564456Y-56708694D01*
X89565442Y-56705445D01*
X89610201Y-56557892D01*
X89610201Y-56557891D01*
X89684488Y-56418912D01*
X89784458Y-56297098D01*
X89906272Y-56197128D01*
X90045251Y-56122841D01*
X90120652Y-56099969D01*
X90196053Y-56077096D01*
X90235231Y-56073237D01*
X90313585Y-56065520D01*
X90392175Y-56065520D01*
X90470529Y-56073237D01*
X90470529Y-56073237D01*
G37*
G36*
X98090529Y-56073237D02*
X98129707Y-56077096D01*
X98205107Y-56099968D01*
X98280509Y-56122841D01*
X98419488Y-56197128D01*
X98541302Y-56297098D01*
X98641272Y-56418912D01*
X98715559Y-56557891D01*
X98715559Y-56557892D01*
X98760319Y-56705445D01*
X98761304Y-56708694D01*
X98776750Y-56865520D01*
X98761304Y-57022346D01*
X98715559Y-57173149D01*
X98641272Y-57312128D01*
X98541302Y-57433942D01*
X98419488Y-57533912D01*
X98280509Y-57608199D01*
X98205107Y-57631072D01*
X98129707Y-57653944D01*
X98090529Y-57657803D01*
X98012175Y-57665520D01*
X97933585Y-57665520D01*
X97855231Y-57657803D01*
X97816053Y-57653944D01*
X97740653Y-57631072D01*
X97665251Y-57608199D01*
X97526272Y-57533912D01*
X97404458Y-57433942D01*
X97304488Y-57312128D01*
X97230201Y-57173149D01*
X97184456Y-57022346D01*
X97169010Y-56865520D01*
X97184456Y-56708694D01*
X97185442Y-56705445D01*
X97230201Y-56557892D01*
X97230201Y-56557891D01*
X97304488Y-56418912D01*
X97404458Y-56297098D01*
X97526272Y-56197128D01*
X97665251Y-56122841D01*
X97740652Y-56099969D01*
X97816053Y-56077096D01*
X97855231Y-56073237D01*
X97933585Y-56065520D01*
X98012175Y-56065520D01*
X98090529Y-56073237D01*
X98090529Y-56073237D01*
G37*
G36*
X53268552Y-56014983D02*
X53414141Y-56075288D01*
X53545173Y-56162841D01*
X53656599Y-56274267D01*
X53744152Y-56405299D01*
X53804457Y-56550888D01*
X53835200Y-56705445D01*
X53835200Y-56863035D01*
X53804457Y-57017592D01*
X53744152Y-57163181D01*
X53656599Y-57294213D01*
X53545173Y-57405639D01*
X53414141Y-57493192D01*
X53268552Y-57553497D01*
X53113995Y-57584240D01*
X52956405Y-57584240D01*
X52801848Y-57553497D01*
X52656259Y-57493192D01*
X52525227Y-57405639D01*
X52413801Y-57294213D01*
X52326248Y-57163181D01*
X52265943Y-57017592D01*
X52235200Y-56863035D01*
X52235200Y-56705445D01*
X52265943Y-56550888D01*
X52326248Y-56405299D01*
X52413801Y-56274267D01*
X52525227Y-56162841D01*
X52656259Y-56075288D01*
X52801848Y-56014983D01*
X52956405Y-55984240D01*
X53113995Y-55984240D01*
X53268552Y-56014983D01*
X53268552Y-56014983D01*
G37*
G36*
X85125232Y-55989583D02*
X85270821Y-56049888D01*
X85401853Y-56137441D01*
X85513279Y-56248867D01*
X85600832Y-56379899D01*
X85661137Y-56525488D01*
X85691880Y-56680045D01*
X85691880Y-56837635D01*
X85661137Y-56992192D01*
X85600832Y-57137781D01*
X85513279Y-57268813D01*
X85401853Y-57380239D01*
X85270821Y-57467792D01*
X85125232Y-57528097D01*
X84970675Y-57558840D01*
X84813085Y-57558840D01*
X84658528Y-57528097D01*
X84512939Y-57467792D01*
X84381907Y-57380239D01*
X84270481Y-57268813D01*
X84182928Y-57137781D01*
X84122623Y-56992192D01*
X84091880Y-56837635D01*
X84091880Y-56680045D01*
X84122623Y-56525488D01*
X84182928Y-56379899D01*
X84270481Y-56248867D01*
X84381907Y-56137441D01*
X84512939Y-56049888D01*
X84658528Y-55989583D01*
X84813085Y-55958840D01*
X84970675Y-55958840D01*
X85125232Y-55989583D01*
X85125232Y-55989583D01*
G37*
G36*
X71044609Y-55915757D02*
X71083787Y-55919616D01*
X71146972Y-55938783D01*
X71234589Y-55965361D01*
X71373568Y-56039648D01*
X71495382Y-56139618D01*
X71595352Y-56261432D01*
X71669639Y-56400411D01*
X71675251Y-56418912D01*
X71715286Y-56550889D01*
X71715384Y-56551214D01*
X71730830Y-56708040D01*
X71715384Y-56864866D01*
X71669639Y-57015669D01*
X71595352Y-57154648D01*
X71495382Y-57276462D01*
X71373568Y-57376432D01*
X71234589Y-57450719D01*
X71178309Y-57467791D01*
X71083787Y-57496464D01*
X71044609Y-57500323D01*
X70966255Y-57508040D01*
X70887665Y-57508040D01*
X70809311Y-57500323D01*
X70770133Y-57496464D01*
X70675611Y-57467791D01*
X70619331Y-57450719D01*
X70480352Y-57376432D01*
X70358538Y-57276462D01*
X70258568Y-57154648D01*
X70184281Y-57015669D01*
X70138536Y-56864866D01*
X70123090Y-56708040D01*
X70138536Y-56551214D01*
X70138635Y-56550889D01*
X70178669Y-56418912D01*
X70184281Y-56400411D01*
X70258568Y-56261432D01*
X70358538Y-56139618D01*
X70480352Y-56039648D01*
X70619331Y-55965361D01*
X70706948Y-55938783D01*
X70770133Y-55919616D01*
X70809311Y-55915757D01*
X70887665Y-55908040D01*
X70966255Y-55908040D01*
X71044609Y-55915757D01*
X71044609Y-55915757D01*
G37*
G36*
X58460312Y-55938783D02*
X58605901Y-55999088D01*
X58736933Y-56086641D01*
X58848359Y-56198067D01*
X58935912Y-56329099D01*
X58996217Y-56474688D01*
X59026960Y-56629245D01*
X59026960Y-56786835D01*
X58996217Y-56941392D01*
X58935912Y-57086981D01*
X58848359Y-57218013D01*
X58736933Y-57329439D01*
X58605901Y-57416992D01*
X58460312Y-57477297D01*
X58305755Y-57508040D01*
X58148165Y-57508040D01*
X57993608Y-57477297D01*
X57848019Y-57416992D01*
X57716987Y-57329439D01*
X57605561Y-57218013D01*
X57518008Y-57086981D01*
X57457703Y-56941392D01*
X57426960Y-56786835D01*
X57426960Y-56629245D01*
X57457703Y-56474688D01*
X57518008Y-56329099D01*
X57605561Y-56198067D01*
X57716987Y-56086641D01*
X57848019Y-55999088D01*
X57993608Y-55938783D01*
X58148165Y-55908040D01*
X58305755Y-55908040D01*
X58460312Y-55938783D01*
X58460312Y-55938783D01*
G37*
G36*
X90470529Y-53533237D02*
X90509707Y-53537096D01*
X90585108Y-53559969D01*
X90660509Y-53582841D01*
X90799488Y-53657128D01*
X90921302Y-53757098D01*
X91021272Y-53878912D01*
X91095559Y-54017891D01*
X91141304Y-54168694D01*
X91156750Y-54325520D01*
X91141304Y-54482346D01*
X91095559Y-54633149D01*
X91021272Y-54772128D01*
X90921302Y-54893942D01*
X90799488Y-54993912D01*
X90660509Y-55068199D01*
X90623132Y-55079537D01*
X90509707Y-55113944D01*
X90470529Y-55117803D01*
X90392175Y-55125520D01*
X90313585Y-55125520D01*
X90235231Y-55117803D01*
X90196053Y-55113944D01*
X90082628Y-55079537D01*
X90045251Y-55068199D01*
X89906272Y-54993912D01*
X89784458Y-54893942D01*
X89684488Y-54772128D01*
X89610201Y-54633149D01*
X89564456Y-54482346D01*
X89549010Y-54325520D01*
X89564456Y-54168694D01*
X89610201Y-54017891D01*
X89684488Y-53878912D01*
X89784458Y-53757098D01*
X89906272Y-53657128D01*
X90045251Y-53582841D01*
X90120652Y-53559969D01*
X90196053Y-53537096D01*
X90235231Y-53533237D01*
X90313585Y-53525520D01*
X90392175Y-53525520D01*
X90470529Y-53533237D01*
X90470529Y-53533237D01*
G37*
G36*
X98090529Y-53533237D02*
X98129707Y-53537096D01*
X98205108Y-53559969D01*
X98280509Y-53582841D01*
X98419488Y-53657128D01*
X98541302Y-53757098D01*
X98641272Y-53878912D01*
X98715559Y-54017891D01*
X98761304Y-54168694D01*
X98776750Y-54325520D01*
X98761304Y-54482346D01*
X98715559Y-54633149D01*
X98641272Y-54772128D01*
X98541302Y-54893942D01*
X98419488Y-54993912D01*
X98280509Y-55068199D01*
X98243132Y-55079537D01*
X98129707Y-55113944D01*
X98090529Y-55117803D01*
X98012175Y-55125520D01*
X97933585Y-55125520D01*
X97855231Y-55117803D01*
X97816053Y-55113944D01*
X97702628Y-55079537D01*
X97665251Y-55068199D01*
X97526272Y-54993912D01*
X97404458Y-54893942D01*
X97304488Y-54772128D01*
X97230201Y-54633149D01*
X97184456Y-54482346D01*
X97169010Y-54325520D01*
X97184456Y-54168694D01*
X97230201Y-54017891D01*
X97304488Y-53878912D01*
X97404458Y-53757098D01*
X97526272Y-53657128D01*
X97665251Y-53582841D01*
X97740652Y-53559969D01*
X97816053Y-53537096D01*
X97855231Y-53533237D01*
X97933585Y-53525520D01*
X98012175Y-53525520D01*
X98090529Y-53533237D01*
X98090529Y-53533237D01*
G37*
G36*
X112770592Y-53541023D02*
X112916181Y-53601328D01*
X113047213Y-53688881D01*
X113158639Y-53800307D01*
X113246192Y-53931339D01*
X113306497Y-54076928D01*
X113337240Y-54231485D01*
X113337240Y-54389075D01*
X113306497Y-54543632D01*
X113246192Y-54689221D01*
X113158639Y-54820253D01*
X113047213Y-54931679D01*
X112916181Y-55019232D01*
X112770592Y-55079537D01*
X112616035Y-55110280D01*
X112458445Y-55110280D01*
X112303888Y-55079537D01*
X112158299Y-55019232D01*
X112027267Y-54931679D01*
X111915841Y-54820253D01*
X111828288Y-54689221D01*
X111767983Y-54543632D01*
X111737240Y-54389075D01*
X111737240Y-54231485D01*
X111767983Y-54076928D01*
X111828288Y-53931339D01*
X111915841Y-53800307D01*
X112027267Y-53688881D01*
X112158299Y-53601328D01*
X112303888Y-53541023D01*
X112458445Y-53510280D01*
X112616035Y-53510280D01*
X112770592Y-53541023D01*
X112770592Y-53541023D01*
G37*
G36*
X108142712Y-53520703D02*
X108288301Y-53581008D01*
X108419333Y-53668561D01*
X108530759Y-53779987D01*
X108618312Y-53911019D01*
X108678617Y-54056608D01*
X108709360Y-54211165D01*
X108709360Y-54368755D01*
X108678617Y-54523312D01*
X108618312Y-54668901D01*
X108530759Y-54799933D01*
X108419333Y-54911359D01*
X108288301Y-54998912D01*
X108142712Y-55059217D01*
X107988155Y-55089960D01*
X107830565Y-55089960D01*
X107676008Y-55059217D01*
X107530419Y-54998912D01*
X107399387Y-54911359D01*
X107287961Y-54799933D01*
X107200408Y-54668901D01*
X107140103Y-54523312D01*
X107109360Y-54368755D01*
X107109360Y-54211165D01*
X107140103Y-54056608D01*
X107200408Y-53911019D01*
X107287961Y-53779987D01*
X107399387Y-53668561D01*
X107530419Y-53581008D01*
X107676008Y-53520703D01*
X107830565Y-53489960D01*
X107988155Y-53489960D01*
X108142712Y-53520703D01*
X108142712Y-53520703D01*
G37*
G36*
X53193489Y-51546957D02*
X53232667Y-51550816D01*
X53271164Y-51562494D01*
X53383469Y-51596561D01*
X53522448Y-51670848D01*
X53644262Y-51770818D01*
X53744232Y-51892632D01*
X53818519Y-52031611D01*
X53818519Y-52031612D01*
X53864264Y-52182413D01*
X53879710Y-52339240D01*
X53865755Y-52480933D01*
X53864264Y-52496066D01*
X53818519Y-52646869D01*
X53744232Y-52785848D01*
X53644262Y-52907662D01*
X53522448Y-53007632D01*
X53383469Y-53081919D01*
X53308068Y-53104791D01*
X53232667Y-53127664D01*
X53193489Y-53131523D01*
X53115135Y-53139240D01*
X53036545Y-53139240D01*
X52958191Y-53131523D01*
X52919013Y-53127664D01*
X52843612Y-53104791D01*
X52768211Y-53081919D01*
X52629232Y-53007632D01*
X52507418Y-52907662D01*
X52407448Y-52785848D01*
X52333161Y-52646869D01*
X52287416Y-52496066D01*
X52285926Y-52480933D01*
X52271970Y-52339240D01*
X52287416Y-52182413D01*
X52333161Y-52031612D01*
X52333161Y-52031611D01*
X52407448Y-51892632D01*
X52507418Y-51770818D01*
X52629232Y-51670848D01*
X52768211Y-51596561D01*
X52880516Y-51562494D01*
X52919013Y-51550816D01*
X52958191Y-51546957D01*
X53036545Y-51539240D01*
X53115135Y-51539240D01*
X53193489Y-51546957D01*
X53193489Y-51546957D01*
G37*
G36*
X124481106Y-50758635D02*
X124699492Y-50849093D01*
X124896038Y-50980421D01*
X125063179Y-51147562D01*
X125194507Y-51344108D01*
X125284965Y-51562494D01*
X125331080Y-51794329D01*
X125331080Y-52030711D01*
X125284965Y-52262546D01*
X125194507Y-52480932D01*
X125063179Y-52677478D01*
X124896038Y-52844619D01*
X124699492Y-52975947D01*
X124481106Y-53066405D01*
X124249271Y-53112520D01*
X124012889Y-53112520D01*
X123781054Y-53066405D01*
X123562668Y-52975947D01*
X123366122Y-52844619D01*
X123198981Y-52677478D01*
X123067653Y-52480932D01*
X122977195Y-52262546D01*
X122931080Y-52030711D01*
X122931080Y-51794329D01*
X122977195Y-51562494D01*
X123067653Y-51344108D01*
X123198981Y-51147562D01*
X123366122Y-50980421D01*
X123562668Y-50849093D01*
X123781054Y-50758635D01*
X124012889Y-50712520D01*
X124249271Y-50712520D01*
X124481106Y-50758635D01*
X124481106Y-50758635D01*
G37*
G36*
X120331080Y-53112520D02*
X117931080Y-53112520D01*
X117931080Y-50712520D01*
X120331080Y-50712520D01*
X120331080Y-53112520D01*
X120331080Y-53112520D01*
G37*
G36*
X90470529Y-50993237D02*
X90509707Y-50997096D01*
X90585108Y-51019969D01*
X90660509Y-51042841D01*
X90799488Y-51117128D01*
X90921302Y-51217098D01*
X91021272Y-51338912D01*
X91095559Y-51477891D01*
X91141304Y-51628694D01*
X91156750Y-51785520D01*
X91141304Y-51942346D01*
X91095559Y-52093149D01*
X91021272Y-52232128D01*
X90921302Y-52353942D01*
X90799488Y-52453912D01*
X90660509Y-52528199D01*
X90585107Y-52551072D01*
X90509707Y-52573944D01*
X90470529Y-52577803D01*
X90392175Y-52585520D01*
X90313585Y-52585520D01*
X90235231Y-52577803D01*
X90196053Y-52573944D01*
X90120653Y-52551072D01*
X90045251Y-52528199D01*
X89906272Y-52453912D01*
X89784458Y-52353942D01*
X89684488Y-52232128D01*
X89610201Y-52093149D01*
X89564456Y-51942346D01*
X89549010Y-51785520D01*
X89564456Y-51628694D01*
X89610201Y-51477891D01*
X89684488Y-51338912D01*
X89784458Y-51217098D01*
X89906272Y-51117128D01*
X90045251Y-51042841D01*
X90120652Y-51019969D01*
X90196053Y-50997096D01*
X90235231Y-50993237D01*
X90313585Y-50985520D01*
X90392175Y-50985520D01*
X90470529Y-50993237D01*
X90470529Y-50993237D01*
G37*
G36*
X98090529Y-50993237D02*
X98129707Y-50997096D01*
X98205108Y-51019969D01*
X98280509Y-51042841D01*
X98419488Y-51117128D01*
X98541302Y-51217098D01*
X98641272Y-51338912D01*
X98715559Y-51477891D01*
X98761304Y-51628694D01*
X98776750Y-51785520D01*
X98761304Y-51942346D01*
X98715559Y-52093149D01*
X98641272Y-52232128D01*
X98541302Y-52353942D01*
X98419488Y-52453912D01*
X98280509Y-52528199D01*
X98205108Y-52551071D01*
X98129707Y-52573944D01*
X98090529Y-52577803D01*
X98012175Y-52585520D01*
X97933585Y-52585520D01*
X97855231Y-52577803D01*
X97816053Y-52573944D01*
X97740653Y-52551072D01*
X97665251Y-52528199D01*
X97526272Y-52453912D01*
X97404458Y-52353942D01*
X97304488Y-52232128D01*
X97230201Y-52093149D01*
X97184456Y-51942346D01*
X97169010Y-51785520D01*
X97184456Y-51628694D01*
X97230201Y-51477891D01*
X97304488Y-51338912D01*
X97404458Y-51217098D01*
X97526272Y-51117128D01*
X97665251Y-51042841D01*
X97740652Y-51019969D01*
X97816053Y-50997096D01*
X97855231Y-50993237D01*
X97933585Y-50985520D01*
X98012175Y-50985520D01*
X98090529Y-50993237D01*
X98090529Y-50993237D01*
G37*
G36*
X140431320Y-51917400D02*
X137231320Y-51917400D01*
X137231320Y-48717400D01*
X140431320Y-48717400D01*
X140431320Y-51917400D01*
X140431320Y-51917400D01*
G37*
G36*
X133212640Y-51917400D02*
X130012640Y-51917400D01*
X130012640Y-48717400D01*
X133212640Y-48717400D01*
X133212640Y-51917400D01*
X133212640Y-51917400D01*
G37*
G36*
X76189346Y-48575515D02*
X76407732Y-48665973D01*
X76604278Y-48797301D01*
X76771419Y-48964442D01*
X76902747Y-49160988D01*
X76993205Y-49379374D01*
X77039320Y-49611209D01*
X77039320Y-49847591D01*
X76993205Y-50079426D01*
X76902747Y-50297812D01*
X76771419Y-50494358D01*
X76604278Y-50661499D01*
X76407732Y-50792827D01*
X76189346Y-50883285D01*
X75957511Y-50929400D01*
X75721129Y-50929400D01*
X75489294Y-50883285D01*
X75270908Y-50792827D01*
X75074362Y-50661499D01*
X74907221Y-50494358D01*
X74775893Y-50297812D01*
X74685435Y-50079426D01*
X74639320Y-49847591D01*
X74639320Y-49611209D01*
X74685435Y-49379374D01*
X74775893Y-49160988D01*
X74907221Y-48964442D01*
X75074362Y-48797301D01*
X75270908Y-48665973D01*
X75489294Y-48575515D01*
X75721129Y-48529400D01*
X75957511Y-48529400D01*
X76189346Y-48575515D01*
X76189346Y-48575515D01*
G37*
G36*
X59352360Y-50909400D02*
X57152360Y-50909400D01*
X57152360Y-48709400D01*
X59352360Y-48709400D01*
X59352360Y-50909400D01*
X59352360Y-50909400D01*
G37*
G36*
X67768040Y-50719560D02*
X65968040Y-50719560D01*
X65968040Y-48919560D01*
X67768040Y-48919560D01*
X67768040Y-50719560D01*
X67768040Y-50719560D01*
G37*
G36*
X98090529Y-48453237D02*
X98129707Y-48457096D01*
X98205107Y-48479968D01*
X98280509Y-48502841D01*
X98419488Y-48577128D01*
X98541302Y-48677098D01*
X98641272Y-48798912D01*
X98715559Y-48937891D01*
X98761304Y-49088694D01*
X98776750Y-49245520D01*
X98761304Y-49402346D01*
X98715559Y-49553149D01*
X98641272Y-49692128D01*
X98541302Y-49813942D01*
X98419488Y-49913912D01*
X98280509Y-49988199D01*
X98205107Y-50011072D01*
X98129707Y-50033944D01*
X98090529Y-50037803D01*
X98012175Y-50045520D01*
X97933585Y-50045520D01*
X97855231Y-50037803D01*
X97816053Y-50033944D01*
X97740653Y-50011072D01*
X97665251Y-49988199D01*
X97526272Y-49913912D01*
X97404458Y-49813942D01*
X97304488Y-49692128D01*
X97230201Y-49553149D01*
X97184456Y-49402346D01*
X97169010Y-49245520D01*
X97184456Y-49088694D01*
X97230201Y-48937891D01*
X97304488Y-48798912D01*
X97404458Y-48677098D01*
X97526272Y-48577128D01*
X97665251Y-48502841D01*
X97740653Y-48479968D01*
X97816053Y-48457096D01*
X97855231Y-48453237D01*
X97933585Y-48445520D01*
X98012175Y-48445520D01*
X98090529Y-48453237D01*
X98090529Y-48453237D01*
G37*
G36*
X91152880Y-50045520D02*
X89552880Y-50045520D01*
X89552880Y-48445520D01*
X91152880Y-48445520D01*
X91152880Y-50045520D01*
X91152880Y-50045520D01*
G37*
G36*
X67044472Y-46392582D02*
X67214121Y-46444045D01*
X67370473Y-46527616D01*
X67507515Y-46640085D01*
X67619984Y-46777127D01*
X67703555Y-46933479D01*
X67755018Y-47103128D01*
X67772394Y-47279560D01*
X67755018Y-47455992D01*
X67703555Y-47625641D01*
X67619984Y-47781993D01*
X67507515Y-47919035D01*
X67370473Y-48031504D01*
X67214121Y-48115075D01*
X67044472Y-48166538D01*
X66912251Y-48179560D01*
X66823829Y-48179560D01*
X66691608Y-48166538D01*
X66521959Y-48115075D01*
X66365607Y-48031504D01*
X66228565Y-47919035D01*
X66116096Y-47781993D01*
X66032525Y-47625641D01*
X65981062Y-47455992D01*
X65963686Y-47279560D01*
X65981062Y-47103128D01*
X66032525Y-46933479D01*
X66116096Y-46777127D01*
X66228565Y-46640085D01*
X66365607Y-46527616D01*
X66521959Y-46444045D01*
X66691608Y-46392582D01*
X66823829Y-46379560D01*
X66912251Y-46379560D01*
X67044472Y-46392582D01*
X67044472Y-46392582D01*
G37*
G36*
X77039320Y-45929400D02*
X74639320Y-45929400D01*
X74639320Y-43529400D01*
X77039320Y-43529400D01*
X77039320Y-45929400D01*
X77039320Y-45929400D01*
G37*
G36*
X67044472Y-43852582D02*
X67214121Y-43904045D01*
X67370473Y-43987616D01*
X67507515Y-44100085D01*
X67619984Y-44237127D01*
X67703555Y-44393479D01*
X67755018Y-44563128D01*
X67772394Y-44739560D01*
X67755018Y-44915992D01*
X67703555Y-45085641D01*
X67619984Y-45241993D01*
X67507515Y-45379035D01*
X67370473Y-45491504D01*
X67214121Y-45575075D01*
X67044472Y-45626538D01*
X66912251Y-45639560D01*
X66823829Y-45639560D01*
X66691608Y-45626538D01*
X66521959Y-45575075D01*
X66365607Y-45491504D01*
X66228565Y-45379035D01*
X66116096Y-45241993D01*
X66032525Y-45085641D01*
X65981062Y-44915992D01*
X65963686Y-44739560D01*
X65981062Y-44563128D01*
X66032525Y-44393479D01*
X66116096Y-44237127D01*
X66228565Y-44100085D01*
X66365607Y-43987616D01*
X66521959Y-43904045D01*
X66691608Y-43852582D01*
X66823829Y-43839560D01*
X66912251Y-43839560D01*
X67044472Y-43852582D01*
X67044472Y-43852582D01*
G37*
G36*
X104559640Y-44869640D02*
X103039640Y-44869640D01*
X103039640Y-43349640D01*
X104559640Y-43349640D01*
X104559640Y-44869640D01*
X104559640Y-44869640D01*
G37*
G36*
X122080723Y-43373766D02*
X122219032Y-43431055D01*
X122343516Y-43514233D01*
X122449367Y-43620084D01*
X122532545Y-43744568D01*
X122589834Y-43882877D01*
X122619040Y-44029705D01*
X122619040Y-44179415D01*
X122589834Y-44326243D01*
X122532545Y-44464552D01*
X122532543Y-44464555D01*
X122466679Y-44563128D01*
X122449367Y-44589036D01*
X122343516Y-44694887D01*
X122343513Y-44694889D01*
X122343512Y-44694890D01*
X122219035Y-44778063D01*
X122219032Y-44778065D01*
X122080723Y-44835354D01*
X121933895Y-44864560D01*
X121784185Y-44864560D01*
X121637357Y-44835354D01*
X121499048Y-44778065D01*
X121499045Y-44778063D01*
X121374568Y-44694890D01*
X121374567Y-44694889D01*
X121374564Y-44694887D01*
X121268713Y-44589036D01*
X121251402Y-44563128D01*
X121185537Y-44464555D01*
X121185535Y-44464552D01*
X121128246Y-44326243D01*
X121099040Y-44179415D01*
X121099040Y-44029705D01*
X121128246Y-43882877D01*
X121185535Y-43744568D01*
X121268713Y-43620084D01*
X121374564Y-43514233D01*
X121499048Y-43431055D01*
X121637357Y-43373766D01*
X121784185Y-43344560D01*
X121933895Y-43344560D01*
X122080723Y-43373766D01*
X122080723Y-43373766D01*
G37*
G36*
X117264883Y-43373766D02*
X117403192Y-43431055D01*
X117527676Y-43514233D01*
X117633527Y-43620084D01*
X117716705Y-43744568D01*
X117773994Y-43882877D01*
X117803200Y-44029705D01*
X117803200Y-44179415D01*
X117773994Y-44326243D01*
X117716705Y-44464552D01*
X117716703Y-44464555D01*
X117650839Y-44563128D01*
X117633527Y-44589036D01*
X117527676Y-44694887D01*
X117527673Y-44694889D01*
X117527672Y-44694890D01*
X117403195Y-44778063D01*
X117403192Y-44778065D01*
X117264883Y-44835354D01*
X117118055Y-44864560D01*
X116968345Y-44864560D01*
X116821517Y-44835354D01*
X116683208Y-44778065D01*
X116683205Y-44778063D01*
X116558728Y-44694890D01*
X116558727Y-44694889D01*
X116558724Y-44694887D01*
X116452873Y-44589036D01*
X116435562Y-44563128D01*
X116369697Y-44464555D01*
X116369695Y-44464552D01*
X116312406Y-44326243D01*
X116283200Y-44179415D01*
X116283200Y-44029705D01*
X116312406Y-43882877D01*
X116369695Y-43744568D01*
X116452873Y-43620084D01*
X116558724Y-43514233D01*
X116683208Y-43431055D01*
X116821517Y-43373766D01*
X116968345Y-43344560D01*
X117118055Y-43344560D01*
X117264883Y-43373766D01*
X117264883Y-43373766D01*
G37*
G36*
X85009529Y-43266557D02*
X85048707Y-43270416D01*
X85116563Y-43291000D01*
X85199509Y-43316161D01*
X85338488Y-43390448D01*
X85460302Y-43490418D01*
X85560272Y-43612232D01*
X85634559Y-43751211D01*
X85634559Y-43751212D01*
X85665310Y-43852583D01*
X85680304Y-43902014D01*
X85695750Y-44058840D01*
X85680304Y-44215666D01*
X85634559Y-44366469D01*
X85560272Y-44505448D01*
X85460302Y-44627262D01*
X85338488Y-44727232D01*
X85199509Y-44801519D01*
X85124108Y-44824391D01*
X85048707Y-44847264D01*
X85009529Y-44851123D01*
X84931175Y-44858840D01*
X84852585Y-44858840D01*
X84774231Y-44851123D01*
X84735053Y-44847264D01*
X84659652Y-44824391D01*
X84584251Y-44801519D01*
X84445272Y-44727232D01*
X84323458Y-44627262D01*
X84223488Y-44505448D01*
X84149201Y-44366469D01*
X84103456Y-44215666D01*
X84088010Y-44058840D01*
X84103456Y-43902014D01*
X84118451Y-43852583D01*
X84149201Y-43751212D01*
X84149201Y-43751211D01*
X84223488Y-43612232D01*
X84323458Y-43490418D01*
X84445272Y-43390448D01*
X84584251Y-43316161D01*
X84667197Y-43291000D01*
X84735053Y-43270416D01*
X84774231Y-43266557D01*
X84852585Y-43258840D01*
X84931175Y-43258840D01*
X85009529Y-43266557D01*
X85009529Y-43266557D01*
G37*
G36*
X98048970Y-41306372D02*
X98164889Y-41329429D01*
X98346878Y-41404811D01*
X98510663Y-41514249D01*
X98649951Y-41653537D01*
X98759389Y-41817322D01*
X98834771Y-41999311D01*
X98857828Y-42115230D01*
X98873200Y-42192507D01*
X98873200Y-42389493D01*
X98869065Y-42410280D01*
X98834771Y-42582689D01*
X98759389Y-42764678D01*
X98649951Y-42928463D01*
X98510663Y-43067751D01*
X98346878Y-43177189D01*
X98164889Y-43252571D01*
X98048970Y-43275628D01*
X97971693Y-43291000D01*
X97774707Y-43291000D01*
X97697430Y-43275628D01*
X97581511Y-43252571D01*
X97399522Y-43177189D01*
X97235737Y-43067751D01*
X97096449Y-42928463D01*
X96987011Y-42764678D01*
X96911629Y-42582689D01*
X96877335Y-42410280D01*
X96873200Y-42389493D01*
X96873200Y-42192507D01*
X96888572Y-42115230D01*
X96911629Y-41999311D01*
X96987011Y-41817322D01*
X97096449Y-41653537D01*
X97235737Y-41514249D01*
X97399522Y-41404811D01*
X97581511Y-41329429D01*
X97697430Y-41306372D01*
X97774707Y-41291000D01*
X97971693Y-41291000D01*
X98048970Y-41306372D01*
X98048970Y-41306372D01*
G37*
G36*
X90548970Y-41306372D02*
X90664889Y-41329429D01*
X90846878Y-41404811D01*
X91010663Y-41514249D01*
X91149951Y-41653537D01*
X91259389Y-41817322D01*
X91334771Y-41999311D01*
X91357828Y-42115230D01*
X91373200Y-42192507D01*
X91373200Y-42389493D01*
X91369065Y-42410280D01*
X91334771Y-42582689D01*
X91259389Y-42764678D01*
X91149951Y-42928463D01*
X91010663Y-43067751D01*
X90846878Y-43177189D01*
X90664889Y-43252571D01*
X90548970Y-43275628D01*
X90471693Y-43291000D01*
X90274707Y-43291000D01*
X90197430Y-43275628D01*
X90081511Y-43252571D01*
X89899522Y-43177189D01*
X89735737Y-43067751D01*
X89596449Y-42928463D01*
X89487011Y-42764678D01*
X89411629Y-42582689D01*
X89377335Y-42410280D01*
X89373200Y-42389493D01*
X89373200Y-42192507D01*
X89388572Y-42115230D01*
X89411629Y-41999311D01*
X89487011Y-41817322D01*
X89596449Y-41653537D01*
X89735737Y-41514249D01*
X89899522Y-41404811D01*
X90081511Y-41329429D01*
X90197430Y-41306372D01*
X90274707Y-41291000D01*
X90471693Y-41291000D01*
X90548970Y-41306372D01*
X90548970Y-41306372D01*
G37*
G36*
X112654889Y-40817997D02*
X112694067Y-40821856D01*
X112750079Y-40838847D01*
X112844869Y-40867601D01*
X112983848Y-40941888D01*
X113105662Y-41041858D01*
X113205632Y-41163672D01*
X113279919Y-41302651D01*
X113279919Y-41302652D01*
X113325664Y-41453453D01*
X113341110Y-41610280D01*
X113325664Y-41767107D01*
X113302791Y-41842508D01*
X113279919Y-41917909D01*
X113205632Y-42056888D01*
X113105662Y-42178702D01*
X112983848Y-42278672D01*
X112844869Y-42352959D01*
X112769468Y-42375831D01*
X112694067Y-42398704D01*
X112654889Y-42402563D01*
X112576535Y-42410280D01*
X112497945Y-42410280D01*
X112419591Y-42402563D01*
X112380413Y-42398704D01*
X112305012Y-42375831D01*
X112229611Y-42352959D01*
X112090632Y-42278672D01*
X111968818Y-42178702D01*
X111868848Y-42056888D01*
X111794561Y-41917909D01*
X111771689Y-41842508D01*
X111748816Y-41767107D01*
X111733370Y-41610280D01*
X111748816Y-41453453D01*
X111794561Y-41302652D01*
X111794561Y-41302651D01*
X111868848Y-41163672D01*
X111968818Y-41041858D01*
X112090632Y-40941888D01*
X112229611Y-40867601D01*
X112324401Y-40838847D01*
X112380413Y-40821856D01*
X112419591Y-40817997D01*
X112497945Y-40810280D01*
X112576535Y-40810280D01*
X112654889Y-40817997D01*
X112654889Y-40817997D01*
G37*
G36*
X108027009Y-40797677D02*
X108066187Y-40801536D01*
X108133173Y-40821856D01*
X108216989Y-40847281D01*
X108355968Y-40921568D01*
X108477782Y-41021538D01*
X108577752Y-41143352D01*
X108652039Y-41282331D01*
X108658203Y-41302651D01*
X108689193Y-41404811D01*
X108697784Y-41433134D01*
X108713230Y-41589960D01*
X108697784Y-41746786D01*
X108652039Y-41897589D01*
X108577752Y-42036568D01*
X108477782Y-42158382D01*
X108355968Y-42258352D01*
X108216989Y-42332639D01*
X108150002Y-42352959D01*
X108066187Y-42378384D01*
X108027009Y-42382243D01*
X107948655Y-42389960D01*
X107870065Y-42389960D01*
X107791711Y-42382243D01*
X107752533Y-42378384D01*
X107668718Y-42352959D01*
X107601731Y-42332639D01*
X107462752Y-42258352D01*
X107340938Y-42158382D01*
X107240968Y-42036568D01*
X107166681Y-41897589D01*
X107120936Y-41746786D01*
X107105490Y-41589960D01*
X107120936Y-41433134D01*
X107129528Y-41404811D01*
X107160517Y-41302651D01*
X107166681Y-41282331D01*
X107240968Y-41143352D01*
X107340938Y-41021538D01*
X107462752Y-40921568D01*
X107601731Y-40847281D01*
X107685547Y-40821856D01*
X107752533Y-40801536D01*
X107791711Y-40797677D01*
X107870065Y-40789960D01*
X107948655Y-40789960D01*
X108027009Y-40797677D01*
X108027009Y-40797677D01*
G37*
G36*
X104021323Y-40838846D02*
X104159632Y-40896135D01*
X104159635Y-40896137D01*
X104276514Y-40974233D01*
X104284116Y-40979313D01*
X104389967Y-41085164D01*
X104473145Y-41209648D01*
X104530434Y-41347957D01*
X104559640Y-41494785D01*
X104559640Y-41644495D01*
X104530434Y-41791323D01*
X104473145Y-41929632D01*
X104473143Y-41929635D01*
X104393362Y-42049036D01*
X104389967Y-42054116D01*
X104284116Y-42159967D01*
X104284113Y-42159969D01*
X104284112Y-42159970D01*
X104235417Y-42192507D01*
X104159632Y-42243145D01*
X104021323Y-42300434D01*
X103874495Y-42329640D01*
X103724785Y-42329640D01*
X103577957Y-42300434D01*
X103439648Y-42243145D01*
X103363863Y-42192507D01*
X103315168Y-42159970D01*
X103315167Y-42159969D01*
X103315164Y-42159967D01*
X103209313Y-42054116D01*
X103205919Y-42049036D01*
X103126137Y-41929635D01*
X103126135Y-41929632D01*
X103068846Y-41791323D01*
X103039640Y-41644495D01*
X103039640Y-41494785D01*
X103068846Y-41347957D01*
X103126135Y-41209648D01*
X103209313Y-41085164D01*
X103315164Y-40979313D01*
X103322767Y-40974233D01*
X103439645Y-40896137D01*
X103439648Y-40896135D01*
X103577957Y-40838846D01*
X103724785Y-40809640D01*
X103874495Y-40809640D01*
X104021323Y-40838846D01*
X104021323Y-40838846D01*
G37*
G36*
X117264883Y-40833766D02*
X117403192Y-40891055D01*
X117527676Y-40974233D01*
X117633527Y-41080084D01*
X117633529Y-41080087D01*
X117633530Y-41080088D01*
X117636924Y-41085168D01*
X117716705Y-41204568D01*
X117773994Y-41342877D01*
X117803200Y-41489705D01*
X117803200Y-41639415D01*
X117773994Y-41786243D01*
X117716705Y-41924552D01*
X117716703Y-41924555D01*
X117641860Y-42036566D01*
X117633527Y-42049036D01*
X117527676Y-42154887D01*
X117527673Y-42154889D01*
X117527672Y-42154890D01*
X117520069Y-42159970D01*
X117403192Y-42238065D01*
X117264883Y-42295354D01*
X117118055Y-42324560D01*
X116968345Y-42324560D01*
X116821517Y-42295354D01*
X116683208Y-42238065D01*
X116566331Y-42159970D01*
X116558728Y-42154890D01*
X116558727Y-42154889D01*
X116558724Y-42154887D01*
X116452873Y-42049036D01*
X116444541Y-42036566D01*
X116369697Y-41924555D01*
X116369695Y-41924552D01*
X116312406Y-41786243D01*
X116283200Y-41639415D01*
X116283200Y-41489705D01*
X116312406Y-41342877D01*
X116369695Y-41204568D01*
X116449476Y-41085168D01*
X116452870Y-41080088D01*
X116452871Y-41080087D01*
X116452873Y-41080084D01*
X116558724Y-40974233D01*
X116683208Y-40891055D01*
X116821517Y-40833766D01*
X116968345Y-40804560D01*
X117118055Y-40804560D01*
X117264883Y-40833766D01*
X117264883Y-40833766D01*
G37*
G36*
X122080723Y-40833766D02*
X122219032Y-40891055D01*
X122343516Y-40974233D01*
X122449367Y-41080084D01*
X122449369Y-41080087D01*
X122449370Y-41080088D01*
X122452764Y-41085168D01*
X122532545Y-41204568D01*
X122589834Y-41342877D01*
X122619040Y-41489705D01*
X122619040Y-41639415D01*
X122589834Y-41786243D01*
X122532545Y-41924552D01*
X122532543Y-41924555D01*
X122457700Y-42036566D01*
X122449367Y-42049036D01*
X122343516Y-42154887D01*
X122343513Y-42154889D01*
X122343512Y-42154890D01*
X122335909Y-42159970D01*
X122219032Y-42238065D01*
X122080723Y-42295354D01*
X121933895Y-42324560D01*
X121784185Y-42324560D01*
X121637357Y-42295354D01*
X121499048Y-42238065D01*
X121382171Y-42159970D01*
X121374568Y-42154890D01*
X121374567Y-42154889D01*
X121374564Y-42154887D01*
X121268713Y-42049036D01*
X121260381Y-42036566D01*
X121185537Y-41924555D01*
X121185535Y-41924552D01*
X121128246Y-41786243D01*
X121099040Y-41639415D01*
X121099040Y-41489705D01*
X121128246Y-41342877D01*
X121185535Y-41204568D01*
X121265316Y-41085168D01*
X121268710Y-41080088D01*
X121268711Y-41080087D01*
X121268713Y-41080084D01*
X121374564Y-40974233D01*
X121499048Y-40891055D01*
X121637357Y-40833766D01*
X121784185Y-40804560D01*
X121933895Y-40804560D01*
X122080723Y-40833766D01*
X122080723Y-40833766D01*
G37*
G36*
X49132112Y-38147608D02*
X49501910Y-38300783D01*
X49501913Y-38300785D01*
X49834725Y-38523163D01*
X50117757Y-38806195D01*
X50217043Y-38954787D01*
X50340137Y-39139010D01*
X50493312Y-39508808D01*
X50571400Y-39901384D01*
X50571400Y-40301656D01*
X50493312Y-40694232D01*
X50340137Y-41064030D01*
X50340135Y-41064033D01*
X50117757Y-41396845D01*
X49834725Y-41679877D01*
X49508898Y-41897588D01*
X49501910Y-41902257D01*
X49132112Y-42055432D01*
X48739536Y-42133520D01*
X48339264Y-42133520D01*
X47946688Y-42055432D01*
X47576890Y-41902257D01*
X47569902Y-41897588D01*
X47244075Y-41679877D01*
X46961043Y-41396845D01*
X46738665Y-41064033D01*
X46738663Y-41064030D01*
X46585488Y-40694232D01*
X46507400Y-40301656D01*
X46507400Y-39901384D01*
X46585488Y-39508808D01*
X46738663Y-39139010D01*
X46861757Y-38954787D01*
X46961043Y-38806195D01*
X47244075Y-38523163D01*
X47576887Y-38300785D01*
X47576890Y-38300783D01*
X47946688Y-38147608D01*
X48339264Y-38069520D01*
X48739536Y-38069520D01*
X49132112Y-38147608D01*
X49132112Y-38147608D01*
G37*
G36*
X58467999Y-38565316D02*
X58675346Y-38628215D01*
X58675348Y-38628216D01*
X58866444Y-38730358D01*
X59033941Y-38867819D01*
X59171402Y-39035316D01*
X59226825Y-39139007D01*
X59273545Y-39226414D01*
X59336444Y-39433761D01*
X59357682Y-39649400D01*
X59336444Y-39865039D01*
X59289988Y-40018182D01*
X59273544Y-40072388D01*
X59171402Y-40263484D01*
X59033941Y-40430981D01*
X58866444Y-40568442D01*
X58675348Y-40670584D01*
X58675346Y-40670585D01*
X58467999Y-40733484D01*
X58306398Y-40749400D01*
X58198322Y-40749400D01*
X58036721Y-40733484D01*
X57829374Y-40670585D01*
X57829372Y-40670584D01*
X57638276Y-40568442D01*
X57470779Y-40430981D01*
X57333318Y-40263484D01*
X57231176Y-40072388D01*
X57214733Y-40018182D01*
X57168276Y-39865039D01*
X57147038Y-39649400D01*
X57168276Y-39433761D01*
X57231175Y-39226414D01*
X57277895Y-39139007D01*
X57333318Y-39035316D01*
X57470779Y-38867819D01*
X57638276Y-38730358D01*
X57829372Y-38628216D01*
X57829374Y-38628215D01*
X58036721Y-38565316D01*
X58198322Y-38549400D01*
X58306398Y-38549400D01*
X58467999Y-38565316D01*
X58467999Y-38565316D01*
G37*
G36*
X53309192Y-38869983D02*
X53454781Y-38930288D01*
X53585813Y-39017841D01*
X53697239Y-39129267D01*
X53784792Y-39260299D01*
X53845097Y-39405888D01*
X53875840Y-39560445D01*
X53875840Y-39718035D01*
X53845097Y-39872592D01*
X53784792Y-40018181D01*
X53697239Y-40149213D01*
X53585813Y-40260639D01*
X53454781Y-40348192D01*
X53309192Y-40408497D01*
X53154635Y-40439240D01*
X52997045Y-40439240D01*
X52842488Y-40408497D01*
X52696899Y-40348192D01*
X52565867Y-40260639D01*
X52454441Y-40149213D01*
X52366888Y-40018181D01*
X52306583Y-39872592D01*
X52275840Y-39718035D01*
X52275840Y-39560445D01*
X52306583Y-39405888D01*
X52366888Y-39260299D01*
X52454441Y-39129267D01*
X52565867Y-39017841D01*
X52696899Y-38930288D01*
X52842488Y-38869983D01*
X52997045Y-38839240D01*
X53154635Y-38839240D01*
X53309192Y-38869983D01*
X53309192Y-38869983D01*
G37*
G36*
X104021323Y-38298846D02*
X104159632Y-38356135D01*
X104284116Y-38439313D01*
X104389967Y-38545164D01*
X104389969Y-38545167D01*
X104389970Y-38545168D01*
X104403432Y-38565316D01*
X104473145Y-38669648D01*
X104530434Y-38807957D01*
X104559640Y-38954785D01*
X104559640Y-39104495D01*
X104530434Y-39251323D01*
X104473145Y-39389632D01*
X104473143Y-39389635D01*
X104393515Y-39508807D01*
X104389967Y-39514116D01*
X104284116Y-39619967D01*
X104159632Y-39703145D01*
X104021323Y-39760434D01*
X103874495Y-39789640D01*
X103724785Y-39789640D01*
X103577957Y-39760434D01*
X103439648Y-39703145D01*
X103315164Y-39619967D01*
X103209313Y-39514116D01*
X103205766Y-39508807D01*
X103126137Y-39389635D01*
X103126135Y-39389632D01*
X103068846Y-39251323D01*
X103039640Y-39104495D01*
X103039640Y-38954785D01*
X103068846Y-38807957D01*
X103126135Y-38669648D01*
X103195848Y-38565316D01*
X103209310Y-38545168D01*
X103209311Y-38545167D01*
X103209313Y-38545164D01*
X103315164Y-38439313D01*
X103439648Y-38356135D01*
X103577957Y-38298846D01*
X103724785Y-38269640D01*
X103874495Y-38269640D01*
X104021323Y-38298846D01*
X104021323Y-38298846D01*
G37*
G36*
X122619040Y-39784560D02*
X121099040Y-39784560D01*
X121099040Y-38264560D01*
X122619040Y-38264560D01*
X122619040Y-39784560D01*
X122619040Y-39784560D01*
G37*
G36*
X117803200Y-39784560D02*
X116283200Y-39784560D01*
X116283200Y-38264560D01*
X117803200Y-38264560D01*
X117803200Y-39784560D01*
X117803200Y-39784560D01*
G37*
G36*
X88064079Y-35557956D02*
X88271426Y-35620855D01*
X88271428Y-35620856D01*
X88462524Y-35722998D01*
X88630021Y-35860459D01*
X88767482Y-36027956D01*
X88850135Y-36182591D01*
X88869625Y-36219054D01*
X88928819Y-36414187D01*
X88932524Y-36426402D01*
X88953762Y-36642040D01*
X88932524Y-36857678D01*
X88869624Y-37065028D01*
X88767482Y-37256124D01*
X88630021Y-37423621D01*
X88462524Y-37561082D01*
X88271428Y-37663224D01*
X88271426Y-37663225D01*
X88064079Y-37726124D01*
X87902478Y-37742040D01*
X87794402Y-37742040D01*
X87632801Y-37726124D01*
X87425454Y-37663225D01*
X87425452Y-37663224D01*
X87234356Y-37561082D01*
X87066859Y-37423621D01*
X86929398Y-37256124D01*
X86827256Y-37065028D01*
X86764356Y-36857678D01*
X86743118Y-36642040D01*
X86764356Y-36426402D01*
X86768061Y-36414187D01*
X86827255Y-36219054D01*
X86846745Y-36182591D01*
X86929398Y-36027956D01*
X87066859Y-35860459D01*
X87234356Y-35722998D01*
X87425452Y-35620856D01*
X87425454Y-35620855D01*
X87632801Y-35557956D01*
X87794402Y-35542040D01*
X87902478Y-35542040D01*
X88064079Y-35557956D01*
X88064079Y-35557956D01*
G37*
G36*
X99108440Y-37742040D02*
X96908440Y-37742040D01*
X96908440Y-35542040D01*
X99108440Y-35542040D01*
X99108440Y-37742040D01*
X99108440Y-37742040D01*
G37*
G36*
X131769590Y-33485117D02*
X131926295Y-33500551D01*
X132127362Y-33561544D01*
X132227897Y-33592041D01*
X132376468Y-33671454D01*
X132505853Y-33740612D01*
X132505855Y-33740613D01*
X132505854Y-33740613D01*
X132749485Y-33940555D01*
X132949427Y-34184186D01*
X133097999Y-34462143D01*
X133097999Y-34462144D01*
X133189489Y-34763745D01*
X133220381Y-35077400D01*
X133189489Y-35391055D01*
X133170374Y-35454067D01*
X133097999Y-35692657D01*
X133018586Y-35841228D01*
X132949428Y-35970613D01*
X132749485Y-36214245D01*
X132505853Y-36414188D01*
X132376468Y-36483346D01*
X132227897Y-36562759D01*
X132127362Y-36593256D01*
X131926295Y-36654249D01*
X131769590Y-36669683D01*
X131691238Y-36677400D01*
X131534042Y-36677400D01*
X131455690Y-36669683D01*
X131298985Y-36654249D01*
X131097918Y-36593256D01*
X130997383Y-36562759D01*
X130848812Y-36483346D01*
X130719427Y-36414188D01*
X130475795Y-36214245D01*
X130275852Y-35970613D01*
X130206694Y-35841228D01*
X130127281Y-35692657D01*
X130054906Y-35454067D01*
X130035791Y-35391055D01*
X130004899Y-35077400D01*
X130035791Y-34763745D01*
X130127281Y-34462144D01*
X130127281Y-34462143D01*
X130275853Y-34184186D01*
X130475795Y-33940555D01*
X130719426Y-33740613D01*
X130719425Y-33740613D01*
X130719427Y-33740612D01*
X130848812Y-33671454D01*
X130997383Y-33592041D01*
X131097918Y-33561544D01*
X131298985Y-33500551D01*
X131455690Y-33485117D01*
X131534042Y-33477400D01*
X131691238Y-33477400D01*
X131769590Y-33485117D01*
X131769590Y-33485117D01*
G37*
G36*
X138988270Y-33485117D02*
X139144975Y-33500551D01*
X139346042Y-33561544D01*
X139446577Y-33592041D01*
X139595148Y-33671454D01*
X139724533Y-33740612D01*
X139724535Y-33740613D01*
X139724534Y-33740613D01*
X139968165Y-33940555D01*
X140168107Y-34184186D01*
X140316679Y-34462143D01*
X140316679Y-34462144D01*
X140408169Y-34763745D01*
X140439061Y-35077400D01*
X140408169Y-35391055D01*
X140389054Y-35454067D01*
X140316679Y-35692657D01*
X140237266Y-35841228D01*
X140168108Y-35970613D01*
X139968165Y-36214245D01*
X139724533Y-36414188D01*
X139595148Y-36483346D01*
X139446577Y-36562759D01*
X139346042Y-36593256D01*
X139144975Y-36654249D01*
X138988270Y-36669683D01*
X138909918Y-36677400D01*
X138752722Y-36677400D01*
X138674370Y-36669683D01*
X138517665Y-36654249D01*
X138316598Y-36593256D01*
X138216063Y-36562759D01*
X138067492Y-36483346D01*
X137938107Y-36414188D01*
X137694475Y-36214245D01*
X137494532Y-35970613D01*
X137425374Y-35841228D01*
X137345961Y-35692657D01*
X137273586Y-35454067D01*
X137254471Y-35391055D01*
X137223579Y-35077400D01*
X137254471Y-34763745D01*
X137345961Y-34462144D01*
X137345961Y-34462143D01*
X137494533Y-34184186D01*
X137694475Y-33940555D01*
X137938106Y-33740613D01*
X137938105Y-33740613D01*
X137938107Y-33740612D01*
X138067492Y-33671454D01*
X138216063Y-33592041D01*
X138316598Y-33561544D01*
X138517665Y-33500551D01*
X138674370Y-33485117D01*
X138752722Y-33477400D01*
X138909918Y-33477400D01*
X138988270Y-33485117D01*
X138988270Y-33485117D01*
G37*
G36*
X122092392Y-34704383D02*
X122237981Y-34764688D01*
X122369013Y-34852241D01*
X122480439Y-34963667D01*
X122567992Y-35094699D01*
X122628297Y-35240288D01*
X122659040Y-35394845D01*
X122659040Y-35552435D01*
X122628297Y-35706992D01*
X122567992Y-35852581D01*
X122480439Y-35983613D01*
X122369013Y-36095039D01*
X122237981Y-36182592D01*
X122092392Y-36242897D01*
X121937835Y-36273640D01*
X121780245Y-36273640D01*
X121625688Y-36242897D01*
X121480099Y-36182592D01*
X121349067Y-36095039D01*
X121237641Y-35983613D01*
X121150088Y-35852581D01*
X121089783Y-35706992D01*
X121059040Y-35552435D01*
X121059040Y-35394845D01*
X121089783Y-35240288D01*
X121150088Y-35094699D01*
X121237641Y-34963667D01*
X121349067Y-34852241D01*
X121480099Y-34764688D01*
X121625688Y-34704383D01*
X121780245Y-34673640D01*
X121937835Y-34673640D01*
X122092392Y-34704383D01*
X122092392Y-34704383D01*
G37*
G36*
X119436689Y-34681357D02*
X119475867Y-34685216D01*
X119539052Y-34704383D01*
X119626669Y-34730961D01*
X119765648Y-34805248D01*
X119887462Y-34905218D01*
X119987432Y-35027032D01*
X120061719Y-35166011D01*
X120107464Y-35316814D01*
X120122910Y-35473640D01*
X120107464Y-35630466D01*
X120061719Y-35781269D01*
X119987432Y-35920248D01*
X119887462Y-36042062D01*
X119765648Y-36142032D01*
X119626669Y-36216319D01*
X119551267Y-36239192D01*
X119475867Y-36262064D01*
X119436689Y-36265923D01*
X119358335Y-36273640D01*
X119279745Y-36273640D01*
X119201391Y-36265923D01*
X119162213Y-36262064D01*
X119086813Y-36239192D01*
X119011411Y-36216319D01*
X118872432Y-36142032D01*
X118750618Y-36042062D01*
X118650648Y-35920248D01*
X118576361Y-35781269D01*
X118530616Y-35630466D01*
X118515170Y-35473640D01*
X118530616Y-35316814D01*
X118576361Y-35166011D01*
X118650648Y-35027032D01*
X118750618Y-34905218D01*
X118872432Y-34805248D01*
X119011411Y-34730961D01*
X119099028Y-34704383D01*
X119162213Y-34685216D01*
X119201391Y-34681357D01*
X119279745Y-34673640D01*
X119358335Y-34673640D01*
X119436689Y-34681357D01*
X119436689Y-34681357D01*
G37*
G36*
X71937680Y-35717280D02*
X68737680Y-35717280D01*
X68737680Y-32517280D01*
X71937680Y-32517280D01*
X71937680Y-35717280D01*
X71937680Y-35717280D01*
G37*
G36*
X55221500Y-32521734D02*
X55411335Y-32540431D01*
X55594521Y-32596000D01*
X55712937Y-32631921D01*
X55861508Y-32711334D01*
X55990893Y-32780492D01*
X56234525Y-32980435D01*
X56434468Y-33224067D01*
X56440383Y-33235134D01*
X56583039Y-33502023D01*
X56583039Y-33502024D01*
X56674529Y-33803625D01*
X56705421Y-34117280D01*
X56674529Y-34430935D01*
X56648342Y-34517261D01*
X56583039Y-34732537D01*
X56519055Y-34852241D01*
X56434468Y-35010493D01*
X56234525Y-35254125D01*
X55990893Y-35454068D01*
X55954276Y-35473640D01*
X55712937Y-35602639D01*
X55652883Y-35620856D01*
X55411335Y-35694129D01*
X55254630Y-35709563D01*
X55176278Y-35717280D01*
X55019082Y-35717280D01*
X54940730Y-35709563D01*
X54784025Y-35694129D01*
X54542477Y-35620856D01*
X54482423Y-35602639D01*
X54241084Y-35473640D01*
X54204467Y-35454068D01*
X53960835Y-35254125D01*
X53760892Y-35010493D01*
X53676305Y-34852241D01*
X53612321Y-34732537D01*
X53547018Y-34517261D01*
X53520831Y-34430935D01*
X53489939Y-34117280D01*
X53520831Y-33803625D01*
X53612321Y-33502024D01*
X53612321Y-33502023D01*
X53754977Y-33235134D01*
X53760892Y-33224067D01*
X53960835Y-32980435D01*
X54204467Y-32780492D01*
X54333852Y-32711334D01*
X54482423Y-32631921D01*
X54600839Y-32596000D01*
X54784025Y-32540431D01*
X54973860Y-32521734D01*
X55019082Y-32517280D01*
X55176278Y-32517280D01*
X55221500Y-32521734D01*
X55221500Y-32521734D01*
G37*
G36*
X79953626Y-32431275D02*
X80172012Y-32521733D01*
X80368558Y-32653061D01*
X80535699Y-32820202D01*
X80667027Y-33016748D01*
X80757485Y-33235134D01*
X80803600Y-33466969D01*
X80803600Y-33703351D01*
X80757485Y-33935186D01*
X80667027Y-34153572D01*
X80535699Y-34350118D01*
X80368558Y-34517259D01*
X80172012Y-34648587D01*
X79953626Y-34739045D01*
X79721791Y-34785160D01*
X79485409Y-34785160D01*
X79253574Y-34739045D01*
X79035188Y-34648587D01*
X78838642Y-34517259D01*
X78671501Y-34350118D01*
X78540173Y-34153572D01*
X78449715Y-33935186D01*
X78403600Y-33703351D01*
X78403600Y-33466969D01*
X78449715Y-33235134D01*
X78540173Y-33016748D01*
X78671501Y-32820202D01*
X78838642Y-32653061D01*
X79035188Y-32521733D01*
X79253574Y-32431275D01*
X79485409Y-32385160D01*
X79721791Y-32385160D01*
X79953626Y-32431275D01*
X79953626Y-32431275D01*
G37*
G36*
X120139640Y-32596000D02*
X117939640Y-32596000D01*
X117939640Y-30396000D01*
X120139640Y-30396000D01*
X120139640Y-32596000D01*
X120139640Y-32596000D01*
G37*
G36*
X124335279Y-30411916D02*
X124542626Y-30474815D01*
X124542628Y-30474816D01*
X124733724Y-30576958D01*
X124901221Y-30714419D01*
X125038682Y-30881916D01*
X125140824Y-31073012D01*
X125203724Y-31280362D01*
X125224962Y-31496000D01*
X125203724Y-31711638D01*
X125140824Y-31918988D01*
X125038682Y-32110084D01*
X124901221Y-32277581D01*
X124733724Y-32415042D01*
X124542628Y-32517184D01*
X124542626Y-32517185D01*
X124335279Y-32580084D01*
X124173678Y-32596000D01*
X124065602Y-32596000D01*
X123904001Y-32580084D01*
X123696654Y-32517185D01*
X123696652Y-32517184D01*
X123505556Y-32415042D01*
X123338059Y-32277581D01*
X123200598Y-32110084D01*
X123098456Y-31918988D01*
X123035556Y-31711638D01*
X123014318Y-31496000D01*
X123035556Y-31280362D01*
X123098456Y-31073012D01*
X123200598Y-30881916D01*
X123338059Y-30714419D01*
X123505556Y-30576958D01*
X123696652Y-30474816D01*
X123696654Y-30474815D01*
X123904001Y-30411916D01*
X124065602Y-30396000D01*
X124173678Y-30396000D01*
X124335279Y-30411916D01*
X124335279Y-30411916D01*
G37*
G36*
X114274413Y-28209940D02*
X114274416Y-28209941D01*
X114415899Y-28252859D01*
X114546291Y-28322555D01*
X114660581Y-28416349D01*
X114660582Y-28416351D01*
X114660584Y-28416352D01*
X114754374Y-28530636D01*
X114824070Y-28661028D01*
X114866990Y-28802516D01*
X114877850Y-28912781D01*
X114877850Y-29984739D01*
X114866990Y-30095004D01*
X114824070Y-30236492D01*
X114754374Y-30366884D01*
X114660581Y-30481171D01*
X114546294Y-30574964D01*
X114546292Y-30574965D01*
X114415900Y-30644661D01*
X114300754Y-30679590D01*
X114274414Y-30687580D01*
X114127280Y-30702071D01*
X113980147Y-30687580D01*
X113953807Y-30679590D01*
X113838661Y-30644661D01*
X113708269Y-30574965D01*
X113708267Y-30574964D01*
X113593980Y-30481171D01*
X113500187Y-30366884D01*
X113430491Y-30236492D01*
X113387571Y-30095004D01*
X113376711Y-29984739D01*
X113376710Y-28912782D01*
X113387570Y-28802517D01*
X113409161Y-28731341D01*
X113430489Y-28661031D01*
X113500185Y-28530639D01*
X113593979Y-28416349D01*
X113593981Y-28416348D01*
X113593982Y-28416346D01*
X113708266Y-28322556D01*
X113838658Y-28252860D01*
X113838660Y-28252859D01*
X113980143Y-28209941D01*
X113980146Y-28209940D01*
X114127280Y-28195449D01*
X114274413Y-28209940D01*
X114274413Y-28209940D01*
G37*
G36*
X109194413Y-28209940D02*
X109194416Y-28209941D01*
X109335899Y-28252859D01*
X109466291Y-28322555D01*
X109580581Y-28416349D01*
X109580582Y-28416351D01*
X109580584Y-28416352D01*
X109674374Y-28530636D01*
X109744070Y-28661028D01*
X109786990Y-28802516D01*
X109797850Y-28912781D01*
X109797850Y-29984739D01*
X109786990Y-30095004D01*
X109744070Y-30236492D01*
X109674374Y-30366884D01*
X109580581Y-30481171D01*
X109466294Y-30574964D01*
X109466292Y-30574965D01*
X109335900Y-30644661D01*
X109220754Y-30679590D01*
X109194414Y-30687580D01*
X109047280Y-30702071D01*
X108900147Y-30687580D01*
X108873807Y-30679590D01*
X108758661Y-30644661D01*
X108628269Y-30574965D01*
X108628267Y-30574964D01*
X108513980Y-30481171D01*
X108420187Y-30366884D01*
X108350491Y-30236492D01*
X108307571Y-30095004D01*
X108296711Y-29984739D01*
X108296710Y-28912782D01*
X108307570Y-28802517D01*
X108329161Y-28731341D01*
X108350489Y-28661031D01*
X108420185Y-28530639D01*
X108513979Y-28416349D01*
X108513981Y-28416348D01*
X108513982Y-28416346D01*
X108628266Y-28322556D01*
X108758658Y-28252860D01*
X108758660Y-28252859D01*
X108900143Y-28209941D01*
X108900146Y-28209940D01*
X109047280Y-28195449D01*
X109194413Y-28209940D01*
X109194413Y-28209940D01*
G37*
G36*
X111734413Y-28209940D02*
X111734416Y-28209941D01*
X111875899Y-28252859D01*
X112006291Y-28322555D01*
X112120581Y-28416349D01*
X112120582Y-28416351D01*
X112120584Y-28416352D01*
X112214374Y-28530636D01*
X112284070Y-28661028D01*
X112326990Y-28802516D01*
X112337850Y-28912781D01*
X112337850Y-29984739D01*
X112326990Y-30095004D01*
X112284070Y-30236492D01*
X112214374Y-30366884D01*
X112120581Y-30481171D01*
X112006294Y-30574964D01*
X112006292Y-30574965D01*
X111875900Y-30644661D01*
X111760754Y-30679590D01*
X111734414Y-30687580D01*
X111587280Y-30702071D01*
X111440147Y-30687580D01*
X111413807Y-30679590D01*
X111298661Y-30644661D01*
X111168269Y-30574965D01*
X111168267Y-30574964D01*
X111053980Y-30481171D01*
X110960187Y-30366884D01*
X110890491Y-30236492D01*
X110847571Y-30095004D01*
X110836711Y-29984739D01*
X110836710Y-28912782D01*
X110847570Y-28802517D01*
X110869161Y-28731341D01*
X110890489Y-28661031D01*
X110960185Y-28530639D01*
X111053979Y-28416349D01*
X111053981Y-28416348D01*
X111053982Y-28416346D01*
X111168266Y-28322556D01*
X111298658Y-28252860D01*
X111298660Y-28252859D01*
X111440143Y-28209941D01*
X111440146Y-28209940D01*
X111587280Y-28195449D01*
X111734413Y-28209940D01*
X111734413Y-28209940D01*
G37*
G36*
X80803600Y-29785160D02*
X78403600Y-29785160D01*
X78403600Y-27385160D01*
X80803600Y-27385160D01*
X80803600Y-29785160D01*
X80803600Y-29785160D01*
G37*
G36*
X49178823Y-26188126D02*
X49470003Y-26308737D01*
X49732064Y-26483841D01*
X49954919Y-26706696D01*
X50130023Y-26968757D01*
X50250634Y-27259937D01*
X50312120Y-27569052D01*
X50312120Y-27884228D01*
X50250634Y-28193343D01*
X50130023Y-28484523D01*
X49954919Y-28746584D01*
X49732064Y-28969439D01*
X49470003Y-29144543D01*
X49178823Y-29265154D01*
X48869708Y-29326640D01*
X48554532Y-29326640D01*
X48245417Y-29265154D01*
X47954237Y-29144543D01*
X47692176Y-28969439D01*
X47469321Y-28746584D01*
X47294217Y-28484523D01*
X47173606Y-28193343D01*
X47112120Y-27884228D01*
X47112120Y-27569052D01*
X47173606Y-27259937D01*
X47294217Y-26968757D01*
X47469321Y-26706696D01*
X47692176Y-26483841D01*
X47954237Y-26308737D01*
X48245417Y-26188126D01*
X48554532Y-26126640D01*
X48869708Y-26126640D01*
X49178823Y-26188126D01*
X49178823Y-26188126D01*
G37*
G36*
X138282023Y-26172886D02*
X138573203Y-26293497D01*
X138835264Y-26468601D01*
X139058119Y-26691456D01*
X139233223Y-26953517D01*
X139353834Y-27244697D01*
X139415320Y-27553812D01*
X139415320Y-27868988D01*
X139353834Y-28178103D01*
X139233223Y-28469283D01*
X139058119Y-28731344D01*
X138835264Y-28954199D01*
X138573203Y-29129303D01*
X138282023Y-29249914D01*
X137972908Y-29311400D01*
X137657732Y-29311400D01*
X137348617Y-29249914D01*
X137057437Y-29129303D01*
X136795376Y-28954199D01*
X136572521Y-28731344D01*
X136397417Y-28469283D01*
X136276806Y-28178103D01*
X136215320Y-27868988D01*
X136215320Y-27553812D01*
X136276806Y-27244697D01*
X136397417Y-26953517D01*
X136572521Y-26691456D01*
X136795376Y-26468601D01*
X137057437Y-26293497D01*
X137348617Y-26172886D01*
X137657732Y-26111400D01*
X137972908Y-26111400D01*
X138282023Y-26172886D01*
X138282023Y-26172886D01*
G37*
G36*
X71937680Y-29184400D02*
X68737680Y-29184400D01*
X68737680Y-25984400D01*
X71937680Y-25984400D01*
X71937680Y-29184400D01*
X71937680Y-29184400D01*
G37*
G36*
X55254630Y-25992117D02*
X55411335Y-26007551D01*
X55612402Y-26068544D01*
X55712937Y-26099041D01*
X55851090Y-26172886D01*
X55990893Y-26247612D01*
X56234525Y-26447555D01*
X56434468Y-26691187D01*
X56442759Y-26706699D01*
X56583039Y-26969143D01*
X56583039Y-26969144D01*
X56674529Y-27270745D01*
X56705421Y-27584400D01*
X56674529Y-27898055D01*
X56613536Y-28099122D01*
X56583039Y-28199657D01*
X56554601Y-28252860D01*
X56434468Y-28477613D01*
X56234525Y-28721245D01*
X55990893Y-28921188D01*
X55900618Y-28969441D01*
X55712937Y-29069759D01*
X55612402Y-29100256D01*
X55411335Y-29161249D01*
X55254630Y-29176683D01*
X55176278Y-29184400D01*
X55019082Y-29184400D01*
X54940730Y-29176683D01*
X54784025Y-29161249D01*
X54582958Y-29100256D01*
X54482423Y-29069759D01*
X54294742Y-28969441D01*
X54204467Y-28921188D01*
X53960835Y-28721245D01*
X53760892Y-28477613D01*
X53640759Y-28252860D01*
X53612321Y-28199657D01*
X53581824Y-28099122D01*
X53520831Y-27898055D01*
X53489939Y-27584400D01*
X53520831Y-27270745D01*
X53612321Y-26969144D01*
X53612321Y-26969143D01*
X53752601Y-26706699D01*
X53760892Y-26691187D01*
X53960835Y-26447555D01*
X54204467Y-26247612D01*
X54344270Y-26172886D01*
X54482423Y-26099041D01*
X54582958Y-26068544D01*
X54784025Y-26007551D01*
X54940730Y-25992117D01*
X55019082Y-25984400D01*
X55176278Y-25984400D01*
X55254630Y-25992117D01*
X55254630Y-25992117D01*
G37*
M02*
