M48
;DRILL file {KiCad (5.0.0)} date 11/13/18 14:05:18
;FORMAT={-:-/ absolute / inch / decimal}
FMAT,2
INCH,TZ
T1C0.0315
T2C0.0354
T3C0.0394
T4C0.0394
T5C0.0433
T6C0.0472
T7C0.0630
T8C0.0709
T9C0.1200
T10C0.1260
%
G90
G05
M72
T1
X3.7456Y-3.1174
X3.7456Y-3.6174
X4.7976Y-1.5364
X4.7976Y-1.6364
X4.7976Y-1.7364
X4.4438Y-1.6402
X4.4438Y-2.1402
X4.2976Y-1.3966
X4.7976Y-1.3966
X3.3392Y-1.7264
X3.3392Y-2.2264
X3.2882Y-3.199
X3.2882Y-3.699
X4.608Y-1.5364
X4.608Y-1.6364
X4.608Y-1.7364
X4.046Y-2.5312
X4.046Y-3.0312
X4.258Y-1.6402
X4.258Y-2.1402
X3.558Y-1.9266
X3.558Y-2.0266
X3.558Y-2.1266
X3.558Y-2.2266
X3.858Y-1.9266
X3.858Y-2.0266
X3.858Y-2.1266
X3.858Y-2.2266
X2.0908Y-2.2266
X2.0908Y-2.7266
X2.6304Y-3.1964
X2.6304Y-3.6964
X4.0866Y-1.5366
X4.0866Y-1.6366
X4.0866Y-1.7366
X3.555Y-2.5312
X3.555Y-2.6312
X3.555Y-2.7312
X3.555Y-2.8312
X3.855Y-2.5312
X3.855Y-2.6312
X3.855Y-2.7312
X3.855Y-2.8312
X4.0484Y-1.8704
X4.0484Y-2.3704
X2.0896Y-1.5606
X2.0896Y-2.0606
X3.0974Y-3.199
X3.0974Y-3.699
X2.2928Y-2.2266
X2.7928Y-2.2266
X2.8162Y-3.1964
X2.8162Y-3.6964
X2.8162Y-3.0222
X3.3162Y-3.0222
X3.555Y-3.118
X3.555Y-3.618
T2
X4.046Y-3.17
X4.046Y-3.27
X2.6304Y-3.8872
X2.6304Y-3.9872
X4.046Y-3.394
X4.046Y-3.494
T3
X2.6326Y-1.7614
X2.6326Y-1.8614
X2.6326Y-1.9614
X3.558Y-1.665
X3.8533Y-1.665
T4
X4.4044Y-1.1046
X4.5044Y-1.1046
X4.6044Y-1.1046
X3.1266Y-4.1416
X3.2266Y-4.1416
X3.3266Y-4.1416
T5
X2.2934Y-1.561
X2.2934Y-1.961
X3.4586Y-1.4426
X3.8586Y-1.4426
X4.396Y-1.2504
X4.796Y-1.2504
X2.1966Y-3.8313
X2.1966Y-4.0872
X2.3738Y-3.8313
X2.3738Y-4.0872
T6
X4.6902Y-2.0438
X4.8871Y-2.0438
X3.134Y-1.1254
X3.134Y-1.3223
X3.8036Y-3.8894
X3.8036Y-4.0863
X2.2798Y-3.1968
X2.2798Y-3.3937
X3.0498Y-2.5312
X3.0498Y-2.7281
X2.473Y-2.5312
X2.473Y-2.7281
X2.8989Y-1.8598
X3.0958Y-1.8598
T7
X5.4658Y-1.381
X5.4658Y-1.981
X4.2354Y-3.9242
X4.8354Y-3.9242
X5.1816Y-1.381
X5.1816Y-1.981
X4.2354Y-4.1784
X4.8354Y-4.1784
X2.1692Y-1.086
X2.7692Y-1.086
X2.1692Y-1.3432
X2.7692Y-1.3432
T8
X4.9254Y-3.1226
X4.9254Y-3.6226
X4.9254Y-2.3892
X4.9254Y-2.8892
T9
X5.3998Y-3.8714
X1.9098Y-3.0166
X5.0538Y-4.283
X1.9114Y-1.4304
T10
X1.9178Y-1.0916
X1.9178Y-4.2818
X5.4258Y-1.091
X5.4226Y-4.2886
T0
M30
