%TF.GenerationSoftware,KiCad,Pcbnew,(5.0.0)*%
%TF.CreationDate,2018-11-17T19:21:28+09:00*%
%TF.ProjectId,ATTiny85-mppt,415454696E7938352D6D7070742E6B69,rev?*%
%TF.SameCoordinates,Original*%
%TF.FileFunction,Copper,L2,Bot,Signal*%
%TF.FilePolarity,Positive*%
%FSLAX46Y46*%
G04 Gerber Fmt 4.6, Leading zero omitted, Abs format (unit mm)*
G04 Created by KiCad (PCBNEW (5.0.0)) date 11/17/18 19:21:28*
%MOMM*%
%LPD*%
G01*
G04 APERTURE LIST*
%ADD10C,1.600000*%
%ADD11O,1.600000X1.600000*%
%ADD12O,2.200000X2.200000*%
%ADD13R,2.200000X2.200000*%
%ADD14R,2.400000X2.400000*%
%ADD15C,2.400000*%
%ADD16C,2.000000*%
%ADD17O,3.200000X3.200000*%
%ADD18R,3.200000X3.200000*%
%ADD19C,1.800000*%
%ADD20R,1.800000X1.800000*%
%ADD21C,4.064000*%
%ADD22C,3.600000*%
%ADD23O,1.501140X2.499360*%
%ADD24R,1.520000X1.520000*%
%ADD25C,1.520000*%
%ADD26O,1.800000X1.800000*%
%ADD27R,1.600000X1.600000*%
%ADD28C,3.000000*%
%ADD29C,2.000000*%
%ADD30C,1.500000*%
%ADD31C,1.200000*%
%ADD32C,2.500000*%
%ADD33C,0.254000*%
G04 APERTURE END LIST*
D10*
X121859040Y-35473640D03*
D11*
X119319040Y-35473640D03*
D12*
X87848440Y-36642040D03*
D13*
X98008440Y-36642040D03*
D14*
X96611440Y-98790760D03*
D15*
X96611440Y-103790760D03*
X124131080Y-51912520D03*
D14*
X119131080Y-51912520D03*
X78633320Y-47238920D03*
D15*
X73633320Y-47238920D03*
D16*
X97873200Y-42291000D03*
X90373200Y-42291000D03*
D15*
X77464920Y-69292480D03*
D14*
X77464920Y-64292480D03*
X62814200Y-64292480D03*
D15*
X62814200Y-69292480D03*
X79603600Y-33585160D03*
D14*
X79603600Y-28585160D03*
D17*
X131612640Y-35077400D03*
D18*
X131612640Y-50317400D03*
X107579160Y-106131360D03*
D17*
X122819160Y-106131360D03*
D19*
X66812160Y-98734880D03*
D20*
X66812160Y-101274880D03*
D13*
X58252360Y-49809400D03*
D12*
X58252360Y-39649400D03*
D18*
X70337680Y-27584400D03*
D17*
X55097680Y-27584400D03*
X55097680Y-34117280D03*
D18*
X70337680Y-34117280D03*
D20*
X102768400Y-83058000D03*
D19*
X102768400Y-80518000D03*
X102768400Y-86207600D03*
D20*
X102768400Y-88747600D03*
D17*
X138831320Y-35077400D03*
D18*
X138831320Y-50317400D03*
X107579160Y-99674680D03*
D17*
X122819160Y-99674680D03*
D21*
X48539400Y-40101520D03*
X48508920Y-76621640D03*
X137154920Y-98333560D03*
X128366520Y-108788200D03*
D22*
X125105160Y-73385680D03*
X125105160Y-60685680D03*
X125105160Y-79314040D03*
X125105160Y-92014040D03*
D23*
X81955640Y-105196640D03*
X84495640Y-105196640D03*
X79415640Y-105196640D03*
X116951760Y-28056840D03*
X111871760Y-28056840D03*
X114411760Y-28056840D03*
D24*
X117043200Y-39024560D03*
D25*
X117043200Y-44104560D03*
X117043200Y-41564560D03*
X121859040Y-41564560D03*
X121859040Y-44104560D03*
D24*
X121859040Y-39024560D03*
D10*
X71531480Y-93888560D03*
D11*
X71531480Y-81188560D03*
X78673960Y-81254600D03*
D10*
X78673960Y-93954600D03*
X90297000Y-91897200D03*
D11*
X90297000Y-79197200D03*
X95138240Y-91881960D03*
D10*
X95138240Y-79181960D03*
D11*
X53075840Y-52339240D03*
D10*
X53075840Y-39639240D03*
X66812160Y-93888560D03*
D11*
X66812160Y-81188560D03*
D10*
X58237120Y-56555640D03*
D11*
X70937120Y-56555640D03*
X108153200Y-41661080D03*
D10*
X108153200Y-54361080D03*
D11*
X102829360Y-47508160D03*
D10*
X102829360Y-60208160D03*
X53106320Y-56555640D03*
D11*
X53106320Y-69255640D03*
D10*
X83520280Y-93954600D03*
D11*
X83520280Y-81254600D03*
X102768400Y-76992480D03*
D10*
X102768400Y-64292480D03*
D11*
X84231480Y-76763880D03*
D10*
X71531480Y-76763880D03*
X84815680Y-56550560D03*
D11*
X84815680Y-43850560D03*
D16*
X55793640Y-97314880D03*
X60293640Y-97314880D03*
X55793640Y-103814880D03*
X60293640Y-103814880D03*
D26*
X66868040Y-44739560D03*
X66868040Y-47279560D03*
D20*
X66868040Y-49819560D03*
D11*
X97917000Y-64292480D03*
X90297000Y-71912480D03*
X97917000Y-66832480D03*
X90297000Y-69372480D03*
X97917000Y-69372480D03*
X90297000Y-66832480D03*
X97917000Y-71912480D03*
D27*
X90297000Y-64292480D03*
X90373200Y-48935640D03*
D11*
X97993200Y-56555640D03*
X90373200Y-51475640D03*
X97993200Y-54015640D03*
X90373200Y-54015640D03*
X97993200Y-51475640D03*
X90373200Y-56555640D03*
X97993200Y-48935640D03*
D24*
X103799640Y-44109640D03*
D25*
X103799640Y-39029640D03*
X103799640Y-41569640D03*
D11*
X112872520Y-41661080D03*
D10*
X112872520Y-54361080D03*
D15*
X57906920Y-86198720D03*
D14*
X57906920Y-81198720D03*
D12*
X121818400Y-31760160D03*
D13*
X111658400Y-31760160D03*
D11*
X103799640Y-34335720D03*
D10*
X103799640Y-31795720D03*
D28*
X127650744Y-92014040D02*
X134787640Y-84877144D01*
X125105160Y-92014040D02*
X127650744Y-92014040D01*
X134787640Y-84877144D02*
X134787640Y-75768200D01*
X134787640Y-75768200D02*
X132166360Y-73146920D01*
X131927600Y-73385680D02*
X125105160Y-73385680D01*
X132166360Y-73146920D02*
X131927600Y-73385680D01*
X131424680Y-98333560D02*
X125105160Y-92014040D01*
X137154920Y-98333560D02*
X131424680Y-98333560D01*
X122819160Y-99674680D02*
X122819160Y-106131360D01*
X125709680Y-106131360D02*
X128366520Y-108788200D01*
X122819160Y-106131360D02*
X125709680Y-106131360D01*
X128366520Y-105222040D02*
X122819160Y-99674680D01*
X128366520Y-108788200D02*
X128366520Y-105222040D01*
X96611440Y-103790760D02*
X96611440Y-111777668D01*
X117172852Y-111777668D02*
X122819160Y-106131360D01*
X96611440Y-111777668D02*
X117172852Y-111777668D01*
X96611440Y-111777668D02*
X82025076Y-111777669D01*
X82025076Y-111777669D02*
X82025076Y-107606244D01*
D29*
X81955640Y-107536808D02*
X82025076Y-107606244D01*
X81955640Y-105196640D02*
X81955640Y-107536808D01*
D30*
X81955640Y-95519240D02*
X83520280Y-93954600D01*
X81955640Y-105196640D02*
X81955640Y-95519240D01*
D28*
X138831320Y-35077400D02*
X131612640Y-35077400D01*
D30*
X116951760Y-27557730D02*
X116951760Y-28056840D01*
X124131080Y-46376600D02*
X121859040Y-44104560D01*
X124131080Y-51912520D02*
X124131080Y-46376600D01*
X121859040Y-44104560D02*
X126512320Y-44104560D01*
X131612640Y-39004240D02*
X131612640Y-35077400D01*
X126512320Y-44104560D02*
X131612640Y-39004240D01*
D28*
X130012641Y-33477401D02*
X129438601Y-33477401D01*
X131612640Y-35077400D02*
X130012641Y-33477401D01*
X127721360Y-31760160D02*
X121818400Y-31760160D01*
X129438601Y-33477401D02*
X127721360Y-31760160D01*
X121818400Y-30204526D02*
X119624994Y-28011120D01*
X121818400Y-31760160D02*
X121818400Y-30204526D01*
X119624994Y-28011120D02*
X118059200Y-28011120D01*
D30*
X118013480Y-28056840D02*
X118059200Y-28011120D01*
X116951760Y-28056840D02*
X118013480Y-28056840D01*
X112872520Y-45653960D02*
X112872520Y-41661080D01*
X119131080Y-51912520D02*
X112872520Y-45653960D01*
X114421920Y-44104560D02*
X112872520Y-45653960D01*
X117043200Y-44104560D02*
X114421920Y-44104560D01*
D31*
X98008440Y-36642040D02*
X111612680Y-36642040D01*
X112872520Y-37901880D02*
X112872520Y-41661080D01*
X111612680Y-36642040D02*
X112872520Y-37901880D01*
D29*
X68140832Y-44739560D02*
X69466712Y-43413680D01*
X66868040Y-44739560D02*
X68140832Y-44739560D01*
X78633320Y-44038920D02*
X78633320Y-47238920D01*
X78008080Y-43413680D02*
X78633320Y-44038920D01*
X69466712Y-43413680D02*
X78008080Y-43413680D01*
X97917000Y-64292480D02*
X102768400Y-64292480D01*
D30*
X97193201Y-48135641D02*
X97193201Y-46880881D01*
X97993200Y-48935640D02*
X97193201Y-48135641D01*
X92603320Y-42291000D02*
X90373200Y-42291000D01*
X97193201Y-46880881D02*
X92603320Y-42291000D01*
X87848440Y-39766240D02*
X90373200Y-42291000D01*
X87848440Y-36642040D02*
X87848440Y-39766240D01*
X86375240Y-42291000D02*
X84815680Y-43850560D01*
X90373200Y-42291000D02*
X86375240Y-42291000D01*
X83247430Y-43413680D02*
X78008080Y-43413680D01*
X83684310Y-43850560D02*
X83247430Y-43413680D01*
X84815680Y-43850560D02*
X83684310Y-43850560D01*
D28*
X48508920Y-90030160D02*
X55793640Y-97314880D01*
X48508920Y-76621640D02*
X48508920Y-90030160D01*
X55793640Y-97314880D02*
X55793640Y-103814880D01*
X55793640Y-105229093D02*
X59367987Y-108803440D01*
X55793640Y-103814880D02*
X55793640Y-105229093D01*
X74193400Y-108803440D02*
X77825600Y-105171240D01*
D30*
X79390240Y-105171240D02*
X79415640Y-105196640D01*
X77825600Y-105171240D02*
X79390240Y-105171240D01*
X66812160Y-103674880D02*
X66812160Y-108803440D01*
X66812160Y-101274880D02*
X66812160Y-103674880D01*
D28*
X59367987Y-108803440D02*
X66812160Y-108803440D01*
X66812160Y-108803440D02*
X74193400Y-108803440D01*
D30*
X69212160Y-101274880D02*
X71653400Y-98833640D01*
X66812160Y-101274880D02*
X69212160Y-101274880D01*
X71531480Y-98711720D02*
X71531480Y-93888560D01*
X71653400Y-98833640D02*
X71531480Y-98711720D01*
X78607920Y-93888560D02*
X78673960Y-93954600D01*
X71531480Y-93888560D02*
X78607920Y-93888560D01*
D29*
X80084920Y-71912480D02*
X77464920Y-69292480D01*
X90297000Y-79197200D02*
X90297000Y-71912480D01*
X66868040Y-47279560D02*
X64333120Y-47279560D01*
X64333120Y-47279560D02*
X63042800Y-45989240D01*
X63042800Y-45989240D02*
X63042800Y-42265600D01*
X63042800Y-42265600D02*
X65628520Y-39679880D01*
X73508880Y-39679880D02*
X79603600Y-33585160D01*
X65628520Y-39679880D02*
X73508880Y-39679880D01*
X66908680Y-47238920D02*
X66868040Y-47279560D01*
X73633320Y-47238920D02*
X66908680Y-47238920D01*
X99847400Y-88747600D02*
X102768400Y-88747600D01*
X90297000Y-79197200D02*
X99847400Y-88747600D01*
X90297000Y-71912480D02*
X86649560Y-71912480D01*
X86649560Y-71912480D02*
X80084920Y-71912480D01*
D30*
X73633320Y-48935976D02*
X74157840Y-49460496D01*
X73633320Y-47238920D02*
X73633320Y-48935976D01*
X74157840Y-68459360D02*
X73324720Y-69292480D01*
X74157840Y-49460496D02*
X74157840Y-68459360D01*
D28*
X62814200Y-69292480D02*
X73324720Y-69292480D01*
X73324720Y-69292480D02*
X77464920Y-69292480D01*
D30*
X99691840Y-44109640D02*
X97873200Y-42291000D01*
X103799640Y-44109640D02*
X99691840Y-44109640D01*
X55793640Y-88312000D02*
X57906920Y-86198720D01*
X55793640Y-97314880D02*
X55793640Y-88312000D01*
X96873201Y-41291001D02*
X96873201Y-41242121D01*
X97873200Y-42291000D02*
X96873201Y-41291001D01*
X96873201Y-41242121D02*
X92618560Y-36987480D01*
X92618560Y-36987480D02*
X92618560Y-34884360D01*
X91319360Y-33585160D02*
X79603600Y-33585160D01*
X92618560Y-34884360D02*
X91319360Y-33585160D01*
D29*
X79161976Y-69292480D02*
X77464920Y-69292480D01*
X90373200Y-56555640D02*
X90373200Y-58081256D01*
X90373200Y-58081256D02*
X79161976Y-69292480D01*
D28*
X48508920Y-73853040D02*
X53106320Y-69255640D01*
X48508920Y-76621640D02*
X48508920Y-73853040D01*
X62777360Y-69255640D02*
X62814200Y-69292480D01*
X53106320Y-69255640D02*
X62777360Y-69255640D01*
D29*
X63200280Y-64292480D02*
X70937120Y-56555640D01*
X62814200Y-64292480D02*
X63200280Y-64292480D01*
D28*
X70337680Y-34117280D02*
X70337680Y-27584400D01*
X78602840Y-27584400D02*
X79603600Y-28585160D01*
X70337680Y-27584400D02*
X78602840Y-27584400D01*
D32*
X87404320Y-24558130D02*
X87487760Y-24558130D01*
X83377290Y-28585160D02*
X87404320Y-24558130D01*
X79603600Y-28585160D02*
X83377290Y-28585160D01*
X87404320Y-24558130D02*
X105693730Y-24558130D01*
D30*
X87487760Y-24558130D02*
X105693730Y-24558130D01*
D32*
X114411760Y-24558130D02*
X114411760Y-26045160D01*
D30*
X114411760Y-26045160D02*
X114411760Y-28056840D01*
X105693730Y-24823810D02*
X105693730Y-24558130D01*
D32*
X107050840Y-24558130D02*
X114411760Y-24558130D01*
X105693730Y-24558130D02*
X107050840Y-24558130D01*
X83460730Y-28585160D02*
X87487760Y-24558130D01*
X79603600Y-28585160D02*
X83460730Y-28585160D01*
D28*
X138831320Y-50317400D02*
X131612640Y-50317400D01*
X125105160Y-60685680D02*
X116022120Y-69768720D01*
X116022120Y-69768720D02*
X116022120Y-78389480D01*
X116946680Y-79314040D02*
X125105160Y-79314040D01*
X116022120Y-78389480D02*
X116946680Y-79314040D01*
X131612640Y-54178200D02*
X125105160Y-60685680D01*
X131612640Y-50317400D02*
X131612640Y-54178200D01*
X116022120Y-95831720D02*
X116022120Y-78389480D01*
X112179160Y-99674680D02*
X116022120Y-95831720D01*
X107579160Y-99674680D02*
X112179160Y-99674680D01*
X107579160Y-99674680D02*
X107579160Y-106131360D01*
D30*
X66812160Y-93888560D02*
X66812160Y-98734880D01*
D29*
X66857880Y-49809400D02*
X66868040Y-49819560D01*
X58252360Y-49809400D02*
X66857880Y-49809400D01*
D28*
X52882800Y-36332160D02*
X55097680Y-34117280D01*
X48549560Y-36332160D02*
X52882800Y-36332160D01*
X55097680Y-34117280D02*
X55097680Y-27584400D01*
X53075840Y-36139120D02*
X55097680Y-34117280D01*
X53075840Y-39639240D02*
X53075840Y-36139120D01*
X53086000Y-39649400D02*
X53075840Y-39639240D01*
X58252360Y-39649400D02*
X53086000Y-39649400D01*
X48539400Y-36342320D02*
X48549560Y-36332160D01*
X48539400Y-40101520D02*
X48539400Y-36342320D01*
D30*
X102768400Y-83058000D02*
X102768400Y-86207600D01*
X84495640Y-105196640D02*
X84495640Y-102446960D01*
X91778960Y-95163640D02*
X99862640Y-95163640D01*
X99862640Y-95163640D02*
X103251000Y-91775280D01*
X103251000Y-91775280D02*
X104703880Y-91775280D01*
X104703880Y-91775280D02*
X106644440Y-89834720D01*
X106644440Y-80868520D02*
X102768400Y-76992480D01*
X106644440Y-89834720D02*
X106644440Y-80868520D01*
X97993200Y-56555640D02*
X103611680Y-56555640D01*
X103611680Y-56555640D02*
X106299000Y-59242960D01*
X102768400Y-76992480D02*
X102768400Y-77718920D01*
X106299000Y-73461880D02*
X102768400Y-76992480D01*
X106299000Y-59242960D02*
X106299000Y-73461880D01*
X102768400Y-80518000D02*
X102768400Y-77718920D01*
X60606920Y-81198720D02*
X67840840Y-88432640D01*
X57906920Y-81198720D02*
X60606920Y-81198720D01*
X67840840Y-88432640D02*
X83007200Y-88432640D01*
X87223600Y-92649040D02*
X87223600Y-99719000D01*
X83007200Y-88432640D02*
X87223600Y-92649040D01*
X84495640Y-102446960D02*
X87223600Y-99719000D01*
X87223600Y-99719000D02*
X91778960Y-95163640D01*
X117043200Y-41564560D02*
X121859040Y-41564560D01*
X121859040Y-41564560D02*
X124475240Y-41564560D01*
X124475240Y-41564560D02*
X125608080Y-40431720D01*
X125608080Y-40431720D02*
X125608080Y-36449000D01*
X125608080Y-36449000D02*
X124587000Y-35427920D01*
X124541280Y-35473640D02*
X121859040Y-35473640D01*
X124587000Y-35427920D02*
X124541280Y-35473640D01*
D29*
X71531480Y-81188560D02*
X71531480Y-76763880D01*
D30*
X78673960Y-81254600D02*
X83748880Y-81254600D01*
D29*
X95123000Y-91897200D02*
X95138240Y-91881960D01*
X90297000Y-91897200D02*
X95123000Y-91897200D01*
X96785630Y-66832480D02*
X97917000Y-66832480D01*
X93968370Y-66832480D02*
X96785630Y-66832480D01*
X91428370Y-69372480D02*
X93968370Y-66832480D01*
X90297000Y-69372480D02*
X91428370Y-69372480D01*
X93968370Y-76880720D02*
X93968370Y-66832480D01*
X95138240Y-78050590D02*
X93968370Y-76880720D01*
X95138240Y-79181960D02*
X95138240Y-78050590D01*
X53075840Y-52339240D02*
X53075840Y-56525160D01*
X53106320Y-56555640D02*
X53075840Y-56525160D01*
X58237120Y-56555640D02*
X53106320Y-56555640D01*
D30*
X98861880Y-51475640D02*
X97993200Y-51475640D01*
X102829360Y-47508160D02*
X98861880Y-51475640D01*
X95737680Y-51475640D02*
X97993200Y-51475640D01*
X94858840Y-48808640D02*
X94858840Y-50596800D01*
X92171520Y-46121320D02*
X94858840Y-48808640D01*
X88962297Y-46121320D02*
X92171520Y-46121320D01*
X94858840Y-50596800D02*
X95737680Y-51475640D01*
X77464920Y-61592480D02*
X81823560Y-56631840D01*
X77464920Y-64292480D02*
X77464920Y-61592480D01*
X81823560Y-56631840D02*
X81823560Y-51734720D01*
X81823560Y-51734720D02*
X87071200Y-46141640D01*
X87071200Y-46141640D02*
X88916577Y-46167040D01*
X88916577Y-46167040D02*
X88962297Y-46121320D01*
D28*
X60293640Y-97314880D02*
X60293640Y-103814880D01*
D30*
X88073200Y-48935640D02*
X90373200Y-48935640D01*
X84815680Y-52193160D02*
X88073200Y-48935640D01*
X84815680Y-56550560D02*
X84815680Y-52193160D01*
D31*
X110205520Y-51694080D02*
X112872520Y-54361080D01*
X103799640Y-39029640D02*
X110205520Y-39029640D01*
X110205520Y-39029640D02*
X110205520Y-51694080D01*
D30*
X103891080Y-41661080D02*
X103799640Y-41569640D01*
X108153200Y-41661080D02*
X103891080Y-41661080D01*
X107807760Y-54015640D02*
X108153200Y-54361080D01*
X97993200Y-54015640D02*
X107807760Y-54015640D01*
X111658400Y-28270200D02*
X111871760Y-28056840D01*
X111658400Y-31760160D02*
X111658400Y-28270200D01*
D31*
X103835200Y-31760160D02*
X103799640Y-31795720D01*
X111658400Y-31760160D02*
X103835200Y-31760160D01*
X121859040Y-39024560D02*
X117043200Y-39024560D01*
X104931010Y-34335720D02*
X103799640Y-34335720D01*
X114314360Y-34335720D02*
X104931010Y-34335720D01*
X117043200Y-37064560D02*
X114314360Y-34335720D01*
X117043200Y-39024560D02*
X117043200Y-37064560D01*
D33*
G36*
X82596498Y-26700160D02*
X80737945Y-26700160D01*
X80261204Y-26223419D01*
X80142089Y-26045151D01*
X79435876Y-25573274D01*
X78813119Y-25449400D01*
X78813115Y-25449400D01*
X78602840Y-25407574D01*
X78392565Y-25449400D01*
X72279965Y-25449400D01*
X72185445Y-25386243D01*
X71937680Y-25336960D01*
X68737680Y-25336960D01*
X68489915Y-25386243D01*
X68279871Y-25526591D01*
X68139523Y-25736635D01*
X68090240Y-25984400D01*
X68090240Y-29184400D01*
X68139523Y-29432165D01*
X68202681Y-29526686D01*
X68202680Y-32174994D01*
X68139523Y-32269515D01*
X68090240Y-32517280D01*
X68090240Y-35717280D01*
X68139523Y-35965045D01*
X68279871Y-36175089D01*
X68489915Y-36315437D01*
X68737680Y-36364720D01*
X71937680Y-36364720D01*
X72185445Y-36315437D01*
X72395489Y-36175089D01*
X72535837Y-35965045D01*
X72585120Y-35717280D01*
X72585120Y-32517280D01*
X72535837Y-32269515D01*
X72472680Y-32174995D01*
X72472680Y-29719400D01*
X77718495Y-29719400D01*
X77756160Y-29757065D01*
X77756160Y-29785160D01*
X77805443Y-30032925D01*
X77945791Y-30242969D01*
X78155835Y-30383317D01*
X78403600Y-30432600D01*
X78525592Y-30432600D01*
X78770564Y-30596285D01*
X79603599Y-30761986D01*
X80436635Y-30596285D01*
X80625394Y-30470160D01*
X83191640Y-30470160D01*
X83377290Y-30507088D01*
X83419010Y-30498789D01*
X83460730Y-30507088D01*
X83646380Y-30470160D01*
X83646385Y-30470160D01*
X84196220Y-30360791D01*
X84819739Y-29944169D01*
X84924905Y-29786777D01*
X88268552Y-26443130D01*
X111045919Y-26443130D01*
X110872820Y-26558791D01*
X110566582Y-27017109D01*
X110486190Y-27421268D01*
X110486190Y-27531604D01*
X110353759Y-27729801D01*
X110246267Y-28270200D01*
X110273401Y-28406612D01*
X110273400Y-30086883D01*
X110100591Y-30202351D01*
X109960243Y-30412395D01*
X109937813Y-30525160D01*
X104482072Y-30525160D01*
X104085079Y-30360720D01*
X103514201Y-30360720D01*
X102986778Y-30579186D01*
X102583106Y-30982858D01*
X102364640Y-31510281D01*
X102364640Y-32081159D01*
X102583106Y-32608582D01*
X102986778Y-33012254D01*
X103116808Y-33066114D01*
X102765063Y-33301143D01*
X102447900Y-33775811D01*
X102336527Y-34335720D01*
X102447900Y-34895629D01*
X102765063Y-35370297D01*
X102820053Y-35407040D01*
X99729027Y-35407040D01*
X99706597Y-35294275D01*
X99566249Y-35084231D01*
X99356205Y-34943883D01*
X99108440Y-34894600D01*
X96908440Y-34894600D01*
X96660675Y-34943883D01*
X96450631Y-35084231D01*
X96310283Y-35294275D01*
X96261000Y-35542040D01*
X96261000Y-37742040D01*
X96310283Y-37989805D01*
X96450631Y-38199849D01*
X96660675Y-38340197D01*
X96908440Y-38389480D01*
X99108440Y-38389480D01*
X99356205Y-38340197D01*
X99566249Y-38199849D01*
X99706597Y-37989805D01*
X99729027Y-37877040D01*
X102979412Y-37877040D01*
X102617016Y-38239436D01*
X102404640Y-38752157D01*
X102404640Y-39307123D01*
X102617016Y-39819844D01*
X103009436Y-40212264D01*
X103212366Y-40296320D01*
X103186222Y-40313789D01*
X103009436Y-40387016D01*
X102874128Y-40522324D01*
X102801112Y-40571112D01*
X102752324Y-40644128D01*
X102617016Y-40779436D01*
X102543789Y-40956222D01*
X102494999Y-41029241D01*
X102477866Y-41115373D01*
X102404640Y-41292157D01*
X102404640Y-41483507D01*
X102387507Y-41569640D01*
X102404640Y-41655773D01*
X102404640Y-41847123D01*
X102477866Y-42023907D01*
X102494999Y-42110039D01*
X102543789Y-42183058D01*
X102617016Y-42359844D01*
X102843760Y-42586588D01*
X102892551Y-42659609D01*
X102965572Y-42708400D01*
X102972689Y-42715517D01*
X102926825Y-42724640D01*
X100265525Y-42724640D01*
X99508200Y-41967315D01*
X99508200Y-41965778D01*
X99259286Y-41364847D01*
X98799353Y-40904914D01*
X98198422Y-40656000D01*
X98196885Y-40656000D01*
X98047426Y-40506541D01*
X98024531Y-40472276D01*
X97948998Y-40359232D01*
X97948997Y-40359231D01*
X97871730Y-40243593D01*
X97756092Y-40166326D01*
X94003560Y-36413795D01*
X94003560Y-35020765D01*
X94030693Y-34884359D01*
X93979024Y-34624604D01*
X93923201Y-34343960D01*
X93617089Y-33885831D01*
X93501448Y-33808562D01*
X92395159Y-32702274D01*
X92317889Y-32586631D01*
X91859760Y-32280519D01*
X91455767Y-32200160D01*
X91319360Y-32173027D01*
X91182953Y-32200160D01*
X80813682Y-32200160D01*
X80643044Y-32029522D01*
X79968604Y-31750160D01*
X79238596Y-31750160D01*
X78564156Y-32029522D01*
X78047962Y-32545716D01*
X77847962Y-33028559D01*
X72831642Y-38044880D01*
X65789545Y-38044880D01*
X65628519Y-38012850D01*
X65467493Y-38044880D01*
X65467489Y-38044880D01*
X64990575Y-38139744D01*
X64449751Y-38501111D01*
X64358534Y-38637627D01*
X62000548Y-40995614D01*
X61864032Y-41086831D01*
X61772815Y-41223347D01*
X61502665Y-41627655D01*
X61375769Y-42265600D01*
X61407801Y-42426634D01*
X61407800Y-45828210D01*
X61375769Y-45989240D01*
X61407800Y-46150270D01*
X61502664Y-46627184D01*
X61864031Y-47168009D01*
X62000550Y-47259228D01*
X62915721Y-48174400D01*
X59694645Y-48174400D01*
X59600125Y-48111243D01*
X59352360Y-48061960D01*
X57152360Y-48061960D01*
X56904595Y-48111243D01*
X56694551Y-48251591D01*
X56554203Y-48461635D01*
X56504920Y-48709400D01*
X56504920Y-50909400D01*
X56554203Y-51157165D01*
X56694551Y-51367209D01*
X56904595Y-51507557D01*
X57152360Y-51556840D01*
X59352360Y-51556840D01*
X59600125Y-51507557D01*
X59694645Y-51444400D01*
X66655936Y-51444400D01*
X66868039Y-51486590D01*
X67469260Y-51367000D01*
X67768040Y-51367000D01*
X68015805Y-51317717D01*
X68225849Y-51177369D01*
X68366197Y-50967325D01*
X68415480Y-50719560D01*
X68415480Y-50420780D01*
X68535070Y-49819559D01*
X68415480Y-49218340D01*
X68415480Y-48919560D01*
X68406402Y-48873920D01*
X72233531Y-48873920D01*
X72221187Y-48935976D01*
X72328679Y-49476375D01*
X72557299Y-49818529D01*
X72634792Y-49934505D01*
X72750433Y-50011774D01*
X72772840Y-50034181D01*
X72772841Y-67157480D01*
X63172846Y-67157480D01*
X62987639Y-67120640D01*
X62987635Y-67120640D01*
X62777360Y-67078814D01*
X62567085Y-67120640D01*
X53316593Y-67120640D01*
X53106319Y-67078814D01*
X52896046Y-67120640D01*
X52896041Y-67120640D01*
X52273284Y-67244514D01*
X51567071Y-67716391D01*
X51447958Y-67894656D01*
X47147937Y-72194678D01*
X46969672Y-72313791D01*
X46850559Y-72492056D01*
X46850558Y-72492057D01*
X46497794Y-73020005D01*
X46465479Y-73182466D01*
X46373920Y-73642761D01*
X46373920Y-73642765D01*
X46332094Y-73853040D01*
X46373920Y-74063315D01*
X46373920Y-74984932D01*
X46247946Y-75110906D01*
X45841920Y-76091141D01*
X45841920Y-77152139D01*
X46247946Y-78132374D01*
X46373920Y-78258348D01*
X46373921Y-89819880D01*
X46332094Y-90030160D01*
X46497794Y-90863195D01*
X46762433Y-91259255D01*
X46969672Y-91569409D01*
X47147937Y-91688522D01*
X53658640Y-98199226D01*
X53658641Y-103604597D01*
X53658640Y-103604602D01*
X53658640Y-105018818D01*
X53616814Y-105229093D01*
X53658640Y-105439368D01*
X53658640Y-105439372D01*
X53712798Y-105711639D01*
X53782514Y-106062128D01*
X54117849Y-106563991D01*
X54254392Y-106768342D01*
X54432657Y-106887455D01*
X57709625Y-110164424D01*
X57828738Y-110342689D01*
X58534951Y-110814566D01*
X59157708Y-110938440D01*
X59157711Y-110938440D01*
X59367986Y-110980266D01*
X59578261Y-110938440D01*
X73983125Y-110938440D01*
X74193400Y-110980266D01*
X74403675Y-110938440D01*
X74403679Y-110938440D01*
X75026436Y-110814566D01*
X75732649Y-110342689D01*
X75851764Y-110164421D01*
X78991991Y-107024195D01*
X79415640Y-107108464D01*
X79956261Y-107000928D01*
X79970554Y-106991377D01*
X79890077Y-107395965D01*
X79890076Y-111567394D01*
X79848250Y-111777669D01*
X79890076Y-111987943D01*
X79890076Y-111987947D01*
X80013950Y-112610704D01*
X80181339Y-112861219D01*
X79338312Y-112863437D01*
X45338200Y-112833354D01*
X45338200Y-111070825D01*
X45345041Y-110850201D01*
X45338200Y-110809206D01*
X45338200Y-108350066D01*
X46470094Y-108350066D01*
X46477120Y-108776110D01*
X46477120Y-109202289D01*
X46484440Y-109219960D01*
X46484755Y-109239083D01*
X46796760Y-109992330D01*
X46806467Y-109997402D01*
X46817379Y-110023746D01*
X47446094Y-110652461D01*
X47472438Y-110663373D01*
X47477510Y-110673080D01*
X47873828Y-110829634D01*
X48267551Y-110992720D01*
X48286680Y-110992720D01*
X48304466Y-110999746D01*
X48730510Y-110992720D01*
X49156689Y-110992720D01*
X49174360Y-110985400D01*
X49193483Y-110985085D01*
X49946730Y-110673080D01*
X49951802Y-110663373D01*
X49978146Y-110652461D01*
X50606861Y-110023746D01*
X50617773Y-109997402D01*
X50627480Y-109992330D01*
X50784034Y-109596012D01*
X50947120Y-109202289D01*
X50947120Y-109183160D01*
X50954146Y-109165374D01*
X50947120Y-108739330D01*
X50947120Y-108313151D01*
X50939800Y-108295480D01*
X50939485Y-108276357D01*
X50627480Y-107523110D01*
X50617773Y-107518038D01*
X50606861Y-107491694D01*
X49978146Y-106862979D01*
X49951802Y-106852067D01*
X49946730Y-106842360D01*
X49550412Y-106685806D01*
X49156689Y-106522720D01*
X49137560Y-106522720D01*
X49119774Y-106515694D01*
X48693730Y-106522720D01*
X48267551Y-106522720D01*
X48249880Y-106530040D01*
X48230757Y-106530355D01*
X47477510Y-106842360D01*
X47472438Y-106852067D01*
X47446094Y-106862979D01*
X46817379Y-107491694D01*
X46806467Y-107518038D01*
X46796760Y-107523110D01*
X46640206Y-107919428D01*
X46477120Y-108313151D01*
X46477120Y-108332280D01*
X46470094Y-108350066D01*
X45338200Y-108350066D01*
X45338200Y-63092480D01*
X60966760Y-63092480D01*
X60966760Y-65492480D01*
X61016043Y-65740245D01*
X61156391Y-65950289D01*
X61366435Y-66090637D01*
X61614200Y-66139920D01*
X64014200Y-66139920D01*
X64261965Y-66090637D01*
X64472009Y-65950289D01*
X64612357Y-65740245D01*
X64661640Y-65492480D01*
X64661640Y-65143358D01*
X72207105Y-57597894D01*
X72477255Y-57193586D01*
X72604151Y-56555641D01*
X72477255Y-55917695D01*
X72115888Y-55376872D01*
X71575065Y-55015505D01*
X70937119Y-54888609D01*
X70299174Y-55015505D01*
X69894866Y-55285655D01*
X62735482Y-62445040D01*
X61614200Y-62445040D01*
X61366435Y-62494323D01*
X61156391Y-62634671D01*
X61016043Y-62844715D01*
X60966760Y-63092480D01*
X45338200Y-63092480D01*
X45338200Y-56525160D01*
X51408809Y-56525160D01*
X51535705Y-57163105D01*
X51897072Y-57703929D01*
X51915342Y-57716136D01*
X51927551Y-57734409D01*
X52468375Y-58095776D01*
X52945289Y-58190640D01*
X52945293Y-58190640D01*
X53106319Y-58222670D01*
X53267345Y-58190640D01*
X58398151Y-58190640D01*
X58875065Y-58095776D01*
X59415889Y-57734409D01*
X59777256Y-57193585D01*
X59904151Y-56555640D01*
X59777256Y-55917695D01*
X59415889Y-55376871D01*
X58875065Y-55015504D01*
X58398151Y-54920640D01*
X54710840Y-54920640D01*
X54710840Y-52178209D01*
X54615976Y-51701295D01*
X54254609Y-51160471D01*
X53713784Y-50799104D01*
X53075840Y-50672209D01*
X52437895Y-50799104D01*
X51897071Y-51160471D01*
X51535704Y-51701296D01*
X51440840Y-52178210D01*
X51440841Y-56364126D01*
X51408809Y-56525160D01*
X45338200Y-56525160D01*
X45338200Y-39571021D01*
X45872400Y-39571021D01*
X45872400Y-40632019D01*
X46278426Y-41612254D01*
X47028666Y-42362494D01*
X48008901Y-42768520D01*
X49069899Y-42768520D01*
X50050134Y-42362494D01*
X50800374Y-41612254D01*
X51193026Y-40664307D01*
X51536591Y-41178489D01*
X51542681Y-41182559D01*
X51546751Y-41188649D01*
X52252964Y-41660526D01*
X52875721Y-41784400D01*
X52875726Y-41784400D01*
X53085999Y-41826226D01*
X53296273Y-41784400D01*
X58462639Y-41784400D01*
X59085396Y-41660526D01*
X59791609Y-41188649D01*
X60263486Y-40482436D01*
X60429187Y-39649400D01*
X60263486Y-38816364D01*
X59791609Y-38110151D01*
X59085396Y-37638274D01*
X58462639Y-37514400D01*
X55210840Y-37514400D01*
X55210840Y-37023465D01*
X56096211Y-36138095D01*
X56709025Y-35728625D01*
X57203004Y-34989334D01*
X57376466Y-34117280D01*
X57232680Y-33394418D01*
X57232680Y-28307262D01*
X57376466Y-27584400D01*
X57203004Y-26712346D01*
X56709025Y-25973055D01*
X55969734Y-25479076D01*
X55317808Y-25349400D01*
X54877552Y-25349400D01*
X54225626Y-25479076D01*
X53486335Y-25973055D01*
X52992356Y-26712346D01*
X52818894Y-27584400D01*
X52962681Y-28307267D01*
X52962680Y-33232934D01*
X51998455Y-34197160D01*
X48759833Y-34197160D01*
X48549559Y-34155334D01*
X48339286Y-34197160D01*
X48339281Y-34197160D01*
X47716524Y-34321034D01*
X47010311Y-34792911D01*
X47006241Y-34799003D01*
X47000152Y-34803071D01*
X46881039Y-34981336D01*
X46881038Y-34981337D01*
X46528274Y-35509285D01*
X46362574Y-36342320D01*
X46404401Y-36552599D01*
X46404400Y-38464812D01*
X46278426Y-38590786D01*
X45872400Y-39571021D01*
X45338200Y-39571021D01*
X45338200Y-27318986D01*
X46470094Y-27318986D01*
X46477120Y-27745030D01*
X46477120Y-28171209D01*
X46484440Y-28188880D01*
X46484755Y-28208003D01*
X46796760Y-28961250D01*
X46806467Y-28966322D01*
X46817379Y-28992666D01*
X47446094Y-29621381D01*
X47472438Y-29632293D01*
X47477510Y-29642000D01*
X47873828Y-29798554D01*
X48267551Y-29961640D01*
X48286680Y-29961640D01*
X48304466Y-29968666D01*
X48730510Y-29961640D01*
X49156689Y-29961640D01*
X49174360Y-29954320D01*
X49193483Y-29954005D01*
X49946730Y-29642000D01*
X49951802Y-29632293D01*
X49978146Y-29621381D01*
X50606861Y-28992666D01*
X50617773Y-28966322D01*
X50627480Y-28961250D01*
X50784034Y-28564932D01*
X50947120Y-28171209D01*
X50947120Y-28152080D01*
X50954146Y-28134294D01*
X50947120Y-27708250D01*
X50947120Y-27282071D01*
X50939800Y-27264400D01*
X50939485Y-27245277D01*
X50627480Y-26492030D01*
X50617773Y-26486958D01*
X50606861Y-26460614D01*
X49978146Y-25831899D01*
X49951802Y-25820987D01*
X49946730Y-25811280D01*
X49550412Y-25654726D01*
X49156689Y-25491640D01*
X49137560Y-25491640D01*
X49119774Y-25484614D01*
X48693730Y-25491640D01*
X48267551Y-25491640D01*
X48249880Y-25498960D01*
X48230757Y-25499275D01*
X47477510Y-25811280D01*
X47472438Y-25820987D01*
X47446094Y-25831899D01*
X46817379Y-26460614D01*
X46806467Y-26486958D01*
X46796760Y-26492030D01*
X46640206Y-26888348D01*
X46477120Y-27282071D01*
X46477120Y-27301200D01*
X46470094Y-27318986D01*
X45338200Y-27318986D01*
X45338200Y-23743120D01*
X85553538Y-23743120D01*
X82596498Y-26700160D01*
X82596498Y-26700160D01*
G37*
X82596498Y-26700160D02*
X80737945Y-26700160D01*
X80261204Y-26223419D01*
X80142089Y-26045151D01*
X79435876Y-25573274D01*
X78813119Y-25449400D01*
X78813115Y-25449400D01*
X78602840Y-25407574D01*
X78392565Y-25449400D01*
X72279965Y-25449400D01*
X72185445Y-25386243D01*
X71937680Y-25336960D01*
X68737680Y-25336960D01*
X68489915Y-25386243D01*
X68279871Y-25526591D01*
X68139523Y-25736635D01*
X68090240Y-25984400D01*
X68090240Y-29184400D01*
X68139523Y-29432165D01*
X68202681Y-29526686D01*
X68202680Y-32174994D01*
X68139523Y-32269515D01*
X68090240Y-32517280D01*
X68090240Y-35717280D01*
X68139523Y-35965045D01*
X68279871Y-36175089D01*
X68489915Y-36315437D01*
X68737680Y-36364720D01*
X71937680Y-36364720D01*
X72185445Y-36315437D01*
X72395489Y-36175089D01*
X72535837Y-35965045D01*
X72585120Y-35717280D01*
X72585120Y-32517280D01*
X72535837Y-32269515D01*
X72472680Y-32174995D01*
X72472680Y-29719400D01*
X77718495Y-29719400D01*
X77756160Y-29757065D01*
X77756160Y-29785160D01*
X77805443Y-30032925D01*
X77945791Y-30242969D01*
X78155835Y-30383317D01*
X78403600Y-30432600D01*
X78525592Y-30432600D01*
X78770564Y-30596285D01*
X79603599Y-30761986D01*
X80436635Y-30596285D01*
X80625394Y-30470160D01*
X83191640Y-30470160D01*
X83377290Y-30507088D01*
X83419010Y-30498789D01*
X83460730Y-30507088D01*
X83646380Y-30470160D01*
X83646385Y-30470160D01*
X84196220Y-30360791D01*
X84819739Y-29944169D01*
X84924905Y-29786777D01*
X88268552Y-26443130D01*
X111045919Y-26443130D01*
X110872820Y-26558791D01*
X110566582Y-27017109D01*
X110486190Y-27421268D01*
X110486190Y-27531604D01*
X110353759Y-27729801D01*
X110246267Y-28270200D01*
X110273401Y-28406612D01*
X110273400Y-30086883D01*
X110100591Y-30202351D01*
X109960243Y-30412395D01*
X109937813Y-30525160D01*
X104482072Y-30525160D01*
X104085079Y-30360720D01*
X103514201Y-30360720D01*
X102986778Y-30579186D01*
X102583106Y-30982858D01*
X102364640Y-31510281D01*
X102364640Y-32081159D01*
X102583106Y-32608582D01*
X102986778Y-33012254D01*
X103116808Y-33066114D01*
X102765063Y-33301143D01*
X102447900Y-33775811D01*
X102336527Y-34335720D01*
X102447900Y-34895629D01*
X102765063Y-35370297D01*
X102820053Y-35407040D01*
X99729027Y-35407040D01*
X99706597Y-35294275D01*
X99566249Y-35084231D01*
X99356205Y-34943883D01*
X99108440Y-34894600D01*
X96908440Y-34894600D01*
X96660675Y-34943883D01*
X96450631Y-35084231D01*
X96310283Y-35294275D01*
X96261000Y-35542040D01*
X96261000Y-37742040D01*
X96310283Y-37989805D01*
X96450631Y-38199849D01*
X96660675Y-38340197D01*
X96908440Y-38389480D01*
X99108440Y-38389480D01*
X99356205Y-38340197D01*
X99566249Y-38199849D01*
X99706597Y-37989805D01*
X99729027Y-37877040D01*
X102979412Y-37877040D01*
X102617016Y-38239436D01*
X102404640Y-38752157D01*
X102404640Y-39307123D01*
X102617016Y-39819844D01*
X103009436Y-40212264D01*
X103212366Y-40296320D01*
X103186222Y-40313789D01*
X103009436Y-40387016D01*
X102874128Y-40522324D01*
X102801112Y-40571112D01*
X102752324Y-40644128D01*
X102617016Y-40779436D01*
X102543789Y-40956222D01*
X102494999Y-41029241D01*
X102477866Y-41115373D01*
X102404640Y-41292157D01*
X102404640Y-41483507D01*
X102387507Y-41569640D01*
X102404640Y-41655773D01*
X102404640Y-41847123D01*
X102477866Y-42023907D01*
X102494999Y-42110039D01*
X102543789Y-42183058D01*
X102617016Y-42359844D01*
X102843760Y-42586588D01*
X102892551Y-42659609D01*
X102965572Y-42708400D01*
X102972689Y-42715517D01*
X102926825Y-42724640D01*
X100265525Y-42724640D01*
X99508200Y-41967315D01*
X99508200Y-41965778D01*
X99259286Y-41364847D01*
X98799353Y-40904914D01*
X98198422Y-40656000D01*
X98196885Y-40656000D01*
X98047426Y-40506541D01*
X98024531Y-40472276D01*
X97948998Y-40359232D01*
X97948997Y-40359231D01*
X97871730Y-40243593D01*
X97756092Y-40166326D01*
X94003560Y-36413795D01*
X94003560Y-35020765D01*
X94030693Y-34884359D01*
X93979024Y-34624604D01*
X93923201Y-34343960D01*
X93617089Y-33885831D01*
X93501448Y-33808562D01*
X92395159Y-32702274D01*
X92317889Y-32586631D01*
X91859760Y-32280519D01*
X91455767Y-32200160D01*
X91319360Y-32173027D01*
X91182953Y-32200160D01*
X80813682Y-32200160D01*
X80643044Y-32029522D01*
X79968604Y-31750160D01*
X79238596Y-31750160D01*
X78564156Y-32029522D01*
X78047962Y-32545716D01*
X77847962Y-33028559D01*
X72831642Y-38044880D01*
X65789545Y-38044880D01*
X65628519Y-38012850D01*
X65467493Y-38044880D01*
X65467489Y-38044880D01*
X64990575Y-38139744D01*
X64449751Y-38501111D01*
X64358534Y-38637627D01*
X62000548Y-40995614D01*
X61864032Y-41086831D01*
X61772815Y-41223347D01*
X61502665Y-41627655D01*
X61375769Y-42265600D01*
X61407801Y-42426634D01*
X61407800Y-45828210D01*
X61375769Y-45989240D01*
X61407800Y-46150270D01*
X61502664Y-46627184D01*
X61864031Y-47168009D01*
X62000550Y-47259228D01*
X62915721Y-48174400D01*
X59694645Y-48174400D01*
X59600125Y-48111243D01*
X59352360Y-48061960D01*
X57152360Y-48061960D01*
X56904595Y-48111243D01*
X56694551Y-48251591D01*
X56554203Y-48461635D01*
X56504920Y-48709400D01*
X56504920Y-50909400D01*
X56554203Y-51157165D01*
X56694551Y-51367209D01*
X56904595Y-51507557D01*
X57152360Y-51556840D01*
X59352360Y-51556840D01*
X59600125Y-51507557D01*
X59694645Y-51444400D01*
X66655936Y-51444400D01*
X66868039Y-51486590D01*
X67469260Y-51367000D01*
X67768040Y-51367000D01*
X68015805Y-51317717D01*
X68225849Y-51177369D01*
X68366197Y-50967325D01*
X68415480Y-50719560D01*
X68415480Y-50420780D01*
X68535070Y-49819559D01*
X68415480Y-49218340D01*
X68415480Y-48919560D01*
X68406402Y-48873920D01*
X72233531Y-48873920D01*
X72221187Y-48935976D01*
X72328679Y-49476375D01*
X72557299Y-49818529D01*
X72634792Y-49934505D01*
X72750433Y-50011774D01*
X72772840Y-50034181D01*
X72772841Y-67157480D01*
X63172846Y-67157480D01*
X62987639Y-67120640D01*
X62987635Y-67120640D01*
X62777360Y-67078814D01*
X62567085Y-67120640D01*
X53316593Y-67120640D01*
X53106319Y-67078814D01*
X52896046Y-67120640D01*
X52896041Y-67120640D01*
X52273284Y-67244514D01*
X51567071Y-67716391D01*
X51447958Y-67894656D01*
X47147937Y-72194678D01*
X46969672Y-72313791D01*
X46850559Y-72492056D01*
X46850558Y-72492057D01*
X46497794Y-73020005D01*
X46465479Y-73182466D01*
X46373920Y-73642761D01*
X46373920Y-73642765D01*
X46332094Y-73853040D01*
X46373920Y-74063315D01*
X46373920Y-74984932D01*
X46247946Y-75110906D01*
X45841920Y-76091141D01*
X45841920Y-77152139D01*
X46247946Y-78132374D01*
X46373920Y-78258348D01*
X46373921Y-89819880D01*
X46332094Y-90030160D01*
X46497794Y-90863195D01*
X46762433Y-91259255D01*
X46969672Y-91569409D01*
X47147937Y-91688522D01*
X53658640Y-98199226D01*
X53658641Y-103604597D01*
X53658640Y-103604602D01*
X53658640Y-105018818D01*
X53616814Y-105229093D01*
X53658640Y-105439368D01*
X53658640Y-105439372D01*
X53712798Y-105711639D01*
X53782514Y-106062128D01*
X54117849Y-106563991D01*
X54254392Y-106768342D01*
X54432657Y-106887455D01*
X57709625Y-110164424D01*
X57828738Y-110342689D01*
X58534951Y-110814566D01*
X59157708Y-110938440D01*
X59157711Y-110938440D01*
X59367986Y-110980266D01*
X59578261Y-110938440D01*
X73983125Y-110938440D01*
X74193400Y-110980266D01*
X74403675Y-110938440D01*
X74403679Y-110938440D01*
X75026436Y-110814566D01*
X75732649Y-110342689D01*
X75851764Y-110164421D01*
X78991991Y-107024195D01*
X79415640Y-107108464D01*
X79956261Y-107000928D01*
X79970554Y-106991377D01*
X79890077Y-107395965D01*
X79890076Y-111567394D01*
X79848250Y-111777669D01*
X79890076Y-111987943D01*
X79890076Y-111987947D01*
X80013950Y-112610704D01*
X80181339Y-112861219D01*
X79338312Y-112863437D01*
X45338200Y-112833354D01*
X45338200Y-111070825D01*
X45345041Y-110850201D01*
X45338200Y-110809206D01*
X45338200Y-108350066D01*
X46470094Y-108350066D01*
X46477120Y-108776110D01*
X46477120Y-109202289D01*
X46484440Y-109219960D01*
X46484755Y-109239083D01*
X46796760Y-109992330D01*
X46806467Y-109997402D01*
X46817379Y-110023746D01*
X47446094Y-110652461D01*
X47472438Y-110663373D01*
X47477510Y-110673080D01*
X47873828Y-110829634D01*
X48267551Y-110992720D01*
X48286680Y-110992720D01*
X48304466Y-110999746D01*
X48730510Y-110992720D01*
X49156689Y-110992720D01*
X49174360Y-110985400D01*
X49193483Y-110985085D01*
X49946730Y-110673080D01*
X49951802Y-110663373D01*
X49978146Y-110652461D01*
X50606861Y-110023746D01*
X50617773Y-109997402D01*
X50627480Y-109992330D01*
X50784034Y-109596012D01*
X50947120Y-109202289D01*
X50947120Y-109183160D01*
X50954146Y-109165374D01*
X50947120Y-108739330D01*
X50947120Y-108313151D01*
X50939800Y-108295480D01*
X50939485Y-108276357D01*
X50627480Y-107523110D01*
X50617773Y-107518038D01*
X50606861Y-107491694D01*
X49978146Y-106862979D01*
X49951802Y-106852067D01*
X49946730Y-106842360D01*
X49550412Y-106685806D01*
X49156689Y-106522720D01*
X49137560Y-106522720D01*
X49119774Y-106515694D01*
X48693730Y-106522720D01*
X48267551Y-106522720D01*
X48249880Y-106530040D01*
X48230757Y-106530355D01*
X47477510Y-106842360D01*
X47472438Y-106852067D01*
X47446094Y-106862979D01*
X46817379Y-107491694D01*
X46806467Y-107518038D01*
X46796760Y-107523110D01*
X46640206Y-107919428D01*
X46477120Y-108313151D01*
X46477120Y-108332280D01*
X46470094Y-108350066D01*
X45338200Y-108350066D01*
X45338200Y-63092480D01*
X60966760Y-63092480D01*
X60966760Y-65492480D01*
X61016043Y-65740245D01*
X61156391Y-65950289D01*
X61366435Y-66090637D01*
X61614200Y-66139920D01*
X64014200Y-66139920D01*
X64261965Y-66090637D01*
X64472009Y-65950289D01*
X64612357Y-65740245D01*
X64661640Y-65492480D01*
X64661640Y-65143358D01*
X72207105Y-57597894D01*
X72477255Y-57193586D01*
X72604151Y-56555641D01*
X72477255Y-55917695D01*
X72115888Y-55376872D01*
X71575065Y-55015505D01*
X70937119Y-54888609D01*
X70299174Y-55015505D01*
X69894866Y-55285655D01*
X62735482Y-62445040D01*
X61614200Y-62445040D01*
X61366435Y-62494323D01*
X61156391Y-62634671D01*
X61016043Y-62844715D01*
X60966760Y-63092480D01*
X45338200Y-63092480D01*
X45338200Y-56525160D01*
X51408809Y-56525160D01*
X51535705Y-57163105D01*
X51897072Y-57703929D01*
X51915342Y-57716136D01*
X51927551Y-57734409D01*
X52468375Y-58095776D01*
X52945289Y-58190640D01*
X52945293Y-58190640D01*
X53106319Y-58222670D01*
X53267345Y-58190640D01*
X58398151Y-58190640D01*
X58875065Y-58095776D01*
X59415889Y-57734409D01*
X59777256Y-57193585D01*
X59904151Y-56555640D01*
X59777256Y-55917695D01*
X59415889Y-55376871D01*
X58875065Y-55015504D01*
X58398151Y-54920640D01*
X54710840Y-54920640D01*
X54710840Y-52178209D01*
X54615976Y-51701295D01*
X54254609Y-51160471D01*
X53713784Y-50799104D01*
X53075840Y-50672209D01*
X52437895Y-50799104D01*
X51897071Y-51160471D01*
X51535704Y-51701296D01*
X51440840Y-52178210D01*
X51440841Y-56364126D01*
X51408809Y-56525160D01*
X45338200Y-56525160D01*
X45338200Y-39571021D01*
X45872400Y-39571021D01*
X45872400Y-40632019D01*
X46278426Y-41612254D01*
X47028666Y-42362494D01*
X48008901Y-42768520D01*
X49069899Y-42768520D01*
X50050134Y-42362494D01*
X50800374Y-41612254D01*
X51193026Y-40664307D01*
X51536591Y-41178489D01*
X51542681Y-41182559D01*
X51546751Y-41188649D01*
X52252964Y-41660526D01*
X52875721Y-41784400D01*
X52875726Y-41784400D01*
X53085999Y-41826226D01*
X53296273Y-41784400D01*
X58462639Y-41784400D01*
X59085396Y-41660526D01*
X59791609Y-41188649D01*
X60263486Y-40482436D01*
X60429187Y-39649400D01*
X60263486Y-38816364D01*
X59791609Y-38110151D01*
X59085396Y-37638274D01*
X58462639Y-37514400D01*
X55210840Y-37514400D01*
X55210840Y-37023465D01*
X56096211Y-36138095D01*
X56709025Y-35728625D01*
X57203004Y-34989334D01*
X57376466Y-34117280D01*
X57232680Y-33394418D01*
X57232680Y-28307262D01*
X57376466Y-27584400D01*
X57203004Y-26712346D01*
X56709025Y-25973055D01*
X55969734Y-25479076D01*
X55317808Y-25349400D01*
X54877552Y-25349400D01*
X54225626Y-25479076D01*
X53486335Y-25973055D01*
X52992356Y-26712346D01*
X52818894Y-27584400D01*
X52962681Y-28307267D01*
X52962680Y-33232934D01*
X51998455Y-34197160D01*
X48759833Y-34197160D01*
X48549559Y-34155334D01*
X48339286Y-34197160D01*
X48339281Y-34197160D01*
X47716524Y-34321034D01*
X47010311Y-34792911D01*
X47006241Y-34799003D01*
X47000152Y-34803071D01*
X46881039Y-34981336D01*
X46881038Y-34981337D01*
X46528274Y-35509285D01*
X46362574Y-36342320D01*
X46404401Y-36552599D01*
X46404400Y-38464812D01*
X46278426Y-38590786D01*
X45872400Y-39571021D01*
X45338200Y-39571021D01*
X45338200Y-27318986D01*
X46470094Y-27318986D01*
X46477120Y-27745030D01*
X46477120Y-28171209D01*
X46484440Y-28188880D01*
X46484755Y-28208003D01*
X46796760Y-28961250D01*
X46806467Y-28966322D01*
X46817379Y-28992666D01*
X47446094Y-29621381D01*
X47472438Y-29632293D01*
X47477510Y-29642000D01*
X47873828Y-29798554D01*
X48267551Y-29961640D01*
X48286680Y-29961640D01*
X48304466Y-29968666D01*
X48730510Y-29961640D01*
X49156689Y-29961640D01*
X49174360Y-29954320D01*
X49193483Y-29954005D01*
X49946730Y-29642000D01*
X49951802Y-29632293D01*
X49978146Y-29621381D01*
X50606861Y-28992666D01*
X50617773Y-28966322D01*
X50627480Y-28961250D01*
X50784034Y-28564932D01*
X50947120Y-28171209D01*
X50947120Y-28152080D01*
X50954146Y-28134294D01*
X50947120Y-27708250D01*
X50947120Y-27282071D01*
X50939800Y-27264400D01*
X50939485Y-27245277D01*
X50627480Y-26492030D01*
X50617773Y-26486958D01*
X50606861Y-26460614D01*
X49978146Y-25831899D01*
X49951802Y-25820987D01*
X49946730Y-25811280D01*
X49550412Y-25654726D01*
X49156689Y-25491640D01*
X49137560Y-25491640D01*
X49119774Y-25484614D01*
X48693730Y-25491640D01*
X48267551Y-25491640D01*
X48249880Y-25498960D01*
X48230757Y-25499275D01*
X47477510Y-25811280D01*
X47472438Y-25820987D01*
X47446094Y-25831899D01*
X46817379Y-26460614D01*
X46806467Y-26486958D01*
X46796760Y-26492030D01*
X46640206Y-26888348D01*
X46477120Y-27282071D01*
X46477120Y-27301200D01*
X46470094Y-27318986D01*
X45338200Y-27318986D01*
X45338200Y-23743120D01*
X85553538Y-23743120D01*
X82596498Y-26700160D01*
G36*
X50940840Y-38929901D02*
X50800374Y-38590786D01*
X50676748Y-38467160D01*
X50940840Y-38467160D01*
X50940840Y-38929901D01*
X50940840Y-38929901D01*
G37*
X50940840Y-38929901D02*
X50800374Y-38590786D01*
X50676748Y-38467160D01*
X50940840Y-38467160D01*
X50940840Y-38929901D01*
G36*
X141534680Y-48502714D02*
X141407131Y-112700133D01*
X119211334Y-112758531D01*
X123703506Y-108266360D01*
X124825335Y-108266360D01*
X125699520Y-109140546D01*
X125699520Y-109318699D01*
X126105546Y-110298934D01*
X126855786Y-111049174D01*
X127836021Y-111455200D01*
X128897019Y-111455200D01*
X129877254Y-111049174D01*
X130627494Y-110298934D01*
X131033520Y-109318699D01*
X131033520Y-108522786D01*
X135492014Y-108522786D01*
X135499040Y-108948830D01*
X135499040Y-109375009D01*
X135506360Y-109392680D01*
X135506675Y-109411803D01*
X135818680Y-110165050D01*
X135828387Y-110170122D01*
X135839299Y-110196466D01*
X136468014Y-110825181D01*
X136494358Y-110836093D01*
X136499430Y-110845800D01*
X136895748Y-111002354D01*
X137289471Y-111165440D01*
X137308600Y-111165440D01*
X137326386Y-111172466D01*
X137752430Y-111165440D01*
X138178609Y-111165440D01*
X138196280Y-111158120D01*
X138215403Y-111157805D01*
X138968650Y-110845800D01*
X138973722Y-110836093D01*
X139000066Y-110825181D01*
X139628781Y-110196466D01*
X139639693Y-110170122D01*
X139649400Y-110165050D01*
X139805954Y-109768732D01*
X139969040Y-109375009D01*
X139969040Y-109355880D01*
X139976066Y-109338094D01*
X139969040Y-108912050D01*
X139969040Y-108485871D01*
X139961720Y-108468200D01*
X139961405Y-108449077D01*
X139649400Y-107695830D01*
X139639693Y-107690758D01*
X139628781Y-107664414D01*
X139000066Y-107035699D01*
X138973722Y-107024787D01*
X138968650Y-107015080D01*
X138572332Y-106858526D01*
X138178609Y-106695440D01*
X138159480Y-106695440D01*
X138141694Y-106688414D01*
X137715650Y-106695440D01*
X137289471Y-106695440D01*
X137271800Y-106702760D01*
X137252677Y-106703075D01*
X136499430Y-107015080D01*
X136494358Y-107024787D01*
X136468014Y-107035699D01*
X135839299Y-107664414D01*
X135828387Y-107690758D01*
X135818680Y-107695830D01*
X135662126Y-108092148D01*
X135499040Y-108485871D01*
X135499040Y-108505000D01*
X135492014Y-108522786D01*
X131033520Y-108522786D01*
X131033520Y-108257701D01*
X130627494Y-107277466D01*
X130501520Y-107151492D01*
X130501520Y-105432315D01*
X130543346Y-105222040D01*
X130501520Y-105011765D01*
X130501520Y-105011761D01*
X130377646Y-104389004D01*
X129905769Y-103682791D01*
X129727504Y-103563678D01*
X124839976Y-98676151D01*
X124430505Y-98063335D01*
X123691214Y-97569356D01*
X123039288Y-97439680D01*
X122599032Y-97439680D01*
X121947106Y-97569356D01*
X121207815Y-98063335D01*
X120713836Y-98802626D01*
X120540374Y-99674680D01*
X120684160Y-100397543D01*
X120684161Y-105247013D01*
X116288507Y-109642668D01*
X98746440Y-109642668D01*
X98746440Y-103580481D01*
X98622566Y-102957724D01*
X98150689Y-102251511D01*
X97444475Y-101779634D01*
X96611440Y-101613933D01*
X95778404Y-101779634D01*
X95072191Y-102251511D01*
X94600314Y-102957725D01*
X94476440Y-103580482D01*
X94476441Y-109642668D01*
X84160076Y-109642670D01*
X84160076Y-107395965D01*
X84086709Y-107027123D01*
X84495640Y-107108464D01*
X85036261Y-107000928D01*
X85494579Y-106694690D01*
X85800818Y-106236372D01*
X85881210Y-105832213D01*
X85881210Y-104561067D01*
X85880640Y-104558201D01*
X85880640Y-103020645D01*
X88106489Y-100794797D01*
X88222129Y-100717529D01*
X88299399Y-100601886D01*
X91310525Y-97590760D01*
X94764000Y-97590760D01*
X94764000Y-99990760D01*
X94813283Y-100238525D01*
X94953631Y-100448569D01*
X95163675Y-100588917D01*
X95411440Y-100638200D01*
X97811440Y-100638200D01*
X98059205Y-100588917D01*
X98269249Y-100448569D01*
X98409597Y-100238525D01*
X98458880Y-99990760D01*
X98458880Y-98074680D01*
X105331720Y-98074680D01*
X105331720Y-101274680D01*
X105381003Y-101522445D01*
X105444160Y-101616966D01*
X105444161Y-104189074D01*
X105381003Y-104283595D01*
X105331720Y-104531360D01*
X105331720Y-107731360D01*
X105381003Y-107979125D01*
X105521351Y-108189169D01*
X105731395Y-108329517D01*
X105979160Y-108378800D01*
X109179160Y-108378800D01*
X109426925Y-108329517D01*
X109636969Y-108189169D01*
X109777317Y-107979125D01*
X109826600Y-107731360D01*
X109826600Y-104531360D01*
X109777317Y-104283595D01*
X109714160Y-104189075D01*
X109714160Y-101809680D01*
X111968885Y-101809680D01*
X112179160Y-101851506D01*
X112389435Y-101809680D01*
X112389439Y-101809680D01*
X113012196Y-101685806D01*
X113718409Y-101213929D01*
X113837524Y-101035661D01*
X117383104Y-97490082D01*
X117561369Y-97370969D01*
X118033246Y-96664756D01*
X118157120Y-96041999D01*
X118157120Y-96041996D01*
X118198946Y-95831721D01*
X118157120Y-95621446D01*
X118157120Y-81449040D01*
X123896545Y-81449040D01*
X124620808Y-81749040D01*
X125589512Y-81749040D01*
X126484476Y-81378333D01*
X127169453Y-80693356D01*
X127540160Y-79798392D01*
X127540160Y-78829688D01*
X127169453Y-77934724D01*
X126484476Y-77249747D01*
X125589512Y-76879040D01*
X124620808Y-76879040D01*
X123896545Y-77179040D01*
X118157120Y-77179040D01*
X118157120Y-72901328D01*
X122670160Y-72901328D01*
X122670160Y-73870032D01*
X123040867Y-74764996D01*
X123725844Y-75449973D01*
X124620808Y-75820680D01*
X125589512Y-75820680D01*
X126313775Y-75520680D01*
X131520775Y-75520680D01*
X132652641Y-76652547D01*
X132652640Y-83992798D01*
X126766399Y-89879040D01*
X126313775Y-89879040D01*
X125589512Y-89579040D01*
X124620808Y-89579040D01*
X123725844Y-89949747D01*
X123040867Y-90634724D01*
X122670160Y-91529688D01*
X122670160Y-92498392D01*
X123040867Y-93393356D01*
X123725844Y-94078333D01*
X124450109Y-94378334D01*
X129766318Y-99694544D01*
X129885431Y-99872809D01*
X130591644Y-100344686D01*
X131214401Y-100468560D01*
X131214405Y-100468560D01*
X131424680Y-100510386D01*
X131634955Y-100468560D01*
X135518212Y-100468560D01*
X135644186Y-100594534D01*
X136624421Y-101000560D01*
X137685419Y-101000560D01*
X138665654Y-100594534D01*
X139415894Y-99844294D01*
X139821920Y-98864059D01*
X139821920Y-97803061D01*
X139415894Y-96822826D01*
X138665654Y-96072586D01*
X137685419Y-95666560D01*
X136624421Y-95666560D01*
X135644186Y-96072586D01*
X135518212Y-96198560D01*
X132309026Y-96198560D01*
X129397297Y-93286832D01*
X136148624Y-86535506D01*
X136326889Y-86416393D01*
X136798766Y-85710180D01*
X136922640Y-85087423D01*
X136922640Y-85087420D01*
X136964466Y-84877145D01*
X136922640Y-84666870D01*
X136922640Y-75978478D01*
X136964467Y-75768200D01*
X136920537Y-75547346D01*
X136798766Y-74935164D01*
X136326889Y-74228951D01*
X136148624Y-74109838D01*
X133824723Y-71785938D01*
X133705609Y-71607671D01*
X132999395Y-71135794D01*
X132166360Y-70970093D01*
X131333325Y-71135794D01*
X131161386Y-71250680D01*
X126313775Y-71250680D01*
X125589512Y-70950680D01*
X124620808Y-70950680D01*
X123725844Y-71321387D01*
X123040867Y-72006364D01*
X122670160Y-72901328D01*
X118157120Y-72901328D01*
X118157120Y-70653065D01*
X125760213Y-63049973D01*
X126484476Y-62749973D01*
X127169453Y-62064996D01*
X127469454Y-61340731D01*
X132973624Y-55836562D01*
X133151889Y-55717449D01*
X133623766Y-55011236D01*
X133747640Y-54388479D01*
X133747640Y-54388474D01*
X133789466Y-54178201D01*
X133747640Y-53967927D01*
X133747640Y-52452400D01*
X136889035Y-52452400D01*
X136983555Y-52515557D01*
X137231320Y-52564840D01*
X140431320Y-52564840D01*
X140679085Y-52515557D01*
X140889129Y-52375209D01*
X141029477Y-52165165D01*
X141078760Y-51917400D01*
X141078760Y-48717400D01*
X141029477Y-48469635D01*
X140889129Y-48259591D01*
X140679085Y-48119243D01*
X140431320Y-48069960D01*
X137231320Y-48069960D01*
X136983555Y-48119243D01*
X136889035Y-48182400D01*
X133554925Y-48182400D01*
X133460405Y-48119243D01*
X133212640Y-48069960D01*
X130012640Y-48069960D01*
X129764875Y-48119243D01*
X129554831Y-48259591D01*
X129414483Y-48469635D01*
X129365200Y-48717400D01*
X129365200Y-51917400D01*
X129414483Y-52165165D01*
X129477641Y-52259686D01*
X129477641Y-53293853D01*
X124450109Y-58321386D01*
X123725844Y-58621387D01*
X123040867Y-59306364D01*
X122740867Y-60030627D01*
X114661139Y-68110356D01*
X114482871Y-68229471D01*
X114010994Y-68935685D01*
X113887120Y-69558442D01*
X113887120Y-69558445D01*
X113845294Y-69768720D01*
X113887120Y-69978995D01*
X113887121Y-78179200D01*
X113845294Y-78389480D01*
X113887121Y-78599759D01*
X113887120Y-94947374D01*
X111294815Y-97539680D01*
X109521445Y-97539680D01*
X109426925Y-97476523D01*
X109179160Y-97427240D01*
X105979160Y-97427240D01*
X105731395Y-97476523D01*
X105521351Y-97616871D01*
X105381003Y-97826915D01*
X105331720Y-98074680D01*
X98458880Y-98074680D01*
X98458880Y-97590760D01*
X98409597Y-97342995D01*
X98269249Y-97132951D01*
X98059205Y-96992603D01*
X97811440Y-96943320D01*
X95411440Y-96943320D01*
X95163675Y-96992603D01*
X94953631Y-97132951D01*
X94813283Y-97342995D01*
X94764000Y-97590760D01*
X91310525Y-97590760D01*
X92352646Y-96548640D01*
X99726233Y-96548640D01*
X99862640Y-96575773D01*
X99999047Y-96548640D01*
X100403040Y-96468281D01*
X100861169Y-96162169D01*
X100938439Y-96046526D01*
X103824686Y-93160280D01*
X104567473Y-93160280D01*
X104703880Y-93187413D01*
X104840287Y-93160280D01*
X105244280Y-93079921D01*
X105702409Y-92773809D01*
X105779679Y-92658166D01*
X107527330Y-90910516D01*
X107642968Y-90833249D01*
X107720235Y-90717611D01*
X107720237Y-90717609D01*
X107949080Y-90375121D01*
X107949081Y-90375120D01*
X108029440Y-89971127D01*
X108029440Y-89971126D01*
X108056573Y-89834721D01*
X108029440Y-89698315D01*
X108029440Y-81004925D01*
X108056573Y-80868519D01*
X108008860Y-80628651D01*
X107949081Y-80328120D01*
X107642969Y-79869991D01*
X107527325Y-79792720D01*
X104727085Y-76992480D01*
X107181885Y-74537680D01*
X107297529Y-74460409D01*
X107603641Y-74002280D01*
X107684000Y-73598287D01*
X107684000Y-73598283D01*
X107711132Y-73461881D01*
X107684000Y-73325479D01*
X107684000Y-59379361D01*
X107711132Y-59242959D01*
X107684000Y-59106557D01*
X107684000Y-59106553D01*
X107603641Y-58702560D01*
X107297528Y-58244431D01*
X107181887Y-58167162D01*
X104687480Y-55672755D01*
X104610209Y-55557111D01*
X104376034Y-55400640D01*
X107163364Y-55400640D01*
X107340338Y-55577614D01*
X107867761Y-55796080D01*
X108438639Y-55796080D01*
X108966062Y-55577614D01*
X109369734Y-55173942D01*
X109588200Y-54646519D01*
X109588200Y-54075641D01*
X109369734Y-53548218D01*
X108966062Y-53144546D01*
X108862881Y-53101807D01*
X108806289Y-53017111D01*
X108348160Y-52710999D01*
X107944167Y-52630640D01*
X107807760Y-52603507D01*
X107671353Y-52630640D01*
X99626234Y-52630640D01*
X99860409Y-52474169D01*
X99937679Y-52358526D01*
X103531023Y-48765183D01*
X103863937Y-48542737D01*
X104181100Y-48068069D01*
X104292473Y-47508160D01*
X104181100Y-46948251D01*
X103863937Y-46473583D01*
X103389269Y-46156420D01*
X102970693Y-46073160D01*
X102688027Y-46073160D01*
X102269451Y-46156420D01*
X101794783Y-46473583D01*
X101572337Y-46806497D01*
X99454137Y-48924698D01*
X99344940Y-48375731D01*
X99027777Y-47901063D01*
X98694858Y-47678614D01*
X98578201Y-47561957D01*
X98578201Y-47017288D01*
X98605334Y-46880881D01*
X98497842Y-46340481D01*
X98296345Y-46038920D01*
X98191730Y-45882352D01*
X98076089Y-45805083D01*
X93679119Y-41408114D01*
X93601849Y-41292471D01*
X93143720Y-40986359D01*
X92739727Y-40906000D01*
X92603320Y-40878867D01*
X92466913Y-40906000D01*
X91300439Y-40906000D01*
X91299353Y-40904914D01*
X90698422Y-40656000D01*
X90696886Y-40656000D01*
X89233440Y-39192555D01*
X89233440Y-37692158D01*
X89482774Y-37319003D01*
X89617430Y-36642040D01*
X89482774Y-35965077D01*
X89099305Y-35391175D01*
X88525403Y-35007706D01*
X88336646Y-34970160D01*
X90745675Y-34970160D01*
X91233561Y-35458046D01*
X91233560Y-36851073D01*
X91206427Y-36987480D01*
X91251166Y-37212400D01*
X91313919Y-37527879D01*
X91620031Y-37986008D01*
X91735672Y-38063277D01*
X95698977Y-42026583D01*
X95874672Y-42289529D01*
X95990313Y-42366798D01*
X96238200Y-42614685D01*
X96238200Y-42616222D01*
X96487114Y-43217153D01*
X96947047Y-43677086D01*
X97547978Y-43926000D01*
X97549515Y-43926000D01*
X98616040Y-44992525D01*
X98693311Y-45108169D01*
X99151440Y-45414281D01*
X99555433Y-45494640D01*
X99691839Y-45521773D01*
X99828245Y-45494640D01*
X102926825Y-45494640D01*
X103039640Y-45517080D01*
X104559640Y-45517080D01*
X104807405Y-45467797D01*
X105017449Y-45327449D01*
X105157797Y-45117405D01*
X105207080Y-44869640D01*
X105207080Y-44133233D01*
X105211773Y-44109640D01*
X105207080Y-44086047D01*
X105207080Y-43349640D01*
X105157797Y-43101875D01*
X105120516Y-43046080D01*
X107760500Y-43046080D01*
X108011867Y-43096080D01*
X108294533Y-43096080D01*
X108713109Y-43012820D01*
X108970520Y-42840823D01*
X108970521Y-51572443D01*
X108946326Y-51694080D01*
X109042176Y-52175952D01*
X109246234Y-52481347D01*
X109246236Y-52481349D01*
X109315136Y-52584465D01*
X109418252Y-52653365D01*
X111455985Y-54691098D01*
X111655986Y-55173942D01*
X112059658Y-55577614D01*
X112587081Y-55796080D01*
X113157959Y-55796080D01*
X113685382Y-55577614D01*
X114089054Y-55173942D01*
X114307520Y-54646519D01*
X114307520Y-54075641D01*
X114089054Y-53548218D01*
X113685382Y-53144546D01*
X113202538Y-52944545D01*
X111440520Y-51182527D01*
X111440520Y-41817495D01*
X111487521Y-42053784D01*
X111487520Y-45517553D01*
X111460387Y-45653960D01*
X111505817Y-45882352D01*
X111567879Y-46194359D01*
X111873991Y-46652488D01*
X111989632Y-46729757D01*
X117283640Y-52023765D01*
X117283640Y-53112520D01*
X117332923Y-53360285D01*
X117473271Y-53570329D01*
X117683315Y-53710677D01*
X117931080Y-53759960D01*
X120331080Y-53759960D01*
X120578845Y-53710677D01*
X120788889Y-53570329D01*
X120929237Y-53360285D01*
X120978520Y-53112520D01*
X120978520Y-50712520D01*
X120929237Y-50464755D01*
X120788889Y-50254711D01*
X120578845Y-50114363D01*
X120331080Y-50065080D01*
X119242325Y-50065080D01*
X114831205Y-45653960D01*
X114995605Y-45489560D01*
X116741575Y-45489560D01*
X116765717Y-45499560D01*
X117320683Y-45499560D01*
X117497466Y-45426334D01*
X117583600Y-45409201D01*
X117656621Y-45360410D01*
X117833404Y-45287184D01*
X117968708Y-45151880D01*
X118041729Y-45103089D01*
X118090520Y-45030068D01*
X118225824Y-44894764D01*
X118299050Y-44717981D01*
X118347841Y-44644960D01*
X118364974Y-44558826D01*
X118438200Y-44382043D01*
X118438200Y-44190694D01*
X118455333Y-44104560D01*
X118438200Y-44018426D01*
X118438200Y-43827077D01*
X118364974Y-43650294D01*
X118347841Y-43564160D01*
X118299050Y-43491139D01*
X118225824Y-43314356D01*
X118090520Y-43179052D01*
X118041729Y-43106031D01*
X117968708Y-43057240D01*
X117861028Y-42949560D01*
X121041212Y-42949560D01*
X120933532Y-43057240D01*
X120860511Y-43106031D01*
X120811720Y-43179052D01*
X120676416Y-43314356D01*
X120603190Y-43491139D01*
X120554399Y-43564160D01*
X120537266Y-43650294D01*
X120464040Y-43827077D01*
X120464040Y-44018426D01*
X120446907Y-44104560D01*
X120464040Y-44190694D01*
X120464040Y-44382043D01*
X120537266Y-44558826D01*
X120554399Y-44644960D01*
X120603190Y-44717981D01*
X120676416Y-44894764D01*
X120811720Y-45030068D01*
X120860511Y-45103089D01*
X120933532Y-45151880D01*
X121068836Y-45287184D01*
X121092979Y-45297185D01*
X122746081Y-46950287D01*
X122746080Y-50702438D01*
X122575442Y-50873076D01*
X122296080Y-51547516D01*
X122296080Y-52277524D01*
X122575442Y-52951964D01*
X123091636Y-53468158D01*
X123766076Y-53747520D01*
X124496084Y-53747520D01*
X125170524Y-53468158D01*
X125686718Y-52951964D01*
X125966080Y-52277524D01*
X125966080Y-51547516D01*
X125686718Y-50873076D01*
X125516080Y-50702438D01*
X125516080Y-46513007D01*
X125543213Y-46376600D01*
X125435721Y-45836200D01*
X125348691Y-45705951D01*
X125204104Y-45489560D01*
X126375913Y-45489560D01*
X126512320Y-45516693D01*
X126648727Y-45489560D01*
X127052720Y-45409201D01*
X127510849Y-45103089D01*
X127588119Y-44987446D01*
X132495530Y-40080036D01*
X132611168Y-40002769D01*
X132688435Y-39887131D01*
X132688437Y-39887129D01*
X132917281Y-39544640D01*
X133024773Y-39004240D01*
X132997640Y-38867833D01*
X132997640Y-37212400D01*
X138108457Y-37212400D01*
X138611192Y-37312400D01*
X139051448Y-37312400D01*
X139703374Y-37182724D01*
X140442665Y-36688745D01*
X140936644Y-35949454D01*
X141110106Y-35077400D01*
X140936644Y-34205346D01*
X140442665Y-33466055D01*
X139703374Y-32972076D01*
X139051448Y-32842400D01*
X138611192Y-32842400D01*
X138108457Y-32942400D01*
X132496986Y-32942400D01*
X131671005Y-32116420D01*
X131551890Y-31938152D01*
X130845677Y-31466275D01*
X130347784Y-31367238D01*
X129379724Y-30399179D01*
X129260609Y-30220911D01*
X128554396Y-29749034D01*
X127931639Y-29625160D01*
X127931635Y-29625160D01*
X127721360Y-29583334D01*
X127511085Y-29625160D01*
X123879984Y-29625160D01*
X123829526Y-29371490D01*
X123476763Y-28843543D01*
X123476762Y-28843542D01*
X123357649Y-28665277D01*
X123179384Y-28546164D01*
X121936966Y-27303746D01*
X135573294Y-27303746D01*
X135580320Y-27729790D01*
X135580320Y-28155969D01*
X135587640Y-28173640D01*
X135587955Y-28192763D01*
X135899960Y-28946010D01*
X135909667Y-28951082D01*
X135920579Y-28977426D01*
X136549294Y-29606141D01*
X136575638Y-29617053D01*
X136580710Y-29626760D01*
X136977028Y-29783314D01*
X137370751Y-29946400D01*
X137389880Y-29946400D01*
X137407666Y-29953426D01*
X137833710Y-29946400D01*
X138259889Y-29946400D01*
X138277560Y-29939080D01*
X138296683Y-29938765D01*
X139049930Y-29626760D01*
X139055002Y-29617053D01*
X139081346Y-29606141D01*
X139710061Y-28977426D01*
X139720973Y-28951082D01*
X139730680Y-28946010D01*
X139887234Y-28549692D01*
X140050320Y-28155969D01*
X140050320Y-28136840D01*
X140057346Y-28119054D01*
X140050320Y-27693010D01*
X140050320Y-27266831D01*
X140043000Y-27249160D01*
X140042685Y-27230037D01*
X139730680Y-26476790D01*
X139720973Y-26471718D01*
X139710061Y-26445374D01*
X139081346Y-25816659D01*
X139055002Y-25805747D01*
X139049930Y-25796040D01*
X138653612Y-25639486D01*
X138259889Y-25476400D01*
X138240760Y-25476400D01*
X138222974Y-25469374D01*
X137796930Y-25476400D01*
X137370751Y-25476400D01*
X137353080Y-25483720D01*
X137333957Y-25484035D01*
X136580710Y-25796040D01*
X136575638Y-25805747D01*
X136549294Y-25816659D01*
X135920579Y-26445374D01*
X135909667Y-26471718D01*
X135899960Y-26476790D01*
X135743406Y-26873108D01*
X135580320Y-27266831D01*
X135580320Y-27285960D01*
X135573294Y-27303746D01*
X121936966Y-27303746D01*
X121283358Y-26650139D01*
X121164243Y-26471871D01*
X120458030Y-25999994D01*
X119835273Y-25876120D01*
X119835269Y-25876120D01*
X119624994Y-25834294D01*
X119414719Y-25876120D01*
X117848921Y-25876120D01*
X117226164Y-25999994D01*
X116995964Y-26153809D01*
X116951760Y-26145016D01*
X116411138Y-26252552D01*
X116274241Y-26344024D01*
X116296760Y-26230815D01*
X116296760Y-24743785D01*
X116333689Y-24558130D01*
X116187391Y-23822640D01*
X116134257Y-23743120D01*
X141534680Y-23743120D01*
X141534680Y-48502714D01*
X141534680Y-48502714D01*
G37*
X141534680Y-48502714D02*
X141407131Y-112700133D01*
X119211334Y-112758531D01*
X123703506Y-108266360D01*
X124825335Y-108266360D01*
X125699520Y-109140546D01*
X125699520Y-109318699D01*
X126105546Y-110298934D01*
X126855786Y-111049174D01*
X127836021Y-111455200D01*
X128897019Y-111455200D01*
X129877254Y-111049174D01*
X130627494Y-110298934D01*
X131033520Y-109318699D01*
X131033520Y-108522786D01*
X135492014Y-108522786D01*
X135499040Y-108948830D01*
X135499040Y-109375009D01*
X135506360Y-109392680D01*
X135506675Y-109411803D01*
X135818680Y-110165050D01*
X135828387Y-110170122D01*
X135839299Y-110196466D01*
X136468014Y-110825181D01*
X136494358Y-110836093D01*
X136499430Y-110845800D01*
X136895748Y-111002354D01*
X137289471Y-111165440D01*
X137308600Y-111165440D01*
X137326386Y-111172466D01*
X137752430Y-111165440D01*
X138178609Y-111165440D01*
X138196280Y-111158120D01*
X138215403Y-111157805D01*
X138968650Y-110845800D01*
X138973722Y-110836093D01*
X139000066Y-110825181D01*
X139628781Y-110196466D01*
X139639693Y-110170122D01*
X139649400Y-110165050D01*
X139805954Y-109768732D01*
X139969040Y-109375009D01*
X139969040Y-109355880D01*
X139976066Y-109338094D01*
X139969040Y-108912050D01*
X139969040Y-108485871D01*
X139961720Y-108468200D01*
X139961405Y-108449077D01*
X139649400Y-107695830D01*
X139639693Y-107690758D01*
X139628781Y-107664414D01*
X139000066Y-107035699D01*
X138973722Y-107024787D01*
X138968650Y-107015080D01*
X138572332Y-106858526D01*
X138178609Y-106695440D01*
X138159480Y-106695440D01*
X138141694Y-106688414D01*
X137715650Y-106695440D01*
X137289471Y-106695440D01*
X137271800Y-106702760D01*
X137252677Y-106703075D01*
X136499430Y-107015080D01*
X136494358Y-107024787D01*
X136468014Y-107035699D01*
X135839299Y-107664414D01*
X135828387Y-107690758D01*
X135818680Y-107695830D01*
X135662126Y-108092148D01*
X135499040Y-108485871D01*
X135499040Y-108505000D01*
X135492014Y-108522786D01*
X131033520Y-108522786D01*
X131033520Y-108257701D01*
X130627494Y-107277466D01*
X130501520Y-107151492D01*
X130501520Y-105432315D01*
X130543346Y-105222040D01*
X130501520Y-105011765D01*
X130501520Y-105011761D01*
X130377646Y-104389004D01*
X129905769Y-103682791D01*
X129727504Y-103563678D01*
X124839976Y-98676151D01*
X124430505Y-98063335D01*
X123691214Y-97569356D01*
X123039288Y-97439680D01*
X122599032Y-97439680D01*
X121947106Y-97569356D01*
X121207815Y-98063335D01*
X120713836Y-98802626D01*
X120540374Y-99674680D01*
X120684160Y-100397543D01*
X120684161Y-105247013D01*
X116288507Y-109642668D01*
X98746440Y-109642668D01*
X98746440Y-103580481D01*
X98622566Y-102957724D01*
X98150689Y-102251511D01*
X97444475Y-101779634D01*
X96611440Y-101613933D01*
X95778404Y-101779634D01*
X95072191Y-102251511D01*
X94600314Y-102957725D01*
X94476440Y-103580482D01*
X94476441Y-109642668D01*
X84160076Y-109642670D01*
X84160076Y-107395965D01*
X84086709Y-107027123D01*
X84495640Y-107108464D01*
X85036261Y-107000928D01*
X85494579Y-106694690D01*
X85800818Y-106236372D01*
X85881210Y-105832213D01*
X85881210Y-104561067D01*
X85880640Y-104558201D01*
X85880640Y-103020645D01*
X88106489Y-100794797D01*
X88222129Y-100717529D01*
X88299399Y-100601886D01*
X91310525Y-97590760D01*
X94764000Y-97590760D01*
X94764000Y-99990760D01*
X94813283Y-100238525D01*
X94953631Y-100448569D01*
X95163675Y-100588917D01*
X95411440Y-100638200D01*
X97811440Y-100638200D01*
X98059205Y-100588917D01*
X98269249Y-100448569D01*
X98409597Y-100238525D01*
X98458880Y-99990760D01*
X98458880Y-98074680D01*
X105331720Y-98074680D01*
X105331720Y-101274680D01*
X105381003Y-101522445D01*
X105444160Y-101616966D01*
X105444161Y-104189074D01*
X105381003Y-104283595D01*
X105331720Y-104531360D01*
X105331720Y-107731360D01*
X105381003Y-107979125D01*
X105521351Y-108189169D01*
X105731395Y-108329517D01*
X105979160Y-108378800D01*
X109179160Y-108378800D01*
X109426925Y-108329517D01*
X109636969Y-108189169D01*
X109777317Y-107979125D01*
X109826600Y-107731360D01*
X109826600Y-104531360D01*
X109777317Y-104283595D01*
X109714160Y-104189075D01*
X109714160Y-101809680D01*
X111968885Y-101809680D01*
X112179160Y-101851506D01*
X112389435Y-101809680D01*
X112389439Y-101809680D01*
X113012196Y-101685806D01*
X113718409Y-101213929D01*
X113837524Y-101035661D01*
X117383104Y-97490082D01*
X117561369Y-97370969D01*
X118033246Y-96664756D01*
X118157120Y-96041999D01*
X118157120Y-96041996D01*
X118198946Y-95831721D01*
X118157120Y-95621446D01*
X118157120Y-81449040D01*
X123896545Y-81449040D01*
X124620808Y-81749040D01*
X125589512Y-81749040D01*
X126484476Y-81378333D01*
X127169453Y-80693356D01*
X127540160Y-79798392D01*
X127540160Y-78829688D01*
X127169453Y-77934724D01*
X126484476Y-77249747D01*
X125589512Y-76879040D01*
X124620808Y-76879040D01*
X123896545Y-77179040D01*
X118157120Y-77179040D01*
X118157120Y-72901328D01*
X122670160Y-72901328D01*
X122670160Y-73870032D01*
X123040867Y-74764996D01*
X123725844Y-75449973D01*
X124620808Y-75820680D01*
X125589512Y-75820680D01*
X126313775Y-75520680D01*
X131520775Y-75520680D01*
X132652641Y-76652547D01*
X132652640Y-83992798D01*
X126766399Y-89879040D01*
X126313775Y-89879040D01*
X125589512Y-89579040D01*
X124620808Y-89579040D01*
X123725844Y-89949747D01*
X123040867Y-90634724D01*
X122670160Y-91529688D01*
X122670160Y-92498392D01*
X123040867Y-93393356D01*
X123725844Y-94078333D01*
X124450109Y-94378334D01*
X129766318Y-99694544D01*
X129885431Y-99872809D01*
X130591644Y-100344686D01*
X131214401Y-100468560D01*
X131214405Y-100468560D01*
X131424680Y-100510386D01*
X131634955Y-100468560D01*
X135518212Y-100468560D01*
X135644186Y-100594534D01*
X136624421Y-101000560D01*
X137685419Y-101000560D01*
X138665654Y-100594534D01*
X139415894Y-99844294D01*
X139821920Y-98864059D01*
X139821920Y-97803061D01*
X139415894Y-96822826D01*
X138665654Y-96072586D01*
X137685419Y-95666560D01*
X136624421Y-95666560D01*
X135644186Y-96072586D01*
X135518212Y-96198560D01*
X132309026Y-96198560D01*
X129397297Y-93286832D01*
X136148624Y-86535506D01*
X136326889Y-86416393D01*
X136798766Y-85710180D01*
X136922640Y-85087423D01*
X136922640Y-85087420D01*
X136964466Y-84877145D01*
X136922640Y-84666870D01*
X136922640Y-75978478D01*
X136964467Y-75768200D01*
X136920537Y-75547346D01*
X136798766Y-74935164D01*
X136326889Y-74228951D01*
X136148624Y-74109838D01*
X133824723Y-71785938D01*
X133705609Y-71607671D01*
X132999395Y-71135794D01*
X132166360Y-70970093D01*
X131333325Y-71135794D01*
X131161386Y-71250680D01*
X126313775Y-71250680D01*
X125589512Y-70950680D01*
X124620808Y-70950680D01*
X123725844Y-71321387D01*
X123040867Y-72006364D01*
X122670160Y-72901328D01*
X118157120Y-72901328D01*
X118157120Y-70653065D01*
X125760213Y-63049973D01*
X126484476Y-62749973D01*
X127169453Y-62064996D01*
X127469454Y-61340731D01*
X132973624Y-55836562D01*
X133151889Y-55717449D01*
X133623766Y-55011236D01*
X133747640Y-54388479D01*
X133747640Y-54388474D01*
X133789466Y-54178201D01*
X133747640Y-53967927D01*
X133747640Y-52452400D01*
X136889035Y-52452400D01*
X136983555Y-52515557D01*
X137231320Y-52564840D01*
X140431320Y-52564840D01*
X140679085Y-52515557D01*
X140889129Y-52375209D01*
X141029477Y-52165165D01*
X141078760Y-51917400D01*
X141078760Y-48717400D01*
X141029477Y-48469635D01*
X140889129Y-48259591D01*
X140679085Y-48119243D01*
X140431320Y-48069960D01*
X137231320Y-48069960D01*
X136983555Y-48119243D01*
X136889035Y-48182400D01*
X133554925Y-48182400D01*
X133460405Y-48119243D01*
X133212640Y-48069960D01*
X130012640Y-48069960D01*
X129764875Y-48119243D01*
X129554831Y-48259591D01*
X129414483Y-48469635D01*
X129365200Y-48717400D01*
X129365200Y-51917400D01*
X129414483Y-52165165D01*
X129477641Y-52259686D01*
X129477641Y-53293853D01*
X124450109Y-58321386D01*
X123725844Y-58621387D01*
X123040867Y-59306364D01*
X122740867Y-60030627D01*
X114661139Y-68110356D01*
X114482871Y-68229471D01*
X114010994Y-68935685D01*
X113887120Y-69558442D01*
X113887120Y-69558445D01*
X113845294Y-69768720D01*
X113887120Y-69978995D01*
X113887121Y-78179200D01*
X113845294Y-78389480D01*
X113887121Y-78599759D01*
X113887120Y-94947374D01*
X111294815Y-97539680D01*
X109521445Y-97539680D01*
X109426925Y-97476523D01*
X109179160Y-97427240D01*
X105979160Y-97427240D01*
X105731395Y-97476523D01*
X105521351Y-97616871D01*
X105381003Y-97826915D01*
X105331720Y-98074680D01*
X98458880Y-98074680D01*
X98458880Y-97590760D01*
X98409597Y-97342995D01*
X98269249Y-97132951D01*
X98059205Y-96992603D01*
X97811440Y-96943320D01*
X95411440Y-96943320D01*
X95163675Y-96992603D01*
X94953631Y-97132951D01*
X94813283Y-97342995D01*
X94764000Y-97590760D01*
X91310525Y-97590760D01*
X92352646Y-96548640D01*
X99726233Y-96548640D01*
X99862640Y-96575773D01*
X99999047Y-96548640D01*
X100403040Y-96468281D01*
X100861169Y-96162169D01*
X100938439Y-96046526D01*
X103824686Y-93160280D01*
X104567473Y-93160280D01*
X104703880Y-93187413D01*
X104840287Y-93160280D01*
X105244280Y-93079921D01*
X105702409Y-92773809D01*
X105779679Y-92658166D01*
X107527330Y-90910516D01*
X107642968Y-90833249D01*
X107720235Y-90717611D01*
X107720237Y-90717609D01*
X107949080Y-90375121D01*
X107949081Y-90375120D01*
X108029440Y-89971127D01*
X108029440Y-89971126D01*
X108056573Y-89834721D01*
X108029440Y-89698315D01*
X108029440Y-81004925D01*
X108056573Y-80868519D01*
X108008860Y-80628651D01*
X107949081Y-80328120D01*
X107642969Y-79869991D01*
X107527325Y-79792720D01*
X104727085Y-76992480D01*
X107181885Y-74537680D01*
X107297529Y-74460409D01*
X107603641Y-74002280D01*
X107684000Y-73598287D01*
X107684000Y-73598283D01*
X107711132Y-73461881D01*
X107684000Y-73325479D01*
X107684000Y-59379361D01*
X107711132Y-59242959D01*
X107684000Y-59106557D01*
X107684000Y-59106553D01*
X107603641Y-58702560D01*
X107297528Y-58244431D01*
X107181887Y-58167162D01*
X104687480Y-55672755D01*
X104610209Y-55557111D01*
X104376034Y-55400640D01*
X107163364Y-55400640D01*
X107340338Y-55577614D01*
X107867761Y-55796080D01*
X108438639Y-55796080D01*
X108966062Y-55577614D01*
X109369734Y-55173942D01*
X109588200Y-54646519D01*
X109588200Y-54075641D01*
X109369734Y-53548218D01*
X108966062Y-53144546D01*
X108862881Y-53101807D01*
X108806289Y-53017111D01*
X108348160Y-52710999D01*
X107944167Y-52630640D01*
X107807760Y-52603507D01*
X107671353Y-52630640D01*
X99626234Y-52630640D01*
X99860409Y-52474169D01*
X99937679Y-52358526D01*
X103531023Y-48765183D01*
X103863937Y-48542737D01*
X104181100Y-48068069D01*
X104292473Y-47508160D01*
X104181100Y-46948251D01*
X103863937Y-46473583D01*
X103389269Y-46156420D01*
X102970693Y-46073160D01*
X102688027Y-46073160D01*
X102269451Y-46156420D01*
X101794783Y-46473583D01*
X101572337Y-46806497D01*
X99454137Y-48924698D01*
X99344940Y-48375731D01*
X99027777Y-47901063D01*
X98694858Y-47678614D01*
X98578201Y-47561957D01*
X98578201Y-47017288D01*
X98605334Y-46880881D01*
X98497842Y-46340481D01*
X98296345Y-46038920D01*
X98191730Y-45882352D01*
X98076089Y-45805083D01*
X93679119Y-41408114D01*
X93601849Y-41292471D01*
X93143720Y-40986359D01*
X92739727Y-40906000D01*
X92603320Y-40878867D01*
X92466913Y-40906000D01*
X91300439Y-40906000D01*
X91299353Y-40904914D01*
X90698422Y-40656000D01*
X90696886Y-40656000D01*
X89233440Y-39192555D01*
X89233440Y-37692158D01*
X89482774Y-37319003D01*
X89617430Y-36642040D01*
X89482774Y-35965077D01*
X89099305Y-35391175D01*
X88525403Y-35007706D01*
X88336646Y-34970160D01*
X90745675Y-34970160D01*
X91233561Y-35458046D01*
X91233560Y-36851073D01*
X91206427Y-36987480D01*
X91251166Y-37212400D01*
X91313919Y-37527879D01*
X91620031Y-37986008D01*
X91735672Y-38063277D01*
X95698977Y-42026583D01*
X95874672Y-42289529D01*
X95990313Y-42366798D01*
X96238200Y-42614685D01*
X96238200Y-42616222D01*
X96487114Y-43217153D01*
X96947047Y-43677086D01*
X97547978Y-43926000D01*
X97549515Y-43926000D01*
X98616040Y-44992525D01*
X98693311Y-45108169D01*
X99151440Y-45414281D01*
X99555433Y-45494640D01*
X99691839Y-45521773D01*
X99828245Y-45494640D01*
X102926825Y-45494640D01*
X103039640Y-45517080D01*
X104559640Y-45517080D01*
X104807405Y-45467797D01*
X105017449Y-45327449D01*
X105157797Y-45117405D01*
X105207080Y-44869640D01*
X105207080Y-44133233D01*
X105211773Y-44109640D01*
X105207080Y-44086047D01*
X105207080Y-43349640D01*
X105157797Y-43101875D01*
X105120516Y-43046080D01*
X107760500Y-43046080D01*
X108011867Y-43096080D01*
X108294533Y-43096080D01*
X108713109Y-43012820D01*
X108970520Y-42840823D01*
X108970521Y-51572443D01*
X108946326Y-51694080D01*
X109042176Y-52175952D01*
X109246234Y-52481347D01*
X109246236Y-52481349D01*
X109315136Y-52584465D01*
X109418252Y-52653365D01*
X111455985Y-54691098D01*
X111655986Y-55173942D01*
X112059658Y-55577614D01*
X112587081Y-55796080D01*
X113157959Y-55796080D01*
X113685382Y-55577614D01*
X114089054Y-55173942D01*
X114307520Y-54646519D01*
X114307520Y-54075641D01*
X114089054Y-53548218D01*
X113685382Y-53144546D01*
X113202538Y-52944545D01*
X111440520Y-51182527D01*
X111440520Y-41817495D01*
X111487521Y-42053784D01*
X111487520Y-45517553D01*
X111460387Y-45653960D01*
X111505817Y-45882352D01*
X111567879Y-46194359D01*
X111873991Y-46652488D01*
X111989632Y-46729757D01*
X117283640Y-52023765D01*
X117283640Y-53112520D01*
X117332923Y-53360285D01*
X117473271Y-53570329D01*
X117683315Y-53710677D01*
X117931080Y-53759960D01*
X120331080Y-53759960D01*
X120578845Y-53710677D01*
X120788889Y-53570329D01*
X120929237Y-53360285D01*
X120978520Y-53112520D01*
X120978520Y-50712520D01*
X120929237Y-50464755D01*
X120788889Y-50254711D01*
X120578845Y-50114363D01*
X120331080Y-50065080D01*
X119242325Y-50065080D01*
X114831205Y-45653960D01*
X114995605Y-45489560D01*
X116741575Y-45489560D01*
X116765717Y-45499560D01*
X117320683Y-45499560D01*
X117497466Y-45426334D01*
X117583600Y-45409201D01*
X117656621Y-45360410D01*
X117833404Y-45287184D01*
X117968708Y-45151880D01*
X118041729Y-45103089D01*
X118090520Y-45030068D01*
X118225824Y-44894764D01*
X118299050Y-44717981D01*
X118347841Y-44644960D01*
X118364974Y-44558826D01*
X118438200Y-44382043D01*
X118438200Y-44190694D01*
X118455333Y-44104560D01*
X118438200Y-44018426D01*
X118438200Y-43827077D01*
X118364974Y-43650294D01*
X118347841Y-43564160D01*
X118299050Y-43491139D01*
X118225824Y-43314356D01*
X118090520Y-43179052D01*
X118041729Y-43106031D01*
X117968708Y-43057240D01*
X117861028Y-42949560D01*
X121041212Y-42949560D01*
X120933532Y-43057240D01*
X120860511Y-43106031D01*
X120811720Y-43179052D01*
X120676416Y-43314356D01*
X120603190Y-43491139D01*
X120554399Y-43564160D01*
X120537266Y-43650294D01*
X120464040Y-43827077D01*
X120464040Y-44018426D01*
X120446907Y-44104560D01*
X120464040Y-44190694D01*
X120464040Y-44382043D01*
X120537266Y-44558826D01*
X120554399Y-44644960D01*
X120603190Y-44717981D01*
X120676416Y-44894764D01*
X120811720Y-45030068D01*
X120860511Y-45103089D01*
X120933532Y-45151880D01*
X121068836Y-45287184D01*
X121092979Y-45297185D01*
X122746081Y-46950287D01*
X122746080Y-50702438D01*
X122575442Y-50873076D01*
X122296080Y-51547516D01*
X122296080Y-52277524D01*
X122575442Y-52951964D01*
X123091636Y-53468158D01*
X123766076Y-53747520D01*
X124496084Y-53747520D01*
X125170524Y-53468158D01*
X125686718Y-52951964D01*
X125966080Y-52277524D01*
X125966080Y-51547516D01*
X125686718Y-50873076D01*
X125516080Y-50702438D01*
X125516080Y-46513007D01*
X125543213Y-46376600D01*
X125435721Y-45836200D01*
X125348691Y-45705951D01*
X125204104Y-45489560D01*
X126375913Y-45489560D01*
X126512320Y-45516693D01*
X126648727Y-45489560D01*
X127052720Y-45409201D01*
X127510849Y-45103089D01*
X127588119Y-44987446D01*
X132495530Y-40080036D01*
X132611168Y-40002769D01*
X132688435Y-39887131D01*
X132688437Y-39887129D01*
X132917281Y-39544640D01*
X133024773Y-39004240D01*
X132997640Y-38867833D01*
X132997640Y-37212400D01*
X138108457Y-37212400D01*
X138611192Y-37312400D01*
X139051448Y-37312400D01*
X139703374Y-37182724D01*
X140442665Y-36688745D01*
X140936644Y-35949454D01*
X141110106Y-35077400D01*
X140936644Y-34205346D01*
X140442665Y-33466055D01*
X139703374Y-32972076D01*
X139051448Y-32842400D01*
X138611192Y-32842400D01*
X138108457Y-32942400D01*
X132496986Y-32942400D01*
X131671005Y-32116420D01*
X131551890Y-31938152D01*
X130845677Y-31466275D01*
X130347784Y-31367238D01*
X129379724Y-30399179D01*
X129260609Y-30220911D01*
X128554396Y-29749034D01*
X127931639Y-29625160D01*
X127931635Y-29625160D01*
X127721360Y-29583334D01*
X127511085Y-29625160D01*
X123879984Y-29625160D01*
X123829526Y-29371490D01*
X123476763Y-28843543D01*
X123476762Y-28843542D01*
X123357649Y-28665277D01*
X123179384Y-28546164D01*
X121936966Y-27303746D01*
X135573294Y-27303746D01*
X135580320Y-27729790D01*
X135580320Y-28155969D01*
X135587640Y-28173640D01*
X135587955Y-28192763D01*
X135899960Y-28946010D01*
X135909667Y-28951082D01*
X135920579Y-28977426D01*
X136549294Y-29606141D01*
X136575638Y-29617053D01*
X136580710Y-29626760D01*
X136977028Y-29783314D01*
X137370751Y-29946400D01*
X137389880Y-29946400D01*
X137407666Y-29953426D01*
X137833710Y-29946400D01*
X138259889Y-29946400D01*
X138277560Y-29939080D01*
X138296683Y-29938765D01*
X139049930Y-29626760D01*
X139055002Y-29617053D01*
X139081346Y-29606141D01*
X139710061Y-28977426D01*
X139720973Y-28951082D01*
X139730680Y-28946010D01*
X139887234Y-28549692D01*
X140050320Y-28155969D01*
X140050320Y-28136840D01*
X140057346Y-28119054D01*
X140050320Y-27693010D01*
X140050320Y-27266831D01*
X140043000Y-27249160D01*
X140042685Y-27230037D01*
X139730680Y-26476790D01*
X139720973Y-26471718D01*
X139710061Y-26445374D01*
X139081346Y-25816659D01*
X139055002Y-25805747D01*
X139049930Y-25796040D01*
X138653612Y-25639486D01*
X138259889Y-25476400D01*
X138240760Y-25476400D01*
X138222974Y-25469374D01*
X137796930Y-25476400D01*
X137370751Y-25476400D01*
X137353080Y-25483720D01*
X137333957Y-25484035D01*
X136580710Y-25796040D01*
X136575638Y-25805747D01*
X136549294Y-25816659D01*
X135920579Y-26445374D01*
X135909667Y-26471718D01*
X135899960Y-26476790D01*
X135743406Y-26873108D01*
X135580320Y-27266831D01*
X135580320Y-27285960D01*
X135573294Y-27303746D01*
X121936966Y-27303746D01*
X121283358Y-26650139D01*
X121164243Y-26471871D01*
X120458030Y-25999994D01*
X119835273Y-25876120D01*
X119835269Y-25876120D01*
X119624994Y-25834294D01*
X119414719Y-25876120D01*
X117848921Y-25876120D01*
X117226164Y-25999994D01*
X116995964Y-26153809D01*
X116951760Y-26145016D01*
X116411138Y-26252552D01*
X116274241Y-26344024D01*
X116296760Y-26230815D01*
X116296760Y-24743785D01*
X116333689Y-24558130D01*
X116187391Y-23822640D01*
X116134257Y-23743120D01*
X141534680Y-23743120D01*
X141534680Y-48502714D01*
G36*
X62603921Y-71427480D02*
X62603922Y-71427480D01*
X62814200Y-71469307D01*
X63024478Y-71427480D01*
X77287681Y-71427480D01*
X78814935Y-72954735D01*
X78906151Y-73091249D01*
X79042664Y-73182464D01*
X79042666Y-73182466D01*
X79446974Y-73452616D01*
X80084920Y-73579511D01*
X80245951Y-73547480D01*
X88662001Y-73547480D01*
X88662000Y-79036170D01*
X88629969Y-79197200D01*
X88662000Y-79358230D01*
X88756864Y-79835144D01*
X89118231Y-80375969D01*
X89254750Y-80467188D01*
X98577414Y-89789853D01*
X98668631Y-89926369D01*
X99209455Y-90287736D01*
X99686369Y-90382600D01*
X99686373Y-90382600D01*
X99847399Y-90414630D01*
X100008425Y-90382600D01*
X102929431Y-90382600D01*
X103369625Y-90295040D01*
X103668400Y-90295040D01*
X103916165Y-90245757D01*
X104126209Y-90105409D01*
X104266557Y-89895365D01*
X104315840Y-89647600D01*
X104315840Y-89348825D01*
X104435431Y-88747600D01*
X104315840Y-88146375D01*
X104315840Y-87847600D01*
X104266557Y-87599835D01*
X104126209Y-87389791D01*
X103916165Y-87249443D01*
X103900492Y-87246325D01*
X104069710Y-87077107D01*
X104303400Y-86512930D01*
X104303400Y-85902270D01*
X104153400Y-85540138D01*
X104153400Y-84375115D01*
X104266557Y-84205765D01*
X104315840Y-83958000D01*
X104315840Y-82158000D01*
X104266557Y-81910235D01*
X104126209Y-81700191D01*
X103916165Y-81559843D01*
X103900492Y-81556725D01*
X104069710Y-81387507D01*
X104303400Y-80823330D01*
X104303400Y-80486165D01*
X105259441Y-81442206D01*
X105259440Y-89261034D01*
X104130195Y-90390280D01*
X103387407Y-90390280D01*
X103251000Y-90363147D01*
X103114593Y-90390280D01*
X102710600Y-90470639D01*
X102252471Y-90776751D01*
X102175202Y-90892392D01*
X99288955Y-93778640D01*
X91915367Y-93778640D01*
X91778960Y-93751507D01*
X91642553Y-93778640D01*
X91238560Y-93858999D01*
X90780431Y-94165111D01*
X90703162Y-94280752D01*
X88608600Y-96375314D01*
X88608600Y-92785445D01*
X88635733Y-92649039D01*
X88594524Y-92441869D01*
X88528241Y-92108640D01*
X88386962Y-91897200D01*
X88629969Y-91897200D01*
X88756864Y-92535145D01*
X89118231Y-93075969D01*
X89659055Y-93437336D01*
X90135969Y-93532200D01*
X94961970Y-93532200D01*
X95123000Y-93564231D01*
X95284030Y-93532200D01*
X95284031Y-93532200D01*
X95760945Y-93437336D01*
X96301769Y-93075969D01*
X96392988Y-92939450D01*
X96408225Y-92924213D01*
X96678376Y-92519905D01*
X96805271Y-91881960D01*
X96678376Y-91244015D01*
X96317009Y-90703191D01*
X95776185Y-90341824D01*
X95138240Y-90214929D01*
X94900592Y-90262200D01*
X90135969Y-90262200D01*
X89659055Y-90357064D01*
X89118231Y-90718431D01*
X88756864Y-91259255D01*
X88629969Y-91897200D01*
X88386962Y-91897200D01*
X88376778Y-91881960D01*
X88299397Y-91766151D01*
X88299395Y-91766149D01*
X88222128Y-91650511D01*
X88106490Y-91573244D01*
X84082999Y-87549754D01*
X84005729Y-87434111D01*
X83547600Y-87127999D01*
X83143607Y-87047640D01*
X83007200Y-87020507D01*
X82870793Y-87047640D01*
X68414526Y-87047640D01*
X62555446Y-81188560D01*
X65349047Y-81188560D01*
X65460420Y-81748469D01*
X65777583Y-82223137D01*
X66252251Y-82540300D01*
X66670827Y-82623560D01*
X66953493Y-82623560D01*
X67372069Y-82540300D01*
X67846737Y-82223137D01*
X68163900Y-81748469D01*
X68243242Y-81349590D01*
X69896480Y-81349590D01*
X69991344Y-81826504D01*
X70352711Y-82367329D01*
X70893535Y-82728696D01*
X71531480Y-82855591D01*
X72169424Y-82728696D01*
X72710249Y-82367329D01*
X73071616Y-81826505D01*
X73166480Y-81349591D01*
X73166480Y-81254600D01*
X77210847Y-81254600D01*
X77322220Y-81814509D01*
X77639383Y-82289177D01*
X78114051Y-82606340D01*
X78532627Y-82689600D01*
X78815293Y-82689600D01*
X79066660Y-82639600D01*
X83127580Y-82639600D01*
X83378947Y-82689600D01*
X83661613Y-82689600D01*
X84080189Y-82606340D01*
X84091927Y-82598497D01*
X84289280Y-82559241D01*
X84747409Y-82253129D01*
X85053521Y-81795000D01*
X85161013Y-81254600D01*
X85053521Y-80714200D01*
X84747409Y-80256071D01*
X84289280Y-79949959D01*
X84091927Y-79910703D01*
X84080189Y-79902860D01*
X83661613Y-79819600D01*
X83378947Y-79819600D01*
X83127580Y-79869600D01*
X79066660Y-79869600D01*
X78815293Y-79819600D01*
X78532627Y-79819600D01*
X78114051Y-79902860D01*
X77639383Y-80220023D01*
X77322220Y-80694691D01*
X77210847Y-81254600D01*
X73166480Y-81254600D01*
X73166480Y-76763880D01*
X82768367Y-76763880D01*
X82879740Y-77323789D01*
X83196903Y-77798457D01*
X83671571Y-78115620D01*
X84090147Y-78198880D01*
X84372813Y-78198880D01*
X84791389Y-78115620D01*
X85266057Y-77798457D01*
X85583220Y-77323789D01*
X85694593Y-76763880D01*
X85583220Y-76203971D01*
X85266057Y-75729303D01*
X84791389Y-75412140D01*
X84372813Y-75328880D01*
X84090147Y-75328880D01*
X83671571Y-75412140D01*
X83196903Y-75729303D01*
X82879740Y-76203971D01*
X82768367Y-76763880D01*
X73166480Y-76763880D01*
X73166480Y-76602849D01*
X73071616Y-76125935D01*
X72710249Y-75585111D01*
X72169425Y-75223744D01*
X71531480Y-75096849D01*
X70893536Y-75223744D01*
X70352712Y-75585111D01*
X69991345Y-76125935D01*
X69896481Y-76602849D01*
X69896480Y-81349590D01*
X68243242Y-81349590D01*
X68275273Y-81188560D01*
X68163900Y-80628651D01*
X67846737Y-80153983D01*
X67372069Y-79836820D01*
X66953493Y-79753560D01*
X66670827Y-79753560D01*
X66252251Y-79836820D01*
X65777583Y-80153983D01*
X65460420Y-80628651D01*
X65349047Y-81188560D01*
X62555446Y-81188560D01*
X61682719Y-80315834D01*
X61605449Y-80200191D01*
X61147320Y-79894079D01*
X60743327Y-79813720D01*
X60606920Y-79786587D01*
X60470513Y-79813720D01*
X59717562Y-79813720D01*
X59705077Y-79750955D01*
X59564729Y-79540911D01*
X59354685Y-79400563D01*
X59106920Y-79351280D01*
X56706920Y-79351280D01*
X56459155Y-79400563D01*
X56249111Y-79540911D01*
X56108763Y-79750955D01*
X56059480Y-79998720D01*
X56059480Y-82398720D01*
X56108763Y-82646485D01*
X56249111Y-82856529D01*
X56459155Y-82996877D01*
X56706920Y-83046160D01*
X59106920Y-83046160D01*
X59354685Y-82996877D01*
X59564729Y-82856529D01*
X59705077Y-82646485D01*
X59717562Y-82583720D01*
X60033235Y-82583720D01*
X66765042Y-89315528D01*
X66842311Y-89431169D01*
X67166223Y-89647600D01*
X67300440Y-89737281D01*
X67840840Y-89844773D01*
X67977247Y-89817640D01*
X82433515Y-89817640D01*
X85838600Y-93222726D01*
X85838601Y-99145313D01*
X83612752Y-101371163D01*
X83497112Y-101448431D01*
X83419843Y-101564072D01*
X83340640Y-101682608D01*
X83340640Y-96092925D01*
X84212432Y-95221134D01*
X84333142Y-95171134D01*
X84736814Y-94767462D01*
X84955280Y-94240039D01*
X84955280Y-93669161D01*
X84736814Y-93141738D01*
X84333142Y-92738066D01*
X83805719Y-92519600D01*
X83234841Y-92519600D01*
X82707418Y-92738066D01*
X82303746Y-93141738D01*
X82253746Y-93262448D01*
X81072752Y-94443443D01*
X80957112Y-94520711D01*
X80879843Y-94636352D01*
X80650999Y-94978841D01*
X80543507Y-95519240D01*
X80570641Y-95655652D01*
X80570640Y-103932151D01*
X80414580Y-103698590D01*
X79956262Y-103392352D01*
X79415640Y-103284816D01*
X78976110Y-103372244D01*
X78658635Y-103160114D01*
X77825600Y-102994413D01*
X76992564Y-103160114D01*
X76464617Y-103512877D01*
X73309055Y-106668440D01*
X68197160Y-106668440D01*
X68197160Y-102659880D01*
X69075753Y-102659880D01*
X69212160Y-102687013D01*
X69348567Y-102659880D01*
X69752560Y-102579521D01*
X70210689Y-102273409D01*
X70287959Y-102157766D01*
X72536292Y-99909434D01*
X72651928Y-99832168D01*
X72729194Y-99716532D01*
X72729197Y-99716529D01*
X72958041Y-99374040D01*
X73065533Y-98833640D01*
X72958041Y-98293240D01*
X72916480Y-98231040D01*
X72916480Y-95273560D01*
X78108376Y-95273560D01*
X78388521Y-95389600D01*
X78959399Y-95389600D01*
X79486822Y-95171134D01*
X79890494Y-94767462D01*
X80108960Y-94240039D01*
X80108960Y-93669161D01*
X79890494Y-93141738D01*
X79486822Y-92738066D01*
X79203189Y-92620581D01*
X79148320Y-92583919D01*
X79083598Y-92571045D01*
X78959399Y-92519600D01*
X78824966Y-92519600D01*
X78744327Y-92503560D01*
X78607920Y-92476427D01*
X78471513Y-92503560D01*
X71937630Y-92503560D01*
X71816919Y-92453560D01*
X71246041Y-92453560D01*
X70718618Y-92672026D01*
X70314946Y-93075698D01*
X70096480Y-93603121D01*
X70096480Y-94173999D01*
X70146481Y-94294712D01*
X70146480Y-98381874D01*
X68638475Y-99889880D01*
X68129275Y-99889880D01*
X67959925Y-99776723D01*
X67944252Y-99773605D01*
X68113470Y-99604387D01*
X68347160Y-99040210D01*
X68347160Y-98429550D01*
X68197160Y-98067418D01*
X68197160Y-94294710D01*
X68247160Y-94173999D01*
X68247160Y-93603121D01*
X68028694Y-93075698D01*
X67625022Y-92672026D01*
X67097599Y-92453560D01*
X66526721Y-92453560D01*
X65999298Y-92672026D01*
X65595626Y-93075698D01*
X65377160Y-93603121D01*
X65377160Y-94173999D01*
X65427160Y-94294710D01*
X65427161Y-98067416D01*
X65277160Y-98429550D01*
X65277160Y-99040210D01*
X65510850Y-99604387D01*
X65680068Y-99773605D01*
X65664395Y-99776723D01*
X65454351Y-99917071D01*
X65314003Y-100127115D01*
X65264720Y-100374880D01*
X65264720Y-102174880D01*
X65314003Y-102422645D01*
X65427161Y-102591996D01*
X65427161Y-103538469D01*
X65427160Y-103538474D01*
X65427161Y-106668440D01*
X60252333Y-106668440D01*
X59307792Y-105723900D01*
X59460605Y-105826006D01*
X60293640Y-105991707D01*
X61126676Y-105826006D01*
X61832889Y-105354129D01*
X62304766Y-104647916D01*
X62428640Y-104025159D01*
X62428640Y-97104601D01*
X62304766Y-96481844D01*
X61832889Y-95775631D01*
X61126675Y-95303754D01*
X60293640Y-95138053D01*
X59460604Y-95303754D01*
X58754391Y-95775631D01*
X58282514Y-96481845D01*
X58158640Y-97104602D01*
X58158641Y-104025159D01*
X58282515Y-104647916D01*
X58384622Y-104800730D01*
X57928640Y-104344748D01*
X57928640Y-97525155D01*
X57970466Y-97314880D01*
X57928640Y-97104605D01*
X57928640Y-97104601D01*
X57804766Y-96481844D01*
X57332889Y-95775631D01*
X57178640Y-95672565D01*
X57178640Y-88885685D01*
X58030606Y-88033720D01*
X58271924Y-88033720D01*
X58946364Y-87754358D01*
X59462558Y-87238164D01*
X59741920Y-86563724D01*
X59741920Y-85833716D01*
X59462558Y-85159276D01*
X58946364Y-84643082D01*
X58271924Y-84363720D01*
X57541916Y-84363720D01*
X56867476Y-84643082D01*
X56351282Y-85159276D01*
X56071920Y-85833716D01*
X56071920Y-86075034D01*
X54910752Y-87236203D01*
X54795112Y-87313471D01*
X54717843Y-87429112D01*
X54488999Y-87771601D01*
X54381507Y-88312000D01*
X54408641Y-88448412D01*
X54408640Y-92910535D01*
X50643920Y-89145815D01*
X50643920Y-78258348D01*
X50769894Y-78132374D01*
X51175920Y-77152139D01*
X51175920Y-76091141D01*
X50769894Y-75110906D01*
X50643920Y-74984932D01*
X50643920Y-74737385D01*
X53990666Y-71390640D01*
X62418714Y-71390640D01*
X62603921Y-71427480D01*
X62603921Y-71427480D01*
G37*
X62603921Y-71427480D02*
X62603922Y-71427480D01*
X62814200Y-71469307D01*
X63024478Y-71427480D01*
X77287681Y-71427480D01*
X78814935Y-72954735D01*
X78906151Y-73091249D01*
X79042664Y-73182464D01*
X79042666Y-73182466D01*
X79446974Y-73452616D01*
X80084920Y-73579511D01*
X80245951Y-73547480D01*
X88662001Y-73547480D01*
X88662000Y-79036170D01*
X88629969Y-79197200D01*
X88662000Y-79358230D01*
X88756864Y-79835144D01*
X89118231Y-80375969D01*
X89254750Y-80467188D01*
X98577414Y-89789853D01*
X98668631Y-89926369D01*
X99209455Y-90287736D01*
X99686369Y-90382600D01*
X99686373Y-90382600D01*
X99847399Y-90414630D01*
X100008425Y-90382600D01*
X102929431Y-90382600D01*
X103369625Y-90295040D01*
X103668400Y-90295040D01*
X103916165Y-90245757D01*
X104126209Y-90105409D01*
X104266557Y-89895365D01*
X104315840Y-89647600D01*
X104315840Y-89348825D01*
X104435431Y-88747600D01*
X104315840Y-88146375D01*
X104315840Y-87847600D01*
X104266557Y-87599835D01*
X104126209Y-87389791D01*
X103916165Y-87249443D01*
X103900492Y-87246325D01*
X104069710Y-87077107D01*
X104303400Y-86512930D01*
X104303400Y-85902270D01*
X104153400Y-85540138D01*
X104153400Y-84375115D01*
X104266557Y-84205765D01*
X104315840Y-83958000D01*
X104315840Y-82158000D01*
X104266557Y-81910235D01*
X104126209Y-81700191D01*
X103916165Y-81559843D01*
X103900492Y-81556725D01*
X104069710Y-81387507D01*
X104303400Y-80823330D01*
X104303400Y-80486165D01*
X105259441Y-81442206D01*
X105259440Y-89261034D01*
X104130195Y-90390280D01*
X103387407Y-90390280D01*
X103251000Y-90363147D01*
X103114593Y-90390280D01*
X102710600Y-90470639D01*
X102252471Y-90776751D01*
X102175202Y-90892392D01*
X99288955Y-93778640D01*
X91915367Y-93778640D01*
X91778960Y-93751507D01*
X91642553Y-93778640D01*
X91238560Y-93858999D01*
X90780431Y-94165111D01*
X90703162Y-94280752D01*
X88608600Y-96375314D01*
X88608600Y-92785445D01*
X88635733Y-92649039D01*
X88594524Y-92441869D01*
X88528241Y-92108640D01*
X88386962Y-91897200D01*
X88629969Y-91897200D01*
X88756864Y-92535145D01*
X89118231Y-93075969D01*
X89659055Y-93437336D01*
X90135969Y-93532200D01*
X94961970Y-93532200D01*
X95123000Y-93564231D01*
X95284030Y-93532200D01*
X95284031Y-93532200D01*
X95760945Y-93437336D01*
X96301769Y-93075969D01*
X96392988Y-92939450D01*
X96408225Y-92924213D01*
X96678376Y-92519905D01*
X96805271Y-91881960D01*
X96678376Y-91244015D01*
X96317009Y-90703191D01*
X95776185Y-90341824D01*
X95138240Y-90214929D01*
X94900592Y-90262200D01*
X90135969Y-90262200D01*
X89659055Y-90357064D01*
X89118231Y-90718431D01*
X88756864Y-91259255D01*
X88629969Y-91897200D01*
X88386962Y-91897200D01*
X88376778Y-91881960D01*
X88299397Y-91766151D01*
X88299395Y-91766149D01*
X88222128Y-91650511D01*
X88106490Y-91573244D01*
X84082999Y-87549754D01*
X84005729Y-87434111D01*
X83547600Y-87127999D01*
X83143607Y-87047640D01*
X83007200Y-87020507D01*
X82870793Y-87047640D01*
X68414526Y-87047640D01*
X62555446Y-81188560D01*
X65349047Y-81188560D01*
X65460420Y-81748469D01*
X65777583Y-82223137D01*
X66252251Y-82540300D01*
X66670827Y-82623560D01*
X66953493Y-82623560D01*
X67372069Y-82540300D01*
X67846737Y-82223137D01*
X68163900Y-81748469D01*
X68243242Y-81349590D01*
X69896480Y-81349590D01*
X69991344Y-81826504D01*
X70352711Y-82367329D01*
X70893535Y-82728696D01*
X71531480Y-82855591D01*
X72169424Y-82728696D01*
X72710249Y-82367329D01*
X73071616Y-81826505D01*
X73166480Y-81349591D01*
X73166480Y-81254600D01*
X77210847Y-81254600D01*
X77322220Y-81814509D01*
X77639383Y-82289177D01*
X78114051Y-82606340D01*
X78532627Y-82689600D01*
X78815293Y-82689600D01*
X79066660Y-82639600D01*
X83127580Y-82639600D01*
X83378947Y-82689600D01*
X83661613Y-82689600D01*
X84080189Y-82606340D01*
X84091927Y-82598497D01*
X84289280Y-82559241D01*
X84747409Y-82253129D01*
X85053521Y-81795000D01*
X85161013Y-81254600D01*
X85053521Y-80714200D01*
X84747409Y-80256071D01*
X84289280Y-79949959D01*
X84091927Y-79910703D01*
X84080189Y-79902860D01*
X83661613Y-79819600D01*
X83378947Y-79819600D01*
X83127580Y-79869600D01*
X79066660Y-79869600D01*
X78815293Y-79819600D01*
X78532627Y-79819600D01*
X78114051Y-79902860D01*
X77639383Y-80220023D01*
X77322220Y-80694691D01*
X77210847Y-81254600D01*
X73166480Y-81254600D01*
X73166480Y-76763880D01*
X82768367Y-76763880D01*
X82879740Y-77323789D01*
X83196903Y-77798457D01*
X83671571Y-78115620D01*
X84090147Y-78198880D01*
X84372813Y-78198880D01*
X84791389Y-78115620D01*
X85266057Y-77798457D01*
X85583220Y-77323789D01*
X85694593Y-76763880D01*
X85583220Y-76203971D01*
X85266057Y-75729303D01*
X84791389Y-75412140D01*
X84372813Y-75328880D01*
X84090147Y-75328880D01*
X83671571Y-75412140D01*
X83196903Y-75729303D01*
X82879740Y-76203971D01*
X82768367Y-76763880D01*
X73166480Y-76763880D01*
X73166480Y-76602849D01*
X73071616Y-76125935D01*
X72710249Y-75585111D01*
X72169425Y-75223744D01*
X71531480Y-75096849D01*
X70893536Y-75223744D01*
X70352712Y-75585111D01*
X69991345Y-76125935D01*
X69896481Y-76602849D01*
X69896480Y-81349590D01*
X68243242Y-81349590D01*
X68275273Y-81188560D01*
X68163900Y-80628651D01*
X67846737Y-80153983D01*
X67372069Y-79836820D01*
X66953493Y-79753560D01*
X66670827Y-79753560D01*
X66252251Y-79836820D01*
X65777583Y-80153983D01*
X65460420Y-80628651D01*
X65349047Y-81188560D01*
X62555446Y-81188560D01*
X61682719Y-80315834D01*
X61605449Y-80200191D01*
X61147320Y-79894079D01*
X60743327Y-79813720D01*
X60606920Y-79786587D01*
X60470513Y-79813720D01*
X59717562Y-79813720D01*
X59705077Y-79750955D01*
X59564729Y-79540911D01*
X59354685Y-79400563D01*
X59106920Y-79351280D01*
X56706920Y-79351280D01*
X56459155Y-79400563D01*
X56249111Y-79540911D01*
X56108763Y-79750955D01*
X56059480Y-79998720D01*
X56059480Y-82398720D01*
X56108763Y-82646485D01*
X56249111Y-82856529D01*
X56459155Y-82996877D01*
X56706920Y-83046160D01*
X59106920Y-83046160D01*
X59354685Y-82996877D01*
X59564729Y-82856529D01*
X59705077Y-82646485D01*
X59717562Y-82583720D01*
X60033235Y-82583720D01*
X66765042Y-89315528D01*
X66842311Y-89431169D01*
X67166223Y-89647600D01*
X67300440Y-89737281D01*
X67840840Y-89844773D01*
X67977247Y-89817640D01*
X82433515Y-89817640D01*
X85838600Y-93222726D01*
X85838601Y-99145313D01*
X83612752Y-101371163D01*
X83497112Y-101448431D01*
X83419843Y-101564072D01*
X83340640Y-101682608D01*
X83340640Y-96092925D01*
X84212432Y-95221134D01*
X84333142Y-95171134D01*
X84736814Y-94767462D01*
X84955280Y-94240039D01*
X84955280Y-93669161D01*
X84736814Y-93141738D01*
X84333142Y-92738066D01*
X83805719Y-92519600D01*
X83234841Y-92519600D01*
X82707418Y-92738066D01*
X82303746Y-93141738D01*
X82253746Y-93262448D01*
X81072752Y-94443443D01*
X80957112Y-94520711D01*
X80879843Y-94636352D01*
X80650999Y-94978841D01*
X80543507Y-95519240D01*
X80570641Y-95655652D01*
X80570640Y-103932151D01*
X80414580Y-103698590D01*
X79956262Y-103392352D01*
X79415640Y-103284816D01*
X78976110Y-103372244D01*
X78658635Y-103160114D01*
X77825600Y-102994413D01*
X76992564Y-103160114D01*
X76464617Y-103512877D01*
X73309055Y-106668440D01*
X68197160Y-106668440D01*
X68197160Y-102659880D01*
X69075753Y-102659880D01*
X69212160Y-102687013D01*
X69348567Y-102659880D01*
X69752560Y-102579521D01*
X70210689Y-102273409D01*
X70287959Y-102157766D01*
X72536292Y-99909434D01*
X72651928Y-99832168D01*
X72729194Y-99716532D01*
X72729197Y-99716529D01*
X72958041Y-99374040D01*
X73065533Y-98833640D01*
X72958041Y-98293240D01*
X72916480Y-98231040D01*
X72916480Y-95273560D01*
X78108376Y-95273560D01*
X78388521Y-95389600D01*
X78959399Y-95389600D01*
X79486822Y-95171134D01*
X79890494Y-94767462D01*
X80108960Y-94240039D01*
X80108960Y-93669161D01*
X79890494Y-93141738D01*
X79486822Y-92738066D01*
X79203189Y-92620581D01*
X79148320Y-92583919D01*
X79083598Y-92571045D01*
X78959399Y-92519600D01*
X78824966Y-92519600D01*
X78744327Y-92503560D01*
X78607920Y-92476427D01*
X78471513Y-92503560D01*
X71937630Y-92503560D01*
X71816919Y-92453560D01*
X71246041Y-92453560D01*
X70718618Y-92672026D01*
X70314946Y-93075698D01*
X70096480Y-93603121D01*
X70096480Y-94173999D01*
X70146481Y-94294712D01*
X70146480Y-98381874D01*
X68638475Y-99889880D01*
X68129275Y-99889880D01*
X67959925Y-99776723D01*
X67944252Y-99773605D01*
X68113470Y-99604387D01*
X68347160Y-99040210D01*
X68347160Y-98429550D01*
X68197160Y-98067418D01*
X68197160Y-94294710D01*
X68247160Y-94173999D01*
X68247160Y-93603121D01*
X68028694Y-93075698D01*
X67625022Y-92672026D01*
X67097599Y-92453560D01*
X66526721Y-92453560D01*
X65999298Y-92672026D01*
X65595626Y-93075698D01*
X65377160Y-93603121D01*
X65377160Y-94173999D01*
X65427160Y-94294710D01*
X65427161Y-98067416D01*
X65277160Y-98429550D01*
X65277160Y-99040210D01*
X65510850Y-99604387D01*
X65680068Y-99773605D01*
X65664395Y-99776723D01*
X65454351Y-99917071D01*
X65314003Y-100127115D01*
X65264720Y-100374880D01*
X65264720Y-102174880D01*
X65314003Y-102422645D01*
X65427161Y-102591996D01*
X65427161Y-103538469D01*
X65427160Y-103538474D01*
X65427161Y-106668440D01*
X60252333Y-106668440D01*
X59307792Y-105723900D01*
X59460605Y-105826006D01*
X60293640Y-105991707D01*
X61126676Y-105826006D01*
X61832889Y-105354129D01*
X62304766Y-104647916D01*
X62428640Y-104025159D01*
X62428640Y-97104601D01*
X62304766Y-96481844D01*
X61832889Y-95775631D01*
X61126675Y-95303754D01*
X60293640Y-95138053D01*
X59460604Y-95303754D01*
X58754391Y-95775631D01*
X58282514Y-96481845D01*
X58158640Y-97104602D01*
X58158641Y-104025159D01*
X58282515Y-104647916D01*
X58384622Y-104800730D01*
X57928640Y-104344748D01*
X57928640Y-97525155D01*
X57970466Y-97314880D01*
X57928640Y-97104605D01*
X57928640Y-97104601D01*
X57804766Y-96481844D01*
X57332889Y-95775631D01*
X57178640Y-95672565D01*
X57178640Y-88885685D01*
X58030606Y-88033720D01*
X58271924Y-88033720D01*
X58946364Y-87754358D01*
X59462558Y-87238164D01*
X59741920Y-86563724D01*
X59741920Y-85833716D01*
X59462558Y-85159276D01*
X58946364Y-84643082D01*
X58271924Y-84363720D01*
X57541916Y-84363720D01*
X56867476Y-84643082D01*
X56351282Y-85159276D01*
X56071920Y-85833716D01*
X56071920Y-86075034D01*
X54910752Y-87236203D01*
X54795112Y-87313471D01*
X54717843Y-87429112D01*
X54488999Y-87771601D01*
X54381507Y-88312000D01*
X54408641Y-88448412D01*
X54408640Y-92910535D01*
X50643920Y-89145815D01*
X50643920Y-78258348D01*
X50769894Y-78132374D01*
X51175920Y-77152139D01*
X51175920Y-76091141D01*
X50769894Y-75110906D01*
X50643920Y-74984932D01*
X50643920Y-74737385D01*
X53990666Y-71390640D01*
X62418714Y-71390640D01*
X62603921Y-71427480D01*
G36*
X93473840Y-49382325D02*
X93473841Y-50460389D01*
X93446707Y-50596800D01*
X93554199Y-51137199D01*
X93696078Y-51349536D01*
X93860312Y-51595329D01*
X93975953Y-51672598D01*
X94661879Y-52358523D01*
X94739151Y-52474169D01*
X95197280Y-52780281D01*
X95601273Y-52860640D01*
X95601277Y-52860640D01*
X95737679Y-52887772D01*
X95874081Y-52860640D01*
X97138849Y-52860640D01*
X96958623Y-52981063D01*
X96641460Y-53455731D01*
X96530087Y-54015640D01*
X96641460Y-54575549D01*
X96958623Y-55050217D01*
X97310958Y-55285640D01*
X96958623Y-55521063D01*
X96641460Y-55995731D01*
X96530087Y-56555640D01*
X96641460Y-57115549D01*
X96958623Y-57590217D01*
X97433291Y-57907380D01*
X97851867Y-57990640D01*
X98134533Y-57990640D01*
X98385900Y-57940640D01*
X103037995Y-57940640D01*
X104914000Y-59816645D01*
X104914001Y-72888194D01*
X102066740Y-75735455D01*
X101733823Y-75957903D01*
X101416660Y-76432571D01*
X101305287Y-76992480D01*
X101383400Y-77385180D01*
X101383400Y-77855327D01*
X101383401Y-77855332D01*
X101383400Y-79850538D01*
X101233400Y-80212670D01*
X101233400Y-80823330D01*
X101467090Y-81387507D01*
X101636308Y-81556725D01*
X101620635Y-81559843D01*
X101410591Y-81700191D01*
X101270243Y-81910235D01*
X101220960Y-82158000D01*
X101220960Y-83958000D01*
X101270243Y-84205765D01*
X101383400Y-84375116D01*
X101383401Y-85540136D01*
X101233400Y-85902270D01*
X101233400Y-86512930D01*
X101467090Y-87077107D01*
X101502583Y-87112600D01*
X100524639Y-87112600D01*
X91932000Y-78519962D01*
X91932000Y-72073511D01*
X91964031Y-71912480D01*
X91837136Y-71274535D01*
X91650566Y-70995314D01*
X92066315Y-70912616D01*
X92333371Y-70734175D01*
X92333370Y-76719690D01*
X92301339Y-76880720D01*
X92333370Y-77041750D01*
X92428234Y-77518664D01*
X92789601Y-78059489D01*
X92926120Y-78150708D01*
X93503240Y-78727829D01*
X93503240Y-79342990D01*
X93598104Y-79819904D01*
X93959471Y-80360729D01*
X94500295Y-80722096D01*
X95138240Y-80848991D01*
X95776184Y-80722096D01*
X96317009Y-80360729D01*
X96678376Y-79819905D01*
X96773240Y-79342991D01*
X96773240Y-78211619D01*
X96805271Y-78050589D01*
X96764468Y-77845460D01*
X96678376Y-77412645D01*
X96317009Y-76871821D01*
X96180492Y-76780603D01*
X95603370Y-76203482D01*
X95603370Y-68467480D01*
X96795842Y-68467480D01*
X96565260Y-68812571D01*
X96453887Y-69372480D01*
X96565260Y-69932389D01*
X96882423Y-70407057D01*
X97234758Y-70642480D01*
X96882423Y-70877903D01*
X96565260Y-71352571D01*
X96453887Y-71912480D01*
X96565260Y-72472389D01*
X96882423Y-72947057D01*
X97357091Y-73264220D01*
X97775667Y-73347480D01*
X98058333Y-73347480D01*
X98476909Y-73264220D01*
X98951577Y-72947057D01*
X99268740Y-72472389D01*
X99380113Y-71912480D01*
X99268740Y-71352571D01*
X98951577Y-70877903D01*
X98599242Y-70642480D01*
X98951577Y-70407057D01*
X99268740Y-69932389D01*
X99380113Y-69372480D01*
X99268740Y-68812571D01*
X98951577Y-68337903D01*
X98779237Y-68222749D01*
X99095769Y-68011249D01*
X99457136Y-67470425D01*
X99584031Y-66832480D01*
X99457136Y-66194535D01*
X99278696Y-65927480D01*
X102929431Y-65927480D01*
X103406345Y-65832616D01*
X103947169Y-65471249D01*
X104308536Y-64930425D01*
X104435431Y-64292480D01*
X104308536Y-63654535D01*
X103947169Y-63113711D01*
X103406345Y-62752344D01*
X102929431Y-62657480D01*
X97755969Y-62657480D01*
X97279055Y-62752344D01*
X96738231Y-63113711D01*
X96376864Y-63654535D01*
X96249969Y-64292480D01*
X96376864Y-64930425D01*
X96555304Y-65197480D01*
X94129401Y-65197480D01*
X93968370Y-65165449D01*
X93807339Y-65197480D01*
X93330425Y-65292344D01*
X92789601Y-65653711D01*
X92698384Y-65790227D01*
X91742861Y-66745750D01*
X91648740Y-66272571D01*
X91331577Y-65797903D01*
X91210894Y-65717265D01*
X91344765Y-65690637D01*
X91554809Y-65550289D01*
X91695157Y-65340245D01*
X91744440Y-65092480D01*
X91744440Y-63492480D01*
X91695157Y-63244715D01*
X91554809Y-63034671D01*
X91344765Y-62894323D01*
X91097000Y-62845040D01*
X89497000Y-62845040D01*
X89249235Y-62894323D01*
X89039191Y-63034671D01*
X88898843Y-63244715D01*
X88849560Y-63492480D01*
X88849560Y-65092480D01*
X88898843Y-65340245D01*
X89039191Y-65550289D01*
X89249235Y-65690637D01*
X89383106Y-65717265D01*
X89262423Y-65797903D01*
X88945260Y-66272571D01*
X88833887Y-66832480D01*
X88945260Y-67392389D01*
X89262423Y-67867057D01*
X89434763Y-67982211D01*
X89118231Y-68193711D01*
X88756864Y-68734535D01*
X88629969Y-69372480D01*
X88756864Y-70010425D01*
X88935304Y-70277480D01*
X80762160Y-70277480D01*
X80625687Y-70141007D01*
X90843973Y-59922721D01*
X101394360Y-59922721D01*
X101394360Y-60493599D01*
X101612826Y-61021022D01*
X102016498Y-61424694D01*
X102543921Y-61643160D01*
X103114799Y-61643160D01*
X103642222Y-61424694D01*
X104045894Y-61021022D01*
X104264360Y-60493599D01*
X104264360Y-59922721D01*
X104045894Y-59395298D01*
X103642222Y-58991626D01*
X103114799Y-58773160D01*
X102543921Y-58773160D01*
X102016498Y-58991626D01*
X101612826Y-59395298D01*
X101394360Y-59922721D01*
X90843973Y-59922721D01*
X91415453Y-59351242D01*
X91551969Y-59260025D01*
X91913336Y-58719201D01*
X92008200Y-58242287D01*
X92040231Y-58081257D01*
X92008200Y-57920227D01*
X92008200Y-56394609D01*
X91913336Y-55917695D01*
X91551969Y-55376871D01*
X91235437Y-55165371D01*
X91407777Y-55050217D01*
X91724940Y-54575549D01*
X91836313Y-54015640D01*
X91724940Y-53455731D01*
X91407777Y-52981063D01*
X91055442Y-52745640D01*
X91407777Y-52510217D01*
X91724940Y-52035549D01*
X91836313Y-51475640D01*
X91724940Y-50915731D01*
X91407777Y-50441063D01*
X91287094Y-50360425D01*
X91420965Y-50333797D01*
X91631009Y-50193449D01*
X91771357Y-49983405D01*
X91820640Y-49735640D01*
X91820640Y-48135640D01*
X91771357Y-47887875D01*
X91631009Y-47677831D01*
X91420965Y-47537483D01*
X91264296Y-47506320D01*
X91597835Y-47506320D01*
X93473840Y-49382325D01*
X93473840Y-49382325D01*
G37*
X93473840Y-49382325D02*
X93473841Y-50460389D01*
X93446707Y-50596800D01*
X93554199Y-51137199D01*
X93696078Y-51349536D01*
X93860312Y-51595329D01*
X93975953Y-51672598D01*
X94661879Y-52358523D01*
X94739151Y-52474169D01*
X95197280Y-52780281D01*
X95601273Y-52860640D01*
X95601277Y-52860640D01*
X95737679Y-52887772D01*
X95874081Y-52860640D01*
X97138849Y-52860640D01*
X96958623Y-52981063D01*
X96641460Y-53455731D01*
X96530087Y-54015640D01*
X96641460Y-54575549D01*
X96958623Y-55050217D01*
X97310958Y-55285640D01*
X96958623Y-55521063D01*
X96641460Y-55995731D01*
X96530087Y-56555640D01*
X96641460Y-57115549D01*
X96958623Y-57590217D01*
X97433291Y-57907380D01*
X97851867Y-57990640D01*
X98134533Y-57990640D01*
X98385900Y-57940640D01*
X103037995Y-57940640D01*
X104914000Y-59816645D01*
X104914001Y-72888194D01*
X102066740Y-75735455D01*
X101733823Y-75957903D01*
X101416660Y-76432571D01*
X101305287Y-76992480D01*
X101383400Y-77385180D01*
X101383400Y-77855327D01*
X101383401Y-77855332D01*
X101383400Y-79850538D01*
X101233400Y-80212670D01*
X101233400Y-80823330D01*
X101467090Y-81387507D01*
X101636308Y-81556725D01*
X101620635Y-81559843D01*
X101410591Y-81700191D01*
X101270243Y-81910235D01*
X101220960Y-82158000D01*
X101220960Y-83958000D01*
X101270243Y-84205765D01*
X101383400Y-84375116D01*
X101383401Y-85540136D01*
X101233400Y-85902270D01*
X101233400Y-86512930D01*
X101467090Y-87077107D01*
X101502583Y-87112600D01*
X100524639Y-87112600D01*
X91932000Y-78519962D01*
X91932000Y-72073511D01*
X91964031Y-71912480D01*
X91837136Y-71274535D01*
X91650566Y-70995314D01*
X92066315Y-70912616D01*
X92333371Y-70734175D01*
X92333370Y-76719690D01*
X92301339Y-76880720D01*
X92333370Y-77041750D01*
X92428234Y-77518664D01*
X92789601Y-78059489D01*
X92926120Y-78150708D01*
X93503240Y-78727829D01*
X93503240Y-79342990D01*
X93598104Y-79819904D01*
X93959471Y-80360729D01*
X94500295Y-80722096D01*
X95138240Y-80848991D01*
X95776184Y-80722096D01*
X96317009Y-80360729D01*
X96678376Y-79819905D01*
X96773240Y-79342991D01*
X96773240Y-78211619D01*
X96805271Y-78050589D01*
X96764468Y-77845460D01*
X96678376Y-77412645D01*
X96317009Y-76871821D01*
X96180492Y-76780603D01*
X95603370Y-76203482D01*
X95603370Y-68467480D01*
X96795842Y-68467480D01*
X96565260Y-68812571D01*
X96453887Y-69372480D01*
X96565260Y-69932389D01*
X96882423Y-70407057D01*
X97234758Y-70642480D01*
X96882423Y-70877903D01*
X96565260Y-71352571D01*
X96453887Y-71912480D01*
X96565260Y-72472389D01*
X96882423Y-72947057D01*
X97357091Y-73264220D01*
X97775667Y-73347480D01*
X98058333Y-73347480D01*
X98476909Y-73264220D01*
X98951577Y-72947057D01*
X99268740Y-72472389D01*
X99380113Y-71912480D01*
X99268740Y-71352571D01*
X98951577Y-70877903D01*
X98599242Y-70642480D01*
X98951577Y-70407057D01*
X99268740Y-69932389D01*
X99380113Y-69372480D01*
X99268740Y-68812571D01*
X98951577Y-68337903D01*
X98779237Y-68222749D01*
X99095769Y-68011249D01*
X99457136Y-67470425D01*
X99584031Y-66832480D01*
X99457136Y-66194535D01*
X99278696Y-65927480D01*
X102929431Y-65927480D01*
X103406345Y-65832616D01*
X103947169Y-65471249D01*
X104308536Y-64930425D01*
X104435431Y-64292480D01*
X104308536Y-63654535D01*
X103947169Y-63113711D01*
X103406345Y-62752344D01*
X102929431Y-62657480D01*
X97755969Y-62657480D01*
X97279055Y-62752344D01*
X96738231Y-63113711D01*
X96376864Y-63654535D01*
X96249969Y-64292480D01*
X96376864Y-64930425D01*
X96555304Y-65197480D01*
X94129401Y-65197480D01*
X93968370Y-65165449D01*
X93807339Y-65197480D01*
X93330425Y-65292344D01*
X92789601Y-65653711D01*
X92698384Y-65790227D01*
X91742861Y-66745750D01*
X91648740Y-66272571D01*
X91331577Y-65797903D01*
X91210894Y-65717265D01*
X91344765Y-65690637D01*
X91554809Y-65550289D01*
X91695157Y-65340245D01*
X91744440Y-65092480D01*
X91744440Y-63492480D01*
X91695157Y-63244715D01*
X91554809Y-63034671D01*
X91344765Y-62894323D01*
X91097000Y-62845040D01*
X89497000Y-62845040D01*
X89249235Y-62894323D01*
X89039191Y-63034671D01*
X88898843Y-63244715D01*
X88849560Y-63492480D01*
X88849560Y-65092480D01*
X88898843Y-65340245D01*
X89039191Y-65550289D01*
X89249235Y-65690637D01*
X89383106Y-65717265D01*
X89262423Y-65797903D01*
X88945260Y-66272571D01*
X88833887Y-66832480D01*
X88945260Y-67392389D01*
X89262423Y-67867057D01*
X89434763Y-67982211D01*
X89118231Y-68193711D01*
X88756864Y-68734535D01*
X88629969Y-69372480D01*
X88756864Y-70010425D01*
X88935304Y-70277480D01*
X80762160Y-70277480D01*
X80625687Y-70141007D01*
X90843973Y-59922721D01*
X101394360Y-59922721D01*
X101394360Y-60493599D01*
X101612826Y-61021022D01*
X102016498Y-61424694D01*
X102543921Y-61643160D01*
X103114799Y-61643160D01*
X103642222Y-61424694D01*
X104045894Y-61021022D01*
X104264360Y-60493599D01*
X104264360Y-59922721D01*
X104045894Y-59395298D01*
X103642222Y-58991626D01*
X103114799Y-58773160D01*
X102543921Y-58773160D01*
X102016498Y-58991626D01*
X101612826Y-59395298D01*
X101394360Y-59922721D01*
X90843973Y-59922721D01*
X91415453Y-59351242D01*
X91551969Y-59260025D01*
X91913336Y-58719201D01*
X92008200Y-58242287D01*
X92040231Y-58081257D01*
X92008200Y-57920227D01*
X92008200Y-56394609D01*
X91913336Y-55917695D01*
X91551969Y-55376871D01*
X91235437Y-55165371D01*
X91407777Y-55050217D01*
X91724940Y-54575549D01*
X91836313Y-54015640D01*
X91724940Y-53455731D01*
X91407777Y-52981063D01*
X91055442Y-52745640D01*
X91407777Y-52510217D01*
X91724940Y-52035549D01*
X91836313Y-51475640D01*
X91724940Y-50915731D01*
X91407777Y-50441063D01*
X91287094Y-50360425D01*
X91420965Y-50333797D01*
X91631009Y-50193449D01*
X91771357Y-49983405D01*
X91820640Y-49735640D01*
X91820640Y-48135640D01*
X91771357Y-47887875D01*
X91631009Y-47677831D01*
X91420965Y-47537483D01*
X91264296Y-47506320D01*
X91597835Y-47506320D01*
X93473840Y-49382325D01*
G36*
X89447047Y-43677086D02*
X90047978Y-43926000D01*
X90698422Y-43926000D01*
X91299353Y-43677086D01*
X91300439Y-43676000D01*
X92029635Y-43676000D01*
X95808201Y-47454567D01*
X95808201Y-47777259D01*
X95741727Y-47732842D01*
X93247320Y-45238435D01*
X93170049Y-45122791D01*
X92711920Y-44816679D01*
X92307927Y-44736320D01*
X92171520Y-44709187D01*
X92035113Y-44736320D01*
X89098704Y-44736320D01*
X88962297Y-44709187D01*
X88825890Y-44736320D01*
X88617399Y-44777791D01*
X87194824Y-44758211D01*
X87026224Y-44730224D01*
X86788651Y-44785400D01*
X86548807Y-44829686D01*
X86521373Y-44847476D01*
X86489522Y-44854873D01*
X86291143Y-44996768D01*
X86086509Y-45129463D01*
X85989611Y-45270247D01*
X80922124Y-50671316D01*
X80825032Y-50736191D01*
X80735407Y-50870324D01*
X80720190Y-50886543D01*
X80659720Y-50983598D01*
X80518920Y-51194320D01*
X80514460Y-51216741D01*
X80502370Y-51236146D01*
X80460866Y-51486176D01*
X80438561Y-51598313D01*
X80438561Y-51620550D01*
X80412144Y-51779694D01*
X80438561Y-51893439D01*
X80438560Y-56109817D01*
X76544396Y-60541830D01*
X76466392Y-60593951D01*
X76364137Y-60746986D01*
X76334447Y-60780777D01*
X76288506Y-60860177D01*
X76160280Y-61052080D01*
X76151275Y-61097350D01*
X76128157Y-61137305D01*
X76097813Y-61366123D01*
X76079921Y-61456073D01*
X76079921Y-61501045D01*
X76055724Y-61683510D01*
X76079921Y-61774155D01*
X76079921Y-62481838D01*
X76017155Y-62494323D01*
X75807111Y-62634671D01*
X75666763Y-62844715D01*
X75617480Y-63092480D01*
X75617480Y-65492480D01*
X75666763Y-65740245D01*
X75807111Y-65950289D01*
X76017155Y-66090637D01*
X76264920Y-66139920D01*
X78664920Y-66139920D01*
X78912685Y-66090637D01*
X79122729Y-65950289D01*
X79263077Y-65740245D01*
X79312360Y-65492480D01*
X79312360Y-63092480D01*
X79263077Y-62844715D01*
X79122729Y-62634671D01*
X78912685Y-62494323D01*
X78849920Y-62481838D01*
X78849920Y-62114502D01*
X82744084Y-57682490D01*
X82822088Y-57630369D01*
X82924344Y-57477332D01*
X82954033Y-57443543D01*
X82999971Y-57364150D01*
X83128201Y-57172240D01*
X83137206Y-57126967D01*
X83160323Y-57087015D01*
X83190665Y-56858212D01*
X83208560Y-56768247D01*
X83208560Y-56723268D01*
X83232756Y-56540810D01*
X83208560Y-56450168D01*
X83208560Y-52282728D01*
X83433398Y-52043090D01*
X83403547Y-52193160D01*
X83430681Y-52329572D01*
X83430680Y-56144410D01*
X83380680Y-56265121D01*
X83380680Y-56835999D01*
X83599146Y-57363422D01*
X84002818Y-57767094D01*
X84530241Y-57985560D01*
X85101119Y-57985560D01*
X85628542Y-57767094D01*
X86032214Y-57363422D01*
X86250680Y-56835999D01*
X86250680Y-56265121D01*
X86200680Y-56144410D01*
X86200680Y-52766845D01*
X88646886Y-50320640D01*
X89305744Y-50320640D01*
X89325435Y-50333797D01*
X89459306Y-50360425D01*
X89338623Y-50441063D01*
X89021460Y-50915731D01*
X88910087Y-51475640D01*
X89021460Y-52035549D01*
X89338623Y-52510217D01*
X89690958Y-52745640D01*
X89338623Y-52981063D01*
X89021460Y-53455731D01*
X88910087Y-54015640D01*
X89021460Y-54575549D01*
X89338623Y-55050217D01*
X89510963Y-55165371D01*
X89194431Y-55376871D01*
X88833064Y-55917696D01*
X88738200Y-56394610D01*
X88738200Y-57404017D01*
X78635394Y-67506823D01*
X78297956Y-67281354D01*
X77675199Y-67157480D01*
X75542840Y-67157480D01*
X75542840Y-49596901D01*
X75569973Y-49460495D01*
X75512479Y-49171455D01*
X75462481Y-48920096D01*
X75156368Y-48461967D01*
X75065842Y-48401480D01*
X75188958Y-48278364D01*
X75468320Y-47603924D01*
X75468320Y-46873916D01*
X75188958Y-46199476D01*
X74672764Y-45683282D01*
X73998324Y-45403920D01*
X73268316Y-45403920D01*
X72785473Y-45603920D01*
X69588710Y-45603920D01*
X70143951Y-45048680D01*
X76998320Y-45048680D01*
X76998320Y-45565870D01*
X76975511Y-45581111D01*
X76835163Y-45791155D01*
X76785880Y-46038920D01*
X76785880Y-48438920D01*
X76835163Y-48686685D01*
X76975511Y-48896729D01*
X77185555Y-49037077D01*
X77433320Y-49086360D01*
X79833320Y-49086360D01*
X80081085Y-49037077D01*
X80291129Y-48896729D01*
X80431477Y-48686685D01*
X80480760Y-48438920D01*
X80480760Y-46038920D01*
X80431477Y-45791155D01*
X80291129Y-45581111D01*
X80268320Y-45565870D01*
X80268320Y-44798680D01*
X82652099Y-44798680D01*
X82685781Y-44849089D01*
X83143910Y-45155201D01*
X83547903Y-45235560D01*
X83684310Y-45262693D01*
X83820717Y-45235560D01*
X84422980Y-45235560D01*
X84674347Y-45285560D01*
X84957013Y-45285560D01*
X85375589Y-45202300D01*
X85850257Y-44885137D01*
X86072705Y-44552221D01*
X86948926Y-43676000D01*
X89445961Y-43676000D01*
X89447047Y-43677086D01*
X89447047Y-43677086D01*
G37*
X89447047Y-43677086D02*
X90047978Y-43926000D01*
X90698422Y-43926000D01*
X91299353Y-43677086D01*
X91300439Y-43676000D01*
X92029635Y-43676000D01*
X95808201Y-47454567D01*
X95808201Y-47777259D01*
X95741727Y-47732842D01*
X93247320Y-45238435D01*
X93170049Y-45122791D01*
X92711920Y-44816679D01*
X92307927Y-44736320D01*
X92171520Y-44709187D01*
X92035113Y-44736320D01*
X89098704Y-44736320D01*
X88962297Y-44709187D01*
X88825890Y-44736320D01*
X88617399Y-44777791D01*
X87194824Y-44758211D01*
X87026224Y-44730224D01*
X86788651Y-44785400D01*
X86548807Y-44829686D01*
X86521373Y-44847476D01*
X86489522Y-44854873D01*
X86291143Y-44996768D01*
X86086509Y-45129463D01*
X85989611Y-45270247D01*
X80922124Y-50671316D01*
X80825032Y-50736191D01*
X80735407Y-50870324D01*
X80720190Y-50886543D01*
X80659720Y-50983598D01*
X80518920Y-51194320D01*
X80514460Y-51216741D01*
X80502370Y-51236146D01*
X80460866Y-51486176D01*
X80438561Y-51598313D01*
X80438561Y-51620550D01*
X80412144Y-51779694D01*
X80438561Y-51893439D01*
X80438560Y-56109817D01*
X76544396Y-60541830D01*
X76466392Y-60593951D01*
X76364137Y-60746986D01*
X76334447Y-60780777D01*
X76288506Y-60860177D01*
X76160280Y-61052080D01*
X76151275Y-61097350D01*
X76128157Y-61137305D01*
X76097813Y-61366123D01*
X76079921Y-61456073D01*
X76079921Y-61501045D01*
X76055724Y-61683510D01*
X76079921Y-61774155D01*
X76079921Y-62481838D01*
X76017155Y-62494323D01*
X75807111Y-62634671D01*
X75666763Y-62844715D01*
X75617480Y-63092480D01*
X75617480Y-65492480D01*
X75666763Y-65740245D01*
X75807111Y-65950289D01*
X76017155Y-66090637D01*
X76264920Y-66139920D01*
X78664920Y-66139920D01*
X78912685Y-66090637D01*
X79122729Y-65950289D01*
X79263077Y-65740245D01*
X79312360Y-65492480D01*
X79312360Y-63092480D01*
X79263077Y-62844715D01*
X79122729Y-62634671D01*
X78912685Y-62494323D01*
X78849920Y-62481838D01*
X78849920Y-62114502D01*
X82744084Y-57682490D01*
X82822088Y-57630369D01*
X82924344Y-57477332D01*
X82954033Y-57443543D01*
X82999971Y-57364150D01*
X83128201Y-57172240D01*
X83137206Y-57126967D01*
X83160323Y-57087015D01*
X83190665Y-56858212D01*
X83208560Y-56768247D01*
X83208560Y-56723268D01*
X83232756Y-56540810D01*
X83208560Y-56450168D01*
X83208560Y-52282728D01*
X83433398Y-52043090D01*
X83403547Y-52193160D01*
X83430681Y-52329572D01*
X83430680Y-56144410D01*
X83380680Y-56265121D01*
X83380680Y-56835999D01*
X83599146Y-57363422D01*
X84002818Y-57767094D01*
X84530241Y-57985560D01*
X85101119Y-57985560D01*
X85628542Y-57767094D01*
X86032214Y-57363422D01*
X86250680Y-56835999D01*
X86250680Y-56265121D01*
X86200680Y-56144410D01*
X86200680Y-52766845D01*
X88646886Y-50320640D01*
X89305744Y-50320640D01*
X89325435Y-50333797D01*
X89459306Y-50360425D01*
X89338623Y-50441063D01*
X89021460Y-50915731D01*
X88910087Y-51475640D01*
X89021460Y-52035549D01*
X89338623Y-52510217D01*
X89690958Y-52745640D01*
X89338623Y-52981063D01*
X89021460Y-53455731D01*
X88910087Y-54015640D01*
X89021460Y-54575549D01*
X89338623Y-55050217D01*
X89510963Y-55165371D01*
X89194431Y-55376871D01*
X88833064Y-55917696D01*
X88738200Y-56394610D01*
X88738200Y-57404017D01*
X78635394Y-67506823D01*
X78297956Y-67281354D01*
X77675199Y-67157480D01*
X75542840Y-67157480D01*
X75542840Y-49596901D01*
X75569973Y-49460495D01*
X75512479Y-49171455D01*
X75462481Y-48920096D01*
X75156368Y-48461967D01*
X75065842Y-48401480D01*
X75188958Y-48278364D01*
X75468320Y-47603924D01*
X75468320Y-46873916D01*
X75188958Y-46199476D01*
X74672764Y-45683282D01*
X73998324Y-45403920D01*
X73268316Y-45403920D01*
X72785473Y-45603920D01*
X69588710Y-45603920D01*
X70143951Y-45048680D01*
X76998320Y-45048680D01*
X76998320Y-45565870D01*
X76975511Y-45581111D01*
X76835163Y-45791155D01*
X76785880Y-46038920D01*
X76785880Y-48438920D01*
X76835163Y-48686685D01*
X76975511Y-48896729D01*
X77185555Y-49037077D01*
X77433320Y-49086360D01*
X79833320Y-49086360D01*
X80081085Y-49037077D01*
X80291129Y-48896729D01*
X80431477Y-48686685D01*
X80480760Y-48438920D01*
X80480760Y-46038920D01*
X80431477Y-45791155D01*
X80291129Y-45581111D01*
X80268320Y-45565870D01*
X80268320Y-44798680D01*
X82652099Y-44798680D01*
X82685781Y-44849089D01*
X83143910Y-45155201D01*
X83547903Y-45235560D01*
X83684310Y-45262693D01*
X83820717Y-45235560D01*
X84422980Y-45235560D01*
X84674347Y-45285560D01*
X84957013Y-45285560D01*
X85375589Y-45202300D01*
X85850257Y-44885137D01*
X86072705Y-44552221D01*
X86948926Y-43676000D01*
X89445961Y-43676000D01*
X89447047Y-43677086D01*
G36*
X96310314Y-49211439D02*
X96736174Y-49637298D01*
X96958623Y-49970217D01*
X97138849Y-50090640D01*
X96311364Y-50090640D01*
X96243840Y-50023115D01*
X96243840Y-49167022D01*
X96310314Y-49211439D01*
X96310314Y-49211439D01*
G37*
X96310314Y-49211439D02*
X96736174Y-49637298D01*
X96958623Y-49970217D01*
X97138849Y-50090640D01*
X96311364Y-50090640D01*
X96243840Y-50023115D01*
X96243840Y-49167022D01*
X96310314Y-49211439D01*
G36*
X87993005Y-47539459D02*
X87769583Y-47583900D01*
X87582212Y-47621170D01*
X87663137Y-47534918D01*
X87993005Y-47539459D01*
X87993005Y-47539459D01*
G37*
X87993005Y-47539459D02*
X87769583Y-47583900D01*
X87582212Y-47621170D01*
X87663137Y-47534918D01*
X87993005Y-47539459D01*
G36*
X89325435Y-47537483D02*
X89305744Y-47550640D01*
X89060022Y-47550640D01*
X89177458Y-47527281D01*
X89290977Y-47506320D01*
X89482104Y-47506320D01*
X89325435Y-47537483D01*
X89325435Y-47537483D01*
G37*
X89325435Y-47537483D02*
X89305744Y-47550640D01*
X89060022Y-47550640D01*
X89177458Y-47527281D01*
X89290977Y-47506320D01*
X89482104Y-47506320D01*
X89325435Y-47537483D01*
G36*
X88770737Y-47550164D02*
X88773132Y-47550640D01*
X88209607Y-47550640D01*
X88165319Y-47541830D01*
X88770737Y-47550164D01*
X88770737Y-47550164D01*
G37*
X88770737Y-47550164D02*
X88773132Y-47550640D01*
X88209607Y-47550640D01*
X88165319Y-47541830D01*
X88770737Y-47550164D01*
G36*
X87171477Y-35007706D02*
X86597575Y-35391175D01*
X86214106Y-35965077D01*
X86079450Y-36642040D01*
X86214106Y-37319003D01*
X86463440Y-37692158D01*
X86463441Y-39629829D01*
X86436307Y-39766240D01*
X86543799Y-40306639D01*
X86761211Y-40632019D01*
X86849912Y-40764769D01*
X86965552Y-40842037D01*
X87029515Y-40906000D01*
X86511647Y-40906000D01*
X86375240Y-40878867D01*
X86238833Y-40906000D01*
X85834840Y-40986359D01*
X85376711Y-41292471D01*
X85299443Y-41408111D01*
X84264562Y-42442993D01*
X84245959Y-42415151D01*
X83787830Y-42109039D01*
X83383837Y-42028680D01*
X83247430Y-42001547D01*
X83111023Y-42028680D01*
X78878202Y-42028680D01*
X78646025Y-41873544D01*
X78169111Y-41778680D01*
X78169110Y-41778680D01*
X78008080Y-41746649D01*
X77847050Y-41778680D01*
X69627737Y-41778680D01*
X69466711Y-41746650D01*
X69305685Y-41778680D01*
X69305681Y-41778680D01*
X68828767Y-41873544D01*
X68287943Y-42234911D01*
X68196726Y-42371428D01*
X67463594Y-43104560D01*
X66707009Y-43104560D01*
X66230095Y-43199424D01*
X65689271Y-43560791D01*
X65327904Y-44101615D01*
X65201009Y-44739560D01*
X65327904Y-45377505D01*
X65506344Y-45644560D01*
X65010359Y-45644560D01*
X64677800Y-45312002D01*
X64677800Y-42942838D01*
X66305759Y-41314880D01*
X73347850Y-41314880D01*
X73508880Y-41346911D01*
X73669910Y-41314880D01*
X73669911Y-41314880D01*
X74146825Y-41220016D01*
X74687649Y-40858649D01*
X74778868Y-40722130D01*
X80160201Y-35340798D01*
X80643044Y-35140798D01*
X80813682Y-34970160D01*
X87360234Y-34970160D01*
X87171477Y-35007706D01*
X87171477Y-35007706D01*
G37*
X87171477Y-35007706D02*
X86597575Y-35391175D01*
X86214106Y-35965077D01*
X86079450Y-36642040D01*
X86214106Y-37319003D01*
X86463440Y-37692158D01*
X86463441Y-39629829D01*
X86436307Y-39766240D01*
X86543799Y-40306639D01*
X86761211Y-40632019D01*
X86849912Y-40764769D01*
X86965552Y-40842037D01*
X87029515Y-40906000D01*
X86511647Y-40906000D01*
X86375240Y-40878867D01*
X86238833Y-40906000D01*
X85834840Y-40986359D01*
X85376711Y-41292471D01*
X85299443Y-41408111D01*
X84264562Y-42442993D01*
X84245959Y-42415151D01*
X83787830Y-42109039D01*
X83383837Y-42028680D01*
X83247430Y-42001547D01*
X83111023Y-42028680D01*
X78878202Y-42028680D01*
X78646025Y-41873544D01*
X78169111Y-41778680D01*
X78169110Y-41778680D01*
X78008080Y-41746649D01*
X77847050Y-41778680D01*
X69627737Y-41778680D01*
X69466711Y-41746650D01*
X69305685Y-41778680D01*
X69305681Y-41778680D01*
X68828767Y-41873544D01*
X68287943Y-42234911D01*
X68196726Y-42371428D01*
X67463594Y-43104560D01*
X66707009Y-43104560D01*
X66230095Y-43199424D01*
X65689271Y-43560791D01*
X65327904Y-44101615D01*
X65201009Y-44739560D01*
X65327904Y-45377505D01*
X65506344Y-45644560D01*
X65010359Y-45644560D01*
X64677800Y-45312002D01*
X64677800Y-42942838D01*
X66305759Y-41314880D01*
X73347850Y-41314880D01*
X73508880Y-41346911D01*
X73669910Y-41314880D01*
X73669911Y-41314880D01*
X74146825Y-41220016D01*
X74687649Y-40858649D01*
X74778868Y-40722130D01*
X80160201Y-35340798D01*
X80643044Y-35140798D01*
X80813682Y-34970160D01*
X87360234Y-34970160D01*
X87171477Y-35007706D01*
G36*
X115808201Y-37576114D02*
X115808201Y-37832478D01*
X115685043Y-38016795D01*
X115635760Y-38264560D01*
X115635760Y-39784560D01*
X115685043Y-40032325D01*
X115825391Y-40242369D01*
X116035435Y-40382717D01*
X116216249Y-40418683D01*
X116117692Y-40517240D01*
X116044671Y-40566031D01*
X115995880Y-40639052D01*
X115860576Y-40774356D01*
X115787350Y-40951139D01*
X115738559Y-41024160D01*
X115721426Y-41110294D01*
X115648200Y-41287077D01*
X115648200Y-41478426D01*
X115631067Y-41564560D01*
X115648200Y-41650694D01*
X115648200Y-41842043D01*
X115721426Y-42018826D01*
X115738559Y-42104960D01*
X115787350Y-42177981D01*
X115860576Y-42354764D01*
X115995880Y-42490068D01*
X116044671Y-42563089D01*
X116117692Y-42611880D01*
X116225372Y-42719560D01*
X114558321Y-42719560D01*
X114421919Y-42692428D01*
X114285517Y-42719560D01*
X114285513Y-42719560D01*
X114257520Y-42725128D01*
X114257520Y-42053780D01*
X114335633Y-41661080D01*
X114224260Y-41101171D01*
X114107520Y-40926457D01*
X114107520Y-38023512D01*
X114131714Y-37901880D01*
X114107520Y-37780248D01*
X114107520Y-37780244D01*
X114035864Y-37420007D01*
X113925093Y-37254226D01*
X113831806Y-37114612D01*
X113831805Y-37114611D01*
X113762905Y-37011495D01*
X113659789Y-36942596D01*
X112571967Y-35854773D01*
X112503065Y-35751655D01*
X112232277Y-35570720D01*
X113802807Y-35570720D01*
X115808201Y-37576114D01*
X115808201Y-37576114D01*
G37*
X115808201Y-37576114D02*
X115808201Y-37832478D01*
X115685043Y-38016795D01*
X115635760Y-38264560D01*
X115635760Y-39784560D01*
X115685043Y-40032325D01*
X115825391Y-40242369D01*
X116035435Y-40382717D01*
X116216249Y-40418683D01*
X116117692Y-40517240D01*
X116044671Y-40566031D01*
X115995880Y-40639052D01*
X115860576Y-40774356D01*
X115787350Y-40951139D01*
X115738559Y-41024160D01*
X115721426Y-41110294D01*
X115648200Y-41287077D01*
X115648200Y-41478426D01*
X115631067Y-41564560D01*
X115648200Y-41650694D01*
X115648200Y-41842043D01*
X115721426Y-42018826D01*
X115738559Y-42104960D01*
X115787350Y-42177981D01*
X115860576Y-42354764D01*
X115995880Y-42490068D01*
X116044671Y-42563089D01*
X116117692Y-42611880D01*
X116225372Y-42719560D01*
X114558321Y-42719560D01*
X114421919Y-42692428D01*
X114285517Y-42719560D01*
X114285513Y-42719560D01*
X114257520Y-42725128D01*
X114257520Y-42053780D01*
X114335633Y-41661080D01*
X114224260Y-41101171D01*
X114107520Y-40926457D01*
X114107520Y-38023512D01*
X114131714Y-37901880D01*
X114107520Y-37780248D01*
X114107520Y-37780244D01*
X114035864Y-37420007D01*
X113925093Y-37254226D01*
X113831806Y-37114612D01*
X113831805Y-37114611D01*
X113762905Y-37011495D01*
X113659789Y-36942596D01*
X112571967Y-35854773D01*
X112503065Y-35751655D01*
X112232277Y-35570720D01*
X113802807Y-35570720D01*
X115808201Y-37576114D01*
G36*
X115952821Y-29554890D02*
X116411139Y-29861128D01*
X116951760Y-29968664D01*
X117101420Y-29938895D01*
X117226164Y-30022246D01*
X117848921Y-30146120D01*
X118740649Y-30146120D01*
X119683400Y-31088872D01*
X119683400Y-31549881D01*
X119641573Y-31760160D01*
X119807274Y-32593196D01*
X120279151Y-33299409D01*
X120985364Y-33771286D01*
X121400432Y-33853848D01*
X121818400Y-33936987D01*
X122028678Y-33895160D01*
X126837015Y-33895160D01*
X127780238Y-34838384D01*
X127899352Y-35016650D01*
X128077617Y-35135763D01*
X128077618Y-35135764D01*
X128514860Y-35427920D01*
X128605565Y-35488527D01*
X129018778Y-35570720D01*
X129103459Y-35587564D01*
X129591825Y-36075931D01*
X130001295Y-36688745D01*
X130227641Y-36839984D01*
X130227640Y-38430554D01*
X125938635Y-42719560D01*
X125239594Y-42719560D01*
X125473769Y-42563089D01*
X125551039Y-42447446D01*
X126490970Y-41507516D01*
X126606608Y-41430249D01*
X126683875Y-41314611D01*
X126683877Y-41314609D01*
X126912721Y-40972120D01*
X127020213Y-40431720D01*
X126993080Y-40295313D01*
X126993080Y-36585405D01*
X127020213Y-36448999D01*
X126992725Y-36310808D01*
X126912721Y-35908600D01*
X126606609Y-35450471D01*
X126490968Y-35373202D01*
X125662795Y-34545030D01*
X125585528Y-34429392D01*
X125469889Y-34352124D01*
X125469888Y-34352123D01*
X125327685Y-34257106D01*
X125127400Y-34123279D01*
X124587000Y-34015787D01*
X124220743Y-34088640D01*
X122265190Y-34088640D01*
X122144479Y-34038640D01*
X121573601Y-34038640D01*
X121046178Y-34257106D01*
X120642506Y-34660778D01*
X120588646Y-34790808D01*
X120353617Y-34439063D01*
X119878949Y-34121900D01*
X119460373Y-34038640D01*
X119177707Y-34038640D01*
X118759131Y-34121900D01*
X118284463Y-34439063D01*
X117967300Y-34913731D01*
X117855927Y-35473640D01*
X117967300Y-36033549D01*
X118284463Y-36508217D01*
X118759131Y-36825380D01*
X119177707Y-36908640D01*
X119460373Y-36908640D01*
X119878949Y-36825380D01*
X120353617Y-36508217D01*
X120588646Y-36156472D01*
X120642506Y-36286502D01*
X121046178Y-36690174D01*
X121573601Y-36908640D01*
X122144479Y-36908640D01*
X122265190Y-36858640D01*
X124059035Y-36858640D01*
X124223081Y-37022686D01*
X124223080Y-39858034D01*
X123901555Y-40179560D01*
X123118817Y-40179560D01*
X123217197Y-40032325D01*
X123266480Y-39784560D01*
X123266480Y-38264560D01*
X123217197Y-38016795D01*
X123076849Y-37806751D01*
X122866805Y-37666403D01*
X122619040Y-37617120D01*
X121099040Y-37617120D01*
X120851275Y-37666403D01*
X120666959Y-37789560D01*
X118278200Y-37789560D01*
X118278200Y-37186192D01*
X118302394Y-37064560D01*
X118278200Y-36942928D01*
X118278200Y-36942924D01*
X118206544Y-36582687D01*
X117933585Y-36174175D01*
X117830466Y-36105273D01*
X115273647Y-33548454D01*
X115204745Y-33445335D01*
X114796233Y-33172376D01*
X114435996Y-33100720D01*
X114435992Y-33100720D01*
X114314360Y-33076526D01*
X114192728Y-33100720D01*
X113357990Y-33100720D01*
X113405840Y-32860160D01*
X113405840Y-30660160D01*
X113356557Y-30412395D01*
X113216209Y-30202351D01*
X113043400Y-30086883D01*
X113043400Y-29296426D01*
X113141760Y-29149220D01*
X113412821Y-29554890D01*
X113871139Y-29861128D01*
X114411760Y-29968664D01*
X114952382Y-29861128D01*
X115410700Y-29554890D01*
X115681760Y-29149220D01*
X115952821Y-29554890D01*
X115952821Y-29554890D01*
G37*
X115952821Y-29554890D02*
X116411139Y-29861128D01*
X116951760Y-29968664D01*
X117101420Y-29938895D01*
X117226164Y-30022246D01*
X117848921Y-30146120D01*
X118740649Y-30146120D01*
X119683400Y-31088872D01*
X119683400Y-31549881D01*
X119641573Y-31760160D01*
X119807274Y-32593196D01*
X120279151Y-33299409D01*
X120985364Y-33771286D01*
X121400432Y-33853848D01*
X121818400Y-33936987D01*
X122028678Y-33895160D01*
X126837015Y-33895160D01*
X127780238Y-34838384D01*
X127899352Y-35016650D01*
X128077617Y-35135763D01*
X128077618Y-35135764D01*
X128514860Y-35427920D01*
X128605565Y-35488527D01*
X129018778Y-35570720D01*
X129103459Y-35587564D01*
X129591825Y-36075931D01*
X130001295Y-36688745D01*
X130227641Y-36839984D01*
X130227640Y-38430554D01*
X125938635Y-42719560D01*
X125239594Y-42719560D01*
X125473769Y-42563089D01*
X125551039Y-42447446D01*
X126490970Y-41507516D01*
X126606608Y-41430249D01*
X126683875Y-41314611D01*
X126683877Y-41314609D01*
X126912721Y-40972120D01*
X127020213Y-40431720D01*
X126993080Y-40295313D01*
X126993080Y-36585405D01*
X127020213Y-36448999D01*
X126992725Y-36310808D01*
X126912721Y-35908600D01*
X126606609Y-35450471D01*
X126490968Y-35373202D01*
X125662795Y-34545030D01*
X125585528Y-34429392D01*
X125469889Y-34352124D01*
X125469888Y-34352123D01*
X125327685Y-34257106D01*
X125127400Y-34123279D01*
X124587000Y-34015787D01*
X124220743Y-34088640D01*
X122265190Y-34088640D01*
X122144479Y-34038640D01*
X121573601Y-34038640D01*
X121046178Y-34257106D01*
X120642506Y-34660778D01*
X120588646Y-34790808D01*
X120353617Y-34439063D01*
X119878949Y-34121900D01*
X119460373Y-34038640D01*
X119177707Y-34038640D01*
X118759131Y-34121900D01*
X118284463Y-34439063D01*
X117967300Y-34913731D01*
X117855927Y-35473640D01*
X117967300Y-36033549D01*
X118284463Y-36508217D01*
X118759131Y-36825380D01*
X119177707Y-36908640D01*
X119460373Y-36908640D01*
X119878949Y-36825380D01*
X120353617Y-36508217D01*
X120588646Y-36156472D01*
X120642506Y-36286502D01*
X121046178Y-36690174D01*
X121573601Y-36908640D01*
X122144479Y-36908640D01*
X122265190Y-36858640D01*
X124059035Y-36858640D01*
X124223081Y-37022686D01*
X124223080Y-39858034D01*
X123901555Y-40179560D01*
X123118817Y-40179560D01*
X123217197Y-40032325D01*
X123266480Y-39784560D01*
X123266480Y-38264560D01*
X123217197Y-38016795D01*
X123076849Y-37806751D01*
X122866805Y-37666403D01*
X122619040Y-37617120D01*
X121099040Y-37617120D01*
X120851275Y-37666403D01*
X120666959Y-37789560D01*
X118278200Y-37789560D01*
X118278200Y-37186192D01*
X118302394Y-37064560D01*
X118278200Y-36942928D01*
X118278200Y-36942924D01*
X118206544Y-36582687D01*
X117933585Y-36174175D01*
X117830466Y-36105273D01*
X115273647Y-33548454D01*
X115204745Y-33445335D01*
X114796233Y-33172376D01*
X114435996Y-33100720D01*
X114435992Y-33100720D01*
X114314360Y-33076526D01*
X114192728Y-33100720D01*
X113357990Y-33100720D01*
X113405840Y-32860160D01*
X113405840Y-30660160D01*
X113356557Y-30412395D01*
X113216209Y-30202351D01*
X113043400Y-30086883D01*
X113043400Y-29296426D01*
X113141760Y-29149220D01*
X113412821Y-29554890D01*
X113871139Y-29861128D01*
X114411760Y-29968664D01*
X114952382Y-29861128D01*
X115410700Y-29554890D01*
X115681760Y-29149220D01*
X115952821Y-29554890D01*
G36*
X111637520Y-38413434D02*
X111637521Y-40926456D01*
X111520780Y-41101171D01*
X111440520Y-41504665D01*
X111440520Y-39151276D01*
X111464715Y-39029640D01*
X111368864Y-38547767D01*
X111095905Y-38139255D01*
X110703473Y-37877040D01*
X111101127Y-37877040D01*
X111637520Y-38413434D01*
X111637520Y-38413434D01*
G37*
X111637520Y-38413434D02*
X111637521Y-40926456D01*
X111520780Y-41101171D01*
X111440520Y-41504665D01*
X111440520Y-39151276D01*
X111464715Y-39029640D01*
X111368864Y-38547767D01*
X111095905Y-38139255D01*
X110703473Y-37877040D01*
X111101127Y-37877040D01*
X111637520Y-38413434D01*
G36*
X108970520Y-40481337D02*
X108713109Y-40309340D01*
X108488387Y-40264640D01*
X108970520Y-40264640D01*
X108970520Y-40481337D01*
X108970520Y-40481337D01*
G37*
X108970520Y-40481337D02*
X108713109Y-40309340D01*
X108488387Y-40264640D01*
X108970520Y-40264640D01*
X108970520Y-40481337D01*
G36*
X107760500Y-40276080D02*
X104435779Y-40276080D01*
X104463397Y-40264640D01*
X107818013Y-40264640D01*
X107760500Y-40276080D01*
X107760500Y-40276080D01*
G37*
X107760500Y-40276080D02*
X104435779Y-40276080D01*
X104463397Y-40264640D01*
X107818013Y-40264640D01*
X107760500Y-40276080D01*
G36*
X109958810Y-33100720D02*
X104534263Y-33100720D01*
X104482472Y-33066114D01*
X104612502Y-33012254D01*
X104629596Y-32995160D01*
X109937813Y-32995160D01*
X109958810Y-33100720D01*
X109958810Y-33100720D01*
G37*
X109958810Y-33100720D02*
X104534263Y-33100720D01*
X104482472Y-33066114D01*
X104612502Y-33012254D01*
X104629596Y-32995160D01*
X109937813Y-32995160D01*
X109958810Y-33100720D01*
M02*
