%TF.GenerationSoftware,KiCad,Pcbnew,9.0.6*%
%TF.CreationDate,2025-12-01T13:25:54+09:00*%
%TF.ProjectId,ATTiny85-mppt,41545469-6e79-4383-952d-6d7070742e6b,1.9*%
%TF.SameCoordinates,Original*%
%TF.FileFunction,Soldermask,Bot*%
%TF.FilePolarity,Negative*%
%FSLAX46Y46*%
G04 Gerber Fmt 4.6, Leading zero omitted, Abs format (unit mm)*
G04 Created by KiCad (PCBNEW 9.0.6) date 2025-12-01 13:25:54*
%MOMM*%
%LPD*%
G01*
G04 APERTURE LIST*
G04 APERTURE END LIST*
G36*
X128762944Y-106795244D02*
G01*
X129019685Y-106864038D01*
X129265251Y-106965755D01*
X129495439Y-107098654D01*
X129706311Y-107260462D01*
X129894258Y-107448409D01*
X130056066Y-107659281D01*
X130188965Y-107889469D01*
X130290682Y-108135035D01*
X130359476Y-108391776D01*
X130394169Y-108655301D01*
X130394169Y-108921099D01*
X130359476Y-109184624D01*
X130290682Y-109441365D01*
X130188965Y-109686931D01*
X130056066Y-109917119D01*
X129894258Y-110127991D01*
X129706311Y-110315938D01*
X129495439Y-110477746D01*
X129265251Y-110610645D01*
X129019685Y-110712362D01*
X128762944Y-110781156D01*
X128499419Y-110815849D01*
X128233621Y-110815849D01*
X127970096Y-110781156D01*
X127713355Y-110712362D01*
X127467789Y-110610645D01*
X127237601Y-110477746D01*
X127026729Y-110315938D01*
X126838782Y-110127991D01*
X126676974Y-109917119D01*
X126544075Y-109686931D01*
X126442358Y-109441365D01*
X126373564Y-109184624D01*
X126338871Y-108921099D01*
X126338871Y-108655301D01*
X126373564Y-108391776D01*
X126442358Y-108135035D01*
X126544075Y-107889469D01*
X126676974Y-107659281D01*
X126838782Y-107448409D01*
X127026729Y-107260462D01*
X127237601Y-107098654D01*
X127467789Y-106965755D01*
X127713355Y-106864038D01*
X127970096Y-106795244D01*
X128233621Y-106760551D01*
X128499419Y-106760551D01*
X128762944Y-106795244D01*
G37*
G36*
X137848075Y-107335372D02*
G01*
X137859575Y-107335372D01*
X137916196Y-107344339D01*
X138046134Y-107361446D01*
X138077842Y-107369942D01*
X138107553Y-107374648D01*
X138164688Y-107393212D01*
X138248258Y-107415605D01*
X138301580Y-107437691D01*
X138346333Y-107452233D01*
X138388260Y-107473596D01*
X138441583Y-107495683D01*
X138516504Y-107538939D01*
X138570038Y-107566216D01*
X138594379Y-107583901D01*
X138622802Y-107600311D01*
X138726766Y-107680085D01*
X138773157Y-107713790D01*
X138781288Y-107721921D01*
X138788814Y-107727696D01*
X138936783Y-107875665D01*
X138942557Y-107883190D01*
X138950690Y-107891323D01*
X138984398Y-107937719D01*
X139064168Y-108041677D01*
X139080576Y-108070097D01*
X139098264Y-108094442D01*
X139125543Y-108147981D01*
X139168796Y-108222896D01*
X139190880Y-108276213D01*
X139212247Y-108318147D01*
X139226790Y-108362906D01*
X139248874Y-108416221D01*
X139271263Y-108499778D01*
X139289832Y-108556927D01*
X139294538Y-108586643D01*
X139303033Y-108618345D01*
X139320138Y-108748271D01*
X139329108Y-108804905D01*
X139329108Y-108816404D01*
X139330347Y-108825816D01*
X139330347Y-109035063D01*
X139329108Y-109044474D01*
X139329108Y-109055975D01*
X139320137Y-109112613D01*
X139303033Y-109242534D01*
X139294539Y-109274233D01*
X139289832Y-109303953D01*
X139271261Y-109361105D01*
X139248874Y-109444658D01*
X139226791Y-109497968D01*
X139212247Y-109542733D01*
X139190878Y-109584670D01*
X139168796Y-109637983D01*
X139125548Y-109712889D01*
X139098264Y-109766438D01*
X139080573Y-109790786D01*
X139064168Y-109819202D01*
X138984412Y-109923142D01*
X138950690Y-109969557D01*
X138942554Y-109977692D01*
X138936783Y-109985214D01*
X138788814Y-110133183D01*
X138781292Y-110138954D01*
X138773157Y-110147090D01*
X138726742Y-110180812D01*
X138622802Y-110260568D01*
X138594386Y-110276973D01*
X138570038Y-110294664D01*
X138516489Y-110321948D01*
X138441583Y-110365196D01*
X138388270Y-110387278D01*
X138346333Y-110408647D01*
X138301568Y-110423191D01*
X138248258Y-110445274D01*
X138164705Y-110467661D01*
X138107553Y-110486232D01*
X138077833Y-110490939D01*
X138046134Y-110499433D01*
X137916210Y-110516537D01*
X137859575Y-110525508D01*
X137848075Y-110525508D01*
X137838664Y-110526747D01*
X137629416Y-110526747D01*
X137620005Y-110525508D01*
X137608505Y-110525508D01*
X137551871Y-110516538D01*
X137421945Y-110499433D01*
X137390243Y-110490938D01*
X137360527Y-110486232D01*
X137303378Y-110467663D01*
X137219821Y-110445274D01*
X137166506Y-110423190D01*
X137121747Y-110408647D01*
X137079813Y-110387280D01*
X137026496Y-110365196D01*
X136951581Y-110321943D01*
X136898042Y-110294664D01*
X136873697Y-110276976D01*
X136845277Y-110260568D01*
X136741319Y-110180798D01*
X136694923Y-110147090D01*
X136686790Y-110138957D01*
X136679265Y-110133183D01*
X136531296Y-109985214D01*
X136525521Y-109977688D01*
X136517390Y-109969557D01*
X136483685Y-109923166D01*
X136403911Y-109819202D01*
X136387501Y-109790779D01*
X136369816Y-109766438D01*
X136342539Y-109712904D01*
X136299283Y-109637983D01*
X136277196Y-109584660D01*
X136255833Y-109542733D01*
X136241291Y-109497980D01*
X136219205Y-109444658D01*
X136196812Y-109361088D01*
X136178248Y-109303953D01*
X136173542Y-109274242D01*
X136165046Y-109242534D01*
X136147940Y-109112599D01*
X136138972Y-109055975D01*
X136138972Y-109044474D01*
X136137733Y-109035063D01*
X136137733Y-108825816D01*
X136138972Y-108816404D01*
X136138972Y-108804905D01*
X136147939Y-108748285D01*
X136165046Y-108618345D01*
X136173542Y-108586634D01*
X136178248Y-108556927D01*
X136196811Y-108499796D01*
X136219205Y-108416221D01*
X136241293Y-108362895D01*
X136255833Y-108318147D01*
X136277193Y-108276223D01*
X136299283Y-108222896D01*
X136342543Y-108147967D01*
X136369816Y-108094442D01*
X136387498Y-108070104D01*
X136403911Y-108041677D01*
X136483699Y-107937694D01*
X136517390Y-107891323D01*
X136525518Y-107883194D01*
X136531296Y-107875665D01*
X136679265Y-107727696D01*
X136686794Y-107721918D01*
X136694923Y-107713790D01*
X136741294Y-107680099D01*
X136845277Y-107600311D01*
X136873704Y-107583898D01*
X136898042Y-107566216D01*
X136951567Y-107538943D01*
X137026496Y-107495683D01*
X137079823Y-107473593D01*
X137121747Y-107452233D01*
X137166495Y-107437693D01*
X137219821Y-107415605D01*
X137303396Y-107393211D01*
X137360527Y-107374648D01*
X137390234Y-107369942D01*
X137421945Y-107361446D01*
X137551885Y-107344339D01*
X137608505Y-107335372D01*
X137620004Y-107335372D01*
X137629416Y-107334133D01*
X137838664Y-107334133D01*
X137848075Y-107335372D01*
G37*
G36*
X48826155Y-107162652D02*
G01*
X48837655Y-107162652D01*
X48894276Y-107171619D01*
X49024214Y-107188726D01*
X49055922Y-107197222D01*
X49085633Y-107201928D01*
X49142768Y-107220492D01*
X49226338Y-107242885D01*
X49279660Y-107264971D01*
X49324413Y-107279513D01*
X49366340Y-107300876D01*
X49419663Y-107322963D01*
X49494584Y-107366219D01*
X49548118Y-107393496D01*
X49572459Y-107411181D01*
X49600882Y-107427591D01*
X49704846Y-107507365D01*
X49751237Y-107541070D01*
X49759368Y-107549201D01*
X49766894Y-107554976D01*
X49914863Y-107702945D01*
X49920637Y-107710470D01*
X49928770Y-107718603D01*
X49962478Y-107764999D01*
X50042248Y-107868957D01*
X50058656Y-107897377D01*
X50076344Y-107921722D01*
X50103623Y-107975261D01*
X50146876Y-108050176D01*
X50168960Y-108103493D01*
X50190327Y-108145427D01*
X50204870Y-108190186D01*
X50226954Y-108243501D01*
X50249343Y-108327058D01*
X50267912Y-108384207D01*
X50272618Y-108413923D01*
X50281113Y-108445625D01*
X50298218Y-108575551D01*
X50307188Y-108632185D01*
X50307188Y-108643684D01*
X50308427Y-108653096D01*
X50308427Y-108862343D01*
X50307188Y-108871754D01*
X50307188Y-108883255D01*
X50298217Y-108939893D01*
X50281113Y-109069814D01*
X50272619Y-109101513D01*
X50267912Y-109131233D01*
X50249341Y-109188385D01*
X50226954Y-109271938D01*
X50204871Y-109325248D01*
X50190327Y-109370013D01*
X50168958Y-109411950D01*
X50146876Y-109465263D01*
X50103628Y-109540169D01*
X50076344Y-109593718D01*
X50058653Y-109618066D01*
X50042248Y-109646482D01*
X49962492Y-109750422D01*
X49928770Y-109796837D01*
X49920634Y-109804972D01*
X49914863Y-109812494D01*
X49766894Y-109960463D01*
X49759372Y-109966234D01*
X49751237Y-109974370D01*
X49704822Y-110008092D01*
X49600882Y-110087848D01*
X49572466Y-110104253D01*
X49548118Y-110121944D01*
X49494569Y-110149228D01*
X49419663Y-110192476D01*
X49366350Y-110214558D01*
X49324413Y-110235927D01*
X49279648Y-110250471D01*
X49226338Y-110272554D01*
X49142785Y-110294941D01*
X49085633Y-110313512D01*
X49055913Y-110318219D01*
X49024214Y-110326713D01*
X48894290Y-110343817D01*
X48837655Y-110352788D01*
X48826155Y-110352788D01*
X48816744Y-110354027D01*
X48607496Y-110354027D01*
X48598085Y-110352788D01*
X48586585Y-110352788D01*
X48529951Y-110343818D01*
X48400025Y-110326713D01*
X48368323Y-110318218D01*
X48338607Y-110313512D01*
X48281458Y-110294943D01*
X48197901Y-110272554D01*
X48144586Y-110250470D01*
X48099827Y-110235927D01*
X48057893Y-110214560D01*
X48004576Y-110192476D01*
X47929661Y-110149223D01*
X47876122Y-110121944D01*
X47851777Y-110104256D01*
X47823357Y-110087848D01*
X47719399Y-110008078D01*
X47673003Y-109974370D01*
X47664870Y-109966237D01*
X47657345Y-109960463D01*
X47509376Y-109812494D01*
X47503601Y-109804968D01*
X47495470Y-109796837D01*
X47461765Y-109750446D01*
X47381991Y-109646482D01*
X47365581Y-109618059D01*
X47347896Y-109593718D01*
X47320619Y-109540184D01*
X47277363Y-109465263D01*
X47255276Y-109411940D01*
X47233913Y-109370013D01*
X47219371Y-109325260D01*
X47197285Y-109271938D01*
X47174892Y-109188368D01*
X47156328Y-109131233D01*
X47151622Y-109101522D01*
X47143126Y-109069814D01*
X47126020Y-108939879D01*
X47117052Y-108883255D01*
X47117052Y-108871754D01*
X47115813Y-108862343D01*
X47115813Y-108653096D01*
X47117052Y-108643684D01*
X47117052Y-108632185D01*
X47126019Y-108575565D01*
X47143126Y-108445625D01*
X47151622Y-108413914D01*
X47156328Y-108384207D01*
X47174891Y-108327076D01*
X47197285Y-108243501D01*
X47219373Y-108190175D01*
X47233913Y-108145427D01*
X47255273Y-108103503D01*
X47277363Y-108050176D01*
X47320623Y-107975247D01*
X47347896Y-107921722D01*
X47365578Y-107897384D01*
X47381991Y-107868957D01*
X47461779Y-107764974D01*
X47495470Y-107718603D01*
X47503598Y-107710474D01*
X47509376Y-107702945D01*
X47657345Y-107554976D01*
X47664874Y-107549198D01*
X47673003Y-107541070D01*
X47719374Y-107507379D01*
X47823357Y-107427591D01*
X47851784Y-107411178D01*
X47876122Y-107393496D01*
X47929647Y-107366223D01*
X48004576Y-107322963D01*
X48057903Y-107300873D01*
X48099827Y-107279513D01*
X48144575Y-107264973D01*
X48197901Y-107242885D01*
X48281476Y-107220491D01*
X48338607Y-107201928D01*
X48368314Y-107197222D01*
X48400025Y-107188726D01*
X48529965Y-107171619D01*
X48586585Y-107162652D01*
X48598084Y-107162652D01*
X48607496Y-107161413D01*
X48816744Y-107161413D01*
X48826155Y-107162652D01*
G37*
G36*
X109179160Y-107731360D02*
G01*
X105979160Y-107731360D01*
X105979160Y-104531360D01*
X109179160Y-104531360D01*
X109179160Y-107731360D01*
G37*
G36*
X122933195Y-104536292D02*
G01*
X122944695Y-104536292D01*
X123001316Y-104545259D01*
X123131254Y-104562366D01*
X123162962Y-104570862D01*
X123192673Y-104575568D01*
X123249808Y-104594132D01*
X123333378Y-104616525D01*
X123386700Y-104638611D01*
X123431453Y-104653153D01*
X123473380Y-104674516D01*
X123526703Y-104696603D01*
X123601624Y-104739859D01*
X123655158Y-104767136D01*
X123679499Y-104784821D01*
X123707922Y-104801231D01*
X123811886Y-104881005D01*
X123858277Y-104914710D01*
X123866408Y-104922841D01*
X123873934Y-104928616D01*
X124021903Y-105076585D01*
X124027677Y-105084110D01*
X124035810Y-105092243D01*
X124069518Y-105138639D01*
X124149288Y-105242597D01*
X124165696Y-105271017D01*
X124183384Y-105295362D01*
X124210663Y-105348901D01*
X124253916Y-105423816D01*
X124276000Y-105477133D01*
X124297367Y-105519067D01*
X124311910Y-105563826D01*
X124333994Y-105617141D01*
X124356383Y-105700698D01*
X124374952Y-105757847D01*
X124379658Y-105787563D01*
X124388153Y-105819265D01*
X124405258Y-105949191D01*
X124414228Y-106005825D01*
X124414228Y-106017324D01*
X124415467Y-106026736D01*
X124415467Y-106235983D01*
X124414228Y-106245394D01*
X124414228Y-106256895D01*
X124405257Y-106313533D01*
X124388153Y-106443454D01*
X124379659Y-106475153D01*
X124374952Y-106504873D01*
X124356381Y-106562025D01*
X124333994Y-106645578D01*
X124311911Y-106698888D01*
X124297367Y-106743653D01*
X124275998Y-106785590D01*
X124253916Y-106838903D01*
X124210668Y-106913809D01*
X124183384Y-106967358D01*
X124165693Y-106991706D01*
X124149288Y-107020122D01*
X124069532Y-107124062D01*
X124035810Y-107170477D01*
X124027674Y-107178612D01*
X124021903Y-107186134D01*
X123873934Y-107334103D01*
X123866412Y-107339874D01*
X123858277Y-107348010D01*
X123811862Y-107381732D01*
X123707922Y-107461488D01*
X123679506Y-107477893D01*
X123655158Y-107495584D01*
X123601609Y-107522868D01*
X123526703Y-107566116D01*
X123473390Y-107588198D01*
X123431453Y-107609567D01*
X123386688Y-107624111D01*
X123333378Y-107646194D01*
X123249825Y-107668581D01*
X123192673Y-107687152D01*
X123162953Y-107691859D01*
X123131254Y-107700353D01*
X123001330Y-107717457D01*
X122944695Y-107726428D01*
X122933195Y-107726428D01*
X122923784Y-107727667D01*
X122714536Y-107727667D01*
X122705125Y-107726428D01*
X122693625Y-107726428D01*
X122636991Y-107717458D01*
X122507065Y-107700353D01*
X122475363Y-107691858D01*
X122445647Y-107687152D01*
X122388498Y-107668583D01*
X122304941Y-107646194D01*
X122251626Y-107624110D01*
X122206867Y-107609567D01*
X122164933Y-107588200D01*
X122111616Y-107566116D01*
X122036701Y-107522863D01*
X121983162Y-107495584D01*
X121958817Y-107477896D01*
X121930397Y-107461488D01*
X121826439Y-107381718D01*
X121780043Y-107348010D01*
X121771910Y-107339877D01*
X121764385Y-107334103D01*
X121616416Y-107186134D01*
X121610641Y-107178608D01*
X121602510Y-107170477D01*
X121568805Y-107124086D01*
X121489031Y-107020122D01*
X121472621Y-106991699D01*
X121454936Y-106967358D01*
X121427659Y-106913824D01*
X121384403Y-106838903D01*
X121362316Y-106785580D01*
X121340953Y-106743653D01*
X121326411Y-106698900D01*
X121304325Y-106645578D01*
X121281932Y-106562008D01*
X121263368Y-106504873D01*
X121258662Y-106475162D01*
X121250166Y-106443454D01*
X121233060Y-106313519D01*
X121224092Y-106256895D01*
X121224092Y-106245394D01*
X121222853Y-106235983D01*
X121222853Y-106026736D01*
X121224092Y-106017324D01*
X121224092Y-106005825D01*
X121233059Y-105949205D01*
X121250166Y-105819265D01*
X121258662Y-105787554D01*
X121263368Y-105757847D01*
X121281931Y-105700716D01*
X121304325Y-105617141D01*
X121326413Y-105563815D01*
X121340953Y-105519067D01*
X121362313Y-105477143D01*
X121384403Y-105423816D01*
X121427663Y-105348887D01*
X121454936Y-105295362D01*
X121472618Y-105271024D01*
X121489031Y-105242597D01*
X121568819Y-105138614D01*
X121602510Y-105092243D01*
X121610638Y-105084114D01*
X121616416Y-105076585D01*
X121764385Y-104928616D01*
X121771914Y-104922838D01*
X121780043Y-104914710D01*
X121826414Y-104881019D01*
X121930397Y-104801231D01*
X121958824Y-104784818D01*
X121983162Y-104767136D01*
X122036687Y-104739863D01*
X122111616Y-104696603D01*
X122164943Y-104674513D01*
X122206867Y-104653153D01*
X122251615Y-104638613D01*
X122304941Y-104616525D01*
X122388516Y-104594131D01*
X122445647Y-104575568D01*
X122475354Y-104570862D01*
X122507065Y-104562366D01*
X122637005Y-104545259D01*
X122693625Y-104536292D01*
X122705124Y-104536292D01*
X122714536Y-104535053D01*
X122923784Y-104535053D01*
X122933195Y-104536292D01*
G37*
G36*
X79633519Y-103979279D02*
G01*
X79769456Y-104035586D01*
X79891797Y-104117332D01*
X79995838Y-104221373D01*
X80077584Y-104343714D01*
X80133891Y-104479651D01*
X80162596Y-104623961D01*
X80166210Y-104697530D01*
X80166210Y-105695750D01*
X80162596Y-105769319D01*
X80133891Y-105913629D01*
X80077584Y-106049566D01*
X79995838Y-106171907D01*
X79891797Y-106275948D01*
X79769456Y-106357694D01*
X79633519Y-106414001D01*
X79489209Y-106442706D01*
X79342071Y-106442706D01*
X79197761Y-106414001D01*
X79061824Y-106357694D01*
X78939483Y-106275948D01*
X78835442Y-106171907D01*
X78753696Y-106049566D01*
X78697389Y-105913629D01*
X78668684Y-105769319D01*
X78665070Y-105695750D01*
X78665070Y-104697530D01*
X78668684Y-104623961D01*
X78697389Y-104479651D01*
X78753696Y-104343714D01*
X78835442Y-104221373D01*
X78939483Y-104117332D01*
X79061824Y-104035586D01*
X79197761Y-103979279D01*
X79342071Y-103950574D01*
X79489209Y-103950574D01*
X79633519Y-103979279D01*
G37*
G36*
X82173519Y-103979279D02*
G01*
X82309456Y-104035586D01*
X82431797Y-104117332D01*
X82535838Y-104221373D01*
X82617584Y-104343714D01*
X82673891Y-104479651D01*
X82702596Y-104623961D01*
X82706210Y-104697530D01*
X82706210Y-105695750D01*
X82702596Y-105769319D01*
X82673891Y-105913629D01*
X82617584Y-106049566D01*
X82535838Y-106171907D01*
X82431797Y-106275948D01*
X82309456Y-106357694D01*
X82173519Y-106414001D01*
X82029209Y-106442706D01*
X81882071Y-106442706D01*
X81737761Y-106414001D01*
X81601824Y-106357694D01*
X81479483Y-106275948D01*
X81375442Y-106171907D01*
X81293696Y-106049566D01*
X81237389Y-105913629D01*
X81208684Y-105769319D01*
X81205070Y-105695750D01*
X81205070Y-104697530D01*
X81208684Y-104623961D01*
X81237389Y-104479651D01*
X81293696Y-104343714D01*
X81375442Y-104221373D01*
X81479483Y-104117332D01*
X81601824Y-104035586D01*
X81737761Y-103979279D01*
X81882071Y-103950574D01*
X82029209Y-103950574D01*
X82173519Y-103979279D01*
G37*
G36*
X84713519Y-103979279D02*
G01*
X84849456Y-104035586D01*
X84971797Y-104117332D01*
X85075838Y-104221373D01*
X85157584Y-104343714D01*
X85213891Y-104479651D01*
X85242596Y-104623961D01*
X85246210Y-104697530D01*
X85246210Y-105695750D01*
X85242596Y-105769319D01*
X85213891Y-105913629D01*
X85157584Y-106049566D01*
X85075838Y-106171907D01*
X84971797Y-106275948D01*
X84849456Y-106357694D01*
X84713519Y-106414001D01*
X84569209Y-106442706D01*
X84422071Y-106442706D01*
X84277761Y-106414001D01*
X84141824Y-106357694D01*
X84019483Y-106275948D01*
X83915442Y-106171907D01*
X83833696Y-106049566D01*
X83777389Y-105913629D01*
X83748684Y-105769319D01*
X83745070Y-105695750D01*
X83745070Y-104697530D01*
X83748684Y-104623961D01*
X83777389Y-104479651D01*
X83833696Y-104343714D01*
X83915442Y-104221373D01*
X84019483Y-104117332D01*
X84141824Y-104035586D01*
X84277761Y-103979279D01*
X84422071Y-103950574D01*
X84569209Y-103950574D01*
X84713519Y-103979279D01*
G37*
G36*
X96891574Y-102623916D02*
G01*
X97070660Y-102682105D01*
X97238438Y-102767592D01*
X97390778Y-102878273D01*
X97523927Y-103011422D01*
X97634608Y-103163762D01*
X97720095Y-103331540D01*
X97778284Y-103510626D01*
X97807741Y-103696609D01*
X97807741Y-103884911D01*
X97778284Y-104070894D01*
X97720095Y-104249980D01*
X97634608Y-104417758D01*
X97523927Y-104570098D01*
X97390778Y-104703247D01*
X97238438Y-104813928D01*
X97070660Y-104899415D01*
X96891574Y-104957604D01*
X96705591Y-104987061D01*
X96517289Y-104987061D01*
X96331306Y-104957604D01*
X96152220Y-104899415D01*
X95984442Y-104813928D01*
X95832102Y-104703247D01*
X95698953Y-104570098D01*
X95588272Y-104417758D01*
X95502785Y-104249980D01*
X95444596Y-104070894D01*
X95415139Y-103884911D01*
X95415139Y-103696609D01*
X95444596Y-103510626D01*
X95502785Y-103331540D01*
X95588272Y-103163762D01*
X95698953Y-103011422D01*
X95832102Y-102878273D01*
X95984442Y-102767592D01*
X96152220Y-102682105D01*
X96331306Y-102623916D01*
X96517289Y-102594459D01*
X96705591Y-102594459D01*
X96891574Y-102623916D01*
G37*
G36*
X55880574Y-102819695D02*
G01*
X55891657Y-102819695D01*
X55934969Y-102828310D01*
X56026995Y-102842886D01*
X56056596Y-102852503D01*
X56083925Y-102857940D01*
X56122486Y-102873912D01*
X56176172Y-102891356D01*
X56226468Y-102916983D01*
X56265037Y-102932959D01*
X56288207Y-102948440D01*
X56315941Y-102962572D01*
X56391336Y-103017350D01*
X56428033Y-103041870D01*
X56435864Y-103049701D01*
X56442831Y-103054763D01*
X56553756Y-103165688D01*
X56558817Y-103172654D01*
X56566650Y-103180487D01*
X56591172Y-103217188D01*
X56645947Y-103292578D01*
X56660077Y-103320309D01*
X56675561Y-103343483D01*
X56691538Y-103382056D01*
X56717163Y-103432347D01*
X56734604Y-103486025D01*
X56750580Y-103524595D01*
X56756017Y-103551929D01*
X56765633Y-103581524D01*
X56780207Y-103673541D01*
X56788825Y-103716863D01*
X56788825Y-103727946D01*
X56790172Y-103736451D01*
X56790172Y-103893308D01*
X56788825Y-103901812D01*
X56788825Y-103912897D01*
X56780207Y-103956221D01*
X56765633Y-104048235D01*
X56756017Y-104077828D01*
X56750580Y-104105165D01*
X56734602Y-104143738D01*
X56717163Y-104197412D01*
X56691540Y-104247698D01*
X56675561Y-104286277D01*
X56660074Y-104309453D01*
X56645947Y-104337181D01*
X56591181Y-104412559D01*
X56566650Y-104449273D01*
X56558814Y-104457108D01*
X56553756Y-104464071D01*
X56442831Y-104574996D01*
X56435868Y-104580054D01*
X56428033Y-104587890D01*
X56391319Y-104612421D01*
X56315941Y-104667187D01*
X56288213Y-104681314D01*
X56265037Y-104696801D01*
X56226458Y-104712780D01*
X56176172Y-104738403D01*
X56122498Y-104755842D01*
X56083925Y-104771820D01*
X56056588Y-104777257D01*
X56026995Y-104786873D01*
X55934979Y-104801447D01*
X55891657Y-104810065D01*
X55880573Y-104810065D01*
X55872069Y-104811412D01*
X55715211Y-104811412D01*
X55706707Y-104810065D01*
X55695623Y-104810065D01*
X55652301Y-104801447D01*
X55560284Y-104786873D01*
X55530689Y-104777257D01*
X55503355Y-104771820D01*
X55464785Y-104755844D01*
X55411107Y-104738403D01*
X55360816Y-104712778D01*
X55322243Y-104696801D01*
X55299069Y-104681317D01*
X55271338Y-104667187D01*
X55195948Y-104612412D01*
X55159247Y-104587890D01*
X55151414Y-104580057D01*
X55144448Y-104574996D01*
X55033523Y-104464071D01*
X55028461Y-104457104D01*
X55020630Y-104449273D01*
X54996110Y-104412576D01*
X54941332Y-104337181D01*
X54927200Y-104309447D01*
X54911719Y-104286277D01*
X54895743Y-104247708D01*
X54870116Y-104197412D01*
X54852672Y-104143726D01*
X54836700Y-104105165D01*
X54831263Y-104077836D01*
X54821646Y-104048235D01*
X54807070Y-103956211D01*
X54798455Y-103912897D01*
X54798455Y-103901812D01*
X54797108Y-103893308D01*
X54797108Y-103736451D01*
X54798455Y-103727946D01*
X54798455Y-103716863D01*
X54807070Y-103673551D01*
X54821646Y-103581524D01*
X54831264Y-103551921D01*
X54836700Y-103524595D01*
X54852671Y-103486036D01*
X54870116Y-103432347D01*
X54895745Y-103382045D01*
X54911719Y-103343483D01*
X54927198Y-103320316D01*
X54941332Y-103292578D01*
X54996118Y-103217170D01*
X55020630Y-103180487D01*
X55028458Y-103172658D01*
X55033523Y-103165688D01*
X55144448Y-103054763D01*
X55151418Y-103049698D01*
X55159247Y-103041870D01*
X55195930Y-103017358D01*
X55271338Y-102962572D01*
X55299076Y-102948438D01*
X55322243Y-102932959D01*
X55360805Y-102916985D01*
X55411107Y-102891356D01*
X55464796Y-102873911D01*
X55503355Y-102857940D01*
X55530681Y-102852504D01*
X55560284Y-102842886D01*
X55652311Y-102828310D01*
X55695623Y-102819695D01*
X55706706Y-102819695D01*
X55715211Y-102818348D01*
X55872069Y-102818348D01*
X55880574Y-102819695D01*
G37*
G36*
X60380574Y-102819695D02*
G01*
X60391657Y-102819695D01*
X60434969Y-102828310D01*
X60526995Y-102842886D01*
X60556596Y-102852503D01*
X60583925Y-102857940D01*
X60622486Y-102873912D01*
X60676172Y-102891356D01*
X60726468Y-102916983D01*
X60765037Y-102932959D01*
X60788207Y-102948440D01*
X60815941Y-102962572D01*
X60891336Y-103017350D01*
X60928033Y-103041870D01*
X60935864Y-103049701D01*
X60942831Y-103054763D01*
X61053756Y-103165688D01*
X61058817Y-103172654D01*
X61066650Y-103180487D01*
X61091172Y-103217188D01*
X61145947Y-103292578D01*
X61160077Y-103320309D01*
X61175561Y-103343483D01*
X61191538Y-103382056D01*
X61217163Y-103432347D01*
X61234604Y-103486025D01*
X61250580Y-103524595D01*
X61256017Y-103551929D01*
X61265633Y-103581524D01*
X61280207Y-103673541D01*
X61288825Y-103716863D01*
X61288825Y-103727946D01*
X61290172Y-103736451D01*
X61290172Y-103893308D01*
X61288825Y-103901812D01*
X61288825Y-103912897D01*
X61280207Y-103956221D01*
X61265633Y-104048235D01*
X61256017Y-104077828D01*
X61250580Y-104105165D01*
X61234602Y-104143738D01*
X61217163Y-104197412D01*
X61191540Y-104247698D01*
X61175561Y-104286277D01*
X61160074Y-104309453D01*
X61145947Y-104337181D01*
X61091181Y-104412559D01*
X61066650Y-104449273D01*
X61058814Y-104457108D01*
X61053756Y-104464071D01*
X60942831Y-104574996D01*
X60935868Y-104580054D01*
X60928033Y-104587890D01*
X60891319Y-104612421D01*
X60815941Y-104667187D01*
X60788213Y-104681314D01*
X60765037Y-104696801D01*
X60726458Y-104712780D01*
X60676172Y-104738403D01*
X60622498Y-104755842D01*
X60583925Y-104771820D01*
X60556588Y-104777257D01*
X60526995Y-104786873D01*
X60434979Y-104801447D01*
X60391657Y-104810065D01*
X60380573Y-104810065D01*
X60372069Y-104811412D01*
X60215211Y-104811412D01*
X60206707Y-104810065D01*
X60195623Y-104810065D01*
X60152301Y-104801447D01*
X60060284Y-104786873D01*
X60030689Y-104777257D01*
X60003355Y-104771820D01*
X59964785Y-104755844D01*
X59911107Y-104738403D01*
X59860816Y-104712778D01*
X59822243Y-104696801D01*
X59799069Y-104681317D01*
X59771338Y-104667187D01*
X59695948Y-104612412D01*
X59659247Y-104587890D01*
X59651414Y-104580057D01*
X59644448Y-104574996D01*
X59533523Y-104464071D01*
X59528461Y-104457104D01*
X59520630Y-104449273D01*
X59496110Y-104412576D01*
X59441332Y-104337181D01*
X59427200Y-104309447D01*
X59411719Y-104286277D01*
X59395743Y-104247708D01*
X59370116Y-104197412D01*
X59352672Y-104143726D01*
X59336700Y-104105165D01*
X59331263Y-104077836D01*
X59321646Y-104048235D01*
X59307070Y-103956211D01*
X59298455Y-103912897D01*
X59298455Y-103901812D01*
X59297108Y-103893308D01*
X59297108Y-103736451D01*
X59298455Y-103727946D01*
X59298455Y-103716863D01*
X59307070Y-103673551D01*
X59321646Y-103581524D01*
X59331264Y-103551921D01*
X59336700Y-103524595D01*
X59352671Y-103486036D01*
X59370116Y-103432347D01*
X59395745Y-103382045D01*
X59411719Y-103343483D01*
X59427198Y-103320316D01*
X59441332Y-103292578D01*
X59496118Y-103217170D01*
X59520630Y-103180487D01*
X59528458Y-103172658D01*
X59533523Y-103165688D01*
X59644448Y-103054763D01*
X59651418Y-103049698D01*
X59659247Y-103041870D01*
X59695930Y-103017358D01*
X59771338Y-102962572D01*
X59799076Y-102948438D01*
X59822243Y-102932959D01*
X59860805Y-102916985D01*
X59911107Y-102891356D01*
X59964796Y-102873911D01*
X60003355Y-102857940D01*
X60030681Y-102852504D01*
X60060284Y-102842886D01*
X60152311Y-102828310D01*
X60195623Y-102819695D01*
X60206706Y-102819695D01*
X60215211Y-102818348D01*
X60372069Y-102818348D01*
X60380574Y-102819695D01*
G37*
G36*
X67712160Y-102174880D02*
G01*
X65912160Y-102174880D01*
X65912160Y-100374880D01*
X67712160Y-100374880D01*
X67712160Y-102174880D01*
G37*
G36*
X109179160Y-101274680D02*
G01*
X105979160Y-101274680D01*
X105979160Y-98074680D01*
X109179160Y-98074680D01*
X109179160Y-101274680D01*
G37*
G36*
X122933195Y-98079612D02*
G01*
X122944695Y-98079612D01*
X123001316Y-98088579D01*
X123131254Y-98105686D01*
X123162962Y-98114182D01*
X123192673Y-98118888D01*
X123249808Y-98137452D01*
X123333378Y-98159845D01*
X123386700Y-98181931D01*
X123431453Y-98196473D01*
X123473380Y-98217836D01*
X123526703Y-98239923D01*
X123601624Y-98283179D01*
X123655158Y-98310456D01*
X123679499Y-98328141D01*
X123707922Y-98344551D01*
X123811886Y-98424325D01*
X123858277Y-98458030D01*
X123866408Y-98466161D01*
X123873934Y-98471936D01*
X124021903Y-98619905D01*
X124027677Y-98627430D01*
X124035810Y-98635563D01*
X124069518Y-98681959D01*
X124149288Y-98785917D01*
X124165696Y-98814337D01*
X124183384Y-98838682D01*
X124210663Y-98892221D01*
X124253916Y-98967136D01*
X124276000Y-99020453D01*
X124297367Y-99062387D01*
X124311910Y-99107146D01*
X124333994Y-99160461D01*
X124356383Y-99244018D01*
X124374952Y-99301167D01*
X124379658Y-99330883D01*
X124388153Y-99362585D01*
X124405258Y-99492511D01*
X124414228Y-99549145D01*
X124414228Y-99560644D01*
X124415467Y-99570056D01*
X124415467Y-99779303D01*
X124414228Y-99788714D01*
X124414228Y-99800215D01*
X124405257Y-99856853D01*
X124388153Y-99986774D01*
X124379659Y-100018473D01*
X124374952Y-100048193D01*
X124356381Y-100105345D01*
X124333994Y-100188898D01*
X124311911Y-100242208D01*
X124297367Y-100286973D01*
X124275998Y-100328910D01*
X124253916Y-100382223D01*
X124210668Y-100457129D01*
X124183384Y-100510678D01*
X124165693Y-100535026D01*
X124149288Y-100563442D01*
X124069532Y-100667382D01*
X124035810Y-100713797D01*
X124027674Y-100721932D01*
X124021903Y-100729454D01*
X123873934Y-100877423D01*
X123866412Y-100883194D01*
X123858277Y-100891330D01*
X123811862Y-100925052D01*
X123707922Y-101004808D01*
X123679506Y-101021213D01*
X123655158Y-101038904D01*
X123601609Y-101066188D01*
X123526703Y-101109436D01*
X123473390Y-101131518D01*
X123431453Y-101152887D01*
X123386688Y-101167431D01*
X123333378Y-101189514D01*
X123249825Y-101211901D01*
X123192673Y-101230472D01*
X123162953Y-101235179D01*
X123131254Y-101243673D01*
X123001330Y-101260777D01*
X122944695Y-101269748D01*
X122933195Y-101269748D01*
X122923784Y-101270987D01*
X122714536Y-101270987D01*
X122705125Y-101269748D01*
X122693625Y-101269748D01*
X122636991Y-101260778D01*
X122507065Y-101243673D01*
X122475363Y-101235178D01*
X122445647Y-101230472D01*
X122388498Y-101211903D01*
X122304941Y-101189514D01*
X122251626Y-101167430D01*
X122206867Y-101152887D01*
X122164933Y-101131520D01*
X122111616Y-101109436D01*
X122036701Y-101066183D01*
X121983162Y-101038904D01*
X121958817Y-101021216D01*
X121930397Y-101004808D01*
X121826439Y-100925038D01*
X121780043Y-100891330D01*
X121771910Y-100883197D01*
X121764385Y-100877423D01*
X121616416Y-100729454D01*
X121610641Y-100721928D01*
X121602510Y-100713797D01*
X121568805Y-100667406D01*
X121489031Y-100563442D01*
X121472621Y-100535019D01*
X121454936Y-100510678D01*
X121427659Y-100457144D01*
X121384403Y-100382223D01*
X121362316Y-100328900D01*
X121340953Y-100286973D01*
X121326411Y-100242220D01*
X121304325Y-100188898D01*
X121281932Y-100105328D01*
X121263368Y-100048193D01*
X121258662Y-100018482D01*
X121250166Y-99986774D01*
X121233060Y-99856839D01*
X121224092Y-99800215D01*
X121224092Y-99788714D01*
X121222853Y-99779303D01*
X121222853Y-99570056D01*
X121224092Y-99560644D01*
X121224092Y-99549145D01*
X121233059Y-99492525D01*
X121250166Y-99362585D01*
X121258662Y-99330874D01*
X121263368Y-99301167D01*
X121281931Y-99244036D01*
X121304325Y-99160461D01*
X121326413Y-99107135D01*
X121340953Y-99062387D01*
X121362313Y-99020463D01*
X121384403Y-98967136D01*
X121427663Y-98892207D01*
X121454936Y-98838682D01*
X121472618Y-98814344D01*
X121489031Y-98785917D01*
X121568819Y-98681934D01*
X121602510Y-98635563D01*
X121610638Y-98627434D01*
X121616416Y-98619905D01*
X121764385Y-98471936D01*
X121771914Y-98466158D01*
X121780043Y-98458030D01*
X121826414Y-98424339D01*
X121930397Y-98344551D01*
X121958824Y-98328138D01*
X121983162Y-98310456D01*
X122036687Y-98283183D01*
X122111616Y-98239923D01*
X122164943Y-98217833D01*
X122206867Y-98196473D01*
X122251615Y-98181933D01*
X122304941Y-98159845D01*
X122388516Y-98137451D01*
X122445647Y-98118888D01*
X122475354Y-98114182D01*
X122507065Y-98105686D01*
X122637005Y-98088579D01*
X122693625Y-98079612D01*
X122705124Y-98079612D01*
X122714536Y-98078373D01*
X122923784Y-98078373D01*
X122933195Y-98079612D01*
G37*
G36*
X137551344Y-96340604D02*
G01*
X137808085Y-96409398D01*
X138053651Y-96511115D01*
X138283839Y-96644014D01*
X138494711Y-96805822D01*
X138682658Y-96993769D01*
X138844466Y-97204641D01*
X138977365Y-97434829D01*
X139079082Y-97680395D01*
X139147876Y-97937136D01*
X139182569Y-98200661D01*
X139182569Y-98466459D01*
X139147876Y-98729984D01*
X139079082Y-98986725D01*
X138977365Y-99232291D01*
X138844466Y-99462479D01*
X138682658Y-99673351D01*
X138494711Y-99861298D01*
X138283839Y-100023106D01*
X138053651Y-100156005D01*
X137808085Y-100257722D01*
X137551344Y-100326516D01*
X137287819Y-100361209D01*
X137022021Y-100361209D01*
X136758496Y-100326516D01*
X136501755Y-100257722D01*
X136256189Y-100156005D01*
X136026001Y-100023106D01*
X135815129Y-99861298D01*
X135627182Y-99673351D01*
X135465374Y-99462479D01*
X135332475Y-99232291D01*
X135230758Y-98986725D01*
X135161964Y-98729984D01*
X135127271Y-98466459D01*
X135127271Y-98200661D01*
X135161964Y-97937136D01*
X135230758Y-97680395D01*
X135332475Y-97434829D01*
X135465374Y-97204641D01*
X135627182Y-96993769D01*
X135815129Y-96805822D01*
X136026001Y-96644014D01*
X136256189Y-96511115D01*
X136501755Y-96409398D01*
X136758496Y-96340604D01*
X137022021Y-96305911D01*
X137287819Y-96305911D01*
X137551344Y-96340604D01*
G37*
G36*
X97811440Y-99990760D02*
G01*
X95411440Y-99990760D01*
X95411440Y-97590760D01*
X97811440Y-97590760D01*
X97811440Y-99990760D01*
G37*
G36*
X67073416Y-97873634D02*
G01*
X67236417Y-97941151D01*
X67383114Y-98039171D01*
X67507869Y-98163926D01*
X67605889Y-98310623D01*
X67673406Y-98473624D01*
X67707826Y-98646665D01*
X67707826Y-98823095D01*
X67673406Y-98996136D01*
X67605889Y-99159137D01*
X67507869Y-99305834D01*
X67383114Y-99430589D01*
X67236417Y-99528609D01*
X67073416Y-99596126D01*
X66900375Y-99630546D01*
X66723945Y-99630546D01*
X66550904Y-99596126D01*
X66387903Y-99528609D01*
X66241206Y-99430589D01*
X66116451Y-99305834D01*
X66018431Y-99159137D01*
X65950914Y-98996136D01*
X65916494Y-98823095D01*
X65916494Y-98646665D01*
X65950914Y-98473624D01*
X66018431Y-98310623D01*
X66116451Y-98163926D01*
X66241206Y-98039171D01*
X66387903Y-97941151D01*
X66550904Y-97873634D01*
X66723945Y-97839214D01*
X66900375Y-97839214D01*
X67073416Y-97873634D01*
G37*
G36*
X55880574Y-96319695D02*
G01*
X55891657Y-96319695D01*
X55934969Y-96328310D01*
X56026995Y-96342886D01*
X56056596Y-96352503D01*
X56083925Y-96357940D01*
X56122486Y-96373912D01*
X56176172Y-96391356D01*
X56226468Y-96416983D01*
X56265037Y-96432959D01*
X56288207Y-96448440D01*
X56315941Y-96462572D01*
X56391336Y-96517350D01*
X56428033Y-96541870D01*
X56435864Y-96549701D01*
X56442831Y-96554763D01*
X56553756Y-96665688D01*
X56558817Y-96672654D01*
X56566650Y-96680487D01*
X56591172Y-96717188D01*
X56645947Y-96792578D01*
X56660077Y-96820309D01*
X56675561Y-96843483D01*
X56691538Y-96882056D01*
X56717163Y-96932347D01*
X56734604Y-96986025D01*
X56750580Y-97024595D01*
X56756017Y-97051929D01*
X56765633Y-97081524D01*
X56780207Y-97173541D01*
X56788825Y-97216863D01*
X56788825Y-97227946D01*
X56790172Y-97236451D01*
X56790172Y-97393308D01*
X56788825Y-97401812D01*
X56788825Y-97412897D01*
X56780207Y-97456221D01*
X56765633Y-97548235D01*
X56756017Y-97577828D01*
X56750580Y-97605165D01*
X56734602Y-97643738D01*
X56717163Y-97697412D01*
X56691540Y-97747698D01*
X56675561Y-97786277D01*
X56660074Y-97809453D01*
X56645947Y-97837181D01*
X56591181Y-97912559D01*
X56566650Y-97949273D01*
X56558814Y-97957108D01*
X56553756Y-97964071D01*
X56442831Y-98074996D01*
X56435868Y-98080054D01*
X56428033Y-98087890D01*
X56391319Y-98112421D01*
X56315941Y-98167187D01*
X56288213Y-98181314D01*
X56265037Y-98196801D01*
X56226458Y-98212780D01*
X56176172Y-98238403D01*
X56122498Y-98255842D01*
X56083925Y-98271820D01*
X56056588Y-98277257D01*
X56026995Y-98286873D01*
X55934979Y-98301447D01*
X55891657Y-98310065D01*
X55880573Y-98310065D01*
X55872069Y-98311412D01*
X55715211Y-98311412D01*
X55706707Y-98310065D01*
X55695623Y-98310065D01*
X55652301Y-98301447D01*
X55560284Y-98286873D01*
X55530689Y-98277257D01*
X55503355Y-98271820D01*
X55464785Y-98255844D01*
X55411107Y-98238403D01*
X55360816Y-98212778D01*
X55322243Y-98196801D01*
X55299069Y-98181317D01*
X55271338Y-98167187D01*
X55195948Y-98112412D01*
X55159247Y-98087890D01*
X55151414Y-98080057D01*
X55144448Y-98074996D01*
X55033523Y-97964071D01*
X55028461Y-97957104D01*
X55020630Y-97949273D01*
X54996110Y-97912576D01*
X54941332Y-97837181D01*
X54927200Y-97809447D01*
X54911719Y-97786277D01*
X54895743Y-97747708D01*
X54870116Y-97697412D01*
X54852672Y-97643726D01*
X54836700Y-97605165D01*
X54831263Y-97577836D01*
X54821646Y-97548235D01*
X54807070Y-97456211D01*
X54798455Y-97412897D01*
X54798455Y-97401812D01*
X54797108Y-97393308D01*
X54797108Y-97236451D01*
X54798455Y-97227946D01*
X54798455Y-97216863D01*
X54807070Y-97173551D01*
X54821646Y-97081524D01*
X54831264Y-97051921D01*
X54836700Y-97024595D01*
X54852671Y-96986036D01*
X54870116Y-96932347D01*
X54895745Y-96882045D01*
X54911719Y-96843483D01*
X54927198Y-96820316D01*
X54941332Y-96792578D01*
X54996118Y-96717170D01*
X55020630Y-96680487D01*
X55028458Y-96672658D01*
X55033523Y-96665688D01*
X55144448Y-96554763D01*
X55151418Y-96549698D01*
X55159247Y-96541870D01*
X55195930Y-96517358D01*
X55271338Y-96462572D01*
X55299076Y-96448438D01*
X55322243Y-96432959D01*
X55360805Y-96416985D01*
X55411107Y-96391356D01*
X55464796Y-96373911D01*
X55503355Y-96357940D01*
X55530681Y-96352504D01*
X55560284Y-96342886D01*
X55652311Y-96328310D01*
X55695623Y-96319695D01*
X55706706Y-96319695D01*
X55715211Y-96318348D01*
X55872069Y-96318348D01*
X55880574Y-96319695D01*
G37*
G36*
X60380574Y-96319695D02*
G01*
X60391657Y-96319695D01*
X60434969Y-96328310D01*
X60526995Y-96342886D01*
X60556596Y-96352503D01*
X60583925Y-96357940D01*
X60622486Y-96373912D01*
X60676172Y-96391356D01*
X60726468Y-96416983D01*
X60765037Y-96432959D01*
X60788207Y-96448440D01*
X60815941Y-96462572D01*
X60891336Y-96517350D01*
X60928033Y-96541870D01*
X60935864Y-96549701D01*
X60942831Y-96554763D01*
X61053756Y-96665688D01*
X61058817Y-96672654D01*
X61066650Y-96680487D01*
X61091172Y-96717188D01*
X61145947Y-96792578D01*
X61160077Y-96820309D01*
X61175561Y-96843483D01*
X61191538Y-96882056D01*
X61217163Y-96932347D01*
X61234604Y-96986025D01*
X61250580Y-97024595D01*
X61256017Y-97051929D01*
X61265633Y-97081524D01*
X61280207Y-97173541D01*
X61288825Y-97216863D01*
X61288825Y-97227946D01*
X61290172Y-97236451D01*
X61290172Y-97393308D01*
X61288825Y-97401812D01*
X61288825Y-97412897D01*
X61280207Y-97456221D01*
X61265633Y-97548235D01*
X61256017Y-97577828D01*
X61250580Y-97605165D01*
X61234602Y-97643738D01*
X61217163Y-97697412D01*
X61191540Y-97747698D01*
X61175561Y-97786277D01*
X61160074Y-97809453D01*
X61145947Y-97837181D01*
X61091181Y-97912559D01*
X61066650Y-97949273D01*
X61058814Y-97957108D01*
X61053756Y-97964071D01*
X60942831Y-98074996D01*
X60935868Y-98080054D01*
X60928033Y-98087890D01*
X60891319Y-98112421D01*
X60815941Y-98167187D01*
X60788213Y-98181314D01*
X60765037Y-98196801D01*
X60726458Y-98212780D01*
X60676172Y-98238403D01*
X60622498Y-98255842D01*
X60583925Y-98271820D01*
X60556588Y-98277257D01*
X60526995Y-98286873D01*
X60434979Y-98301447D01*
X60391657Y-98310065D01*
X60380573Y-98310065D01*
X60372069Y-98311412D01*
X60215211Y-98311412D01*
X60206707Y-98310065D01*
X60195623Y-98310065D01*
X60152301Y-98301447D01*
X60060284Y-98286873D01*
X60030689Y-98277257D01*
X60003355Y-98271820D01*
X59964785Y-98255844D01*
X59911107Y-98238403D01*
X59860816Y-98212778D01*
X59822243Y-98196801D01*
X59799069Y-98181317D01*
X59771338Y-98167187D01*
X59695948Y-98112412D01*
X59659247Y-98087890D01*
X59651414Y-98080057D01*
X59644448Y-98074996D01*
X59533523Y-97964071D01*
X59528461Y-97957104D01*
X59520630Y-97949273D01*
X59496110Y-97912576D01*
X59441332Y-97837181D01*
X59427200Y-97809447D01*
X59411719Y-97786277D01*
X59395743Y-97747708D01*
X59370116Y-97697412D01*
X59352672Y-97643726D01*
X59336700Y-97605165D01*
X59331263Y-97577836D01*
X59321646Y-97548235D01*
X59307070Y-97456211D01*
X59298455Y-97412897D01*
X59298455Y-97401812D01*
X59297108Y-97393308D01*
X59297108Y-97236451D01*
X59298455Y-97227946D01*
X59298455Y-97216863D01*
X59307070Y-97173551D01*
X59321646Y-97081524D01*
X59331264Y-97051921D01*
X59336700Y-97024595D01*
X59352671Y-96986036D01*
X59370116Y-96932347D01*
X59395745Y-96882045D01*
X59411719Y-96843483D01*
X59427198Y-96820316D01*
X59441332Y-96792578D01*
X59496118Y-96717170D01*
X59520630Y-96680487D01*
X59528458Y-96672658D01*
X59533523Y-96665688D01*
X59644448Y-96554763D01*
X59651418Y-96549698D01*
X59659247Y-96541870D01*
X59695930Y-96517358D01*
X59771338Y-96462572D01*
X59799076Y-96448438D01*
X59822243Y-96432959D01*
X59860805Y-96416985D01*
X59911107Y-96391356D01*
X59964796Y-96373911D01*
X60003355Y-96357940D01*
X60030681Y-96352504D01*
X60060284Y-96342886D01*
X60152311Y-96328310D01*
X60195623Y-96319695D01*
X60206706Y-96319695D01*
X60215211Y-96318348D01*
X60372069Y-96318348D01*
X60380574Y-96319695D01*
G37*
G36*
X78906188Y-93189048D02*
G01*
X79051077Y-93249063D01*
X79181475Y-93336192D01*
X79292368Y-93447085D01*
X79379497Y-93577483D01*
X79439512Y-93722372D01*
X79470108Y-93876186D01*
X79470108Y-94033014D01*
X79439512Y-94186828D01*
X79379497Y-94331717D01*
X79292368Y-94462115D01*
X79181475Y-94573008D01*
X79051077Y-94660137D01*
X78906188Y-94720152D01*
X78752374Y-94750748D01*
X78595546Y-94750748D01*
X78441732Y-94720152D01*
X78296843Y-94660137D01*
X78166445Y-94573008D01*
X78055552Y-94462115D01*
X77968423Y-94331717D01*
X77908408Y-94186828D01*
X77877812Y-94033014D01*
X77877812Y-93876186D01*
X77908408Y-93722372D01*
X77968423Y-93577483D01*
X78055552Y-93447085D01*
X78166445Y-93336192D01*
X78296843Y-93249063D01*
X78441732Y-93189048D01*
X78595546Y-93158452D01*
X78752374Y-93158452D01*
X78906188Y-93189048D01*
G37*
G36*
X83752508Y-93189048D02*
G01*
X83897397Y-93249063D01*
X84027795Y-93336192D01*
X84138688Y-93447085D01*
X84225817Y-93577483D01*
X84285832Y-93722372D01*
X84316428Y-93876186D01*
X84316428Y-94033014D01*
X84285832Y-94186828D01*
X84225817Y-94331717D01*
X84138688Y-94462115D01*
X84027795Y-94573008D01*
X83897397Y-94660137D01*
X83752508Y-94720152D01*
X83598694Y-94750748D01*
X83441866Y-94750748D01*
X83288052Y-94720152D01*
X83143163Y-94660137D01*
X83012765Y-94573008D01*
X82901872Y-94462115D01*
X82814743Y-94331717D01*
X82754728Y-94186828D01*
X82724132Y-94033014D01*
X82724132Y-93876186D01*
X82754728Y-93722372D01*
X82814743Y-93577483D01*
X82901872Y-93447085D01*
X83012765Y-93336192D01*
X83143163Y-93249063D01*
X83288052Y-93189048D01*
X83441866Y-93158452D01*
X83598694Y-93158452D01*
X83752508Y-93189048D01*
G37*
G36*
X67044388Y-93123008D02*
G01*
X67189277Y-93183023D01*
X67319675Y-93270152D01*
X67430568Y-93381045D01*
X67517697Y-93511443D01*
X67577712Y-93656332D01*
X67608308Y-93810146D01*
X67608308Y-93966974D01*
X67577712Y-94120788D01*
X67517697Y-94265677D01*
X67430568Y-94396075D01*
X67319675Y-94506968D01*
X67189277Y-94594097D01*
X67044388Y-94654112D01*
X66890574Y-94684708D01*
X66733746Y-94684708D01*
X66579932Y-94654112D01*
X66435043Y-94594097D01*
X66304645Y-94506968D01*
X66193752Y-94396075D01*
X66106623Y-94265677D01*
X66046608Y-94120788D01*
X66016012Y-93966974D01*
X66016012Y-93810146D01*
X66046608Y-93656332D01*
X66106623Y-93511443D01*
X66193752Y-93381045D01*
X66304645Y-93270152D01*
X66435043Y-93183023D01*
X66579932Y-93123008D01*
X66733746Y-93092412D01*
X66890574Y-93092412D01*
X67044388Y-93123008D01*
G37*
G36*
X71763708Y-93123008D02*
G01*
X71908597Y-93183023D01*
X72038995Y-93270152D01*
X72149888Y-93381045D01*
X72237017Y-93511443D01*
X72297032Y-93656332D01*
X72327628Y-93810146D01*
X72327628Y-93966974D01*
X72297032Y-94120788D01*
X72237017Y-94265677D01*
X72149888Y-94396075D01*
X72038995Y-94506968D01*
X71908597Y-94594097D01*
X71763708Y-94654112D01*
X71609894Y-94684708D01*
X71453066Y-94684708D01*
X71299252Y-94654112D01*
X71154363Y-94594097D01*
X71023965Y-94506968D01*
X70913072Y-94396075D01*
X70825943Y-94265677D01*
X70765928Y-94120788D01*
X70735332Y-93966974D01*
X70735332Y-93810146D01*
X70765928Y-93656332D01*
X70825943Y-93511443D01*
X70913072Y-93381045D01*
X71023965Y-93270152D01*
X71154363Y-93183023D01*
X71299252Y-93123008D01*
X71453066Y-93092412D01*
X71609894Y-93092412D01*
X71763708Y-93123008D01*
G37*
G36*
X125456323Y-90248626D02*
G01*
X125683751Y-90309566D01*
X125901280Y-90399669D01*
X126105186Y-90517395D01*
X126291982Y-90660728D01*
X126458472Y-90827218D01*
X126601805Y-91014014D01*
X126719531Y-91217920D01*
X126809634Y-91435449D01*
X126870574Y-91662877D01*
X126901306Y-91896314D01*
X126901306Y-92131766D01*
X126870574Y-92365203D01*
X126809634Y-92592631D01*
X126719531Y-92810160D01*
X126601805Y-93014066D01*
X126458472Y-93200862D01*
X126291982Y-93367352D01*
X126105186Y-93510685D01*
X125901280Y-93628411D01*
X125683751Y-93718514D01*
X125456323Y-93779454D01*
X125222886Y-93810186D01*
X124987434Y-93810186D01*
X124753997Y-93779454D01*
X124526569Y-93718514D01*
X124309040Y-93628411D01*
X124105134Y-93510685D01*
X123918338Y-93367352D01*
X123751848Y-93200862D01*
X123608515Y-93014066D01*
X123490789Y-92810160D01*
X123400686Y-92592631D01*
X123339746Y-92365203D01*
X123309014Y-92131766D01*
X123309014Y-91896314D01*
X123339746Y-91662877D01*
X123400686Y-91435449D01*
X123490789Y-91217920D01*
X123608515Y-91014014D01*
X123751848Y-90827218D01*
X123918338Y-90660728D01*
X124105134Y-90517395D01*
X124309040Y-90399669D01*
X124526569Y-90309566D01*
X124753997Y-90248626D01*
X124987434Y-90217894D01*
X125222886Y-90217894D01*
X125456323Y-90248626D01*
G37*
G36*
X90529228Y-91131648D02*
G01*
X90674117Y-91191663D01*
X90804515Y-91278792D01*
X90915408Y-91389685D01*
X91002537Y-91520083D01*
X91062552Y-91664972D01*
X91093148Y-91818786D01*
X91093148Y-91975614D01*
X91062552Y-92129428D01*
X91002537Y-92274317D01*
X90915408Y-92404715D01*
X90804515Y-92515608D01*
X90674117Y-92602737D01*
X90529228Y-92662752D01*
X90375414Y-92693348D01*
X90218586Y-92693348D01*
X90064772Y-92662752D01*
X89919883Y-92602737D01*
X89789485Y-92515608D01*
X89678592Y-92404715D01*
X89591463Y-92274317D01*
X89531448Y-92129428D01*
X89500852Y-91975614D01*
X89500852Y-91818786D01*
X89531448Y-91664972D01*
X89591463Y-91520083D01*
X89678592Y-91389685D01*
X89789485Y-91278792D01*
X89919883Y-91191663D01*
X90064772Y-91131648D01*
X90218586Y-91101052D01*
X90375414Y-91101052D01*
X90529228Y-91131648D01*
G37*
G36*
X95370468Y-91116408D02*
G01*
X95515357Y-91176423D01*
X95645755Y-91263552D01*
X95756648Y-91374445D01*
X95843777Y-91504843D01*
X95903792Y-91649732D01*
X95934388Y-91803546D01*
X95934388Y-91960374D01*
X95903792Y-92114188D01*
X95843777Y-92259077D01*
X95756648Y-92389475D01*
X95645755Y-92500368D01*
X95515357Y-92587497D01*
X95370468Y-92647512D01*
X95216654Y-92678108D01*
X95059826Y-92678108D01*
X94906012Y-92647512D01*
X94761123Y-92587497D01*
X94630725Y-92500368D01*
X94519832Y-92389475D01*
X94432703Y-92259077D01*
X94372688Y-92114188D01*
X94342092Y-91960374D01*
X94342092Y-91803546D01*
X94372688Y-91649732D01*
X94432703Y-91504843D01*
X94519832Y-91374445D01*
X94630725Y-91263552D01*
X94761123Y-91176423D01*
X94906012Y-91116408D01*
X95059826Y-91085812D01*
X95216654Y-91085812D01*
X95370468Y-91116408D01*
G37*
G36*
X104613280Y-90358800D02*
G01*
X102813280Y-90358800D01*
X102813280Y-88558800D01*
X104613280Y-88558800D01*
X104613280Y-90358800D01*
G37*
G36*
X103974536Y-86057554D02*
G01*
X104137537Y-86125071D01*
X104284234Y-86223091D01*
X104408989Y-86347846D01*
X104507009Y-86494543D01*
X104574526Y-86657544D01*
X104608946Y-86830585D01*
X104608946Y-87007015D01*
X104574526Y-87180056D01*
X104507009Y-87343057D01*
X104408989Y-87489754D01*
X104284234Y-87614509D01*
X104137537Y-87712529D01*
X103974536Y-87780046D01*
X103801495Y-87814466D01*
X103625065Y-87814466D01*
X103452024Y-87780046D01*
X103289023Y-87712529D01*
X103142326Y-87614509D01*
X103017571Y-87489754D01*
X102919551Y-87343057D01*
X102852034Y-87180056D01*
X102817614Y-87007015D01*
X102817614Y-86830585D01*
X102852034Y-86657544D01*
X102919551Y-86494543D01*
X103017571Y-86347846D01*
X103142326Y-86223091D01*
X103289023Y-86125071D01*
X103452024Y-86057554D01*
X103625065Y-86023134D01*
X103801495Y-86023134D01*
X103974536Y-86057554D01*
G37*
G36*
X58187054Y-85031876D02*
G01*
X58366140Y-85090065D01*
X58533918Y-85175552D01*
X58686258Y-85286233D01*
X58819407Y-85419382D01*
X58930088Y-85571722D01*
X59015575Y-85739500D01*
X59073764Y-85918586D01*
X59103221Y-86104569D01*
X59103221Y-86292871D01*
X59073764Y-86478854D01*
X59015575Y-86657940D01*
X58930088Y-86825718D01*
X58819407Y-86978058D01*
X58686258Y-87111207D01*
X58533918Y-87221888D01*
X58366140Y-87307375D01*
X58187054Y-87365564D01*
X58001071Y-87395021D01*
X57812769Y-87395021D01*
X57626786Y-87365564D01*
X57447700Y-87307375D01*
X57279922Y-87221888D01*
X57127582Y-87111207D01*
X56994433Y-86978058D01*
X56883752Y-86825718D01*
X56798265Y-86657940D01*
X56740076Y-86478854D01*
X56710619Y-86292871D01*
X56710619Y-86104569D01*
X56740076Y-85918586D01*
X56798265Y-85739500D01*
X56883752Y-85571722D01*
X56994433Y-85419382D01*
X57127582Y-85286233D01*
X57279922Y-85175552D01*
X57447700Y-85090065D01*
X57626786Y-85031876D01*
X57812769Y-85002419D01*
X58001071Y-85002419D01*
X58187054Y-85031876D01*
G37*
G36*
X104592960Y-84526960D02*
G01*
X102792960Y-84526960D01*
X102792960Y-82726960D01*
X104592960Y-82726960D01*
X104592960Y-84526960D01*
G37*
G36*
X59106920Y-82398720D02*
G01*
X56706920Y-82398720D01*
X56706920Y-79998720D01*
X59106920Y-79998720D01*
X59106920Y-82398720D01*
G37*
G36*
X78906188Y-80489048D02*
G01*
X79051077Y-80549063D01*
X79181475Y-80636192D01*
X79292368Y-80747085D01*
X79379497Y-80877483D01*
X79439512Y-81022372D01*
X79470108Y-81176186D01*
X79470108Y-81333014D01*
X79439512Y-81486828D01*
X79379497Y-81631717D01*
X79292368Y-81762115D01*
X79181475Y-81873008D01*
X79051077Y-81960137D01*
X78906188Y-82020152D01*
X78752374Y-82050748D01*
X78595546Y-82050748D01*
X78441732Y-82020152D01*
X78296843Y-81960137D01*
X78166445Y-81873008D01*
X78055552Y-81762115D01*
X77968423Y-81631717D01*
X77908408Y-81486828D01*
X77877812Y-81333014D01*
X77877812Y-81176186D01*
X77908408Y-81022372D01*
X77968423Y-80877483D01*
X78055552Y-80747085D01*
X78166445Y-80636192D01*
X78296843Y-80549063D01*
X78441732Y-80489048D01*
X78595546Y-80458452D01*
X78752374Y-80458452D01*
X78906188Y-80489048D01*
G37*
G36*
X83752508Y-80489048D02*
G01*
X83897397Y-80549063D01*
X84027795Y-80636192D01*
X84138688Y-80747085D01*
X84225817Y-80877483D01*
X84285832Y-81022372D01*
X84316428Y-81176186D01*
X84316428Y-81333014D01*
X84285832Y-81486828D01*
X84225817Y-81631717D01*
X84138688Y-81762115D01*
X84027795Y-81873008D01*
X83897397Y-81960137D01*
X83752508Y-82020152D01*
X83598694Y-82050748D01*
X83441866Y-82050748D01*
X83288052Y-82020152D01*
X83143163Y-81960137D01*
X83012765Y-81873008D01*
X82901872Y-81762115D01*
X82814743Y-81631717D01*
X82754728Y-81486828D01*
X82724132Y-81333014D01*
X82724132Y-81176186D01*
X82754728Y-81022372D01*
X82814743Y-80877483D01*
X82901872Y-80747085D01*
X83012765Y-80636192D01*
X83143163Y-80549063D01*
X83288052Y-80489048D01*
X83441866Y-80458452D01*
X83598694Y-80458452D01*
X83752508Y-80489048D01*
G37*
G36*
X67044388Y-80423008D02*
G01*
X67189277Y-80483023D01*
X67319675Y-80570152D01*
X67430568Y-80681045D01*
X67517697Y-80811443D01*
X67577712Y-80956332D01*
X67608308Y-81110146D01*
X67608308Y-81266974D01*
X67577712Y-81420788D01*
X67517697Y-81565677D01*
X67430568Y-81696075D01*
X67319675Y-81806968D01*
X67189277Y-81894097D01*
X67044388Y-81954112D01*
X66890574Y-81984708D01*
X66733746Y-81984708D01*
X66579932Y-81954112D01*
X66435043Y-81894097D01*
X66304645Y-81806968D01*
X66193752Y-81696075D01*
X66106623Y-81565677D01*
X66046608Y-81420788D01*
X66016012Y-81266974D01*
X66016012Y-81110146D01*
X66046608Y-80956332D01*
X66106623Y-80811443D01*
X66193752Y-80681045D01*
X66304645Y-80570152D01*
X66435043Y-80483023D01*
X66579932Y-80423008D01*
X66733746Y-80392412D01*
X66890574Y-80392412D01*
X67044388Y-80423008D01*
G37*
G36*
X71763708Y-80423008D02*
G01*
X71908597Y-80483023D01*
X72038995Y-80570152D01*
X72149888Y-80681045D01*
X72237017Y-80811443D01*
X72297032Y-80956332D01*
X72327628Y-81110146D01*
X72327628Y-81266974D01*
X72297032Y-81420788D01*
X72237017Y-81565677D01*
X72149888Y-81696075D01*
X72038995Y-81806968D01*
X71908597Y-81894097D01*
X71763708Y-81954112D01*
X71609894Y-81984708D01*
X71453066Y-81984708D01*
X71299252Y-81954112D01*
X71154363Y-81894097D01*
X71023965Y-81806968D01*
X70913072Y-81696075D01*
X70825943Y-81565677D01*
X70765928Y-81420788D01*
X70735332Y-81266974D01*
X70735332Y-81110146D01*
X70765928Y-80956332D01*
X70825943Y-80811443D01*
X70913072Y-80681045D01*
X71023965Y-80570152D01*
X71154363Y-80483023D01*
X71299252Y-80423008D01*
X71453066Y-80392412D01*
X71609894Y-80392412D01*
X71763708Y-80423008D01*
G37*
G36*
X103954216Y-80225714D02*
G01*
X104117217Y-80293231D01*
X104263914Y-80391251D01*
X104388669Y-80516006D01*
X104486689Y-80662703D01*
X104554206Y-80825704D01*
X104588626Y-80998745D01*
X104588626Y-81175175D01*
X104554206Y-81348216D01*
X104486689Y-81511217D01*
X104388669Y-81657914D01*
X104263914Y-81782669D01*
X104117217Y-81880689D01*
X103954216Y-81948206D01*
X103781175Y-81982626D01*
X103604745Y-81982626D01*
X103431704Y-81948206D01*
X103268703Y-81880689D01*
X103122006Y-81782669D01*
X102997251Y-81657914D01*
X102899231Y-81511217D01*
X102831714Y-81348216D01*
X102797294Y-81175175D01*
X102797294Y-80998745D01*
X102831714Y-80825704D01*
X102899231Y-80662703D01*
X102997251Y-80516006D01*
X103122006Y-80391251D01*
X103268703Y-80293231D01*
X103431704Y-80225714D01*
X103604745Y-80191294D01*
X103781175Y-80191294D01*
X103954216Y-80225714D01*
G37*
G36*
X125456323Y-77548626D02*
G01*
X125683751Y-77609566D01*
X125901280Y-77699669D01*
X126105186Y-77817395D01*
X126291982Y-77960728D01*
X126458472Y-78127218D01*
X126601805Y-78314014D01*
X126719531Y-78517920D01*
X126809634Y-78735449D01*
X126870574Y-78962877D01*
X126901306Y-79196314D01*
X126901306Y-79431766D01*
X126870574Y-79665203D01*
X126809634Y-79892631D01*
X126719531Y-80110160D01*
X126601805Y-80314066D01*
X126458472Y-80500862D01*
X126291982Y-80667352D01*
X126105186Y-80810685D01*
X125901280Y-80928411D01*
X125683751Y-81018514D01*
X125456323Y-81079454D01*
X125222886Y-81110186D01*
X124987434Y-81110186D01*
X124753997Y-81079454D01*
X124526569Y-81018514D01*
X124309040Y-80928411D01*
X124105134Y-80810685D01*
X123918338Y-80667352D01*
X123751848Y-80500862D01*
X123608515Y-80314066D01*
X123490789Y-80110160D01*
X123400686Y-79892631D01*
X123339746Y-79665203D01*
X123309014Y-79431766D01*
X123309014Y-79196314D01*
X123339746Y-78962877D01*
X123400686Y-78735449D01*
X123490789Y-78517920D01*
X123608515Y-78314014D01*
X123751848Y-78127218D01*
X123918338Y-77960728D01*
X124105134Y-77817395D01*
X124309040Y-77699669D01*
X124526569Y-77609566D01*
X124753997Y-77548626D01*
X124987434Y-77517894D01*
X125222886Y-77517894D01*
X125456323Y-77548626D01*
G37*
G36*
X90529228Y-78431648D02*
G01*
X90674117Y-78491663D01*
X90804515Y-78578792D01*
X90915408Y-78689685D01*
X91002537Y-78820083D01*
X91062552Y-78964972D01*
X91093148Y-79118786D01*
X91093148Y-79275614D01*
X91062552Y-79429428D01*
X91002537Y-79574317D01*
X90915408Y-79704715D01*
X90804515Y-79815608D01*
X90674117Y-79902737D01*
X90529228Y-79962752D01*
X90375414Y-79993348D01*
X90218586Y-79993348D01*
X90064772Y-79962752D01*
X89919883Y-79902737D01*
X89789485Y-79815608D01*
X89678592Y-79704715D01*
X89591463Y-79574317D01*
X89531448Y-79429428D01*
X89500852Y-79275614D01*
X89500852Y-79118786D01*
X89531448Y-78964972D01*
X89591463Y-78820083D01*
X89678592Y-78689685D01*
X89789485Y-78578792D01*
X89919883Y-78491663D01*
X90064772Y-78431648D01*
X90218586Y-78401052D01*
X90375414Y-78401052D01*
X90529228Y-78431648D01*
G37*
G36*
X95370468Y-78416408D02*
G01*
X95515357Y-78476423D01*
X95645755Y-78563552D01*
X95756648Y-78674445D01*
X95843777Y-78804843D01*
X95903792Y-78949732D01*
X95934388Y-79103546D01*
X95934388Y-79260374D01*
X95903792Y-79414188D01*
X95843777Y-79559077D01*
X95756648Y-79689475D01*
X95645755Y-79800368D01*
X95515357Y-79887497D01*
X95370468Y-79947512D01*
X95216654Y-79978108D01*
X95059826Y-79978108D01*
X94906012Y-79947512D01*
X94761123Y-79887497D01*
X94630725Y-79800368D01*
X94519832Y-79689475D01*
X94432703Y-79559077D01*
X94372688Y-79414188D01*
X94342092Y-79260374D01*
X94342092Y-79103546D01*
X94372688Y-78949732D01*
X94432703Y-78804843D01*
X94519832Y-78674445D01*
X94630725Y-78563552D01*
X94761123Y-78476423D01*
X94906012Y-78416408D01*
X95059826Y-78385812D01*
X95216654Y-78385812D01*
X95370468Y-78416408D01*
G37*
G36*
X48905344Y-74628684D02*
G01*
X49162085Y-74697478D01*
X49407651Y-74799195D01*
X49637839Y-74932094D01*
X49848711Y-75093902D01*
X50036658Y-75281849D01*
X50198466Y-75492721D01*
X50331365Y-75722909D01*
X50433082Y-75968475D01*
X50501876Y-76225216D01*
X50536569Y-76488741D01*
X50536569Y-76754539D01*
X50501876Y-77018064D01*
X50433082Y-77274805D01*
X50331365Y-77520371D01*
X50198466Y-77750559D01*
X50036658Y-77961431D01*
X49848711Y-78149378D01*
X49637839Y-78311186D01*
X49407651Y-78444085D01*
X49162085Y-78545802D01*
X48905344Y-78614596D01*
X48641819Y-78649289D01*
X48376021Y-78649289D01*
X48112496Y-78614596D01*
X47855755Y-78545802D01*
X47610189Y-78444085D01*
X47380001Y-78311186D01*
X47169129Y-78149378D01*
X46981182Y-77961431D01*
X46819374Y-77750559D01*
X46686475Y-77520371D01*
X46584758Y-77274805D01*
X46515964Y-77018064D01*
X46481271Y-76754539D01*
X46481271Y-76488741D01*
X46515964Y-76225216D01*
X46584758Y-75968475D01*
X46686475Y-75722909D01*
X46819374Y-75492721D01*
X46981182Y-75281849D01*
X47169129Y-75093902D01*
X47380001Y-74932094D01*
X47610189Y-74799195D01*
X47855755Y-74697478D01*
X48112496Y-74628684D01*
X48376021Y-74593991D01*
X48641819Y-74593991D01*
X48905344Y-74628684D01*
G37*
G36*
X103920108Y-76257408D02*
G01*
X104064997Y-76317423D01*
X104195395Y-76404552D01*
X104306288Y-76515445D01*
X104393417Y-76645843D01*
X104453432Y-76790732D01*
X104484028Y-76944546D01*
X104484028Y-77101374D01*
X104453432Y-77255188D01*
X104393417Y-77400077D01*
X104306288Y-77530475D01*
X104195395Y-77641368D01*
X104064997Y-77728497D01*
X103920108Y-77788512D01*
X103766294Y-77819108D01*
X103609466Y-77819108D01*
X103455652Y-77788512D01*
X103310763Y-77728497D01*
X103180365Y-77641368D01*
X103069472Y-77530475D01*
X102982343Y-77400077D01*
X102922328Y-77255188D01*
X102891732Y-77101374D01*
X102891732Y-76944546D01*
X102922328Y-76790732D01*
X102982343Y-76645843D01*
X103069472Y-76515445D01*
X103180365Y-76404552D01*
X103310763Y-76317423D01*
X103455652Y-76257408D01*
X103609466Y-76226812D01*
X103766294Y-76226812D01*
X103920108Y-76257408D01*
G37*
G36*
X71763708Y-76130408D02*
G01*
X71908597Y-76190423D01*
X72038995Y-76277552D01*
X72149888Y-76388445D01*
X72237017Y-76518843D01*
X72297032Y-76663732D01*
X72327628Y-76817546D01*
X72327628Y-76974374D01*
X72297032Y-77128188D01*
X72237017Y-77273077D01*
X72149888Y-77403475D01*
X72038995Y-77514368D01*
X71908597Y-77601497D01*
X71763708Y-77661512D01*
X71609894Y-77692108D01*
X71453066Y-77692108D01*
X71299252Y-77661512D01*
X71154363Y-77601497D01*
X71023965Y-77514368D01*
X70913072Y-77403475D01*
X70825943Y-77273077D01*
X70765928Y-77128188D01*
X70735332Y-76974374D01*
X70735332Y-76817546D01*
X70765928Y-76663732D01*
X70825943Y-76518843D01*
X70913072Y-76388445D01*
X71023965Y-76277552D01*
X71154363Y-76190423D01*
X71299252Y-76130408D01*
X71453066Y-76099812D01*
X71609894Y-76099812D01*
X71763708Y-76130408D01*
G37*
G36*
X84463708Y-76130408D02*
G01*
X84608597Y-76190423D01*
X84738995Y-76277552D01*
X84849888Y-76388445D01*
X84937017Y-76518843D01*
X84997032Y-76663732D01*
X85027628Y-76817546D01*
X85027628Y-76974374D01*
X84997032Y-77128188D01*
X84937017Y-77273077D01*
X84849888Y-77403475D01*
X84738995Y-77514368D01*
X84608597Y-77601497D01*
X84463708Y-77661512D01*
X84309894Y-77692108D01*
X84153066Y-77692108D01*
X83999252Y-77661512D01*
X83854363Y-77601497D01*
X83723965Y-77514368D01*
X83613072Y-77403475D01*
X83525943Y-77273077D01*
X83465928Y-77128188D01*
X83435332Y-76974374D01*
X83435332Y-76817546D01*
X83465928Y-76663732D01*
X83525943Y-76518843D01*
X83613072Y-76388445D01*
X83723965Y-76277552D01*
X83854363Y-76190423D01*
X83999252Y-76130408D01*
X84153066Y-76099812D01*
X84309894Y-76099812D01*
X84463708Y-76130408D01*
G37*
G36*
X125456323Y-71620266D02*
G01*
X125683751Y-71681206D01*
X125901280Y-71771309D01*
X126105186Y-71889035D01*
X126291982Y-72032368D01*
X126458472Y-72198858D01*
X126601805Y-72385654D01*
X126719531Y-72589560D01*
X126809634Y-72807089D01*
X126870574Y-73034517D01*
X126901306Y-73267954D01*
X126901306Y-73503406D01*
X126870574Y-73736843D01*
X126809634Y-73964271D01*
X126719531Y-74181800D01*
X126601805Y-74385706D01*
X126458472Y-74572502D01*
X126291982Y-74738992D01*
X126105186Y-74882325D01*
X125901280Y-75000051D01*
X125683751Y-75090154D01*
X125456323Y-75151094D01*
X125222886Y-75181826D01*
X124987434Y-75181826D01*
X124753997Y-75151094D01*
X124526569Y-75090154D01*
X124309040Y-75000051D01*
X124105134Y-74882325D01*
X123918338Y-74738992D01*
X123751848Y-74572502D01*
X123608515Y-74385706D01*
X123490789Y-74181800D01*
X123400686Y-73964271D01*
X123339746Y-73736843D01*
X123309014Y-73503406D01*
X123309014Y-73267954D01*
X123339746Y-73034517D01*
X123400686Y-72807089D01*
X123490789Y-72589560D01*
X123608515Y-72385654D01*
X123751848Y-72198858D01*
X123918338Y-72032368D01*
X124105134Y-71889035D01*
X124309040Y-71771309D01*
X124526569Y-71681206D01*
X124753997Y-71620266D01*
X124987434Y-71589534D01*
X125222886Y-71589534D01*
X125456323Y-71620266D01*
G37*
G36*
X90529228Y-71146928D02*
G01*
X90674117Y-71206943D01*
X90804515Y-71294072D01*
X90915408Y-71404965D01*
X91002537Y-71535363D01*
X91062552Y-71680252D01*
X91093148Y-71834066D01*
X91093148Y-71990894D01*
X91062552Y-72144708D01*
X91002537Y-72289597D01*
X90915408Y-72419995D01*
X90804515Y-72530888D01*
X90674117Y-72618017D01*
X90529228Y-72678032D01*
X90375414Y-72708628D01*
X90218586Y-72708628D01*
X90064772Y-72678032D01*
X89919883Y-72618017D01*
X89789485Y-72530888D01*
X89678592Y-72419995D01*
X89591463Y-72289597D01*
X89531448Y-72144708D01*
X89500852Y-71990894D01*
X89500852Y-71834066D01*
X89531448Y-71680252D01*
X89591463Y-71535363D01*
X89678592Y-71404965D01*
X89789485Y-71294072D01*
X89919883Y-71206943D01*
X90064772Y-71146928D01*
X90218586Y-71116332D01*
X90375414Y-71116332D01*
X90529228Y-71146928D01*
G37*
G36*
X98149228Y-71146928D02*
G01*
X98294117Y-71206943D01*
X98424515Y-71294072D01*
X98535408Y-71404965D01*
X98622537Y-71535363D01*
X98682552Y-71680252D01*
X98713148Y-71834066D01*
X98713148Y-71990894D01*
X98682552Y-72144708D01*
X98622537Y-72289597D01*
X98535408Y-72419995D01*
X98424515Y-72530888D01*
X98294117Y-72618017D01*
X98149228Y-72678032D01*
X97995414Y-72708628D01*
X97838586Y-72708628D01*
X97684772Y-72678032D01*
X97539883Y-72618017D01*
X97409485Y-72530888D01*
X97298592Y-72419995D01*
X97211463Y-72289597D01*
X97151448Y-72144708D01*
X97120852Y-71990894D01*
X97120852Y-71834066D01*
X97151448Y-71680252D01*
X97211463Y-71535363D01*
X97298592Y-71404965D01*
X97409485Y-71294072D01*
X97539883Y-71206943D01*
X97684772Y-71146928D01*
X97838586Y-71116332D01*
X97995414Y-71116332D01*
X98149228Y-71146928D01*
G37*
G36*
X108182228Y-69374008D02*
G01*
X108327117Y-69434023D01*
X108457515Y-69521152D01*
X108568408Y-69632045D01*
X108655537Y-69762443D01*
X108715552Y-69907332D01*
X108746148Y-70061146D01*
X108746148Y-70217974D01*
X108715552Y-70371788D01*
X108655537Y-70516677D01*
X108568408Y-70647075D01*
X108457515Y-70757968D01*
X108327117Y-70845097D01*
X108182228Y-70905112D01*
X108028414Y-70935708D01*
X107871586Y-70935708D01*
X107717772Y-70905112D01*
X107572883Y-70845097D01*
X107442485Y-70757968D01*
X107331592Y-70647075D01*
X107244463Y-70516677D01*
X107184448Y-70371788D01*
X107153852Y-70217974D01*
X107153852Y-70061146D01*
X107184448Y-69907332D01*
X107244463Y-69762443D01*
X107331592Y-69632045D01*
X107442485Y-69521152D01*
X107572883Y-69434023D01*
X107717772Y-69374008D01*
X107871586Y-69343412D01*
X108028414Y-69343412D01*
X108182228Y-69374008D01*
G37*
G36*
X53267428Y-68718688D02*
G01*
X53412317Y-68778703D01*
X53542715Y-68865832D01*
X53653608Y-68976725D01*
X53740737Y-69107123D01*
X53800752Y-69252012D01*
X53831348Y-69405826D01*
X53831348Y-69562654D01*
X53800752Y-69716468D01*
X53740737Y-69861357D01*
X53653608Y-69991755D01*
X53542715Y-70102648D01*
X53412317Y-70189777D01*
X53267428Y-70249792D01*
X53113614Y-70280388D01*
X52956786Y-70280388D01*
X52802972Y-70249792D01*
X52658083Y-70189777D01*
X52527685Y-70102648D01*
X52416792Y-69991755D01*
X52329663Y-69861357D01*
X52269648Y-69716468D01*
X52239052Y-69562654D01*
X52239052Y-69405826D01*
X52269648Y-69252012D01*
X52329663Y-69107123D01*
X52416792Y-68976725D01*
X52527685Y-68865832D01*
X52658083Y-68778703D01*
X52802972Y-68718688D01*
X52956786Y-68688092D01*
X53113614Y-68688092D01*
X53267428Y-68718688D01*
G37*
G36*
X90529228Y-68606928D02*
G01*
X90674117Y-68666943D01*
X90804515Y-68754072D01*
X90915408Y-68864965D01*
X91002537Y-68995363D01*
X91062552Y-69140252D01*
X91093148Y-69294066D01*
X91093148Y-69450894D01*
X91062552Y-69604708D01*
X91002537Y-69749597D01*
X90915408Y-69879995D01*
X90804515Y-69990888D01*
X90674117Y-70078017D01*
X90529228Y-70138032D01*
X90375414Y-70168628D01*
X90218586Y-70168628D01*
X90064772Y-70138032D01*
X89919883Y-70078017D01*
X89789485Y-69990888D01*
X89678592Y-69879995D01*
X89591463Y-69749597D01*
X89531448Y-69604708D01*
X89500852Y-69450894D01*
X89500852Y-69294066D01*
X89531448Y-69140252D01*
X89591463Y-68995363D01*
X89678592Y-68864965D01*
X89789485Y-68754072D01*
X89919883Y-68666943D01*
X90064772Y-68606928D01*
X90218586Y-68576332D01*
X90375414Y-68576332D01*
X90529228Y-68606928D01*
G37*
G36*
X98149228Y-68606928D02*
G01*
X98294117Y-68666943D01*
X98424515Y-68754072D01*
X98535408Y-68864965D01*
X98622537Y-68995363D01*
X98682552Y-69140252D01*
X98713148Y-69294066D01*
X98713148Y-69450894D01*
X98682552Y-69604708D01*
X98622537Y-69749597D01*
X98535408Y-69879995D01*
X98424515Y-69990888D01*
X98294117Y-70078017D01*
X98149228Y-70138032D01*
X97995414Y-70168628D01*
X97838586Y-70168628D01*
X97684772Y-70138032D01*
X97539883Y-70078017D01*
X97409485Y-69990888D01*
X97298592Y-69879995D01*
X97211463Y-69749597D01*
X97151448Y-69604708D01*
X97120852Y-69450894D01*
X97120852Y-69294066D01*
X97151448Y-69140252D01*
X97211463Y-68995363D01*
X97298592Y-68864965D01*
X97409485Y-68754072D01*
X97539883Y-68666943D01*
X97684772Y-68606928D01*
X97838586Y-68576332D01*
X97995414Y-68576332D01*
X98149228Y-68606928D01*
G37*
G36*
X80783280Y-67925800D02*
G01*
X78383280Y-67925800D01*
X78383280Y-65525800D01*
X80783280Y-65525800D01*
X80783280Y-67925800D01*
G37*
G36*
X74863414Y-65558956D02*
G01*
X75042500Y-65617145D01*
X75210278Y-65702632D01*
X75362618Y-65813313D01*
X75495767Y-65946462D01*
X75606448Y-66098802D01*
X75691935Y-66266580D01*
X75750124Y-66445666D01*
X75779581Y-66631649D01*
X75779581Y-66819951D01*
X75750124Y-67005934D01*
X75691935Y-67185020D01*
X75606448Y-67352798D01*
X75495767Y-67505138D01*
X75362618Y-67638287D01*
X75210278Y-67748968D01*
X75042500Y-67834455D01*
X74863414Y-67892644D01*
X74677431Y-67922101D01*
X74489129Y-67922101D01*
X74303146Y-67892644D01*
X74124060Y-67834455D01*
X73956282Y-67748968D01*
X73803942Y-67638287D01*
X73670793Y-67505138D01*
X73560112Y-67352798D01*
X73474625Y-67185020D01*
X73416436Y-67005934D01*
X73386979Y-66819951D01*
X73386979Y-66631649D01*
X73416436Y-66445666D01*
X73474625Y-66266580D01*
X73560112Y-66098802D01*
X73670793Y-65946462D01*
X73803942Y-65813313D01*
X73956282Y-65702632D01*
X74124060Y-65617145D01*
X74303146Y-65558956D01*
X74489129Y-65529499D01*
X74677431Y-65529499D01*
X74863414Y-65558956D01*
G37*
G36*
X90529228Y-66066928D02*
G01*
X90674117Y-66126943D01*
X90804515Y-66214072D01*
X90915408Y-66324965D01*
X91002537Y-66455363D01*
X91062552Y-66600252D01*
X91093148Y-66754066D01*
X91093148Y-66910894D01*
X91062552Y-67064708D01*
X91002537Y-67209597D01*
X90915408Y-67339995D01*
X90804515Y-67450888D01*
X90674117Y-67538017D01*
X90529228Y-67598032D01*
X90375414Y-67628628D01*
X90218586Y-67628628D01*
X90064772Y-67598032D01*
X89919883Y-67538017D01*
X89789485Y-67450888D01*
X89678592Y-67339995D01*
X89591463Y-67209597D01*
X89531448Y-67064708D01*
X89500852Y-66910894D01*
X89500852Y-66754066D01*
X89531448Y-66600252D01*
X89591463Y-66455363D01*
X89678592Y-66324965D01*
X89789485Y-66214072D01*
X89919883Y-66126943D01*
X90064772Y-66066928D01*
X90218586Y-66036332D01*
X90375414Y-66036332D01*
X90529228Y-66066928D01*
G37*
G36*
X98149228Y-66066928D02*
G01*
X98294117Y-66126943D01*
X98424515Y-66214072D01*
X98535408Y-66324965D01*
X98622537Y-66455363D01*
X98682552Y-66600252D01*
X98713148Y-66754066D01*
X98713148Y-66910894D01*
X98682552Y-67064708D01*
X98622537Y-67209597D01*
X98535408Y-67339995D01*
X98424515Y-67450888D01*
X98294117Y-67538017D01*
X98149228Y-67598032D01*
X97995414Y-67628628D01*
X97838586Y-67628628D01*
X97684772Y-67598032D01*
X97539883Y-67538017D01*
X97409485Y-67450888D01*
X97298592Y-67339995D01*
X97211463Y-67209597D01*
X97151448Y-67064708D01*
X97120852Y-66910894D01*
X97120852Y-66754066D01*
X97151448Y-66600252D01*
X97211463Y-66455363D01*
X97298592Y-66324965D01*
X97409485Y-66214072D01*
X97539883Y-66126943D01*
X97684772Y-66066928D01*
X97838586Y-66036332D01*
X97995414Y-66036332D01*
X98149228Y-66066928D01*
G37*
G36*
X58386616Y-65058725D02*
G01*
X58524262Y-65115740D01*
X58648139Y-65198512D01*
X58753488Y-65303861D01*
X58836260Y-65427738D01*
X58893275Y-65565384D01*
X58922340Y-65711507D01*
X58922340Y-65860493D01*
X58893275Y-66006616D01*
X58836260Y-66144262D01*
X58753488Y-66268139D01*
X58648139Y-66373488D01*
X58524262Y-66456260D01*
X58386616Y-66513275D01*
X58240493Y-66542340D01*
X58091507Y-66542340D01*
X57945384Y-66513275D01*
X57807738Y-66456260D01*
X57683861Y-66373488D01*
X57578512Y-66268139D01*
X57495740Y-66144262D01*
X57438725Y-66006616D01*
X57409660Y-65860493D01*
X57409660Y-65711507D01*
X57438725Y-65565384D01*
X57495740Y-65427738D01*
X57578512Y-65303861D01*
X57683861Y-65198512D01*
X57807738Y-65115740D01*
X57945384Y-65058725D01*
X58091507Y-65029660D01*
X58240493Y-65029660D01*
X58386616Y-65058725D01*
G37*
G36*
X64651160Y-66530760D02*
G01*
X63131160Y-66530760D01*
X63131160Y-65010760D01*
X64651160Y-65010760D01*
X64651160Y-66530760D01*
G37*
G36*
X103920108Y-63557408D02*
G01*
X104064997Y-63617423D01*
X104195395Y-63704552D01*
X104306288Y-63815445D01*
X104393417Y-63945843D01*
X104453432Y-64090732D01*
X104484028Y-64244546D01*
X104484028Y-64401374D01*
X104453432Y-64555188D01*
X104393417Y-64700077D01*
X104306288Y-64830475D01*
X104195395Y-64941368D01*
X104064997Y-65028497D01*
X103920108Y-65088512D01*
X103766294Y-65119108D01*
X103609466Y-65119108D01*
X103455652Y-65088512D01*
X103310763Y-65028497D01*
X103180365Y-64941368D01*
X103069472Y-64830475D01*
X102982343Y-64700077D01*
X102922328Y-64555188D01*
X102891732Y-64401374D01*
X102891732Y-64244546D01*
X102922328Y-64090732D01*
X102982343Y-63945843D01*
X103069472Y-63815445D01*
X103180365Y-63704552D01*
X103310763Y-63617423D01*
X103455652Y-63557408D01*
X103609466Y-63526812D01*
X103766294Y-63526812D01*
X103920108Y-63557408D01*
G37*
G36*
X91097000Y-65092480D02*
G01*
X89497000Y-65092480D01*
X89497000Y-63492480D01*
X91097000Y-63492480D01*
X91097000Y-65092480D01*
G37*
G36*
X98149228Y-63526928D02*
G01*
X98294117Y-63586943D01*
X98424515Y-63674072D01*
X98535408Y-63784965D01*
X98622537Y-63915363D01*
X98682552Y-64060252D01*
X98713148Y-64214066D01*
X98713148Y-64370894D01*
X98682552Y-64524708D01*
X98622537Y-64669597D01*
X98535408Y-64799995D01*
X98424515Y-64910888D01*
X98294117Y-64998017D01*
X98149228Y-65058032D01*
X97995414Y-65088628D01*
X97838586Y-65088628D01*
X97684772Y-65058032D01*
X97539883Y-64998017D01*
X97409485Y-64910888D01*
X97298592Y-64799995D01*
X97211463Y-64669597D01*
X97151448Y-64524708D01*
X97120852Y-64370894D01*
X97120852Y-64214066D01*
X97151448Y-64060252D01*
X97211463Y-63915363D01*
X97298592Y-63784965D01*
X97409485Y-63674072D01*
X97539883Y-63586943D01*
X97684772Y-63526928D01*
X97838586Y-63496332D01*
X97995414Y-63496332D01*
X98149228Y-63526928D01*
G37*
G36*
X58386616Y-62518725D02*
G01*
X58524262Y-62575740D01*
X58648139Y-62658512D01*
X58753488Y-62763861D01*
X58836260Y-62887738D01*
X58893275Y-63025384D01*
X58922340Y-63171507D01*
X58922340Y-63320493D01*
X58893275Y-63466616D01*
X58836260Y-63604262D01*
X58753488Y-63728139D01*
X58648139Y-63833488D01*
X58524262Y-63916260D01*
X58386616Y-63973275D01*
X58240493Y-64002340D01*
X58091507Y-64002340D01*
X57945384Y-63973275D01*
X57807738Y-63916260D01*
X57683861Y-63833488D01*
X57578512Y-63728139D01*
X57495740Y-63604262D01*
X57438725Y-63466616D01*
X57409660Y-63320493D01*
X57409660Y-63171507D01*
X57438725Y-63025384D01*
X57495740Y-62887738D01*
X57578512Y-62763861D01*
X57683861Y-62658512D01*
X57807738Y-62575740D01*
X57945384Y-62518725D01*
X58091507Y-62489660D01*
X58240493Y-62489660D01*
X58386616Y-62518725D01*
G37*
G36*
X64111776Y-62503485D02*
G01*
X64249422Y-62560500D01*
X64373299Y-62643272D01*
X64478648Y-62748621D01*
X64561420Y-62872498D01*
X64618435Y-63010144D01*
X64647500Y-63156267D01*
X64647500Y-63305253D01*
X64618435Y-63451376D01*
X64561420Y-63589022D01*
X64478648Y-63712899D01*
X64373299Y-63818248D01*
X64249422Y-63901020D01*
X64111776Y-63958035D01*
X63965653Y-63987100D01*
X63816667Y-63987100D01*
X63670544Y-63958035D01*
X63532898Y-63901020D01*
X63409021Y-63818248D01*
X63303672Y-63712899D01*
X63220900Y-63589022D01*
X63163885Y-63451376D01*
X63134820Y-63305253D01*
X63134820Y-63156267D01*
X63163885Y-63010144D01*
X63220900Y-62872498D01*
X63303672Y-62748621D01*
X63409021Y-62643272D01*
X63532898Y-62560500D01*
X63670544Y-62503485D01*
X63816667Y-62474420D01*
X63965653Y-62474420D01*
X64111776Y-62503485D01*
G37*
G36*
X125456323Y-58920266D02*
G01*
X125683751Y-58981206D01*
X125901280Y-59071309D01*
X126105186Y-59189035D01*
X126291982Y-59332368D01*
X126458472Y-59498858D01*
X126601805Y-59685654D01*
X126719531Y-59889560D01*
X126809634Y-60107089D01*
X126870574Y-60334517D01*
X126901306Y-60567954D01*
X126901306Y-60803406D01*
X126870574Y-61036843D01*
X126809634Y-61264271D01*
X126719531Y-61481800D01*
X126601805Y-61685706D01*
X126458472Y-61872502D01*
X126291982Y-62038992D01*
X126105186Y-62182325D01*
X125901280Y-62300051D01*
X125683751Y-62390154D01*
X125456323Y-62451094D01*
X125222886Y-62481826D01*
X124987434Y-62481826D01*
X124753997Y-62451094D01*
X124526569Y-62390154D01*
X124309040Y-62300051D01*
X124105134Y-62182325D01*
X123918338Y-62038992D01*
X123751848Y-61872502D01*
X123608515Y-61685706D01*
X123490789Y-61481800D01*
X123400686Y-61264271D01*
X123339746Y-61036843D01*
X123309014Y-60803406D01*
X123309014Y-60567954D01*
X123339746Y-60334517D01*
X123400686Y-60107089D01*
X123490789Y-59889560D01*
X123608515Y-59685654D01*
X123751848Y-59498858D01*
X123918338Y-59332368D01*
X124105134Y-59189035D01*
X124309040Y-59071309D01*
X124526569Y-58981206D01*
X124753997Y-58920266D01*
X124987434Y-58889534D01*
X125222886Y-58889534D01*
X125456323Y-58920266D01*
G37*
G36*
X58926000Y-61466000D02*
G01*
X57406000Y-61466000D01*
X57406000Y-59946000D01*
X58926000Y-59946000D01*
X58926000Y-61466000D01*
G37*
G36*
X64111776Y-59963485D02*
G01*
X64249422Y-60020500D01*
X64373299Y-60103272D01*
X64478648Y-60208621D01*
X64561420Y-60332498D01*
X64618435Y-60470144D01*
X64647500Y-60616267D01*
X64647500Y-60765253D01*
X64618435Y-60911376D01*
X64561420Y-61049022D01*
X64478648Y-61172899D01*
X64373299Y-61278248D01*
X64249422Y-61361020D01*
X64111776Y-61418035D01*
X63965653Y-61447100D01*
X63816667Y-61447100D01*
X63670544Y-61418035D01*
X63532898Y-61361020D01*
X63409021Y-61278248D01*
X63303672Y-61172899D01*
X63220900Y-61049022D01*
X63163885Y-60911376D01*
X63134820Y-60765253D01*
X63134820Y-60616267D01*
X63163885Y-60470144D01*
X63220900Y-60332498D01*
X63303672Y-60208621D01*
X63409021Y-60103272D01*
X63532898Y-60020500D01*
X63670544Y-59963485D01*
X63816667Y-59934420D01*
X63965653Y-59934420D01*
X64111776Y-59963485D01*
G37*
G36*
X108182228Y-56674008D02*
G01*
X108327117Y-56734023D01*
X108457515Y-56821152D01*
X108568408Y-56932045D01*
X108655537Y-57062443D01*
X108715552Y-57207332D01*
X108746148Y-57361146D01*
X108746148Y-57517974D01*
X108715552Y-57671788D01*
X108655537Y-57816677D01*
X108568408Y-57947075D01*
X108457515Y-58057968D01*
X108327117Y-58145097D01*
X108182228Y-58205112D01*
X108028414Y-58235708D01*
X107871586Y-58235708D01*
X107717772Y-58205112D01*
X107572883Y-58145097D01*
X107442485Y-58057968D01*
X107331592Y-57947075D01*
X107244463Y-57816677D01*
X107184448Y-57671788D01*
X107153852Y-57517974D01*
X107153852Y-57361146D01*
X107184448Y-57207332D01*
X107244463Y-57062443D01*
X107331592Y-56932045D01*
X107442485Y-56821152D01*
X107572883Y-56734023D01*
X107717772Y-56674008D01*
X107871586Y-56643412D01*
X108028414Y-56643412D01*
X108182228Y-56674008D01*
G37*
G36*
X90585108Y-56099968D02*
G01*
X90729997Y-56159983D01*
X90860395Y-56247112D01*
X90971288Y-56358005D01*
X91058417Y-56488403D01*
X91118432Y-56633292D01*
X91149028Y-56787106D01*
X91149028Y-56943934D01*
X91118432Y-57097748D01*
X91058417Y-57242637D01*
X90971288Y-57373035D01*
X90860395Y-57483928D01*
X90729997Y-57571057D01*
X90585108Y-57631072D01*
X90431294Y-57661668D01*
X90274466Y-57661668D01*
X90120652Y-57631072D01*
X89975763Y-57571057D01*
X89845365Y-57483928D01*
X89734472Y-57373035D01*
X89647343Y-57242637D01*
X89587328Y-57097748D01*
X89556732Y-56943934D01*
X89556732Y-56787106D01*
X89587328Y-56633292D01*
X89647343Y-56488403D01*
X89734472Y-56358005D01*
X89845365Y-56247112D01*
X89975763Y-56159983D01*
X90120652Y-56099968D01*
X90274466Y-56069372D01*
X90431294Y-56069372D01*
X90585108Y-56099968D01*
G37*
G36*
X98205108Y-56099968D02*
G01*
X98349997Y-56159983D01*
X98480395Y-56247112D01*
X98591288Y-56358005D01*
X98678417Y-56488403D01*
X98738432Y-56633292D01*
X98769028Y-56787106D01*
X98769028Y-56943934D01*
X98738432Y-57097748D01*
X98678417Y-57242637D01*
X98591288Y-57373035D01*
X98480395Y-57483928D01*
X98349997Y-57571057D01*
X98205108Y-57631072D01*
X98051294Y-57661668D01*
X97894466Y-57661668D01*
X97740652Y-57631072D01*
X97595763Y-57571057D01*
X97465365Y-57483928D01*
X97354472Y-57373035D01*
X97267343Y-57242637D01*
X97207328Y-57097748D01*
X97176732Y-56943934D01*
X97176732Y-56787106D01*
X97207328Y-56633292D01*
X97267343Y-56488403D01*
X97354472Y-56358005D01*
X97465365Y-56247112D01*
X97595763Y-56159983D01*
X97740652Y-56099968D01*
X97894466Y-56069372D01*
X98051294Y-56069372D01*
X98205108Y-56099968D01*
G37*
G36*
X53267428Y-56018688D02*
G01*
X53412317Y-56078703D01*
X53542715Y-56165832D01*
X53653608Y-56276725D01*
X53740737Y-56407123D01*
X53800752Y-56552012D01*
X53831348Y-56705826D01*
X53831348Y-56862654D01*
X53800752Y-57016468D01*
X53740737Y-57161357D01*
X53653608Y-57291755D01*
X53542715Y-57402648D01*
X53412317Y-57489777D01*
X53267428Y-57549792D01*
X53113614Y-57580388D01*
X52956786Y-57580388D01*
X52802972Y-57549792D01*
X52658083Y-57489777D01*
X52527685Y-57402648D01*
X52416792Y-57291755D01*
X52329663Y-57161357D01*
X52269648Y-57016468D01*
X52239052Y-56862654D01*
X52239052Y-56705826D01*
X52269648Y-56552012D01*
X52329663Y-56407123D01*
X52416792Y-56276725D01*
X52527685Y-56165832D01*
X52658083Y-56078703D01*
X52802972Y-56018688D01*
X52956786Y-55988092D01*
X53113614Y-55988092D01*
X53267428Y-56018688D01*
G37*
G36*
X85124108Y-55993288D02*
G01*
X85268997Y-56053303D01*
X85399395Y-56140432D01*
X85510288Y-56251325D01*
X85597417Y-56381723D01*
X85657432Y-56526612D01*
X85688028Y-56680426D01*
X85688028Y-56837254D01*
X85657432Y-56991068D01*
X85597417Y-57135957D01*
X85510288Y-57266355D01*
X85399395Y-57377248D01*
X85268997Y-57464377D01*
X85124108Y-57524392D01*
X84970294Y-57554988D01*
X84813466Y-57554988D01*
X84659652Y-57524392D01*
X84514763Y-57464377D01*
X84384365Y-57377248D01*
X84273472Y-57266355D01*
X84186343Y-57135957D01*
X84126328Y-56991068D01*
X84095732Y-56837254D01*
X84095732Y-56680426D01*
X84126328Y-56526612D01*
X84186343Y-56381723D01*
X84273472Y-56251325D01*
X84384365Y-56140432D01*
X84514763Y-56053303D01*
X84659652Y-55993288D01*
X84813466Y-55962692D01*
X84970294Y-55962692D01*
X85124108Y-55993288D01*
G37*
G36*
X58459188Y-55942488D02*
G01*
X58604077Y-56002503D01*
X58734475Y-56089632D01*
X58845368Y-56200525D01*
X58932497Y-56330923D01*
X58992512Y-56475812D01*
X59023108Y-56629626D01*
X59023108Y-56786454D01*
X58992512Y-56940268D01*
X58932497Y-57085157D01*
X58845368Y-57215555D01*
X58734475Y-57326448D01*
X58604077Y-57413577D01*
X58459188Y-57473592D01*
X58305374Y-57504188D01*
X58148546Y-57504188D01*
X57994732Y-57473592D01*
X57849843Y-57413577D01*
X57719445Y-57326448D01*
X57608552Y-57215555D01*
X57521423Y-57085157D01*
X57461408Y-56940268D01*
X57430812Y-56786454D01*
X57430812Y-56629626D01*
X57461408Y-56475812D01*
X57521423Y-56330923D01*
X57608552Y-56200525D01*
X57719445Y-56089632D01*
X57849843Y-56002503D01*
X57994732Y-55942488D01*
X58148546Y-55911892D01*
X58305374Y-55911892D01*
X58459188Y-55942488D01*
G37*
G36*
X71159188Y-55942488D02*
G01*
X71304077Y-56002503D01*
X71434475Y-56089632D01*
X71545368Y-56200525D01*
X71632497Y-56330923D01*
X71692512Y-56475812D01*
X71723108Y-56629626D01*
X71723108Y-56786454D01*
X71692512Y-56940268D01*
X71632497Y-57085157D01*
X71545368Y-57215555D01*
X71434475Y-57326448D01*
X71304077Y-57413577D01*
X71159188Y-57473592D01*
X71005374Y-57504188D01*
X70848546Y-57504188D01*
X70694732Y-57473592D01*
X70549843Y-57413577D01*
X70419445Y-57326448D01*
X70308552Y-57215555D01*
X70221423Y-57085157D01*
X70161408Y-56940268D01*
X70130812Y-56786454D01*
X70130812Y-56629626D01*
X70161408Y-56475812D01*
X70221423Y-56330923D01*
X70308552Y-56200525D01*
X70419445Y-56089632D01*
X70549843Y-56002503D01*
X70694732Y-55942488D01*
X70848546Y-55911892D01*
X71005374Y-55911892D01*
X71159188Y-55942488D01*
G37*
G36*
X90585108Y-53559968D02*
G01*
X90729997Y-53619983D01*
X90860395Y-53707112D01*
X90971288Y-53818005D01*
X91058417Y-53948403D01*
X91118432Y-54093292D01*
X91149028Y-54247106D01*
X91149028Y-54403934D01*
X91118432Y-54557748D01*
X91058417Y-54702637D01*
X90971288Y-54833035D01*
X90860395Y-54943928D01*
X90729997Y-55031057D01*
X90585108Y-55091072D01*
X90431294Y-55121668D01*
X90274466Y-55121668D01*
X90120652Y-55091072D01*
X89975763Y-55031057D01*
X89845365Y-54943928D01*
X89734472Y-54833035D01*
X89647343Y-54702637D01*
X89587328Y-54557748D01*
X89556732Y-54403934D01*
X89556732Y-54247106D01*
X89587328Y-54093292D01*
X89647343Y-53948403D01*
X89734472Y-53818005D01*
X89845365Y-53707112D01*
X89975763Y-53619983D01*
X90120652Y-53559968D01*
X90274466Y-53529372D01*
X90431294Y-53529372D01*
X90585108Y-53559968D01*
G37*
G36*
X98205108Y-53559968D02*
G01*
X98349997Y-53619983D01*
X98480395Y-53707112D01*
X98591288Y-53818005D01*
X98678417Y-53948403D01*
X98738432Y-54093292D01*
X98769028Y-54247106D01*
X98769028Y-54403934D01*
X98738432Y-54557748D01*
X98678417Y-54702637D01*
X98591288Y-54833035D01*
X98480395Y-54943928D01*
X98349997Y-55031057D01*
X98205108Y-55091072D01*
X98051294Y-55121668D01*
X97894466Y-55121668D01*
X97740652Y-55091072D01*
X97595763Y-55031057D01*
X97465365Y-54943928D01*
X97354472Y-54833035D01*
X97267343Y-54702637D01*
X97207328Y-54557748D01*
X97176732Y-54403934D01*
X97176732Y-54247106D01*
X97207328Y-54093292D01*
X97267343Y-53948403D01*
X97354472Y-53818005D01*
X97465365Y-53707112D01*
X97595763Y-53619983D01*
X97740652Y-53559968D01*
X97894466Y-53529372D01*
X98051294Y-53529372D01*
X98205108Y-53559968D01*
G37*
G36*
X112769468Y-53544728D02*
G01*
X112914357Y-53604743D01*
X113044755Y-53691872D01*
X113155648Y-53802765D01*
X113242777Y-53933163D01*
X113302792Y-54078052D01*
X113333388Y-54231866D01*
X113333388Y-54388694D01*
X113302792Y-54542508D01*
X113242777Y-54687397D01*
X113155648Y-54817795D01*
X113044755Y-54928688D01*
X112914357Y-55015817D01*
X112769468Y-55075832D01*
X112615654Y-55106428D01*
X112458826Y-55106428D01*
X112305012Y-55075832D01*
X112160123Y-55015817D01*
X112029725Y-54928688D01*
X111918832Y-54817795D01*
X111831703Y-54687397D01*
X111771688Y-54542508D01*
X111741092Y-54388694D01*
X111741092Y-54231866D01*
X111771688Y-54078052D01*
X111831703Y-53933163D01*
X111918832Y-53802765D01*
X112029725Y-53691872D01*
X112160123Y-53604743D01*
X112305012Y-53544728D01*
X112458826Y-53514132D01*
X112615654Y-53514132D01*
X112769468Y-53544728D01*
G37*
G36*
X108141588Y-53524408D02*
G01*
X108286477Y-53584423D01*
X108416875Y-53671552D01*
X108527768Y-53782445D01*
X108614897Y-53912843D01*
X108674912Y-54057732D01*
X108705508Y-54211546D01*
X108705508Y-54368374D01*
X108674912Y-54522188D01*
X108614897Y-54667077D01*
X108527768Y-54797475D01*
X108416875Y-54908368D01*
X108286477Y-54995497D01*
X108141588Y-55055512D01*
X107987774Y-55086108D01*
X107830946Y-55086108D01*
X107677132Y-55055512D01*
X107532243Y-54995497D01*
X107401845Y-54908368D01*
X107290952Y-54797475D01*
X107203823Y-54667077D01*
X107143808Y-54522188D01*
X107113212Y-54368374D01*
X107113212Y-54211546D01*
X107143808Y-54057732D01*
X107203823Y-53912843D01*
X107290952Y-53782445D01*
X107401845Y-53671552D01*
X107532243Y-53584423D01*
X107677132Y-53524408D01*
X107830946Y-53493812D01*
X107987774Y-53493812D01*
X108141588Y-53524408D01*
G37*
G36*
X53308068Y-51573688D02*
G01*
X53452957Y-51633703D01*
X53583355Y-51720832D01*
X53694248Y-51831725D01*
X53781377Y-51962123D01*
X53841392Y-52107012D01*
X53871988Y-52260826D01*
X53871988Y-52417654D01*
X53841392Y-52571468D01*
X53781377Y-52716357D01*
X53694248Y-52846755D01*
X53583355Y-52957648D01*
X53452957Y-53044777D01*
X53308068Y-53104792D01*
X53154254Y-53135388D01*
X52997426Y-53135388D01*
X52843612Y-53104792D01*
X52698723Y-53044777D01*
X52568325Y-52957648D01*
X52457432Y-52846755D01*
X52370303Y-52716357D01*
X52310288Y-52571468D01*
X52279692Y-52417654D01*
X52279692Y-52260826D01*
X52310288Y-52107012D01*
X52370303Y-51962123D01*
X52457432Y-51831725D01*
X52568325Y-51720832D01*
X52698723Y-51633703D01*
X52843612Y-51573688D01*
X52997426Y-51543092D01*
X53154254Y-51543092D01*
X53308068Y-51573688D01*
G37*
G36*
X120331080Y-53112520D02*
G01*
X117931080Y-53112520D01*
X117931080Y-50712520D01*
X120331080Y-50712520D01*
X120331080Y-53112520D01*
G37*
G36*
X124411214Y-50745676D02*
G01*
X124590300Y-50803865D01*
X124758078Y-50889352D01*
X124910418Y-51000033D01*
X125043567Y-51133182D01*
X125154248Y-51285522D01*
X125239735Y-51453300D01*
X125297924Y-51632386D01*
X125327381Y-51818369D01*
X125327381Y-52006671D01*
X125297924Y-52192654D01*
X125239735Y-52371740D01*
X125154248Y-52539518D01*
X125043567Y-52691858D01*
X124910418Y-52825007D01*
X124758078Y-52935688D01*
X124590300Y-53021175D01*
X124411214Y-53079364D01*
X124225231Y-53108821D01*
X124036929Y-53108821D01*
X123850946Y-53079364D01*
X123671860Y-53021175D01*
X123504082Y-52935688D01*
X123351742Y-52825007D01*
X123218593Y-52691858D01*
X123107912Y-52539518D01*
X123022425Y-52371740D01*
X122964236Y-52192654D01*
X122934779Y-52006671D01*
X122934779Y-51818369D01*
X122964236Y-51632386D01*
X123022425Y-51453300D01*
X123107912Y-51285522D01*
X123218593Y-51133182D01*
X123351742Y-51000033D01*
X123504082Y-50889352D01*
X123671860Y-50803865D01*
X123850946Y-50745676D01*
X124036929Y-50716219D01*
X124225231Y-50716219D01*
X124411214Y-50745676D01*
G37*
G36*
X90585108Y-51019968D02*
G01*
X90729997Y-51079983D01*
X90860395Y-51167112D01*
X90971288Y-51278005D01*
X91058417Y-51408403D01*
X91118432Y-51553292D01*
X91149028Y-51707106D01*
X91149028Y-51863934D01*
X91118432Y-52017748D01*
X91058417Y-52162637D01*
X90971288Y-52293035D01*
X90860395Y-52403928D01*
X90729997Y-52491057D01*
X90585108Y-52551072D01*
X90431294Y-52581668D01*
X90274466Y-52581668D01*
X90120652Y-52551072D01*
X89975763Y-52491057D01*
X89845365Y-52403928D01*
X89734472Y-52293035D01*
X89647343Y-52162637D01*
X89587328Y-52017748D01*
X89556732Y-51863934D01*
X89556732Y-51707106D01*
X89587328Y-51553292D01*
X89647343Y-51408403D01*
X89734472Y-51278005D01*
X89845365Y-51167112D01*
X89975763Y-51079983D01*
X90120652Y-51019968D01*
X90274466Y-50989372D01*
X90431294Y-50989372D01*
X90585108Y-51019968D01*
G37*
G36*
X98205108Y-51019968D02*
G01*
X98349997Y-51079983D01*
X98480395Y-51167112D01*
X98591288Y-51278005D01*
X98678417Y-51408403D01*
X98738432Y-51553292D01*
X98769028Y-51707106D01*
X98769028Y-51863934D01*
X98738432Y-52017748D01*
X98678417Y-52162637D01*
X98591288Y-52293035D01*
X98480395Y-52403928D01*
X98349997Y-52491057D01*
X98205108Y-52551072D01*
X98051294Y-52581668D01*
X97894466Y-52581668D01*
X97740652Y-52551072D01*
X97595763Y-52491057D01*
X97465365Y-52403928D01*
X97354472Y-52293035D01*
X97267343Y-52162637D01*
X97207328Y-52017748D01*
X97176732Y-51863934D01*
X97176732Y-51707106D01*
X97207328Y-51553292D01*
X97267343Y-51408403D01*
X97354472Y-51278005D01*
X97465365Y-51167112D01*
X97595763Y-51079983D01*
X97740652Y-51019968D01*
X97894466Y-50989372D01*
X98051294Y-50989372D01*
X98205108Y-51019968D01*
G37*
G36*
X133212640Y-51917400D02*
G01*
X130012640Y-51917400D01*
X130012640Y-48717400D01*
X133212640Y-48717400D01*
X133212640Y-51917400D01*
G37*
G36*
X140431320Y-51917400D02*
G01*
X137231320Y-51917400D01*
X137231320Y-48717400D01*
X140431320Y-48717400D01*
X140431320Y-51917400D01*
G37*
G36*
X76119454Y-48562556D02*
G01*
X76298540Y-48620745D01*
X76466318Y-48706232D01*
X76618658Y-48816913D01*
X76751807Y-48950062D01*
X76862488Y-49102402D01*
X76947975Y-49270180D01*
X77006164Y-49449266D01*
X77035621Y-49635249D01*
X77035621Y-49823551D01*
X77006164Y-50009534D01*
X76947975Y-50188620D01*
X76862488Y-50356398D01*
X76751807Y-50508738D01*
X76618658Y-50641887D01*
X76466318Y-50752568D01*
X76298540Y-50838055D01*
X76119454Y-50896244D01*
X75933471Y-50925701D01*
X75745169Y-50925701D01*
X75559186Y-50896244D01*
X75380100Y-50838055D01*
X75212322Y-50752568D01*
X75059982Y-50641887D01*
X74926833Y-50508738D01*
X74816152Y-50356398D01*
X74730665Y-50188620D01*
X74672476Y-50009534D01*
X74643019Y-49823551D01*
X74643019Y-49635249D01*
X74672476Y-49449266D01*
X74730665Y-49270180D01*
X74816152Y-49102402D01*
X74926833Y-48950062D01*
X75059982Y-48816913D01*
X75212322Y-48706232D01*
X75380100Y-48620745D01*
X75559186Y-48562556D01*
X75745169Y-48533099D01*
X75933471Y-48533099D01*
X76119454Y-48562556D01*
G37*
G36*
X59352360Y-50909400D02*
G01*
X57152360Y-50909400D01*
X57152360Y-48709400D01*
X59352360Y-48709400D01*
X59352360Y-50909400D01*
G37*
G36*
X67768040Y-50719560D02*
G01*
X65968040Y-50719560D01*
X65968040Y-48919560D01*
X67768040Y-48919560D01*
X67768040Y-50719560D01*
G37*
G36*
X91152880Y-50045520D02*
G01*
X89552880Y-50045520D01*
X89552880Y-48445520D01*
X91152880Y-48445520D01*
X91152880Y-50045520D01*
G37*
G36*
X98205108Y-48479968D02*
G01*
X98349997Y-48539983D01*
X98480395Y-48627112D01*
X98591288Y-48738005D01*
X98678417Y-48868403D01*
X98738432Y-49013292D01*
X98769028Y-49167106D01*
X98769028Y-49323934D01*
X98738432Y-49477748D01*
X98678417Y-49622637D01*
X98591288Y-49753035D01*
X98480395Y-49863928D01*
X98349997Y-49951057D01*
X98205108Y-50011072D01*
X98051294Y-50041668D01*
X97894466Y-50041668D01*
X97740652Y-50011072D01*
X97595763Y-49951057D01*
X97465365Y-49863928D01*
X97354472Y-49753035D01*
X97267343Y-49622637D01*
X97207328Y-49477748D01*
X97176732Y-49323934D01*
X97176732Y-49167106D01*
X97207328Y-49013292D01*
X97267343Y-48868403D01*
X97354472Y-48738005D01*
X97465365Y-48627112D01*
X97595763Y-48539983D01*
X97740652Y-48479968D01*
X97894466Y-48449372D01*
X98051294Y-48449372D01*
X98205108Y-48479968D01*
G37*
G36*
X67129296Y-46418314D02*
G01*
X67292297Y-46485831D01*
X67438994Y-46583851D01*
X67563749Y-46708606D01*
X67661769Y-46855303D01*
X67729286Y-47018304D01*
X67763706Y-47191345D01*
X67763706Y-47367775D01*
X67729286Y-47540816D01*
X67661769Y-47703817D01*
X67563749Y-47850514D01*
X67438994Y-47975269D01*
X67292297Y-48073289D01*
X67129296Y-48140806D01*
X66956255Y-48175226D01*
X66779825Y-48175226D01*
X66606784Y-48140806D01*
X66443783Y-48073289D01*
X66297086Y-47975269D01*
X66172331Y-47850514D01*
X66074311Y-47703817D01*
X66006794Y-47540816D01*
X65972374Y-47367775D01*
X65972374Y-47191345D01*
X66006794Y-47018304D01*
X66074311Y-46855303D01*
X66172331Y-46708606D01*
X66297086Y-46583851D01*
X66443783Y-46485831D01*
X66606784Y-46418314D01*
X66779825Y-46383894D01*
X66956255Y-46383894D01*
X67129296Y-46418314D01*
G37*
G36*
X77039320Y-45929400D02*
G01*
X74639320Y-45929400D01*
X74639320Y-43529400D01*
X77039320Y-43529400D01*
X77039320Y-45929400D01*
G37*
G36*
X67129296Y-43878314D02*
G01*
X67292297Y-43945831D01*
X67438994Y-44043851D01*
X67563749Y-44168606D01*
X67661769Y-44315303D01*
X67729286Y-44478304D01*
X67763706Y-44651345D01*
X67763706Y-44827775D01*
X67729286Y-45000816D01*
X67661769Y-45163817D01*
X67563749Y-45310514D01*
X67438994Y-45435269D01*
X67292297Y-45533289D01*
X67129296Y-45600806D01*
X66956255Y-45635226D01*
X66779825Y-45635226D01*
X66606784Y-45600806D01*
X66443783Y-45533289D01*
X66297086Y-45435269D01*
X66172331Y-45310514D01*
X66074311Y-45163817D01*
X66006794Y-45000816D01*
X65972374Y-44827775D01*
X65972374Y-44651345D01*
X66006794Y-44478304D01*
X66074311Y-44315303D01*
X66172331Y-44168606D01*
X66297086Y-44043851D01*
X66443783Y-43945831D01*
X66606784Y-43878314D01*
X66779825Y-43843894D01*
X66956255Y-43843894D01*
X67129296Y-43878314D01*
G37*
G36*
X104559640Y-44869640D02*
G01*
X103039640Y-44869640D01*
X103039640Y-43349640D01*
X104559640Y-43349640D01*
X104559640Y-44869640D01*
G37*
G36*
X117263816Y-43377285D02*
G01*
X117401462Y-43434300D01*
X117525339Y-43517072D01*
X117630688Y-43622421D01*
X117713460Y-43746298D01*
X117770475Y-43883944D01*
X117799540Y-44030067D01*
X117799540Y-44179053D01*
X117770475Y-44325176D01*
X117713460Y-44462822D01*
X117630688Y-44586699D01*
X117525339Y-44692048D01*
X117401462Y-44774820D01*
X117263816Y-44831835D01*
X117117693Y-44860900D01*
X116968707Y-44860900D01*
X116822584Y-44831835D01*
X116684938Y-44774820D01*
X116561061Y-44692048D01*
X116455712Y-44586699D01*
X116372940Y-44462822D01*
X116315925Y-44325176D01*
X116286860Y-44179053D01*
X116286860Y-44030067D01*
X116315925Y-43883944D01*
X116372940Y-43746298D01*
X116455712Y-43622421D01*
X116561061Y-43517072D01*
X116684938Y-43434300D01*
X116822584Y-43377285D01*
X116968707Y-43348220D01*
X117117693Y-43348220D01*
X117263816Y-43377285D01*
G37*
G36*
X122079656Y-43377285D02*
G01*
X122217302Y-43434300D01*
X122341179Y-43517072D01*
X122446528Y-43622421D01*
X122529300Y-43746298D01*
X122586315Y-43883944D01*
X122615380Y-44030067D01*
X122615380Y-44179053D01*
X122586315Y-44325176D01*
X122529300Y-44462822D01*
X122446528Y-44586699D01*
X122341179Y-44692048D01*
X122217302Y-44774820D01*
X122079656Y-44831835D01*
X121933533Y-44860900D01*
X121784547Y-44860900D01*
X121638424Y-44831835D01*
X121500778Y-44774820D01*
X121376901Y-44692048D01*
X121271552Y-44586699D01*
X121188780Y-44462822D01*
X121131765Y-44325176D01*
X121102700Y-44179053D01*
X121102700Y-44030067D01*
X121131765Y-43883944D01*
X121188780Y-43746298D01*
X121271552Y-43622421D01*
X121376901Y-43517072D01*
X121500778Y-43434300D01*
X121638424Y-43377285D01*
X121784547Y-43348220D01*
X121933533Y-43348220D01*
X122079656Y-43377285D01*
G37*
G36*
X85124108Y-43293288D02*
G01*
X85268997Y-43353303D01*
X85399395Y-43440432D01*
X85510288Y-43551325D01*
X85597417Y-43681723D01*
X85657432Y-43826612D01*
X85688028Y-43980426D01*
X85688028Y-44137254D01*
X85657432Y-44291068D01*
X85597417Y-44435957D01*
X85510288Y-44566355D01*
X85399395Y-44677248D01*
X85268997Y-44764377D01*
X85124108Y-44824392D01*
X84970294Y-44854988D01*
X84813466Y-44854988D01*
X84659652Y-44824392D01*
X84514763Y-44764377D01*
X84384365Y-44677248D01*
X84273472Y-44566355D01*
X84186343Y-44435957D01*
X84126328Y-44291068D01*
X84095732Y-44137254D01*
X84095732Y-43980426D01*
X84126328Y-43826612D01*
X84186343Y-43681723D01*
X84273472Y-43551325D01*
X84384365Y-43440432D01*
X84514763Y-43353303D01*
X84659652Y-43293288D01*
X84813466Y-43262692D01*
X84970294Y-43262692D01*
X85124108Y-43293288D01*
G37*
G36*
X90460134Y-41295815D02*
G01*
X90471217Y-41295815D01*
X90514529Y-41304430D01*
X90606555Y-41319006D01*
X90636156Y-41328623D01*
X90663485Y-41334060D01*
X90702046Y-41350032D01*
X90755732Y-41367476D01*
X90806028Y-41393103D01*
X90844597Y-41409079D01*
X90867767Y-41424560D01*
X90895501Y-41438692D01*
X90970896Y-41493470D01*
X91007593Y-41517990D01*
X91015424Y-41525821D01*
X91022391Y-41530883D01*
X91133316Y-41641808D01*
X91138377Y-41648774D01*
X91146210Y-41656607D01*
X91170732Y-41693308D01*
X91225507Y-41768698D01*
X91239637Y-41796429D01*
X91255121Y-41819603D01*
X91271098Y-41858176D01*
X91296723Y-41908467D01*
X91314164Y-41962145D01*
X91330140Y-42000715D01*
X91335577Y-42028049D01*
X91345193Y-42057644D01*
X91359767Y-42149661D01*
X91368385Y-42192983D01*
X91368385Y-42204066D01*
X91369732Y-42212571D01*
X91369732Y-42369428D01*
X91368385Y-42377932D01*
X91368385Y-42389017D01*
X91359767Y-42432341D01*
X91345193Y-42524355D01*
X91335577Y-42553948D01*
X91330140Y-42581285D01*
X91314162Y-42619858D01*
X91296723Y-42673532D01*
X91271100Y-42723818D01*
X91255121Y-42762397D01*
X91239634Y-42785573D01*
X91225507Y-42813301D01*
X91170741Y-42888679D01*
X91146210Y-42925393D01*
X91138374Y-42933228D01*
X91133316Y-42940191D01*
X91022391Y-43051116D01*
X91015428Y-43056174D01*
X91007593Y-43064010D01*
X90970879Y-43088541D01*
X90895501Y-43143307D01*
X90867773Y-43157434D01*
X90844597Y-43172921D01*
X90806018Y-43188900D01*
X90755732Y-43214523D01*
X90702058Y-43231962D01*
X90663485Y-43247940D01*
X90636148Y-43253377D01*
X90606555Y-43262993D01*
X90514539Y-43277567D01*
X90471217Y-43286185D01*
X90460133Y-43286185D01*
X90451629Y-43287532D01*
X90294771Y-43287532D01*
X90286267Y-43286185D01*
X90275183Y-43286185D01*
X90231861Y-43277567D01*
X90139844Y-43262993D01*
X90110249Y-43253377D01*
X90082915Y-43247940D01*
X90044345Y-43231964D01*
X89990667Y-43214523D01*
X89940376Y-43188898D01*
X89901803Y-43172921D01*
X89878629Y-43157437D01*
X89850898Y-43143307D01*
X89775508Y-43088532D01*
X89738807Y-43064010D01*
X89730974Y-43056177D01*
X89724008Y-43051116D01*
X89613083Y-42940191D01*
X89608021Y-42933224D01*
X89600190Y-42925393D01*
X89575670Y-42888696D01*
X89520892Y-42813301D01*
X89506760Y-42785567D01*
X89491279Y-42762397D01*
X89475303Y-42723828D01*
X89449676Y-42673532D01*
X89432232Y-42619846D01*
X89416260Y-42581285D01*
X89410823Y-42553956D01*
X89401206Y-42524355D01*
X89386630Y-42432331D01*
X89378015Y-42389017D01*
X89378015Y-42377932D01*
X89376668Y-42369428D01*
X89376668Y-42212571D01*
X89378015Y-42204066D01*
X89378015Y-42192983D01*
X89386630Y-42149671D01*
X89401206Y-42057644D01*
X89410824Y-42028041D01*
X89416260Y-42000715D01*
X89432231Y-41962156D01*
X89449676Y-41908467D01*
X89475305Y-41858165D01*
X89491279Y-41819603D01*
X89506758Y-41796436D01*
X89520892Y-41768698D01*
X89575678Y-41693290D01*
X89600190Y-41656607D01*
X89608018Y-41648778D01*
X89613083Y-41641808D01*
X89724008Y-41530883D01*
X89730978Y-41525818D01*
X89738807Y-41517990D01*
X89775490Y-41493478D01*
X89850898Y-41438692D01*
X89878636Y-41424558D01*
X89901803Y-41409079D01*
X89940365Y-41393105D01*
X89990667Y-41367476D01*
X90044356Y-41350031D01*
X90082915Y-41334060D01*
X90110241Y-41328624D01*
X90139844Y-41319006D01*
X90231871Y-41304430D01*
X90275183Y-41295815D01*
X90286266Y-41295815D01*
X90294771Y-41294468D01*
X90451629Y-41294468D01*
X90460134Y-41295815D01*
G37*
G36*
X97960134Y-41295815D02*
G01*
X97971217Y-41295815D01*
X98014529Y-41304430D01*
X98106555Y-41319006D01*
X98136156Y-41328623D01*
X98163485Y-41334060D01*
X98202046Y-41350032D01*
X98255732Y-41367476D01*
X98306028Y-41393103D01*
X98344597Y-41409079D01*
X98367767Y-41424560D01*
X98395501Y-41438692D01*
X98470896Y-41493470D01*
X98507593Y-41517990D01*
X98515424Y-41525821D01*
X98522391Y-41530883D01*
X98633316Y-41641808D01*
X98638377Y-41648774D01*
X98646210Y-41656607D01*
X98670732Y-41693308D01*
X98725507Y-41768698D01*
X98739637Y-41796429D01*
X98755121Y-41819603D01*
X98771098Y-41858176D01*
X98796723Y-41908467D01*
X98814164Y-41962145D01*
X98830140Y-42000715D01*
X98835577Y-42028049D01*
X98845193Y-42057644D01*
X98859767Y-42149661D01*
X98868385Y-42192983D01*
X98868385Y-42204066D01*
X98869732Y-42212571D01*
X98869732Y-42369428D01*
X98868385Y-42377932D01*
X98868385Y-42389017D01*
X98859767Y-42432341D01*
X98845193Y-42524355D01*
X98835577Y-42553948D01*
X98830140Y-42581285D01*
X98814162Y-42619858D01*
X98796723Y-42673532D01*
X98771100Y-42723818D01*
X98755121Y-42762397D01*
X98739634Y-42785573D01*
X98725507Y-42813301D01*
X98670741Y-42888679D01*
X98646210Y-42925393D01*
X98638374Y-42933228D01*
X98633316Y-42940191D01*
X98522391Y-43051116D01*
X98515428Y-43056174D01*
X98507593Y-43064010D01*
X98470879Y-43088541D01*
X98395501Y-43143307D01*
X98367773Y-43157434D01*
X98344597Y-43172921D01*
X98306018Y-43188900D01*
X98255732Y-43214523D01*
X98202058Y-43231962D01*
X98163485Y-43247940D01*
X98136148Y-43253377D01*
X98106555Y-43262993D01*
X98014539Y-43277567D01*
X97971217Y-43286185D01*
X97960133Y-43286185D01*
X97951629Y-43287532D01*
X97794771Y-43287532D01*
X97786267Y-43286185D01*
X97775183Y-43286185D01*
X97731861Y-43277567D01*
X97639844Y-43262993D01*
X97610249Y-43253377D01*
X97582915Y-43247940D01*
X97544345Y-43231964D01*
X97490667Y-43214523D01*
X97440376Y-43188898D01*
X97401803Y-43172921D01*
X97378629Y-43157437D01*
X97350898Y-43143307D01*
X97275508Y-43088532D01*
X97238807Y-43064010D01*
X97230974Y-43056177D01*
X97224008Y-43051116D01*
X97113083Y-42940191D01*
X97108021Y-42933224D01*
X97100190Y-42925393D01*
X97075670Y-42888696D01*
X97020892Y-42813301D01*
X97006760Y-42785567D01*
X96991279Y-42762397D01*
X96975303Y-42723828D01*
X96949676Y-42673532D01*
X96932232Y-42619846D01*
X96916260Y-42581285D01*
X96910823Y-42553956D01*
X96901206Y-42524355D01*
X96886630Y-42432331D01*
X96878015Y-42389017D01*
X96878015Y-42377932D01*
X96876668Y-42369428D01*
X96876668Y-42212571D01*
X96878015Y-42204066D01*
X96878015Y-42192983D01*
X96886630Y-42149671D01*
X96901206Y-42057644D01*
X96910824Y-42028041D01*
X96916260Y-42000715D01*
X96932231Y-41962156D01*
X96949676Y-41908467D01*
X96975305Y-41858165D01*
X96991279Y-41819603D01*
X97006758Y-41796436D01*
X97020892Y-41768698D01*
X97075678Y-41693290D01*
X97100190Y-41656607D01*
X97108018Y-41648778D01*
X97113083Y-41641808D01*
X97224008Y-41530883D01*
X97230978Y-41525818D01*
X97238807Y-41517990D01*
X97275490Y-41493478D01*
X97350898Y-41438692D01*
X97378636Y-41424558D01*
X97401803Y-41409079D01*
X97440365Y-41393105D01*
X97490667Y-41367476D01*
X97544356Y-41350031D01*
X97582915Y-41334060D01*
X97610241Y-41328624D01*
X97639844Y-41319006D01*
X97731871Y-41304430D01*
X97775183Y-41295815D01*
X97786266Y-41295815D01*
X97794771Y-41294468D01*
X97951629Y-41294468D01*
X97960134Y-41295815D01*
G37*
G36*
X112769468Y-40844728D02*
G01*
X112914357Y-40904743D01*
X113044755Y-40991872D01*
X113155648Y-41102765D01*
X113242777Y-41233163D01*
X113302792Y-41378052D01*
X113333388Y-41531866D01*
X113333388Y-41688694D01*
X113302792Y-41842508D01*
X113242777Y-41987397D01*
X113155648Y-42117795D01*
X113044755Y-42228688D01*
X112914357Y-42315817D01*
X112769468Y-42375832D01*
X112615654Y-42406428D01*
X112458826Y-42406428D01*
X112305012Y-42375832D01*
X112160123Y-42315817D01*
X112029725Y-42228688D01*
X111918832Y-42117795D01*
X111831703Y-41987397D01*
X111771688Y-41842508D01*
X111741092Y-41688694D01*
X111741092Y-41531866D01*
X111771688Y-41378052D01*
X111831703Y-41233163D01*
X111918832Y-41102765D01*
X112029725Y-40991872D01*
X112160123Y-40904743D01*
X112305012Y-40844728D01*
X112458826Y-40814132D01*
X112615654Y-40814132D01*
X112769468Y-40844728D01*
G37*
G36*
X108141588Y-40824408D02*
G01*
X108286477Y-40884423D01*
X108416875Y-40971552D01*
X108527768Y-41082445D01*
X108614897Y-41212843D01*
X108674912Y-41357732D01*
X108705508Y-41511546D01*
X108705508Y-41668374D01*
X108674912Y-41822188D01*
X108614897Y-41967077D01*
X108527768Y-42097475D01*
X108416875Y-42208368D01*
X108286477Y-42295497D01*
X108141588Y-42355512D01*
X107987774Y-42386108D01*
X107830946Y-42386108D01*
X107677132Y-42355512D01*
X107532243Y-42295497D01*
X107401845Y-42208368D01*
X107290952Y-42097475D01*
X107203823Y-41967077D01*
X107143808Y-41822188D01*
X107113212Y-41668374D01*
X107113212Y-41511546D01*
X107143808Y-41357732D01*
X107203823Y-41212843D01*
X107290952Y-41082445D01*
X107401845Y-40971552D01*
X107532243Y-40884423D01*
X107677132Y-40824408D01*
X107830946Y-40793812D01*
X107987774Y-40793812D01*
X108141588Y-40824408D01*
G37*
G36*
X104020256Y-40842365D02*
G01*
X104157902Y-40899380D01*
X104281779Y-40982152D01*
X104387128Y-41087501D01*
X104469900Y-41211378D01*
X104526915Y-41349024D01*
X104555980Y-41495147D01*
X104555980Y-41644133D01*
X104526915Y-41790256D01*
X104469900Y-41927902D01*
X104387128Y-42051779D01*
X104281779Y-42157128D01*
X104157902Y-42239900D01*
X104020256Y-42296915D01*
X103874133Y-42325980D01*
X103725147Y-42325980D01*
X103579024Y-42296915D01*
X103441378Y-42239900D01*
X103317501Y-42157128D01*
X103212152Y-42051779D01*
X103129380Y-41927902D01*
X103072365Y-41790256D01*
X103043300Y-41644133D01*
X103043300Y-41495147D01*
X103072365Y-41349024D01*
X103129380Y-41211378D01*
X103212152Y-41087501D01*
X103317501Y-40982152D01*
X103441378Y-40899380D01*
X103579024Y-40842365D01*
X103725147Y-40813300D01*
X103874133Y-40813300D01*
X104020256Y-40842365D01*
G37*
G36*
X117263816Y-40837285D02*
G01*
X117401462Y-40894300D01*
X117525339Y-40977072D01*
X117630688Y-41082421D01*
X117713460Y-41206298D01*
X117770475Y-41343944D01*
X117799540Y-41490067D01*
X117799540Y-41639053D01*
X117770475Y-41785176D01*
X117713460Y-41922822D01*
X117630688Y-42046699D01*
X117525339Y-42152048D01*
X117401462Y-42234820D01*
X117263816Y-42291835D01*
X117117693Y-42320900D01*
X116968707Y-42320900D01*
X116822584Y-42291835D01*
X116684938Y-42234820D01*
X116561061Y-42152048D01*
X116455712Y-42046699D01*
X116372940Y-41922822D01*
X116315925Y-41785176D01*
X116286860Y-41639053D01*
X116286860Y-41490067D01*
X116315925Y-41343944D01*
X116372940Y-41206298D01*
X116455712Y-41082421D01*
X116561061Y-40977072D01*
X116684938Y-40894300D01*
X116822584Y-40837285D01*
X116968707Y-40808220D01*
X117117693Y-40808220D01*
X117263816Y-40837285D01*
G37*
G36*
X122079656Y-40837285D02*
G01*
X122217302Y-40894300D01*
X122341179Y-40977072D01*
X122446528Y-41082421D01*
X122529300Y-41206298D01*
X122586315Y-41343944D01*
X122615380Y-41490067D01*
X122615380Y-41639053D01*
X122586315Y-41785176D01*
X122529300Y-41922822D01*
X122446528Y-42046699D01*
X122341179Y-42152048D01*
X122217302Y-42234820D01*
X122079656Y-42291835D01*
X121933533Y-42320900D01*
X121784547Y-42320900D01*
X121638424Y-42291835D01*
X121500778Y-42234820D01*
X121376901Y-42152048D01*
X121271552Y-42046699D01*
X121188780Y-41922822D01*
X121131765Y-41785176D01*
X121102700Y-41639053D01*
X121102700Y-41490067D01*
X121131765Y-41343944D01*
X121188780Y-41206298D01*
X121271552Y-41082421D01*
X121376901Y-40977072D01*
X121500778Y-40894300D01*
X121638424Y-40837285D01*
X121784547Y-40808220D01*
X121933533Y-40808220D01*
X122079656Y-40837285D01*
G37*
G36*
X48935824Y-38108564D02*
G01*
X49192565Y-38177358D01*
X49438131Y-38279075D01*
X49668319Y-38411974D01*
X49879191Y-38573782D01*
X50067138Y-38761729D01*
X50228946Y-38972601D01*
X50361845Y-39202789D01*
X50463562Y-39448355D01*
X50532356Y-39705096D01*
X50567049Y-39968621D01*
X50567049Y-40234419D01*
X50532356Y-40497944D01*
X50463562Y-40754685D01*
X50361845Y-41000251D01*
X50228946Y-41230439D01*
X50067138Y-41441311D01*
X49879191Y-41629258D01*
X49668319Y-41791066D01*
X49438131Y-41923965D01*
X49192565Y-42025682D01*
X48935824Y-42094476D01*
X48672299Y-42129169D01*
X48406501Y-42129169D01*
X48142976Y-42094476D01*
X47886235Y-42025682D01*
X47640669Y-41923965D01*
X47410481Y-41791066D01*
X47199609Y-41629258D01*
X47011662Y-41441311D01*
X46849854Y-41230439D01*
X46716955Y-41000251D01*
X46615238Y-40754685D01*
X46546444Y-40497944D01*
X46511751Y-40234419D01*
X46511751Y-39968621D01*
X46546444Y-39705096D01*
X46615238Y-39448355D01*
X46716955Y-39202789D01*
X46849854Y-38972601D01*
X47011662Y-38761729D01*
X47199609Y-38573782D01*
X47410481Y-38411974D01*
X47640669Y-38279075D01*
X47886235Y-38177358D01*
X48142976Y-38108564D01*
X48406501Y-38073871D01*
X48672299Y-38073871D01*
X48935824Y-38108564D01*
G37*
G36*
X58509150Y-38579793D02*
G01*
X58673312Y-38633133D01*
X58827108Y-38711496D01*
X58966753Y-38812953D01*
X59088807Y-38935007D01*
X59190264Y-39074652D01*
X59268627Y-39228448D01*
X59321967Y-39392610D01*
X59348969Y-39563095D01*
X59348969Y-39735705D01*
X59321967Y-39906190D01*
X59268627Y-40070352D01*
X59190264Y-40224148D01*
X59088807Y-40363793D01*
X58966753Y-40485847D01*
X58827108Y-40587304D01*
X58673312Y-40665667D01*
X58509150Y-40719007D01*
X58338665Y-40746009D01*
X58166055Y-40746009D01*
X57995570Y-40719007D01*
X57831408Y-40665667D01*
X57677612Y-40587304D01*
X57537967Y-40485847D01*
X57415913Y-40363793D01*
X57314456Y-40224148D01*
X57236093Y-40070352D01*
X57182753Y-39906190D01*
X57155751Y-39735705D01*
X57155751Y-39563095D01*
X57182753Y-39392610D01*
X57236093Y-39228448D01*
X57314456Y-39074652D01*
X57415913Y-38935007D01*
X57537967Y-38812953D01*
X57677612Y-38711496D01*
X57831408Y-38633133D01*
X57995570Y-38579793D01*
X58166055Y-38552791D01*
X58338665Y-38552791D01*
X58509150Y-38579793D01*
G37*
G36*
X53308068Y-38873688D02*
G01*
X53452957Y-38933703D01*
X53583355Y-39020832D01*
X53694248Y-39131725D01*
X53781377Y-39262123D01*
X53841392Y-39407012D01*
X53871988Y-39560826D01*
X53871988Y-39717654D01*
X53841392Y-39871468D01*
X53781377Y-40016357D01*
X53694248Y-40146755D01*
X53583355Y-40257648D01*
X53452957Y-40344777D01*
X53308068Y-40404792D01*
X53154254Y-40435388D01*
X52997426Y-40435388D01*
X52843612Y-40404792D01*
X52698723Y-40344777D01*
X52568325Y-40257648D01*
X52457432Y-40146755D01*
X52370303Y-40016357D01*
X52310288Y-39871468D01*
X52279692Y-39717654D01*
X52279692Y-39560826D01*
X52310288Y-39407012D01*
X52370303Y-39262123D01*
X52457432Y-39131725D01*
X52568325Y-39020832D01*
X52698723Y-38933703D01*
X52843612Y-38873688D01*
X52997426Y-38843092D01*
X53154254Y-38843092D01*
X53308068Y-38873688D01*
G37*
G36*
X104020256Y-38302365D02*
G01*
X104157902Y-38359380D01*
X104281779Y-38442152D01*
X104387128Y-38547501D01*
X104469900Y-38671378D01*
X104526915Y-38809024D01*
X104555980Y-38955147D01*
X104555980Y-39104133D01*
X104526915Y-39250256D01*
X104469900Y-39387902D01*
X104387128Y-39511779D01*
X104281779Y-39617128D01*
X104157902Y-39699900D01*
X104020256Y-39756915D01*
X103874133Y-39785980D01*
X103725147Y-39785980D01*
X103579024Y-39756915D01*
X103441378Y-39699900D01*
X103317501Y-39617128D01*
X103212152Y-39511779D01*
X103129380Y-39387902D01*
X103072365Y-39250256D01*
X103043300Y-39104133D01*
X103043300Y-38955147D01*
X103072365Y-38809024D01*
X103129380Y-38671378D01*
X103212152Y-38547501D01*
X103317501Y-38442152D01*
X103441378Y-38359380D01*
X103579024Y-38302365D01*
X103725147Y-38273300D01*
X103874133Y-38273300D01*
X104020256Y-38302365D01*
G37*
G36*
X117803200Y-39784560D02*
G01*
X116283200Y-39784560D01*
X116283200Y-38264560D01*
X117803200Y-38264560D01*
X117803200Y-39784560D01*
G37*
G36*
X122619040Y-39784560D02*
G01*
X121099040Y-39784560D01*
X121099040Y-38264560D01*
X122619040Y-38264560D01*
X122619040Y-39784560D01*
G37*
G36*
X99108440Y-37742040D02*
G01*
X96908440Y-37742040D01*
X96908440Y-35542040D01*
X99108440Y-35542040D01*
X99108440Y-37742040D01*
G37*
G36*
X88105230Y-35572433D02*
G01*
X88269392Y-35625773D01*
X88423188Y-35704136D01*
X88562833Y-35805593D01*
X88684887Y-35927647D01*
X88786344Y-36067292D01*
X88864707Y-36221088D01*
X88918047Y-36385250D01*
X88945049Y-36555735D01*
X88945049Y-36728345D01*
X88918047Y-36898830D01*
X88864707Y-37062992D01*
X88786344Y-37216788D01*
X88684887Y-37356433D01*
X88562833Y-37478487D01*
X88423188Y-37579944D01*
X88269392Y-37658307D01*
X88105230Y-37711647D01*
X87934745Y-37738649D01*
X87762135Y-37738649D01*
X87591650Y-37711647D01*
X87427488Y-37658307D01*
X87273692Y-37579944D01*
X87134047Y-37478487D01*
X87011993Y-37356433D01*
X86910536Y-37216788D01*
X86832173Y-37062992D01*
X86778833Y-36898830D01*
X86751831Y-36728345D01*
X86751831Y-36555735D01*
X86778833Y-36385250D01*
X86832173Y-36221088D01*
X86910536Y-36067292D01*
X87011993Y-35927647D01*
X87134047Y-35805593D01*
X87273692Y-35704136D01*
X87427488Y-35625773D01*
X87591650Y-35572433D01*
X87762135Y-35545431D01*
X87934745Y-35545431D01*
X88105230Y-35572433D01*
G37*
G36*
X131726675Y-33482332D02*
G01*
X131738175Y-33482332D01*
X131794796Y-33491299D01*
X131924734Y-33508406D01*
X131956442Y-33516902D01*
X131986153Y-33521608D01*
X132043288Y-33540172D01*
X132126858Y-33562565D01*
X132180180Y-33584651D01*
X132224933Y-33599193D01*
X132266860Y-33620556D01*
X132320183Y-33642643D01*
X132395104Y-33685899D01*
X132448638Y-33713176D01*
X132472979Y-33730861D01*
X132501402Y-33747271D01*
X132605366Y-33827045D01*
X132651757Y-33860750D01*
X132659888Y-33868881D01*
X132667414Y-33874656D01*
X132815383Y-34022625D01*
X132821157Y-34030150D01*
X132829290Y-34038283D01*
X132862998Y-34084679D01*
X132942768Y-34188637D01*
X132959176Y-34217057D01*
X132976864Y-34241402D01*
X133004143Y-34294941D01*
X133047396Y-34369856D01*
X133069480Y-34423173D01*
X133090847Y-34465107D01*
X133105390Y-34509866D01*
X133127474Y-34563181D01*
X133149863Y-34646738D01*
X133168432Y-34703887D01*
X133173138Y-34733603D01*
X133181633Y-34765305D01*
X133198738Y-34895231D01*
X133207708Y-34951865D01*
X133207708Y-34963364D01*
X133208947Y-34972776D01*
X133208947Y-35182023D01*
X133207708Y-35191434D01*
X133207708Y-35202935D01*
X133198737Y-35259573D01*
X133181633Y-35389494D01*
X133173139Y-35421193D01*
X133168432Y-35450913D01*
X133149861Y-35508065D01*
X133127474Y-35591618D01*
X133105391Y-35644928D01*
X133090847Y-35689693D01*
X133069478Y-35731630D01*
X133047396Y-35784943D01*
X133004148Y-35859849D01*
X132976864Y-35913398D01*
X132959173Y-35937746D01*
X132942768Y-35966162D01*
X132863012Y-36070102D01*
X132829290Y-36116517D01*
X132821154Y-36124652D01*
X132815383Y-36132174D01*
X132667414Y-36280143D01*
X132659892Y-36285914D01*
X132651757Y-36294050D01*
X132605342Y-36327772D01*
X132501402Y-36407528D01*
X132472986Y-36423933D01*
X132448638Y-36441624D01*
X132395089Y-36468908D01*
X132320183Y-36512156D01*
X132266870Y-36534238D01*
X132224933Y-36555607D01*
X132180168Y-36570151D01*
X132126858Y-36592234D01*
X132043305Y-36614621D01*
X131986153Y-36633192D01*
X131956433Y-36637899D01*
X131924734Y-36646393D01*
X131794810Y-36663497D01*
X131738175Y-36672468D01*
X131726675Y-36672468D01*
X131717264Y-36673707D01*
X131508016Y-36673707D01*
X131498605Y-36672468D01*
X131487105Y-36672468D01*
X131430471Y-36663498D01*
X131300545Y-36646393D01*
X131268843Y-36637898D01*
X131239127Y-36633192D01*
X131181978Y-36614623D01*
X131098421Y-36592234D01*
X131045106Y-36570150D01*
X131000347Y-36555607D01*
X130958413Y-36534240D01*
X130905096Y-36512156D01*
X130830181Y-36468903D01*
X130776642Y-36441624D01*
X130752297Y-36423936D01*
X130723877Y-36407528D01*
X130619919Y-36327758D01*
X130573523Y-36294050D01*
X130565390Y-36285917D01*
X130557865Y-36280143D01*
X130409896Y-36132174D01*
X130404121Y-36124648D01*
X130395990Y-36116517D01*
X130362285Y-36070126D01*
X130282511Y-35966162D01*
X130266101Y-35937739D01*
X130248416Y-35913398D01*
X130221139Y-35859864D01*
X130177883Y-35784943D01*
X130155796Y-35731620D01*
X130134433Y-35689693D01*
X130119891Y-35644940D01*
X130097805Y-35591618D01*
X130075412Y-35508048D01*
X130056848Y-35450913D01*
X130052142Y-35421202D01*
X130043646Y-35389494D01*
X130026540Y-35259559D01*
X130017572Y-35202935D01*
X130017572Y-35191434D01*
X130016333Y-35182023D01*
X130016333Y-34972776D01*
X130017572Y-34963364D01*
X130017572Y-34951865D01*
X130026539Y-34895245D01*
X130043646Y-34765305D01*
X130052142Y-34733594D01*
X130056848Y-34703887D01*
X130075411Y-34646756D01*
X130097805Y-34563181D01*
X130119893Y-34509855D01*
X130134433Y-34465107D01*
X130155793Y-34423183D01*
X130177883Y-34369856D01*
X130221143Y-34294927D01*
X130248416Y-34241402D01*
X130266098Y-34217064D01*
X130282511Y-34188637D01*
X130362299Y-34084654D01*
X130395990Y-34038283D01*
X130404118Y-34030154D01*
X130409896Y-34022625D01*
X130557865Y-33874656D01*
X130565394Y-33868878D01*
X130573523Y-33860750D01*
X130619894Y-33827059D01*
X130723877Y-33747271D01*
X130752304Y-33730858D01*
X130776642Y-33713176D01*
X130830167Y-33685903D01*
X130905096Y-33642643D01*
X130958423Y-33620553D01*
X131000347Y-33599193D01*
X131045095Y-33584653D01*
X131098421Y-33562565D01*
X131181996Y-33540171D01*
X131239127Y-33521608D01*
X131268834Y-33516902D01*
X131300545Y-33508406D01*
X131430485Y-33491299D01*
X131487105Y-33482332D01*
X131498604Y-33482332D01*
X131508016Y-33481093D01*
X131717264Y-33481093D01*
X131726675Y-33482332D01*
G37*
G36*
X138945355Y-33482332D02*
G01*
X138956855Y-33482332D01*
X139013476Y-33491299D01*
X139143414Y-33508406D01*
X139175122Y-33516902D01*
X139204833Y-33521608D01*
X139261968Y-33540172D01*
X139345538Y-33562565D01*
X139398860Y-33584651D01*
X139443613Y-33599193D01*
X139485540Y-33620556D01*
X139538863Y-33642643D01*
X139613784Y-33685899D01*
X139667318Y-33713176D01*
X139691659Y-33730861D01*
X139720082Y-33747271D01*
X139824046Y-33827045D01*
X139870437Y-33860750D01*
X139878568Y-33868881D01*
X139886094Y-33874656D01*
X140034063Y-34022625D01*
X140039837Y-34030150D01*
X140047970Y-34038283D01*
X140081678Y-34084679D01*
X140161448Y-34188637D01*
X140177856Y-34217057D01*
X140195544Y-34241402D01*
X140222823Y-34294941D01*
X140266076Y-34369856D01*
X140288160Y-34423173D01*
X140309527Y-34465107D01*
X140324070Y-34509866D01*
X140346154Y-34563181D01*
X140368543Y-34646738D01*
X140387112Y-34703887D01*
X140391818Y-34733603D01*
X140400313Y-34765305D01*
X140417418Y-34895231D01*
X140426388Y-34951865D01*
X140426388Y-34963364D01*
X140427627Y-34972776D01*
X140427627Y-35182023D01*
X140426388Y-35191434D01*
X140426388Y-35202935D01*
X140417417Y-35259573D01*
X140400313Y-35389494D01*
X140391819Y-35421193D01*
X140387112Y-35450913D01*
X140368541Y-35508065D01*
X140346154Y-35591618D01*
X140324071Y-35644928D01*
X140309527Y-35689693D01*
X140288158Y-35731630D01*
X140266076Y-35784943D01*
X140222828Y-35859849D01*
X140195544Y-35913398D01*
X140177853Y-35937746D01*
X140161448Y-35966162D01*
X140081692Y-36070102D01*
X140047970Y-36116517D01*
X140039834Y-36124652D01*
X140034063Y-36132174D01*
X139886094Y-36280143D01*
X139878572Y-36285914D01*
X139870437Y-36294050D01*
X139824022Y-36327772D01*
X139720082Y-36407528D01*
X139691666Y-36423933D01*
X139667318Y-36441624D01*
X139613769Y-36468908D01*
X139538863Y-36512156D01*
X139485550Y-36534238D01*
X139443613Y-36555607D01*
X139398848Y-36570151D01*
X139345538Y-36592234D01*
X139261985Y-36614621D01*
X139204833Y-36633192D01*
X139175113Y-36637899D01*
X139143414Y-36646393D01*
X139013490Y-36663497D01*
X138956855Y-36672468D01*
X138945355Y-36672468D01*
X138935944Y-36673707D01*
X138726696Y-36673707D01*
X138717285Y-36672468D01*
X138705785Y-36672468D01*
X138649151Y-36663498D01*
X138519225Y-36646393D01*
X138487523Y-36637898D01*
X138457807Y-36633192D01*
X138400658Y-36614623D01*
X138317101Y-36592234D01*
X138263786Y-36570150D01*
X138219027Y-36555607D01*
X138177093Y-36534240D01*
X138123776Y-36512156D01*
X138048861Y-36468903D01*
X137995322Y-36441624D01*
X137970977Y-36423936D01*
X137942557Y-36407528D01*
X137838599Y-36327758D01*
X137792203Y-36294050D01*
X137784070Y-36285917D01*
X137776545Y-36280143D01*
X137628576Y-36132174D01*
X137622801Y-36124648D01*
X137614670Y-36116517D01*
X137580965Y-36070126D01*
X137501191Y-35966162D01*
X137484781Y-35937739D01*
X137467096Y-35913398D01*
X137439819Y-35859864D01*
X137396563Y-35784943D01*
X137374476Y-35731620D01*
X137353113Y-35689693D01*
X137338571Y-35644940D01*
X137316485Y-35591618D01*
X137294092Y-35508048D01*
X137275528Y-35450913D01*
X137270822Y-35421202D01*
X137262326Y-35389494D01*
X137245220Y-35259559D01*
X137236252Y-35202935D01*
X137236252Y-35191434D01*
X137235013Y-35182023D01*
X137235013Y-34972776D01*
X137236252Y-34963364D01*
X137236252Y-34951865D01*
X137245219Y-34895245D01*
X137262326Y-34765305D01*
X137270822Y-34733594D01*
X137275528Y-34703887D01*
X137294091Y-34646756D01*
X137316485Y-34563181D01*
X137338573Y-34509855D01*
X137353113Y-34465107D01*
X137374473Y-34423183D01*
X137396563Y-34369856D01*
X137439823Y-34294927D01*
X137467096Y-34241402D01*
X137484778Y-34217064D01*
X137501191Y-34188637D01*
X137580979Y-34084654D01*
X137614670Y-34038283D01*
X137622798Y-34030154D01*
X137628576Y-34022625D01*
X137776545Y-33874656D01*
X137784074Y-33868878D01*
X137792203Y-33860750D01*
X137838574Y-33827059D01*
X137942557Y-33747271D01*
X137970984Y-33730858D01*
X137995322Y-33713176D01*
X138048847Y-33685903D01*
X138123776Y-33642643D01*
X138177103Y-33620553D01*
X138219027Y-33599193D01*
X138263775Y-33584653D01*
X138317101Y-33562565D01*
X138400676Y-33540171D01*
X138457807Y-33521608D01*
X138487514Y-33516902D01*
X138519225Y-33508406D01*
X138649165Y-33491299D01*
X138705785Y-33482332D01*
X138717284Y-33482332D01*
X138726696Y-33481093D01*
X138935944Y-33481093D01*
X138945355Y-33482332D01*
G37*
G36*
X119551268Y-34708088D02*
G01*
X119696157Y-34768103D01*
X119826555Y-34855232D01*
X119937448Y-34966125D01*
X120024577Y-35096523D01*
X120084592Y-35241412D01*
X120115188Y-35395226D01*
X120115188Y-35552054D01*
X120084592Y-35705868D01*
X120024577Y-35850757D01*
X119937448Y-35981155D01*
X119826555Y-36092048D01*
X119696157Y-36179177D01*
X119551268Y-36239192D01*
X119397454Y-36269788D01*
X119240626Y-36269788D01*
X119086812Y-36239192D01*
X118941923Y-36179177D01*
X118811525Y-36092048D01*
X118700632Y-35981155D01*
X118613503Y-35850757D01*
X118553488Y-35705868D01*
X118522892Y-35552054D01*
X118522892Y-35395226D01*
X118553488Y-35241412D01*
X118613503Y-35096523D01*
X118700632Y-34966125D01*
X118811525Y-34855232D01*
X118941923Y-34768103D01*
X119086812Y-34708088D01*
X119240626Y-34677492D01*
X119397454Y-34677492D01*
X119551268Y-34708088D01*
G37*
G36*
X122091268Y-34708088D02*
G01*
X122236157Y-34768103D01*
X122366555Y-34855232D01*
X122477448Y-34966125D01*
X122564577Y-35096523D01*
X122624592Y-35241412D01*
X122655188Y-35395226D01*
X122655188Y-35552054D01*
X122624592Y-35705868D01*
X122564577Y-35850757D01*
X122477448Y-35981155D01*
X122366555Y-36092048D01*
X122236157Y-36179177D01*
X122091268Y-36239192D01*
X121937454Y-36269788D01*
X121780626Y-36269788D01*
X121626812Y-36239192D01*
X121481923Y-36179177D01*
X121351525Y-36092048D01*
X121240632Y-35981155D01*
X121153503Y-35850757D01*
X121093488Y-35705868D01*
X121062892Y-35552054D01*
X121062892Y-35395226D01*
X121093488Y-35241412D01*
X121153503Y-35096523D01*
X121240632Y-34966125D01*
X121351525Y-34855232D01*
X121481923Y-34768103D01*
X121626812Y-34708088D01*
X121780626Y-34677492D01*
X121937454Y-34677492D01*
X122091268Y-34708088D01*
G37*
G36*
X71937680Y-35717280D02*
G01*
X68737680Y-35717280D01*
X68737680Y-32517280D01*
X71937680Y-32517280D01*
X71937680Y-35717280D01*
G37*
G36*
X55211715Y-32522212D02*
G01*
X55223215Y-32522212D01*
X55279836Y-32531179D01*
X55409774Y-32548286D01*
X55441482Y-32556782D01*
X55471193Y-32561488D01*
X55528328Y-32580052D01*
X55611898Y-32602445D01*
X55665220Y-32624531D01*
X55709973Y-32639073D01*
X55751900Y-32660436D01*
X55805223Y-32682523D01*
X55880144Y-32725779D01*
X55933678Y-32753056D01*
X55958019Y-32770741D01*
X55986442Y-32787151D01*
X56090406Y-32866925D01*
X56136797Y-32900630D01*
X56144928Y-32908761D01*
X56152454Y-32914536D01*
X56300423Y-33062505D01*
X56306197Y-33070030D01*
X56314330Y-33078163D01*
X56348038Y-33124559D01*
X56427808Y-33228517D01*
X56444216Y-33256937D01*
X56461904Y-33281282D01*
X56489183Y-33334821D01*
X56532436Y-33409736D01*
X56554520Y-33463053D01*
X56575887Y-33504987D01*
X56590430Y-33549746D01*
X56612514Y-33603061D01*
X56634903Y-33686618D01*
X56653472Y-33743767D01*
X56658178Y-33773483D01*
X56666673Y-33805185D01*
X56683778Y-33935111D01*
X56692748Y-33991745D01*
X56692748Y-34003244D01*
X56693987Y-34012656D01*
X56693987Y-34221903D01*
X56692748Y-34231314D01*
X56692748Y-34242815D01*
X56683777Y-34299453D01*
X56666673Y-34429374D01*
X56658179Y-34461073D01*
X56653472Y-34490793D01*
X56634901Y-34547945D01*
X56612514Y-34631498D01*
X56590431Y-34684808D01*
X56575887Y-34729573D01*
X56554518Y-34771510D01*
X56532436Y-34824823D01*
X56489188Y-34899729D01*
X56461904Y-34953278D01*
X56444213Y-34977626D01*
X56427808Y-35006042D01*
X56348052Y-35109982D01*
X56314330Y-35156397D01*
X56306194Y-35164532D01*
X56300423Y-35172054D01*
X56152454Y-35320023D01*
X56144932Y-35325794D01*
X56136797Y-35333930D01*
X56090382Y-35367652D01*
X55986442Y-35447408D01*
X55958026Y-35463813D01*
X55933678Y-35481504D01*
X55880129Y-35508788D01*
X55805223Y-35552036D01*
X55751910Y-35574118D01*
X55709973Y-35595487D01*
X55665208Y-35610031D01*
X55611898Y-35632114D01*
X55528345Y-35654501D01*
X55471193Y-35673072D01*
X55441473Y-35677779D01*
X55409774Y-35686273D01*
X55279850Y-35703377D01*
X55223215Y-35712348D01*
X55211715Y-35712348D01*
X55202304Y-35713587D01*
X54993056Y-35713587D01*
X54983645Y-35712348D01*
X54972145Y-35712348D01*
X54915511Y-35703378D01*
X54785585Y-35686273D01*
X54753883Y-35677778D01*
X54724167Y-35673072D01*
X54667018Y-35654503D01*
X54583461Y-35632114D01*
X54530146Y-35610030D01*
X54485387Y-35595487D01*
X54443453Y-35574120D01*
X54390136Y-35552036D01*
X54315221Y-35508783D01*
X54261682Y-35481504D01*
X54237337Y-35463816D01*
X54208917Y-35447408D01*
X54104959Y-35367638D01*
X54058563Y-35333930D01*
X54050430Y-35325797D01*
X54042905Y-35320023D01*
X53894936Y-35172054D01*
X53889161Y-35164528D01*
X53881030Y-35156397D01*
X53847325Y-35110006D01*
X53767551Y-35006042D01*
X53751141Y-34977619D01*
X53733456Y-34953278D01*
X53706179Y-34899744D01*
X53662923Y-34824823D01*
X53640836Y-34771500D01*
X53619473Y-34729573D01*
X53604931Y-34684820D01*
X53582845Y-34631498D01*
X53560452Y-34547928D01*
X53541888Y-34490793D01*
X53537182Y-34461082D01*
X53528686Y-34429374D01*
X53511580Y-34299439D01*
X53502612Y-34242815D01*
X53502612Y-34231314D01*
X53501373Y-34221903D01*
X53501373Y-34012656D01*
X53502612Y-34003244D01*
X53502612Y-33991745D01*
X53511579Y-33935125D01*
X53528686Y-33805185D01*
X53537182Y-33773474D01*
X53541888Y-33743767D01*
X53560451Y-33686636D01*
X53582845Y-33603061D01*
X53604933Y-33549735D01*
X53619473Y-33504987D01*
X53640833Y-33463063D01*
X53662923Y-33409736D01*
X53706183Y-33334807D01*
X53733456Y-33281282D01*
X53751138Y-33256944D01*
X53767551Y-33228517D01*
X53847339Y-33124534D01*
X53881030Y-33078163D01*
X53889158Y-33070034D01*
X53894936Y-33062505D01*
X54042905Y-32914536D01*
X54050434Y-32908758D01*
X54058563Y-32900630D01*
X54104934Y-32866939D01*
X54208917Y-32787151D01*
X54237344Y-32770738D01*
X54261682Y-32753056D01*
X54315207Y-32725783D01*
X54390136Y-32682523D01*
X54443463Y-32660433D01*
X54485387Y-32639073D01*
X54530135Y-32624533D01*
X54583461Y-32602445D01*
X54667036Y-32580051D01*
X54724167Y-32561488D01*
X54753874Y-32556782D01*
X54785585Y-32548286D01*
X54915525Y-32531179D01*
X54972145Y-32522212D01*
X54983644Y-32522212D01*
X54993056Y-32520973D01*
X55202304Y-32520973D01*
X55211715Y-32522212D01*
G37*
G36*
X79883734Y-32418316D02*
G01*
X80062820Y-32476505D01*
X80230598Y-32561992D01*
X80382938Y-32672673D01*
X80516087Y-32805822D01*
X80626768Y-32958162D01*
X80712255Y-33125940D01*
X80770444Y-33305026D01*
X80799901Y-33491009D01*
X80799901Y-33679311D01*
X80770444Y-33865294D01*
X80712255Y-34044380D01*
X80626768Y-34212158D01*
X80516087Y-34364498D01*
X80382938Y-34497647D01*
X80230598Y-34608328D01*
X80062820Y-34693815D01*
X79883734Y-34752004D01*
X79697751Y-34781461D01*
X79509449Y-34781461D01*
X79323466Y-34752004D01*
X79144380Y-34693815D01*
X78976602Y-34608328D01*
X78824262Y-34497647D01*
X78691113Y-34364498D01*
X78580432Y-34212158D01*
X78494945Y-34044380D01*
X78436756Y-33865294D01*
X78407299Y-33679311D01*
X78407299Y-33491009D01*
X78436756Y-33305026D01*
X78494945Y-33125940D01*
X78580432Y-32958162D01*
X78691113Y-32805822D01*
X78824262Y-32672673D01*
X78976602Y-32561992D01*
X79144380Y-32476505D01*
X79323466Y-32418316D01*
X79509449Y-32388859D01*
X79697751Y-32388859D01*
X79883734Y-32418316D01*
G37*
G36*
X120139640Y-32596000D02*
G01*
X117939640Y-32596000D01*
X117939640Y-30396000D01*
X120139640Y-30396000D01*
X120139640Y-32596000D01*
G37*
G36*
X124376430Y-30426393D02*
G01*
X124540592Y-30479733D01*
X124694388Y-30558096D01*
X124834033Y-30659553D01*
X124956087Y-30781607D01*
X125057544Y-30921252D01*
X125135907Y-31075048D01*
X125189247Y-31239210D01*
X125216249Y-31409695D01*
X125216249Y-31582305D01*
X125189247Y-31752790D01*
X125135907Y-31916952D01*
X125057544Y-32070748D01*
X124956087Y-32210393D01*
X124834033Y-32332447D01*
X124694388Y-32433904D01*
X124540592Y-32512267D01*
X124376430Y-32565607D01*
X124205945Y-32592609D01*
X124033335Y-32592609D01*
X123862850Y-32565607D01*
X123698688Y-32512267D01*
X123544892Y-32433904D01*
X123405247Y-32332447D01*
X123283193Y-32210393D01*
X123181736Y-32070748D01*
X123103373Y-31916952D01*
X123050033Y-31752790D01*
X123023031Y-31582305D01*
X123023031Y-31409695D01*
X123050033Y-31239210D01*
X123103373Y-31075048D01*
X123181736Y-30921252D01*
X123283193Y-30781607D01*
X123405247Y-30659553D01*
X123544892Y-30558096D01*
X123698688Y-30479733D01*
X123862850Y-30426393D01*
X124033335Y-30399391D01*
X124205945Y-30399391D01*
X124376430Y-30426393D01*
G37*
G36*
X109265159Y-28231399D02*
G01*
X109401096Y-28287706D01*
X109523437Y-28369452D01*
X109627478Y-28473493D01*
X109709224Y-28595834D01*
X109765531Y-28731771D01*
X109794236Y-28876081D01*
X109797850Y-28949650D01*
X109797850Y-29947870D01*
X109794236Y-30021439D01*
X109765531Y-30165749D01*
X109709224Y-30301686D01*
X109627478Y-30424027D01*
X109523437Y-30528068D01*
X109401096Y-30609814D01*
X109265159Y-30666121D01*
X109120849Y-30694826D01*
X108973711Y-30694826D01*
X108829401Y-30666121D01*
X108693464Y-30609814D01*
X108571123Y-30528068D01*
X108467082Y-30424027D01*
X108385336Y-30301686D01*
X108329029Y-30165749D01*
X108300324Y-30021439D01*
X108296710Y-29947870D01*
X108296710Y-28949650D01*
X108300324Y-28876081D01*
X108329029Y-28731771D01*
X108385336Y-28595834D01*
X108467082Y-28473493D01*
X108571123Y-28369452D01*
X108693464Y-28287706D01*
X108829401Y-28231399D01*
X108973711Y-28202694D01*
X109120849Y-28202694D01*
X109265159Y-28231399D01*
G37*
G36*
X111805159Y-28231399D02*
G01*
X111941096Y-28287706D01*
X112063437Y-28369452D01*
X112167478Y-28473493D01*
X112249224Y-28595834D01*
X112305531Y-28731771D01*
X112334236Y-28876081D01*
X112337850Y-28949650D01*
X112337850Y-29947870D01*
X112334236Y-30021439D01*
X112305531Y-30165749D01*
X112249224Y-30301686D01*
X112167478Y-30424027D01*
X112063437Y-30528068D01*
X111941096Y-30609814D01*
X111805159Y-30666121D01*
X111660849Y-30694826D01*
X111513711Y-30694826D01*
X111369401Y-30666121D01*
X111233464Y-30609814D01*
X111111123Y-30528068D01*
X111007082Y-30424027D01*
X110925336Y-30301686D01*
X110869029Y-30165749D01*
X110840324Y-30021439D01*
X110836710Y-29947870D01*
X110836710Y-28949650D01*
X110840324Y-28876081D01*
X110869029Y-28731771D01*
X110925336Y-28595834D01*
X111007082Y-28473493D01*
X111111123Y-28369452D01*
X111233464Y-28287706D01*
X111369401Y-28231399D01*
X111513711Y-28202694D01*
X111660849Y-28202694D01*
X111805159Y-28231399D01*
G37*
G36*
X114345159Y-28231399D02*
G01*
X114481096Y-28287706D01*
X114603437Y-28369452D01*
X114707478Y-28473493D01*
X114789224Y-28595834D01*
X114845531Y-28731771D01*
X114874236Y-28876081D01*
X114877850Y-28949650D01*
X114877850Y-29947870D01*
X114874236Y-30021439D01*
X114845531Y-30165749D01*
X114789224Y-30301686D01*
X114707478Y-30424027D01*
X114603437Y-30528068D01*
X114481096Y-30609814D01*
X114345159Y-30666121D01*
X114200849Y-30694826D01*
X114053711Y-30694826D01*
X113909401Y-30666121D01*
X113773464Y-30609814D01*
X113651123Y-30528068D01*
X113547082Y-30424027D01*
X113465336Y-30301686D01*
X113409029Y-30165749D01*
X113380324Y-30021439D01*
X113376710Y-29947870D01*
X113376710Y-28949650D01*
X113380324Y-28876081D01*
X113409029Y-28731771D01*
X113465336Y-28595834D01*
X113547082Y-28473493D01*
X113651123Y-28369452D01*
X113773464Y-28287706D01*
X113909401Y-28231399D01*
X114053711Y-28202694D01*
X114200849Y-28202694D01*
X114345159Y-28231399D01*
G37*
G36*
X80803600Y-29785160D02*
G01*
X78403600Y-29785160D01*
X78403600Y-27385160D01*
X80803600Y-27385160D01*
X80803600Y-29785160D01*
G37*
G36*
X48826155Y-26131572D02*
G01*
X48837655Y-26131572D01*
X48894276Y-26140539D01*
X49024214Y-26157646D01*
X49055922Y-26166142D01*
X49085633Y-26170848D01*
X49142768Y-26189412D01*
X49226338Y-26211805D01*
X49279660Y-26233891D01*
X49324413Y-26248433D01*
X49366340Y-26269796D01*
X49419663Y-26291883D01*
X49494584Y-26335139D01*
X49548118Y-26362416D01*
X49572459Y-26380101D01*
X49600882Y-26396511D01*
X49704846Y-26476285D01*
X49751237Y-26509990D01*
X49759368Y-26518121D01*
X49766894Y-26523896D01*
X49914863Y-26671865D01*
X49920637Y-26679390D01*
X49928770Y-26687523D01*
X49962478Y-26733919D01*
X50042248Y-26837877D01*
X50058656Y-26866297D01*
X50076344Y-26890642D01*
X50103623Y-26944181D01*
X50146876Y-27019096D01*
X50168960Y-27072413D01*
X50190327Y-27114347D01*
X50204870Y-27159106D01*
X50226954Y-27212421D01*
X50249343Y-27295978D01*
X50267912Y-27353127D01*
X50272618Y-27382843D01*
X50281113Y-27414545D01*
X50298218Y-27544471D01*
X50307188Y-27601105D01*
X50307188Y-27612604D01*
X50308427Y-27622016D01*
X50308427Y-27831263D01*
X50307188Y-27840674D01*
X50307188Y-27852175D01*
X50298217Y-27908813D01*
X50281113Y-28038734D01*
X50272619Y-28070433D01*
X50267912Y-28100153D01*
X50249341Y-28157305D01*
X50226954Y-28240858D01*
X50204871Y-28294168D01*
X50190327Y-28338933D01*
X50168958Y-28380870D01*
X50146876Y-28434183D01*
X50103628Y-28509089D01*
X50076344Y-28562638D01*
X50058653Y-28586986D01*
X50042248Y-28615402D01*
X49962492Y-28719342D01*
X49928770Y-28765757D01*
X49920634Y-28773892D01*
X49914863Y-28781414D01*
X49766894Y-28929383D01*
X49759372Y-28935154D01*
X49751237Y-28943290D01*
X49704822Y-28977012D01*
X49600882Y-29056768D01*
X49572466Y-29073173D01*
X49548118Y-29090864D01*
X49494569Y-29118148D01*
X49419663Y-29161396D01*
X49366350Y-29183478D01*
X49324413Y-29204847D01*
X49279648Y-29219391D01*
X49226338Y-29241474D01*
X49142785Y-29263861D01*
X49085633Y-29282432D01*
X49055913Y-29287139D01*
X49024214Y-29295633D01*
X48894290Y-29312737D01*
X48837655Y-29321708D01*
X48826155Y-29321708D01*
X48816744Y-29322947D01*
X48607496Y-29322947D01*
X48598085Y-29321708D01*
X48586585Y-29321708D01*
X48529951Y-29312738D01*
X48400025Y-29295633D01*
X48368323Y-29287138D01*
X48338607Y-29282432D01*
X48281458Y-29263863D01*
X48197901Y-29241474D01*
X48144586Y-29219390D01*
X48099827Y-29204847D01*
X48057893Y-29183480D01*
X48004576Y-29161396D01*
X47929661Y-29118143D01*
X47876122Y-29090864D01*
X47851777Y-29073176D01*
X47823357Y-29056768D01*
X47719399Y-28976998D01*
X47673003Y-28943290D01*
X47664870Y-28935157D01*
X47657345Y-28929383D01*
X47509376Y-28781414D01*
X47503601Y-28773888D01*
X47495470Y-28765757D01*
X47461765Y-28719366D01*
X47381991Y-28615402D01*
X47365581Y-28586979D01*
X47347896Y-28562638D01*
X47320619Y-28509104D01*
X47277363Y-28434183D01*
X47255276Y-28380860D01*
X47233913Y-28338933D01*
X47219371Y-28294180D01*
X47197285Y-28240858D01*
X47174892Y-28157288D01*
X47156328Y-28100153D01*
X47151622Y-28070442D01*
X47143126Y-28038734D01*
X47126020Y-27908799D01*
X47117052Y-27852175D01*
X47117052Y-27840674D01*
X47115813Y-27831263D01*
X47115813Y-27622016D01*
X47117052Y-27612604D01*
X47117052Y-27601105D01*
X47126019Y-27544485D01*
X47143126Y-27414545D01*
X47151622Y-27382834D01*
X47156328Y-27353127D01*
X47174891Y-27295996D01*
X47197285Y-27212421D01*
X47219373Y-27159095D01*
X47233913Y-27114347D01*
X47255273Y-27072423D01*
X47277363Y-27019096D01*
X47320623Y-26944167D01*
X47347896Y-26890642D01*
X47365578Y-26866304D01*
X47381991Y-26837877D01*
X47461779Y-26733894D01*
X47495470Y-26687523D01*
X47503598Y-26679394D01*
X47509376Y-26671865D01*
X47657345Y-26523896D01*
X47664874Y-26518118D01*
X47673003Y-26509990D01*
X47719374Y-26476299D01*
X47823357Y-26396511D01*
X47851784Y-26380098D01*
X47876122Y-26362416D01*
X47929647Y-26335143D01*
X48004576Y-26291883D01*
X48057903Y-26269793D01*
X48099827Y-26248433D01*
X48144575Y-26233893D01*
X48197901Y-26211805D01*
X48281476Y-26189411D01*
X48338607Y-26170848D01*
X48368314Y-26166142D01*
X48400025Y-26157646D01*
X48529965Y-26140539D01*
X48586585Y-26131572D01*
X48598084Y-26131572D01*
X48607496Y-26130333D01*
X48816744Y-26130333D01*
X48826155Y-26131572D01*
G37*
G36*
X137929355Y-26116332D02*
G01*
X137940855Y-26116332D01*
X137997476Y-26125299D01*
X138127414Y-26142406D01*
X138159122Y-26150902D01*
X138188833Y-26155608D01*
X138245968Y-26174172D01*
X138329538Y-26196565D01*
X138382860Y-26218651D01*
X138427613Y-26233193D01*
X138469540Y-26254556D01*
X138522863Y-26276643D01*
X138597784Y-26319899D01*
X138651318Y-26347176D01*
X138675659Y-26364861D01*
X138704082Y-26381271D01*
X138808046Y-26461045D01*
X138854437Y-26494750D01*
X138862568Y-26502881D01*
X138870094Y-26508656D01*
X139018063Y-26656625D01*
X139023837Y-26664150D01*
X139031970Y-26672283D01*
X139065678Y-26718679D01*
X139145448Y-26822637D01*
X139161856Y-26851057D01*
X139179544Y-26875402D01*
X139206823Y-26928941D01*
X139250076Y-27003856D01*
X139272160Y-27057173D01*
X139293527Y-27099107D01*
X139308070Y-27143866D01*
X139330154Y-27197181D01*
X139352543Y-27280738D01*
X139371112Y-27337887D01*
X139375818Y-27367603D01*
X139384313Y-27399305D01*
X139401418Y-27529231D01*
X139410388Y-27585865D01*
X139410388Y-27597364D01*
X139411627Y-27606776D01*
X139411627Y-27816023D01*
X139410388Y-27825434D01*
X139410388Y-27836935D01*
X139401417Y-27893573D01*
X139384313Y-28023494D01*
X139375819Y-28055193D01*
X139371112Y-28084913D01*
X139352541Y-28142065D01*
X139330154Y-28225618D01*
X139308071Y-28278928D01*
X139293527Y-28323693D01*
X139272158Y-28365630D01*
X139250076Y-28418943D01*
X139206828Y-28493849D01*
X139179544Y-28547398D01*
X139161853Y-28571746D01*
X139145448Y-28600162D01*
X139065692Y-28704102D01*
X139031970Y-28750517D01*
X139023834Y-28758652D01*
X139018063Y-28766174D01*
X138870094Y-28914143D01*
X138862572Y-28919914D01*
X138854437Y-28928050D01*
X138808022Y-28961772D01*
X138704082Y-29041528D01*
X138675666Y-29057933D01*
X138651318Y-29075624D01*
X138597769Y-29102908D01*
X138522863Y-29146156D01*
X138469550Y-29168238D01*
X138427613Y-29189607D01*
X138382848Y-29204151D01*
X138329538Y-29226234D01*
X138245985Y-29248621D01*
X138188833Y-29267192D01*
X138159113Y-29271899D01*
X138127414Y-29280393D01*
X137997490Y-29297497D01*
X137940855Y-29306468D01*
X137929355Y-29306468D01*
X137919944Y-29307707D01*
X137710696Y-29307707D01*
X137701285Y-29306468D01*
X137689785Y-29306468D01*
X137633151Y-29297498D01*
X137503225Y-29280393D01*
X137471523Y-29271898D01*
X137441807Y-29267192D01*
X137384658Y-29248623D01*
X137301101Y-29226234D01*
X137247786Y-29204150D01*
X137203027Y-29189607D01*
X137161093Y-29168240D01*
X137107776Y-29146156D01*
X137032861Y-29102903D01*
X136979322Y-29075624D01*
X136954977Y-29057936D01*
X136926557Y-29041528D01*
X136822599Y-28961758D01*
X136776203Y-28928050D01*
X136768070Y-28919917D01*
X136760545Y-28914143D01*
X136612576Y-28766174D01*
X136606801Y-28758648D01*
X136598670Y-28750517D01*
X136564965Y-28704126D01*
X136485191Y-28600162D01*
X136468781Y-28571739D01*
X136451096Y-28547398D01*
X136423819Y-28493864D01*
X136380563Y-28418943D01*
X136358476Y-28365620D01*
X136337113Y-28323693D01*
X136322571Y-28278940D01*
X136300485Y-28225618D01*
X136278092Y-28142048D01*
X136259528Y-28084913D01*
X136254822Y-28055202D01*
X136246326Y-28023494D01*
X136229220Y-27893559D01*
X136220252Y-27836935D01*
X136220252Y-27825434D01*
X136219013Y-27816023D01*
X136219013Y-27606776D01*
X136220252Y-27597364D01*
X136220252Y-27585865D01*
X136229219Y-27529245D01*
X136246326Y-27399305D01*
X136254822Y-27367594D01*
X136259528Y-27337887D01*
X136278091Y-27280756D01*
X136300485Y-27197181D01*
X136322573Y-27143855D01*
X136337113Y-27099107D01*
X136358473Y-27057183D01*
X136380563Y-27003856D01*
X136423823Y-26928927D01*
X136451096Y-26875402D01*
X136468778Y-26851064D01*
X136485191Y-26822637D01*
X136564979Y-26718654D01*
X136598670Y-26672283D01*
X136606798Y-26664154D01*
X136612576Y-26656625D01*
X136760545Y-26508656D01*
X136768074Y-26502878D01*
X136776203Y-26494750D01*
X136822574Y-26461059D01*
X136926557Y-26381271D01*
X136954984Y-26364858D01*
X136979322Y-26347176D01*
X137032847Y-26319903D01*
X137107776Y-26276643D01*
X137161103Y-26254553D01*
X137203027Y-26233193D01*
X137247775Y-26218653D01*
X137301101Y-26196565D01*
X137384676Y-26174171D01*
X137441807Y-26155608D01*
X137471514Y-26150902D01*
X137503225Y-26142406D01*
X137633165Y-26125299D01*
X137689785Y-26116332D01*
X137701284Y-26116332D01*
X137710696Y-26115093D01*
X137919944Y-26115093D01*
X137929355Y-26116332D01*
G37*
G36*
X71937680Y-29184400D02*
G01*
X68737680Y-29184400D01*
X68737680Y-25984400D01*
X71937680Y-25984400D01*
X71937680Y-29184400D01*
G37*
G36*
X55211715Y-25989332D02*
G01*
X55223215Y-25989332D01*
X55279836Y-25998299D01*
X55409774Y-26015406D01*
X55441482Y-26023902D01*
X55471193Y-26028608D01*
X55528328Y-26047172D01*
X55611898Y-26069565D01*
X55665220Y-26091651D01*
X55709973Y-26106193D01*
X55751900Y-26127556D01*
X55805223Y-26149643D01*
X55880144Y-26192899D01*
X55933678Y-26220176D01*
X55958019Y-26237861D01*
X55986442Y-26254271D01*
X56090406Y-26334045D01*
X56136797Y-26367750D01*
X56144928Y-26375881D01*
X56152454Y-26381656D01*
X56300423Y-26529625D01*
X56306197Y-26537150D01*
X56314330Y-26545283D01*
X56348038Y-26591679D01*
X56427808Y-26695637D01*
X56444216Y-26724057D01*
X56461904Y-26748402D01*
X56489183Y-26801941D01*
X56532436Y-26876856D01*
X56554520Y-26930173D01*
X56575887Y-26972107D01*
X56590430Y-27016866D01*
X56612514Y-27070181D01*
X56634903Y-27153738D01*
X56653472Y-27210887D01*
X56658178Y-27240603D01*
X56666673Y-27272305D01*
X56683778Y-27402231D01*
X56692748Y-27458865D01*
X56692748Y-27470364D01*
X56693987Y-27479776D01*
X56693987Y-27689023D01*
X56692748Y-27698434D01*
X56692748Y-27709935D01*
X56683777Y-27766573D01*
X56666673Y-27896494D01*
X56658179Y-27928193D01*
X56653472Y-27957913D01*
X56634901Y-28015065D01*
X56612514Y-28098618D01*
X56590431Y-28151928D01*
X56575887Y-28196693D01*
X56554518Y-28238630D01*
X56532436Y-28291943D01*
X56489188Y-28366849D01*
X56461904Y-28420398D01*
X56444213Y-28444746D01*
X56427808Y-28473162D01*
X56348052Y-28577102D01*
X56314330Y-28623517D01*
X56306194Y-28631652D01*
X56300423Y-28639174D01*
X56152454Y-28787143D01*
X56144932Y-28792914D01*
X56136797Y-28801050D01*
X56090382Y-28834772D01*
X55986442Y-28914528D01*
X55958026Y-28930933D01*
X55933678Y-28948624D01*
X55880129Y-28975908D01*
X55805223Y-29019156D01*
X55751910Y-29041238D01*
X55709973Y-29062607D01*
X55665208Y-29077151D01*
X55611898Y-29099234D01*
X55528345Y-29121621D01*
X55471193Y-29140192D01*
X55441473Y-29144899D01*
X55409774Y-29153393D01*
X55279850Y-29170497D01*
X55223215Y-29179468D01*
X55211715Y-29179468D01*
X55202304Y-29180707D01*
X54993056Y-29180707D01*
X54983645Y-29179468D01*
X54972145Y-29179468D01*
X54915511Y-29170498D01*
X54785585Y-29153393D01*
X54753883Y-29144898D01*
X54724167Y-29140192D01*
X54667018Y-29121623D01*
X54583461Y-29099234D01*
X54530146Y-29077150D01*
X54485387Y-29062607D01*
X54443453Y-29041240D01*
X54390136Y-29019156D01*
X54315221Y-28975903D01*
X54261682Y-28948624D01*
X54237337Y-28930936D01*
X54208917Y-28914528D01*
X54104959Y-28834758D01*
X54058563Y-28801050D01*
X54050430Y-28792917D01*
X54042905Y-28787143D01*
X53894936Y-28639174D01*
X53889161Y-28631648D01*
X53881030Y-28623517D01*
X53847325Y-28577126D01*
X53767551Y-28473162D01*
X53751141Y-28444739D01*
X53733456Y-28420398D01*
X53706179Y-28366864D01*
X53662923Y-28291943D01*
X53640836Y-28238620D01*
X53619473Y-28196693D01*
X53604931Y-28151940D01*
X53582845Y-28098618D01*
X53560452Y-28015048D01*
X53541888Y-27957913D01*
X53537182Y-27928202D01*
X53528686Y-27896494D01*
X53511580Y-27766559D01*
X53502612Y-27709935D01*
X53502612Y-27698434D01*
X53501373Y-27689023D01*
X53501373Y-27479776D01*
X53502612Y-27470364D01*
X53502612Y-27458865D01*
X53511579Y-27402245D01*
X53528686Y-27272305D01*
X53537182Y-27240594D01*
X53541888Y-27210887D01*
X53560451Y-27153756D01*
X53582845Y-27070181D01*
X53604933Y-27016855D01*
X53619473Y-26972107D01*
X53640833Y-26930183D01*
X53662923Y-26876856D01*
X53706183Y-26801927D01*
X53733456Y-26748402D01*
X53751138Y-26724064D01*
X53767551Y-26695637D01*
X53847339Y-26591654D01*
X53881030Y-26545283D01*
X53889158Y-26537154D01*
X53894936Y-26529625D01*
X54042905Y-26381656D01*
X54050434Y-26375878D01*
X54058563Y-26367750D01*
X54104934Y-26334059D01*
X54208917Y-26254271D01*
X54237344Y-26237858D01*
X54261682Y-26220176D01*
X54315207Y-26192903D01*
X54390136Y-26149643D01*
X54443463Y-26127553D01*
X54485387Y-26106193D01*
X54530135Y-26091653D01*
X54583461Y-26069565D01*
X54667036Y-26047171D01*
X54724167Y-26028608D01*
X54753874Y-26023902D01*
X54785585Y-26015406D01*
X54915525Y-25998299D01*
X54972145Y-25989332D01*
X54983644Y-25989332D01*
X54993056Y-25988093D01*
X55202304Y-25988093D01*
X55211715Y-25989332D01*
G37*
M02*
